<?xml version="1.0" encoding="utf-8" standalone="no"?>
<!DOCTYPE svg PUBLIC "-//W3C//DTD SVG 1.1//EN"
  "http://www.w3.org/Graphics/SVG/1.1/DTD/svg11.dtd">
<svg xmlns:xlink="http://www.w3.org/1999/xlink" width="621.70625pt" height="281.634375pt" viewBox="0 0 621.70625 281.634375" xmlns="http://www.w3.org/2000/svg" version="1.1">
 <metadata>
  <rdf:RDF xmlns:dc="http://purl.org/dc/elements/1.1/" xmlns:cc="http://creativecommons.org/ns#" xmlns:rdf="http://www.w3.org/1999/02/22-rdf-syntax-ns#">
   <cc:Work>
    <dc:type rdf:resource="http://purl.org/dc/dcmitype/StillImage"/>
    <dc:date>2026-03-19T17:31:41.050438</dc:date>
    <dc:format>image/svg+xml</dc:format>
    <dc:creator>
     <cc:Agent>
      <dc:title>Matplotlib v3.10.8, https://matplotlib.org/</dc:title>
     </cc:Agent>
    </dc:creator>
   </cc:Work>
  </rdf:RDF>
 </metadata>
 <defs>
  <style type="text/css">*{stroke-linejoin: round; stroke-linecap: butt}</style>
 </defs>
 <g id="figure_1">
  <g id="patch_1">
   <path d="M 0 281.634375 
L 621.70625 281.634375 
L 621.70625 0 
L 0 0 
z
" style="fill: #ffffff"/>
  </g>
  <g id="axes_1">
   <g id="patch_2">
    <path d="M 56.50625 244.078125 
L 614.50625 244.078125 
L 614.50625 22.318125 
L 56.50625 22.318125 
z
" style="fill: #ffffff"/>
   </g>
   <g id="matplotlib.axis_1">
    <g id="xtick_1">
     <g id="line2d_1">
      <path d="M 81.869886 244.078125 
L 81.869886 22.318125 
" clip-path="url(#p59e66b7722)" style="fill: none; stroke: #b0b0b0; stroke-opacity: 0.3; stroke-width: 0.8; stroke-linecap: square"/>
     </g>
     <g id="line2d_2">
      <defs>
       <path id="m997ce92951" d="M 0 0 
L 0 3.5 
" style="stroke: #000000; stroke-width: 0.8"/>
      </defs>
      <g>
       <use xlink:href="#m997ce92951" x="81.869886" y="244.078125" style="stroke: #000000; stroke-width: 0.8"/>
      </g>
     </g>
     <g id="text_1">
      <!-- 0 -->
      <g transform="translate(78.688636 258.676562) scale(0.1 -0.1)">
       <defs>
        <path id="DejaVuSans-30" d="M 2034 4250 
Q 1547 4250 1301 3770 
Q 1056 3291 1056 2328 
Q 1056 1369 1301 889 
Q 1547 409 2034 409 
Q 2525 409 2770 889 
Q 3016 1369 3016 2328 
Q 3016 3291 2770 3770 
Q 2525 4250 2034 4250 
z
M 2034 4750 
Q 2819 4750 3233 4129 
Q 3647 3509 3647 2328 
Q 3647 1150 3233 529 
Q 2819 -91 2034 -91 
Q 1250 -91 836 529 
Q 422 1150 422 2328 
Q 422 3509 836 4129 
Q 1250 4750 2034 4750 
z
" transform="scale(0.015625)"/>
       </defs>
       <use xlink:href="#DejaVuSans-30"/>
      </g>
     </g>
    </g>
    <g id="xtick_2">
     <g id="line2d_3">
      <path d="M 166.98276 244.078125 
L 166.98276 22.318125 
" clip-path="url(#p59e66b7722)" style="fill: none; stroke: #b0b0b0; stroke-opacity: 0.3; stroke-width: 0.8; stroke-linecap: square"/>
     </g>
     <g id="line2d_4">
      <g>
       <use xlink:href="#m997ce92951" x="166.98276" y="244.078125" style="stroke: #000000; stroke-width: 0.8"/>
      </g>
     </g>
     <g id="text_2">
      <!-- 50 -->
      <g transform="translate(160.62026 258.676562) scale(0.1 -0.1)">
       <defs>
        <path id="DejaVuSans-35" d="M 691 4666 
L 3169 4666 
L 3169 4134 
L 1269 4134 
L 1269 2991 
Q 1406 3038 1543 3061 
Q 1681 3084 1819 3084 
Q 2600 3084 3056 2656 
Q 3513 2228 3513 1497 
Q 3513 744 3044 326 
Q 2575 -91 1722 -91 
Q 1428 -91 1123 -41 
Q 819 9 494 109 
L 494 744 
Q 775 591 1075 516 
Q 1375 441 1709 441 
Q 2250 441 2565 725 
Q 2881 1009 2881 1497 
Q 2881 1984 2565 2268 
Q 2250 2553 1709 2553 
Q 1456 2553 1204 2497 
Q 953 2441 691 2322 
L 691 4666 
z
" transform="scale(0.015625)"/>
       </defs>
       <use xlink:href="#DejaVuSans-35"/>
       <use xlink:href="#DejaVuSans-30" transform="translate(63.623047 0)"/>
      </g>
     </g>
    </g>
    <g id="xtick_3">
     <g id="line2d_5">
      <path d="M 252.095634 244.078125 
L 252.095634 22.318125 
" clip-path="url(#p59e66b7722)" style="fill: none; stroke: #b0b0b0; stroke-opacity: 0.3; stroke-width: 0.8; stroke-linecap: square"/>
     </g>
     <g id="line2d_6">
      <g>
       <use xlink:href="#m997ce92951" x="252.095634" y="244.078125" style="stroke: #000000; stroke-width: 0.8"/>
      </g>
     </g>
     <g id="text_3">
      <!-- 100 -->
      <g transform="translate(242.551884 258.676562) scale(0.1 -0.1)">
       <defs>
        <path id="DejaVuSans-31" d="M 794 531 
L 1825 531 
L 1825 4091 
L 703 3866 
L 703 4441 
L 1819 4666 
L 2450 4666 
L 2450 531 
L 3481 531 
L 3481 0 
L 794 0 
L 794 531 
z
" transform="scale(0.015625)"/>
       </defs>
       <use xlink:href="#DejaVuSans-31"/>
       <use xlink:href="#DejaVuSans-30" transform="translate(63.623047 0)"/>
       <use xlink:href="#DejaVuSans-30" transform="translate(127.246094 0)"/>
      </g>
     </g>
    </g>
    <g id="xtick_4">
     <g id="line2d_7">
      <path d="M 337.208507 244.078125 
L 337.208507 22.318125 
" clip-path="url(#p59e66b7722)" style="fill: none; stroke: #b0b0b0; stroke-opacity: 0.3; stroke-width: 0.8; stroke-linecap: square"/>
     </g>
     <g id="line2d_8">
      <g>
       <use xlink:href="#m997ce92951" x="337.208507" y="244.078125" style="stroke: #000000; stroke-width: 0.8"/>
      </g>
     </g>
     <g id="text_4">
      <!-- 150 -->
      <g transform="translate(327.664757 258.676562) scale(0.1 -0.1)">
       <use xlink:href="#DejaVuSans-31"/>
       <use xlink:href="#DejaVuSans-35" transform="translate(63.623047 0)"/>
       <use xlink:href="#DejaVuSans-30" transform="translate(127.246094 0)"/>
      </g>
     </g>
    </g>
    <g id="xtick_5">
     <g id="line2d_9">
      <path d="M 422.321381 244.078125 
L 422.321381 22.318125 
" clip-path="url(#p59e66b7722)" style="fill: none; stroke: #b0b0b0; stroke-opacity: 0.3; stroke-width: 0.8; stroke-linecap: square"/>
     </g>
     <g id="line2d_10">
      <g>
       <use xlink:href="#m997ce92951" x="422.321381" y="244.078125" style="stroke: #000000; stroke-width: 0.8"/>
      </g>
     </g>
     <g id="text_5">
      <!-- 200 -->
      <g transform="translate(412.777631 258.676562) scale(0.1 -0.1)">
       <defs>
        <path id="DejaVuSans-32" d="M 1228 531 
L 3431 531 
L 3431 0 
L 469 0 
L 469 531 
Q 828 903 1448 1529 
Q 2069 2156 2228 2338 
Q 2531 2678 2651 2914 
Q 2772 3150 2772 3378 
Q 2772 3750 2511 3984 
Q 2250 4219 1831 4219 
Q 1534 4219 1204 4116 
Q 875 4013 500 3803 
L 500 4441 
Q 881 4594 1212 4672 
Q 1544 4750 1819 4750 
Q 2544 4750 2975 4387 
Q 3406 4025 3406 3419 
Q 3406 3131 3298 2873 
Q 3191 2616 2906 2266 
Q 2828 2175 2409 1742 
Q 1991 1309 1228 531 
z
" transform="scale(0.015625)"/>
       </defs>
       <use xlink:href="#DejaVuSans-32"/>
       <use xlink:href="#DejaVuSans-30" transform="translate(63.623047 0)"/>
       <use xlink:href="#DejaVuSans-30" transform="translate(127.246094 0)"/>
      </g>
     </g>
    </g>
    <g id="xtick_6">
     <g id="line2d_11">
      <path d="M 507.434255 244.078125 
L 507.434255 22.318125 
" clip-path="url(#p59e66b7722)" style="fill: none; stroke: #b0b0b0; stroke-opacity: 0.3; stroke-width: 0.8; stroke-linecap: square"/>
     </g>
     <g id="line2d_12">
      <g>
       <use xlink:href="#m997ce92951" x="507.434255" y="244.078125" style="stroke: #000000; stroke-width: 0.8"/>
      </g>
     </g>
     <g id="text_6">
      <!-- 250 -->
      <g transform="translate(497.890505 258.676562) scale(0.1 -0.1)">
       <use xlink:href="#DejaVuSans-32"/>
       <use xlink:href="#DejaVuSans-35" transform="translate(63.623047 0)"/>
       <use xlink:href="#DejaVuSans-30" transform="translate(127.246094 0)"/>
      </g>
     </g>
    </g>
    <g id="xtick_7">
     <g id="line2d_13">
      <path d="M 592.547129 244.078125 
L 592.547129 22.318125 
" clip-path="url(#p59e66b7722)" style="fill: none; stroke: #b0b0b0; stroke-opacity: 0.3; stroke-width: 0.8; stroke-linecap: square"/>
     </g>
     <g id="line2d_14">
      <g>
       <use xlink:href="#m997ce92951" x="592.547129" y="244.078125" style="stroke: #000000; stroke-width: 0.8"/>
      </g>
     </g>
     <g id="text_7">
      <!-- 300 -->
      <g transform="translate(583.003379 258.676562) scale(0.1 -0.1)">
       <defs>
        <path id="DejaVuSans-33" d="M 2597 2516 
Q 3050 2419 3304 2112 
Q 3559 1806 3559 1356 
Q 3559 666 3084 287 
Q 2609 -91 1734 -91 
Q 1441 -91 1130 -33 
Q 819 25 488 141 
L 488 750 
Q 750 597 1062 519 
Q 1375 441 1716 441 
Q 2309 441 2620 675 
Q 2931 909 2931 1356 
Q 2931 1769 2642 2001 
Q 2353 2234 1838 2234 
L 1294 2234 
L 1294 2753 
L 1863 2753 
Q 2328 2753 2575 2939 
Q 2822 3125 2822 3475 
Q 2822 3834 2567 4026 
Q 2313 4219 1838 4219 
Q 1578 4219 1281 4162 
Q 984 4106 628 3988 
L 628 4550 
Q 988 4650 1302 4700 
Q 1616 4750 1894 4750 
Q 2613 4750 3031 4423 
Q 3450 4097 3450 3541 
Q 3450 3153 3228 2886 
Q 3006 2619 2597 2516 
z
" transform="scale(0.015625)"/>
       </defs>
       <use xlink:href="#DejaVuSans-33"/>
       <use xlink:href="#DejaVuSans-30" transform="translate(63.623047 0)"/>
       <use xlink:href="#DejaVuSans-30" transform="translate(127.246094 0)"/>
      </g>
     </g>
    </g>
    <g id="text_8">
     <!-- Time Steps -->
     <g transform="translate(307.69375 272.354687) scale(0.1 -0.1)">
      <defs>
       <path id="DejaVuSans-54" d="M -19 4666 
L 3928 4666 
L 3928 4134 
L 2272 4134 
L 2272 0 
L 1638 0 
L 1638 4134 
L -19 4134 
L -19 4666 
z
" transform="scale(0.015625)"/>
       <path id="DejaVuSans-69" d="M 603 3500 
L 1178 3500 
L 1178 0 
L 603 0 
L 603 3500 
z
M 603 4863 
L 1178 4863 
L 1178 4134 
L 603 4134 
L 603 4863 
z
" transform="scale(0.015625)"/>
       <path id="DejaVuSans-6d" d="M 3328 2828 
Q 3544 3216 3844 3400 
Q 4144 3584 4550 3584 
Q 5097 3584 5394 3201 
Q 5691 2819 5691 2113 
L 5691 0 
L 5113 0 
L 5113 2094 
Q 5113 2597 4934 2840 
Q 4756 3084 4391 3084 
Q 3944 3084 3684 2787 
Q 3425 2491 3425 1978 
L 3425 0 
L 2847 0 
L 2847 2094 
Q 2847 2600 2669 2842 
Q 2491 3084 2119 3084 
Q 1678 3084 1418 2786 
Q 1159 2488 1159 1978 
L 1159 0 
L 581 0 
L 581 3500 
L 1159 3500 
L 1159 2956 
Q 1356 3278 1631 3431 
Q 1906 3584 2284 3584 
Q 2666 3584 2933 3390 
Q 3200 3197 3328 2828 
z
" transform="scale(0.015625)"/>
       <path id="DejaVuSans-65" d="M 3597 1894 
L 3597 1613 
L 953 1613 
Q 991 1019 1311 708 
Q 1631 397 2203 397 
Q 2534 397 2845 478 
Q 3156 559 3463 722 
L 3463 178 
Q 3153 47 2828 -22 
Q 2503 -91 2169 -91 
Q 1331 -91 842 396 
Q 353 884 353 1716 
Q 353 2575 817 3079 
Q 1281 3584 2069 3584 
Q 2775 3584 3186 3129 
Q 3597 2675 3597 1894 
z
M 3022 2063 
Q 3016 2534 2758 2815 
Q 2500 3097 2075 3097 
Q 1594 3097 1305 2825 
Q 1016 2553 972 2059 
L 3022 2063 
z
" transform="scale(0.015625)"/>
       <path id="DejaVuSans-20" transform="scale(0.015625)"/>
       <path id="DejaVuSans-53" d="M 3425 4513 
L 3425 3897 
Q 3066 4069 2747 4153 
Q 2428 4238 2131 4238 
Q 1616 4238 1336 4038 
Q 1056 3838 1056 3469 
Q 1056 3159 1242 3001 
Q 1428 2844 1947 2747 
L 2328 2669 
Q 3034 2534 3370 2195 
Q 3706 1856 3706 1288 
Q 3706 609 3251 259 
Q 2797 -91 1919 -91 
Q 1588 -91 1214 -16 
Q 841 59 441 206 
L 441 856 
Q 825 641 1194 531 
Q 1563 422 1919 422 
Q 2459 422 2753 634 
Q 3047 847 3047 1241 
Q 3047 1584 2836 1778 
Q 2625 1972 2144 2069 
L 1759 2144 
Q 1053 2284 737 2584 
Q 422 2884 422 3419 
Q 422 4038 858 4394 
Q 1294 4750 2059 4750 
Q 2388 4750 2728 4690 
Q 3069 4631 3425 4513 
z
" transform="scale(0.015625)"/>
       <path id="DejaVuSans-74" d="M 1172 4494 
L 1172 3500 
L 2356 3500 
L 2356 3053 
L 1172 3053 
L 1172 1153 
Q 1172 725 1289 603 
Q 1406 481 1766 481 
L 2356 481 
L 2356 0 
L 1766 0 
Q 1100 0 847 248 
Q 594 497 594 1153 
L 594 3053 
L 172 3053 
L 172 3500 
L 594 3500 
L 594 4494 
L 1172 4494 
z
" transform="scale(0.015625)"/>
       <path id="DejaVuSans-70" d="M 1159 525 
L 1159 -1331 
L 581 -1331 
L 581 3500 
L 1159 3500 
L 1159 2969 
Q 1341 3281 1617 3432 
Q 1894 3584 2278 3584 
Q 2916 3584 3314 3078 
Q 3713 2572 3713 1747 
Q 3713 922 3314 415 
Q 2916 -91 2278 -91 
Q 1894 -91 1617 61 
Q 1341 213 1159 525 
z
M 3116 1747 
Q 3116 2381 2855 2742 
Q 2594 3103 2138 3103 
Q 1681 3103 1420 2742 
Q 1159 2381 1159 1747 
Q 1159 1113 1420 752 
Q 1681 391 2138 391 
Q 2594 391 2855 752 
Q 3116 1113 3116 1747 
z
" transform="scale(0.015625)"/>
       <path id="DejaVuSans-73" d="M 2834 3397 
L 2834 2853 
Q 2591 2978 2328 3040 
Q 2066 3103 1784 3103 
Q 1356 3103 1142 2972 
Q 928 2841 928 2578 
Q 928 2378 1081 2264 
Q 1234 2150 1697 2047 
L 1894 2003 
Q 2506 1872 2764 1633 
Q 3022 1394 3022 966 
Q 3022 478 2636 193 
Q 2250 -91 1575 -91 
Q 1294 -91 989 -36 
Q 684 19 347 128 
L 347 722 
Q 666 556 975 473 
Q 1284 391 1588 391 
Q 1994 391 2212 530 
Q 2431 669 2431 922 
Q 2431 1156 2273 1281 
Q 2116 1406 1581 1522 
L 1381 1569 
Q 847 1681 609 1914 
Q 372 2147 372 2553 
Q 372 3047 722 3315 
Q 1072 3584 1716 3584 
Q 2034 3584 2315 3537 
Q 2597 3491 2834 3397 
z
" transform="scale(0.015625)"/>
      </defs>
      <use xlink:href="#DejaVuSans-54"/>
      <use xlink:href="#DejaVuSans-69" transform="translate(57.958984 0)"/>
      <use xlink:href="#DejaVuSans-6d" transform="translate(85.742188 0)"/>
      <use xlink:href="#DejaVuSans-65" transform="translate(183.154297 0)"/>
      <use xlink:href="#DejaVuSans-20" transform="translate(244.677734 0)"/>
      <use xlink:href="#DejaVuSans-53" transform="translate(276.464844 0)"/>
      <use xlink:href="#DejaVuSans-74" transform="translate(339.941406 0)"/>
      <use xlink:href="#DejaVuSans-65" transform="translate(379.150391 0)"/>
      <use xlink:href="#DejaVuSans-70" transform="translate(440.673828 0)"/>
      <use xlink:href="#DejaVuSans-73" transform="translate(504.150391 0)"/>
     </g>
    </g>
   </g>
   <g id="matplotlib.axis_2">
    <g id="ytick_1">
     <g id="line2d_15">
      <path d="M 56.50625 221.86499 
L 614.50625 221.86499 
" clip-path="url(#p59e66b7722)" style="fill: none; stroke: #b0b0b0; stroke-opacity: 0.3; stroke-width: 0.8; stroke-linecap: square"/>
     </g>
     <g id="line2d_16">
      <defs>
       <path id="m2cf1b82605" d="M 0 0 
L -3.5 0 
" style="stroke: #000000; stroke-width: 0.8"/>
      </defs>
      <g>
       <use xlink:href="#m2cf1b82605" x="56.50625" y="221.86499" style="stroke: #000000; stroke-width: 0.8"/>
      </g>
     </g>
     <g id="text_9">
      <!-- 0.200 -->
      <g transform="translate(20.878125 225.664208) scale(0.1 -0.1)">
       <defs>
        <path id="DejaVuSans-2e" d="M 684 794 
L 1344 794 
L 1344 0 
L 684 0 
L 684 794 
z
" transform="scale(0.015625)"/>
       </defs>
       <use xlink:href="#DejaVuSans-30"/>
       <use xlink:href="#DejaVuSans-2e" transform="translate(63.623047 0)"/>
       <use xlink:href="#DejaVuSans-32" transform="translate(95.410156 0)"/>
       <use xlink:href="#DejaVuSans-30" transform="translate(159.033203 0)"/>
       <use xlink:href="#DejaVuSans-30" transform="translate(222.65625 0)"/>
      </g>
     </g>
    </g>
    <g id="ytick_2">
     <g id="line2d_17">
      <path d="M 56.50625 194.145026 
L 614.50625 194.145026 
" clip-path="url(#p59e66b7722)" style="fill: none; stroke: #b0b0b0; stroke-opacity: 0.3; stroke-width: 0.8; stroke-linecap: square"/>
     </g>
     <g id="line2d_18">
      <g>
       <use xlink:href="#m2cf1b82605" x="56.50625" y="194.145026" style="stroke: #000000; stroke-width: 0.8"/>
      </g>
     </g>
     <g id="text_10">
      <!-- 0.225 -->
      <g transform="translate(20.878125 197.944245) scale(0.1 -0.1)">
       <use xlink:href="#DejaVuSans-30"/>
       <use xlink:href="#DejaVuSans-2e" transform="translate(63.623047 0)"/>
       <use xlink:href="#DejaVuSans-32" transform="translate(95.410156 0)"/>
       <use xlink:href="#DejaVuSans-32" transform="translate(159.033203 0)"/>
       <use xlink:href="#DejaVuSans-35" transform="translate(222.65625 0)"/>
      </g>
     </g>
    </g>
    <g id="ytick_3">
     <g id="line2d_19">
      <path d="M 56.50625 166.425062 
L 614.50625 166.425062 
" clip-path="url(#p59e66b7722)" style="fill: none; stroke: #b0b0b0; stroke-opacity: 0.3; stroke-width: 0.8; stroke-linecap: square"/>
     </g>
     <g id="line2d_20">
      <g>
       <use xlink:href="#m2cf1b82605" x="56.50625" y="166.425062" style="stroke: #000000; stroke-width: 0.8"/>
      </g>
     </g>
     <g id="text_11">
      <!-- 0.250 -->
      <g transform="translate(20.878125 170.224281) scale(0.1 -0.1)">
       <use xlink:href="#DejaVuSans-30"/>
       <use xlink:href="#DejaVuSans-2e" transform="translate(63.623047 0)"/>
       <use xlink:href="#DejaVuSans-32" transform="translate(95.410156 0)"/>
       <use xlink:href="#DejaVuSans-35" transform="translate(159.033203 0)"/>
       <use xlink:href="#DejaVuSans-30" transform="translate(222.65625 0)"/>
      </g>
     </g>
    </g>
    <g id="ytick_4">
     <g id="line2d_21">
      <path d="M 56.50625 138.705098 
L 614.50625 138.705098 
" clip-path="url(#p59e66b7722)" style="fill: none; stroke: #b0b0b0; stroke-opacity: 0.3; stroke-width: 0.8; stroke-linecap: square"/>
     </g>
     <g id="line2d_22">
      <g>
       <use xlink:href="#m2cf1b82605" x="56.50625" y="138.705098" style="stroke: #000000; stroke-width: 0.8"/>
      </g>
     </g>
     <g id="text_12">
      <!-- 0.275 -->
      <g transform="translate(20.878125 142.504317) scale(0.1 -0.1)">
       <defs>
        <path id="DejaVuSans-37" d="M 525 4666 
L 3525 4666 
L 3525 4397 
L 1831 0 
L 1172 0 
L 2766 4134 
L 525 4134 
L 525 4666 
z
" transform="scale(0.015625)"/>
       </defs>
       <use xlink:href="#DejaVuSans-30"/>
       <use xlink:href="#DejaVuSans-2e" transform="translate(63.623047 0)"/>
       <use xlink:href="#DejaVuSans-32" transform="translate(95.410156 0)"/>
       <use xlink:href="#DejaVuSans-37" transform="translate(159.033203 0)"/>
       <use xlink:href="#DejaVuSans-35" transform="translate(222.65625 0)"/>
      </g>
     </g>
    </g>
    <g id="ytick_5">
     <g id="line2d_23">
      <path d="M 56.50625 110.985134 
L 614.50625 110.985134 
" clip-path="url(#p59e66b7722)" style="fill: none; stroke: #b0b0b0; stroke-opacity: 0.3; stroke-width: 0.8; stroke-linecap: square"/>
     </g>
     <g id="line2d_24">
      <g>
       <use xlink:href="#m2cf1b82605" x="56.50625" y="110.985134" style="stroke: #000000; stroke-width: 0.8"/>
      </g>
     </g>
     <g id="text_13">
      <!-- 0.300 -->
      <g transform="translate(20.878125 114.784353) scale(0.1 -0.1)">
       <use xlink:href="#DejaVuSans-30"/>
       <use xlink:href="#DejaVuSans-2e" transform="translate(63.623047 0)"/>
       <use xlink:href="#DejaVuSans-33" transform="translate(95.410156 0)"/>
       <use xlink:href="#DejaVuSans-30" transform="translate(159.033203 0)"/>
       <use xlink:href="#DejaVuSans-30" transform="translate(222.65625 0)"/>
      </g>
     </g>
    </g>
    <g id="ytick_6">
     <g id="line2d_25">
      <path d="M 56.50625 83.26517 
L 614.50625 83.26517 
" clip-path="url(#p59e66b7722)" style="fill: none; stroke: #b0b0b0; stroke-opacity: 0.3; stroke-width: 0.8; stroke-linecap: square"/>
     </g>
     <g id="line2d_26">
      <g>
       <use xlink:href="#m2cf1b82605" x="56.50625" y="83.26517" style="stroke: #000000; stroke-width: 0.8"/>
      </g>
     </g>
     <g id="text_14">
      <!-- 0.325 -->
      <g transform="translate(20.878125 87.064389) scale(0.1 -0.1)">
       <use xlink:href="#DejaVuSans-30"/>
       <use xlink:href="#DejaVuSans-2e" transform="translate(63.623047 0)"/>
       <use xlink:href="#DejaVuSans-33" transform="translate(95.410156 0)"/>
       <use xlink:href="#DejaVuSans-32" transform="translate(159.033203 0)"/>
       <use xlink:href="#DejaVuSans-35" transform="translate(222.65625 0)"/>
      </g>
     </g>
    </g>
    <g id="ytick_7">
     <g id="line2d_27">
      <path d="M 56.50625 55.545206 
L 614.50625 55.545206 
" clip-path="url(#p59e66b7722)" style="fill: none; stroke: #b0b0b0; stroke-opacity: 0.3; stroke-width: 0.8; stroke-linecap: square"/>
     </g>
     <g id="line2d_28">
      <g>
       <use xlink:href="#m2cf1b82605" x="56.50625" y="55.545206" style="stroke: #000000; stroke-width: 0.8"/>
      </g>
     </g>
     <g id="text_15">
      <!-- 0.350 -->
      <g transform="translate(20.878125 59.344425) scale(0.1 -0.1)">
       <use xlink:href="#DejaVuSans-30"/>
       <use xlink:href="#DejaVuSans-2e" transform="translate(63.623047 0)"/>
       <use xlink:href="#DejaVuSans-33" transform="translate(95.410156 0)"/>
       <use xlink:href="#DejaVuSans-35" transform="translate(159.033203 0)"/>
       <use xlink:href="#DejaVuSans-30" transform="translate(222.65625 0)"/>
      </g>
     </g>
    </g>
    <g id="ytick_8">
     <g id="line2d_29">
      <path d="M 56.50625 27.825242 
L 614.50625 27.825242 
" clip-path="url(#p59e66b7722)" style="fill: none; stroke: #b0b0b0; stroke-opacity: 0.3; stroke-width: 0.8; stroke-linecap: square"/>
     </g>
     <g id="line2d_30">
      <g>
       <use xlink:href="#m2cf1b82605" x="56.50625" y="27.825242" style="stroke: #000000; stroke-width: 0.8"/>
      </g>
     </g>
     <g id="text_16">
      <!-- 0.375 -->
      <g transform="translate(20.878125 31.624461) scale(0.1 -0.1)">
       <use xlink:href="#DejaVuSans-30"/>
       <use xlink:href="#DejaVuSans-2e" transform="translate(63.623047 0)"/>
       <use xlink:href="#DejaVuSans-33" transform="translate(95.410156 0)"/>
       <use xlink:href="#DejaVuSans-37" transform="translate(159.033203 0)"/>
       <use xlink:href="#DejaVuSans-35" transform="translate(222.65625 0)"/>
      </g>
     </g>
    </g>
    <g id="text_17">
     <!-- Signal Value -->
     <g transform="translate(14.798437 163.877812) rotate(-90) scale(0.1 -0.1)">
      <defs>
       <path id="DejaVuSans-67" d="M 2906 1791 
Q 2906 2416 2648 2759 
Q 2391 3103 1925 3103 
Q 1463 3103 1205 2759 
Q 947 2416 947 1791 
Q 947 1169 1205 825 
Q 1463 481 1925 481 
Q 2391 481 2648 825 
Q 2906 1169 2906 1791 
z
M 3481 434 
Q 3481 -459 3084 -895 
Q 2688 -1331 1869 -1331 
Q 1566 -1331 1297 -1286 
Q 1028 -1241 775 -1147 
L 775 -588 
Q 1028 -725 1275 -790 
Q 1522 -856 1778 -856 
Q 2344 -856 2625 -561 
Q 2906 -266 2906 331 
L 2906 616 
Q 2728 306 2450 153 
Q 2172 0 1784 0 
Q 1141 0 747 490 
Q 353 981 353 1791 
Q 353 2603 747 3093 
Q 1141 3584 1784 3584 
Q 2172 3584 2450 3431 
Q 2728 3278 2906 2969 
L 2906 3500 
L 3481 3500 
L 3481 434 
z
" transform="scale(0.015625)"/>
       <path id="DejaVuSans-6e" d="M 3513 2113 
L 3513 0 
L 2938 0 
L 2938 2094 
Q 2938 2591 2744 2837 
Q 2550 3084 2163 3084 
Q 1697 3084 1428 2787 
Q 1159 2491 1159 1978 
L 1159 0 
L 581 0 
L 581 3500 
L 1159 3500 
L 1159 2956 
Q 1366 3272 1645 3428 
Q 1925 3584 2291 3584 
Q 2894 3584 3203 3211 
Q 3513 2838 3513 2113 
z
" transform="scale(0.015625)"/>
       <path id="DejaVuSans-61" d="M 2194 1759 
Q 1497 1759 1228 1600 
Q 959 1441 959 1056 
Q 959 750 1161 570 
Q 1363 391 1709 391 
Q 2188 391 2477 730 
Q 2766 1069 2766 1631 
L 2766 1759 
L 2194 1759 
z
M 3341 1997 
L 3341 0 
L 2766 0 
L 2766 531 
Q 2569 213 2275 61 
Q 1981 -91 1556 -91 
Q 1019 -91 701 211 
Q 384 513 384 1019 
Q 384 1609 779 1909 
Q 1175 2209 1959 2209 
L 2766 2209 
L 2766 2266 
Q 2766 2663 2505 2880 
Q 2244 3097 1772 3097 
Q 1472 3097 1187 3025 
Q 903 2953 641 2809 
L 641 3341 
Q 956 3463 1253 3523 
Q 1550 3584 1831 3584 
Q 2591 3584 2966 3190 
Q 3341 2797 3341 1997 
z
" transform="scale(0.015625)"/>
       <path id="DejaVuSans-6c" d="M 603 4863 
L 1178 4863 
L 1178 0 
L 603 0 
L 603 4863 
z
" transform="scale(0.015625)"/>
       <path id="DejaVuSans-56" d="M 1831 0 
L 50 4666 
L 709 4666 
L 2188 738 
L 3669 4666 
L 4325 4666 
L 2547 0 
L 1831 0 
z
" transform="scale(0.015625)"/>
       <path id="DejaVuSans-75" d="M 544 1381 
L 544 3500 
L 1119 3500 
L 1119 1403 
Q 1119 906 1312 657 
Q 1506 409 1894 409 
Q 2359 409 2629 706 
Q 2900 1003 2900 1516 
L 2900 3500 
L 3475 3500 
L 3475 0 
L 2900 0 
L 2900 538 
Q 2691 219 2414 64 
Q 2138 -91 1772 -91 
Q 1169 -91 856 284 
Q 544 659 544 1381 
z
M 1991 3584 
L 1991 3584 
z
" transform="scale(0.015625)"/>
      </defs>
      <use xlink:href="#DejaVuSans-53"/>
      <use xlink:href="#DejaVuSans-69" transform="translate(63.476562 0)"/>
      <use xlink:href="#DejaVuSans-67" transform="translate(91.259766 0)"/>
      <use xlink:href="#DejaVuSans-6e" transform="translate(154.736328 0)"/>
      <use xlink:href="#DejaVuSans-61" transform="translate(218.115234 0)"/>
      <use xlink:href="#DejaVuSans-6c" transform="translate(279.394531 0)"/>
      <use xlink:href="#DejaVuSans-20" transform="translate(307.177734 0)"/>
      <use xlink:href="#DejaVuSans-56" transform="translate(338.964844 0)"/>
      <use xlink:href="#DejaVuSans-61" transform="translate(399.623047 0)"/>
      <use xlink:href="#DejaVuSans-6c" transform="translate(460.902344 0)"/>
      <use xlink:href="#DejaVuSans-75" transform="translate(488.685547 0)"/>
      <use xlink:href="#DejaVuSans-65" transform="translate(552.064453 0)"/>
     </g>
    </g>
   </g>
   <g id="line2d_31">
    <path d="M 81.869886 103.598753 
L 83.572144 100.828385 
L 85.274401 142.502859 
L 86.976659 187.446279 
L 88.678916 212.259689 
L 90.381174 212.317456 
L 92.083431 179.518261 
L 93.785689 150.159449 
L 95.487946 131.546261 
L 97.190204 93.87038 
L 98.892461 59.022643 
L 100.594719 47.449846 
L 102.296976 75.36769 
L 103.999234 135.312797 
L 105.701491 180.341778 
L 107.403748 203.755705 
L 109.106006 212.164517 
L 110.808263 201.967964 
L 112.510521 185.749242 
L 114.212778 154.204705 
L 115.915036 92.198171 
L 117.617293 68.809957 
L 119.319551 116.830491 
L 121.021808 171.272163 
L 122.724066 204.712663 
L 124.426323 218.041666 
L 126.128581 210.321226 
L 127.830838 201.018781 
L 129.533096 179.334299 
L 132.937611 63.177952 
L 134.639868 32.398125 
L 136.342126 51.619492 
L 138.044383 106.240442 
L 139.74664 143.474084 
L 141.448898 166.861544 
L 143.151155 193.061418 
L 144.853413 207.622824 
L 146.55567 207.866704 
L 148.257928 176.999745 
L 149.960185 109.47679 
L 151.662443 77.950137 
L 153.3647 104.19316 
L 155.066958 132.893761 
L 156.769215 157.660321 
L 158.471473 185.776866 
L 160.17373 203.683239 
L 161.875988 212.288611 
L 163.578245 199.196702 
L 166.98276 111.194995 
L 168.685018 83.612692 
L 170.387275 82.956758 
L 172.089532 100.318628 
L 173.79179 101.224619 
L 175.494047 116.016153 
L 177.196305 157.669875 
L 178.898562 187.42782 
L 180.60082 198.037918 
L 182.303077 183.35969 
L 184.005335 145.980007 
L 185.707592 127.50403 
L 187.40985 125.392233 
L 189.112107 104.707491 
L 190.814365 95.323335 
L 192.516622 123.453521 
L 194.21888 157.986252 
L 195.921137 183.188907 
L 197.623395 184.04536 
L 199.325652 164.903993 
L 201.02791 159.427102 
L 202.730167 157.840416 
L 204.432424 153.324433 
L 206.134682 133.702678 
L 207.836939 88.036853 
L 209.539197 81.945385 
L 211.241454 122.71269 
L 212.943712 155.220868 
L 214.645969 171.599273 
L 216.348227 179.932633 
L 218.050484 180.7062 
L 219.752742 182.972572 
L 221.454999 169.075383 
L 223.157257 114.355206 
L 224.859514 70.502275 
L 226.561772 74.013942 
L 228.264029 96.125461 
L 229.966287 122.995051 
L 231.668544 134.248577 
L 233.370802 143.297829 
L 235.073059 175.199611 
L 236.775317 202.583964 
L 238.477574 211.977218 
L 240.179831 185.604249 
L 241.882089 121.179107 
L 243.584346 92.859111 
L 245.286604 106.795586 
L 246.988861 117.432317 
L 248.691119 134.667928 
L 250.393376 172.172943 
L 252.095634 205.216663 
L 253.797891 221.136694 
L 255.500149 209.116838 
L 257.202406 153.356418 
L 258.904664 105.421613 
L 260.606921 84.4211 
L 262.309179 70.220923 
L 264.011436 69.340007 
L 265.713694 72.836454 
L 267.415951 104.112178 
L 269.118209 162.180141 
L 270.820466 205.30509 
L 272.522723 225.362215 
L 274.224981 212.392636 
L 275.927238 169.743186 
L 277.629496 139.319976 
L 279.331753 119.264646 
L 281.034011 87.348919 
L 282.736268 91.518985 
L 284.438526 149.650008 
L 286.140783 203.255991 
L 287.843041 228.707012 
L 289.545298 223.080828 
L 291.247556 187.471572 
L 292.949813 160.143925 
L 294.652071 134.708606 
L 296.354328 93.551699 
L 298.056586 55.91773 
L 299.758843 35.05353 
L 301.461101 68.264046 
L 303.163358 133.523874 
L 304.865615 176.536962 
L 306.567873 196.095892 
L 308.27013 200.473613 
L 309.972388 191.047592 
L 311.674645 177.749576 
L 313.376903 145.103218 
L 315.07916 83.789141 
L 316.781418 68.611726 
L 320.185933 163.894955 
L 321.88819 191.087114 
L 323.590448 197.506941 
L 325.292705 189.073329 
L 326.994963 187.984611 
L 328.69722 176.262769 
L 330.399478 139.783789 
L 332.101735 96.253454 
L 333.803993 61.953962 
L 335.50625 75.133152 
L 337.208507 113.898561 
L 338.910765 131.538181 
L 340.613022 145.629018 
L 342.31528 170.32827 
L 344.017537 187.267135 
L 345.719795 191.315514 
L 347.422052 169.528353 
L 349.12431 117.978948 
L 350.826567 98.376787 
L 352.528825 111.783602 
L 354.231082 114.74681 
L 355.93334 119.432501 
L 357.635597 133.649721 
L 359.337855 153.258029 
L 361.040112 177.349214 
L 362.74237 184.605008 
L 364.444627 171.638617 
L 366.146885 155.336002 
L 367.849142 136.725919 
L 369.551399 131.541227 
L 371.253657 124.574283 
L 372.955914 94.191396 
L 374.658172 95.744725 
L 376.360429 137.604415 
L 378.062687 172.325731 
L 379.764944 189.067308 
L 381.467202 187.077426 
L 383.169459 168.666851 
L 384.871717 160.607645 
L 386.573974 146.374201 
L 388.276232 99.177227 
L 389.978489 63.759163 
L 391.680747 67.065821 
L 393.383004 97.983355 
L 395.085262 139.182707 
L 396.787519 160.70486 
L 398.489777 171.888441 
L 400.192034 191.275347 
L 401.894291 201.923254 
L 403.596549 199.777811 
L 405.298806 163.613428 
L 407.001064 94.555706 
L 408.703321 75.413902 
L 412.107836 146.085566 
L 413.810094 173.076237 
L 415.512351 197.04767 
L 417.214609 210.261202 
L 418.916866 214.613738 
L 420.619124 191.443769 
L 422.321381 123.983721 
L 424.023639 66.402226 
L 425.725896 47.120877 
L 427.428154 60.574996 
L 429.130411 93.32506 
L 430.832669 113.260969 
L 432.534926 143.329504 
L 434.237183 188.003894 
L 435.939441 219.239428 
L 437.641698 227.750669 
L 439.343956 194.309987 
L 441.046213 127.408325 
L 442.748471 98.100206 
L 444.450728 104.636565 
L 446.152986 109.414077 
L 447.855243 134.825266 
L 449.557501 183.787991 
L 451.259758 221.414677 
L 452.962016 233.837912 
L 454.664273 213.674703 
L 456.366531 158.233309 
L 458.068788 115.648828 
L 459.771046 89.345064 
L 461.473303 74.195747 
L 464.877818 65.943288 
L 466.580076 102.462843 
L 468.282333 161.331479 
L 469.98459 198.49197 
L 471.686848 210.836418 
L 473.389105 194.99913 
L 475.091363 161.487888 
L 478.495878 120.955931 
L 480.198135 83.276777 
L 481.900393 87.566496 
L 483.60265 141.937002 
L 485.304908 188.62614 
L 487.007165 209.425558 
L 488.709423 198.929692 
L 490.41168 170.911893 
L 492.113938 161.408896 
L 493.816195 150.614216 
L 495.518453 127.428461 
L 498.922968 59.182904 
L 500.625225 81.563799 
L 502.327482 130.780067 
L 504.02974 157.712685 
L 505.731997 169.642685 
L 507.434255 177.732176 
L 509.136512 180.74692 
L 510.83877 179.729106 
L 512.541027 154.69085 
L 514.243285 98.122542 
L 515.945542 80.60564 
L 517.6478 106.557482 
L 519.350057 128.999184 
L 521.052315 143.368888 
L 522.754572 145.056892 
L 524.45683 151.484324 
L 526.159087 174.984314 
L 527.861345 188.465272 
L 529.563602 182.635716 
L 531.26586 154.360819 
L 532.968117 114.040548 
L 534.670374 109.3301 
L 536.372632 118.600786 
L 538.074889 111.16258 
L 539.777147 121.904765 
L 541.479404 158.531658 
L 543.181662 188.849424 
L 544.883919 202.486712 
L 546.586177 189.675682 
L 548.288434 148.422785 
L 549.990692 127.940003 
L 551.692949 116.692473 
L 553.395207 89.565501 
L 555.097464 72.316484 
L 556.799722 75.186449 
L 558.501979 108.716475 
L 560.204237 157.489077 
L 561.906494 188.31287 
L 563.608752 201.337816 
L 565.311009 200.128965 
L 568.715524 168.36377 
L 570.417781 135.717532 
L 572.120039 82.245548 
L 573.822296 82.671019 
L 575.524554 135.4374 
L 577.226811 181.199461 
L 578.929069 206.375143 
L 580.631326 211.163197 
L 582.333584 198.666279 
L 584.035841 188.633321 
L 585.738099 159.31416 
L 587.440356 95.796508 
L 589.142614 45.244882 
L 589.142614 45.244882 
" clip-path="url(#p59e66b7722)" style="fill: none; stroke-dasharray: 5.55,2.4; stroke-dashoffset: 0; stroke: #008000; stroke-width: 1.5"/>
   </g>
   <g id="line2d_32">
    <path d="M 81.869886 152.935509 
L 83.572144 128.878394 
L 85.274401 118.23005 
L 86.976659 178.467791 
L 88.678916 163.505919 
L 90.381174 133.637523 
L 92.083431 133.717865 
L 93.785689 96.244649 
L 95.487946 126.699291 
L 97.190204 128.282014 
L 98.892461 120.312202 
L 100.594719 105.740531 
L 102.296976 150.543211 
L 103.999234 155.750812 
L 105.701491 194.785667 
L 107.403748 199.55112 
L 109.106006 180.958336 
L 110.808263 164.588525 
L 112.510521 168.961321 
L 114.212778 176.503422 
L 115.915036 132.480969 
L 117.617293 104.75061 
L 119.319551 99.991659 
L 121.021808 161.465743 
L 122.724066 154.230267 
L 124.426323 173.648631 
L 126.128581 125.631026 
L 127.830838 104.761062 
L 129.533096 134.263813 
L 131.235353 102.271643 
L 132.937611 121.692832 
L 134.639868 122.118276 
L 136.342126 119.819699 
L 138.044383 143.697387 
L 139.74664 134.1142 
L 141.448898 173.250709 
L 143.151155 155.219507 
L 144.853413 191.418437 
L 146.55567 179.356428 
L 148.257928 126.049037 
L 149.960185 143.724566 
L 151.662443 112.445498 
L 153.3647 111.301012 
L 155.066958 136.286799 
L 156.769215 112.249192 
L 158.471473 143.22897 
L 160.17373 132.450014 
L 161.875988 135.320302 
L 163.578245 148.56574 
L 165.280503 116.442144 
L 166.98276 132.868957 
L 168.685018 132.79204 
L 170.387275 145.084103 
L 172.089532 159.875044 
L 173.79179 116.180983 
L 175.494047 129.617379 
L 177.196305 132.485248 
L 178.898562 231.594 
L 180.60082 173.946358 
L 182.303077 153.257988 
L 184.005335 101.665015 
L 185.707592 123.95994 
L 187.40985 87.621682 
L 189.112107 120.84953 
L 190.814365 108.144023 
L 192.516622 96.465005 
L 194.21888 148.868722 
L 195.921137 122.712392 
L 197.623395 164.564872 
L 199.325652 131.978819 
L 201.02791 117.721023 
L 202.730167 181.668405 
L 204.432424 131.776516 
L 206.134682 162.482455 
L 207.836939 147.007952 
L 209.539197 119.59796 
L 211.241454 157.00444 
L 212.943712 191.889383 
L 214.645969 161.149424 
L 216.348227 144.064517 
L 218.050484 194.167538 
L 219.752742 151.774917 
L 221.454999 144.828175 
L 223.157257 119.002865 
L 224.859514 73.973636 
L 226.561772 132.472532 
L 228.264029 165.704382 
L 229.966287 181.053898 
L 231.668544 130.646195 
L 233.370802 149.814482 
L 235.073059 160.733203 
L 236.775317 178.770282 
L 238.477574 140.977163 
L 240.179831 128.13138 
L 241.882089 135.001329 
L 243.584346 108.905489 
L 245.286604 120.816662 
L 246.988861 165.604675 
L 248.691119 123.521608 
L 250.393376 133.509845 
L 252.095634 186.41403 
L 253.797891 121.87764 
L 255.500149 124.621645 
L 257.202406 142.689766 
L 258.904664 97.291151 
L 260.606921 154.589345 
L 262.309179 112.080356 
L 264.011436 138.668129 
L 265.713694 123.015601 
L 267.415951 134.607583 
L 269.118209 139.514729 
L 270.820466 233.998125 
L 272.522723 190.008972 
L 274.224981 184.708545 
L 275.927238 149.808316 
L 277.629496 148.673013 
L 279.331753 143.895833 
L 281.034011 136.7349 
L 282.736268 102.556028 
L 284.438526 131.388597 
L 286.140783 181.76955 
L 287.843041 168.221179 
L 289.545298 130.534318 
L 291.247556 141.452134 
L 292.949813 95.01601 
L 294.652071 151.466229 
L 296.354328 122.541543 
L 298.056586 128.726633 
L 299.758843 130.301333 
L 301.461101 123.77245 
L 303.163358 145.426603 
L 304.865615 156.373741 
L 306.567873 212.896303 
L 308.27013 162.462057 
L 309.972388 152.157962 
L 311.674645 153.04217 
L 313.376903 145.617323 
L 315.07916 162.276174 
L 316.781418 112.106562 
L 318.483675 116.363051 
L 320.185933 119.507481 
L 321.88819 152.522805 
L 323.590448 164.427089 
L 325.292705 132.297448 
L 326.994963 152.776115 
L 328.69722 151.122873 
L 330.399478 119.115336 
L 332.101735 117.786239 
L 333.803993 142.874842 
L 335.50625 140.524835 
L 337.208507 184.42555 
L 338.910765 144.020888 
L 340.613022 161.985484 
L 342.31528 143.923209 
L 344.017537 207.318417 
L 345.719795 164.8552 
L 347.422052 136.339608 
L 349.12431 132.739659 
L 350.826567 122.547464 
L 352.528825 97.012927 
L 354.231082 119.801922 
L 355.93334 132.25467 
L 357.635597 142.885489 
L 359.337855 114.630295 
L 361.040112 107.199132 
L 362.74237 152.763169 
L 364.444627 132.980708 
L 366.146885 123.558637 
L 367.849142 152.683603 
L 369.551399 148.551636 
L 371.253657 165.697713 
L 372.955914 131.40603 
L 374.658172 133.423231 
L 376.360429 132.638821 
L 378.062687 201.716095 
L 379.764944 147.002349 
L 381.467202 148.486288 
L 383.169459 117.685165 
L 384.871717 133.372823 
L 386.573974 122.330038 
L 388.276232 115.824089 
L 389.978489 127.727539 
L 391.680747 125.828146 
L 393.383004 139.143245 
L 395.085262 159.962295 
L 396.787519 135.23988 
L 398.489777 160.612618 
L 400.192034 131.084287 
L 401.894291 184.894033 
L 403.596549 137.88193 
L 405.298806 152.146441 
L 407.001064 135.155663 
L 408.703321 121.96759 
L 412.107836 181.481827 
L 413.810094 147.985807 
L 415.512351 174.157871 
L 417.214609 172.159553 
L 418.916866 134.189697 
L 420.619124 155.294389 
L 422.321381 102.2539 
L 424.023639 73.187884 
L 425.725896 150.848235 
L 427.428154 145.404484 
L 429.130411 188.590302 
L 430.832669 118.731853 
L 432.534926 161.919351 
L 434.237183 151.321568 
L 435.939441 213.404844 
L 437.641698 173.629448 
L 439.343956 120.711019 
L 441.046213 144.770232 
L 442.748471 119.344114 
L 444.450728 134.255337 
L 446.152986 147.769927 
L 447.855243 126.027293 
L 449.557501 116.874162 
L 451.259758 158.806161 
L 452.962016 124.956203 
L 454.664273 134.69407 
L 456.366531 123.996633 
L 458.068788 98.70042 
L 459.771046 134.734137 
L 461.473303 133.598436 
L 463.175561 154.670434 
L 464.877818 132.832852 
L 466.580076 137.732412 
L 468.282333 140.644452 
L 469.98459 203.286604 
L 471.686848 183.024236 
L 473.389105 172.229446 
L 475.091363 151.591624 
L 476.79362 154.465729 
L 478.495878 155.604402 
L 481.900393 90.398231 
L 483.60265 161.792241 
L 485.304908 159.892988 
L 487.007165 212.48321 
L 488.709423 125.134926 
L 490.41168 121.223518 
L 492.113938 131.581661 
L 493.816195 139.998459 
L 495.518453 153.869272 
L 497.22071 118.782461 
L 498.922968 167.988112 
L 500.625225 143.508918 
L 502.327482 142.199042 
L 504.02974 160.693423 
L 505.731997 154.841252 
L 507.434255 134.667426 
L 509.136512 181.332776 
L 510.83877 145.198674 
L 512.541027 122.600153 
L 514.243285 147.10652 
L 515.945542 94.208118 
L 517.6478 114.150931 
L 519.350057 119.929507 
L 521.052315 152.881239 
L 524.45683 112.09957 
L 526.159087 163.004985 
L 527.861345 169.892412 
L 529.563602 158.930603 
L 531.26586 136.656966 
L 532.968117 139.739695 
L 534.670374 155.904846 
L 536.372632 182.370574 
L 538.074889 165.250355 
L 539.777147 128.910601 
L 541.479404 132.752977 
L 543.181662 204.030446 
L 544.883919 172.957763 
L 546.586177 120.379879 
L 548.288434 101.37592 
L 549.990692 111.992876 
L 551.692949 120.072588 
L 553.395207 144.712869 
L 555.097464 138.797046 
L 556.799722 110.304862 
L 558.501979 140.379384 
L 560.204237 139.704062 
L 561.906494 156.469472 
L 563.608752 191.255931 
L 565.311009 153.688949 
L 567.013266 154.412965 
L 568.715524 152.094874 
L 570.417781 171.933122 
L 572.120039 137.903073 
L 573.822296 133.253846 
L 575.524554 127.787193 
L 577.226811 171.150666 
L 578.929069 143.492719 
L 580.631326 174.603458 
L 582.333584 130.212479 
L 584.035841 133.686322 
L 585.738099 129.439585 
L 587.440356 90.699305 
L 589.142614 109.501704 
L 589.142614 109.501704 
" clip-path="url(#p59e66b7722)" style="fill: none; stroke: #ff0000; stroke-width: 1.5; stroke-linecap: square"/>
   </g>
   <g id="patch_3">
    <path d="M 56.50625 244.078125 
L 56.50625 22.318125 
" style="fill: none; stroke: #000000; stroke-width: 0.8; stroke-linejoin: miter; stroke-linecap: square"/>
   </g>
   <g id="patch_4">
    <path d="M 614.50625 244.078125 
L 614.50625 22.318125 
" style="fill: none; stroke: #000000; stroke-width: 0.8; stroke-linejoin: miter; stroke-linecap: square"/>
   </g>
   <g id="patch_5">
    <path d="M 56.50625 244.078125 
L 614.50625 244.078125 
" style="fill: none; stroke: #000000; stroke-width: 0.8; stroke-linejoin: miter; stroke-linecap: square"/>
   </g>
   <g id="patch_6">
    <path d="M 56.50625 22.318125 
L 614.50625 22.318125 
" style="fill: none; stroke: #000000; stroke-width: 0.8; stroke-linejoin: miter; stroke-linecap: square"/>
   </g>
   <g id="text_18">
    <!-- Task Performance: NARMA10 (validation set) -->
    <g transform="translate(201.816875 16.318125) scale(0.12 -0.12)">
     <defs>
      <path id="DejaVuSans-6b" d="M 581 4863 
L 1159 4863 
L 1159 1991 
L 2875 3500 
L 3609 3500 
L 1753 1863 
L 3688 0 
L 2938 0 
L 1159 1709 
L 1159 0 
L 581 0 
L 581 4863 
z
" transform="scale(0.015625)"/>
      <path id="DejaVuSans-50" d="M 1259 4147 
L 1259 2394 
L 2053 2394 
Q 2494 2394 2734 2622 
Q 2975 2850 2975 3272 
Q 2975 3691 2734 3919 
Q 2494 4147 2053 4147 
L 1259 4147 
z
M 628 4666 
L 2053 4666 
Q 2838 4666 3239 4311 
Q 3641 3956 3641 3272 
Q 3641 2581 3239 2228 
Q 2838 1875 2053 1875 
L 1259 1875 
L 1259 0 
L 628 0 
L 628 4666 
z
" transform="scale(0.015625)"/>
      <path id="DejaVuSans-72" d="M 2631 2963 
Q 2534 3019 2420 3045 
Q 2306 3072 2169 3072 
Q 1681 3072 1420 2755 
Q 1159 2438 1159 1844 
L 1159 0 
L 581 0 
L 581 3500 
L 1159 3500 
L 1159 2956 
Q 1341 3275 1631 3429 
Q 1922 3584 2338 3584 
Q 2397 3584 2469 3576 
Q 2541 3569 2628 3553 
L 2631 2963 
z
" transform="scale(0.015625)"/>
      <path id="DejaVuSans-66" d="M 2375 4863 
L 2375 4384 
L 1825 4384 
Q 1516 4384 1395 4259 
Q 1275 4134 1275 3809 
L 1275 3500 
L 2222 3500 
L 2222 3053 
L 1275 3053 
L 1275 0 
L 697 0 
L 697 3053 
L 147 3053 
L 147 3500 
L 697 3500 
L 697 3744 
Q 697 4328 969 4595 
Q 1241 4863 1831 4863 
L 2375 4863 
z
" transform="scale(0.015625)"/>
      <path id="DejaVuSans-6f" d="M 1959 3097 
Q 1497 3097 1228 2736 
Q 959 2375 959 1747 
Q 959 1119 1226 758 
Q 1494 397 1959 397 
Q 2419 397 2687 759 
Q 2956 1122 2956 1747 
Q 2956 2369 2687 2733 
Q 2419 3097 1959 3097 
z
M 1959 3584 
Q 2709 3584 3137 3096 
Q 3566 2609 3566 1747 
Q 3566 888 3137 398 
Q 2709 -91 1959 -91 
Q 1206 -91 779 398 
Q 353 888 353 1747 
Q 353 2609 779 3096 
Q 1206 3584 1959 3584 
z
" transform="scale(0.015625)"/>
      <path id="DejaVuSans-63" d="M 3122 3366 
L 3122 2828 
Q 2878 2963 2633 3030 
Q 2388 3097 2138 3097 
Q 1578 3097 1268 2742 
Q 959 2388 959 1747 
Q 959 1106 1268 751 
Q 1578 397 2138 397 
Q 2388 397 2633 464 
Q 2878 531 3122 666 
L 3122 134 
Q 2881 22 2623 -34 
Q 2366 -91 2075 -91 
Q 1284 -91 818 406 
Q 353 903 353 1747 
Q 353 2603 823 3093 
Q 1294 3584 2113 3584 
Q 2378 3584 2631 3529 
Q 2884 3475 3122 3366 
z
" transform="scale(0.015625)"/>
      <path id="DejaVuSans-3a" d="M 750 794 
L 1409 794 
L 1409 0 
L 750 0 
L 750 794 
z
M 750 3309 
L 1409 3309 
L 1409 2516 
L 750 2516 
L 750 3309 
z
" transform="scale(0.015625)"/>
      <path id="DejaVuSans-4e" d="M 628 4666 
L 1478 4666 
L 3547 763 
L 3547 4666 
L 4159 4666 
L 4159 0 
L 3309 0 
L 1241 3903 
L 1241 0 
L 628 0 
L 628 4666 
z
" transform="scale(0.015625)"/>
      <path id="DejaVuSans-41" d="M 2188 4044 
L 1331 1722 
L 3047 1722 
L 2188 4044 
z
M 1831 4666 
L 2547 4666 
L 4325 0 
L 3669 0 
L 3244 1197 
L 1141 1197 
L 716 0 
L 50 0 
L 1831 4666 
z
" transform="scale(0.015625)"/>
      <path id="DejaVuSans-52" d="M 2841 2188 
Q 3044 2119 3236 1894 
Q 3428 1669 3622 1275 
L 4263 0 
L 3584 0 
L 2988 1197 
Q 2756 1666 2539 1819 
Q 2322 1972 1947 1972 
L 1259 1972 
L 1259 0 
L 628 0 
L 628 4666 
L 2053 4666 
Q 2853 4666 3247 4331 
Q 3641 3997 3641 3322 
Q 3641 2881 3436 2590 
Q 3231 2300 2841 2188 
z
M 1259 4147 
L 1259 2491 
L 2053 2491 
Q 2509 2491 2742 2702 
Q 2975 2913 2975 3322 
Q 2975 3731 2742 3939 
Q 2509 4147 2053 4147 
L 1259 4147 
z
" transform="scale(0.015625)"/>
      <path id="DejaVuSans-4d" d="M 628 4666 
L 1569 4666 
L 2759 1491 
L 3956 4666 
L 4897 4666 
L 4897 0 
L 4281 0 
L 4281 4097 
L 3078 897 
L 2444 897 
L 1241 4097 
L 1241 0 
L 628 0 
L 628 4666 
z
" transform="scale(0.015625)"/>
      <path id="DejaVuSans-28" d="M 1984 4856 
Q 1566 4138 1362 3434 
Q 1159 2731 1159 2009 
Q 1159 1288 1364 580 
Q 1569 -128 1984 -844 
L 1484 -844 
Q 1016 -109 783 600 
Q 550 1309 550 2009 
Q 550 2706 781 3412 
Q 1013 4119 1484 4856 
L 1984 4856 
z
" transform="scale(0.015625)"/>
      <path id="DejaVuSans-76" d="M 191 3500 
L 800 3500 
L 1894 563 
L 2988 3500 
L 3597 3500 
L 2284 0 
L 1503 0 
L 191 3500 
z
" transform="scale(0.015625)"/>
      <path id="DejaVuSans-64" d="M 2906 2969 
L 2906 4863 
L 3481 4863 
L 3481 0 
L 2906 0 
L 2906 525 
Q 2725 213 2448 61 
Q 2172 -91 1784 -91 
Q 1150 -91 751 415 
Q 353 922 353 1747 
Q 353 2572 751 3078 
Q 1150 3584 1784 3584 
Q 2172 3584 2448 3432 
Q 2725 3281 2906 2969 
z
M 947 1747 
Q 947 1113 1208 752 
Q 1469 391 1925 391 
Q 2381 391 2643 752 
Q 2906 1113 2906 1747 
Q 2906 2381 2643 2742 
Q 2381 3103 1925 3103 
Q 1469 3103 1208 2742 
Q 947 2381 947 1747 
z
" transform="scale(0.015625)"/>
      <path id="DejaVuSans-29" d="M 513 4856 
L 1013 4856 
Q 1481 4119 1714 3412 
Q 1947 2706 1947 2009 
Q 1947 1309 1714 600 
Q 1481 -109 1013 -844 
L 513 -844 
Q 928 -128 1133 580 
Q 1338 1288 1338 2009 
Q 1338 2731 1133 3434 
Q 928 4138 513 4856 
z
" transform="scale(0.015625)"/>
     </defs>
     <use xlink:href="#DejaVuSans-54"/>
     <use xlink:href="#DejaVuSans-61" transform="translate(44.583984 0)"/>
     <use xlink:href="#DejaVuSans-73" transform="translate(105.863281 0)"/>
     <use xlink:href="#DejaVuSans-6b" transform="translate(157.962891 0)"/>
     <use xlink:href="#DejaVuSans-20" transform="translate(215.873047 0)"/>
     <use xlink:href="#DejaVuSans-50" transform="translate(247.660156 0)"/>
     <use xlink:href="#DejaVuSans-65" transform="translate(304.337891 0)"/>
     <use xlink:href="#DejaVuSans-72" transform="translate(365.861328 0)"/>
     <use xlink:href="#DejaVuSans-66" transform="translate(406.974609 0)"/>
     <use xlink:href="#DejaVuSans-6f" transform="translate(442.179688 0)"/>
     <use xlink:href="#DejaVuSans-72" transform="translate(503.361328 0)"/>
     <use xlink:href="#DejaVuSans-6d" transform="translate(542.724609 0)"/>
     <use xlink:href="#DejaVuSans-61" transform="translate(640.136719 0)"/>
     <use xlink:href="#DejaVuSans-6e" transform="translate(701.416016 0)"/>
     <use xlink:href="#DejaVuSans-63" transform="translate(764.794922 0)"/>
     <use xlink:href="#DejaVuSans-65" transform="translate(819.775391 0)"/>
     <use xlink:href="#DejaVuSans-3a" transform="translate(881.298828 0)"/>
     <use xlink:href="#DejaVuSans-20" transform="translate(914.990234 0)"/>
     <use xlink:href="#DejaVuSans-4e" transform="translate(946.777344 0)"/>
     <use xlink:href="#DejaVuSans-41" transform="translate(1021.582031 0)"/>
     <use xlink:href="#DejaVuSans-52" transform="translate(1089.990234 0)"/>
     <use xlink:href="#DejaVuSans-4d" transform="translate(1159.472656 0)"/>
     <use xlink:href="#DejaVuSans-41" transform="translate(1245.751953 0)"/>
     <use xlink:href="#DejaVuSans-31" transform="translate(1314.160156 0)"/>
     <use xlink:href="#DejaVuSans-30" transform="translate(1377.783203 0)"/>
     <use xlink:href="#DejaVuSans-20" transform="translate(1441.40625 0)"/>
     <use xlink:href="#DejaVuSans-28" transform="translate(1473.193359 0)"/>
     <use xlink:href="#DejaVuSans-76" transform="translate(1512.207031 0)"/>
     <use xlink:href="#DejaVuSans-61" transform="translate(1571.386719 0)"/>
     <use xlink:href="#DejaVuSans-6c" transform="translate(1632.666016 0)"/>
     <use xlink:href="#DejaVuSans-69" transform="translate(1660.449219 0)"/>
     <use xlink:href="#DejaVuSans-64" transform="translate(1688.232422 0)"/>
     <use xlink:href="#DejaVuSans-61" transform="translate(1751.708984 0)"/>
     <use xlink:href="#DejaVuSans-74" transform="translate(1812.988281 0)"/>
     <use xlink:href="#DejaVuSans-69" transform="translate(1852.197266 0)"/>
     <use xlink:href="#DejaVuSans-6f" transform="translate(1879.980469 0)"/>
     <use xlink:href="#DejaVuSans-6e" transform="translate(1941.162109 0)"/>
     <use xlink:href="#DejaVuSans-20" transform="translate(2004.541016 0)"/>
     <use xlink:href="#DejaVuSans-73" transform="translate(2036.328125 0)"/>
     <use xlink:href="#DejaVuSans-65" transform="translate(2088.427734 0)"/>
     <use xlink:href="#DejaVuSans-74" transform="translate(2149.951172 0)"/>
     <use xlink:href="#DejaVuSans-29" transform="translate(2189.160156 0)"/>
    </g>
   </g>
   <g id="legend_1">
    <g id="patch_7">
     <path d="M 525.832813 59.674375 
L 607.50625 59.674375 
Q 609.50625 59.674375 609.50625 57.674375 
L 609.50625 29.318125 
Q 609.50625 27.318125 607.50625 27.318125 
L 525.832813 27.318125 
Q 523.832813 27.318125 523.832813 29.318125 
L 523.832813 57.674375 
Q 523.832813 59.674375 525.832813 59.674375 
z
" style="fill: #ffffff; opacity: 0.8; stroke: #cccccc; stroke-linejoin: miter"/>
    </g>
    <g id="line2d_33">
     <path d="M 527.832813 35.416562 
L 537.832813 35.416562 
L 547.832813 35.416562 
" style="fill: none; stroke-dasharray: 5.55,2.4; stroke-dashoffset: 0; stroke: #008000; stroke-width: 1.5"/>
    </g>
    <g id="text_19">
     <!-- Target -->
     <g transform="translate(555.832813 38.916562) scale(0.1 -0.1)">
      <use xlink:href="#DejaVuSans-54"/>
      <use xlink:href="#DejaVuSans-61" transform="translate(44.583984 0)"/>
      <use xlink:href="#DejaVuSans-72" transform="translate(105.863281 0)"/>
      <use xlink:href="#DejaVuSans-67" transform="translate(145.226562 0)"/>
      <use xlink:href="#DejaVuSans-65" transform="translate(208.703125 0)"/>
      <use xlink:href="#DejaVuSans-74" transform="translate(270.226562 0)"/>
     </g>
    </g>
    <g id="line2d_34">
     <path d="M 527.832813 50.094687 
L 537.832813 50.094687 
L 547.832813 50.094687 
" style="fill: none; stroke: #ff0000; stroke-width: 1.5; stroke-linecap: square"/>
    </g>
    <g id="text_20">
     <!-- Prediction -->
     <g transform="translate(555.832813 53.594687) scale(0.1 -0.1)">
      <use xlink:href="#DejaVuSans-50"/>
      <use xlink:href="#DejaVuSans-72" transform="translate(58.552734 0)"/>
      <use xlink:href="#DejaVuSans-65" transform="translate(97.416016 0)"/>
      <use xlink:href="#DejaVuSans-64" transform="translate(158.939453 0)"/>
      <use xlink:href="#DejaVuSans-69" transform="translate(222.416016 0)"/>
      <use xlink:href="#DejaVuSans-63" transform="translate(250.199219 0)"/>
      <use xlink:href="#DejaVuSans-74" transform="translate(305.179688 0)"/>
      <use xlink:href="#DejaVuSans-69" transform="translate(344.388672 0)"/>
      <use xlink:href="#DejaVuSans-6f" transform="translate(372.171875 0)"/>
      <use xlink:href="#DejaVuSans-6e" transform="translate(433.353516 0)"/>
     </g>
    </g>
   </g>
  </g>
 </g>
 <defs>
  <clipPath id="p59e66b7722">
   <rect x="56.50625" y="22.318125" width="558" height="221.76"/>
  </clipPath>
 </defs>
</svg>
