<?xml version="1.0" encoding="utf-8" standalone="no"?>
<!DOCTYPE svg PUBLIC "-//W3C//DTD SVG 1.1//EN"
  "http://www.w3.org/Graphics/SVG/1.1/DTD/svg11.dtd">
<svg xmlns:xlink="http://www.w3.org/1999/xlink" width="615.34375pt" height="281.634375pt" viewBox="0 0 615.34375 281.634375" xmlns="http://www.w3.org/2000/svg" version="1.1">
 <metadata>
  <rdf:RDF xmlns:dc="http://purl.org/dc/elements/1.1/" xmlns:cc="http://creativecommons.org/ns#" xmlns:rdf="http://www.w3.org/1999/02/22-rdf-syntax-ns#">
   <cc:Work>
    <dc:type rdf:resource="http://purl.org/dc/dcmitype/StillImage"/>
    <dc:date>2026-03-19T17:31:30.040389</dc:date>
    <dc:format>image/svg+xml</dc:format>
    <dc:creator>
     <cc:Agent>
      <dc:title>Matplotlib v3.10.8, https://matplotlib.org/</dc:title>
     </cc:Agent>
    </dc:creator>
   </cc:Work>
  </rdf:RDF>
 </metadata>
 <defs>
  <style type="text/css">*{stroke-linejoin: round; stroke-linecap: butt}</style>
 </defs>
 <g id="figure_1">
  <g id="patch_1">
   <path d="M 0 281.634375 
L 615.34375 281.634375 
L 615.34375 0 
L 0 0 
z
" style="fill: #ffffff"/>
  </g>
  <g id="axes_1">
   <g id="patch_2">
    <path d="M 50.14375 244.078125 
L 608.14375 244.078125 
L 608.14375 22.318125 
L 50.14375 22.318125 
z
" style="fill: #ffffff"/>
   </g>
   <g id="matplotlib.axis_1">
    <g id="xtick_1">
     <g id="line2d_1">
      <path d="M 75.507386 244.078125 
L 75.507386 22.318125 
" clip-path="url(#pc686cda74b)" style="fill: none; stroke: #b0b0b0; stroke-opacity: 0.3; stroke-width: 0.8; stroke-linecap: square"/>
     </g>
     <g id="line2d_2">
      <defs>
       <path id="ma2b1217c6c" d="M 0 0 
L 0 3.5 
" style="stroke: #000000; stroke-width: 0.8"/>
      </defs>
      <g>
       <use xlink:href="#ma2b1217c6c" x="75.507386" y="244.078125" style="stroke: #000000; stroke-width: 0.8"/>
      </g>
     </g>
     <g id="text_1">
      <!-- 0 -->
      <g transform="translate(72.326136 258.676562) scale(0.1 -0.1)">
       <defs>
        <path id="DejaVuSans-30" d="M 2034 4250 
Q 1547 4250 1301 3770 
Q 1056 3291 1056 2328 
Q 1056 1369 1301 889 
Q 1547 409 2034 409 
Q 2525 409 2770 889 
Q 3016 1369 3016 2328 
Q 3016 3291 2770 3770 
Q 2525 4250 2034 4250 
z
M 2034 4750 
Q 2819 4750 3233 4129 
Q 3647 3509 3647 2328 
Q 3647 1150 3233 529 
Q 2819 -91 2034 -91 
Q 1250 -91 836 529 
Q 422 1150 422 2328 
Q 422 3509 836 4129 
Q 1250 4750 2034 4750 
z
" transform="scale(0.015625)"/>
       </defs>
       <use xlink:href="#DejaVuSans-30"/>
      </g>
     </g>
    </g>
    <g id="xtick_2">
     <g id="line2d_3">
      <path d="M 160.62026 244.078125 
L 160.62026 22.318125 
" clip-path="url(#pc686cda74b)" style="fill: none; stroke: #b0b0b0; stroke-opacity: 0.3; stroke-width: 0.8; stroke-linecap: square"/>
     </g>
     <g id="line2d_4">
      <g>
       <use xlink:href="#ma2b1217c6c" x="160.62026" y="244.078125" style="stroke: #000000; stroke-width: 0.8"/>
      </g>
     </g>
     <g id="text_2">
      <!-- 50 -->
      <g transform="translate(154.25776 258.676562) scale(0.1 -0.1)">
       <defs>
        <path id="DejaVuSans-35" d="M 691 4666 
L 3169 4666 
L 3169 4134 
L 1269 4134 
L 1269 2991 
Q 1406 3038 1543 3061 
Q 1681 3084 1819 3084 
Q 2600 3084 3056 2656 
Q 3513 2228 3513 1497 
Q 3513 744 3044 326 
Q 2575 -91 1722 -91 
Q 1428 -91 1123 -41 
Q 819 9 494 109 
L 494 744 
Q 775 591 1075 516 
Q 1375 441 1709 441 
Q 2250 441 2565 725 
Q 2881 1009 2881 1497 
Q 2881 1984 2565 2268 
Q 2250 2553 1709 2553 
Q 1456 2553 1204 2497 
Q 953 2441 691 2322 
L 691 4666 
z
" transform="scale(0.015625)"/>
       </defs>
       <use xlink:href="#DejaVuSans-35"/>
       <use xlink:href="#DejaVuSans-30" transform="translate(63.623047 0)"/>
      </g>
     </g>
    </g>
    <g id="xtick_3">
     <g id="line2d_5">
      <path d="M 245.733134 244.078125 
L 245.733134 22.318125 
" clip-path="url(#pc686cda74b)" style="fill: none; stroke: #b0b0b0; stroke-opacity: 0.3; stroke-width: 0.8; stroke-linecap: square"/>
     </g>
     <g id="line2d_6">
      <g>
       <use xlink:href="#ma2b1217c6c" x="245.733134" y="244.078125" style="stroke: #000000; stroke-width: 0.8"/>
      </g>
     </g>
     <g id="text_3">
      <!-- 100 -->
      <g transform="translate(236.189384 258.676562) scale(0.1 -0.1)">
       <defs>
        <path id="DejaVuSans-31" d="M 794 531 
L 1825 531 
L 1825 4091 
L 703 3866 
L 703 4441 
L 1819 4666 
L 2450 4666 
L 2450 531 
L 3481 531 
L 3481 0 
L 794 0 
L 794 531 
z
" transform="scale(0.015625)"/>
       </defs>
       <use xlink:href="#DejaVuSans-31"/>
       <use xlink:href="#DejaVuSans-30" transform="translate(63.623047 0)"/>
       <use xlink:href="#DejaVuSans-30" transform="translate(127.246094 0)"/>
      </g>
     </g>
    </g>
    <g id="xtick_4">
     <g id="line2d_7">
      <path d="M 330.846007 244.078125 
L 330.846007 22.318125 
" clip-path="url(#pc686cda74b)" style="fill: none; stroke: #b0b0b0; stroke-opacity: 0.3; stroke-width: 0.8; stroke-linecap: square"/>
     </g>
     <g id="line2d_8">
      <g>
       <use xlink:href="#ma2b1217c6c" x="330.846007" y="244.078125" style="stroke: #000000; stroke-width: 0.8"/>
      </g>
     </g>
     <g id="text_4">
      <!-- 150 -->
      <g transform="translate(321.302257 258.676562) scale(0.1 -0.1)">
       <use xlink:href="#DejaVuSans-31"/>
       <use xlink:href="#DejaVuSans-35" transform="translate(63.623047 0)"/>
       <use xlink:href="#DejaVuSans-30" transform="translate(127.246094 0)"/>
      </g>
     </g>
    </g>
    <g id="xtick_5">
     <g id="line2d_9">
      <path d="M 415.958881 244.078125 
L 415.958881 22.318125 
" clip-path="url(#pc686cda74b)" style="fill: none; stroke: #b0b0b0; stroke-opacity: 0.3; stroke-width: 0.8; stroke-linecap: square"/>
     </g>
     <g id="line2d_10">
      <g>
       <use xlink:href="#ma2b1217c6c" x="415.958881" y="244.078125" style="stroke: #000000; stroke-width: 0.8"/>
      </g>
     </g>
     <g id="text_5">
      <!-- 200 -->
      <g transform="translate(406.415131 258.676562) scale(0.1 -0.1)">
       <defs>
        <path id="DejaVuSans-32" d="M 1228 531 
L 3431 531 
L 3431 0 
L 469 0 
L 469 531 
Q 828 903 1448 1529 
Q 2069 2156 2228 2338 
Q 2531 2678 2651 2914 
Q 2772 3150 2772 3378 
Q 2772 3750 2511 3984 
Q 2250 4219 1831 4219 
Q 1534 4219 1204 4116 
Q 875 4013 500 3803 
L 500 4441 
Q 881 4594 1212 4672 
Q 1544 4750 1819 4750 
Q 2544 4750 2975 4387 
Q 3406 4025 3406 3419 
Q 3406 3131 3298 2873 
Q 3191 2616 2906 2266 
Q 2828 2175 2409 1742 
Q 1991 1309 1228 531 
z
" transform="scale(0.015625)"/>
       </defs>
       <use xlink:href="#DejaVuSans-32"/>
       <use xlink:href="#DejaVuSans-30" transform="translate(63.623047 0)"/>
       <use xlink:href="#DejaVuSans-30" transform="translate(127.246094 0)"/>
      </g>
     </g>
    </g>
    <g id="xtick_6">
     <g id="line2d_11">
      <path d="M 501.071755 244.078125 
L 501.071755 22.318125 
" clip-path="url(#pc686cda74b)" style="fill: none; stroke: #b0b0b0; stroke-opacity: 0.3; stroke-width: 0.8; stroke-linecap: square"/>
     </g>
     <g id="line2d_12">
      <g>
       <use xlink:href="#ma2b1217c6c" x="501.071755" y="244.078125" style="stroke: #000000; stroke-width: 0.8"/>
      </g>
     </g>
     <g id="text_6">
      <!-- 250 -->
      <g transform="translate(491.528005 258.676562) scale(0.1 -0.1)">
       <use xlink:href="#DejaVuSans-32"/>
       <use xlink:href="#DejaVuSans-35" transform="translate(63.623047 0)"/>
       <use xlink:href="#DejaVuSans-30" transform="translate(127.246094 0)"/>
      </g>
     </g>
    </g>
    <g id="xtick_7">
     <g id="line2d_13">
      <path d="M 586.184629 244.078125 
L 586.184629 22.318125 
" clip-path="url(#pc686cda74b)" style="fill: none; stroke: #b0b0b0; stroke-opacity: 0.3; stroke-width: 0.8; stroke-linecap: square"/>
     </g>
     <g id="line2d_14">
      <g>
       <use xlink:href="#ma2b1217c6c" x="586.184629" y="244.078125" style="stroke: #000000; stroke-width: 0.8"/>
      </g>
     </g>
     <g id="text_7">
      <!-- 300 -->
      <g transform="translate(576.640879 258.676562) scale(0.1 -0.1)">
       <defs>
        <path id="DejaVuSans-33" d="M 2597 2516 
Q 3050 2419 3304 2112 
Q 3559 1806 3559 1356 
Q 3559 666 3084 287 
Q 2609 -91 1734 -91 
Q 1441 -91 1130 -33 
Q 819 25 488 141 
L 488 750 
Q 750 597 1062 519 
Q 1375 441 1716 441 
Q 2309 441 2620 675 
Q 2931 909 2931 1356 
Q 2931 1769 2642 2001 
Q 2353 2234 1838 2234 
L 1294 2234 
L 1294 2753 
L 1863 2753 
Q 2328 2753 2575 2939 
Q 2822 3125 2822 3475 
Q 2822 3834 2567 4026 
Q 2313 4219 1838 4219 
Q 1578 4219 1281 4162 
Q 984 4106 628 3988 
L 628 4550 
Q 988 4650 1302 4700 
Q 1616 4750 1894 4750 
Q 2613 4750 3031 4423 
Q 3450 4097 3450 3541 
Q 3450 3153 3228 2886 
Q 3006 2619 2597 2516 
z
" transform="scale(0.015625)"/>
       </defs>
       <use xlink:href="#DejaVuSans-33"/>
       <use xlink:href="#DejaVuSans-30" transform="translate(63.623047 0)"/>
       <use xlink:href="#DejaVuSans-30" transform="translate(127.246094 0)"/>
      </g>
     </g>
    </g>
    <g id="text_8">
     <!-- Time Steps -->
     <g transform="translate(301.33125 272.354687) scale(0.1 -0.1)">
      <defs>
       <path id="DejaVuSans-54" d="M -19 4666 
L 3928 4666 
L 3928 4134 
L 2272 4134 
L 2272 0 
L 1638 0 
L 1638 4134 
L -19 4134 
L -19 4666 
z
" transform="scale(0.015625)"/>
       <path id="DejaVuSans-69" d="M 603 3500 
L 1178 3500 
L 1178 0 
L 603 0 
L 603 3500 
z
M 603 4863 
L 1178 4863 
L 1178 4134 
L 603 4134 
L 603 4863 
z
" transform="scale(0.015625)"/>
       <path id="DejaVuSans-6d" d="M 3328 2828 
Q 3544 3216 3844 3400 
Q 4144 3584 4550 3584 
Q 5097 3584 5394 3201 
Q 5691 2819 5691 2113 
L 5691 0 
L 5113 0 
L 5113 2094 
Q 5113 2597 4934 2840 
Q 4756 3084 4391 3084 
Q 3944 3084 3684 2787 
Q 3425 2491 3425 1978 
L 3425 0 
L 2847 0 
L 2847 2094 
Q 2847 2600 2669 2842 
Q 2491 3084 2119 3084 
Q 1678 3084 1418 2786 
Q 1159 2488 1159 1978 
L 1159 0 
L 581 0 
L 581 3500 
L 1159 3500 
L 1159 2956 
Q 1356 3278 1631 3431 
Q 1906 3584 2284 3584 
Q 2666 3584 2933 3390 
Q 3200 3197 3328 2828 
z
" transform="scale(0.015625)"/>
       <path id="DejaVuSans-65" d="M 3597 1894 
L 3597 1613 
L 953 1613 
Q 991 1019 1311 708 
Q 1631 397 2203 397 
Q 2534 397 2845 478 
Q 3156 559 3463 722 
L 3463 178 
Q 3153 47 2828 -22 
Q 2503 -91 2169 -91 
Q 1331 -91 842 396 
Q 353 884 353 1716 
Q 353 2575 817 3079 
Q 1281 3584 2069 3584 
Q 2775 3584 3186 3129 
Q 3597 2675 3597 1894 
z
M 3022 2063 
Q 3016 2534 2758 2815 
Q 2500 3097 2075 3097 
Q 1594 3097 1305 2825 
Q 1016 2553 972 2059 
L 3022 2063 
z
" transform="scale(0.015625)"/>
       <path id="DejaVuSans-20" transform="scale(0.015625)"/>
       <path id="DejaVuSans-53" d="M 3425 4513 
L 3425 3897 
Q 3066 4069 2747 4153 
Q 2428 4238 2131 4238 
Q 1616 4238 1336 4038 
Q 1056 3838 1056 3469 
Q 1056 3159 1242 3001 
Q 1428 2844 1947 2747 
L 2328 2669 
Q 3034 2534 3370 2195 
Q 3706 1856 3706 1288 
Q 3706 609 3251 259 
Q 2797 -91 1919 -91 
Q 1588 -91 1214 -16 
Q 841 59 441 206 
L 441 856 
Q 825 641 1194 531 
Q 1563 422 1919 422 
Q 2459 422 2753 634 
Q 3047 847 3047 1241 
Q 3047 1584 2836 1778 
Q 2625 1972 2144 2069 
L 1759 2144 
Q 1053 2284 737 2584 
Q 422 2884 422 3419 
Q 422 4038 858 4394 
Q 1294 4750 2059 4750 
Q 2388 4750 2728 4690 
Q 3069 4631 3425 4513 
z
" transform="scale(0.015625)"/>
       <path id="DejaVuSans-74" d="M 1172 4494 
L 1172 3500 
L 2356 3500 
L 2356 3053 
L 1172 3053 
L 1172 1153 
Q 1172 725 1289 603 
Q 1406 481 1766 481 
L 2356 481 
L 2356 0 
L 1766 0 
Q 1100 0 847 248 
Q 594 497 594 1153 
L 594 3053 
L 172 3053 
L 172 3500 
L 594 3500 
L 594 4494 
L 1172 4494 
z
" transform="scale(0.015625)"/>
       <path id="DejaVuSans-70" d="M 1159 525 
L 1159 -1331 
L 581 -1331 
L 581 3500 
L 1159 3500 
L 1159 2969 
Q 1341 3281 1617 3432 
Q 1894 3584 2278 3584 
Q 2916 3584 3314 3078 
Q 3713 2572 3713 1747 
Q 3713 922 3314 415 
Q 2916 -91 2278 -91 
Q 1894 -91 1617 61 
Q 1341 213 1159 525 
z
M 3116 1747 
Q 3116 2381 2855 2742 
Q 2594 3103 2138 3103 
Q 1681 3103 1420 2742 
Q 1159 2381 1159 1747 
Q 1159 1113 1420 752 
Q 1681 391 2138 391 
Q 2594 391 2855 752 
Q 3116 1113 3116 1747 
z
" transform="scale(0.015625)"/>
       <path id="DejaVuSans-73" d="M 2834 3397 
L 2834 2853 
Q 2591 2978 2328 3040 
Q 2066 3103 1784 3103 
Q 1356 3103 1142 2972 
Q 928 2841 928 2578 
Q 928 2378 1081 2264 
Q 1234 2150 1697 2047 
L 1894 2003 
Q 2506 1872 2764 1633 
Q 3022 1394 3022 966 
Q 3022 478 2636 193 
Q 2250 -91 1575 -91 
Q 1294 -91 989 -36 
Q 684 19 347 128 
L 347 722 
Q 666 556 975 473 
Q 1284 391 1588 391 
Q 1994 391 2212 530 
Q 2431 669 2431 922 
Q 2431 1156 2273 1281 
Q 2116 1406 1581 1522 
L 1381 1569 
Q 847 1681 609 1914 
Q 372 2147 372 2553 
Q 372 3047 722 3315 
Q 1072 3584 1716 3584 
Q 2034 3584 2315 3537 
Q 2597 3491 2834 3397 
z
" transform="scale(0.015625)"/>
      </defs>
      <use xlink:href="#DejaVuSans-54"/>
      <use xlink:href="#DejaVuSans-69" transform="translate(57.958984 0)"/>
      <use xlink:href="#DejaVuSans-6d" transform="translate(85.742188 0)"/>
      <use xlink:href="#DejaVuSans-65" transform="translate(183.154297 0)"/>
      <use xlink:href="#DejaVuSans-20" transform="translate(244.677734 0)"/>
      <use xlink:href="#DejaVuSans-53" transform="translate(276.464844 0)"/>
      <use xlink:href="#DejaVuSans-74" transform="translate(339.941406 0)"/>
      <use xlink:href="#DejaVuSans-65" transform="translate(379.150391 0)"/>
      <use xlink:href="#DejaVuSans-70" transform="translate(440.673828 0)"/>
      <use xlink:href="#DejaVuSans-73" transform="translate(504.150391 0)"/>
     </g>
    </g>
   </g>
   <g id="matplotlib.axis_2">
    <g id="ytick_1">
     <g id="line2d_15">
      <path d="M 50.14375 238.773666 
L 608.14375 238.773666 
" clip-path="url(#pc686cda74b)" style="fill: none; stroke: #b0b0b0; stroke-opacity: 0.3; stroke-width: 0.8; stroke-linecap: square"/>
     </g>
     <g id="line2d_16">
      <defs>
       <path id="m0bbb48b927" d="M 0 0 
L -3.5 0 
" style="stroke: #000000; stroke-width: 0.8"/>
      </defs>
      <g>
       <use xlink:href="#m0bbb48b927" x="50.14375" y="238.773666" style="stroke: #000000; stroke-width: 0.8"/>
      </g>
     </g>
     <g id="text_9">
      <!-- 0.18 -->
      <g transform="translate(20.878125 242.572885) scale(0.1 -0.1)">
       <defs>
        <path id="DejaVuSans-2e" d="M 684 794 
L 1344 794 
L 1344 0 
L 684 0 
L 684 794 
z
" transform="scale(0.015625)"/>
        <path id="DejaVuSans-38" d="M 2034 2216 
Q 1584 2216 1326 1975 
Q 1069 1734 1069 1313 
Q 1069 891 1326 650 
Q 1584 409 2034 409 
Q 2484 409 2743 651 
Q 3003 894 3003 1313 
Q 3003 1734 2745 1975 
Q 2488 2216 2034 2216 
z
M 1403 2484 
Q 997 2584 770 2862 
Q 544 3141 544 3541 
Q 544 4100 942 4425 
Q 1341 4750 2034 4750 
Q 2731 4750 3128 4425 
Q 3525 4100 3525 3541 
Q 3525 3141 3298 2862 
Q 3072 2584 2669 2484 
Q 3125 2378 3379 2068 
Q 3634 1759 3634 1313 
Q 3634 634 3220 271 
Q 2806 -91 2034 -91 
Q 1263 -91 848 271 
Q 434 634 434 1313 
Q 434 1759 690 2068 
Q 947 2378 1403 2484 
z
M 1172 3481 
Q 1172 3119 1398 2916 
Q 1625 2713 2034 2713 
Q 2441 2713 2670 2916 
Q 2900 3119 2900 3481 
Q 2900 3844 2670 4047 
Q 2441 4250 2034 4250 
Q 1625 4250 1398 4047 
Q 1172 3844 1172 3481 
z
" transform="scale(0.015625)"/>
       </defs>
       <use xlink:href="#DejaVuSans-30"/>
       <use xlink:href="#DejaVuSans-2e" transform="translate(63.623047 0)"/>
       <use xlink:href="#DejaVuSans-31" transform="translate(95.410156 0)"/>
       <use xlink:href="#DejaVuSans-38" transform="translate(159.033203 0)"/>
      </g>
     </g>
    </g>
    <g id="ytick_2">
     <g id="line2d_17">
      <path d="M 50.14375 213.43714 
L 608.14375 213.43714 
" clip-path="url(#pc686cda74b)" style="fill: none; stroke: #b0b0b0; stroke-opacity: 0.3; stroke-width: 0.8; stroke-linecap: square"/>
     </g>
     <g id="line2d_18">
      <g>
       <use xlink:href="#m0bbb48b927" x="50.14375" y="213.43714" style="stroke: #000000; stroke-width: 0.8"/>
      </g>
     </g>
     <g id="text_10">
      <!-- 0.19 -->
      <g transform="translate(20.878125 217.236358) scale(0.1 -0.1)">
       <defs>
        <path id="DejaVuSans-39" d="M 703 97 
L 703 672 
Q 941 559 1184 500 
Q 1428 441 1663 441 
Q 2288 441 2617 861 
Q 2947 1281 2994 2138 
Q 2813 1869 2534 1725 
Q 2256 1581 1919 1581 
Q 1219 1581 811 2004 
Q 403 2428 403 3163 
Q 403 3881 828 4315 
Q 1253 4750 1959 4750 
Q 2769 4750 3195 4129 
Q 3622 3509 3622 2328 
Q 3622 1225 3098 567 
Q 2575 -91 1691 -91 
Q 1453 -91 1209 -44 
Q 966 3 703 97 
z
M 1959 2075 
Q 2384 2075 2632 2365 
Q 2881 2656 2881 3163 
Q 2881 3666 2632 3958 
Q 2384 4250 1959 4250 
Q 1534 4250 1286 3958 
Q 1038 3666 1038 3163 
Q 1038 2656 1286 2365 
Q 1534 2075 1959 2075 
z
" transform="scale(0.015625)"/>
       </defs>
       <use xlink:href="#DejaVuSans-30"/>
       <use xlink:href="#DejaVuSans-2e" transform="translate(63.623047 0)"/>
       <use xlink:href="#DejaVuSans-31" transform="translate(95.410156 0)"/>
       <use xlink:href="#DejaVuSans-39" transform="translate(159.033203 0)"/>
      </g>
     </g>
    </g>
    <g id="ytick_3">
     <g id="line2d_19">
      <path d="M 50.14375 188.100613 
L 608.14375 188.100613 
" clip-path="url(#pc686cda74b)" style="fill: none; stroke: #b0b0b0; stroke-opacity: 0.3; stroke-width: 0.8; stroke-linecap: square"/>
     </g>
     <g id="line2d_20">
      <g>
       <use xlink:href="#m0bbb48b927" x="50.14375" y="188.100613" style="stroke: #000000; stroke-width: 0.8"/>
      </g>
     </g>
     <g id="text_11">
      <!-- 0.20 -->
      <g transform="translate(20.878125 191.899831) scale(0.1 -0.1)">
       <use xlink:href="#DejaVuSans-30"/>
       <use xlink:href="#DejaVuSans-2e" transform="translate(63.623047 0)"/>
       <use xlink:href="#DejaVuSans-32" transform="translate(95.410156 0)"/>
       <use xlink:href="#DejaVuSans-30" transform="translate(159.033203 0)"/>
      </g>
     </g>
    </g>
    <g id="ytick_4">
     <g id="line2d_21">
      <path d="M 50.14375 162.764086 
L 608.14375 162.764086 
" clip-path="url(#pc686cda74b)" style="fill: none; stroke: #b0b0b0; stroke-opacity: 0.3; stroke-width: 0.8; stroke-linecap: square"/>
     </g>
     <g id="line2d_22">
      <g>
       <use xlink:href="#m0bbb48b927" x="50.14375" y="162.764086" style="stroke: #000000; stroke-width: 0.8"/>
      </g>
     </g>
     <g id="text_12">
      <!-- 0.21 -->
      <g transform="translate(20.878125 166.563305) scale(0.1 -0.1)">
       <use xlink:href="#DejaVuSans-30"/>
       <use xlink:href="#DejaVuSans-2e" transform="translate(63.623047 0)"/>
       <use xlink:href="#DejaVuSans-32" transform="translate(95.410156 0)"/>
       <use xlink:href="#DejaVuSans-31" transform="translate(159.033203 0)"/>
      </g>
     </g>
    </g>
    <g id="ytick_5">
     <g id="line2d_23">
      <path d="M 50.14375 137.427559 
L 608.14375 137.427559 
" clip-path="url(#pc686cda74b)" style="fill: none; stroke: #b0b0b0; stroke-opacity: 0.3; stroke-width: 0.8; stroke-linecap: square"/>
     </g>
     <g id="line2d_24">
      <g>
       <use xlink:href="#m0bbb48b927" x="50.14375" y="137.427559" style="stroke: #000000; stroke-width: 0.8"/>
      </g>
     </g>
     <g id="text_13">
      <!-- 0.22 -->
      <g transform="translate(20.878125 141.226778) scale(0.1 -0.1)">
       <use xlink:href="#DejaVuSans-30"/>
       <use xlink:href="#DejaVuSans-2e" transform="translate(63.623047 0)"/>
       <use xlink:href="#DejaVuSans-32" transform="translate(95.410156 0)"/>
       <use xlink:href="#DejaVuSans-32" transform="translate(159.033203 0)"/>
      </g>
     </g>
    </g>
    <g id="ytick_6">
     <g id="line2d_25">
      <path d="M 50.14375 112.091032 
L 608.14375 112.091032 
" clip-path="url(#pc686cda74b)" style="fill: none; stroke: #b0b0b0; stroke-opacity: 0.3; stroke-width: 0.8; stroke-linecap: square"/>
     </g>
     <g id="line2d_26">
      <g>
       <use xlink:href="#m0bbb48b927" x="50.14375" y="112.091032" style="stroke: #000000; stroke-width: 0.8"/>
      </g>
     </g>
     <g id="text_14">
      <!-- 0.23 -->
      <g transform="translate(20.878125 115.890251) scale(0.1 -0.1)">
       <use xlink:href="#DejaVuSans-30"/>
       <use xlink:href="#DejaVuSans-2e" transform="translate(63.623047 0)"/>
       <use xlink:href="#DejaVuSans-32" transform="translate(95.410156 0)"/>
       <use xlink:href="#DejaVuSans-33" transform="translate(159.033203 0)"/>
      </g>
     </g>
    </g>
    <g id="ytick_7">
     <g id="line2d_27">
      <path d="M 50.14375 86.754505 
L 608.14375 86.754505 
" clip-path="url(#pc686cda74b)" style="fill: none; stroke: #b0b0b0; stroke-opacity: 0.3; stroke-width: 0.8; stroke-linecap: square"/>
     </g>
     <g id="line2d_28">
      <g>
       <use xlink:href="#m0bbb48b927" x="50.14375" y="86.754505" style="stroke: #000000; stroke-width: 0.8"/>
      </g>
     </g>
     <g id="text_15">
      <!-- 0.24 -->
      <g transform="translate(20.878125 90.553724) scale(0.1 -0.1)">
       <defs>
        <path id="DejaVuSans-34" d="M 2419 4116 
L 825 1625 
L 2419 1625 
L 2419 4116 
z
M 2253 4666 
L 3047 4666 
L 3047 1625 
L 3713 1625 
L 3713 1100 
L 3047 1100 
L 3047 0 
L 2419 0 
L 2419 1100 
L 313 1100 
L 313 1709 
L 2253 4666 
z
" transform="scale(0.015625)"/>
       </defs>
       <use xlink:href="#DejaVuSans-30"/>
       <use xlink:href="#DejaVuSans-2e" transform="translate(63.623047 0)"/>
       <use xlink:href="#DejaVuSans-32" transform="translate(95.410156 0)"/>
       <use xlink:href="#DejaVuSans-34" transform="translate(159.033203 0)"/>
      </g>
     </g>
    </g>
    <g id="ytick_8">
     <g id="line2d_29">
      <path d="M 50.14375 61.417978 
L 608.14375 61.417978 
" clip-path="url(#pc686cda74b)" style="fill: none; stroke: #b0b0b0; stroke-opacity: 0.3; stroke-width: 0.8; stroke-linecap: square"/>
     </g>
     <g id="line2d_30">
      <g>
       <use xlink:href="#m0bbb48b927" x="50.14375" y="61.417978" style="stroke: #000000; stroke-width: 0.8"/>
      </g>
     </g>
     <g id="text_16">
      <!-- 0.25 -->
      <g transform="translate(20.878125 65.217197) scale(0.1 -0.1)">
       <use xlink:href="#DejaVuSans-30"/>
       <use xlink:href="#DejaVuSans-2e" transform="translate(63.623047 0)"/>
       <use xlink:href="#DejaVuSans-32" transform="translate(95.410156 0)"/>
       <use xlink:href="#DejaVuSans-35" transform="translate(159.033203 0)"/>
      </g>
     </g>
    </g>
    <g id="ytick_9">
     <g id="line2d_31">
      <path d="M 50.14375 36.081452 
L 608.14375 36.081452 
" clip-path="url(#pc686cda74b)" style="fill: none; stroke: #b0b0b0; stroke-opacity: 0.3; stroke-width: 0.8; stroke-linecap: square"/>
     </g>
     <g id="line2d_32">
      <g>
       <use xlink:href="#m0bbb48b927" x="50.14375" y="36.081452" style="stroke: #000000; stroke-width: 0.8"/>
      </g>
     </g>
     <g id="text_17">
      <!-- 0.26 -->
      <g transform="translate(20.878125 39.88067) scale(0.1 -0.1)">
       <defs>
        <path id="DejaVuSans-36" d="M 2113 2584 
Q 1688 2584 1439 2293 
Q 1191 2003 1191 1497 
Q 1191 994 1439 701 
Q 1688 409 2113 409 
Q 2538 409 2786 701 
Q 3034 994 3034 1497 
Q 3034 2003 2786 2293 
Q 2538 2584 2113 2584 
z
M 3366 4563 
L 3366 3988 
Q 3128 4100 2886 4159 
Q 2644 4219 2406 4219 
Q 1781 4219 1451 3797 
Q 1122 3375 1075 2522 
Q 1259 2794 1537 2939 
Q 1816 3084 2150 3084 
Q 2853 3084 3261 2657 
Q 3669 2231 3669 1497 
Q 3669 778 3244 343 
Q 2819 -91 2113 -91 
Q 1303 -91 875 529 
Q 447 1150 447 2328 
Q 447 3434 972 4092 
Q 1497 4750 2381 4750 
Q 2619 4750 2861 4703 
Q 3103 4656 3366 4563 
z
" transform="scale(0.015625)"/>
       </defs>
       <use xlink:href="#DejaVuSans-30"/>
       <use xlink:href="#DejaVuSans-2e" transform="translate(63.623047 0)"/>
       <use xlink:href="#DejaVuSans-32" transform="translate(95.410156 0)"/>
       <use xlink:href="#DejaVuSans-36" transform="translate(159.033203 0)"/>
      </g>
     </g>
    </g>
    <g id="text_18">
     <!-- Signal Value -->
     <g transform="translate(14.798437 163.877812) rotate(-90) scale(0.1 -0.1)">
      <defs>
       <path id="DejaVuSans-67" d="M 2906 1791 
Q 2906 2416 2648 2759 
Q 2391 3103 1925 3103 
Q 1463 3103 1205 2759 
Q 947 2416 947 1791 
Q 947 1169 1205 825 
Q 1463 481 1925 481 
Q 2391 481 2648 825 
Q 2906 1169 2906 1791 
z
M 3481 434 
Q 3481 -459 3084 -895 
Q 2688 -1331 1869 -1331 
Q 1566 -1331 1297 -1286 
Q 1028 -1241 775 -1147 
L 775 -588 
Q 1028 -725 1275 -790 
Q 1522 -856 1778 -856 
Q 2344 -856 2625 -561 
Q 2906 -266 2906 331 
L 2906 616 
Q 2728 306 2450 153 
Q 2172 0 1784 0 
Q 1141 0 747 490 
Q 353 981 353 1791 
Q 353 2603 747 3093 
Q 1141 3584 1784 3584 
Q 2172 3584 2450 3431 
Q 2728 3278 2906 2969 
L 2906 3500 
L 3481 3500 
L 3481 434 
z
" transform="scale(0.015625)"/>
       <path id="DejaVuSans-6e" d="M 3513 2113 
L 3513 0 
L 2938 0 
L 2938 2094 
Q 2938 2591 2744 2837 
Q 2550 3084 2163 3084 
Q 1697 3084 1428 2787 
Q 1159 2491 1159 1978 
L 1159 0 
L 581 0 
L 581 3500 
L 1159 3500 
L 1159 2956 
Q 1366 3272 1645 3428 
Q 1925 3584 2291 3584 
Q 2894 3584 3203 3211 
Q 3513 2838 3513 2113 
z
" transform="scale(0.015625)"/>
       <path id="DejaVuSans-61" d="M 2194 1759 
Q 1497 1759 1228 1600 
Q 959 1441 959 1056 
Q 959 750 1161 570 
Q 1363 391 1709 391 
Q 2188 391 2477 730 
Q 2766 1069 2766 1631 
L 2766 1759 
L 2194 1759 
z
M 3341 1997 
L 3341 0 
L 2766 0 
L 2766 531 
Q 2569 213 2275 61 
Q 1981 -91 1556 -91 
Q 1019 -91 701 211 
Q 384 513 384 1019 
Q 384 1609 779 1909 
Q 1175 2209 1959 2209 
L 2766 2209 
L 2766 2266 
Q 2766 2663 2505 2880 
Q 2244 3097 1772 3097 
Q 1472 3097 1187 3025 
Q 903 2953 641 2809 
L 641 3341 
Q 956 3463 1253 3523 
Q 1550 3584 1831 3584 
Q 2591 3584 2966 3190 
Q 3341 2797 3341 1997 
z
" transform="scale(0.015625)"/>
       <path id="DejaVuSans-6c" d="M 603 4863 
L 1178 4863 
L 1178 0 
L 603 0 
L 603 4863 
z
" transform="scale(0.015625)"/>
       <path id="DejaVuSans-56" d="M 1831 0 
L 50 4666 
L 709 4666 
L 2188 738 
L 3669 4666 
L 4325 4666 
L 2547 0 
L 1831 0 
z
" transform="scale(0.015625)"/>
       <path id="DejaVuSans-75" d="M 544 1381 
L 544 3500 
L 1119 3500 
L 1119 1403 
Q 1119 906 1312 657 
Q 1506 409 1894 409 
Q 2359 409 2629 706 
Q 2900 1003 2900 1516 
L 2900 3500 
L 3475 3500 
L 3475 0 
L 2900 0 
L 2900 538 
Q 2691 219 2414 64 
Q 2138 -91 1772 -91 
Q 1169 -91 856 284 
Q 544 659 544 1381 
z
M 1991 3584 
L 1991 3584 
z
" transform="scale(0.015625)"/>
      </defs>
      <use xlink:href="#DejaVuSans-53"/>
      <use xlink:href="#DejaVuSans-69" transform="translate(63.476562 0)"/>
      <use xlink:href="#DejaVuSans-67" transform="translate(91.259766 0)"/>
      <use xlink:href="#DejaVuSans-6e" transform="translate(154.736328 0)"/>
      <use xlink:href="#DejaVuSans-61" transform="translate(218.115234 0)"/>
      <use xlink:href="#DejaVuSans-6c" transform="translate(279.394531 0)"/>
      <use xlink:href="#DejaVuSans-20" transform="translate(307.177734 0)"/>
      <use xlink:href="#DejaVuSans-56" transform="translate(338.964844 0)"/>
      <use xlink:href="#DejaVuSans-61" transform="translate(399.623047 0)"/>
      <use xlink:href="#DejaVuSans-6c" transform="translate(460.902344 0)"/>
      <use xlink:href="#DejaVuSans-75" transform="translate(488.685547 0)"/>
      <use xlink:href="#DejaVuSans-65" transform="translate(552.064453 0)"/>
     </g>
    </g>
   </g>
   <g id="line2d_33">
    <path d="M 75.507386 194.041527 
L 77.209644 180.992164 
L 78.911901 173.647088 
L 80.614159 172.610434 
L 82.316416 176.620814 
L 84.018674 172.728249 
L 85.720931 150.45532 
L 87.423189 131.456953 
L 89.125446 120.364818 
L 90.827704 112.192234 
L 92.529961 111.736885 
L 94.232219 116.038525 
L 95.934476 139.88435 
L 97.636734 167.020099 
L 99.338991 183.983468 
L 101.041248 194.534854 
L 102.743506 200.967966 
L 104.445763 204.667832 
L 106.148021 206.479979 
L 107.850278 205.068042 
L 109.552536 188.080721 
L 111.254793 157.767201 
L 112.957051 138.655296 
L 114.659308 131.958993 
L 116.361566 136.390898 
L 118.063823 135.532453 
L 119.766081 131.785793 
L 121.468338 142.796059 
L 123.170596 152.528303 
L 124.872853 153.841984 
L 126.575111 151.137092 
L 128.277368 148.986084 
L 129.979626 162.239559 
L 131.681883 179.610903 
L 133.38414 190.950498 
L 135.086398 198.399955 
L 136.788655 203.294081 
L 138.490913 206.254015 
L 140.19317 207.940379 
L 141.895428 206.651668 
L 143.597685 187.627557 
L 145.299943 153.484995 
L 147.0022 123.969745 
L 148.704458 96.79125 
L 150.406715 82.727809 
L 152.108973 76.545185 
L 153.81123 93.177608 
L 155.513488 127.414403 
L 157.215745 152.547686 
L 158.918003 166.83511 
L 160.62026 175.010761 
L 162.322518 179.826444 
L 165.727032 193.49588 
L 169.131547 198.734943 
L 170.833805 202.904494 
L 172.536062 205.71575 
L 174.23832 207.283268 
L 175.940577 205.378971 
L 177.642835 189.849452 
L 179.345092 167.582067 
L 181.04735 140.565558 
L 184.451865 51.902417 
L 186.154122 32.398125 
L 187.85638 59.130818 
L 189.558637 105.766123 
L 191.260895 140.183417 
L 192.963152 163.476725 
L 194.66541 180.284742 
L 196.367667 191.088771 
L 198.069924 197.967566 
L 199.772182 201.169493 
L 201.474439 197.754308 
L 203.176697 194.709986 
L 204.878954 197.146808 
L 206.581212 198.968476 
L 208.283469 199.363206 
L 209.985727 195.287295 
L 211.687984 184.517178 
L 213.390242 176.824382 
L 215.092499 160.994237 
L 216.794757 118.994718 
L 218.497014 70.275131 
L 220.199272 45.850407 
L 221.901529 65.555309 
L 223.603787 105.023046 
L 225.306044 136.374551 
L 227.008302 161.886676 
L 228.710559 180.921723 
L 230.412817 192.638541 
L 232.115074 199.821322 
L 233.817331 203.708078 
L 235.519589 201.15612 
L 237.221846 196.124445 
L 238.924104 193.044461 
L 240.626361 185.214765 
L 242.328619 175.192425 
L 244.030876 166.096788 
L 245.733134 163.03602 
L 247.435391 168.062875 
L 249.137649 164.545434 
L 252.542164 117.393457 
L 254.244421 106.469225 
L 255.946679 113.707067 
L 257.648936 131.228714 
L 259.351194 146.593026 
L 261.053451 167.255575 
L 262.755709 184.502071 
L 264.457966 194.828078 
L 266.160223 201.180308 
L 267.862481 204.920751 
L 269.564738 205.18394 
L 271.266996 202.599595 
L 272.969253 195.331931 
L 274.671511 170.187032 
L 276.373768 136.055876 
L 278.076026 115.755714 
L 279.778283 117.732286 
L 281.480541 133.795263 
L 283.182798 141.07647 
L 284.885056 139.464398 
L 286.587313 146.327514 
L 288.289571 153.794078 
L 289.991828 159.465083 
L 291.694086 162.871614 
L 293.396343 163.740899 
L 295.098601 176.283308 
L 296.800858 189.669943 
L 298.503115 197.893741 
L 300.205373 202.960086 
L 301.90763 205.898782 
L 303.609888 206.958753 
L 305.312145 206.476508 
L 307.014403 199.060498 
L 308.71666 163.359167 
L 310.418918 111.637542 
L 312.121175 77.295651 
L 313.823433 69.72557 
L 315.52569 83.773777 
L 317.227948 96.304407 
L 318.930205 116.582029 
L 320.632463 145.675618 
L 322.33472 166.431648 
L 324.036978 178.65035 
L 325.739235 184.177218 
L 327.441493 184.729262 
L 329.14375 190.361274 
L 330.846007 196.825294 
L 332.548265 200.229975 
L 335.95278 204.520816 
L 337.655037 205.759708 
L 339.357295 205.974456 
L 341.059552 199.076734 
L 342.76181 166.117272 
L 344.464067 123.672058 
L 346.166325 87.507596 
L 347.868582 59.391443 
L 349.57084 51.135669 
L 351.273097 56.113053 
L 352.975355 91.380037 
L 354.677612 133.438528 
L 356.37987 161.675443 
L 358.082127 179.543589 
L 359.784385 190.44016 
L 361.486642 196.432031 
L 363.188899 200.552882 
L 364.891157 202.273693 
L 368.295672 193.577496 
L 369.997929 194.493559 
L 371.700187 196.184112 
L 373.402444 196.906943 
L 375.104702 189.630754 
L 376.806959 167.719565 
L 378.509217 149.686485 
L 380.211474 128.361814 
L 381.913732 94.35589 
L 383.615989 66.440762 
L 385.318247 60.177245 
L 387.020504 93.483828 
L 388.722762 134.25179 
L 390.425019 161.981619 
L 392.127277 180.443932 
L 393.829534 192.315576 
L 395.531791 199.57708 
L 397.234049 203.940232 
L 398.936306 205.215382 
L 400.638564 196.366612 
L 402.340821 184.239575 
L 404.043079 178.549791 
L 405.745336 173.343715 
L 407.447594 169.225892 
L 409.149851 159.723758 
L 410.852109 152.664267 
L 412.554366 156.830432 
L 414.256624 153.504107 
L 417.661139 113.651675 
L 419.363396 107.37541 
L 421.065654 127.1619 
L 422.767911 152.662178 
L 424.470169 170.873538 
L 426.172426 185.639282 
L 427.874683 195.632303 
L 429.576941 201.656455 
L 431.279198 205.32669 
L 432.981456 206.831906 
L 434.683713 199.721992 
L 436.385971 187.416436 
L 438.088228 172.446018 
L 441.492743 120.749548 
L 443.195001 105.031902 
L 444.897258 113.902556 
L 446.599516 136.215203 
L 448.301773 148.608528 
L 450.004031 149.501969 
L 451.706288 152.356546 
L 453.408546 157.174898 
L 455.110803 166.754379 
L 456.813061 175.429915 
L 458.515318 180.176766 
L 460.217576 189.670364 
L 461.919833 198.090904 
L 463.62209 203.130381 
L 465.324348 206.179994 
L 467.026605 207.217258 
L 468.728863 203.180441 
L 470.43112 195.993442 
L 472.133378 177.740821 
L 473.835635 130.46921 
L 475.537893 76.626935 
L 477.24015 49.057487 
L 478.942408 64.612797 
L 480.644665 98.281447 
L 482.346923 122.434046 
L 485.751438 163.672835 
L 487.453695 178.401712 
L 489.155953 187.714226 
L 490.85821 191.398764 
L 492.560468 189.501515 
L 494.262725 193.618416 
L 495.964982 199.351025 
L 497.66724 202.746199 
L 499.369497 204.507294 
L 501.071755 204.400175 
L 502.774012 202.42479 
L 504.47627 199.639881 
L 506.178527 184.264347 
L 507.880785 135.482916 
L 509.583042 79.359112 
L 511.2853 45.829936 
L 512.987557 48.274393 
L 516.392072 96.588853 
L 518.09433 129.984484 
L 519.796587 160.222749 
L 521.498845 179.497435 
L 523.201102 191.380999 
L 524.90336 197.690651 
L 526.605617 198.839395 
L 528.307874 200.390703 
L 530.010132 201.16826 
L 531.712389 197.273713 
L 533.414647 192.714451 
L 535.116904 191.049075 
L 536.819162 191.416518 
L 538.521419 191.91326 
L 540.223677 180.53626 
L 541.925934 146.788938 
L 543.628192 117.395582 
L 545.330449 94.891209 
L 547.032707 82.528377 
L 548.734964 82.959256 
L 550.437222 94.233363 
L 552.139479 128.918731 
L 553.841737 160.128614 
L 555.543994 179.665346 
L 557.246252 191.846157 
L 558.948509 199.225074 
L 560.650766 203.305324 
L 562.353024 205.373703 
L 564.055281 203.524108 
L 565.757539 188.300578 
L 567.459796 170.527049 
L 569.162054 162.725041 
L 570.864311 162.023365 
L 572.566569 164.201403 
L 574.268826 156.276081 
L 575.971084 144.356296 
L 577.673341 145.042177 
L 579.375599 141.934351 
L 581.077856 131.357699 
L 582.780114 121.679326 
L 582.780114 121.679326 
" clip-path="url(#pc686cda74b)" style="fill: none; stroke-dasharray: 5.55,2.4; stroke-dashoffset: 0; stroke: #008000; stroke-width: 1.5"/>
   </g>
   <g id="line2d_34">
    <path d="M 75.507386 188.066932 
L 77.209644 181.629478 
L 78.911901 149.865826 
L 80.614159 152.647714 
L 82.316416 152.402238 
L 84.018674 159.310723 
L 85.720931 106.715719 
L 87.423189 126.663904 
L 89.125446 127.078875 
L 90.827704 103.667054 
L 92.529961 120.319631 
L 94.232219 149.169585 
L 95.934476 182.190159 
L 97.636734 172.235512 
L 99.338991 231.520573 
L 101.041248 211.718223 
L 104.445763 176.850165 
L 106.148021 189.230835 
L 107.850278 168.516674 
L 109.552536 154.739833 
L 111.254793 157.293806 
L 114.659308 108.861487 
L 116.361566 154.267905 
L 118.063823 169.425478 
L 119.766081 115.454259 
L 121.468338 154.457381 
L 123.170596 165.743113 
L 124.872853 139.777214 
L 126.575111 133.243729 
L 128.277368 141.938443 
L 129.979626 155.065263 
L 131.681883 179.169465 
L 135.086398 223.725251 
L 136.788655 183.037183 
L 138.490913 201.644469 
L 140.19317 190.454783 
L 141.895428 172.963449 
L 143.597685 137.976703 
L 145.299943 136.814324 
L 147.0022 91.778632 
L 148.704458 86.810334 
L 150.406715 120.112481 
L 152.108973 125.749487 
L 153.81123 136.749404 
L 155.513488 165.396995 
L 157.215745 228.396702 
L 158.918003 188.964798 
L 160.62026 184.438002 
L 162.322518 178.493081 
L 164.024775 174.11314 
L 165.727032 178.534231 
L 167.42929 176.570917 
L 169.131547 207.377486 
L 170.833805 140.27263 
L 172.536062 212.284565 
L 174.23832 166.566158 
L 175.940577 186.554323 
L 177.642835 120.355202 
L 179.345092 135.552142 
L 181.04735 102.40339 
L 182.749607 94.022393 
L 184.451865 117.081653 
L 186.154122 88.228335 
L 187.85638 124.633776 
L 189.558637 139.96851 
L 191.260895 176.78703 
L 192.963152 191.941835 
L 194.66541 178.366067 
L 196.367667 202.127233 
L 198.069924 160.307444 
L 199.772182 198.053902 
L 201.474439 193.305073 
L 203.176697 190.265389 
L 204.878954 144.579862 
L 206.581212 201.680307 
L 208.283469 195.37616 
L 209.985727 167.702661 
L 211.687984 155.148602 
L 215.092499 124.727256 
L 216.794757 94.233897 
L 218.497014 124.507865 
L 220.199272 92.422463 
L 221.901529 130.034721 
L 223.603787 153.986706 
L 225.306044 157.350594 
L 227.008302 192.344604 
L 228.710559 183.145701 
L 230.412817 199.066462 
L 232.115074 189.284006 
L 233.817331 171.064863 
L 235.519589 193.611821 
L 237.221846 190.117561 
L 238.924104 139.238647 
L 240.626361 181.302445 
L 242.328619 170.945253 
L 244.030876 147.068256 
L 245.733134 153.346369 
L 247.435391 147.436563 
L 249.137649 148.738542 
L 250.839906 132.681716 
L 252.542164 124.665612 
L 254.244421 136.524261 
L 255.946679 108.931546 
L 259.351194 159.213389 
L 261.053451 166.171951 
L 262.755709 174.381034 
L 264.457966 233.998125 
L 266.160223 202.382559 
L 267.862481 204.3885 
L 269.564738 183.362546 
L 271.266996 163.762575 
L 272.969253 147.61828 
L 274.671511 152.073784 
L 276.373768 152.362645 
L 278.076026 122.75008 
L 279.778283 129.493366 
L 281.480541 131.250018 
L 283.182798 163.315676 
L 284.885056 149.919199 
L 286.587313 162.133594 
L 288.289571 176.180211 
L 289.991828 167.543479 
L 291.694086 148.449852 
L 293.396343 179.481906 
L 295.098601 162.275781 
L 296.800858 180.900399 
L 298.503115 222.35963 
L 300.205373 209.716202 
L 301.90763 193.234835 
L 303.609888 179.669557 
L 305.312145 182.274406 
L 307.014403 145.98218 
L 308.71666 148.001702 
L 310.418918 144.300477 
L 312.121175 105.252664 
L 313.823433 77.122855 
L 315.52569 144.486465 
L 317.227948 153.313094 
L 318.930205 124.83909 
L 320.632463 149.350229 
L 322.33472 187.559925 
L 324.036978 173.514396 
L 325.739235 157.501488 
L 327.441493 177.041688 
L 329.14375 179.452975 
L 330.846007 181.384184 
L 332.548265 205.965074 
L 334.250522 223.258566 
L 335.95278 153.739931 
L 337.655037 196.239449 
L 339.357295 144.019378 
L 341.059552 159.530302 
L 342.76181 112.092112 
L 344.464067 120.001202 
L 346.166325 89.642289 
L 347.868582 93.442012 
L 349.57084 113.374676 
L 351.273097 165.199269 
L 352.975355 156.600386 
L 354.677612 169.021319 
L 356.37987 213.382539 
L 358.082127 186.965748 
L 359.784385 177.534203 
L 361.486642 214.605309 
L 363.188899 162.837421 
L 364.891157 195.858599 
L 366.593414 186.807589 
L 368.295672 190.504679 
L 369.997929 137.226293 
L 371.700187 183.010466 
L 373.402444 149.25726 
L 375.104702 150.085137 
L 376.806959 104.314273 
L 378.509217 129.389277 
L 380.211474 93.466716 
L 381.913732 108.185858 
L 383.615989 126.238163 
L 385.318247 118.782073 
L 388.722762 160.679043 
L 392.127277 189.724901 
L 393.829534 179.56536 
L 395.531791 204.312535 
L 397.234049 150.791131 
L 398.936306 192.479343 
L 400.638564 188.375886 
L 402.340821 181.134812 
L 404.043079 134.953141 
L 405.745336 168.257457 
L 407.447594 175.327554 
L 409.149851 170.206674 
L 410.852109 146.283246 
L 412.554366 149.122033 
L 414.256624 142.103787 
L 415.958881 138.262417 
L 417.661139 142.874291 
L 419.363396 131.397399 
L 421.065654 132.201549 
L 422.767911 184.991853 
L 424.470169 175.855798 
L 426.172426 210.551128 
L 427.874683 173.214379 
L 429.576941 225.50271 
L 431.279198 186.365572 
L 432.981456 180.320702 
L 434.683713 169.84595 
L 436.385971 166.942634 
L 438.088228 152.338373 
L 439.790486 125.366464 
L 441.492743 153.712833 
L 443.195001 117.520092 
L 444.897258 139.752908 
L 446.599516 134.174113 
L 448.301773 143.183789 
L 450.004031 139.277777 
L 451.706288 146.156019 
L 453.408546 159.701562 
L 455.110803 157.911206 
L 456.813061 161.92792 
L 460.217576 187.318598 
L 461.919833 165.885183 
L 463.62209 216.42383 
L 465.324348 202.57662 
L 467.026605 202.182134 
L 468.728863 168.026378 
L 470.43112 166.839707 
L 472.133378 123.723636 
L 473.835635 101.769545 
L 475.537893 115.229167 
L 477.24015 104.721667 
L 478.942408 113.993274 
L 480.644665 173.799913 
L 482.346923 163.390639 
L 484.04918 157.35509 
L 485.751438 171.643286 
L 487.453695 188.460781 
L 489.155953 185.692414 
L 490.85821 159.840392 
L 492.560468 191.795517 
L 494.262725 164.078307 
L 495.964982 180.856631 
L 497.66724 216.991622 
L 499.369497 192.954033 
L 501.071755 151.216497 
L 502.774012 191.101886 
L 504.47627 166.607549 
L 506.178527 128.792922 
L 507.880785 127.111398 
L 509.583042 109.061899 
L 511.2853 93.548219 
L 512.987557 82.19719 
L 514.689815 123.151691 
L 516.392072 142.324915 
L 518.09433 135.26341 
L 519.796587 178.933121 
L 521.498845 205.291411 
L 523.201102 182.883446 
L 524.90336 188.431174 
L 526.605617 203.820323 
L 528.307874 157.000766 
L 530.010132 198.364061 
L 531.712389 203.08187 
L 533.414647 205.191664 
L 535.116904 153.503688 
L 536.819162 184.529764 
L 538.521419 128.599646 
L 540.223677 135.934137 
L 541.925934 99.180807 
L 543.628192 140.255781 
L 545.330449 109.402129 
L 547.032707 107.785663 
L 548.734964 122.802412 
L 550.437222 156.228617 
L 552.139479 147.836728 
L 553.841737 168.144662 
L 555.543994 217.411978 
L 557.246252 175.479857 
L 558.948509 202.226944 
L 560.650766 179.319157 
L 562.353024 172.588034 
L 564.055281 179.943044 
L 565.757539 160.036277 
L 567.459796 179.462375 
L 569.162054 142.911125 
L 570.864311 157.111298 
L 572.566569 181.475902 
L 574.268826 155.699565 
L 575.971084 126.79132 
L 577.673341 148.769713 
L 579.375599 152.070716 
L 581.077856 125.885417 
L 582.780114 129.597697 
L 582.780114 129.597697 
" clip-path="url(#pc686cda74b)" style="fill: none; stroke: #ff0000; stroke-width: 1.5; stroke-linecap: square"/>
   </g>
   <g id="patch_3">
    <path d="M 50.14375 244.078125 
L 50.14375 22.318125 
" style="fill: none; stroke: #000000; stroke-width: 0.8; stroke-linejoin: miter; stroke-linecap: square"/>
   </g>
   <g id="patch_4">
    <path d="M 608.14375 244.078125 
L 608.14375 22.318125 
" style="fill: none; stroke: #000000; stroke-width: 0.8; stroke-linejoin: miter; stroke-linecap: square"/>
   </g>
   <g id="patch_5">
    <path d="M 50.14375 244.078125 
L 608.14375 244.078125 
" style="fill: none; stroke: #000000; stroke-width: 0.8; stroke-linejoin: miter; stroke-linecap: square"/>
   </g>
   <g id="patch_6">
    <path d="M 50.14375 22.318125 
L 608.14375 22.318125 
" style="fill: none; stroke: #000000; stroke-width: 0.8; stroke-linejoin: miter; stroke-linecap: square"/>
   </g>
   <g id="text_19">
    <!-- Task Performance: NARMA2 (validation set) -->
    <g transform="translate(199.271875 16.318125) scale(0.12 -0.12)">
     <defs>
      <path id="DejaVuSans-6b" d="M 581 4863 
L 1159 4863 
L 1159 1991 
L 2875 3500 
L 3609 3500 
L 1753 1863 
L 3688 0 
L 2938 0 
L 1159 1709 
L 1159 0 
L 581 0 
L 581 4863 
z
" transform="scale(0.015625)"/>
      <path id="DejaVuSans-50" d="M 1259 4147 
L 1259 2394 
L 2053 2394 
Q 2494 2394 2734 2622 
Q 2975 2850 2975 3272 
Q 2975 3691 2734 3919 
Q 2494 4147 2053 4147 
L 1259 4147 
z
M 628 4666 
L 2053 4666 
Q 2838 4666 3239 4311 
Q 3641 3956 3641 3272 
Q 3641 2581 3239 2228 
Q 2838 1875 2053 1875 
L 1259 1875 
L 1259 0 
L 628 0 
L 628 4666 
z
" transform="scale(0.015625)"/>
      <path id="DejaVuSans-72" d="M 2631 2963 
Q 2534 3019 2420 3045 
Q 2306 3072 2169 3072 
Q 1681 3072 1420 2755 
Q 1159 2438 1159 1844 
L 1159 0 
L 581 0 
L 581 3500 
L 1159 3500 
L 1159 2956 
Q 1341 3275 1631 3429 
Q 1922 3584 2338 3584 
Q 2397 3584 2469 3576 
Q 2541 3569 2628 3553 
L 2631 2963 
z
" transform="scale(0.015625)"/>
      <path id="DejaVuSans-66" d="M 2375 4863 
L 2375 4384 
L 1825 4384 
Q 1516 4384 1395 4259 
Q 1275 4134 1275 3809 
L 1275 3500 
L 2222 3500 
L 2222 3053 
L 1275 3053 
L 1275 0 
L 697 0 
L 697 3053 
L 147 3053 
L 147 3500 
L 697 3500 
L 697 3744 
Q 697 4328 969 4595 
Q 1241 4863 1831 4863 
L 2375 4863 
z
" transform="scale(0.015625)"/>
      <path id="DejaVuSans-6f" d="M 1959 3097 
Q 1497 3097 1228 2736 
Q 959 2375 959 1747 
Q 959 1119 1226 758 
Q 1494 397 1959 397 
Q 2419 397 2687 759 
Q 2956 1122 2956 1747 
Q 2956 2369 2687 2733 
Q 2419 3097 1959 3097 
z
M 1959 3584 
Q 2709 3584 3137 3096 
Q 3566 2609 3566 1747 
Q 3566 888 3137 398 
Q 2709 -91 1959 -91 
Q 1206 -91 779 398 
Q 353 888 353 1747 
Q 353 2609 779 3096 
Q 1206 3584 1959 3584 
z
" transform="scale(0.015625)"/>
      <path id="DejaVuSans-63" d="M 3122 3366 
L 3122 2828 
Q 2878 2963 2633 3030 
Q 2388 3097 2138 3097 
Q 1578 3097 1268 2742 
Q 959 2388 959 1747 
Q 959 1106 1268 751 
Q 1578 397 2138 397 
Q 2388 397 2633 464 
Q 2878 531 3122 666 
L 3122 134 
Q 2881 22 2623 -34 
Q 2366 -91 2075 -91 
Q 1284 -91 818 406 
Q 353 903 353 1747 
Q 353 2603 823 3093 
Q 1294 3584 2113 3584 
Q 2378 3584 2631 3529 
Q 2884 3475 3122 3366 
z
" transform="scale(0.015625)"/>
      <path id="DejaVuSans-3a" d="M 750 794 
L 1409 794 
L 1409 0 
L 750 0 
L 750 794 
z
M 750 3309 
L 1409 3309 
L 1409 2516 
L 750 2516 
L 750 3309 
z
" transform="scale(0.015625)"/>
      <path id="DejaVuSans-4e" d="M 628 4666 
L 1478 4666 
L 3547 763 
L 3547 4666 
L 4159 4666 
L 4159 0 
L 3309 0 
L 1241 3903 
L 1241 0 
L 628 0 
L 628 4666 
z
" transform="scale(0.015625)"/>
      <path id="DejaVuSans-41" d="M 2188 4044 
L 1331 1722 
L 3047 1722 
L 2188 4044 
z
M 1831 4666 
L 2547 4666 
L 4325 0 
L 3669 0 
L 3244 1197 
L 1141 1197 
L 716 0 
L 50 0 
L 1831 4666 
z
" transform="scale(0.015625)"/>
      <path id="DejaVuSans-52" d="M 2841 2188 
Q 3044 2119 3236 1894 
Q 3428 1669 3622 1275 
L 4263 0 
L 3584 0 
L 2988 1197 
Q 2756 1666 2539 1819 
Q 2322 1972 1947 1972 
L 1259 1972 
L 1259 0 
L 628 0 
L 628 4666 
L 2053 4666 
Q 2853 4666 3247 4331 
Q 3641 3997 3641 3322 
Q 3641 2881 3436 2590 
Q 3231 2300 2841 2188 
z
M 1259 4147 
L 1259 2491 
L 2053 2491 
Q 2509 2491 2742 2702 
Q 2975 2913 2975 3322 
Q 2975 3731 2742 3939 
Q 2509 4147 2053 4147 
L 1259 4147 
z
" transform="scale(0.015625)"/>
      <path id="DejaVuSans-4d" d="M 628 4666 
L 1569 4666 
L 2759 1491 
L 3956 4666 
L 4897 4666 
L 4897 0 
L 4281 0 
L 4281 4097 
L 3078 897 
L 2444 897 
L 1241 4097 
L 1241 0 
L 628 0 
L 628 4666 
z
" transform="scale(0.015625)"/>
      <path id="DejaVuSans-28" d="M 1984 4856 
Q 1566 4138 1362 3434 
Q 1159 2731 1159 2009 
Q 1159 1288 1364 580 
Q 1569 -128 1984 -844 
L 1484 -844 
Q 1016 -109 783 600 
Q 550 1309 550 2009 
Q 550 2706 781 3412 
Q 1013 4119 1484 4856 
L 1984 4856 
z
" transform="scale(0.015625)"/>
      <path id="DejaVuSans-76" d="M 191 3500 
L 800 3500 
L 1894 563 
L 2988 3500 
L 3597 3500 
L 2284 0 
L 1503 0 
L 191 3500 
z
" transform="scale(0.015625)"/>
      <path id="DejaVuSans-64" d="M 2906 2969 
L 2906 4863 
L 3481 4863 
L 3481 0 
L 2906 0 
L 2906 525 
Q 2725 213 2448 61 
Q 2172 -91 1784 -91 
Q 1150 -91 751 415 
Q 353 922 353 1747 
Q 353 2572 751 3078 
Q 1150 3584 1784 3584 
Q 2172 3584 2448 3432 
Q 2725 3281 2906 2969 
z
M 947 1747 
Q 947 1113 1208 752 
Q 1469 391 1925 391 
Q 2381 391 2643 752 
Q 2906 1113 2906 1747 
Q 2906 2381 2643 2742 
Q 2381 3103 1925 3103 
Q 1469 3103 1208 2742 
Q 947 2381 947 1747 
z
" transform="scale(0.015625)"/>
      <path id="DejaVuSans-29" d="M 513 4856 
L 1013 4856 
Q 1481 4119 1714 3412 
Q 1947 2706 1947 2009 
Q 1947 1309 1714 600 
Q 1481 -109 1013 -844 
L 513 -844 
Q 928 -128 1133 580 
Q 1338 1288 1338 2009 
Q 1338 2731 1133 3434 
Q 928 4138 513 4856 
z
" transform="scale(0.015625)"/>
     </defs>
     <use xlink:href="#DejaVuSans-54"/>
     <use xlink:href="#DejaVuSans-61" transform="translate(44.583984 0)"/>
     <use xlink:href="#DejaVuSans-73" transform="translate(105.863281 0)"/>
     <use xlink:href="#DejaVuSans-6b" transform="translate(157.962891 0)"/>
     <use xlink:href="#DejaVuSans-20" transform="translate(215.873047 0)"/>
     <use xlink:href="#DejaVuSans-50" transform="translate(247.660156 0)"/>
     <use xlink:href="#DejaVuSans-65" transform="translate(304.337891 0)"/>
     <use xlink:href="#DejaVuSans-72" transform="translate(365.861328 0)"/>
     <use xlink:href="#DejaVuSans-66" transform="translate(406.974609 0)"/>
     <use xlink:href="#DejaVuSans-6f" transform="translate(442.179688 0)"/>
     <use xlink:href="#DejaVuSans-72" transform="translate(503.361328 0)"/>
     <use xlink:href="#DejaVuSans-6d" transform="translate(542.724609 0)"/>
     <use xlink:href="#DejaVuSans-61" transform="translate(640.136719 0)"/>
     <use xlink:href="#DejaVuSans-6e" transform="translate(701.416016 0)"/>
     <use xlink:href="#DejaVuSans-63" transform="translate(764.794922 0)"/>
     <use xlink:href="#DejaVuSans-65" transform="translate(819.775391 0)"/>
     <use xlink:href="#DejaVuSans-3a" transform="translate(881.298828 0)"/>
     <use xlink:href="#DejaVuSans-20" transform="translate(914.990234 0)"/>
     <use xlink:href="#DejaVuSans-4e" transform="translate(946.777344 0)"/>
     <use xlink:href="#DejaVuSans-41" transform="translate(1021.582031 0)"/>
     <use xlink:href="#DejaVuSans-52" transform="translate(1089.990234 0)"/>
     <use xlink:href="#DejaVuSans-4d" transform="translate(1159.472656 0)"/>
     <use xlink:href="#DejaVuSans-41" transform="translate(1245.751953 0)"/>
     <use xlink:href="#DejaVuSans-32" transform="translate(1314.160156 0)"/>
     <use xlink:href="#DejaVuSans-20" transform="translate(1377.783203 0)"/>
     <use xlink:href="#DejaVuSans-28" transform="translate(1409.570312 0)"/>
     <use xlink:href="#DejaVuSans-76" transform="translate(1448.583984 0)"/>
     <use xlink:href="#DejaVuSans-61" transform="translate(1507.763672 0)"/>
     <use xlink:href="#DejaVuSans-6c" transform="translate(1569.042969 0)"/>
     <use xlink:href="#DejaVuSans-69" transform="translate(1596.826172 0)"/>
     <use xlink:href="#DejaVuSans-64" transform="translate(1624.609375 0)"/>
     <use xlink:href="#DejaVuSans-61" transform="translate(1688.085938 0)"/>
     <use xlink:href="#DejaVuSans-74" transform="translate(1749.365234 0)"/>
     <use xlink:href="#DejaVuSans-69" transform="translate(1788.574219 0)"/>
     <use xlink:href="#DejaVuSans-6f" transform="translate(1816.357422 0)"/>
     <use xlink:href="#DejaVuSans-6e" transform="translate(1877.539062 0)"/>
     <use xlink:href="#DejaVuSans-20" transform="translate(1940.917969 0)"/>
     <use xlink:href="#DejaVuSans-73" transform="translate(1972.705078 0)"/>
     <use xlink:href="#DejaVuSans-65" transform="translate(2024.804688 0)"/>
     <use xlink:href="#DejaVuSans-74" transform="translate(2086.328125 0)"/>
     <use xlink:href="#DejaVuSans-29" transform="translate(2125.537109 0)"/>
    </g>
   </g>
   <g id="legend_1">
    <g id="patch_7">
     <path d="M 519.470312 59.674375 
L 601.14375 59.674375 
Q 603.14375 59.674375 603.14375 57.674375 
L 603.14375 29.318125 
Q 603.14375 27.318125 601.14375 27.318125 
L 519.470312 27.318125 
Q 517.470312 27.318125 517.470312 29.318125 
L 517.470312 57.674375 
Q 517.470312 59.674375 519.470312 59.674375 
z
" style="fill: #ffffff; opacity: 0.8; stroke: #cccccc; stroke-linejoin: miter"/>
    </g>
    <g id="line2d_35">
     <path d="M 521.470312 35.416562 
L 531.470312 35.416562 
L 541.470312 35.416562 
" style="fill: none; stroke-dasharray: 5.55,2.4; stroke-dashoffset: 0; stroke: #008000; stroke-width: 1.5"/>
    </g>
    <g id="text_20">
     <!-- Target -->
     <g transform="translate(549.470312 38.916562) scale(0.1 -0.1)">
      <use xlink:href="#DejaVuSans-54"/>
      <use xlink:href="#DejaVuSans-61" transform="translate(44.583984 0)"/>
      <use xlink:href="#DejaVuSans-72" transform="translate(105.863281 0)"/>
      <use xlink:href="#DejaVuSans-67" transform="translate(145.226562 0)"/>
      <use xlink:href="#DejaVuSans-65" transform="translate(208.703125 0)"/>
      <use xlink:href="#DejaVuSans-74" transform="translate(270.226562 0)"/>
     </g>
    </g>
    <g id="line2d_36">
     <path d="M 521.470312 50.094687 
L 531.470312 50.094687 
L 541.470312 50.094687 
" style="fill: none; stroke: #ff0000; stroke-width: 1.5; stroke-linecap: square"/>
    </g>
    <g id="text_21">
     <!-- Prediction -->
     <g transform="translate(549.470312 53.594687) scale(0.1 -0.1)">
      <use xlink:href="#DejaVuSans-50"/>
      <use xlink:href="#DejaVuSans-72" transform="translate(58.552734 0)"/>
      <use xlink:href="#DejaVuSans-65" transform="translate(97.416016 0)"/>
      <use xlink:href="#DejaVuSans-64" transform="translate(158.939453 0)"/>
      <use xlink:href="#DejaVuSans-69" transform="translate(222.416016 0)"/>
      <use xlink:href="#DejaVuSans-63" transform="translate(250.199219 0)"/>
      <use xlink:href="#DejaVuSans-74" transform="translate(305.179688 0)"/>
      <use xlink:href="#DejaVuSans-69" transform="translate(344.388672 0)"/>
      <use xlink:href="#DejaVuSans-6f" transform="translate(372.171875 0)"/>
      <use xlink:href="#DejaVuSans-6e" transform="translate(433.353516 0)"/>
     </g>
    </g>
   </g>
  </g>
 </g>
 <defs>
  <clipPath id="pc686cda74b">
   <rect x="50.14375" y="22.318125" width="558" height="221.76"/>
  </clipPath>
 </defs>
</svg>
