<?xml version="1.0" encoding="utf-8" standalone="no"?>
<!DOCTYPE svg PUBLIC "-//W3C//DTD SVG 1.1//EN"
  "http://www.w3.org/Graphics/SVG/1.1/DTD/svg11.dtd">
<svg xmlns:xlink="http://www.w3.org/1999/xlink" width="615.34375pt" height="281.634375pt" viewBox="0 0 615.34375 281.634375" xmlns="http://www.w3.org/2000/svg" version="1.1">
 <metadata>
  <rdf:RDF xmlns:dc="http://purl.org/dc/elements/1.1/" xmlns:cc="http://creativecommons.org/ns#" xmlns:rdf="http://www.w3.org/1999/02/22-rdf-syntax-ns#">
   <cc:Work>
    <dc:type rdf:resource="http://purl.org/dc/dcmitype/StillImage"/>
    <dc:date>2026-03-19T17:23:03.282734</dc:date>
    <dc:format>image/svg+xml</dc:format>
    <dc:creator>
     <cc:Agent>
      <dc:title>Matplotlib v3.10.8, https://matplotlib.org/</dc:title>
     </cc:Agent>
    </dc:creator>
   </cc:Work>
  </rdf:RDF>
 </metadata>
 <defs>
  <style type="text/css">*{stroke-linejoin: round; stroke-linecap: butt}</style>
 </defs>
 <g id="figure_1">
  <g id="patch_1">
   <path d="M 0 281.634375 
L 615.34375 281.634375 
L 615.34375 0 
L 0 0 
z
" style="fill: #ffffff"/>
  </g>
  <g id="axes_1">
   <g id="patch_2">
    <path d="M 50.14375 244.078125 
L 608.14375 244.078125 
L 608.14375 22.318125 
L 50.14375 22.318125 
z
" style="fill: #ffffff"/>
   </g>
   <g id="matplotlib.axis_1">
    <g id="xtick_1">
     <g id="line2d_1">
      <path d="M 75.507386 244.078125 
L 75.507386 22.318125 
" clip-path="url(#p650ddae0c8)" style="fill: none; stroke: #b0b0b0; stroke-opacity: 0.3; stroke-width: 0.8; stroke-linecap: square"/>
     </g>
     <g id="line2d_2">
      <defs>
       <path id="m2aa9547a14" d="M 0 0 
L 0 3.5 
" style="stroke: #000000; stroke-width: 0.8"/>
      </defs>
      <g>
       <use xlink:href="#m2aa9547a14" x="75.507386" y="244.078125" style="stroke: #000000; stroke-width: 0.8"/>
      </g>
     </g>
     <g id="text_1">
      <!-- 0 -->
      <g transform="translate(72.326136 258.676562) scale(0.1 -0.1)">
       <defs>
        <path id="DejaVuSans-30" d="M 2034 4250 
Q 1547 4250 1301 3770 
Q 1056 3291 1056 2328 
Q 1056 1369 1301 889 
Q 1547 409 2034 409 
Q 2525 409 2770 889 
Q 3016 1369 3016 2328 
Q 3016 3291 2770 3770 
Q 2525 4250 2034 4250 
z
M 2034 4750 
Q 2819 4750 3233 4129 
Q 3647 3509 3647 2328 
Q 3647 1150 3233 529 
Q 2819 -91 2034 -91 
Q 1250 -91 836 529 
Q 422 1150 422 2328 
Q 422 3509 836 4129 
Q 1250 4750 2034 4750 
z
" transform="scale(0.015625)"/>
       </defs>
       <use xlink:href="#DejaVuSans-30"/>
      </g>
     </g>
    </g>
    <g id="xtick_2">
     <g id="line2d_3">
      <path d="M 160.62026 244.078125 
L 160.62026 22.318125 
" clip-path="url(#p650ddae0c8)" style="fill: none; stroke: #b0b0b0; stroke-opacity: 0.3; stroke-width: 0.8; stroke-linecap: square"/>
     </g>
     <g id="line2d_4">
      <g>
       <use xlink:href="#m2aa9547a14" x="160.62026" y="244.078125" style="stroke: #000000; stroke-width: 0.8"/>
      </g>
     </g>
     <g id="text_2">
      <!-- 50 -->
      <g transform="translate(154.25776 258.676562) scale(0.1 -0.1)">
       <defs>
        <path id="DejaVuSans-35" d="M 691 4666 
L 3169 4666 
L 3169 4134 
L 1269 4134 
L 1269 2991 
Q 1406 3038 1543 3061 
Q 1681 3084 1819 3084 
Q 2600 3084 3056 2656 
Q 3513 2228 3513 1497 
Q 3513 744 3044 326 
Q 2575 -91 1722 -91 
Q 1428 -91 1123 -41 
Q 819 9 494 109 
L 494 744 
Q 775 591 1075 516 
Q 1375 441 1709 441 
Q 2250 441 2565 725 
Q 2881 1009 2881 1497 
Q 2881 1984 2565 2268 
Q 2250 2553 1709 2553 
Q 1456 2553 1204 2497 
Q 953 2441 691 2322 
L 691 4666 
z
" transform="scale(0.015625)"/>
       </defs>
       <use xlink:href="#DejaVuSans-35"/>
       <use xlink:href="#DejaVuSans-30" transform="translate(63.623047 0)"/>
      </g>
     </g>
    </g>
    <g id="xtick_3">
     <g id="line2d_5">
      <path d="M 245.733134 244.078125 
L 245.733134 22.318125 
" clip-path="url(#p650ddae0c8)" style="fill: none; stroke: #b0b0b0; stroke-opacity: 0.3; stroke-width: 0.8; stroke-linecap: square"/>
     </g>
     <g id="line2d_6">
      <g>
       <use xlink:href="#m2aa9547a14" x="245.733134" y="244.078125" style="stroke: #000000; stroke-width: 0.8"/>
      </g>
     </g>
     <g id="text_3">
      <!-- 100 -->
      <g transform="translate(236.189384 258.676562) scale(0.1 -0.1)">
       <defs>
        <path id="DejaVuSans-31" d="M 794 531 
L 1825 531 
L 1825 4091 
L 703 3866 
L 703 4441 
L 1819 4666 
L 2450 4666 
L 2450 531 
L 3481 531 
L 3481 0 
L 794 0 
L 794 531 
z
" transform="scale(0.015625)"/>
       </defs>
       <use xlink:href="#DejaVuSans-31"/>
       <use xlink:href="#DejaVuSans-30" transform="translate(63.623047 0)"/>
       <use xlink:href="#DejaVuSans-30" transform="translate(127.246094 0)"/>
      </g>
     </g>
    </g>
    <g id="xtick_4">
     <g id="line2d_7">
      <path d="M 330.846007 244.078125 
L 330.846007 22.318125 
" clip-path="url(#p650ddae0c8)" style="fill: none; stroke: #b0b0b0; stroke-opacity: 0.3; stroke-width: 0.8; stroke-linecap: square"/>
     </g>
     <g id="line2d_8">
      <g>
       <use xlink:href="#m2aa9547a14" x="330.846007" y="244.078125" style="stroke: #000000; stroke-width: 0.8"/>
      </g>
     </g>
     <g id="text_4">
      <!-- 150 -->
      <g transform="translate(321.302257 258.676562) scale(0.1 -0.1)">
       <use xlink:href="#DejaVuSans-31"/>
       <use xlink:href="#DejaVuSans-35" transform="translate(63.623047 0)"/>
       <use xlink:href="#DejaVuSans-30" transform="translate(127.246094 0)"/>
      </g>
     </g>
    </g>
    <g id="xtick_5">
     <g id="line2d_9">
      <path d="M 415.958881 244.078125 
L 415.958881 22.318125 
" clip-path="url(#p650ddae0c8)" style="fill: none; stroke: #b0b0b0; stroke-opacity: 0.3; stroke-width: 0.8; stroke-linecap: square"/>
     </g>
     <g id="line2d_10">
      <g>
       <use xlink:href="#m2aa9547a14" x="415.958881" y="244.078125" style="stroke: #000000; stroke-width: 0.8"/>
      </g>
     </g>
     <g id="text_5">
      <!-- 200 -->
      <g transform="translate(406.415131 258.676562) scale(0.1 -0.1)">
       <defs>
        <path id="DejaVuSans-32" d="M 1228 531 
L 3431 531 
L 3431 0 
L 469 0 
L 469 531 
Q 828 903 1448 1529 
Q 2069 2156 2228 2338 
Q 2531 2678 2651 2914 
Q 2772 3150 2772 3378 
Q 2772 3750 2511 3984 
Q 2250 4219 1831 4219 
Q 1534 4219 1204 4116 
Q 875 4013 500 3803 
L 500 4441 
Q 881 4594 1212 4672 
Q 1544 4750 1819 4750 
Q 2544 4750 2975 4387 
Q 3406 4025 3406 3419 
Q 3406 3131 3298 2873 
Q 3191 2616 2906 2266 
Q 2828 2175 2409 1742 
Q 1991 1309 1228 531 
z
" transform="scale(0.015625)"/>
       </defs>
       <use xlink:href="#DejaVuSans-32"/>
       <use xlink:href="#DejaVuSans-30" transform="translate(63.623047 0)"/>
       <use xlink:href="#DejaVuSans-30" transform="translate(127.246094 0)"/>
      </g>
     </g>
    </g>
    <g id="xtick_6">
     <g id="line2d_11">
      <path d="M 501.071755 244.078125 
L 501.071755 22.318125 
" clip-path="url(#p650ddae0c8)" style="fill: none; stroke: #b0b0b0; stroke-opacity: 0.3; stroke-width: 0.8; stroke-linecap: square"/>
     </g>
     <g id="line2d_12">
      <g>
       <use xlink:href="#m2aa9547a14" x="501.071755" y="244.078125" style="stroke: #000000; stroke-width: 0.8"/>
      </g>
     </g>
     <g id="text_6">
      <!-- 250 -->
      <g transform="translate(491.528005 258.676562) scale(0.1 -0.1)">
       <use xlink:href="#DejaVuSans-32"/>
       <use xlink:href="#DejaVuSans-35" transform="translate(63.623047 0)"/>
       <use xlink:href="#DejaVuSans-30" transform="translate(127.246094 0)"/>
      </g>
     </g>
    </g>
    <g id="xtick_7">
     <g id="line2d_13">
      <path d="M 586.184629 244.078125 
L 586.184629 22.318125 
" clip-path="url(#p650ddae0c8)" style="fill: none; stroke: #b0b0b0; stroke-opacity: 0.3; stroke-width: 0.8; stroke-linecap: square"/>
     </g>
     <g id="line2d_14">
      <g>
       <use xlink:href="#m2aa9547a14" x="586.184629" y="244.078125" style="stroke: #000000; stroke-width: 0.8"/>
      </g>
     </g>
     <g id="text_7">
      <!-- 300 -->
      <g transform="translate(576.640879 258.676562) scale(0.1 -0.1)">
       <defs>
        <path id="DejaVuSans-33" d="M 2597 2516 
Q 3050 2419 3304 2112 
Q 3559 1806 3559 1356 
Q 3559 666 3084 287 
Q 2609 -91 1734 -91 
Q 1441 -91 1130 -33 
Q 819 25 488 141 
L 488 750 
Q 750 597 1062 519 
Q 1375 441 1716 441 
Q 2309 441 2620 675 
Q 2931 909 2931 1356 
Q 2931 1769 2642 2001 
Q 2353 2234 1838 2234 
L 1294 2234 
L 1294 2753 
L 1863 2753 
Q 2328 2753 2575 2939 
Q 2822 3125 2822 3475 
Q 2822 3834 2567 4026 
Q 2313 4219 1838 4219 
Q 1578 4219 1281 4162 
Q 984 4106 628 3988 
L 628 4550 
Q 988 4650 1302 4700 
Q 1616 4750 1894 4750 
Q 2613 4750 3031 4423 
Q 3450 4097 3450 3541 
Q 3450 3153 3228 2886 
Q 3006 2619 2597 2516 
z
" transform="scale(0.015625)"/>
       </defs>
       <use xlink:href="#DejaVuSans-33"/>
       <use xlink:href="#DejaVuSans-30" transform="translate(63.623047 0)"/>
       <use xlink:href="#DejaVuSans-30" transform="translate(127.246094 0)"/>
      </g>
     </g>
    </g>
    <g id="text_8">
     <!-- Time Steps -->
     <g transform="translate(301.33125 272.354687) scale(0.1 -0.1)">
      <defs>
       <path id="DejaVuSans-54" d="M -19 4666 
L 3928 4666 
L 3928 4134 
L 2272 4134 
L 2272 0 
L 1638 0 
L 1638 4134 
L -19 4134 
L -19 4666 
z
" transform="scale(0.015625)"/>
       <path id="DejaVuSans-69" d="M 603 3500 
L 1178 3500 
L 1178 0 
L 603 0 
L 603 3500 
z
M 603 4863 
L 1178 4863 
L 1178 4134 
L 603 4134 
L 603 4863 
z
" transform="scale(0.015625)"/>
       <path id="DejaVuSans-6d" d="M 3328 2828 
Q 3544 3216 3844 3400 
Q 4144 3584 4550 3584 
Q 5097 3584 5394 3201 
Q 5691 2819 5691 2113 
L 5691 0 
L 5113 0 
L 5113 2094 
Q 5113 2597 4934 2840 
Q 4756 3084 4391 3084 
Q 3944 3084 3684 2787 
Q 3425 2491 3425 1978 
L 3425 0 
L 2847 0 
L 2847 2094 
Q 2847 2600 2669 2842 
Q 2491 3084 2119 3084 
Q 1678 3084 1418 2786 
Q 1159 2488 1159 1978 
L 1159 0 
L 581 0 
L 581 3500 
L 1159 3500 
L 1159 2956 
Q 1356 3278 1631 3431 
Q 1906 3584 2284 3584 
Q 2666 3584 2933 3390 
Q 3200 3197 3328 2828 
z
" transform="scale(0.015625)"/>
       <path id="DejaVuSans-65" d="M 3597 1894 
L 3597 1613 
L 953 1613 
Q 991 1019 1311 708 
Q 1631 397 2203 397 
Q 2534 397 2845 478 
Q 3156 559 3463 722 
L 3463 178 
Q 3153 47 2828 -22 
Q 2503 -91 2169 -91 
Q 1331 -91 842 396 
Q 353 884 353 1716 
Q 353 2575 817 3079 
Q 1281 3584 2069 3584 
Q 2775 3584 3186 3129 
Q 3597 2675 3597 1894 
z
M 3022 2063 
Q 3016 2534 2758 2815 
Q 2500 3097 2075 3097 
Q 1594 3097 1305 2825 
Q 1016 2553 972 2059 
L 3022 2063 
z
" transform="scale(0.015625)"/>
       <path id="DejaVuSans-20" transform="scale(0.015625)"/>
       <path id="DejaVuSans-53" d="M 3425 4513 
L 3425 3897 
Q 3066 4069 2747 4153 
Q 2428 4238 2131 4238 
Q 1616 4238 1336 4038 
Q 1056 3838 1056 3469 
Q 1056 3159 1242 3001 
Q 1428 2844 1947 2747 
L 2328 2669 
Q 3034 2534 3370 2195 
Q 3706 1856 3706 1288 
Q 3706 609 3251 259 
Q 2797 -91 1919 -91 
Q 1588 -91 1214 -16 
Q 841 59 441 206 
L 441 856 
Q 825 641 1194 531 
Q 1563 422 1919 422 
Q 2459 422 2753 634 
Q 3047 847 3047 1241 
Q 3047 1584 2836 1778 
Q 2625 1972 2144 2069 
L 1759 2144 
Q 1053 2284 737 2584 
Q 422 2884 422 3419 
Q 422 4038 858 4394 
Q 1294 4750 2059 4750 
Q 2388 4750 2728 4690 
Q 3069 4631 3425 4513 
z
" transform="scale(0.015625)"/>
       <path id="DejaVuSans-74" d="M 1172 4494 
L 1172 3500 
L 2356 3500 
L 2356 3053 
L 1172 3053 
L 1172 1153 
Q 1172 725 1289 603 
Q 1406 481 1766 481 
L 2356 481 
L 2356 0 
L 1766 0 
Q 1100 0 847 248 
Q 594 497 594 1153 
L 594 3053 
L 172 3053 
L 172 3500 
L 594 3500 
L 594 4494 
L 1172 4494 
z
" transform="scale(0.015625)"/>
       <path id="DejaVuSans-70" d="M 1159 525 
L 1159 -1331 
L 581 -1331 
L 581 3500 
L 1159 3500 
L 1159 2969 
Q 1341 3281 1617 3432 
Q 1894 3584 2278 3584 
Q 2916 3584 3314 3078 
Q 3713 2572 3713 1747 
Q 3713 922 3314 415 
Q 2916 -91 2278 -91 
Q 1894 -91 1617 61 
Q 1341 213 1159 525 
z
M 3116 1747 
Q 3116 2381 2855 2742 
Q 2594 3103 2138 3103 
Q 1681 3103 1420 2742 
Q 1159 2381 1159 1747 
Q 1159 1113 1420 752 
Q 1681 391 2138 391 
Q 2594 391 2855 752 
Q 3116 1113 3116 1747 
z
" transform="scale(0.015625)"/>
       <path id="DejaVuSans-73" d="M 2834 3397 
L 2834 2853 
Q 2591 2978 2328 3040 
Q 2066 3103 1784 3103 
Q 1356 3103 1142 2972 
Q 928 2841 928 2578 
Q 928 2378 1081 2264 
Q 1234 2150 1697 2047 
L 1894 2003 
Q 2506 1872 2764 1633 
Q 3022 1394 3022 966 
Q 3022 478 2636 193 
Q 2250 -91 1575 -91 
Q 1294 -91 989 -36 
Q 684 19 347 128 
L 347 722 
Q 666 556 975 473 
Q 1284 391 1588 391 
Q 1994 391 2212 530 
Q 2431 669 2431 922 
Q 2431 1156 2273 1281 
Q 2116 1406 1581 1522 
L 1381 1569 
Q 847 1681 609 1914 
Q 372 2147 372 2553 
Q 372 3047 722 3315 
Q 1072 3584 1716 3584 
Q 2034 3584 2315 3537 
Q 2597 3491 2834 3397 
z
" transform="scale(0.015625)"/>
      </defs>
      <use xlink:href="#DejaVuSans-54"/>
      <use xlink:href="#DejaVuSans-69" transform="translate(57.958984 0)"/>
      <use xlink:href="#DejaVuSans-6d" transform="translate(85.742188 0)"/>
      <use xlink:href="#DejaVuSans-65" transform="translate(183.154297 0)"/>
      <use xlink:href="#DejaVuSans-20" transform="translate(244.677734 0)"/>
      <use xlink:href="#DejaVuSans-53" transform="translate(276.464844 0)"/>
      <use xlink:href="#DejaVuSans-74" transform="translate(339.941406 0)"/>
      <use xlink:href="#DejaVuSans-65" transform="translate(379.150391 0)"/>
      <use xlink:href="#DejaVuSans-70" transform="translate(440.673828 0)"/>
      <use xlink:href="#DejaVuSans-73" transform="translate(504.150391 0)"/>
     </g>
    </g>
   </g>
   <g id="matplotlib.axis_2">
    <g id="ytick_1">
     <g id="line2d_15">
      <path d="M 50.14375 205.119419 
L 608.14375 205.119419 
" clip-path="url(#p650ddae0c8)" style="fill: none; stroke: #b0b0b0; stroke-opacity: 0.3; stroke-width: 0.8; stroke-linecap: square"/>
     </g>
     <g id="line2d_16">
      <defs>
       <path id="m19132ae026" d="M 0 0 
L -3.5 0 
" style="stroke: #000000; stroke-width: 0.8"/>
      </defs>
      <g>
       <use xlink:href="#m19132ae026" x="50.14375" y="205.119419" style="stroke: #000000; stroke-width: 0.8"/>
      </g>
     </g>
     <g id="text_9">
      <!-- 0.20 -->
      <g transform="translate(20.878125 208.918638) scale(0.1 -0.1)">
       <defs>
        <path id="DejaVuSans-2e" d="M 684 794 
L 1344 794 
L 1344 0 
L 684 0 
L 684 794 
z
" transform="scale(0.015625)"/>
       </defs>
       <use xlink:href="#DejaVuSans-30"/>
       <use xlink:href="#DejaVuSans-2e" transform="translate(63.623047 0)"/>
       <use xlink:href="#DejaVuSans-32" transform="translate(95.410156 0)"/>
       <use xlink:href="#DejaVuSans-30" transform="translate(159.033203 0)"/>
      </g>
     </g>
    </g>
    <g id="ytick_2">
     <g id="line2d_17">
      <path d="M 50.14375 156.192761 
L 608.14375 156.192761 
" clip-path="url(#p650ddae0c8)" style="fill: none; stroke: #b0b0b0; stroke-opacity: 0.3; stroke-width: 0.8; stroke-linecap: square"/>
     </g>
     <g id="line2d_18">
      <g>
       <use xlink:href="#m19132ae026" x="50.14375" y="156.192761" style="stroke: #000000; stroke-width: 0.8"/>
      </g>
     </g>
     <g id="text_10">
      <!-- 0.25 -->
      <g transform="translate(20.878125 159.991979) scale(0.1 -0.1)">
       <use xlink:href="#DejaVuSans-30"/>
       <use xlink:href="#DejaVuSans-2e" transform="translate(63.623047 0)"/>
       <use xlink:href="#DejaVuSans-32" transform="translate(95.410156 0)"/>
       <use xlink:href="#DejaVuSans-35" transform="translate(159.033203 0)"/>
      </g>
     </g>
    </g>
    <g id="ytick_3">
     <g id="line2d_19">
      <path d="M 50.14375 107.266102 
L 608.14375 107.266102 
" clip-path="url(#p650ddae0c8)" style="fill: none; stroke: #b0b0b0; stroke-opacity: 0.3; stroke-width: 0.8; stroke-linecap: square"/>
     </g>
     <g id="line2d_20">
      <g>
       <use xlink:href="#m19132ae026" x="50.14375" y="107.266102" style="stroke: #000000; stroke-width: 0.8"/>
      </g>
     </g>
     <g id="text_11">
      <!-- 0.30 -->
      <g transform="translate(20.878125 111.065321) scale(0.1 -0.1)">
       <use xlink:href="#DejaVuSans-30"/>
       <use xlink:href="#DejaVuSans-2e" transform="translate(63.623047 0)"/>
       <use xlink:href="#DejaVuSans-33" transform="translate(95.410156 0)"/>
       <use xlink:href="#DejaVuSans-30" transform="translate(159.033203 0)"/>
      </g>
     </g>
    </g>
    <g id="ytick_4">
     <g id="line2d_21">
      <path d="M 50.14375 58.339443 
L 608.14375 58.339443 
" clip-path="url(#p650ddae0c8)" style="fill: none; stroke: #b0b0b0; stroke-opacity: 0.3; stroke-width: 0.8; stroke-linecap: square"/>
     </g>
     <g id="line2d_22">
      <g>
       <use xlink:href="#m19132ae026" x="50.14375" y="58.339443" style="stroke: #000000; stroke-width: 0.8"/>
      </g>
     </g>
     <g id="text_12">
      <!-- 0.35 -->
      <g transform="translate(20.878125 62.138662) scale(0.1 -0.1)">
       <use xlink:href="#DejaVuSans-30"/>
       <use xlink:href="#DejaVuSans-2e" transform="translate(63.623047 0)"/>
       <use xlink:href="#DejaVuSans-33" transform="translate(95.410156 0)"/>
       <use xlink:href="#DejaVuSans-35" transform="translate(159.033203 0)"/>
      </g>
     </g>
    </g>
    <g id="text_13">
     <!-- Signal Value -->
     <g transform="translate(14.798437 163.877812) rotate(-90) scale(0.1 -0.1)">
      <defs>
       <path id="DejaVuSans-67" d="M 2906 1791 
Q 2906 2416 2648 2759 
Q 2391 3103 1925 3103 
Q 1463 3103 1205 2759 
Q 947 2416 947 1791 
Q 947 1169 1205 825 
Q 1463 481 1925 481 
Q 2391 481 2648 825 
Q 2906 1169 2906 1791 
z
M 3481 434 
Q 3481 -459 3084 -895 
Q 2688 -1331 1869 -1331 
Q 1566 -1331 1297 -1286 
Q 1028 -1241 775 -1147 
L 775 -588 
Q 1028 -725 1275 -790 
Q 1522 -856 1778 -856 
Q 2344 -856 2625 -561 
Q 2906 -266 2906 331 
L 2906 616 
Q 2728 306 2450 153 
Q 2172 0 1784 0 
Q 1141 0 747 490 
Q 353 981 353 1791 
Q 353 2603 747 3093 
Q 1141 3584 1784 3584 
Q 2172 3584 2450 3431 
Q 2728 3278 2906 2969 
L 2906 3500 
L 3481 3500 
L 3481 434 
z
" transform="scale(0.015625)"/>
       <path id="DejaVuSans-6e" d="M 3513 2113 
L 3513 0 
L 2938 0 
L 2938 2094 
Q 2938 2591 2744 2837 
Q 2550 3084 2163 3084 
Q 1697 3084 1428 2787 
Q 1159 2491 1159 1978 
L 1159 0 
L 581 0 
L 581 3500 
L 1159 3500 
L 1159 2956 
Q 1366 3272 1645 3428 
Q 1925 3584 2291 3584 
Q 2894 3584 3203 3211 
Q 3513 2838 3513 2113 
z
" transform="scale(0.015625)"/>
       <path id="DejaVuSans-61" d="M 2194 1759 
Q 1497 1759 1228 1600 
Q 959 1441 959 1056 
Q 959 750 1161 570 
Q 1363 391 1709 391 
Q 2188 391 2477 730 
Q 2766 1069 2766 1631 
L 2766 1759 
L 2194 1759 
z
M 3341 1997 
L 3341 0 
L 2766 0 
L 2766 531 
Q 2569 213 2275 61 
Q 1981 -91 1556 -91 
Q 1019 -91 701 211 
Q 384 513 384 1019 
Q 384 1609 779 1909 
Q 1175 2209 1959 2209 
L 2766 2209 
L 2766 2266 
Q 2766 2663 2505 2880 
Q 2244 3097 1772 3097 
Q 1472 3097 1187 3025 
Q 903 2953 641 2809 
L 641 3341 
Q 956 3463 1253 3523 
Q 1550 3584 1831 3584 
Q 2591 3584 2966 3190 
Q 3341 2797 3341 1997 
z
" transform="scale(0.015625)"/>
       <path id="DejaVuSans-6c" d="M 603 4863 
L 1178 4863 
L 1178 0 
L 603 0 
L 603 4863 
z
" transform="scale(0.015625)"/>
       <path id="DejaVuSans-56" d="M 1831 0 
L 50 4666 
L 709 4666 
L 2188 738 
L 3669 4666 
L 4325 4666 
L 2547 0 
L 1831 0 
z
" transform="scale(0.015625)"/>
       <path id="DejaVuSans-75" d="M 544 1381 
L 544 3500 
L 1119 3500 
L 1119 1403 
Q 1119 906 1312 657 
Q 1506 409 1894 409 
Q 2359 409 2629 706 
Q 2900 1003 2900 1516 
L 2900 3500 
L 3475 3500 
L 3475 0 
L 2900 0 
L 2900 538 
Q 2691 219 2414 64 
Q 2138 -91 1772 -91 
Q 1169 -91 856 284 
Q 544 659 544 1381 
z
M 1991 3584 
L 1991 3584 
z
" transform="scale(0.015625)"/>
      </defs>
      <use xlink:href="#DejaVuSans-53"/>
      <use xlink:href="#DejaVuSans-69" transform="translate(63.476562 0)"/>
      <use xlink:href="#DejaVuSans-67" transform="translate(91.259766 0)"/>
      <use xlink:href="#DejaVuSans-6e" transform="translate(154.736328 0)"/>
      <use xlink:href="#DejaVuSans-61" transform="translate(218.115234 0)"/>
      <use xlink:href="#DejaVuSans-6c" transform="translate(279.394531 0)"/>
      <use xlink:href="#DejaVuSans-20" transform="translate(307.177734 0)"/>
      <use xlink:href="#DejaVuSans-56" transform="translate(338.964844 0)"/>
      <use xlink:href="#DejaVuSans-61" transform="translate(399.623047 0)"/>
      <use xlink:href="#DejaVuSans-6c" transform="translate(460.902344 0)"/>
      <use xlink:href="#DejaVuSans-75" transform="translate(488.685547 0)"/>
      <use xlink:href="#DejaVuSans-65" transform="translate(552.064453 0)"/>
     </g>
    </g>
   </g>
   <g id="line2d_23">
    <path d="M 75.507386 100.92941 
L 77.209644 89.56342 
L 78.911901 119.172007 
L 80.614159 164.724114 
L 82.316416 192.681633 
L 84.018674 199.410839 
L 85.720931 175.526616 
L 87.423189 142.989294 
L 89.125446 126.102179 
L 90.827704 95.809828 
L 92.529961 59.343632 
L 94.232219 43.376547 
L 95.934476 58.521997 
L 99.338991 157.877728 
L 101.041248 184.138909 
L 102.743506 195.539088 
L 104.445763 189.961002 
L 106.148021 174.824326 
L 107.850278 150.328152 
L 109.552536 99.281793 
L 111.254793 60.786262 
L 112.957051 91.634559 
L 114.659308 146.857204 
L 116.361566 182.939689 
L 118.063823 199.991199 
L 119.766081 196.768686 
L 121.468338 186.99725 
L 123.170596 171.852429 
L 124.872853 128.127845 
L 126.575111 69.256486 
L 128.277368 32.398125 
L 129.979626 37.050192 
L 131.681883 84.19419 
L 133.38414 125.178866 
L 135.086398 147.892093 
L 136.788655 172.430461 
L 138.490913 188.998332 
L 140.19317 192.478158 
L 141.895428 172.223108 
L 143.597685 116.622636 
L 145.299943 71.30625 
L 147.0022 86.386543 
L 148.704458 115.845916 
L 150.406715 138.597668 
L 152.108973 165.184368 
L 153.81123 184.17317 
L 155.513488 194.013013 
L 157.215745 188.255016 
L 158.918003 155.41656 
L 160.62026 111.742808 
L 162.322518 82.431591 
L 164.024775 74.154425 
L 165.727032 89.627724 
L 167.42929 94.536361 
L 169.131547 99.804282 
L 170.833805 134.770834 
L 172.536062 167.255186 
L 174.23832 181.467824 
L 175.940577 174.213868 
L 177.642835 144.033371 
L 179.345092 119.300543 
L 181.04735 117.277247 
L 182.749607 102.687094 
L 184.451865 85.728004 
L 186.154122 103.786092 
L 187.85638 137.014457 
L 189.558637 163.535604 
L 191.260895 171.055054 
L 192.963152 157.164446 
L 194.66541 147.560725 
L 196.367667 147.418245 
L 198.069924 143.810522 
L 199.772182 130.938909 
L 201.474439 92.637567 
L 203.176697 70.358757 
L 204.878954 102.677596 
L 206.581212 137.541766 
L 208.283469 155.717894 
L 209.985727 164.998251 
L 211.687984 167.388591 
L 213.390242 168.886219 
L 215.092499 162.689955 
L 216.794757 121.147165 
L 218.497014 69.605673 
L 220.199272 63.816899 
L 221.901529 81.39307 
L 223.603787 106.683753 
L 225.306044 122.532999 
L 227.008302 128.105055 
L 228.710559 153.060744 
L 230.412817 182.276935 
L 232.115074 196.003008 
L 233.817331 182.191072 
L 235.519589 126.406423 
L 237.221846 85.53842 
L 238.924104 93.324303 
L 240.626361 106.288304 
L 242.328619 117.969986 
L 244.030876 149.031306 
L 245.733134 183.336784 
L 247.435391 202.226279 
L 249.137649 199.499716 
L 250.839906 156.442761 
L 252.542164 104.03403 
L 254.244421 80.298945 
L 255.946679 65.591989 
L 257.648936 62.067897 
L 259.351194 65.235581 
L 261.053451 85.117658 
L 262.755709 135.089391 
L 264.457966 180.017756 
L 266.160223 204.294249 
L 267.862481 201.294335 
L 271.266996 131.748056 
L 272.969253 114.44631 
L 274.671511 87.295359 
L 276.373768 77.403176 
L 278.076026 120.908082 
L 279.778283 175.793055 
L 281.480541 206.14598 
L 283.182798 209.092388 
L 286.587313 151.286148 
L 288.289571 130.990736 
L 289.991828 95.87936 
L 291.694086 58.457534 
L 293.396343 34.26908 
L 295.098601 50.596207 
L 296.800858 107.604708 
L 298.503115 155.161394 
L 300.205373 177.775937 
L 301.90763 185.734887 
L 303.609888 179.354264 
L 305.312145 166.974017 
L 307.014403 144.374677 
L 308.71666 92.115422 
L 310.418918 60.598529 
L 312.121175 93.40828 
L 313.823433 142.311164 
L 315.52569 171.934931 
L 317.227948 183.498399 
L 318.930205 176.589403 
L 320.632463 173.180751 
L 322.33472 168.127899 
L 324.036978 140.342997 
L 325.739235 100.510697 
L 327.441493 64.626064 
L 329.14375 63.005098 
L 330.846007 97.483608 
L 332.548265 119.475128 
L 334.250522 129.816848 
L 335.95278 151.74747 
L 337.655037 169.980735 
L 339.357295 177.019211 
L 341.059552 165.334276 
L 342.76181 122.834064 
L 344.464067 91.693427 
L 346.166325 100.357283 
L 347.868582 106.158058 
L 349.57084 107.300851 
L 351.273097 119.407645 
L 352.975355 135.482339 
L 354.677612 158.275424 
L 356.37987 171.134016 
L 358.082127 164.231142 
L 359.784385 150.044118 
L 361.486642 132.274727 
L 363.188899 122.537637 
L 364.891157 119.298338 
L 366.593414 95.121547 
L 368.295672 83.222481 
L 369.997929 117.027927 
L 371.700187 153.164844 
L 373.402444 172.89176 
L 375.104702 176.38605 
L 376.806959 161.404818 
L 378.509217 149.740373 
L 380.211474 141.354016 
L 381.913732 104.440321 
L 383.615989 62.405026 
L 385.318247 56.855607 
L 387.020504 80.416089 
L 388.722762 119.361381 
L 390.425019 145.525124 
L 392.127277 156.308969 
L 393.829534 173.374388 
L 395.531791 186.186946 
L 397.234049 187.097107 
L 398.936306 163.396614 
L 400.638564 102.514182 
L 402.340821 66.638891 
L 404.043079 93.26055 
L 405.745336 128.074838 
L 407.447594 154.178957 
L 409.149851 177.93799 
L 410.852109 192.729052 
L 412.554366 198.547478 
L 414.256624 185.873669 
L 415.958881 132.57512 
L 417.661139 70.060862 
L 419.363396 43.683186 
L 421.065654 48.47784 
L 422.767911 78.088495 
L 424.470169 100.978216 
L 426.172426 122.058643 
L 427.874683 163.188592 
L 429.576941 195.636797 
L 431.279198 209.242265 
L 432.981456 190.279703 
L 434.683713 131.694242 
L 436.385971 91.031948 
L 438.088228 93.662936 
L 439.790486 99.573391 
L 441.492743 113.839118 
L 443.195001 157.330645 
L 444.897258 196.463893 
L 446.599516 213.526452 
L 448.301773 204.322312 
L 451.706288 113.689732 
L 453.408546 87.61584 
L 455.110803 69.941134 
L 458.515318 60.42812 
L 460.217576 81.580783 
L 461.919833 135.329777 
L 463.62209 175.94508 
L 465.324348 192.918026 
L 467.026605 185.393856 
L 468.728863 155.697841 
L 470.43112 133.284112 
L 472.133378 118.11529 
L 473.835635 85.250722 
L 475.537893 73.31076 
L 477.24015 115.89189 
L 478.942408 164.444937 
L 480.644665 189.71954 
L 482.346923 187.99944 
L 484.04918 162.584589 
L 485.751438 149.875036 
L 487.453695 143.599762 
L 489.155953 124.839209 
L 490.85821 96.481905 
L 492.560468 61.213546 
L 494.262725 65.30083 
L 495.964982 109.621791 
L 497.66724 140.652843 
L 499.369497 153.568461 
L 501.071755 162.449405 
L 502.774012 166.596845 
L 504.47627 167.024896 
L 506.178527 152.83967 
L 507.880785 104.95703 
L 509.583042 72.929308 
L 511.2853 90.256156 
L 512.987557 113.281056 
L 514.689815 128.319516 
L 516.392072 133.546364 
L 518.09433 135.857616 
L 521.498845 173.125724 
L 523.201102 173.734705 
L 524.90336 153.260701 
L 526.605617 114.435757 
L 528.307874 99.142668 
L 530.010132 108.198704 
L 531.712389 104.661803 
L 533.414647 106.707079 
L 535.116904 136.729142 
L 536.819162 168.955049 
L 538.521419 186.181144 
L 540.223677 182.149144 
L 541.925934 147.68032 
L 543.628192 120.367869 
L 545.330449 110.844511 
L 547.032707 87.965956 
L 548.734964 67.055381 
L 550.437222 65.089882 
L 552.139479 88.761878 
L 553.841737 133.339173 
L 555.543994 168.471794 
L 557.246252 185.053521 
L 558.948509 188.090124 
L 560.650766 174.91485 
L 562.353024 159.067508 
L 564.055281 134.045476 
L 565.757539 86.080436 
L 567.459796 69.042312 
L 569.162054 110.333428 
L 570.864311 158.599857 
L 572.566569 187.048997 
L 574.268826 196.795483 
L 575.971084 187.255459 
L 577.673341 176.623255 
L 579.375599 156.00499 
L 582.780114 48.837231 
L 582.780114 48.837231 
" clip-path="url(#p650ddae0c8)" style="fill: none; stroke-dasharray: 5.55,2.4; stroke-dashoffset: 0; stroke: #008000; stroke-width: 1.5"/>
   </g>
   <g id="line2d_24">
    <path d="M 75.507386 142.118104 
L 77.209644 146.036774 
L 78.911901 145.569196 
L 80.614159 128.028419 
L 82.316416 159.952284 
L 84.018674 156.973272 
L 85.720931 165.575784 
L 87.423189 124.391003 
L 89.125446 113.594873 
L 90.827704 129.524657 
L 92.529961 136.307154 
L 94.232219 78.162494 
L 95.934476 75.43174 
L 97.636734 145.047165 
L 99.338991 152.864602 
L 101.041248 163.945938 
L 102.743506 149.511859 
L 104.445763 139.877388 
L 106.148021 119.116244 
L 107.850278 136.752351 
L 109.552536 127.480692 
L 111.254793 111.732858 
L 112.957051 104.749881 
L 114.659308 157.682482 
L 116.361566 120.596036 
L 118.063823 156.861183 
L 119.766081 158.663821 
L 121.468338 161.540808 
L 123.170596 129.023689 
L 124.872853 147.541343 
L 126.575111 153.286362 
L 128.277368 106.256894 
L 129.979626 87.556014 
L 131.681883 117.456099 
L 133.38414 155.19464 
L 135.086398 129.11255 
L 136.788655 191.571727 
L 138.490913 173.574999 
L 140.19317 168.87357 
L 141.895428 138.624434 
L 143.597685 163.642434 
L 145.299943 115.279874 
L 147.0022 127.806512 
L 148.704458 141.230582 
L 150.406715 132.586143 
L 152.108973 113.880383 
L 153.81123 124.941672 
L 155.513488 139.672091 
L 157.215745 162.940582 
L 158.918003 152.599488 
L 160.62026 140.553748 
L 162.322518 126.565023 
L 164.024775 117.655532 
L 165.727032 140.706245 
L 167.42929 115.399729 
L 169.131547 123.951674 
L 170.833805 153.07879 
L 172.536062 180.184804 
L 175.940577 144.804362 
L 177.642835 146.219629 
L 179.345092 127.474657 
L 181.04735 138.297112 
L 182.749607 114.598239 
L 184.451865 75.486076 
L 187.85638 89.43181 
L 189.558637 100.49131 
L 191.260895 153.579061 
L 192.963152 166.109893 
L 194.66541 151.193003 
L 196.367667 111.919777 
L 198.069924 139.217272 
L 199.772182 130.923372 
L 201.474439 106.039298 
L 203.176697 71.660417 
L 204.878954 124.368603 
L 206.581212 152.14118 
L 208.283469 128.237847 
L 209.985727 170.717376 
L 211.687984 137.299384 
L 213.390242 132.250621 
L 215.092499 121.987415 
L 216.794757 117.599627 
L 218.497014 75.353202 
L 220.199272 81.324079 
L 221.901529 81.929097 
L 223.603787 106.137646 
L 225.306044 124.595299 
L 227.008302 115.045472 
L 228.710559 177.810975 
L 230.412817 156.856938 
L 232.115074 186.045095 
L 233.817331 125.767404 
L 235.519589 150.103535 
L 237.221846 111.491328 
L 238.924104 158.071485 
L 240.626361 141.487666 
L 242.328619 146.976882 
L 244.030876 125.772212 
L 245.733134 171.888059 
L 247.435391 152.782575 
L 249.137649 148.726402 
L 250.839906 122.690404 
L 252.542164 105.696566 
L 255.946679 111.664422 
L 257.648936 155.230419 
L 259.351194 65.583287 
L 261.053451 108.162126 
L 262.755709 139.239893 
L 264.457966 203.1834 
L 266.160223 182.629274 
L 267.862481 137.377019 
L 269.564738 126.993018 
L 271.266996 126.395951 
L 272.969253 157.192582 
L 276.373768 101.387622 
L 278.076026 117.387639 
L 279.778283 130.89916 
L 281.480541 141.209434 
L 283.182798 191.022044 
L 284.885056 177.124911 
L 286.587313 151.058282 
L 288.289571 135.044907 
L 289.991828 155.335864 
L 291.694086 149.994462 
L 293.396343 98.216501 
L 295.098601 69.724686 
L 298.503115 164.226377 
L 300.205373 156.225111 
L 301.90763 158.871188 
L 303.609888 153.311991 
L 305.312145 131.070403 
L 307.014403 132.716029 
L 308.71666 125.157373 
L 310.418918 83.451623 
L 312.121175 102.565505 
L 313.823433 123.951129 
L 315.52569 112.793905 
L 317.227948 146.956045 
L 318.930205 120.059805 
L 320.632463 131.96608 
L 322.33472 140.716874 
L 324.036978 157.072138 
L 325.739235 149.207648 
L 327.441493 112.983337 
L 329.14375 91.909312 
L 330.846007 134.450017 
L 332.548265 149.237906 
L 334.250522 158.398527 
L 335.95278 155.215472 
L 337.655037 147.020002 
L 339.357295 141.152887 
L 341.059552 142.814306 
L 342.76181 123.445981 
L 344.464067 99.100095 
L 346.166325 116.400172 
L 347.868582 121.516818 
L 349.57084 89.022377 
L 351.273097 123.937738 
L 352.975355 81.433972 
L 354.677612 141.239665 
L 356.37987 176.750197 
L 358.082127 193.933334 
L 359.784385 149.864345 
L 361.486642 121.939121 
L 363.188899 129.654297 
L 364.891157 153.825257 
L 366.593414 156.022505 
L 368.295672 122.570482 
L 369.997929 157.207168 
L 371.700187 131.512152 
L 375.104702 167.032427 
L 376.806959 153.527111 
L 378.509217 98.137574 
L 380.211474 122.913312 
L 381.913732 112.82292 
L 383.615989 88.531643 
L 385.318247 78.656192 
L 387.020504 33.56163 
L 388.722762 127.075732 
L 390.425019 147.055831 
L 392.127277 152.563563 
L 393.829534 175.352728 
L 395.531791 170.710949 
L 397.234049 165.609179 
L 398.936306 108.065695 
L 400.638564 169.3735 
L 402.340821 125.9608 
L 404.043079 144.205592 
L 405.745336 151.218846 
L 407.447594 153.188497 
L 409.149851 161.532046 
L 410.852109 168.373795 
L 412.554366 147.273045 
L 414.256624 130.002957 
L 415.958881 120.512077 
L 417.661139 107.087876 
L 419.363396 109.673804 
L 421.065654 74.843165 
L 422.767911 129.240748 
L 424.470169 111.318691 
L 426.172426 103.988276 
L 427.874683 161.816145 
L 429.576941 190.794942 
L 431.279198 178.539529 
L 432.981456 106.021663 
L 434.683713 161.325187 
L 436.385971 122.131269 
L 438.088228 136.376471 
L 439.790486 106.969253 
L 441.492743 110.717528 
L 443.195001 104.034165 
L 444.897258 141.754155 
L 446.599516 155.489899 
L 448.301773 164.2522 
L 450.004031 167.779863 
L 451.706288 138.28816 
L 453.408546 134.899176 
L 455.110803 122.180518 
L 456.813061 152.624263 
L 458.515318 99.250367 
L 461.919833 139.022301 
L 463.62209 233.998125 
L 465.324348 170.071335 
L 467.026605 151.521468 
L 468.728863 143.200259 
L 470.43112 140.72879 
L 472.133378 130.023577 
L 473.835635 115.30722 
L 475.537893 75.780602 
L 477.24015 113.961688 
L 478.942408 108.466841 
L 480.644665 124.703211 
L 482.346923 175.778665 
L 484.04918 132.214043 
L 485.751438 120.049946 
L 487.453695 142.955793 
L 489.155953 147.28459 
L 492.560468 115.883653 
L 494.262725 102.393817 
L 495.964982 155.382751 
L 497.66724 167.32225 
L 499.369497 171.741152 
L 502.774012 123.428742 
L 504.47627 126.666248 
L 506.178527 120.804003 
L 507.880785 106.178223 
L 509.583042 68.101126 
L 511.2853 103.573487 
L 512.987557 87.624012 
L 514.689815 117.973384 
L 516.392072 87.705639 
L 518.09433 89.159618 
L 519.796587 149.303772 
L 521.498845 163.070553 
L 523.201102 181.509513 
L 524.90336 112.421952 
L 526.605617 114.166878 
L 528.307874 122.572082 
L 530.010132 142.9217 
L 531.712389 148.887681 
L 533.414647 132.140726 
L 535.116904 160.609756 
L 536.819162 141.082533 
L 538.521419 151.788581 
L 540.223677 153.952538 
L 541.925934 150.8165 
L 543.628192 118.355296 
L 545.330449 104.163562 
L 547.032707 122.87786 
L 548.734964 106.264542 
L 550.437222 93.660581 
L 552.139479 51.54515 
L 553.841737 145.078087 
L 555.543994 161.98895 
L 557.246252 170.169814 
L 558.948509 143.448471 
L 560.650766 146.483668 
L 562.353024 127.827037 
L 564.055281 153.447268 
L 565.757539 151.276584 
L 567.459796 123.724887 
L 569.162054 135.228216 
L 570.864311 164.606085 
L 572.566569 142.756528 
L 574.268826 176.229507 
L 575.971084 158.433375 
L 577.673341 143.281404 
L 579.375599 123.391933 
L 581.077856 138.329395 
L 582.780114 118.907191 
L 582.780114 118.907191 
" clip-path="url(#p650ddae0c8)" style="fill: none; stroke: #ff0000; stroke-width: 1.5; stroke-linecap: square"/>
   </g>
   <g id="patch_3">
    <path d="M 50.14375 244.078125 
L 50.14375 22.318125 
" style="fill: none; stroke: #000000; stroke-width: 0.8; stroke-linejoin: miter; stroke-linecap: square"/>
   </g>
   <g id="patch_4">
    <path d="M 608.14375 244.078125 
L 608.14375 22.318125 
" style="fill: none; stroke: #000000; stroke-width: 0.8; stroke-linejoin: miter; stroke-linecap: square"/>
   </g>
   <g id="patch_5">
    <path d="M 50.14375 244.078125 
L 608.14375 244.078125 
" style="fill: none; stroke: #000000; stroke-width: 0.8; stroke-linejoin: miter; stroke-linecap: square"/>
   </g>
   <g id="patch_6">
    <path d="M 50.14375 22.318125 
L 608.14375 22.318125 
" style="fill: none; stroke: #000000; stroke-width: 0.8; stroke-linejoin: miter; stroke-linecap: square"/>
   </g>
   <g id="text_14">
    <!-- Task Performance: NARMA10 (validation set) -->
    <g transform="translate(195.454375 16.318125) scale(0.12 -0.12)">
     <defs>
      <path id="DejaVuSans-6b" d="M 581 4863 
L 1159 4863 
L 1159 1991 
L 2875 3500 
L 3609 3500 
L 1753 1863 
L 3688 0 
L 2938 0 
L 1159 1709 
L 1159 0 
L 581 0 
L 581 4863 
z
" transform="scale(0.015625)"/>
      <path id="DejaVuSans-50" d="M 1259 4147 
L 1259 2394 
L 2053 2394 
Q 2494 2394 2734 2622 
Q 2975 2850 2975 3272 
Q 2975 3691 2734 3919 
Q 2494 4147 2053 4147 
L 1259 4147 
z
M 628 4666 
L 2053 4666 
Q 2838 4666 3239 4311 
Q 3641 3956 3641 3272 
Q 3641 2581 3239 2228 
Q 2838 1875 2053 1875 
L 1259 1875 
L 1259 0 
L 628 0 
L 628 4666 
z
" transform="scale(0.015625)"/>
      <path id="DejaVuSans-72" d="M 2631 2963 
Q 2534 3019 2420 3045 
Q 2306 3072 2169 3072 
Q 1681 3072 1420 2755 
Q 1159 2438 1159 1844 
L 1159 0 
L 581 0 
L 581 3500 
L 1159 3500 
L 1159 2956 
Q 1341 3275 1631 3429 
Q 1922 3584 2338 3584 
Q 2397 3584 2469 3576 
Q 2541 3569 2628 3553 
L 2631 2963 
z
" transform="scale(0.015625)"/>
      <path id="DejaVuSans-66" d="M 2375 4863 
L 2375 4384 
L 1825 4384 
Q 1516 4384 1395 4259 
Q 1275 4134 1275 3809 
L 1275 3500 
L 2222 3500 
L 2222 3053 
L 1275 3053 
L 1275 0 
L 697 0 
L 697 3053 
L 147 3053 
L 147 3500 
L 697 3500 
L 697 3744 
Q 697 4328 969 4595 
Q 1241 4863 1831 4863 
L 2375 4863 
z
" transform="scale(0.015625)"/>
      <path id="DejaVuSans-6f" d="M 1959 3097 
Q 1497 3097 1228 2736 
Q 959 2375 959 1747 
Q 959 1119 1226 758 
Q 1494 397 1959 397 
Q 2419 397 2687 759 
Q 2956 1122 2956 1747 
Q 2956 2369 2687 2733 
Q 2419 3097 1959 3097 
z
M 1959 3584 
Q 2709 3584 3137 3096 
Q 3566 2609 3566 1747 
Q 3566 888 3137 398 
Q 2709 -91 1959 -91 
Q 1206 -91 779 398 
Q 353 888 353 1747 
Q 353 2609 779 3096 
Q 1206 3584 1959 3584 
z
" transform="scale(0.015625)"/>
      <path id="DejaVuSans-63" d="M 3122 3366 
L 3122 2828 
Q 2878 2963 2633 3030 
Q 2388 3097 2138 3097 
Q 1578 3097 1268 2742 
Q 959 2388 959 1747 
Q 959 1106 1268 751 
Q 1578 397 2138 397 
Q 2388 397 2633 464 
Q 2878 531 3122 666 
L 3122 134 
Q 2881 22 2623 -34 
Q 2366 -91 2075 -91 
Q 1284 -91 818 406 
Q 353 903 353 1747 
Q 353 2603 823 3093 
Q 1294 3584 2113 3584 
Q 2378 3584 2631 3529 
Q 2884 3475 3122 3366 
z
" transform="scale(0.015625)"/>
      <path id="DejaVuSans-3a" d="M 750 794 
L 1409 794 
L 1409 0 
L 750 0 
L 750 794 
z
M 750 3309 
L 1409 3309 
L 1409 2516 
L 750 2516 
L 750 3309 
z
" transform="scale(0.015625)"/>
      <path id="DejaVuSans-4e" d="M 628 4666 
L 1478 4666 
L 3547 763 
L 3547 4666 
L 4159 4666 
L 4159 0 
L 3309 0 
L 1241 3903 
L 1241 0 
L 628 0 
L 628 4666 
z
" transform="scale(0.015625)"/>
      <path id="DejaVuSans-41" d="M 2188 4044 
L 1331 1722 
L 3047 1722 
L 2188 4044 
z
M 1831 4666 
L 2547 4666 
L 4325 0 
L 3669 0 
L 3244 1197 
L 1141 1197 
L 716 0 
L 50 0 
L 1831 4666 
z
" transform="scale(0.015625)"/>
      <path id="DejaVuSans-52" d="M 2841 2188 
Q 3044 2119 3236 1894 
Q 3428 1669 3622 1275 
L 4263 0 
L 3584 0 
L 2988 1197 
Q 2756 1666 2539 1819 
Q 2322 1972 1947 1972 
L 1259 1972 
L 1259 0 
L 628 0 
L 628 4666 
L 2053 4666 
Q 2853 4666 3247 4331 
Q 3641 3997 3641 3322 
Q 3641 2881 3436 2590 
Q 3231 2300 2841 2188 
z
M 1259 4147 
L 1259 2491 
L 2053 2491 
Q 2509 2491 2742 2702 
Q 2975 2913 2975 3322 
Q 2975 3731 2742 3939 
Q 2509 4147 2053 4147 
L 1259 4147 
z
" transform="scale(0.015625)"/>
      <path id="DejaVuSans-4d" d="M 628 4666 
L 1569 4666 
L 2759 1491 
L 3956 4666 
L 4897 4666 
L 4897 0 
L 4281 0 
L 4281 4097 
L 3078 897 
L 2444 897 
L 1241 4097 
L 1241 0 
L 628 0 
L 628 4666 
z
" transform="scale(0.015625)"/>
      <path id="DejaVuSans-28" d="M 1984 4856 
Q 1566 4138 1362 3434 
Q 1159 2731 1159 2009 
Q 1159 1288 1364 580 
Q 1569 -128 1984 -844 
L 1484 -844 
Q 1016 -109 783 600 
Q 550 1309 550 2009 
Q 550 2706 781 3412 
Q 1013 4119 1484 4856 
L 1984 4856 
z
" transform="scale(0.015625)"/>
      <path id="DejaVuSans-76" d="M 191 3500 
L 800 3500 
L 1894 563 
L 2988 3500 
L 3597 3500 
L 2284 0 
L 1503 0 
L 191 3500 
z
" transform="scale(0.015625)"/>
      <path id="DejaVuSans-64" d="M 2906 2969 
L 2906 4863 
L 3481 4863 
L 3481 0 
L 2906 0 
L 2906 525 
Q 2725 213 2448 61 
Q 2172 -91 1784 -91 
Q 1150 -91 751 415 
Q 353 922 353 1747 
Q 353 2572 751 3078 
Q 1150 3584 1784 3584 
Q 2172 3584 2448 3432 
Q 2725 3281 2906 2969 
z
M 947 1747 
Q 947 1113 1208 752 
Q 1469 391 1925 391 
Q 2381 391 2643 752 
Q 2906 1113 2906 1747 
Q 2906 2381 2643 2742 
Q 2381 3103 1925 3103 
Q 1469 3103 1208 2742 
Q 947 2381 947 1747 
z
" transform="scale(0.015625)"/>
      <path id="DejaVuSans-29" d="M 513 4856 
L 1013 4856 
Q 1481 4119 1714 3412 
Q 1947 2706 1947 2009 
Q 1947 1309 1714 600 
Q 1481 -109 1013 -844 
L 513 -844 
Q 928 -128 1133 580 
Q 1338 1288 1338 2009 
Q 1338 2731 1133 3434 
Q 928 4138 513 4856 
z
" transform="scale(0.015625)"/>
     </defs>
     <use xlink:href="#DejaVuSans-54"/>
     <use xlink:href="#DejaVuSans-61" transform="translate(44.583984 0)"/>
     <use xlink:href="#DejaVuSans-73" transform="translate(105.863281 0)"/>
     <use xlink:href="#DejaVuSans-6b" transform="translate(157.962891 0)"/>
     <use xlink:href="#DejaVuSans-20" transform="translate(215.873047 0)"/>
     <use xlink:href="#DejaVuSans-50" transform="translate(247.660156 0)"/>
     <use xlink:href="#DejaVuSans-65" transform="translate(304.337891 0)"/>
     <use xlink:href="#DejaVuSans-72" transform="translate(365.861328 0)"/>
     <use xlink:href="#DejaVuSans-66" transform="translate(406.974609 0)"/>
     <use xlink:href="#DejaVuSans-6f" transform="translate(442.179688 0)"/>
     <use xlink:href="#DejaVuSans-72" transform="translate(503.361328 0)"/>
     <use xlink:href="#DejaVuSans-6d" transform="translate(542.724609 0)"/>
     <use xlink:href="#DejaVuSans-61" transform="translate(640.136719 0)"/>
     <use xlink:href="#DejaVuSans-6e" transform="translate(701.416016 0)"/>
     <use xlink:href="#DejaVuSans-63" transform="translate(764.794922 0)"/>
     <use xlink:href="#DejaVuSans-65" transform="translate(819.775391 0)"/>
     <use xlink:href="#DejaVuSans-3a" transform="translate(881.298828 0)"/>
     <use xlink:href="#DejaVuSans-20" transform="translate(914.990234 0)"/>
     <use xlink:href="#DejaVuSans-4e" transform="translate(946.777344 0)"/>
     <use xlink:href="#DejaVuSans-41" transform="translate(1021.582031 0)"/>
     <use xlink:href="#DejaVuSans-52" transform="translate(1089.990234 0)"/>
     <use xlink:href="#DejaVuSans-4d" transform="translate(1159.472656 0)"/>
     <use xlink:href="#DejaVuSans-41" transform="translate(1245.751953 0)"/>
     <use xlink:href="#DejaVuSans-31" transform="translate(1314.160156 0)"/>
     <use xlink:href="#DejaVuSans-30" transform="translate(1377.783203 0)"/>
     <use xlink:href="#DejaVuSans-20" transform="translate(1441.40625 0)"/>
     <use xlink:href="#DejaVuSans-28" transform="translate(1473.193359 0)"/>
     <use xlink:href="#DejaVuSans-76" transform="translate(1512.207031 0)"/>
     <use xlink:href="#DejaVuSans-61" transform="translate(1571.386719 0)"/>
     <use xlink:href="#DejaVuSans-6c" transform="translate(1632.666016 0)"/>
     <use xlink:href="#DejaVuSans-69" transform="translate(1660.449219 0)"/>
     <use xlink:href="#DejaVuSans-64" transform="translate(1688.232422 0)"/>
     <use xlink:href="#DejaVuSans-61" transform="translate(1751.708984 0)"/>
     <use xlink:href="#DejaVuSans-74" transform="translate(1812.988281 0)"/>
     <use xlink:href="#DejaVuSans-69" transform="translate(1852.197266 0)"/>
     <use xlink:href="#DejaVuSans-6f" transform="translate(1879.980469 0)"/>
     <use xlink:href="#DejaVuSans-6e" transform="translate(1941.162109 0)"/>
     <use xlink:href="#DejaVuSans-20" transform="translate(2004.541016 0)"/>
     <use xlink:href="#DejaVuSans-73" transform="translate(2036.328125 0)"/>
     <use xlink:href="#DejaVuSans-65" transform="translate(2088.427734 0)"/>
     <use xlink:href="#DejaVuSans-74" transform="translate(2149.951172 0)"/>
     <use xlink:href="#DejaVuSans-29" transform="translate(2189.160156 0)"/>
    </g>
   </g>
   <g id="legend_1">
    <g id="patch_7">
     <path d="M 519.470312 59.674375 
L 601.14375 59.674375 
Q 603.14375 59.674375 603.14375 57.674375 
L 603.14375 29.318125 
Q 603.14375 27.318125 601.14375 27.318125 
L 519.470312 27.318125 
Q 517.470312 27.318125 517.470312 29.318125 
L 517.470312 57.674375 
Q 517.470312 59.674375 519.470312 59.674375 
z
" style="fill: #ffffff; opacity: 0.8; stroke: #cccccc; stroke-linejoin: miter"/>
    </g>
    <g id="line2d_25">
     <path d="M 521.470312 35.416562 
L 531.470312 35.416562 
L 541.470312 35.416562 
" style="fill: none; stroke-dasharray: 5.55,2.4; stroke-dashoffset: 0; stroke: #008000; stroke-width: 1.5"/>
    </g>
    <g id="text_15">
     <!-- Target -->
     <g transform="translate(549.470312 38.916562) scale(0.1 -0.1)">
      <use xlink:href="#DejaVuSans-54"/>
      <use xlink:href="#DejaVuSans-61" transform="translate(44.583984 0)"/>
      <use xlink:href="#DejaVuSans-72" transform="translate(105.863281 0)"/>
      <use xlink:href="#DejaVuSans-67" transform="translate(145.226562 0)"/>
      <use xlink:href="#DejaVuSans-65" transform="translate(208.703125 0)"/>
      <use xlink:href="#DejaVuSans-74" transform="translate(270.226562 0)"/>
     </g>
    </g>
    <g id="line2d_26">
     <path d="M 521.470312 50.094687 
L 531.470312 50.094687 
L 541.470312 50.094687 
" style="fill: none; stroke: #ff0000; stroke-width: 1.5; stroke-linecap: square"/>
    </g>
    <g id="text_16">
     <!-- Prediction -->
     <g transform="translate(549.470312 53.594687) scale(0.1 -0.1)">
      <use xlink:href="#DejaVuSans-50"/>
      <use xlink:href="#DejaVuSans-72" transform="translate(58.552734 0)"/>
      <use xlink:href="#DejaVuSans-65" transform="translate(97.416016 0)"/>
      <use xlink:href="#DejaVuSans-64" transform="translate(158.939453 0)"/>
      <use xlink:href="#DejaVuSans-69" transform="translate(222.416016 0)"/>
      <use xlink:href="#DejaVuSans-63" transform="translate(250.199219 0)"/>
      <use xlink:href="#DejaVuSans-74" transform="translate(305.179688 0)"/>
      <use xlink:href="#DejaVuSans-69" transform="translate(344.388672 0)"/>
      <use xlink:href="#DejaVuSans-6f" transform="translate(372.171875 0)"/>
      <use xlink:href="#DejaVuSans-6e" transform="translate(433.353516 0)"/>
     </g>
    </g>
   </g>
  </g>
 </g>
 <defs>
  <clipPath id="p650ddae0c8">
   <rect x="50.14375" y="22.318125" width="558" height="221.76"/>
  </clipPath>
 </defs>
</svg>
