<?xml version="1.0" encoding="utf-8" standalone="no"?>
<!DOCTYPE svg PUBLIC "-//W3C//DTD SVG 1.1//EN"
  "http://www.w3.org/Graphics/SVG/1.1/DTD/svg11.dtd">
<svg xmlns:xlink="http://www.w3.org/1999/xlink" width="621.70625pt" height="281.634375pt" viewBox="0 0 621.70625 281.634375" xmlns="http://www.w3.org/2000/svg" version="1.1">
 <metadata>
  <rdf:RDF xmlns:dc="http://purl.org/dc/elements/1.1/" xmlns:cc="http://creativecommons.org/ns#" xmlns:rdf="http://www.w3.org/1999/02/22-rdf-syntax-ns#">
   <cc:Work>
    <dc:type rdf:resource="http://purl.org/dc/dcmitype/StillImage"/>
    <dc:date>2026-03-24T15:51:20.118549</dc:date>
    <dc:format>image/svg+xml</dc:format>
    <dc:creator>
     <cc:Agent>
      <dc:title>Matplotlib v3.10.8, https://matplotlib.org/</dc:title>
     </cc:Agent>
    </dc:creator>
   </cc:Work>
  </rdf:RDF>
 </metadata>
 <defs>
  <style type="text/css">*{stroke-linejoin: round; stroke-linecap: butt}</style>
 </defs>
 <g id="figure_1">
  <g id="patch_1">
   <path d="M 0 281.634375 
L 621.70625 281.634375 
L 621.70625 0 
L 0 0 
z
" style="fill: #ffffff"/>
  </g>
  <g id="axes_1">
   <g id="patch_2">
    <path d="M 56.50625 244.078125 
L 614.50625 244.078125 
L 614.50625 22.318125 
L 56.50625 22.318125 
z
" style="fill: #ffffff"/>
   </g>
   <g id="matplotlib.axis_1">
    <g id="xtick_1">
     <g id="line2d_1">
      <path d="M 81.869886 244.078125 
L 81.869886 22.318125 
" clip-path="url(#pc5b8dc7020)" style="fill: none; stroke: #b0b0b0; stroke-opacity: 0.3; stroke-width: 0.8; stroke-linecap: square"/>
     </g>
     <g id="line2d_2">
      <defs>
       <path id="m2ca7f1b21d" d="M 0 0 
L 0 3.5 
" style="stroke: #000000; stroke-width: 0.8"/>
      </defs>
      <g>
       <use xlink:href="#m2ca7f1b21d" x="81.869886" y="244.078125" style="stroke: #000000; stroke-width: 0.8"/>
      </g>
     </g>
     <g id="text_1">
      <!-- 0 -->
      <g transform="translate(78.688636 258.676562) scale(0.1 -0.1)">
       <defs>
        <path id="DejaVuSans-30" d="M 2034 4250 
Q 1547 4250 1301 3770 
Q 1056 3291 1056 2328 
Q 1056 1369 1301 889 
Q 1547 409 2034 409 
Q 2525 409 2770 889 
Q 3016 1369 3016 2328 
Q 3016 3291 2770 3770 
Q 2525 4250 2034 4250 
z
M 2034 4750 
Q 2819 4750 3233 4129 
Q 3647 3509 3647 2328 
Q 3647 1150 3233 529 
Q 2819 -91 2034 -91 
Q 1250 -91 836 529 
Q 422 1150 422 2328 
Q 422 3509 836 4129 
Q 1250 4750 2034 4750 
z
" transform="scale(0.015625)"/>
       </defs>
       <use xlink:href="#DejaVuSans-30"/>
      </g>
     </g>
    </g>
    <g id="xtick_2">
     <g id="line2d_3">
      <path d="M 166.98276 244.078125 
L 166.98276 22.318125 
" clip-path="url(#pc5b8dc7020)" style="fill: none; stroke: #b0b0b0; stroke-opacity: 0.3; stroke-width: 0.8; stroke-linecap: square"/>
     </g>
     <g id="line2d_4">
      <g>
       <use xlink:href="#m2ca7f1b21d" x="166.98276" y="244.078125" style="stroke: #000000; stroke-width: 0.8"/>
      </g>
     </g>
     <g id="text_2">
      <!-- 50 -->
      <g transform="translate(160.62026 258.676562) scale(0.1 -0.1)">
       <defs>
        <path id="DejaVuSans-35" d="M 691 4666 
L 3169 4666 
L 3169 4134 
L 1269 4134 
L 1269 2991 
Q 1406 3038 1543 3061 
Q 1681 3084 1819 3084 
Q 2600 3084 3056 2656 
Q 3513 2228 3513 1497 
Q 3513 744 3044 326 
Q 2575 -91 1722 -91 
Q 1428 -91 1123 -41 
Q 819 9 494 109 
L 494 744 
Q 775 591 1075 516 
Q 1375 441 1709 441 
Q 2250 441 2565 725 
Q 2881 1009 2881 1497 
Q 2881 1984 2565 2268 
Q 2250 2553 1709 2553 
Q 1456 2553 1204 2497 
Q 953 2441 691 2322 
L 691 4666 
z
" transform="scale(0.015625)"/>
       </defs>
       <use xlink:href="#DejaVuSans-35"/>
       <use xlink:href="#DejaVuSans-30" transform="translate(63.623047 0)"/>
      </g>
     </g>
    </g>
    <g id="xtick_3">
     <g id="line2d_5">
      <path d="M 252.095634 244.078125 
L 252.095634 22.318125 
" clip-path="url(#pc5b8dc7020)" style="fill: none; stroke: #b0b0b0; stroke-opacity: 0.3; stroke-width: 0.8; stroke-linecap: square"/>
     </g>
     <g id="line2d_6">
      <g>
       <use xlink:href="#m2ca7f1b21d" x="252.095634" y="244.078125" style="stroke: #000000; stroke-width: 0.8"/>
      </g>
     </g>
     <g id="text_3">
      <!-- 100 -->
      <g transform="translate(242.551884 258.676562) scale(0.1 -0.1)">
       <defs>
        <path id="DejaVuSans-31" d="M 794 531 
L 1825 531 
L 1825 4091 
L 703 3866 
L 703 4441 
L 1819 4666 
L 2450 4666 
L 2450 531 
L 3481 531 
L 3481 0 
L 794 0 
L 794 531 
z
" transform="scale(0.015625)"/>
       </defs>
       <use xlink:href="#DejaVuSans-31"/>
       <use xlink:href="#DejaVuSans-30" transform="translate(63.623047 0)"/>
       <use xlink:href="#DejaVuSans-30" transform="translate(127.246094 0)"/>
      </g>
     </g>
    </g>
    <g id="xtick_4">
     <g id="line2d_7">
      <path d="M 337.208507 244.078125 
L 337.208507 22.318125 
" clip-path="url(#pc5b8dc7020)" style="fill: none; stroke: #b0b0b0; stroke-opacity: 0.3; stroke-width: 0.8; stroke-linecap: square"/>
     </g>
     <g id="line2d_8">
      <g>
       <use xlink:href="#m2ca7f1b21d" x="337.208507" y="244.078125" style="stroke: #000000; stroke-width: 0.8"/>
      </g>
     </g>
     <g id="text_4">
      <!-- 150 -->
      <g transform="translate(327.664757 258.676562) scale(0.1 -0.1)">
       <use xlink:href="#DejaVuSans-31"/>
       <use xlink:href="#DejaVuSans-35" transform="translate(63.623047 0)"/>
       <use xlink:href="#DejaVuSans-30" transform="translate(127.246094 0)"/>
      </g>
     </g>
    </g>
    <g id="xtick_5">
     <g id="line2d_9">
      <path d="M 422.321381 244.078125 
L 422.321381 22.318125 
" clip-path="url(#pc5b8dc7020)" style="fill: none; stroke: #b0b0b0; stroke-opacity: 0.3; stroke-width: 0.8; stroke-linecap: square"/>
     </g>
     <g id="line2d_10">
      <g>
       <use xlink:href="#m2ca7f1b21d" x="422.321381" y="244.078125" style="stroke: #000000; stroke-width: 0.8"/>
      </g>
     </g>
     <g id="text_5">
      <!-- 200 -->
      <g transform="translate(412.777631 258.676562) scale(0.1 -0.1)">
       <defs>
        <path id="DejaVuSans-32" d="M 1228 531 
L 3431 531 
L 3431 0 
L 469 0 
L 469 531 
Q 828 903 1448 1529 
Q 2069 2156 2228 2338 
Q 2531 2678 2651 2914 
Q 2772 3150 2772 3378 
Q 2772 3750 2511 3984 
Q 2250 4219 1831 4219 
Q 1534 4219 1204 4116 
Q 875 4013 500 3803 
L 500 4441 
Q 881 4594 1212 4672 
Q 1544 4750 1819 4750 
Q 2544 4750 2975 4387 
Q 3406 4025 3406 3419 
Q 3406 3131 3298 2873 
Q 3191 2616 2906 2266 
Q 2828 2175 2409 1742 
Q 1991 1309 1228 531 
z
" transform="scale(0.015625)"/>
       </defs>
       <use xlink:href="#DejaVuSans-32"/>
       <use xlink:href="#DejaVuSans-30" transform="translate(63.623047 0)"/>
       <use xlink:href="#DejaVuSans-30" transform="translate(127.246094 0)"/>
      </g>
     </g>
    </g>
    <g id="xtick_6">
     <g id="line2d_11">
      <path d="M 507.434255 244.078125 
L 507.434255 22.318125 
" clip-path="url(#pc5b8dc7020)" style="fill: none; stroke: #b0b0b0; stroke-opacity: 0.3; stroke-width: 0.8; stroke-linecap: square"/>
     </g>
     <g id="line2d_12">
      <g>
       <use xlink:href="#m2ca7f1b21d" x="507.434255" y="244.078125" style="stroke: #000000; stroke-width: 0.8"/>
      </g>
     </g>
     <g id="text_6">
      <!-- 250 -->
      <g transform="translate(497.890505 258.676562) scale(0.1 -0.1)">
       <use xlink:href="#DejaVuSans-32"/>
       <use xlink:href="#DejaVuSans-35" transform="translate(63.623047 0)"/>
       <use xlink:href="#DejaVuSans-30" transform="translate(127.246094 0)"/>
      </g>
     </g>
    </g>
    <g id="xtick_7">
     <g id="line2d_13">
      <path d="M 592.547129 244.078125 
L 592.547129 22.318125 
" clip-path="url(#pc5b8dc7020)" style="fill: none; stroke: #b0b0b0; stroke-opacity: 0.3; stroke-width: 0.8; stroke-linecap: square"/>
     </g>
     <g id="line2d_14">
      <g>
       <use xlink:href="#m2ca7f1b21d" x="592.547129" y="244.078125" style="stroke: #000000; stroke-width: 0.8"/>
      </g>
     </g>
     <g id="text_7">
      <!-- 300 -->
      <g transform="translate(583.003379 258.676562) scale(0.1 -0.1)">
       <defs>
        <path id="DejaVuSans-33" d="M 2597 2516 
Q 3050 2419 3304 2112 
Q 3559 1806 3559 1356 
Q 3559 666 3084 287 
Q 2609 -91 1734 -91 
Q 1441 -91 1130 -33 
Q 819 25 488 141 
L 488 750 
Q 750 597 1062 519 
Q 1375 441 1716 441 
Q 2309 441 2620 675 
Q 2931 909 2931 1356 
Q 2931 1769 2642 2001 
Q 2353 2234 1838 2234 
L 1294 2234 
L 1294 2753 
L 1863 2753 
Q 2328 2753 2575 2939 
Q 2822 3125 2822 3475 
Q 2822 3834 2567 4026 
Q 2313 4219 1838 4219 
Q 1578 4219 1281 4162 
Q 984 4106 628 3988 
L 628 4550 
Q 988 4650 1302 4700 
Q 1616 4750 1894 4750 
Q 2613 4750 3031 4423 
Q 3450 4097 3450 3541 
Q 3450 3153 3228 2886 
Q 3006 2619 2597 2516 
z
" transform="scale(0.015625)"/>
       </defs>
       <use xlink:href="#DejaVuSans-33"/>
       <use xlink:href="#DejaVuSans-30" transform="translate(63.623047 0)"/>
       <use xlink:href="#DejaVuSans-30" transform="translate(127.246094 0)"/>
      </g>
     </g>
    </g>
    <g id="text_8">
     <!-- Time Steps -->
     <g transform="translate(307.69375 272.354687) scale(0.1 -0.1)">
      <defs>
       <path id="DejaVuSans-54" d="M -19 4666 
L 3928 4666 
L 3928 4134 
L 2272 4134 
L 2272 0 
L 1638 0 
L 1638 4134 
L -19 4134 
L -19 4666 
z
" transform="scale(0.015625)"/>
       <path id="DejaVuSans-69" d="M 603 3500 
L 1178 3500 
L 1178 0 
L 603 0 
L 603 3500 
z
M 603 4863 
L 1178 4863 
L 1178 4134 
L 603 4134 
L 603 4863 
z
" transform="scale(0.015625)"/>
       <path id="DejaVuSans-6d" d="M 3328 2828 
Q 3544 3216 3844 3400 
Q 4144 3584 4550 3584 
Q 5097 3584 5394 3201 
Q 5691 2819 5691 2113 
L 5691 0 
L 5113 0 
L 5113 2094 
Q 5113 2597 4934 2840 
Q 4756 3084 4391 3084 
Q 3944 3084 3684 2787 
Q 3425 2491 3425 1978 
L 3425 0 
L 2847 0 
L 2847 2094 
Q 2847 2600 2669 2842 
Q 2491 3084 2119 3084 
Q 1678 3084 1418 2786 
Q 1159 2488 1159 1978 
L 1159 0 
L 581 0 
L 581 3500 
L 1159 3500 
L 1159 2956 
Q 1356 3278 1631 3431 
Q 1906 3584 2284 3584 
Q 2666 3584 2933 3390 
Q 3200 3197 3328 2828 
z
" transform="scale(0.015625)"/>
       <path id="DejaVuSans-65" d="M 3597 1894 
L 3597 1613 
L 953 1613 
Q 991 1019 1311 708 
Q 1631 397 2203 397 
Q 2534 397 2845 478 
Q 3156 559 3463 722 
L 3463 178 
Q 3153 47 2828 -22 
Q 2503 -91 2169 -91 
Q 1331 -91 842 396 
Q 353 884 353 1716 
Q 353 2575 817 3079 
Q 1281 3584 2069 3584 
Q 2775 3584 3186 3129 
Q 3597 2675 3597 1894 
z
M 3022 2063 
Q 3016 2534 2758 2815 
Q 2500 3097 2075 3097 
Q 1594 3097 1305 2825 
Q 1016 2553 972 2059 
L 3022 2063 
z
" transform="scale(0.015625)"/>
       <path id="DejaVuSans-20" transform="scale(0.015625)"/>
       <path id="DejaVuSans-53" d="M 3425 4513 
L 3425 3897 
Q 3066 4069 2747 4153 
Q 2428 4238 2131 4238 
Q 1616 4238 1336 4038 
Q 1056 3838 1056 3469 
Q 1056 3159 1242 3001 
Q 1428 2844 1947 2747 
L 2328 2669 
Q 3034 2534 3370 2195 
Q 3706 1856 3706 1288 
Q 3706 609 3251 259 
Q 2797 -91 1919 -91 
Q 1588 -91 1214 -16 
Q 841 59 441 206 
L 441 856 
Q 825 641 1194 531 
Q 1563 422 1919 422 
Q 2459 422 2753 634 
Q 3047 847 3047 1241 
Q 3047 1584 2836 1778 
Q 2625 1972 2144 2069 
L 1759 2144 
Q 1053 2284 737 2584 
Q 422 2884 422 3419 
Q 422 4038 858 4394 
Q 1294 4750 2059 4750 
Q 2388 4750 2728 4690 
Q 3069 4631 3425 4513 
z
" transform="scale(0.015625)"/>
       <path id="DejaVuSans-74" d="M 1172 4494 
L 1172 3500 
L 2356 3500 
L 2356 3053 
L 1172 3053 
L 1172 1153 
Q 1172 725 1289 603 
Q 1406 481 1766 481 
L 2356 481 
L 2356 0 
L 1766 0 
Q 1100 0 847 248 
Q 594 497 594 1153 
L 594 3053 
L 172 3053 
L 172 3500 
L 594 3500 
L 594 4494 
L 1172 4494 
z
" transform="scale(0.015625)"/>
       <path id="DejaVuSans-70" d="M 1159 525 
L 1159 -1331 
L 581 -1331 
L 581 3500 
L 1159 3500 
L 1159 2969 
Q 1341 3281 1617 3432 
Q 1894 3584 2278 3584 
Q 2916 3584 3314 3078 
Q 3713 2572 3713 1747 
Q 3713 922 3314 415 
Q 2916 -91 2278 -91 
Q 1894 -91 1617 61 
Q 1341 213 1159 525 
z
M 3116 1747 
Q 3116 2381 2855 2742 
Q 2594 3103 2138 3103 
Q 1681 3103 1420 2742 
Q 1159 2381 1159 1747 
Q 1159 1113 1420 752 
Q 1681 391 2138 391 
Q 2594 391 2855 752 
Q 3116 1113 3116 1747 
z
" transform="scale(0.015625)"/>
       <path id="DejaVuSans-73" d="M 2834 3397 
L 2834 2853 
Q 2591 2978 2328 3040 
Q 2066 3103 1784 3103 
Q 1356 3103 1142 2972 
Q 928 2841 928 2578 
Q 928 2378 1081 2264 
Q 1234 2150 1697 2047 
L 1894 2003 
Q 2506 1872 2764 1633 
Q 3022 1394 3022 966 
Q 3022 478 2636 193 
Q 2250 -91 1575 -91 
Q 1294 -91 989 -36 
Q 684 19 347 128 
L 347 722 
Q 666 556 975 473 
Q 1284 391 1588 391 
Q 1994 391 2212 530 
Q 2431 669 2431 922 
Q 2431 1156 2273 1281 
Q 2116 1406 1581 1522 
L 1381 1569 
Q 847 1681 609 1914 
Q 372 2147 372 2553 
Q 372 3047 722 3315 
Q 1072 3584 1716 3584 
Q 2034 3584 2315 3537 
Q 2597 3491 2834 3397 
z
" transform="scale(0.015625)"/>
      </defs>
      <use xlink:href="#DejaVuSans-54"/>
      <use xlink:href="#DejaVuSans-69" transform="translate(57.958984 0)"/>
      <use xlink:href="#DejaVuSans-6d" transform="translate(85.742188 0)"/>
      <use xlink:href="#DejaVuSans-65" transform="translate(183.154297 0)"/>
      <use xlink:href="#DejaVuSans-20" transform="translate(244.677734 0)"/>
      <use xlink:href="#DejaVuSans-53" transform="translate(276.464844 0)"/>
      <use xlink:href="#DejaVuSans-74" transform="translate(339.941406 0)"/>
      <use xlink:href="#DejaVuSans-65" transform="translate(379.150391 0)"/>
      <use xlink:href="#DejaVuSans-70" transform="translate(440.673828 0)"/>
      <use xlink:href="#DejaVuSans-73" transform="translate(504.150391 0)"/>
     </g>
    </g>
   </g>
   <g id="matplotlib.axis_2">
    <g id="ytick_1">
     <g id="line2d_15">
      <path d="M 56.50625 219.563407 
L 614.50625 219.563407 
" clip-path="url(#pc5b8dc7020)" style="fill: none; stroke: #b0b0b0; stroke-opacity: 0.3; stroke-width: 0.8; stroke-linecap: square"/>
     </g>
     <g id="line2d_16">
      <defs>
       <path id="mdd53551db2" d="M 0 0 
L -3.5 0 
" style="stroke: #000000; stroke-width: 0.8"/>
      </defs>
      <g>
       <use xlink:href="#mdd53551db2" x="56.50625" y="219.563407" style="stroke: #000000; stroke-width: 0.8"/>
      </g>
     </g>
     <g id="text_9">
      <!-- 0.200 -->
      <g transform="translate(20.878125 223.362626) scale(0.1 -0.1)">
       <defs>
        <path id="DejaVuSans-2e" d="M 684 794 
L 1344 794 
L 1344 0 
L 684 0 
L 684 794 
z
" transform="scale(0.015625)"/>
       </defs>
       <use xlink:href="#DejaVuSans-30"/>
       <use xlink:href="#DejaVuSans-2e" transform="translate(63.623047 0)"/>
       <use xlink:href="#DejaVuSans-32" transform="translate(95.410156 0)"/>
       <use xlink:href="#DejaVuSans-30" transform="translate(159.033203 0)"/>
       <use xlink:href="#DejaVuSans-30" transform="translate(222.65625 0)"/>
      </g>
     </g>
    </g>
    <g id="ytick_2">
     <g id="line2d_17">
      <path d="M 56.50625 193.440566 
L 614.50625 193.440566 
" clip-path="url(#pc5b8dc7020)" style="fill: none; stroke: #b0b0b0; stroke-opacity: 0.3; stroke-width: 0.8; stroke-linecap: square"/>
     </g>
     <g id="line2d_18">
      <g>
       <use xlink:href="#mdd53551db2" x="56.50625" y="193.440566" style="stroke: #000000; stroke-width: 0.8"/>
      </g>
     </g>
     <g id="text_10">
      <!-- 0.225 -->
      <g transform="translate(20.878125 197.239785) scale(0.1 -0.1)">
       <use xlink:href="#DejaVuSans-30"/>
       <use xlink:href="#DejaVuSans-2e" transform="translate(63.623047 0)"/>
       <use xlink:href="#DejaVuSans-32" transform="translate(95.410156 0)"/>
       <use xlink:href="#DejaVuSans-32" transform="translate(159.033203 0)"/>
       <use xlink:href="#DejaVuSans-35" transform="translate(222.65625 0)"/>
      </g>
     </g>
    </g>
    <g id="ytick_3">
     <g id="line2d_19">
      <path d="M 56.50625 167.317725 
L 614.50625 167.317725 
" clip-path="url(#pc5b8dc7020)" style="fill: none; stroke: #b0b0b0; stroke-opacity: 0.3; stroke-width: 0.8; stroke-linecap: square"/>
     </g>
     <g id="line2d_20">
      <g>
       <use xlink:href="#mdd53551db2" x="56.50625" y="167.317725" style="stroke: #000000; stroke-width: 0.8"/>
      </g>
     </g>
     <g id="text_11">
      <!-- 0.250 -->
      <g transform="translate(20.878125 171.116944) scale(0.1 -0.1)">
       <use xlink:href="#DejaVuSans-30"/>
       <use xlink:href="#DejaVuSans-2e" transform="translate(63.623047 0)"/>
       <use xlink:href="#DejaVuSans-32" transform="translate(95.410156 0)"/>
       <use xlink:href="#DejaVuSans-35" transform="translate(159.033203 0)"/>
       <use xlink:href="#DejaVuSans-30" transform="translate(222.65625 0)"/>
      </g>
     </g>
    </g>
    <g id="ytick_4">
     <g id="line2d_21">
      <path d="M 56.50625 141.194884 
L 614.50625 141.194884 
" clip-path="url(#pc5b8dc7020)" style="fill: none; stroke: #b0b0b0; stroke-opacity: 0.3; stroke-width: 0.8; stroke-linecap: square"/>
     </g>
     <g id="line2d_22">
      <g>
       <use xlink:href="#mdd53551db2" x="56.50625" y="141.194884" style="stroke: #000000; stroke-width: 0.8"/>
      </g>
     </g>
     <g id="text_12">
      <!-- 0.275 -->
      <g transform="translate(20.878125 144.994103) scale(0.1 -0.1)">
       <defs>
        <path id="DejaVuSans-37" d="M 525 4666 
L 3525 4666 
L 3525 4397 
L 1831 0 
L 1172 0 
L 2766 4134 
L 525 4134 
L 525 4666 
z
" transform="scale(0.015625)"/>
       </defs>
       <use xlink:href="#DejaVuSans-30"/>
       <use xlink:href="#DejaVuSans-2e" transform="translate(63.623047 0)"/>
       <use xlink:href="#DejaVuSans-32" transform="translate(95.410156 0)"/>
       <use xlink:href="#DejaVuSans-37" transform="translate(159.033203 0)"/>
       <use xlink:href="#DejaVuSans-35" transform="translate(222.65625 0)"/>
      </g>
     </g>
    </g>
    <g id="ytick_5">
     <g id="line2d_23">
      <path d="M 56.50625 115.072043 
L 614.50625 115.072043 
" clip-path="url(#pc5b8dc7020)" style="fill: none; stroke: #b0b0b0; stroke-opacity: 0.3; stroke-width: 0.8; stroke-linecap: square"/>
     </g>
     <g id="line2d_24">
      <g>
       <use xlink:href="#mdd53551db2" x="56.50625" y="115.072043" style="stroke: #000000; stroke-width: 0.8"/>
      </g>
     </g>
     <g id="text_13">
      <!-- 0.300 -->
      <g transform="translate(20.878125 118.871262) scale(0.1 -0.1)">
       <use xlink:href="#DejaVuSans-30"/>
       <use xlink:href="#DejaVuSans-2e" transform="translate(63.623047 0)"/>
       <use xlink:href="#DejaVuSans-33" transform="translate(95.410156 0)"/>
       <use xlink:href="#DejaVuSans-30" transform="translate(159.033203 0)"/>
       <use xlink:href="#DejaVuSans-30" transform="translate(222.65625 0)"/>
      </g>
     </g>
    </g>
    <g id="ytick_6">
     <g id="line2d_25">
      <path d="M 56.50625 88.949202 
L 614.50625 88.949202 
" clip-path="url(#pc5b8dc7020)" style="fill: none; stroke: #b0b0b0; stroke-opacity: 0.3; stroke-width: 0.8; stroke-linecap: square"/>
     </g>
     <g id="line2d_26">
      <g>
       <use xlink:href="#mdd53551db2" x="56.50625" y="88.949202" style="stroke: #000000; stroke-width: 0.8"/>
      </g>
     </g>
     <g id="text_14">
      <!-- 0.325 -->
      <g transform="translate(20.878125 92.748421) scale(0.1 -0.1)">
       <use xlink:href="#DejaVuSans-30"/>
       <use xlink:href="#DejaVuSans-2e" transform="translate(63.623047 0)"/>
       <use xlink:href="#DejaVuSans-33" transform="translate(95.410156 0)"/>
       <use xlink:href="#DejaVuSans-32" transform="translate(159.033203 0)"/>
       <use xlink:href="#DejaVuSans-35" transform="translate(222.65625 0)"/>
      </g>
     </g>
    </g>
    <g id="ytick_7">
     <g id="line2d_27">
      <path d="M 56.50625 62.826361 
L 614.50625 62.826361 
" clip-path="url(#pc5b8dc7020)" style="fill: none; stroke: #b0b0b0; stroke-opacity: 0.3; stroke-width: 0.8; stroke-linecap: square"/>
     </g>
     <g id="line2d_28">
      <g>
       <use xlink:href="#mdd53551db2" x="56.50625" y="62.826361" style="stroke: #000000; stroke-width: 0.8"/>
      </g>
     </g>
     <g id="text_15">
      <!-- 0.350 -->
      <g transform="translate(20.878125 66.62558) scale(0.1 -0.1)">
       <use xlink:href="#DejaVuSans-30"/>
       <use xlink:href="#DejaVuSans-2e" transform="translate(63.623047 0)"/>
       <use xlink:href="#DejaVuSans-33" transform="translate(95.410156 0)"/>
       <use xlink:href="#DejaVuSans-35" transform="translate(159.033203 0)"/>
       <use xlink:href="#DejaVuSans-30" transform="translate(222.65625 0)"/>
      </g>
     </g>
    </g>
    <g id="ytick_8">
     <g id="line2d_29">
      <path d="M 56.50625 36.70352 
L 614.50625 36.70352 
" clip-path="url(#pc5b8dc7020)" style="fill: none; stroke: #b0b0b0; stroke-opacity: 0.3; stroke-width: 0.8; stroke-linecap: square"/>
     </g>
     <g id="line2d_30">
      <g>
       <use xlink:href="#mdd53551db2" x="56.50625" y="36.70352" style="stroke: #000000; stroke-width: 0.8"/>
      </g>
     </g>
     <g id="text_16">
      <!-- 0.375 -->
      <g transform="translate(20.878125 40.502739) scale(0.1 -0.1)">
       <use xlink:href="#DejaVuSans-30"/>
       <use xlink:href="#DejaVuSans-2e" transform="translate(63.623047 0)"/>
       <use xlink:href="#DejaVuSans-33" transform="translate(95.410156 0)"/>
       <use xlink:href="#DejaVuSans-37" transform="translate(159.033203 0)"/>
       <use xlink:href="#DejaVuSans-35" transform="translate(222.65625 0)"/>
      </g>
     </g>
    </g>
    <g id="text_17">
     <!-- Signal Value -->
     <g transform="translate(14.798437 163.877812) rotate(-90) scale(0.1 -0.1)">
      <defs>
       <path id="DejaVuSans-67" d="M 2906 1791 
Q 2906 2416 2648 2759 
Q 2391 3103 1925 3103 
Q 1463 3103 1205 2759 
Q 947 2416 947 1791 
Q 947 1169 1205 825 
Q 1463 481 1925 481 
Q 2391 481 2648 825 
Q 2906 1169 2906 1791 
z
M 3481 434 
Q 3481 -459 3084 -895 
Q 2688 -1331 1869 -1331 
Q 1566 -1331 1297 -1286 
Q 1028 -1241 775 -1147 
L 775 -588 
Q 1028 -725 1275 -790 
Q 1522 -856 1778 -856 
Q 2344 -856 2625 -561 
Q 2906 -266 2906 331 
L 2906 616 
Q 2728 306 2450 153 
Q 2172 0 1784 0 
Q 1141 0 747 490 
Q 353 981 353 1791 
Q 353 2603 747 3093 
Q 1141 3584 1784 3584 
Q 2172 3584 2450 3431 
Q 2728 3278 2906 2969 
L 2906 3500 
L 3481 3500 
L 3481 434 
z
" transform="scale(0.015625)"/>
       <path id="DejaVuSans-6e" d="M 3513 2113 
L 3513 0 
L 2938 0 
L 2938 2094 
Q 2938 2591 2744 2837 
Q 2550 3084 2163 3084 
Q 1697 3084 1428 2787 
Q 1159 2491 1159 1978 
L 1159 0 
L 581 0 
L 581 3500 
L 1159 3500 
L 1159 2956 
Q 1366 3272 1645 3428 
Q 1925 3584 2291 3584 
Q 2894 3584 3203 3211 
Q 3513 2838 3513 2113 
z
" transform="scale(0.015625)"/>
       <path id="DejaVuSans-61" d="M 2194 1759 
Q 1497 1759 1228 1600 
Q 959 1441 959 1056 
Q 959 750 1161 570 
Q 1363 391 1709 391 
Q 2188 391 2477 730 
Q 2766 1069 2766 1631 
L 2766 1759 
L 2194 1759 
z
M 3341 1997 
L 3341 0 
L 2766 0 
L 2766 531 
Q 2569 213 2275 61 
Q 1981 -91 1556 -91 
Q 1019 -91 701 211 
Q 384 513 384 1019 
Q 384 1609 779 1909 
Q 1175 2209 1959 2209 
L 2766 2209 
L 2766 2266 
Q 2766 2663 2505 2880 
Q 2244 3097 1772 3097 
Q 1472 3097 1187 3025 
Q 903 2953 641 2809 
L 641 3341 
Q 956 3463 1253 3523 
Q 1550 3584 1831 3584 
Q 2591 3584 2966 3190 
Q 3341 2797 3341 1997 
z
" transform="scale(0.015625)"/>
       <path id="DejaVuSans-6c" d="M 603 4863 
L 1178 4863 
L 1178 0 
L 603 0 
L 603 4863 
z
" transform="scale(0.015625)"/>
       <path id="DejaVuSans-56" d="M 1831 0 
L 50 4666 
L 709 4666 
L 2188 738 
L 3669 4666 
L 4325 4666 
L 2547 0 
L 1831 0 
z
" transform="scale(0.015625)"/>
       <path id="DejaVuSans-75" d="M 544 1381 
L 544 3500 
L 1119 3500 
L 1119 1403 
Q 1119 906 1312 657 
Q 1506 409 1894 409 
Q 2359 409 2629 706 
Q 2900 1003 2900 1516 
L 2900 3500 
L 3475 3500 
L 3475 0 
L 2900 0 
L 2900 538 
Q 2691 219 2414 64 
Q 2138 -91 1772 -91 
Q 1169 -91 856 284 
Q 544 659 544 1381 
z
M 1991 3584 
L 1991 3584 
z
" transform="scale(0.015625)"/>
      </defs>
      <use xlink:href="#DejaVuSans-53"/>
      <use xlink:href="#DejaVuSans-69" transform="translate(63.476562 0)"/>
      <use xlink:href="#DejaVuSans-67" transform="translate(91.259766 0)"/>
      <use xlink:href="#DejaVuSans-6e" transform="translate(154.736328 0)"/>
      <use xlink:href="#DejaVuSans-61" transform="translate(218.115234 0)"/>
      <use xlink:href="#DejaVuSans-6c" transform="translate(279.394531 0)"/>
      <use xlink:href="#DejaVuSans-20" transform="translate(307.177734 0)"/>
      <use xlink:href="#DejaVuSans-56" transform="translate(338.964844 0)"/>
      <use xlink:href="#DejaVuSans-61" transform="translate(399.623047 0)"/>
      <use xlink:href="#DejaVuSans-6c" transform="translate(460.902344 0)"/>
      <use xlink:href="#DejaVuSans-75" transform="translate(488.685547 0)"/>
      <use xlink:href="#DejaVuSans-65" transform="translate(552.064453 0)"/>
     </g>
    </g>
   </g>
   <g id="line2d_31">
    <path d="M 81.869886 105.826948 
L 83.572144 104.051035 
L 85.274401 143.739705 
L 86.976659 186.484543 
L 88.678916 210.254791 
L 90.381174 209.059964 
L 92.083431 179.295706 
L 93.785689 151.520743 
L 95.487946 133.549618 
L 97.190204 95.983901 
L 98.892461 63.162505 
L 100.594719 53.46476 
L 102.296976 80.686923 
L 103.999234 136.771072 
L 105.701491 179.284798 
L 107.403748 201.884543 
L 109.106006 209.245391 
L 110.808263 197.9805 
L 112.510521 181.60931 
L 114.212778 152.120824 
L 115.915036 94.985034 
L 117.617293 72.421467 
L 119.319551 117.560539 
L 121.021808 169.395978 
L 122.724066 201.929544 
L 124.426323 214.377218 
L 127.830838 196.532749 
L 129.533096 176.434069 
L 131.235353 122.297849 
L 132.937611 62.967178 
L 134.639868 32.398125 
L 136.342126 50.117668 
L 138.044383 101.931253 
L 139.74664 138.077487 
L 141.448898 159.320472 
L 143.151155 184.83301 
L 144.853413 199.090733 
L 146.55567 197.516533 
L 148.257928 167.605854 
L 149.960185 103.077431 
L 151.662443 70.292632 
L 153.3647 94.621414 
L 155.066958 122.577606 
L 156.769215 145.411776 
L 158.471473 173.329757 
L 160.17373 191.527637 
L 161.875988 200.14264 
L 163.578245 189.187445 
L 166.98276 103.924307 
L 168.685018 75.977309 
L 170.387275 74.172606 
L 172.089532 92.009446 
L 173.79179 93.112829 
L 175.494047 107.814474 
L 177.196305 148.485388 
L 178.898562 178.065372 
L 180.60082 188.308522 
L 182.303077 174.570272 
L 184.005335 139.048669 
L 185.707592 119.752375 
L 187.40985 117.914804 
L 189.112107 96.745296 
L 190.814365 86.71645 
L 192.516622 112.45637 
L 194.21888 146.161981 
L 195.921137 171.895837 
L 197.623395 174.802628 
L 199.325652 158.542464 
L 201.02791 153.128576 
L 202.730167 151.591592 
L 204.432424 145.358538 
L 206.134682 125.827024 
L 207.836939 80.677199 
L 209.539197 74.545135 
L 211.241454 115.335171 
L 212.943712 148.440991 
L 214.645969 165.366559 
L 216.348227 173.70697 
L 218.050484 174.966172 
L 219.752742 176.380567 
L 221.454999 163.13584 
L 223.157257 108.491146 
L 224.859514 64.044551 
L 226.561772 66.12974 
L 228.264029 88.449302 
L 229.966287 115.971228 
L 231.668544 127.873633 
L 233.370802 138.191119 
L 236.775317 195.923523 
L 238.477574 204.729013 
L 240.179831 175.507529 
L 241.882089 113.971294 
L 243.584346 86.113155 
L 245.286604 101.053655 
L 246.988861 112.686824 
L 248.691119 130.395702 
L 252.095634 198.641143 
L 253.797891 214.44277 
L 255.500149 200.998967 
L 257.202406 147.891112 
L 258.904664 99.907461 
L 260.606921 80.679052 
L 262.309179 68.644034 
L 264.011436 69.408302 
L 265.713694 74.260557 
L 267.415951 104.042826 
L 269.118209 158.143964 
L 270.820466 201.781226 
L 272.522723 222.034587 
L 274.224981 206.602798 
L 275.927238 167.974168 
L 277.629496 140.288627 
L 279.331753 121.246733 
L 281.034011 91.927136 
L 282.736268 95.310889 
L 286.140783 201.281706 
L 287.843041 226.169974 
L 289.545298 218.728841 
L 291.247556 186.263304 
L 294.652071 136.852357 
L 296.354328 97.506246 
L 298.056586 61.753312 
L 299.758843 43.349411 
L 301.461101 73.244 
L 303.163358 134.507842 
L 304.865615 174.921876 
L 306.567873 193.407733 
L 308.27013 196.957853 
L 309.972388 188.733584 
L 311.674645 176.629178 
L 313.376903 144.76838 
L 315.07916 88.064143 
L 316.781418 71.463336 
L 320.185933 160.920751 
L 321.88819 187.234579 
L 323.590448 192.894385 
L 325.292705 185.867542 
L 326.994963 185.564006 
L 328.69722 174.922967 
L 330.399478 141.309684 
L 332.101735 99.197704 
L 333.803993 66.59643 
L 335.50625 78.303286 
L 337.208507 115.747367 
L 338.910765 133.082356 
L 340.613022 147.327485 
L 342.31528 170.208395 
L 344.017537 186.395337 
L 345.719795 190.203642 
L 347.422052 168.385214 
L 349.12431 120.357137 
L 350.826567 100.378479 
L 352.528825 113.438359 
L 354.231082 116.166196 
L 355.93334 120.919262 
L 357.635597 133.983873 
L 359.337855 152.403637 
L 361.040112 174.849567 
L 362.74237 181.781193 
L 364.444627 169.759066 
L 366.146885 153.378253 
L 367.849142 135.269001 
L 369.551399 129.442837 
L 371.253657 122.043397 
L 372.955914 91.561355 
L 374.658172 93.524003 
L 376.360429 133.496027 
L 378.062687 168.461981 
L 379.764944 185.09449 
L 381.467202 183.111981 
L 383.169459 165.521301 
L 384.871717 156.599575 
L 386.573974 141.907993 
L 388.276232 93.918305 
L 389.978489 59.294905 
L 391.680747 62.540849 
L 393.383004 94.31101 
L 395.085262 134.727379 
L 396.787519 157.336007 
L 398.489777 168.483992 
L 400.192034 186.490572 
L 401.894291 196.669038 
L 403.596549 192.385867 
L 405.298806 156.821625 
L 407.001064 90.594997 
L 408.703321 73.224794 
L 412.107836 143.502722 
L 413.810094 169.565431 
L 415.512351 192.458961 
L 417.214609 205.387169 
L 418.916866 208.591093 
L 420.619124 186.362931 
L 422.321381 121.258365 
L 424.023639 65.656016 
L 425.725896 47.459254 
L 427.428154 61.390726 
L 429.130411 92.805673 
L 430.832669 114.145817 
L 432.534926 142.293363 
L 434.237183 184.631795 
L 435.939441 215.155546 
L 437.641698 222.5897 
L 439.343956 187.736856 
L 441.046213 125.146517 
L 442.748471 98.705146 
L 444.450728 105.389623 
L 446.152986 111.582432 
L 447.855243 134.387234 
L 449.557501 180.425827 
L 451.259758 217.32819 
L 452.962016 228.885299 
L 454.664273 207.965606 
L 456.366531 156.099956 
L 458.068788 116.404559 
L 459.771046 92.210512 
L 461.473303 76.703206 
L 463.175561 72.524023 
L 464.877818 69.211756 
L 466.580076 103.856786 
L 468.282333 158.385563 
L 469.98459 194.530172 
L 471.686848 205.84541 
L 473.389105 190.062575 
L 475.091363 159.654763 
L 478.495878 121.490726 
L 480.198135 84.949593 
L 481.900393 88.161969 
L 485.304908 183.283347 
L 487.007165 203.47545 
L 488.709423 193.531646 
L 490.41168 169.273458 
L 493.816195 152.610052 
L 495.518453 130.673279 
L 498.922968 64.493917 
L 500.625225 84.704361 
L 502.327482 131.907163 
L 504.02974 157.744399 
L 505.731997 169.912235 
L 507.434255 178.40925 
L 509.136512 182.044657 
L 510.83877 180.562968 
L 512.541027 157.697169 
L 514.243285 102.744908 
L 515.945542 84.453131 
L 517.6478 109.009864 
L 519.350057 129.544844 
L 521.052315 143.496483 
L 522.754572 146.520219 
L 524.45683 152.802735 
L 526.159087 174.830122 
L 527.861345 187.35338 
L 529.563602 180.777296 
L 531.26586 154.178423 
L 532.968117 117.190323 
L 534.670374 111.965304 
L 536.372632 120.816499 
L 538.074889 113.23901 
L 539.777147 123.487539 
L 541.479404 158.693697 
L 543.181662 187.079826 
L 544.883919 199.697592 
L 546.586177 188.243885 
L 548.288434 149.965706 
L 549.990692 129.425018 
L 551.692949 118.205658 
L 553.395207 90.029211 
L 555.097464 73.52205 
L 556.799722 76.917947 
L 558.501979 109.332485 
L 560.204237 155.935104 
L 561.906494 185.523039 
L 563.608752 198.701004 
L 565.311009 196.709269 
L 567.013266 179.662665 
L 568.715524 164.196232 
L 570.417781 132.796381 
L 572.120039 83.195743 
L 573.822296 83.652153 
L 575.524554 134.108613 
L 577.226811 178.013108 
L 578.929069 202.810429 
L 580.631326 206.923239 
L 582.333584 193.718237 
L 584.035841 183.649176 
L 585.738099 155.187717 
L 587.440356 93.732007 
L 589.142614 44.106607 
L 589.142614 44.106607 
" clip-path="url(#pc5b8dc7020)" style="fill: none; stroke-dasharray: 5.55,2.4; stroke-dashoffset: 0; stroke: #008000; stroke-width: 1.5"/>
   </g>
   <g id="line2d_32">
    <path d="M 81.869886 155.036176 
L 83.572144 125.464326 
L 85.274401 130.686598 
L 86.976659 172.716735 
L 88.678916 134.376559 
L 90.381174 136.443115 
L 92.083431 174.442864 
L 93.785689 132.417076 
L 95.487946 128.770636 
L 97.190204 110.758713 
L 98.892461 145.957822 
L 100.594719 111.409948 
L 102.296976 116.107224 
L 103.999234 157.885812 
L 105.701491 176.107469 
L 107.403748 189.462377 
L 109.106006 156.22496 
L 110.808263 139.884723 
L 112.510521 167.717291 
L 114.212778 143.900015 
L 115.915036 106.85162 
L 117.617293 115.110514 
L 119.319551 149.139502 
L 121.021808 149.213162 
L 122.724066 158.947852 
L 124.426323 148.315376 
L 126.128581 160.535891 
L 127.830838 145.882671 
L 129.533096 172.002676 
L 131.235353 167.052459 
L 132.937611 164.348601 
L 134.639868 149.923433 
L 136.342126 167.105195 
L 138.044383 176.701198 
L 139.74664 179.300411 
L 141.448898 150.409831 
L 143.151155 181.662227 
L 144.853413 233.998125 
L 146.55567 192.735046 
L 148.257928 171.597758 
L 149.960185 147.570821 
L 151.662443 130.002456 
L 153.3647 168.619307 
L 155.066958 106.956971 
L 156.769215 135.116146 
L 158.471473 140.578946 
L 160.17373 144.786879 
L 161.875988 148.241069 
L 163.578245 179.537863 
L 165.280503 199.480567 
L 166.98276 143.748993 
L 168.685018 138.879076 
L 170.387275 171.757236 
L 172.089532 151.96456 
L 173.79179 141.650679 
L 175.494047 143.98822 
L 177.196305 167.193019 
L 178.898562 216.965756 
L 180.60082 167.110121 
L 182.303077 148.496658 
L 184.005335 150.287815 
L 185.707592 121.294045 
L 187.40985 123.73599 
L 189.112107 108.66362 
L 190.814365 104.66172 
L 192.516622 117.341541 
L 194.21888 127.931686 
L 195.921137 162.761597 
L 197.623395 156.91447 
L 199.325652 142.435356 
L 201.02791 118.57343 
L 202.730167 155.567799 
L 204.432424 154.519886 
L 206.134682 136.648121 
L 207.836939 103.657597 
L 209.539197 127.492023 
L 211.241454 173.765401 
L 212.943712 163.469279 
L 214.645969 167.734005 
L 216.348227 149.245986 
L 218.050484 134.662207 
L 219.752742 170.476551 
L 221.454999 127.246877 
L 223.157257 109.732373 
L 224.859514 121.651708 
L 226.561772 116.531873 
L 228.264029 90.094568 
L 229.966287 156.655948 
L 231.668544 139.585873 
L 233.370802 143.556055 
L 235.073059 125.214018 
L 236.775317 194.612845 
L 238.477574 190.220002 
L 240.179831 154.936448 
L 241.882089 117.074181 
L 243.584346 126.379058 
L 245.286604 167.871822 
L 246.988861 173.169257 
L 248.691119 145.264187 
L 250.393376 145.118826 
L 252.095634 182.829194 
L 253.797891 140.938238 
L 255.500149 149.642943 
L 257.202406 151.731143 
L 258.904664 105.978484 
L 260.606921 127.97548 
L 262.309179 102.20614 
L 264.011436 107.367713 
L 265.713694 110.896367 
L 267.415951 116.612364 
L 269.118209 131.730509 
L 270.820466 199.668964 
L 272.522723 233.825117 
L 274.224981 122.401045 
L 275.927238 108.940955 
L 277.629496 167.996932 
L 281.034011 113.495055 
L 282.736268 85.209669 
L 284.438526 127.586465 
L 286.140783 143.634647 
L 287.843041 136.264982 
L 289.545298 153.709269 
L 291.247556 159.657286 
L 292.949813 122.402644 
L 294.652071 133.299631 
L 296.354328 153.955471 
L 299.758843 124.011342 
L 301.461101 124.081418 
L 303.163358 177.276477 
L 304.865615 177.536759 
L 306.567873 190.451358 
L 308.27013 137.47649 
L 309.972388 130.346596 
L 311.674645 175.30769 
L 313.376903 143.700111 
L 315.07916 84.952379 
L 316.781418 43.144762 
L 318.483675 124.151787 
L 320.185933 86.476779 
L 321.88819 147.160487 
L 323.590448 133.006166 
L 325.292705 133.828664 
L 326.994963 129.230431 
L 330.399478 148.189029 
L 332.101735 128.394452 
L 333.803993 97.691411 
L 337.208507 143.600117 
L 338.910765 134.891408 
L 340.613022 124.898566 
L 342.31528 139.877489 
L 344.017537 183.487065 
L 345.719795 158.00828 
L 347.422052 138.302276 
L 349.12431 90.038336 
L 350.826567 63.563787 
L 352.528825 102.958624 
L 354.231082 63.393047 
L 355.93334 113.561805 
L 357.635597 115.974266 
L 359.337855 141.269869 
L 361.040112 157.086418 
L 362.74237 191.457753 
L 364.444627 161.734539 
L 366.146885 143.959026 
L 367.849142 133.775583 
L 369.551399 128.428857 
L 371.253657 148.946991 
L 372.955914 146.263538 
L 374.658172 130.535026 
L 376.360429 128.520303 
L 378.062687 179.77127 
L 379.764944 132.742059 
L 381.467202 167.805628 
L 383.169459 155.936889 
L 384.871717 130.967089 
L 386.573974 113.641143 
L 388.276232 85.550044 
L 389.978489 86.051873 
L 391.680747 97.515111 
L 393.383004 124.613595 
L 395.085262 114.492938 
L 396.787519 169.321365 
L 398.489777 116.02268 
L 400.192034 123.581145 
L 401.894291 165.022094 
L 403.596549 185.96999 
L 405.298806 137.290418 
L 407.001064 121.603688 
L 408.703321 118.333572 
L 410.405579 172.608192 
L 412.107836 167.952467 
L 413.810094 156.95096 
L 415.512351 118.508094 
L 417.214609 152.883 
L 418.916866 127.361591 
L 420.619124 125.316989 
L 422.321381 128.479835 
L 425.725896 100.916171 
L 427.428154 111.909879 
L 429.130411 133.190869 
L 430.832669 131.574744 
L 432.534926 135.20129 
L 434.237183 139.658395 
L 435.939441 204.42795 
L 437.641698 201.289474 
L 439.343956 128.086309 
L 441.046213 121.999327 
L 442.748471 116.884668 
L 444.450728 115.791135 
L 446.152986 102.749264 
L 447.855243 100.62972 
L 449.557501 102.955028 
L 451.259758 152.496579 
L 452.962016 151.057685 
L 454.664273 166.503971 
L 456.366531 147.966687 
L 458.068788 114.261843 
L 459.771046 130.947034 
L 461.473303 131.03652 
L 463.175561 127.533763 
L 464.877818 83.417366 
L 466.580076 146.88979 
L 468.282333 151.104541 
L 469.98459 194.766359 
L 471.686848 196.450878 
L 473.389105 133.922771 
L 475.091363 138.763526 
L 476.79362 126.034888 
L 478.495878 108.210928 
L 480.198135 84.189771 
L 481.900393 84.445952 
L 483.60265 103.183572 
L 485.304908 101.324555 
L 487.007165 126.431382 
L 488.709423 143.631225 
L 490.41168 105.938493 
L 492.113938 114.389083 
L 493.816195 135.734199 
L 495.518453 135.369989 
L 497.22071 119.881498 
L 498.922968 84.933227 
L 500.625225 116.692521 
L 502.327482 141.364994 
L 504.02974 128.706852 
L 505.731997 141.280698 
L 507.434255 116.359587 
L 509.136512 151.514909 
L 510.83877 127.862324 
L 512.541027 93.215004 
L 514.243285 61.765243 
L 515.945542 56.211529 
L 517.6478 89.994968 
L 519.350057 78.43711 
L 521.052315 151.102841 
L 522.754572 112.986952 
L 524.45683 122.122638 
L 526.159087 179.308183 
L 527.861345 200.493258 
L 529.563602 152.170157 
L 531.26586 109.232437 
L 532.968117 111.637405 
L 534.670374 142.017647 
L 536.372632 163.833704 
L 538.074889 160.23829 
L 539.777147 123.141352 
L 541.479404 132.771651 
L 543.181662 170.069246 
L 544.883919 136.480234 
L 546.586177 145.813845 
L 548.288434 125.730396 
L 549.990692 99.386078 
L 551.692949 106.935154 
L 553.395207 106.741373 
L 555.097464 151.029225 
L 556.799722 102.126087 
L 558.501979 109.715435 
L 560.204237 154.416055 
L 561.906494 183.436624 
L 563.608752 174.382474 
L 565.311009 123.211034 
L 567.013266 141.862424 
L 568.715524 177.278843 
L 570.417781 139.616495 
L 572.120039 119.683628 
L 573.822296 116.45168 
L 575.524554 154.171103 
L 577.226811 155.145735 
L 578.929069 168.775469 
L 580.631326 186.918904 
L 582.333584 188.876157 
L 584.035841 137.941904 
L 585.738099 139.597546 
L 587.440356 150.149386 
L 589.142614 148.214318 
L 589.142614 148.214318 
" clip-path="url(#pc5b8dc7020)" style="fill: none; stroke: #ff0000; stroke-width: 1.5; stroke-linecap: square"/>
   </g>
   <g id="patch_3">
    <path d="M 56.50625 244.078125 
L 56.50625 22.318125 
" style="fill: none; stroke: #000000; stroke-width: 0.8; stroke-linejoin: miter; stroke-linecap: square"/>
   </g>
   <g id="patch_4">
    <path d="M 614.50625 244.078125 
L 614.50625 22.318125 
" style="fill: none; stroke: #000000; stroke-width: 0.8; stroke-linejoin: miter; stroke-linecap: square"/>
   </g>
   <g id="patch_5">
    <path d="M 56.50625 244.078125 
L 614.50625 244.078125 
" style="fill: none; stroke: #000000; stroke-width: 0.8; stroke-linejoin: miter; stroke-linecap: square"/>
   </g>
   <g id="patch_6">
    <path d="M 56.50625 22.318125 
L 614.50625 22.318125 
" style="fill: none; stroke: #000000; stroke-width: 0.8; stroke-linejoin: miter; stroke-linecap: square"/>
   </g>
   <g id="text_18">
    <!-- Task Performance: NARMA10 (validation set) -->
    <g transform="translate(201.816875 16.318125) scale(0.12 -0.12)">
     <defs>
      <path id="DejaVuSans-6b" d="M 581 4863 
L 1159 4863 
L 1159 1991 
L 2875 3500 
L 3609 3500 
L 1753 1863 
L 3688 0 
L 2938 0 
L 1159 1709 
L 1159 0 
L 581 0 
L 581 4863 
z
" transform="scale(0.015625)"/>
      <path id="DejaVuSans-50" d="M 1259 4147 
L 1259 2394 
L 2053 2394 
Q 2494 2394 2734 2622 
Q 2975 2850 2975 3272 
Q 2975 3691 2734 3919 
Q 2494 4147 2053 4147 
L 1259 4147 
z
M 628 4666 
L 2053 4666 
Q 2838 4666 3239 4311 
Q 3641 3956 3641 3272 
Q 3641 2581 3239 2228 
Q 2838 1875 2053 1875 
L 1259 1875 
L 1259 0 
L 628 0 
L 628 4666 
z
" transform="scale(0.015625)"/>
      <path id="DejaVuSans-72" d="M 2631 2963 
Q 2534 3019 2420 3045 
Q 2306 3072 2169 3072 
Q 1681 3072 1420 2755 
Q 1159 2438 1159 1844 
L 1159 0 
L 581 0 
L 581 3500 
L 1159 3500 
L 1159 2956 
Q 1341 3275 1631 3429 
Q 1922 3584 2338 3584 
Q 2397 3584 2469 3576 
Q 2541 3569 2628 3553 
L 2631 2963 
z
" transform="scale(0.015625)"/>
      <path id="DejaVuSans-66" d="M 2375 4863 
L 2375 4384 
L 1825 4384 
Q 1516 4384 1395 4259 
Q 1275 4134 1275 3809 
L 1275 3500 
L 2222 3500 
L 2222 3053 
L 1275 3053 
L 1275 0 
L 697 0 
L 697 3053 
L 147 3053 
L 147 3500 
L 697 3500 
L 697 3744 
Q 697 4328 969 4595 
Q 1241 4863 1831 4863 
L 2375 4863 
z
" transform="scale(0.015625)"/>
      <path id="DejaVuSans-6f" d="M 1959 3097 
Q 1497 3097 1228 2736 
Q 959 2375 959 1747 
Q 959 1119 1226 758 
Q 1494 397 1959 397 
Q 2419 397 2687 759 
Q 2956 1122 2956 1747 
Q 2956 2369 2687 2733 
Q 2419 3097 1959 3097 
z
M 1959 3584 
Q 2709 3584 3137 3096 
Q 3566 2609 3566 1747 
Q 3566 888 3137 398 
Q 2709 -91 1959 -91 
Q 1206 -91 779 398 
Q 353 888 353 1747 
Q 353 2609 779 3096 
Q 1206 3584 1959 3584 
z
" transform="scale(0.015625)"/>
      <path id="DejaVuSans-63" d="M 3122 3366 
L 3122 2828 
Q 2878 2963 2633 3030 
Q 2388 3097 2138 3097 
Q 1578 3097 1268 2742 
Q 959 2388 959 1747 
Q 959 1106 1268 751 
Q 1578 397 2138 397 
Q 2388 397 2633 464 
Q 2878 531 3122 666 
L 3122 134 
Q 2881 22 2623 -34 
Q 2366 -91 2075 -91 
Q 1284 -91 818 406 
Q 353 903 353 1747 
Q 353 2603 823 3093 
Q 1294 3584 2113 3584 
Q 2378 3584 2631 3529 
Q 2884 3475 3122 3366 
z
" transform="scale(0.015625)"/>
      <path id="DejaVuSans-3a" d="M 750 794 
L 1409 794 
L 1409 0 
L 750 0 
L 750 794 
z
M 750 3309 
L 1409 3309 
L 1409 2516 
L 750 2516 
L 750 3309 
z
" transform="scale(0.015625)"/>
      <path id="DejaVuSans-4e" d="M 628 4666 
L 1478 4666 
L 3547 763 
L 3547 4666 
L 4159 4666 
L 4159 0 
L 3309 0 
L 1241 3903 
L 1241 0 
L 628 0 
L 628 4666 
z
" transform="scale(0.015625)"/>
      <path id="DejaVuSans-41" d="M 2188 4044 
L 1331 1722 
L 3047 1722 
L 2188 4044 
z
M 1831 4666 
L 2547 4666 
L 4325 0 
L 3669 0 
L 3244 1197 
L 1141 1197 
L 716 0 
L 50 0 
L 1831 4666 
z
" transform="scale(0.015625)"/>
      <path id="DejaVuSans-52" d="M 2841 2188 
Q 3044 2119 3236 1894 
Q 3428 1669 3622 1275 
L 4263 0 
L 3584 0 
L 2988 1197 
Q 2756 1666 2539 1819 
Q 2322 1972 1947 1972 
L 1259 1972 
L 1259 0 
L 628 0 
L 628 4666 
L 2053 4666 
Q 2853 4666 3247 4331 
Q 3641 3997 3641 3322 
Q 3641 2881 3436 2590 
Q 3231 2300 2841 2188 
z
M 1259 4147 
L 1259 2491 
L 2053 2491 
Q 2509 2491 2742 2702 
Q 2975 2913 2975 3322 
Q 2975 3731 2742 3939 
Q 2509 4147 2053 4147 
L 1259 4147 
z
" transform="scale(0.015625)"/>
      <path id="DejaVuSans-4d" d="M 628 4666 
L 1569 4666 
L 2759 1491 
L 3956 4666 
L 4897 4666 
L 4897 0 
L 4281 0 
L 4281 4097 
L 3078 897 
L 2444 897 
L 1241 4097 
L 1241 0 
L 628 0 
L 628 4666 
z
" transform="scale(0.015625)"/>
      <path id="DejaVuSans-28" d="M 1984 4856 
Q 1566 4138 1362 3434 
Q 1159 2731 1159 2009 
Q 1159 1288 1364 580 
Q 1569 -128 1984 -844 
L 1484 -844 
Q 1016 -109 783 600 
Q 550 1309 550 2009 
Q 550 2706 781 3412 
Q 1013 4119 1484 4856 
L 1984 4856 
z
" transform="scale(0.015625)"/>
      <path id="DejaVuSans-76" d="M 191 3500 
L 800 3500 
L 1894 563 
L 2988 3500 
L 3597 3500 
L 2284 0 
L 1503 0 
L 191 3500 
z
" transform="scale(0.015625)"/>
      <path id="DejaVuSans-64" d="M 2906 2969 
L 2906 4863 
L 3481 4863 
L 3481 0 
L 2906 0 
L 2906 525 
Q 2725 213 2448 61 
Q 2172 -91 1784 -91 
Q 1150 -91 751 415 
Q 353 922 353 1747 
Q 353 2572 751 3078 
Q 1150 3584 1784 3584 
Q 2172 3584 2448 3432 
Q 2725 3281 2906 2969 
z
M 947 1747 
Q 947 1113 1208 752 
Q 1469 391 1925 391 
Q 2381 391 2643 752 
Q 2906 1113 2906 1747 
Q 2906 2381 2643 2742 
Q 2381 3103 1925 3103 
Q 1469 3103 1208 2742 
Q 947 2381 947 1747 
z
" transform="scale(0.015625)"/>
      <path id="DejaVuSans-29" d="M 513 4856 
L 1013 4856 
Q 1481 4119 1714 3412 
Q 1947 2706 1947 2009 
Q 1947 1309 1714 600 
Q 1481 -109 1013 -844 
L 513 -844 
Q 928 -128 1133 580 
Q 1338 1288 1338 2009 
Q 1338 2731 1133 3434 
Q 928 4138 513 4856 
z
" transform="scale(0.015625)"/>
     </defs>
     <use xlink:href="#DejaVuSans-54"/>
     <use xlink:href="#DejaVuSans-61" transform="translate(44.583984 0)"/>
     <use xlink:href="#DejaVuSans-73" transform="translate(105.863281 0)"/>
     <use xlink:href="#DejaVuSans-6b" transform="translate(157.962891 0)"/>
     <use xlink:href="#DejaVuSans-20" transform="translate(215.873047 0)"/>
     <use xlink:href="#DejaVuSans-50" transform="translate(247.660156 0)"/>
     <use xlink:href="#DejaVuSans-65" transform="translate(304.337891 0)"/>
     <use xlink:href="#DejaVuSans-72" transform="translate(365.861328 0)"/>
     <use xlink:href="#DejaVuSans-66" transform="translate(406.974609 0)"/>
     <use xlink:href="#DejaVuSans-6f" transform="translate(442.179688 0)"/>
     <use xlink:href="#DejaVuSans-72" transform="translate(503.361328 0)"/>
     <use xlink:href="#DejaVuSans-6d" transform="translate(542.724609 0)"/>
     <use xlink:href="#DejaVuSans-61" transform="translate(640.136719 0)"/>
     <use xlink:href="#DejaVuSans-6e" transform="translate(701.416016 0)"/>
     <use xlink:href="#DejaVuSans-63" transform="translate(764.794922 0)"/>
     <use xlink:href="#DejaVuSans-65" transform="translate(819.775391 0)"/>
     <use xlink:href="#DejaVuSans-3a" transform="translate(881.298828 0)"/>
     <use xlink:href="#DejaVuSans-20" transform="translate(914.990234 0)"/>
     <use xlink:href="#DejaVuSans-4e" transform="translate(946.777344 0)"/>
     <use xlink:href="#DejaVuSans-41" transform="translate(1021.582031 0)"/>
     <use xlink:href="#DejaVuSans-52" transform="translate(1089.990234 0)"/>
     <use xlink:href="#DejaVuSans-4d" transform="translate(1159.472656 0)"/>
     <use xlink:href="#DejaVuSans-41" transform="translate(1245.751953 0)"/>
     <use xlink:href="#DejaVuSans-31" transform="translate(1314.160156 0)"/>
     <use xlink:href="#DejaVuSans-30" transform="translate(1377.783203 0)"/>
     <use xlink:href="#DejaVuSans-20" transform="translate(1441.40625 0)"/>
     <use xlink:href="#DejaVuSans-28" transform="translate(1473.193359 0)"/>
     <use xlink:href="#DejaVuSans-76" transform="translate(1512.207031 0)"/>
     <use xlink:href="#DejaVuSans-61" transform="translate(1571.386719 0)"/>
     <use xlink:href="#DejaVuSans-6c" transform="translate(1632.666016 0)"/>
     <use xlink:href="#DejaVuSans-69" transform="translate(1660.449219 0)"/>
     <use xlink:href="#DejaVuSans-64" transform="translate(1688.232422 0)"/>
     <use xlink:href="#DejaVuSans-61" transform="translate(1751.708984 0)"/>
     <use xlink:href="#DejaVuSans-74" transform="translate(1812.988281 0)"/>
     <use xlink:href="#DejaVuSans-69" transform="translate(1852.197266 0)"/>
     <use xlink:href="#DejaVuSans-6f" transform="translate(1879.980469 0)"/>
     <use xlink:href="#DejaVuSans-6e" transform="translate(1941.162109 0)"/>
     <use xlink:href="#DejaVuSans-20" transform="translate(2004.541016 0)"/>
     <use xlink:href="#DejaVuSans-73" transform="translate(2036.328125 0)"/>
     <use xlink:href="#DejaVuSans-65" transform="translate(2088.427734 0)"/>
     <use xlink:href="#DejaVuSans-74" transform="translate(2149.951172 0)"/>
     <use xlink:href="#DejaVuSans-29" transform="translate(2189.160156 0)"/>
    </g>
   </g>
   <g id="legend_1">
    <g id="patch_7">
     <path d="M 525.832813 59.674375 
L 607.50625 59.674375 
Q 609.50625 59.674375 609.50625 57.674375 
L 609.50625 29.318125 
Q 609.50625 27.318125 607.50625 27.318125 
L 525.832813 27.318125 
Q 523.832813 27.318125 523.832813 29.318125 
L 523.832813 57.674375 
Q 523.832813 59.674375 525.832813 59.674375 
z
" style="fill: #ffffff; opacity: 0.8; stroke: #cccccc; stroke-linejoin: miter"/>
    </g>
    <g id="line2d_33">
     <path d="M 527.832813 35.416562 
L 537.832813 35.416562 
L 547.832813 35.416562 
" style="fill: none; stroke-dasharray: 5.55,2.4; stroke-dashoffset: 0; stroke: #008000; stroke-width: 1.5"/>
    </g>
    <g id="text_19">
     <!-- Target -->
     <g transform="translate(555.832813 38.916562) scale(0.1 -0.1)">
      <use xlink:href="#DejaVuSans-54"/>
      <use xlink:href="#DejaVuSans-61" transform="translate(44.583984 0)"/>
      <use xlink:href="#DejaVuSans-72" transform="translate(105.863281 0)"/>
      <use xlink:href="#DejaVuSans-67" transform="translate(145.226562 0)"/>
      <use xlink:href="#DejaVuSans-65" transform="translate(208.703125 0)"/>
      <use xlink:href="#DejaVuSans-74" transform="translate(270.226562 0)"/>
     </g>
    </g>
    <g id="line2d_34">
     <path d="M 527.832813 50.094687 
L 537.832813 50.094687 
L 547.832813 50.094687 
" style="fill: none; stroke: #ff0000; stroke-width: 1.5; stroke-linecap: square"/>
    </g>
    <g id="text_20">
     <!-- Prediction -->
     <g transform="translate(555.832813 53.594687) scale(0.1 -0.1)">
      <use xlink:href="#DejaVuSans-50"/>
      <use xlink:href="#DejaVuSans-72" transform="translate(58.552734 0)"/>
      <use xlink:href="#DejaVuSans-65" transform="translate(97.416016 0)"/>
      <use xlink:href="#DejaVuSans-64" transform="translate(158.939453 0)"/>
      <use xlink:href="#DejaVuSans-69" transform="translate(222.416016 0)"/>
      <use xlink:href="#DejaVuSans-63" transform="translate(250.199219 0)"/>
      <use xlink:href="#DejaVuSans-74" transform="translate(305.179688 0)"/>
      <use xlink:href="#DejaVuSans-69" transform="translate(344.388672 0)"/>
      <use xlink:href="#DejaVuSans-6f" transform="translate(372.171875 0)"/>
      <use xlink:href="#DejaVuSans-6e" transform="translate(433.353516 0)"/>
     </g>
    </g>
   </g>
  </g>
 </g>
 <defs>
  <clipPath id="pc5b8dc7020">
   <rect x="56.50625" y="22.318125" width="558" height="221.76"/>
  </clipPath>
 </defs>
</svg>
