<?xml version="1.0" encoding="utf-8" standalone="no"?>
<!DOCTYPE svg PUBLIC "-//W3C//DTD SVG 1.1//EN"
  "http://www.w3.org/Graphics/SVG/1.1/DTD/svg11.dtd">
<svg xmlns:xlink="http://www.w3.org/1999/xlink" width="615.34375pt" height="281.634375pt" viewBox="0 0 615.34375 281.634375" xmlns="http://www.w3.org/2000/svg" version="1.1">
 <metadata>
  <rdf:RDF xmlns:dc="http://purl.org/dc/elements/1.1/" xmlns:cc="http://creativecommons.org/ns#" xmlns:rdf="http://www.w3.org/1999/02/22-rdf-syntax-ns#">
   <cc:Work>
    <dc:type rdf:resource="http://purl.org/dc/dcmitype/StillImage"/>
    <dc:date>2026-03-19T17:23:02.636301</dc:date>
    <dc:format>image/svg+xml</dc:format>
    <dc:creator>
     <cc:Agent>
      <dc:title>Matplotlib v3.10.8, https://matplotlib.org/</dc:title>
     </cc:Agent>
    </dc:creator>
   </cc:Work>
  </rdf:RDF>
 </metadata>
 <defs>
  <style type="text/css">*{stroke-linejoin: round; stroke-linecap: butt}</style>
 </defs>
 <g id="figure_1">
  <g id="patch_1">
   <path d="M 0 281.634375 
L 615.34375 281.634375 
L 615.34375 0 
L 0 0 
z
" style="fill: #ffffff"/>
  </g>
  <g id="axes_1">
   <g id="patch_2">
    <path d="M 50.14375 244.078125 
L 608.14375 244.078125 
L 608.14375 22.318125 
L 50.14375 22.318125 
z
" style="fill: #ffffff"/>
   </g>
   <g id="matplotlib.axis_1">
    <g id="xtick_1">
     <g id="line2d_1">
      <path d="M 75.507386 244.078125 
L 75.507386 22.318125 
" clip-path="url(#pf05cc0f8e7)" style="fill: none; stroke: #b0b0b0; stroke-opacity: 0.3; stroke-width: 0.8; stroke-linecap: square"/>
     </g>
     <g id="line2d_2">
      <defs>
       <path id="mb61eed8575" d="M 0 0 
L 0 3.5 
" style="stroke: #000000; stroke-width: 0.8"/>
      </defs>
      <g>
       <use xlink:href="#mb61eed8575" x="75.507386" y="244.078125" style="stroke: #000000; stroke-width: 0.8"/>
      </g>
     </g>
     <g id="text_1">
      <!-- 0 -->
      <g transform="translate(72.326136 258.676562) scale(0.1 -0.1)">
       <defs>
        <path id="DejaVuSans-30" d="M 2034 4250 
Q 1547 4250 1301 3770 
Q 1056 3291 1056 2328 
Q 1056 1369 1301 889 
Q 1547 409 2034 409 
Q 2525 409 2770 889 
Q 3016 1369 3016 2328 
Q 3016 3291 2770 3770 
Q 2525 4250 2034 4250 
z
M 2034 4750 
Q 2819 4750 3233 4129 
Q 3647 3509 3647 2328 
Q 3647 1150 3233 529 
Q 2819 -91 2034 -91 
Q 1250 -91 836 529 
Q 422 1150 422 2328 
Q 422 3509 836 4129 
Q 1250 4750 2034 4750 
z
" transform="scale(0.015625)"/>
       </defs>
       <use xlink:href="#DejaVuSans-30"/>
      </g>
     </g>
    </g>
    <g id="xtick_2">
     <g id="line2d_3">
      <path d="M 160.62026 244.078125 
L 160.62026 22.318125 
" clip-path="url(#pf05cc0f8e7)" style="fill: none; stroke: #b0b0b0; stroke-opacity: 0.3; stroke-width: 0.8; stroke-linecap: square"/>
     </g>
     <g id="line2d_4">
      <g>
       <use xlink:href="#mb61eed8575" x="160.62026" y="244.078125" style="stroke: #000000; stroke-width: 0.8"/>
      </g>
     </g>
     <g id="text_2">
      <!-- 50 -->
      <g transform="translate(154.25776 258.676562) scale(0.1 -0.1)">
       <defs>
        <path id="DejaVuSans-35" d="M 691 4666 
L 3169 4666 
L 3169 4134 
L 1269 4134 
L 1269 2991 
Q 1406 3038 1543 3061 
Q 1681 3084 1819 3084 
Q 2600 3084 3056 2656 
Q 3513 2228 3513 1497 
Q 3513 744 3044 326 
Q 2575 -91 1722 -91 
Q 1428 -91 1123 -41 
Q 819 9 494 109 
L 494 744 
Q 775 591 1075 516 
Q 1375 441 1709 441 
Q 2250 441 2565 725 
Q 2881 1009 2881 1497 
Q 2881 1984 2565 2268 
Q 2250 2553 1709 2553 
Q 1456 2553 1204 2497 
Q 953 2441 691 2322 
L 691 4666 
z
" transform="scale(0.015625)"/>
       </defs>
       <use xlink:href="#DejaVuSans-35"/>
       <use xlink:href="#DejaVuSans-30" transform="translate(63.623047 0)"/>
      </g>
     </g>
    </g>
    <g id="xtick_3">
     <g id="line2d_5">
      <path d="M 245.733134 244.078125 
L 245.733134 22.318125 
" clip-path="url(#pf05cc0f8e7)" style="fill: none; stroke: #b0b0b0; stroke-opacity: 0.3; stroke-width: 0.8; stroke-linecap: square"/>
     </g>
     <g id="line2d_6">
      <g>
       <use xlink:href="#mb61eed8575" x="245.733134" y="244.078125" style="stroke: #000000; stroke-width: 0.8"/>
      </g>
     </g>
     <g id="text_3">
      <!-- 100 -->
      <g transform="translate(236.189384 258.676562) scale(0.1 -0.1)">
       <defs>
        <path id="DejaVuSans-31" d="M 794 531 
L 1825 531 
L 1825 4091 
L 703 3866 
L 703 4441 
L 1819 4666 
L 2450 4666 
L 2450 531 
L 3481 531 
L 3481 0 
L 794 0 
L 794 531 
z
" transform="scale(0.015625)"/>
       </defs>
       <use xlink:href="#DejaVuSans-31"/>
       <use xlink:href="#DejaVuSans-30" transform="translate(63.623047 0)"/>
       <use xlink:href="#DejaVuSans-30" transform="translate(127.246094 0)"/>
      </g>
     </g>
    </g>
    <g id="xtick_4">
     <g id="line2d_7">
      <path d="M 330.846007 244.078125 
L 330.846007 22.318125 
" clip-path="url(#pf05cc0f8e7)" style="fill: none; stroke: #b0b0b0; stroke-opacity: 0.3; stroke-width: 0.8; stroke-linecap: square"/>
     </g>
     <g id="line2d_8">
      <g>
       <use xlink:href="#mb61eed8575" x="330.846007" y="244.078125" style="stroke: #000000; stroke-width: 0.8"/>
      </g>
     </g>
     <g id="text_4">
      <!-- 150 -->
      <g transform="translate(321.302257 258.676562) scale(0.1 -0.1)">
       <use xlink:href="#DejaVuSans-31"/>
       <use xlink:href="#DejaVuSans-35" transform="translate(63.623047 0)"/>
       <use xlink:href="#DejaVuSans-30" transform="translate(127.246094 0)"/>
      </g>
     </g>
    </g>
    <g id="xtick_5">
     <g id="line2d_9">
      <path d="M 415.958881 244.078125 
L 415.958881 22.318125 
" clip-path="url(#pf05cc0f8e7)" style="fill: none; stroke: #b0b0b0; stroke-opacity: 0.3; stroke-width: 0.8; stroke-linecap: square"/>
     </g>
     <g id="line2d_10">
      <g>
       <use xlink:href="#mb61eed8575" x="415.958881" y="244.078125" style="stroke: #000000; stroke-width: 0.8"/>
      </g>
     </g>
     <g id="text_5">
      <!-- 200 -->
      <g transform="translate(406.415131 258.676562) scale(0.1 -0.1)">
       <defs>
        <path id="DejaVuSans-32" d="M 1228 531 
L 3431 531 
L 3431 0 
L 469 0 
L 469 531 
Q 828 903 1448 1529 
Q 2069 2156 2228 2338 
Q 2531 2678 2651 2914 
Q 2772 3150 2772 3378 
Q 2772 3750 2511 3984 
Q 2250 4219 1831 4219 
Q 1534 4219 1204 4116 
Q 875 4013 500 3803 
L 500 4441 
Q 881 4594 1212 4672 
Q 1544 4750 1819 4750 
Q 2544 4750 2975 4387 
Q 3406 4025 3406 3419 
Q 3406 3131 3298 2873 
Q 3191 2616 2906 2266 
Q 2828 2175 2409 1742 
Q 1991 1309 1228 531 
z
" transform="scale(0.015625)"/>
       </defs>
       <use xlink:href="#DejaVuSans-32"/>
       <use xlink:href="#DejaVuSans-30" transform="translate(63.623047 0)"/>
       <use xlink:href="#DejaVuSans-30" transform="translate(127.246094 0)"/>
      </g>
     </g>
    </g>
    <g id="xtick_6">
     <g id="line2d_11">
      <path d="M 501.071755 244.078125 
L 501.071755 22.318125 
" clip-path="url(#pf05cc0f8e7)" style="fill: none; stroke: #b0b0b0; stroke-opacity: 0.3; stroke-width: 0.8; stroke-linecap: square"/>
     </g>
     <g id="line2d_12">
      <g>
       <use xlink:href="#mb61eed8575" x="501.071755" y="244.078125" style="stroke: #000000; stroke-width: 0.8"/>
      </g>
     </g>
     <g id="text_6">
      <!-- 250 -->
      <g transform="translate(491.528005 258.676562) scale(0.1 -0.1)">
       <use xlink:href="#DejaVuSans-32"/>
       <use xlink:href="#DejaVuSans-35" transform="translate(63.623047 0)"/>
       <use xlink:href="#DejaVuSans-30" transform="translate(127.246094 0)"/>
      </g>
     </g>
    </g>
    <g id="xtick_7">
     <g id="line2d_13">
      <path d="M 586.184629 244.078125 
L 586.184629 22.318125 
" clip-path="url(#pf05cc0f8e7)" style="fill: none; stroke: #b0b0b0; stroke-opacity: 0.3; stroke-width: 0.8; stroke-linecap: square"/>
     </g>
     <g id="line2d_14">
      <g>
       <use xlink:href="#mb61eed8575" x="586.184629" y="244.078125" style="stroke: #000000; stroke-width: 0.8"/>
      </g>
     </g>
     <g id="text_7">
      <!-- 300 -->
      <g transform="translate(576.640879 258.676562) scale(0.1 -0.1)">
       <defs>
        <path id="DejaVuSans-33" d="M 2597 2516 
Q 3050 2419 3304 2112 
Q 3559 1806 3559 1356 
Q 3559 666 3084 287 
Q 2609 -91 1734 -91 
Q 1441 -91 1130 -33 
Q 819 25 488 141 
L 488 750 
Q 750 597 1062 519 
Q 1375 441 1716 441 
Q 2309 441 2620 675 
Q 2931 909 2931 1356 
Q 2931 1769 2642 2001 
Q 2353 2234 1838 2234 
L 1294 2234 
L 1294 2753 
L 1863 2753 
Q 2328 2753 2575 2939 
Q 2822 3125 2822 3475 
Q 2822 3834 2567 4026 
Q 2313 4219 1838 4219 
Q 1578 4219 1281 4162 
Q 984 4106 628 3988 
L 628 4550 
Q 988 4650 1302 4700 
Q 1616 4750 1894 4750 
Q 2613 4750 3031 4423 
Q 3450 4097 3450 3541 
Q 3450 3153 3228 2886 
Q 3006 2619 2597 2516 
z
" transform="scale(0.015625)"/>
       </defs>
       <use xlink:href="#DejaVuSans-33"/>
       <use xlink:href="#DejaVuSans-30" transform="translate(63.623047 0)"/>
       <use xlink:href="#DejaVuSans-30" transform="translate(127.246094 0)"/>
      </g>
     </g>
    </g>
    <g id="text_8">
     <!-- Time Steps -->
     <g transform="translate(301.33125 272.354687) scale(0.1 -0.1)">
      <defs>
       <path id="DejaVuSans-54" d="M -19 4666 
L 3928 4666 
L 3928 4134 
L 2272 4134 
L 2272 0 
L 1638 0 
L 1638 4134 
L -19 4134 
L -19 4666 
z
" transform="scale(0.015625)"/>
       <path id="DejaVuSans-69" d="M 603 3500 
L 1178 3500 
L 1178 0 
L 603 0 
L 603 3500 
z
M 603 4863 
L 1178 4863 
L 1178 4134 
L 603 4134 
L 603 4863 
z
" transform="scale(0.015625)"/>
       <path id="DejaVuSans-6d" d="M 3328 2828 
Q 3544 3216 3844 3400 
Q 4144 3584 4550 3584 
Q 5097 3584 5394 3201 
Q 5691 2819 5691 2113 
L 5691 0 
L 5113 0 
L 5113 2094 
Q 5113 2597 4934 2840 
Q 4756 3084 4391 3084 
Q 3944 3084 3684 2787 
Q 3425 2491 3425 1978 
L 3425 0 
L 2847 0 
L 2847 2094 
Q 2847 2600 2669 2842 
Q 2491 3084 2119 3084 
Q 1678 3084 1418 2786 
Q 1159 2488 1159 1978 
L 1159 0 
L 581 0 
L 581 3500 
L 1159 3500 
L 1159 2956 
Q 1356 3278 1631 3431 
Q 1906 3584 2284 3584 
Q 2666 3584 2933 3390 
Q 3200 3197 3328 2828 
z
" transform="scale(0.015625)"/>
       <path id="DejaVuSans-65" d="M 3597 1894 
L 3597 1613 
L 953 1613 
Q 991 1019 1311 708 
Q 1631 397 2203 397 
Q 2534 397 2845 478 
Q 3156 559 3463 722 
L 3463 178 
Q 3153 47 2828 -22 
Q 2503 -91 2169 -91 
Q 1331 -91 842 396 
Q 353 884 353 1716 
Q 353 2575 817 3079 
Q 1281 3584 2069 3584 
Q 2775 3584 3186 3129 
Q 3597 2675 3597 1894 
z
M 3022 2063 
Q 3016 2534 2758 2815 
Q 2500 3097 2075 3097 
Q 1594 3097 1305 2825 
Q 1016 2553 972 2059 
L 3022 2063 
z
" transform="scale(0.015625)"/>
       <path id="DejaVuSans-20" transform="scale(0.015625)"/>
       <path id="DejaVuSans-53" d="M 3425 4513 
L 3425 3897 
Q 3066 4069 2747 4153 
Q 2428 4238 2131 4238 
Q 1616 4238 1336 4038 
Q 1056 3838 1056 3469 
Q 1056 3159 1242 3001 
Q 1428 2844 1947 2747 
L 2328 2669 
Q 3034 2534 3370 2195 
Q 3706 1856 3706 1288 
Q 3706 609 3251 259 
Q 2797 -91 1919 -91 
Q 1588 -91 1214 -16 
Q 841 59 441 206 
L 441 856 
Q 825 641 1194 531 
Q 1563 422 1919 422 
Q 2459 422 2753 634 
Q 3047 847 3047 1241 
Q 3047 1584 2836 1778 
Q 2625 1972 2144 2069 
L 1759 2144 
Q 1053 2284 737 2584 
Q 422 2884 422 3419 
Q 422 4038 858 4394 
Q 1294 4750 2059 4750 
Q 2388 4750 2728 4690 
Q 3069 4631 3425 4513 
z
" transform="scale(0.015625)"/>
       <path id="DejaVuSans-74" d="M 1172 4494 
L 1172 3500 
L 2356 3500 
L 2356 3053 
L 1172 3053 
L 1172 1153 
Q 1172 725 1289 603 
Q 1406 481 1766 481 
L 2356 481 
L 2356 0 
L 1766 0 
Q 1100 0 847 248 
Q 594 497 594 1153 
L 594 3053 
L 172 3053 
L 172 3500 
L 594 3500 
L 594 4494 
L 1172 4494 
z
" transform="scale(0.015625)"/>
       <path id="DejaVuSans-70" d="M 1159 525 
L 1159 -1331 
L 581 -1331 
L 581 3500 
L 1159 3500 
L 1159 2969 
Q 1341 3281 1617 3432 
Q 1894 3584 2278 3584 
Q 2916 3584 3314 3078 
Q 3713 2572 3713 1747 
Q 3713 922 3314 415 
Q 2916 -91 2278 -91 
Q 1894 -91 1617 61 
Q 1341 213 1159 525 
z
M 3116 1747 
Q 3116 2381 2855 2742 
Q 2594 3103 2138 3103 
Q 1681 3103 1420 2742 
Q 1159 2381 1159 1747 
Q 1159 1113 1420 752 
Q 1681 391 2138 391 
Q 2594 391 2855 752 
Q 3116 1113 3116 1747 
z
" transform="scale(0.015625)"/>
       <path id="DejaVuSans-73" d="M 2834 3397 
L 2834 2853 
Q 2591 2978 2328 3040 
Q 2066 3103 1784 3103 
Q 1356 3103 1142 2972 
Q 928 2841 928 2578 
Q 928 2378 1081 2264 
Q 1234 2150 1697 2047 
L 1894 2003 
Q 2506 1872 2764 1633 
Q 3022 1394 3022 966 
Q 3022 478 2636 193 
Q 2250 -91 1575 -91 
Q 1294 -91 989 -36 
Q 684 19 347 128 
L 347 722 
Q 666 556 975 473 
Q 1284 391 1588 391 
Q 1994 391 2212 530 
Q 2431 669 2431 922 
Q 2431 1156 2273 1281 
Q 2116 1406 1581 1522 
L 1381 1569 
Q 847 1681 609 1914 
Q 372 2147 372 2553 
Q 372 3047 722 3315 
Q 1072 3584 1716 3584 
Q 2034 3584 2315 3537 
Q 2597 3491 2834 3397 
z
" transform="scale(0.015625)"/>
      </defs>
      <use xlink:href="#DejaVuSans-54"/>
      <use xlink:href="#DejaVuSans-69" transform="translate(57.958984 0)"/>
      <use xlink:href="#DejaVuSans-6d" transform="translate(85.742188 0)"/>
      <use xlink:href="#DejaVuSans-65" transform="translate(183.154297 0)"/>
      <use xlink:href="#DejaVuSans-20" transform="translate(244.677734 0)"/>
      <use xlink:href="#DejaVuSans-53" transform="translate(276.464844 0)"/>
      <use xlink:href="#DejaVuSans-74" transform="translate(339.941406 0)"/>
      <use xlink:href="#DejaVuSans-65" transform="translate(379.150391 0)"/>
      <use xlink:href="#DejaVuSans-70" transform="translate(440.673828 0)"/>
      <use xlink:href="#DejaVuSans-73" transform="translate(504.150391 0)"/>
     </g>
    </g>
   </g>
   <g id="matplotlib.axis_2">
    <g id="ytick_1">
     <g id="line2d_15">
      <path d="M 50.14375 235.005368 
L 608.14375 235.005368 
" clip-path="url(#pf05cc0f8e7)" style="fill: none; stroke: #b0b0b0; stroke-opacity: 0.3; stroke-width: 0.8; stroke-linecap: square"/>
     </g>
     <g id="line2d_16">
      <defs>
       <path id="m91c7af087d" d="M 0 0 
L -3.5 0 
" style="stroke: #000000; stroke-width: 0.8"/>
      </defs>
      <g>
       <use xlink:href="#m91c7af087d" x="50.14375" y="235.005368" style="stroke: #000000; stroke-width: 0.8"/>
      </g>
     </g>
     <g id="text_9">
      <!-- 0.20 -->
      <g transform="translate(20.878125 238.804587) scale(0.1 -0.1)">
       <defs>
        <path id="DejaVuSans-2e" d="M 684 794 
L 1344 794 
L 1344 0 
L 684 0 
L 684 794 
z
" transform="scale(0.015625)"/>
       </defs>
       <use xlink:href="#DejaVuSans-30"/>
       <use xlink:href="#DejaVuSans-2e" transform="translate(63.623047 0)"/>
       <use xlink:href="#DejaVuSans-32" transform="translate(95.410156 0)"/>
       <use xlink:href="#DejaVuSans-30" transform="translate(159.033203 0)"/>
      </g>
     </g>
    </g>
    <g id="ytick_2">
     <g id="line2d_17">
      <path d="M 50.14375 188.368799 
L 608.14375 188.368799 
" clip-path="url(#pf05cc0f8e7)" style="fill: none; stroke: #b0b0b0; stroke-opacity: 0.3; stroke-width: 0.8; stroke-linecap: square"/>
     </g>
     <g id="line2d_18">
      <g>
       <use xlink:href="#m91c7af087d" x="50.14375" y="188.368799" style="stroke: #000000; stroke-width: 0.8"/>
      </g>
     </g>
     <g id="text_10">
      <!-- 0.25 -->
      <g transform="translate(20.878125 192.168018) scale(0.1 -0.1)">
       <use xlink:href="#DejaVuSans-30"/>
       <use xlink:href="#DejaVuSans-2e" transform="translate(63.623047 0)"/>
       <use xlink:href="#DejaVuSans-32" transform="translate(95.410156 0)"/>
       <use xlink:href="#DejaVuSans-35" transform="translate(159.033203 0)"/>
      </g>
     </g>
    </g>
    <g id="ytick_3">
     <g id="line2d_19">
      <path d="M 50.14375 141.73223 
L 608.14375 141.73223 
" clip-path="url(#pf05cc0f8e7)" style="fill: none; stroke: #b0b0b0; stroke-opacity: 0.3; stroke-width: 0.8; stroke-linecap: square"/>
     </g>
     <g id="line2d_20">
      <g>
       <use xlink:href="#m91c7af087d" x="50.14375" y="141.73223" style="stroke: #000000; stroke-width: 0.8"/>
      </g>
     </g>
     <g id="text_11">
      <!-- 0.30 -->
      <g transform="translate(20.878125 145.531449) scale(0.1 -0.1)">
       <use xlink:href="#DejaVuSans-30"/>
       <use xlink:href="#DejaVuSans-2e" transform="translate(63.623047 0)"/>
       <use xlink:href="#DejaVuSans-33" transform="translate(95.410156 0)"/>
       <use xlink:href="#DejaVuSans-30" transform="translate(159.033203 0)"/>
      </g>
     </g>
    </g>
    <g id="ytick_4">
     <g id="line2d_21">
      <path d="M 50.14375 95.095661 
L 608.14375 95.095661 
" clip-path="url(#pf05cc0f8e7)" style="fill: none; stroke: #b0b0b0; stroke-opacity: 0.3; stroke-width: 0.8; stroke-linecap: square"/>
     </g>
     <g id="line2d_22">
      <g>
       <use xlink:href="#m91c7af087d" x="50.14375" y="95.095661" style="stroke: #000000; stroke-width: 0.8"/>
      </g>
     </g>
     <g id="text_12">
      <!-- 0.35 -->
      <g transform="translate(20.878125 98.89488) scale(0.1 -0.1)">
       <use xlink:href="#DejaVuSans-30"/>
       <use xlink:href="#DejaVuSans-2e" transform="translate(63.623047 0)"/>
       <use xlink:href="#DejaVuSans-33" transform="translate(95.410156 0)"/>
       <use xlink:href="#DejaVuSans-35" transform="translate(159.033203 0)"/>
      </g>
     </g>
    </g>
    <g id="ytick_5">
     <g id="line2d_23">
      <path d="M 50.14375 48.459092 
L 608.14375 48.459092 
" clip-path="url(#pf05cc0f8e7)" style="fill: none; stroke: #b0b0b0; stroke-opacity: 0.3; stroke-width: 0.8; stroke-linecap: square"/>
     </g>
     <g id="line2d_24">
      <g>
       <use xlink:href="#m91c7af087d" x="50.14375" y="48.459092" style="stroke: #000000; stroke-width: 0.8"/>
      </g>
     </g>
     <g id="text_13">
      <!-- 0.40 -->
      <g transform="translate(20.878125 52.258311) scale(0.1 -0.1)">
       <defs>
        <path id="DejaVuSans-34" d="M 2419 4116 
L 825 1625 
L 2419 1625 
L 2419 4116 
z
M 2253 4666 
L 3047 4666 
L 3047 1625 
L 3713 1625 
L 3713 1100 
L 3047 1100 
L 3047 0 
L 2419 0 
L 2419 1100 
L 313 1100 
L 313 1709 
L 2253 4666 
z
" transform="scale(0.015625)"/>
       </defs>
       <use xlink:href="#DejaVuSans-30"/>
       <use xlink:href="#DejaVuSans-2e" transform="translate(63.623047 0)"/>
       <use xlink:href="#DejaVuSans-34" transform="translate(95.410156 0)"/>
       <use xlink:href="#DejaVuSans-30" transform="translate(159.033203 0)"/>
      </g>
     </g>
    </g>
    <g id="text_14">
     <!-- Signal Value -->
     <g transform="translate(14.798437 163.877812) rotate(-90) scale(0.1 -0.1)">
      <defs>
       <path id="DejaVuSans-67" d="M 2906 1791 
Q 2906 2416 2648 2759 
Q 2391 3103 1925 3103 
Q 1463 3103 1205 2759 
Q 947 2416 947 1791 
Q 947 1169 1205 825 
Q 1463 481 1925 481 
Q 2391 481 2648 825 
Q 2906 1169 2906 1791 
z
M 3481 434 
Q 3481 -459 3084 -895 
Q 2688 -1331 1869 -1331 
Q 1566 -1331 1297 -1286 
Q 1028 -1241 775 -1147 
L 775 -588 
Q 1028 -725 1275 -790 
Q 1522 -856 1778 -856 
Q 2344 -856 2625 -561 
Q 2906 -266 2906 331 
L 2906 616 
Q 2728 306 2450 153 
Q 2172 0 1784 0 
Q 1141 0 747 490 
Q 353 981 353 1791 
Q 353 2603 747 3093 
Q 1141 3584 1784 3584 
Q 2172 3584 2450 3431 
Q 2728 3278 2906 2969 
L 2906 3500 
L 3481 3500 
L 3481 434 
z
" transform="scale(0.015625)"/>
       <path id="DejaVuSans-6e" d="M 3513 2113 
L 3513 0 
L 2938 0 
L 2938 2094 
Q 2938 2591 2744 2837 
Q 2550 3084 2163 3084 
Q 1697 3084 1428 2787 
Q 1159 2491 1159 1978 
L 1159 0 
L 581 0 
L 581 3500 
L 1159 3500 
L 1159 2956 
Q 1366 3272 1645 3428 
Q 1925 3584 2291 3584 
Q 2894 3584 3203 3211 
Q 3513 2838 3513 2113 
z
" transform="scale(0.015625)"/>
       <path id="DejaVuSans-61" d="M 2194 1759 
Q 1497 1759 1228 1600 
Q 959 1441 959 1056 
Q 959 750 1161 570 
Q 1363 391 1709 391 
Q 2188 391 2477 730 
Q 2766 1069 2766 1631 
L 2766 1759 
L 2194 1759 
z
M 3341 1997 
L 3341 0 
L 2766 0 
L 2766 531 
Q 2569 213 2275 61 
Q 1981 -91 1556 -91 
Q 1019 -91 701 211 
Q 384 513 384 1019 
Q 384 1609 779 1909 
Q 1175 2209 1959 2209 
L 2766 2209 
L 2766 2266 
Q 2766 2663 2505 2880 
Q 2244 3097 1772 3097 
Q 1472 3097 1187 3025 
Q 903 2953 641 2809 
L 641 3341 
Q 956 3463 1253 3523 
Q 1550 3584 1831 3584 
Q 2591 3584 2966 3190 
Q 3341 2797 3341 1997 
z
" transform="scale(0.015625)"/>
       <path id="DejaVuSans-6c" d="M 603 4863 
L 1178 4863 
L 1178 0 
L 603 0 
L 603 4863 
z
" transform="scale(0.015625)"/>
       <path id="DejaVuSans-56" d="M 1831 0 
L 50 4666 
L 709 4666 
L 2188 738 
L 3669 4666 
L 4325 4666 
L 2547 0 
L 1831 0 
z
" transform="scale(0.015625)"/>
       <path id="DejaVuSans-75" d="M 544 1381 
L 544 3500 
L 1119 3500 
L 1119 1403 
Q 1119 906 1312 657 
Q 1506 409 1894 409 
Q 2359 409 2629 706 
Q 2900 1003 2900 1516 
L 2900 3500 
L 3475 3500 
L 3475 0 
L 2900 0 
L 2900 538 
Q 2691 219 2414 64 
Q 2138 -91 1772 -91 
Q 1169 -91 856 284 
Q 544 659 544 1381 
z
M 1991 3584 
L 1991 3584 
z
" transform="scale(0.015625)"/>
      </defs>
      <use xlink:href="#DejaVuSans-53"/>
      <use xlink:href="#DejaVuSans-69" transform="translate(63.476562 0)"/>
      <use xlink:href="#DejaVuSans-67" transform="translate(91.259766 0)"/>
      <use xlink:href="#DejaVuSans-6e" transform="translate(154.736328 0)"/>
      <use xlink:href="#DejaVuSans-61" transform="translate(218.115234 0)"/>
      <use xlink:href="#DejaVuSans-6c" transform="translate(279.394531 0)"/>
      <use xlink:href="#DejaVuSans-20" transform="translate(307.177734 0)"/>
      <use xlink:href="#DejaVuSans-56" transform="translate(338.964844 0)"/>
      <use xlink:href="#DejaVuSans-61" transform="translate(399.623047 0)"/>
      <use xlink:href="#DejaVuSans-6c" transform="translate(460.902344 0)"/>
      <use xlink:href="#DejaVuSans-75" transform="translate(488.685547 0)"/>
      <use xlink:href="#DejaVuSans-65" transform="translate(552.064453 0)"/>
     </g>
    </g>
   </g>
   <g id="line2d_25">
    <path d="M 75.507386 101.446006 
L 77.209644 121.078992 
L 78.911901 170.712416 
L 80.614159 208.267594 
L 82.316416 223.427389 
L 84.018674 208.590293 
L 85.720931 169.457351 
L 87.423189 147.840432 
L 89.125446 121.128338 
L 90.827704 77.461055 
L 92.529961 50.754079 
L 94.232219 53.715921 
L 95.934476 101.966459 
L 97.636734 160.424257 
L 99.338991 196.462768 
L 101.041248 214.36513 
L 102.743506 214.408888 
L 104.445763 198.956813 
L 106.148021 178.136829 
L 107.850278 131.352977 
L 109.552536 73.628883 
L 111.254793 85.944568 
L 112.957051 145.424542 
L 114.659308 192.469016 
L 116.361566 218.202374 
L 118.063823 221.679738 
L 121.468338 199.069753 
L 123.170596 162.422775 
L 124.872853 96.859159 
L 126.575111 45.898285 
L 128.277368 33.06058 
L 129.979626 74.972805 
L 131.681883 126.811531 
L 133.38414 156.091969 
L 135.086398 182.524195 
L 136.788655 205.152163 
L 138.490913 213.653678 
L 140.19317 202.36782 
L 141.895428 151.888945 
L 143.597685 87.450516 
L 145.299943 86.034618 
L 147.0022 118.890349 
L 148.704458 145.157821 
L 150.406715 173.775896 
L 152.108973 198.764207 
L 153.81123 212.640174 
L 155.513488 213.904145 
L 157.215745 187.026512 
L 158.918003 137.646784 
L 160.62026 99.340537 
L 162.322518 80.460028 
L 165.727032 104.040619 
L 167.42929 103.792031 
L 169.131547 134.428827 
L 170.833805 175.214912 
L 172.536062 197.500897 
L 174.23832 197.958245 
L 175.940577 171.206881 
L 177.642835 136.283086 
L 179.345092 129.271406 
L 181.04735 120.092075 
L 182.749607 95.944785 
L 184.451865 103.718997 
L 186.154122 139.420215 
L 187.85638 172.560699 
L 189.558637 189.133811 
L 191.260895 179.757403 
L 192.963152 164.190838 
L 194.66541 163.433996 
L 196.367667 160.441456 
L 198.069924 151.801949 
L 199.772182 116.039738 
L 201.474439 76.417256 
L 203.176697 98.281116 
L 204.878954 141.038339 
L 206.581212 166.489666 
L 208.283469 179.429566 
L 209.985727 184.670216 
L 211.687984 185.972083 
L 213.390242 185.027187 
L 215.092499 151.895529 
L 216.794757 88.560669 
L 218.497014 66.524309 
L 220.199272 80.834417 
L 221.901529 107.58893 
L 223.603787 130.727097 
L 225.306044 137.209463 
L 227.008302 157.269682 
L 228.710559 192.363528 
L 230.412817 214.013164 
L 232.115074 210.754654 
L 233.817331 160.054014 
L 235.519589 101.014996 
L 237.221846 96.971448 
L 238.924104 113.440936 
L 240.626361 123.923964 
L 242.328619 151.584177 
L 244.030876 192.35859 
L 245.733134 219.459343 
L 247.435391 225.585931 
L 249.137649 192.027977 
L 250.839906 129.306961 
L 252.542164 94.473207 
L 254.244421 75.947441 
L 255.946679 66.796788 
L 257.648936 69.167115 
L 259.351194 81.105137 
L 261.053451 128.852022 
L 262.755709 184.986251 
L 264.457966 219.680004 
L 266.160223 227.375177 
L 267.862481 197.885629 
L 269.564738 154.350795 
L 271.266996 132.049476 
L 274.671511 80.998292 
L 276.373768 112.236334 
L 278.076026 177.278196 
L 279.778283 220.652248 
L 281.480541 233.998125 
L 283.182798 212.9527 
L 284.885056 175.595445 
L 286.587313 152.99653 
L 288.289571 118.879588 
L 289.991828 75.393821 
L 291.694086 42.019025 
L 293.396343 40.924968 
L 295.098601 96.282689 
L 296.800858 156.963551 
L 298.503115 189.56055 
L 300.205373 203.496891 
L 301.90763 201.188689 
L 303.609888 188.617229 
L 305.312145 169.237368 
L 307.014403 120.93996 
L 308.71666 67.655595 
L 310.418918 84.92699 
L 312.121175 141.038391 
L 313.823433 180.633837 
L 315.52569 200.598055 
L 317.227948 198.121541 
L 318.930205 191.704913 
L 320.632463 189.538733 
L 322.33472 167.052751 
L 325.739235 80.813709 
L 327.441493 62.413975 
L 330.846007 126.027192 
L 332.548265 137.633755 
L 334.250522 159.005601 
L 335.95278 182.543677 
L 337.655037 194.440179 
L 339.357295 189.393763 
L 341.059552 151.555084 
L 342.76181 104.731537 
L 344.464067 104.597959 
L 346.166325 115.842626 
L 347.868582 115.340993 
L 349.57084 125.808497 
L 351.273097 142.210816 
L 352.975355 166.386615 
L 354.677612 186.013061 
L 356.37987 184.785872 
L 358.082127 170.04819 
L 359.784385 151.787745 
L 361.486642 136.0895 
L 363.188899 133.993335 
L 364.891157 113.994976 
L 366.593414 88.407098 
L 368.295672 114.400426 
L 369.997929 157.612623 
L 371.700187 185.536214 
L 373.402444 195.52314 
L 375.104702 184.6132 
L 376.806959 167.620976 
L 378.509217 161.180344 
L 380.211474 130.593323 
L 381.913732 78.272988 
L 383.615989 60.060265 
L 385.318247 76.316806 
L 387.020504 117.071643 
L 388.722762 152.968819 
L 390.425019 168.094515 
L 393.829534 202.623212 
L 395.531791 208.142098 
L 397.234049 193.603013 
L 400.638564 75.863465 
L 402.340821 89.058683 
L 404.043079 129.81418 
L 405.745336 161.282406 
L 407.447594 189.170628 
L 409.149851 209.536782 
L 410.852109 219.170248 
L 412.554366 214.495216 
L 414.256624 168.375625 
L 415.958881 93.990159 
L 417.661139 52.356923 
L 419.363396 47.028468 
L 421.065654 74.018045 
L 422.767911 103.998832 
L 424.470169 124.167244 
L 427.874683 206.681752 
L 429.576941 229.576925 
L 431.279198 222.161573 
L 434.683713 106.919619 
L 436.385971 99.375605 
L 438.088228 107.533104 
L 439.790486 116.7182 
L 441.492743 157.484164 
L 443.195001 206.032488 
L 444.897258 233.52853 
L 446.599516 233.617808 
L 448.301773 193.654664 
L 450.004031 137.683071 
L 451.706288 104.180775 
L 453.408546 80.887415 
L 455.110803 72.020404 
L 456.813061 66.638994 
L 458.515318 75.495015 
L 461.919833 182.111745 
L 463.62209 209.07623 
L 465.324348 210.396322 
L 468.728863 152.508078 
L 470.43112 136.53054 
L 473.835635 76.427393 
L 475.537893 107.482231 
L 477.24015 166.055678 
L 478.942408 202.970157 
L 480.644665 211.884592 
L 482.346923 188.17771 
L 484.04918 167.642208 
L 485.751438 161.723067 
L 487.453695 145.054001 
L 489.155953 116.637719 
L 490.85821 76.710556 
L 492.560468 61.427265 
L 495.964982 146.277909 
L 497.66724 164.850769 
L 499.369497 176.089914 
L 501.071755 182.547091 
L 502.774012 184.602459 
L 504.47627 176.708087 
L 506.178527 133.795493 
L 507.880785 82.717503 
L 509.583042 88.51552 
L 511.2853 116.532268 
L 512.987557 135.490597 
L 514.689815 145.80212 
L 516.392072 146.329818 
L 518.09433 163.1775 
L 519.796587 186.514487 
L 521.498845 193.669724 
L 523.201102 178.860302 
L 524.90336 138.728385 
L 526.605617 108.859376 
L 528.307874 115.49902 
L 530.010132 117.164059 
L 531.712389 112.117201 
L 533.414647 138.83729 
L 535.116904 176.93332 
L 536.819162 201.774429 
L 538.521419 206.338338 
L 540.223677 177.090055 
L 541.925934 138.291325 
L 543.628192 125.756261 
L 545.330449 105.671664 
L 547.032707 77.824391 
L 548.734964 69.124164 
L 550.437222 84.701716 
L 553.841737 176.284402 
L 555.543994 200.104387 
L 557.246252 208.679669 
L 558.948509 199.199352 
L 560.650766 180.851366 
L 562.353024 159.480514 
L 564.055281 112.172606 
L 565.757539 72.934139 
L 567.459796 104.755826 
L 569.162054 161.378966 
L 570.864311 199.424461 
L 572.566569 217.097444 
L 574.268826 212.169297 
L 575.971084 199.057207 
L 577.673341 183.297112 
L 579.375599 135.524289 
L 581.077856 68.564629 
L 582.780114 32.398125 
L 582.780114 32.398125 
" clip-path="url(#pf05cc0f8e7)" style="fill: none; stroke-dasharray: 5.55,2.4; stroke-dashoffset: 0; stroke: #008000; stroke-width: 1.5"/>
   </g>
   <g id="line2d_26">
    <path d="M 75.507386 120.583436 
L 77.209644 129.379213 
L 78.911901 129.513327 
L 80.614159 169.206785 
L 82.316416 136.327958 
L 84.018674 141.839106 
L 85.720931 92.247189 
L 87.423189 108.555253 
L 89.125446 98.842649 
L 90.827704 104.601114 
L 92.529961 86.232217 
L 94.232219 64.398548 
L 95.934476 97.866314 
L 97.636734 133.788273 
L 99.338991 137.021276 
L 101.041248 149.008406 
L 102.743506 137.805481 
L 104.445763 174.623839 
L 106.148021 187.73198 
L 107.850278 100.329554 
L 109.552536 95.690181 
L 111.254793 116.342131 
L 112.957051 156.933228 
L 114.659308 146.209278 
L 116.361566 155.307703 
L 118.063823 141.436062 
L 119.766081 148.178821 
L 121.468338 130.933704 
L 123.170596 149.373504 
L 124.872853 152.373433 
L 126.575111 132.92137 
L 128.277368 78.788908 
L 129.979626 84.418675 
L 131.681883 133.052585 
L 133.38414 135.923692 
L 135.086398 146.222484 
L 136.788655 134.936037 
L 138.490913 150.973189 
L 140.19317 143.587612 
L 141.895428 100.318485 
L 143.597685 103.38074 
L 145.299943 130.296412 
L 147.0022 130.728572 
L 148.704458 72.577929 
L 150.406715 82.211036 
L 152.108973 117.388259 
L 153.81123 128.060056 
L 155.513488 120.935091 
L 157.215745 133.142649 
L 158.918003 150.64858 
L 160.62026 114.713324 
L 162.322518 98.159929 
L 164.024775 113.842216 
L 165.727032 92.557866 
L 167.42929 90.131031 
L 169.131547 120.828531 
L 170.833805 160.005415 
L 172.536062 166.875572 
L 174.23832 131.171954 
L 175.940577 134.723077 
L 177.642835 106.989802 
L 179.345092 154.034637 
L 181.04735 126.985446 
L 182.749607 76.901926 
L 184.451865 68.503396 
L 186.154122 74.170347 
L 187.85638 84.15794 
L 189.558637 127.012418 
L 191.260895 127.443778 
L 192.963152 119.740786 
L 194.66541 96.572312 
L 196.367667 124.315373 
L 198.069924 140.955397 
L 199.772182 111.960931 
L 201.474439 104.439162 
L 203.176697 94.983649 
L 204.878954 130.559676 
L 206.581212 139.684535 
L 208.283469 163.224216 
L 209.985727 125.343175 
L 211.687984 124.793173 
L 213.390242 136.63244 
L 215.092499 134.636159 
L 216.794757 83.127628 
L 218.497014 78.091471 
L 220.199272 67.804159 
L 221.901529 98.111588 
L 223.603787 114.282093 
L 225.306044 101.179085 
L 227.008302 141.386079 
L 228.710559 120.86944 
L 230.412817 186.966714 
L 232.115074 124.939532 
L 233.817331 129.353763 
L 235.519589 95.427415 
L 237.221846 135.488233 
L 238.924104 153.135926 
L 240.626361 110.121153 
L 242.328619 115.681874 
L 244.030876 159.876025 
L 245.733134 145.064339 
L 247.435391 137.676738 
L 249.137649 142.792786 
L 250.839906 114.318509 
L 252.542164 111.469248 
L 254.244421 109.114889 
L 255.946679 120.32358 
L 257.648936 110.53943 
L 259.351194 64.739347 
L 261.053451 143.561045 
L 262.755709 126.882596 
L 264.457966 178.824693 
L 266.160223 120.264365 
L 267.862481 102.19568 
L 269.564738 141.205825 
L 271.266996 146.980932 
L 272.969253 122.486541 
L 274.671511 106.798408 
L 276.373768 117.277802 
L 278.076026 114.853157 
L 281.480541 156.61706 
L 283.182798 161.798672 
L 284.885056 108.366049 
L 286.587313 137.260529 
L 288.289571 126.775971 
L 289.991828 125.56692 
L 291.694086 101.617521 
L 293.396343 54.927046 
L 295.098601 105.162118 
L 296.800858 183.469174 
L 298.503115 155.789698 
L 300.205373 136.493609 
L 301.90763 138.479278 
L 303.609888 195.482916 
L 305.312145 171.678636 
L 307.014403 113.446313 
L 308.71666 116.444066 
L 310.418918 125.293618 
L 312.121175 200.015061 
L 313.823433 124.502864 
L 315.52569 147.181221 
L 317.227948 138.674189 
L 318.930205 117.478583 
L 320.632463 126.599981 
L 322.33472 161.843532 
L 324.036978 155.3503 
L 325.739235 104.714677 
L 327.441493 90.31334 
L 329.14375 106.983772 
L 330.846007 149.822714 
L 332.548265 139.148007 
L 334.250522 124.827536 
L 335.95278 143.149843 
L 337.655037 155.67023 
L 339.357295 142.322262 
L 341.059552 107.894775 
L 342.76181 97.569027 
L 344.464067 116.264205 
L 346.166325 114.153933 
L 347.868582 64.543573 
L 349.57084 96.300348 
L 351.273097 81.195737 
L 352.975355 70.839241 
L 354.677612 134.818081 
L 356.37987 146.651773 
L 358.082127 142.754891 
L 359.784385 100.856193 
L 361.486642 136.356744 
L 363.188899 122.925056 
L 364.891157 118.36802 
L 366.593414 116.201056 
L 368.295672 101.571716 
L 369.997929 105.867133 
L 371.700187 174.259354 
L 373.402444 173.829627 
L 375.104702 135.652371 
L 376.806959 110.816766 
L 378.509217 148.836843 
L 380.211474 127.342281 
L 381.913732 68.287763 
L 383.615989 81.482513 
L 385.318247 66.308853 
L 387.020504 97.753127 
L 388.722762 150.244538 
L 390.425019 143.211799 
L 392.127277 158.268153 
L 393.829534 134.250805 
L 395.531791 142.47542 
L 397.234049 145.452354 
L 398.936306 135.204651 
L 400.638564 123.013267 
L 402.340821 138.148202 
L 404.043079 164.900388 
L 405.745336 114.224529 
L 407.447594 159.543212 
L 409.149851 158.377017 
L 410.852109 165.548729 
L 412.554366 139.330591 
L 414.256624 143.604697 
L 415.958881 88.532997 
L 417.661139 92.132588 
L 419.363396 59.678973 
L 421.065654 71.410626 
L 422.767911 100.561666 
L 424.470169 99.213148 
L 426.172426 144.30731 
L 427.874683 136.546227 
L 429.576941 188.28517 
L 431.279198 112.867535 
L 432.981456 152.554067 
L 434.683713 110.102249 
L 436.385971 158.539855 
L 438.088228 140.948932 
L 439.790486 94.635448 
L 441.492743 115.531713 
L 443.195001 110.074553 
L 444.897258 127.817986 
L 446.599516 166.406136 
L 448.301773 144.395324 
L 450.004031 108.607623 
L 451.706288 126.836093 
L 453.408546 113.940143 
L 455.110803 129.987207 
L 456.813061 93.552267 
L 458.515318 83.851559 
L 460.217576 117.367126 
L 461.919833 181.092211 
L 463.62209 177.379939 
L 465.324348 119.978869 
L 467.026605 119.391304 
L 468.728863 135.188912 
L 470.43112 142.494146 
L 472.133378 126.876616 
L 473.835635 79.963541 
L 477.24015 90.594858 
L 478.942408 100.583424 
L 480.644665 165.853225 
L 482.346923 138.792126 
L 484.04918 92.745461 
L 485.751438 107.11056 
L 487.453695 138.14374 
L 489.155953 137.42442 
L 490.85821 106.577667 
L 492.560468 64.977006 
L 494.262725 97.261451 
L 495.964982 164.08714 
L 497.66724 137.586837 
L 499.369497 117.02469 
L 501.071755 149.375543 
L 502.774012 141.065131 
L 504.47627 142.073082 
L 506.178527 99.862163 
L 507.880785 110.444281 
L 509.583042 108.490506 
L 511.2853 108.570501 
L 512.987557 79.099544 
L 514.689815 139.053155 
L 516.392072 84.9217 
L 518.09433 121.816438 
L 521.498845 158.052516 
L 523.201102 117.472369 
L 524.90336 86.832461 
L 526.605617 118.321346 
L 528.307874 107.470063 
L 530.010132 148.868256 
L 531.712389 156.914829 
L 533.414647 113.801266 
L 535.116904 122.582387 
L 536.819162 185.115054 
L 538.521419 148.558176 
L 540.223677 119.475138 
L 541.925934 108.075391 
L 543.628192 122.008609 
L 545.330449 104.702484 
L 547.032707 81.51298 
L 548.734964 87.146632 
L 550.437222 49.612324 
L 552.139479 103.954274 
L 553.841737 153.817592 
L 555.543994 143.374877 
L 557.246252 134.742274 
L 558.948509 117.92513 
L 560.650766 133.39879 
L 562.353024 146.201704 
L 564.055281 127.577006 
L 565.757539 110.600632 
L 567.459796 114.307422 
L 569.162054 143.199675 
L 570.864311 142.292778 
L 572.566569 142.817091 
L 574.268826 146.734872 
L 575.971084 117.947463 
L 577.673341 111.693907 
L 579.375599 127.060006 
L 581.077856 100.716139 
L 582.780114 91.542093 
L 582.780114 91.542093 
" clip-path="url(#pf05cc0f8e7)" style="fill: none; stroke: #ff0000; stroke-width: 1.5; stroke-linecap: square"/>
   </g>
   <g id="patch_3">
    <path d="M 50.14375 244.078125 
L 50.14375 22.318125 
" style="fill: none; stroke: #000000; stroke-width: 0.8; stroke-linejoin: miter; stroke-linecap: square"/>
   </g>
   <g id="patch_4">
    <path d="M 608.14375 244.078125 
L 608.14375 22.318125 
" style="fill: none; stroke: #000000; stroke-width: 0.8; stroke-linejoin: miter; stroke-linecap: square"/>
   </g>
   <g id="patch_5">
    <path d="M 50.14375 244.078125 
L 608.14375 244.078125 
" style="fill: none; stroke: #000000; stroke-width: 0.8; stroke-linejoin: miter; stroke-linecap: square"/>
   </g>
   <g id="patch_6">
    <path d="M 50.14375 22.318125 
L 608.14375 22.318125 
" style="fill: none; stroke: #000000; stroke-width: 0.8; stroke-linejoin: miter; stroke-linecap: square"/>
   </g>
   <g id="text_15">
    <!-- Task Performance: NARMA10 (validation set) -->
    <g transform="translate(195.454375 16.318125) scale(0.12 -0.12)">
     <defs>
      <path id="DejaVuSans-6b" d="M 581 4863 
L 1159 4863 
L 1159 1991 
L 2875 3500 
L 3609 3500 
L 1753 1863 
L 3688 0 
L 2938 0 
L 1159 1709 
L 1159 0 
L 581 0 
L 581 4863 
z
" transform="scale(0.015625)"/>
      <path id="DejaVuSans-50" d="M 1259 4147 
L 1259 2394 
L 2053 2394 
Q 2494 2394 2734 2622 
Q 2975 2850 2975 3272 
Q 2975 3691 2734 3919 
Q 2494 4147 2053 4147 
L 1259 4147 
z
M 628 4666 
L 2053 4666 
Q 2838 4666 3239 4311 
Q 3641 3956 3641 3272 
Q 3641 2581 3239 2228 
Q 2838 1875 2053 1875 
L 1259 1875 
L 1259 0 
L 628 0 
L 628 4666 
z
" transform="scale(0.015625)"/>
      <path id="DejaVuSans-72" d="M 2631 2963 
Q 2534 3019 2420 3045 
Q 2306 3072 2169 3072 
Q 1681 3072 1420 2755 
Q 1159 2438 1159 1844 
L 1159 0 
L 581 0 
L 581 3500 
L 1159 3500 
L 1159 2956 
Q 1341 3275 1631 3429 
Q 1922 3584 2338 3584 
Q 2397 3584 2469 3576 
Q 2541 3569 2628 3553 
L 2631 2963 
z
" transform="scale(0.015625)"/>
      <path id="DejaVuSans-66" d="M 2375 4863 
L 2375 4384 
L 1825 4384 
Q 1516 4384 1395 4259 
Q 1275 4134 1275 3809 
L 1275 3500 
L 2222 3500 
L 2222 3053 
L 1275 3053 
L 1275 0 
L 697 0 
L 697 3053 
L 147 3053 
L 147 3500 
L 697 3500 
L 697 3744 
Q 697 4328 969 4595 
Q 1241 4863 1831 4863 
L 2375 4863 
z
" transform="scale(0.015625)"/>
      <path id="DejaVuSans-6f" d="M 1959 3097 
Q 1497 3097 1228 2736 
Q 959 2375 959 1747 
Q 959 1119 1226 758 
Q 1494 397 1959 397 
Q 2419 397 2687 759 
Q 2956 1122 2956 1747 
Q 2956 2369 2687 2733 
Q 2419 3097 1959 3097 
z
M 1959 3584 
Q 2709 3584 3137 3096 
Q 3566 2609 3566 1747 
Q 3566 888 3137 398 
Q 2709 -91 1959 -91 
Q 1206 -91 779 398 
Q 353 888 353 1747 
Q 353 2609 779 3096 
Q 1206 3584 1959 3584 
z
" transform="scale(0.015625)"/>
      <path id="DejaVuSans-63" d="M 3122 3366 
L 3122 2828 
Q 2878 2963 2633 3030 
Q 2388 3097 2138 3097 
Q 1578 3097 1268 2742 
Q 959 2388 959 1747 
Q 959 1106 1268 751 
Q 1578 397 2138 397 
Q 2388 397 2633 464 
Q 2878 531 3122 666 
L 3122 134 
Q 2881 22 2623 -34 
Q 2366 -91 2075 -91 
Q 1284 -91 818 406 
Q 353 903 353 1747 
Q 353 2603 823 3093 
Q 1294 3584 2113 3584 
Q 2378 3584 2631 3529 
Q 2884 3475 3122 3366 
z
" transform="scale(0.015625)"/>
      <path id="DejaVuSans-3a" d="M 750 794 
L 1409 794 
L 1409 0 
L 750 0 
L 750 794 
z
M 750 3309 
L 1409 3309 
L 1409 2516 
L 750 2516 
L 750 3309 
z
" transform="scale(0.015625)"/>
      <path id="DejaVuSans-4e" d="M 628 4666 
L 1478 4666 
L 3547 763 
L 3547 4666 
L 4159 4666 
L 4159 0 
L 3309 0 
L 1241 3903 
L 1241 0 
L 628 0 
L 628 4666 
z
" transform="scale(0.015625)"/>
      <path id="DejaVuSans-41" d="M 2188 4044 
L 1331 1722 
L 3047 1722 
L 2188 4044 
z
M 1831 4666 
L 2547 4666 
L 4325 0 
L 3669 0 
L 3244 1197 
L 1141 1197 
L 716 0 
L 50 0 
L 1831 4666 
z
" transform="scale(0.015625)"/>
      <path id="DejaVuSans-52" d="M 2841 2188 
Q 3044 2119 3236 1894 
Q 3428 1669 3622 1275 
L 4263 0 
L 3584 0 
L 2988 1197 
Q 2756 1666 2539 1819 
Q 2322 1972 1947 1972 
L 1259 1972 
L 1259 0 
L 628 0 
L 628 4666 
L 2053 4666 
Q 2853 4666 3247 4331 
Q 3641 3997 3641 3322 
Q 3641 2881 3436 2590 
Q 3231 2300 2841 2188 
z
M 1259 4147 
L 1259 2491 
L 2053 2491 
Q 2509 2491 2742 2702 
Q 2975 2913 2975 3322 
Q 2975 3731 2742 3939 
Q 2509 4147 2053 4147 
L 1259 4147 
z
" transform="scale(0.015625)"/>
      <path id="DejaVuSans-4d" d="M 628 4666 
L 1569 4666 
L 2759 1491 
L 3956 4666 
L 4897 4666 
L 4897 0 
L 4281 0 
L 4281 4097 
L 3078 897 
L 2444 897 
L 1241 4097 
L 1241 0 
L 628 0 
L 628 4666 
z
" transform="scale(0.015625)"/>
      <path id="DejaVuSans-28" d="M 1984 4856 
Q 1566 4138 1362 3434 
Q 1159 2731 1159 2009 
Q 1159 1288 1364 580 
Q 1569 -128 1984 -844 
L 1484 -844 
Q 1016 -109 783 600 
Q 550 1309 550 2009 
Q 550 2706 781 3412 
Q 1013 4119 1484 4856 
L 1984 4856 
z
" transform="scale(0.015625)"/>
      <path id="DejaVuSans-76" d="M 191 3500 
L 800 3500 
L 1894 563 
L 2988 3500 
L 3597 3500 
L 2284 0 
L 1503 0 
L 191 3500 
z
" transform="scale(0.015625)"/>
      <path id="DejaVuSans-64" d="M 2906 2969 
L 2906 4863 
L 3481 4863 
L 3481 0 
L 2906 0 
L 2906 525 
Q 2725 213 2448 61 
Q 2172 -91 1784 -91 
Q 1150 -91 751 415 
Q 353 922 353 1747 
Q 353 2572 751 3078 
Q 1150 3584 1784 3584 
Q 2172 3584 2448 3432 
Q 2725 3281 2906 2969 
z
M 947 1747 
Q 947 1113 1208 752 
Q 1469 391 1925 391 
Q 2381 391 2643 752 
Q 2906 1113 2906 1747 
Q 2906 2381 2643 2742 
Q 2381 3103 1925 3103 
Q 1469 3103 1208 2742 
Q 947 2381 947 1747 
z
" transform="scale(0.015625)"/>
      <path id="DejaVuSans-29" d="M 513 4856 
L 1013 4856 
Q 1481 4119 1714 3412 
Q 1947 2706 1947 2009 
Q 1947 1309 1714 600 
Q 1481 -109 1013 -844 
L 513 -844 
Q 928 -128 1133 580 
Q 1338 1288 1338 2009 
Q 1338 2731 1133 3434 
Q 928 4138 513 4856 
z
" transform="scale(0.015625)"/>
     </defs>
     <use xlink:href="#DejaVuSans-54"/>
     <use xlink:href="#DejaVuSans-61" transform="translate(44.583984 0)"/>
     <use xlink:href="#DejaVuSans-73" transform="translate(105.863281 0)"/>
     <use xlink:href="#DejaVuSans-6b" transform="translate(157.962891 0)"/>
     <use xlink:href="#DejaVuSans-20" transform="translate(215.873047 0)"/>
     <use xlink:href="#DejaVuSans-50" transform="translate(247.660156 0)"/>
     <use xlink:href="#DejaVuSans-65" transform="translate(304.337891 0)"/>
     <use xlink:href="#DejaVuSans-72" transform="translate(365.861328 0)"/>
     <use xlink:href="#DejaVuSans-66" transform="translate(406.974609 0)"/>
     <use xlink:href="#DejaVuSans-6f" transform="translate(442.179688 0)"/>
     <use xlink:href="#DejaVuSans-72" transform="translate(503.361328 0)"/>
     <use xlink:href="#DejaVuSans-6d" transform="translate(542.724609 0)"/>
     <use xlink:href="#DejaVuSans-61" transform="translate(640.136719 0)"/>
     <use xlink:href="#DejaVuSans-6e" transform="translate(701.416016 0)"/>
     <use xlink:href="#DejaVuSans-63" transform="translate(764.794922 0)"/>
     <use xlink:href="#DejaVuSans-65" transform="translate(819.775391 0)"/>
     <use xlink:href="#DejaVuSans-3a" transform="translate(881.298828 0)"/>
     <use xlink:href="#DejaVuSans-20" transform="translate(914.990234 0)"/>
     <use xlink:href="#DejaVuSans-4e" transform="translate(946.777344 0)"/>
     <use xlink:href="#DejaVuSans-41" transform="translate(1021.582031 0)"/>
     <use xlink:href="#DejaVuSans-52" transform="translate(1089.990234 0)"/>
     <use xlink:href="#DejaVuSans-4d" transform="translate(1159.472656 0)"/>
     <use xlink:href="#DejaVuSans-41" transform="translate(1245.751953 0)"/>
     <use xlink:href="#DejaVuSans-31" transform="translate(1314.160156 0)"/>
     <use xlink:href="#DejaVuSans-30" transform="translate(1377.783203 0)"/>
     <use xlink:href="#DejaVuSans-20" transform="translate(1441.40625 0)"/>
     <use xlink:href="#DejaVuSans-28" transform="translate(1473.193359 0)"/>
     <use xlink:href="#DejaVuSans-76" transform="translate(1512.207031 0)"/>
     <use xlink:href="#DejaVuSans-61" transform="translate(1571.386719 0)"/>
     <use xlink:href="#DejaVuSans-6c" transform="translate(1632.666016 0)"/>
     <use xlink:href="#DejaVuSans-69" transform="translate(1660.449219 0)"/>
     <use xlink:href="#DejaVuSans-64" transform="translate(1688.232422 0)"/>
     <use xlink:href="#DejaVuSans-61" transform="translate(1751.708984 0)"/>
     <use xlink:href="#DejaVuSans-74" transform="translate(1812.988281 0)"/>
     <use xlink:href="#DejaVuSans-69" transform="translate(1852.197266 0)"/>
     <use xlink:href="#DejaVuSans-6f" transform="translate(1879.980469 0)"/>
     <use xlink:href="#DejaVuSans-6e" transform="translate(1941.162109 0)"/>
     <use xlink:href="#DejaVuSans-20" transform="translate(2004.541016 0)"/>
     <use xlink:href="#DejaVuSans-73" transform="translate(2036.328125 0)"/>
     <use xlink:href="#DejaVuSans-65" transform="translate(2088.427734 0)"/>
     <use xlink:href="#DejaVuSans-74" transform="translate(2149.951172 0)"/>
     <use xlink:href="#DejaVuSans-29" transform="translate(2189.160156 0)"/>
    </g>
   </g>
   <g id="legend_1">
    <g id="patch_7">
     <path d="M 519.470312 59.674375 
L 601.14375 59.674375 
Q 603.14375 59.674375 603.14375 57.674375 
L 603.14375 29.318125 
Q 603.14375 27.318125 601.14375 27.318125 
L 519.470312 27.318125 
Q 517.470312 27.318125 517.470312 29.318125 
L 517.470312 57.674375 
Q 517.470312 59.674375 519.470312 59.674375 
z
" style="fill: #ffffff; opacity: 0.8; stroke: #cccccc; stroke-linejoin: miter"/>
    </g>
    <g id="line2d_27">
     <path d="M 521.470312 35.416562 
L 531.470312 35.416562 
L 541.470312 35.416562 
" style="fill: none; stroke-dasharray: 5.55,2.4; stroke-dashoffset: 0; stroke: #008000; stroke-width: 1.5"/>
    </g>
    <g id="text_16">
     <!-- Target -->
     <g transform="translate(549.470312 38.916562) scale(0.1 -0.1)">
      <use xlink:href="#DejaVuSans-54"/>
      <use xlink:href="#DejaVuSans-61" transform="translate(44.583984 0)"/>
      <use xlink:href="#DejaVuSans-72" transform="translate(105.863281 0)"/>
      <use xlink:href="#DejaVuSans-67" transform="translate(145.226562 0)"/>
      <use xlink:href="#DejaVuSans-65" transform="translate(208.703125 0)"/>
      <use xlink:href="#DejaVuSans-74" transform="translate(270.226562 0)"/>
     </g>
    </g>
    <g id="line2d_28">
     <path d="M 521.470312 50.094687 
L 531.470312 50.094687 
L 541.470312 50.094687 
" style="fill: none; stroke: #ff0000; stroke-width: 1.5; stroke-linecap: square"/>
    </g>
    <g id="text_17">
     <!-- Prediction -->
     <g transform="translate(549.470312 53.594687) scale(0.1 -0.1)">
      <use xlink:href="#DejaVuSans-50"/>
      <use xlink:href="#DejaVuSans-72" transform="translate(58.552734 0)"/>
      <use xlink:href="#DejaVuSans-65" transform="translate(97.416016 0)"/>
      <use xlink:href="#DejaVuSans-64" transform="translate(158.939453 0)"/>
      <use xlink:href="#DejaVuSans-69" transform="translate(222.416016 0)"/>
      <use xlink:href="#DejaVuSans-63" transform="translate(250.199219 0)"/>
      <use xlink:href="#DejaVuSans-74" transform="translate(305.179688 0)"/>
      <use xlink:href="#DejaVuSans-69" transform="translate(344.388672 0)"/>
      <use xlink:href="#DejaVuSans-6f" transform="translate(372.171875 0)"/>
      <use xlink:href="#DejaVuSans-6e" transform="translate(433.353516 0)"/>
     </g>
    </g>
   </g>
  </g>
 </g>
 <defs>
  <clipPath id="pf05cc0f8e7">
   <rect x="50.14375" y="22.318125" width="558" height="221.76"/>
  </clipPath>
 </defs>
</svg>
