<?xml version="1.0" encoding="utf-8" standalone="no"?>
<!DOCTYPE svg PUBLIC "-//W3C//DTD SVG 1.1//EN"
  "http://www.w3.org/Graphics/SVG/1.1/DTD/svg11.dtd">
<svg xmlns:xlink="http://www.w3.org/1999/xlink" width="469.19952pt" height="253.19948pt" viewBox="0 0 469.19952 253.19948" xmlns="http://www.w3.org/2000/svg" version="1.1">
 <metadata>
  <rdf:RDF xmlns:dc="http://purl.org/dc/elements/1.1/" xmlns:cc="http://creativecommons.org/ns#" xmlns:rdf="http://www.w3.org/1999/02/22-rdf-syntax-ns#">
   <cc:Work>
    <dc:type rdf:resource="http://purl.org/dc/dcmitype/StillImage"/>
    <dc:date>2026-07-08T18:38:54.264135</dc:date>
    <dc:format>image/svg+xml</dc:format>
    <dc:creator>
     <cc:Agent>
      <dc:title>Matplotlib v3.10.8, https://matplotlib.org/</dc:title>
     </cc:Agent>
    </dc:creator>
   </cc:Work>
  </rdf:RDF>
 </metadata>
 <defs>
  <style type="text/css">*{stroke-linejoin: round; stroke-linecap: butt}</style>
 </defs>
 <g id="figure_1">
  <g id="patch_1">
   <path d="M 0 253.19948 
L 469.19952 253.19948 
L 469.19952 0 
L 0 0 
z
" style="fill: #ffffff"/>
  </g>
  <g id="axes_1">
   <g id="patch_2">
    <path d="M 36.63625 220.17573 
L 432.56327 220.17573 
L 432.56327 22.486005 
L 36.63625 22.486005 
z
" style="fill: #ffffff"/>
   </g>
   <g id="matplotlib.axis_1">
    <g id="xtick_1">
     <g id="line2d_1">
      <defs>
       <path id="mfc1f7cab74" d="M 0 0 
L 0 3.5 
" style="stroke: #000000; stroke-width: 0.8"/>
      </defs>
      <g>
       <use xlink:href="#mfc1f7cab74" x="54.632933" y="220.17573" style="stroke: #000000; stroke-width: 0.8"/>
      </g>
     </g>
     <g id="text_1">
      <text style="font-size: 8px; font-family: 'Arial', 'Helvetica', 'DejaVu Sans', sans-serif; text-anchor: middle" x="54.632933" y="232.90198" transform="rotate(-0 54.632933 232.90198)">0</text>
     </g>
    </g>
    <g id="xtick_2">
     <g id="line2d_2">
      <g>
       <use xlink:href="#mfc1f7cab74" x="102.671754" y="220.17573" style="stroke: #000000; stroke-width: 0.8"/>
      </g>
     </g>
     <g id="text_2">
      <text style="font-size: 8px; font-family: 'Arial', 'Helvetica', 'DejaVu Sans', sans-serif; text-anchor: middle" x="102.671754" y="232.90198" transform="rotate(-0 102.671754 232.90198)">2</text>
     </g>
    </g>
    <g id="xtick_3">
     <g id="line2d_3">
      <g>
       <use xlink:href="#mfc1f7cab74" x="150.710575" y="220.17573" style="stroke: #000000; stroke-width: 0.8"/>
      </g>
     </g>
     <g id="text_3">
      <text style="font-size: 8px; font-family: 'Arial', 'Helvetica', 'DejaVu Sans', sans-serif; text-anchor: middle" x="150.710575" y="232.90198" transform="rotate(-0 150.710575 232.90198)">4</text>
     </g>
    </g>
    <g id="xtick_4">
     <g id="line2d_4">
      <g>
       <use xlink:href="#mfc1f7cab74" x="198.749396" y="220.17573" style="stroke: #000000; stroke-width: 0.8"/>
      </g>
     </g>
     <g id="text_4">
      <text style="font-size: 8px; font-family: 'Arial', 'Helvetica', 'DejaVu Sans', sans-serif; text-anchor: middle" x="198.749396" y="232.90198" transform="rotate(-0 198.749396 232.90198)">6</text>
     </g>
    </g>
    <g id="xtick_5">
     <g id="line2d_5">
      <g>
       <use xlink:href="#mfc1f7cab74" x="246.788218" y="220.17573" style="stroke: #000000; stroke-width: 0.8"/>
      </g>
     </g>
     <g id="text_5">
      <text style="font-size: 8px; font-family: 'Arial', 'Helvetica', 'DejaVu Sans', sans-serif; text-anchor: middle" x="246.788218" y="232.90198" transform="rotate(-0 246.788218 232.90198)">8</text>
     </g>
    </g>
    <g id="xtick_6">
     <g id="line2d_6">
      <g>
       <use xlink:href="#mfc1f7cab74" x="294.827039" y="220.17573" style="stroke: #000000; stroke-width: 0.8"/>
      </g>
     </g>
     <g id="text_6">
      <text style="font-size: 8px; font-family: 'Arial', 'Helvetica', 'DejaVu Sans', sans-serif; text-anchor: middle" x="294.827039" y="232.90198" transform="rotate(-0 294.827039 232.90198)">10</text>
     </g>
    </g>
    <g id="xtick_7">
     <g id="line2d_7">
      <g>
       <use xlink:href="#mfc1f7cab74" x="342.86586" y="220.17573" style="stroke: #000000; stroke-width: 0.8"/>
      </g>
     </g>
     <g id="text_7">
      <text style="font-size: 8px; font-family: 'Arial', 'Helvetica', 'DejaVu Sans', sans-serif; text-anchor: middle" x="342.86586" y="232.90198" transform="rotate(-0 342.86586 232.90198)">12</text>
     </g>
    </g>
    <g id="xtick_8">
     <g id="line2d_8">
      <g>
       <use xlink:href="#mfc1f7cab74" x="390.904681" y="220.17573" style="stroke: #000000; stroke-width: 0.8"/>
      </g>
     </g>
     <g id="text_8">
      <text style="font-size: 8px; font-family: 'Arial', 'Helvetica', 'DejaVu Sans', sans-serif; text-anchor: middle" x="390.904681" y="232.90198" transform="rotate(-0 390.904681 232.90198)">14</text>
     </g>
    </g>
    <g id="text_9">
     <text style="font-size: 8px; font-family: 'Arial', 'Helvetica', 'DejaVu Sans', sans-serif; text-anchor: middle" x="234.59976" y="244.31573" transform="rotate(-0 234.59976 244.31573)">frequency (Hz)</text>
    </g>
   </g>
   <g id="matplotlib.axis_2">
    <g id="ytick_1">
     <g id="line2d_9">
      <defs>
       <path id="me1b4477001" d="M 0 0 
L -3.5 0 
" style="stroke: #000000; stroke-width: 0.8"/>
      </defs>
      <g>
       <use xlink:href="#me1b4477001" x="36.63625" y="211.238871" style="stroke: #000000; stroke-width: 0.8"/>
      </g>
     </g>
     <g id="text_10">
      <text style="font-size: 8px; font-family: 'Arial', 'Helvetica', 'DejaVu Sans', sans-serif; text-anchor: end" x="29.63625" y="214.101996" transform="rotate(-0 29.63625 214.101996)">0.0</text>
     </g>
    </g>
    <g id="ytick_2">
     <g id="line2d_10">
      <g>
       <use xlink:href="#me1b4477001" x="36.63625" y="175.285477" style="stroke: #000000; stroke-width: 0.8"/>
      </g>
     </g>
     <g id="text_11">
      <text style="font-size: 8px; font-family: 'Arial', 'Helvetica', 'DejaVu Sans', sans-serif; text-anchor: end" x="29.63625" y="178.148602" transform="rotate(-0 29.63625 178.148602)">0.2</text>
     </g>
    </g>
    <g id="ytick_3">
     <g id="line2d_11">
      <g>
       <use xlink:href="#me1b4477001" x="36.63625" y="139.332083" style="stroke: #000000; stroke-width: 0.8"/>
      </g>
     </g>
     <g id="text_12">
      <text style="font-size: 8px; font-family: 'Arial', 'Helvetica', 'DejaVu Sans', sans-serif; text-anchor: end" x="29.63625" y="142.195208" transform="rotate(-0 29.63625 142.195208)">0.4</text>
     </g>
    </g>
    <g id="ytick_4">
     <g id="line2d_12">
      <g>
       <use xlink:href="#me1b4477001" x="36.63625" y="103.37869" style="stroke: #000000; stroke-width: 0.8"/>
      </g>
     </g>
     <g id="text_13">
      <text style="font-size: 8px; font-family: 'Arial', 'Helvetica', 'DejaVu Sans', sans-serif; text-anchor: end" x="29.63625" y="106.241815" transform="rotate(-0 29.63625 106.241815)">0.6</text>
     </g>
    </g>
    <g id="ytick_5">
     <g id="line2d_13">
      <g>
       <use xlink:href="#me1b4477001" x="36.63625" y="67.425296" style="stroke: #000000; stroke-width: 0.8"/>
      </g>
     </g>
     <g id="text_14">
      <text style="font-size: 8px; font-family: 'Arial', 'Helvetica', 'DejaVu Sans', sans-serif; text-anchor: end" x="29.63625" y="70.288421" transform="rotate(-0 29.63625 70.288421)">0.8</text>
     </g>
    </g>
    <g id="ytick_6">
     <g id="line2d_14">
      <g>
       <use xlink:href="#me1b4477001" x="36.63625" y="31.471902" style="stroke: #000000; stroke-width: 0.8"/>
      </g>
     </g>
     <g id="text_15">
      <text style="font-size: 8px; font-family: 'Arial', 'Helvetica', 'DejaVu Sans', sans-serif; text-anchor: end" x="29.63625" y="34.335027" transform="rotate(-0 29.63625 34.335027)">1.0</text>
     </g>
    </g>
    <g id="text_16">
     <text style="font-size: 8px; font-family: 'Arial', 'Helvetica', 'DejaVu Sans', sans-serif; text-anchor: middle" x="12.92625" y="121.330868" transform="rotate(-90 12.92625 121.330868)">normalized Hann FFT amplitude</text>
    </g>
   </g>
   <g id="line2d_15">
    <path d="M 54.632933 205.054045 
L 57.040516 97.309825 
L 59.448099 31.471902 
L 61.855682 126.957786 
L 64.263265 162.89168 
L 66.670848 154.622661 
L 69.078431 176.45049 
L 71.486014 135.696988 
L 73.893597 136.439698 
L 76.301179 185.515816 
L 78.708762 190.201444 
L 81.116345 158.590282 
L 83.523928 185.867354 
L 85.931511 191.247376 
L 88.339094 193.233748 
L 90.746677 180.722955 
L 93.15426 178.288518 
L 95.561843 182.251659 
L 97.969426 195.544151 
L 100.377009 194.545661 
L 102.784592 191.719756 
L 105.192175 189.36092 
L 107.599758 203.827767 
L 110.007341 195.608289 
L 112.414924 202.23302 
L 114.822507 195.86345 
L 117.23009 187.810917 
L 119.637673 196.675266 
L 122.045256 200.004721 
L 124.452839 194.522652 
L 126.860422 195.344473 
L 129.268005 198.985585 
L 131.675588 191.596574 
L 134.083171 194.477692 
L 136.490754 198.34857 
L 138.898337 196.815648 
L 141.30592 192.766878 
L 143.713503 194.575867 
L 146.121086 197.756541 
L 148.528669 201.563781 
L 150.936252 193.189527 
L 153.343835 202.767036 
L 155.751418 190.58682 
L 158.159001 192.759106 
L 160.566584 207.418152 
L 162.974167 203.388627 
L 165.38175 202.92133 
L 167.789332 207.481609 
L 170.196915 205.792664 
L 172.604498 204.991487 
L 175.012081 205.597403 
L 177.419664 198.138857 
L 179.827247 205.677732 
L 182.23483 204.451982 
L 184.642413 204.893932 
L 187.049996 202.49294 
L 189.457579 206.902541 
L 191.865162 207.009954 
L 194.272745 201.091408 
L 196.680328 190.42897 
L 199.087911 186.498197 
L 201.495494 180.749004 
L 203.903077 193.521822 
L 206.31066 193.140241 
L 208.718243 201.396848 
L 211.125826 206.552123 
L 213.533409 201.582008 
L 215.940992 201.259635 
L 218.348575 195.371857 
L 220.756158 186.430296 
L 223.163741 174.792598 
L 225.571324 181.223746 
L 227.978907 200.23771 
L 230.38649 206.715568 
L 232.794073 197.13736 
L 235.201656 183.085669 
L 237.609239 168.249542 
L 240.016822 141.595045 
L 242.424405 170.953177 
L 244.831988 197.126141 
L 247.239571 203.350192 
L 249.647154 183.380045 
L 252.054737 195.464904 
L 254.46232 208.717015 
L 256.869903 185.426183 
L 259.277485 168.285559 
L 261.685068 170.86973 
L 264.092651 159.363465 
L 266.500234 170.556366 
L 268.907817 160.370367 
L 271.3154 176.223748 
L 273.722983 197.996749 
L 276.130566 191.937496 
L 278.538149 190.753066 
L 280.945732 206.090385 
L 283.353315 200.005508 
L 285.760898 200.53545 
L 288.168481 205.931284 
L 290.576064 203.609546 
L 292.983647 197.424896 
L 295.39123 196.362716 
L 297.798813 200.568233 
L 300.206396 206.289188 
L 302.613979 207.247146 
L 305.021562 200.220257 
L 307.429145 200.270966 
L 309.836728 204.740333 
L 312.244311 205.330342 
L 314.651894 209.563653 
L 317.059477 209.294515 
L 319.46706 208.407053 
L 321.874643 209.392371 
L 324.282226 209.084004 
L 326.689809 210.132182 
L 329.097392 209.489585 
L 331.504975 209.669122 
L 333.912558 210.248934 
L 336.320141 210.188125 
L 338.727724 210.712283 
L 341.135307 210.979591 
L 343.54289 210.224089 
L 345.950473 209.999233 
L 348.358056 210.187056 
L 350.765638 210.207447 
L 353.173221 210.464162 
L 355.580804 208.101357 
L 357.988387 207.007526 
L 360.39597 209.890058 
L 362.803553 208.924462 
L 365.211136 210.289881 
L 367.618719 209.195853 
L 370.026302 207.929311 
L 372.433885 210.920077 
L 374.841468 208.742039 
L 377.249051 207.464846 
L 379.656634 205.76686 
L 382.064217 209.9466 
L 384.4718 204.076572 
L 386.879383 205.954815 
L 389.286966 203.676475 
L 391.694549 207.614227 
L 394.102132 206.486827 
L 396.509715 207.471374 
L 398.917298 209.749729 
L 401.324881 206.354361 
L 403.732464 210.513375 
L 406.140047 208.72115 
L 408.54763 204.331545 
L 410.955213 204.421341 
L 413.362796 206.376107 
L 413.362796 206.376107 
" clip-path="url(#pc2033e796e)" style="fill: none; stroke: #d55e00; stroke-width: 1.2; stroke-linecap: square"/>
   </g>
   <g id="line2d_16">
    <path d="M 54.632933 188.229671 
L 57.040516 89.758436 
L 59.448099 31.471902 
L 61.855682 118.474221 
L 64.263265 155.884231 
L 66.670848 147.021386 
L 69.078431 173.749753 
L 71.486014 141.469907 
L 73.893597 142.989608 
L 76.301179 190.617325 
L 78.708762 192.771536 
L 81.116345 160.616332 
L 83.523928 179.657602 
L 85.931511 188.259116 
L 88.339094 191.56211 
L 90.746677 189.08518 
L 93.15426 187.274541 
L 95.561843 187.346505 
L 97.969426 196.856414 
L 100.377009 195.21282 
L 102.784592 194.275272 
L 105.192175 190.179615 
L 107.599758 204.387535 
L 110.007341 202.426506 
L 112.414924 204.944133 
L 114.822507 197.266286 
L 117.23009 193.344223 
L 119.637673 200.518502 
L 122.045256 202.277084 
L 124.452839 196.885205 
L 126.860422 199.899487 
L 129.268005 204.466586 
L 131.675588 197.936278 
L 134.083171 199.860334 
L 136.490754 200.255541 
L 138.898337 199.665491 
L 141.30592 197.384745 
L 143.713503 199.190015 
L 146.121086 201.734524 
L 148.528669 200.215402 
L 150.936252 194.678699 
L 153.343835 205.649581 
L 155.751418 195.671669 
L 158.159001 195.405299 
L 160.566584 207.089328 
L 162.974167 205.352924 
L 165.38175 206.484495 
L 167.789332 206.960103 
L 170.196915 205.530427 
L 175.012081 207.826683 
L 177.419664 202.855553 
L 179.827247 206.12102 
L 182.23483 205.127389 
L 184.642413 204.484479 
L 189.457579 206.515845 
L 191.865162 206.909549 
L 194.272745 206.191153 
L 196.680328 202.046197 
L 199.087911 206.05519 
L 201.495494 211.001098 
L 203.903077 208.374378 
L 206.31066 206.950475 
L 208.718243 208.37267 
L 211.125826 210.562728 
L 213.533409 208.609529 
L 215.940992 209.342878 
L 218.348575 209.5183 
L 220.756158 210.021345 
L 223.163741 206.821086 
L 225.571324 206.18703 
L 227.978907 208.777594 
L 230.38649 210.949606 
L 232.794073 210.553411 
L 235.201656 210.689414 
L 240.016822 207.200149 
L 242.424405 208.070371 
L 244.831988 209.240418 
L 247.239571 209.815947 
L 249.647154 210.160672 
L 252.054737 208.461283 
L 254.46232 208.331327 
L 256.869903 210.877041 
L 259.277485 210.37711 
L 261.685068 210.747283 
L 264.092651 210.634369 
L 266.500234 209.206479 
L 268.907817 209.544434 
L 271.3154 211.090173 
L 273.722983 210.058607 
L 276.130566 210.356126 
L 278.538149 210.514392 
L 280.945732 210.326948 
L 283.353315 210.920742 
L 285.760898 210.50057 
L 288.168481 209.868132 
L 292.983647 208.978128 
L 295.39123 208.128024 
L 297.798813 209.870679 
L 300.206396 210.694276 
L 307.429145 208.982478 
L 309.836728 208.944867 
L 312.244311 209.491459 
L 314.651894 210.478945 
L 317.059477 209.574432 
L 321.874643 210.938237 
L 324.282226 210.870775 
L 326.689809 210.986359 
L 329.097392 210.802436 
L 331.504975 210.494067 
L 333.912558 210.558487 
L 336.320141 210.754755 
L 338.727724 210.781569 
L 341.135307 210.603369 
L 343.54289 210.295799 
L 345.950473 210.371589 
L 348.358056 211.148145 
L 350.765638 211.173336 
L 353.173221 210.619344 
L 355.580804 210.188261 
L 357.988387 210.425325 
L 360.39597 210.460871 
L 362.803553 210.882301 
L 365.211136 210.532079 
L 367.618719 210.755935 
L 372.433885 210.98434 
L 374.841468 210.19931 
L 377.249051 210.083179 
L 379.656634 210.946688 
L 382.064217 210.912495 
L 384.4718 211.117671 
L 389.286966 210.929653 
L 394.102132 211.025621 
L 396.509715 210.812086 
L 398.917298 211.046511 
L 403.732464 210.817689 
L 410.955213 211.189834 
L 413.362796 210.880935 
L 413.362796 210.880935 
" clip-path="url(#pc2033e796e)" style="fill: none; stroke: #0072b2; stroke-linecap: square"/>
   </g>
   <g id="line2d_17">
    <path d="M 194.425903 220.17573 
L 194.425903 22.486005 
" clip-path="url(#pc2033e796e)" style="fill: none; stroke-dasharray: 2.96,1.28; stroke-dashoffset: 0; stroke: #4b5563; stroke-width: 0.8"/>
   </g>
   <g id="patch_3">
    <path d="M 36.63625 220.17573 
L 36.63625 22.486005 
" style="fill: none; stroke: #000000; stroke-width: 0.8; stroke-linejoin: miter; stroke-linecap: square"/>
   </g>
   <g id="patch_4">
    <path d="M 36.63625 220.17573 
L 432.56327 220.17573 
" style="fill: none; stroke: #000000; stroke-width: 0.8; stroke-linejoin: miter; stroke-linecap: square"/>
   </g>
   <g id="text_17">
    <text style="font-size: 6px; font-family: 'Arial', 'Helvetica', 'DejaVu Sans', sans-serif" transform="translate(195.976996 27.876563) rotate(-90)">5.82 Hz</text>
   </g>
   <g id="text_18">
    <g id="patch_5">
     <path d="M 366.286605 53.784969 
L 424.64473 53.784969 
Q 426.74473 53.784969 426.74473 51.684969 
L 426.74473 30.393594 
Q 426.74473 28.293594 424.64473 28.293594 
L 366.286605 28.293594 
Q 364.186605 28.293594 364.186605 30.393594 
L 364.186605 51.684969 
Q 364.186605 53.784969 366.286605 53.784969 
z
" style="fill: #ffffff; stroke: #d1d5db; stroke-linejoin: miter"/>
    </g>
    <text style="font-size: 7px; font-family: 'Arial', 'Helvetica', 'DejaVu Sans', sans-serif" transform="translate(382.622855 35.404063)">Hann window</text>
    <text style="font-size: 7px; font-family: 'Arial', 'Helvetica', 'DejaVu Sans', sans-serif" transform="translate(370.95473 42.807876)">train window only</text>
    <text style="font-size: 7px; font-family: 'Arial', 'Helvetica', 'DejaVu Sans', sans-serif" transform="translate(366.286605 50.293719)">displacement drive</text>
   </g>
   <g id="text_19">
    <text style="font-size: 9.6px; font-family: 'Arial', 'Helvetica', 'DejaVu Sans', sans-serif; text-anchor: middle" x="234.59976" y="16.486005" transform="rotate(-0 234.59976 16.486005)">Mechanical response frequency selection (train window only)</text>
   </g>
   <g id="legend_1">
    <g id="line2d_18">
     <path d="M 373.994051 115.698602 
L 380.994051 115.698602 
L 387.994051 115.698602 
" style="fill: none; stroke: #d55e00; stroke-width: 1.2; stroke-linecap: square"/>
    </g>
    <g id="text_20">
     <text style="font-size: 7px; font-family: 'Arial', 'Helvetica', 'DejaVu Sans', sans-serif; text-anchor: start" x="393.594051" y="118.148602" transform="rotate(-0 393.594051 118.148602)">target FFT</text>
    </g>
    <g id="line2d_19">
     <path d="M 373.994051 125.682352 
L 380.994051 125.682352 
L 387.994051 125.682352 
" style="fill: none; stroke: #0072b2; stroke-linecap: square"/>
    </g>
    <g id="text_21">
     <text style="font-size: 7px; font-family: 'Arial', 'Helvetica', 'DejaVu Sans', sans-serif; text-anchor: start" x="393.594051" y="128.132352" transform="rotate(-0 393.594051 128.132352)">u FFT</text>
    </g>
   </g>
  </g>
  <g id="axes_2">
   <g id="matplotlib.axis_3">
    <g id="ytick_7">
     <g id="line2d_20">
      <defs>
       <path id="mb8826f60f6" d="M 0 0 
L 3.5 0 
" style="stroke: #000000; stroke-width: 0.8"/>
      </defs>
      <g>
       <use xlink:href="#mb8826f60f6" x="432.56327" y="220.17573" style="stroke: #000000; stroke-width: 0.8"/>
      </g>
     </g>
     <g id="text_22">
      <text style="font-size: 8px; font-family: 'Arial', 'Helvetica', 'DejaVu Sans', sans-serif; text-anchor: start" x="439.56327" y="223.038855" transform="rotate(-0 439.56327 223.038855)">0.0</text>
     </g>
    </g>
    <g id="ytick_8">
     <g id="line2d_21">
      <g>
       <use xlink:href="#mb8826f60f6" x="432.56327" y="180.637785" style="stroke: #000000; stroke-width: 0.8"/>
      </g>
     </g>
     <g id="text_23">
      <text style="font-size: 8px; font-family: 'Arial', 'Helvetica', 'DejaVu Sans', sans-serif; text-anchor: start" x="439.56327" y="183.50091" transform="rotate(-0 439.56327 183.50091)">0.2</text>
     </g>
    </g>
    <g id="ytick_9">
     <g id="line2d_22">
      <g>
       <use xlink:href="#mb8826f60f6" x="432.56327" y="141.09984" style="stroke: #000000; stroke-width: 0.8"/>
      </g>
     </g>
     <g id="text_24">
      <text style="font-size: 8px; font-family: 'Arial', 'Helvetica', 'DejaVu Sans', sans-serif; text-anchor: start" x="439.56327" y="143.962965" transform="rotate(-0 439.56327 143.962965)">0.4</text>
     </g>
    </g>
    <g id="ytick_10">
     <g id="line2d_23">
      <g>
       <use xlink:href="#mb8826f60f6" x="432.56327" y="101.561895" style="stroke: #000000; stroke-width: 0.8"/>
      </g>
     </g>
     <g id="text_25">
      <text style="font-size: 8px; font-family: 'Arial', 'Helvetica', 'DejaVu Sans', sans-serif; text-anchor: start" x="439.56327" y="104.42502" transform="rotate(-0 439.56327 104.42502)">0.6</text>
     </g>
    </g>
    <g id="ytick_11">
     <g id="line2d_24">
      <g>
       <use xlink:href="#mb8826f60f6" x="432.56327" y="62.02395" style="stroke: #000000; stroke-width: 0.8"/>
      </g>
     </g>
     <g id="text_26">
      <text style="font-size: 8px; font-family: 'Arial', 'Helvetica', 'DejaVu Sans', sans-serif; text-anchor: start" x="439.56327" y="64.887075" transform="rotate(-0 439.56327 64.887075)">0.8</text>
     </g>
    </g>
    <g id="ytick_12">
     <g id="line2d_25">
      <g>
       <use xlink:href="#mb8826f60f6" x="432.56327" y="22.486005" style="stroke: #000000; stroke-width: 0.8"/>
      </g>
     </g>
     <g id="text_27">
      <text style="font-size: 8px; font-family: 'Arial', 'Helvetica', 'DejaVu Sans', sans-serif; text-anchor: start" x="439.56327" y="25.34913" transform="rotate(-0 439.56327 25.34913)">1.0</text>
     </g>
    </g>
    <g id="text_28">
     <text style="font-size: 8px; font-family: 'Arial', 'Helvetica', 'DejaVu Sans', sans-serif; text-anchor: middle" x="460.40952" y="121.330868" transform="rotate(-90 460.40952 121.330868)">best coherence</text>
    </g>
   </g>
   <g id="line2d_26">
    <path d="M 54.632933 22.486005 
L 414.566587 22.486005 
L 414.566587 22.486005 
" clip-path="url(#pc2033e796e)" style="fill: none; stroke: #111827; stroke-opacity: 0.65; stroke-width: 0.9; stroke-linecap: square"/>
   </g>
   <g id="patch_6">
    <path d="M 36.63625 220.17573 
L 36.63625 22.486005 
" style="fill: none; stroke: #000000; stroke-width: 0.8; stroke-linejoin: miter; stroke-linecap: square"/>
   </g>
   <g id="patch_7">
    <path d="M 36.63625 220.17573 
L 432.56327 220.17573 
" style="fill: none; stroke: #000000; stroke-width: 0.8; stroke-linejoin: miter; stroke-linecap: square"/>
   </g>
  </g>
 </g>
 <defs>
  <clipPath id="pc2033e796e">
   <rect x="36.63625" y="22.486005" width="395.92702" height="197.689725"/>
  </clipPath>
 </defs>
</svg>
