<?xml version="1.0" encoding="utf-8" standalone="no"?>
<!DOCTYPE svg PUBLIC "-//W3C//DTD SVG 1.1//EN"
  "http://www.w3.org/Graphics/SVG/1.1/DTD/svg11.dtd">
<svg xmlns:xlink="http://www.w3.org/1999/xlink" width="621.70625pt" height="281.634375pt" viewBox="0 0 621.70625 281.634375" xmlns="http://www.w3.org/2000/svg" version="1.1">
 <metadata>
  <rdf:RDF xmlns:dc="http://purl.org/dc/elements/1.1/" xmlns:cc="http://creativecommons.org/ns#" xmlns:rdf="http://www.w3.org/1999/02/22-rdf-syntax-ns#">
   <cc:Work>
    <dc:type rdf:resource="http://purl.org/dc/dcmitype/StillImage"/>
    <dc:date>2026-03-24T15:51:20.196289</dc:date>
    <dc:format>image/svg+xml</dc:format>
    <dc:creator>
     <cc:Agent>
      <dc:title>Matplotlib v3.10.8, https://matplotlib.org/</dc:title>
     </cc:Agent>
    </dc:creator>
   </cc:Work>
  </rdf:RDF>
 </metadata>
 <defs>
  <style type="text/css">*{stroke-linejoin: round; stroke-linecap: butt}</style>
 </defs>
 <g id="figure_1">
  <g id="patch_1">
   <path d="M 0 281.634375 
L 621.70625 281.634375 
L 621.70625 0 
L 0 0 
z
" style="fill: #ffffff"/>
  </g>
  <g id="axes_1">
   <g id="patch_2">
    <path d="M 56.50625 244.078125 
L 614.50625 244.078125 
L 614.50625 22.318125 
L 56.50625 22.318125 
z
" style="fill: #ffffff"/>
   </g>
   <g id="matplotlib.axis_1">
    <g id="xtick_1">
     <g id="line2d_1">
      <path d="M 81.869886 244.078125 
L 81.869886 22.318125 
" clip-path="url(#pec38cc83d1)" style="fill: none; stroke: #b0b0b0; stroke-opacity: 0.3; stroke-width: 0.8; stroke-linecap: square"/>
     </g>
     <g id="line2d_2">
      <defs>
       <path id="m8b1058d666" d="M 0 0 
L 0 3.5 
" style="stroke: #000000; stroke-width: 0.8"/>
      </defs>
      <g>
       <use xlink:href="#m8b1058d666" x="81.869886" y="244.078125" style="stroke: #000000; stroke-width: 0.8"/>
      </g>
     </g>
     <g id="text_1">
      <!-- 0 -->
      <g transform="translate(78.688636 258.676562) scale(0.1 -0.1)">
       <defs>
        <path id="DejaVuSans-30" d="M 2034 4250 
Q 1547 4250 1301 3770 
Q 1056 3291 1056 2328 
Q 1056 1369 1301 889 
Q 1547 409 2034 409 
Q 2525 409 2770 889 
Q 3016 1369 3016 2328 
Q 3016 3291 2770 3770 
Q 2525 4250 2034 4250 
z
M 2034 4750 
Q 2819 4750 3233 4129 
Q 3647 3509 3647 2328 
Q 3647 1150 3233 529 
Q 2819 -91 2034 -91 
Q 1250 -91 836 529 
Q 422 1150 422 2328 
Q 422 3509 836 4129 
Q 1250 4750 2034 4750 
z
" transform="scale(0.015625)"/>
       </defs>
       <use xlink:href="#DejaVuSans-30"/>
      </g>
     </g>
    </g>
    <g id="xtick_2">
     <g id="line2d_3">
      <path d="M 166.98276 244.078125 
L 166.98276 22.318125 
" clip-path="url(#pec38cc83d1)" style="fill: none; stroke: #b0b0b0; stroke-opacity: 0.3; stroke-width: 0.8; stroke-linecap: square"/>
     </g>
     <g id="line2d_4">
      <g>
       <use xlink:href="#m8b1058d666" x="166.98276" y="244.078125" style="stroke: #000000; stroke-width: 0.8"/>
      </g>
     </g>
     <g id="text_2">
      <!-- 50 -->
      <g transform="translate(160.62026 258.676562) scale(0.1 -0.1)">
       <defs>
        <path id="DejaVuSans-35" d="M 691 4666 
L 3169 4666 
L 3169 4134 
L 1269 4134 
L 1269 2991 
Q 1406 3038 1543 3061 
Q 1681 3084 1819 3084 
Q 2600 3084 3056 2656 
Q 3513 2228 3513 1497 
Q 3513 744 3044 326 
Q 2575 -91 1722 -91 
Q 1428 -91 1123 -41 
Q 819 9 494 109 
L 494 744 
Q 775 591 1075 516 
Q 1375 441 1709 441 
Q 2250 441 2565 725 
Q 2881 1009 2881 1497 
Q 2881 1984 2565 2268 
Q 2250 2553 1709 2553 
Q 1456 2553 1204 2497 
Q 953 2441 691 2322 
L 691 4666 
z
" transform="scale(0.015625)"/>
       </defs>
       <use xlink:href="#DejaVuSans-35"/>
       <use xlink:href="#DejaVuSans-30" transform="translate(63.623047 0)"/>
      </g>
     </g>
    </g>
    <g id="xtick_3">
     <g id="line2d_5">
      <path d="M 252.095634 244.078125 
L 252.095634 22.318125 
" clip-path="url(#pec38cc83d1)" style="fill: none; stroke: #b0b0b0; stroke-opacity: 0.3; stroke-width: 0.8; stroke-linecap: square"/>
     </g>
     <g id="line2d_6">
      <g>
       <use xlink:href="#m8b1058d666" x="252.095634" y="244.078125" style="stroke: #000000; stroke-width: 0.8"/>
      </g>
     </g>
     <g id="text_3">
      <!-- 100 -->
      <g transform="translate(242.551884 258.676562) scale(0.1 -0.1)">
       <defs>
        <path id="DejaVuSans-31" d="M 794 531 
L 1825 531 
L 1825 4091 
L 703 3866 
L 703 4441 
L 1819 4666 
L 2450 4666 
L 2450 531 
L 3481 531 
L 3481 0 
L 794 0 
L 794 531 
z
" transform="scale(0.015625)"/>
       </defs>
       <use xlink:href="#DejaVuSans-31"/>
       <use xlink:href="#DejaVuSans-30" transform="translate(63.623047 0)"/>
       <use xlink:href="#DejaVuSans-30" transform="translate(127.246094 0)"/>
      </g>
     </g>
    </g>
    <g id="xtick_4">
     <g id="line2d_7">
      <path d="M 337.208507 244.078125 
L 337.208507 22.318125 
" clip-path="url(#pec38cc83d1)" style="fill: none; stroke: #b0b0b0; stroke-opacity: 0.3; stroke-width: 0.8; stroke-linecap: square"/>
     </g>
     <g id="line2d_8">
      <g>
       <use xlink:href="#m8b1058d666" x="337.208507" y="244.078125" style="stroke: #000000; stroke-width: 0.8"/>
      </g>
     </g>
     <g id="text_4">
      <!-- 150 -->
      <g transform="translate(327.664757 258.676562) scale(0.1 -0.1)">
       <use xlink:href="#DejaVuSans-31"/>
       <use xlink:href="#DejaVuSans-35" transform="translate(63.623047 0)"/>
       <use xlink:href="#DejaVuSans-30" transform="translate(127.246094 0)"/>
      </g>
     </g>
    </g>
    <g id="xtick_5">
     <g id="line2d_9">
      <path d="M 422.321381 244.078125 
L 422.321381 22.318125 
" clip-path="url(#pec38cc83d1)" style="fill: none; stroke: #b0b0b0; stroke-opacity: 0.3; stroke-width: 0.8; stroke-linecap: square"/>
     </g>
     <g id="line2d_10">
      <g>
       <use xlink:href="#m8b1058d666" x="422.321381" y="244.078125" style="stroke: #000000; stroke-width: 0.8"/>
      </g>
     </g>
     <g id="text_5">
      <!-- 200 -->
      <g transform="translate(412.777631 258.676562) scale(0.1 -0.1)">
       <defs>
        <path id="DejaVuSans-32" d="M 1228 531 
L 3431 531 
L 3431 0 
L 469 0 
L 469 531 
Q 828 903 1448 1529 
Q 2069 2156 2228 2338 
Q 2531 2678 2651 2914 
Q 2772 3150 2772 3378 
Q 2772 3750 2511 3984 
Q 2250 4219 1831 4219 
Q 1534 4219 1204 4116 
Q 875 4013 500 3803 
L 500 4441 
Q 881 4594 1212 4672 
Q 1544 4750 1819 4750 
Q 2544 4750 2975 4387 
Q 3406 4025 3406 3419 
Q 3406 3131 3298 2873 
Q 3191 2616 2906 2266 
Q 2828 2175 2409 1742 
Q 1991 1309 1228 531 
z
" transform="scale(0.015625)"/>
       </defs>
       <use xlink:href="#DejaVuSans-32"/>
       <use xlink:href="#DejaVuSans-30" transform="translate(63.623047 0)"/>
       <use xlink:href="#DejaVuSans-30" transform="translate(127.246094 0)"/>
      </g>
     </g>
    </g>
    <g id="xtick_6">
     <g id="line2d_11">
      <path d="M 507.434255 244.078125 
L 507.434255 22.318125 
" clip-path="url(#pec38cc83d1)" style="fill: none; stroke: #b0b0b0; stroke-opacity: 0.3; stroke-width: 0.8; stroke-linecap: square"/>
     </g>
     <g id="line2d_12">
      <g>
       <use xlink:href="#m8b1058d666" x="507.434255" y="244.078125" style="stroke: #000000; stroke-width: 0.8"/>
      </g>
     </g>
     <g id="text_6">
      <!-- 250 -->
      <g transform="translate(497.890505 258.676562) scale(0.1 -0.1)">
       <use xlink:href="#DejaVuSans-32"/>
       <use xlink:href="#DejaVuSans-35" transform="translate(63.623047 0)"/>
       <use xlink:href="#DejaVuSans-30" transform="translate(127.246094 0)"/>
      </g>
     </g>
    </g>
    <g id="xtick_7">
     <g id="line2d_13">
      <path d="M 592.547129 244.078125 
L 592.547129 22.318125 
" clip-path="url(#pec38cc83d1)" style="fill: none; stroke: #b0b0b0; stroke-opacity: 0.3; stroke-width: 0.8; stroke-linecap: square"/>
     </g>
     <g id="line2d_14">
      <g>
       <use xlink:href="#m8b1058d666" x="592.547129" y="244.078125" style="stroke: #000000; stroke-width: 0.8"/>
      </g>
     </g>
     <g id="text_7">
      <!-- 300 -->
      <g transform="translate(583.003379 258.676562) scale(0.1 -0.1)">
       <defs>
        <path id="DejaVuSans-33" d="M 2597 2516 
Q 3050 2419 3304 2112 
Q 3559 1806 3559 1356 
Q 3559 666 3084 287 
Q 2609 -91 1734 -91 
Q 1441 -91 1130 -33 
Q 819 25 488 141 
L 488 750 
Q 750 597 1062 519 
Q 1375 441 1716 441 
Q 2309 441 2620 675 
Q 2931 909 2931 1356 
Q 2931 1769 2642 2001 
Q 2353 2234 1838 2234 
L 1294 2234 
L 1294 2753 
L 1863 2753 
Q 2328 2753 2575 2939 
Q 2822 3125 2822 3475 
Q 2822 3834 2567 4026 
Q 2313 4219 1838 4219 
Q 1578 4219 1281 4162 
Q 984 4106 628 3988 
L 628 4550 
Q 988 4650 1302 4700 
Q 1616 4750 1894 4750 
Q 2613 4750 3031 4423 
Q 3450 4097 3450 3541 
Q 3450 3153 3228 2886 
Q 3006 2619 2597 2516 
z
" transform="scale(0.015625)"/>
       </defs>
       <use xlink:href="#DejaVuSans-33"/>
       <use xlink:href="#DejaVuSans-30" transform="translate(63.623047 0)"/>
       <use xlink:href="#DejaVuSans-30" transform="translate(127.246094 0)"/>
      </g>
     </g>
    </g>
    <g id="text_8">
     <!-- Time Steps -->
     <g transform="translate(307.69375 272.354687) scale(0.1 -0.1)">
      <defs>
       <path id="DejaVuSans-54" d="M -19 4666 
L 3928 4666 
L 3928 4134 
L 2272 4134 
L 2272 0 
L 1638 0 
L 1638 4134 
L -19 4134 
L -19 4666 
z
" transform="scale(0.015625)"/>
       <path id="DejaVuSans-69" d="M 603 3500 
L 1178 3500 
L 1178 0 
L 603 0 
L 603 3500 
z
M 603 4863 
L 1178 4863 
L 1178 4134 
L 603 4134 
L 603 4863 
z
" transform="scale(0.015625)"/>
       <path id="DejaVuSans-6d" d="M 3328 2828 
Q 3544 3216 3844 3400 
Q 4144 3584 4550 3584 
Q 5097 3584 5394 3201 
Q 5691 2819 5691 2113 
L 5691 0 
L 5113 0 
L 5113 2094 
Q 5113 2597 4934 2840 
Q 4756 3084 4391 3084 
Q 3944 3084 3684 2787 
Q 3425 2491 3425 1978 
L 3425 0 
L 2847 0 
L 2847 2094 
Q 2847 2600 2669 2842 
Q 2491 3084 2119 3084 
Q 1678 3084 1418 2786 
Q 1159 2488 1159 1978 
L 1159 0 
L 581 0 
L 581 3500 
L 1159 3500 
L 1159 2956 
Q 1356 3278 1631 3431 
Q 1906 3584 2284 3584 
Q 2666 3584 2933 3390 
Q 3200 3197 3328 2828 
z
" transform="scale(0.015625)"/>
       <path id="DejaVuSans-65" d="M 3597 1894 
L 3597 1613 
L 953 1613 
Q 991 1019 1311 708 
Q 1631 397 2203 397 
Q 2534 397 2845 478 
Q 3156 559 3463 722 
L 3463 178 
Q 3153 47 2828 -22 
Q 2503 -91 2169 -91 
Q 1331 -91 842 396 
Q 353 884 353 1716 
Q 353 2575 817 3079 
Q 1281 3584 2069 3584 
Q 2775 3584 3186 3129 
Q 3597 2675 3597 1894 
z
M 3022 2063 
Q 3016 2534 2758 2815 
Q 2500 3097 2075 3097 
Q 1594 3097 1305 2825 
Q 1016 2553 972 2059 
L 3022 2063 
z
" transform="scale(0.015625)"/>
       <path id="DejaVuSans-20" transform="scale(0.015625)"/>
       <path id="DejaVuSans-53" d="M 3425 4513 
L 3425 3897 
Q 3066 4069 2747 4153 
Q 2428 4238 2131 4238 
Q 1616 4238 1336 4038 
Q 1056 3838 1056 3469 
Q 1056 3159 1242 3001 
Q 1428 2844 1947 2747 
L 2328 2669 
Q 3034 2534 3370 2195 
Q 3706 1856 3706 1288 
Q 3706 609 3251 259 
Q 2797 -91 1919 -91 
Q 1588 -91 1214 -16 
Q 841 59 441 206 
L 441 856 
Q 825 641 1194 531 
Q 1563 422 1919 422 
Q 2459 422 2753 634 
Q 3047 847 3047 1241 
Q 3047 1584 2836 1778 
Q 2625 1972 2144 2069 
L 1759 2144 
Q 1053 2284 737 2584 
Q 422 2884 422 3419 
Q 422 4038 858 4394 
Q 1294 4750 2059 4750 
Q 2388 4750 2728 4690 
Q 3069 4631 3425 4513 
z
" transform="scale(0.015625)"/>
       <path id="DejaVuSans-74" d="M 1172 4494 
L 1172 3500 
L 2356 3500 
L 2356 3053 
L 1172 3053 
L 1172 1153 
Q 1172 725 1289 603 
Q 1406 481 1766 481 
L 2356 481 
L 2356 0 
L 1766 0 
Q 1100 0 847 248 
Q 594 497 594 1153 
L 594 3053 
L 172 3053 
L 172 3500 
L 594 3500 
L 594 4494 
L 1172 4494 
z
" transform="scale(0.015625)"/>
       <path id="DejaVuSans-70" d="M 1159 525 
L 1159 -1331 
L 581 -1331 
L 581 3500 
L 1159 3500 
L 1159 2969 
Q 1341 3281 1617 3432 
Q 1894 3584 2278 3584 
Q 2916 3584 3314 3078 
Q 3713 2572 3713 1747 
Q 3713 922 3314 415 
Q 2916 -91 2278 -91 
Q 1894 -91 1617 61 
Q 1341 213 1159 525 
z
M 3116 1747 
Q 3116 2381 2855 2742 
Q 2594 3103 2138 3103 
Q 1681 3103 1420 2742 
Q 1159 2381 1159 1747 
Q 1159 1113 1420 752 
Q 1681 391 2138 391 
Q 2594 391 2855 752 
Q 3116 1113 3116 1747 
z
" transform="scale(0.015625)"/>
       <path id="DejaVuSans-73" d="M 2834 3397 
L 2834 2853 
Q 2591 2978 2328 3040 
Q 2066 3103 1784 3103 
Q 1356 3103 1142 2972 
Q 928 2841 928 2578 
Q 928 2378 1081 2264 
Q 1234 2150 1697 2047 
L 1894 2003 
Q 2506 1872 2764 1633 
Q 3022 1394 3022 966 
Q 3022 478 2636 193 
Q 2250 -91 1575 -91 
Q 1294 -91 989 -36 
Q 684 19 347 128 
L 347 722 
Q 666 556 975 473 
Q 1284 391 1588 391 
Q 1994 391 2212 530 
Q 2431 669 2431 922 
Q 2431 1156 2273 1281 
Q 2116 1406 1581 1522 
L 1381 1569 
Q 847 1681 609 1914 
Q 372 2147 372 2553 
Q 372 3047 722 3315 
Q 1072 3584 1716 3584 
Q 2034 3584 2315 3537 
Q 2597 3491 2834 3397 
z
" transform="scale(0.015625)"/>
      </defs>
      <use xlink:href="#DejaVuSans-54"/>
      <use xlink:href="#DejaVuSans-69" transform="translate(57.958984 0)"/>
      <use xlink:href="#DejaVuSans-6d" transform="translate(85.742188 0)"/>
      <use xlink:href="#DejaVuSans-65" transform="translate(183.154297 0)"/>
      <use xlink:href="#DejaVuSans-20" transform="translate(244.677734 0)"/>
      <use xlink:href="#DejaVuSans-53" transform="translate(276.464844 0)"/>
      <use xlink:href="#DejaVuSans-74" transform="translate(339.941406 0)"/>
      <use xlink:href="#DejaVuSans-65" transform="translate(379.150391 0)"/>
      <use xlink:href="#DejaVuSans-70" transform="translate(440.673828 0)"/>
      <use xlink:href="#DejaVuSans-73" transform="translate(504.150391 0)"/>
     </g>
    </g>
   </g>
   <g id="matplotlib.axis_2">
    <g id="ytick_1">
     <g id="line2d_15">
      <path d="M 56.50625 226.714402 
L 614.50625 226.714402 
" clip-path="url(#pec38cc83d1)" style="fill: none; stroke: #b0b0b0; stroke-opacity: 0.3; stroke-width: 0.8; stroke-linecap: square"/>
     </g>
     <g id="line2d_16">
      <defs>
       <path id="ma2a2fd29ef" d="M 0 0 
L -3.5 0 
" style="stroke: #000000; stroke-width: 0.8"/>
      </defs>
      <g>
       <use xlink:href="#ma2a2fd29ef" x="56.50625" y="226.714402" style="stroke: #000000; stroke-width: 0.8"/>
      </g>
     </g>
     <g id="text_9">
      <!-- 0.200 -->
      <g transform="translate(20.878125 230.513621) scale(0.1 -0.1)">
       <defs>
        <path id="DejaVuSans-2e" d="M 684 794 
L 1344 794 
L 1344 0 
L 684 0 
L 684 794 
z
" transform="scale(0.015625)"/>
       </defs>
       <use xlink:href="#DejaVuSans-30"/>
       <use xlink:href="#DejaVuSans-2e" transform="translate(63.623047 0)"/>
       <use xlink:href="#DejaVuSans-32" transform="translate(95.410156 0)"/>
       <use xlink:href="#DejaVuSans-30" transform="translate(159.033203 0)"/>
       <use xlink:href="#DejaVuSans-30" transform="translate(222.65625 0)"/>
      </g>
     </g>
    </g>
    <g id="ytick_2">
     <g id="line2d_17">
      <path d="M 56.50625 200.771684 
L 614.50625 200.771684 
" clip-path="url(#pec38cc83d1)" style="fill: none; stroke: #b0b0b0; stroke-opacity: 0.3; stroke-width: 0.8; stroke-linecap: square"/>
     </g>
     <g id="line2d_18">
      <g>
       <use xlink:href="#ma2a2fd29ef" x="56.50625" y="200.771684" style="stroke: #000000; stroke-width: 0.8"/>
      </g>
     </g>
     <g id="text_10">
      <!-- 0.225 -->
      <g transform="translate(20.878125 204.570903) scale(0.1 -0.1)">
       <use xlink:href="#DejaVuSans-30"/>
       <use xlink:href="#DejaVuSans-2e" transform="translate(63.623047 0)"/>
       <use xlink:href="#DejaVuSans-32" transform="translate(95.410156 0)"/>
       <use xlink:href="#DejaVuSans-32" transform="translate(159.033203 0)"/>
       <use xlink:href="#DejaVuSans-35" transform="translate(222.65625 0)"/>
      </g>
     </g>
    </g>
    <g id="ytick_3">
     <g id="line2d_19">
      <path d="M 56.50625 174.828965 
L 614.50625 174.828965 
" clip-path="url(#pec38cc83d1)" style="fill: none; stroke: #b0b0b0; stroke-opacity: 0.3; stroke-width: 0.8; stroke-linecap: square"/>
     </g>
     <g id="line2d_20">
      <g>
       <use xlink:href="#ma2a2fd29ef" x="56.50625" y="174.828965" style="stroke: #000000; stroke-width: 0.8"/>
      </g>
     </g>
     <g id="text_11">
      <!-- 0.250 -->
      <g transform="translate(20.878125 178.628184) scale(0.1 -0.1)">
       <use xlink:href="#DejaVuSans-30"/>
       <use xlink:href="#DejaVuSans-2e" transform="translate(63.623047 0)"/>
       <use xlink:href="#DejaVuSans-32" transform="translate(95.410156 0)"/>
       <use xlink:href="#DejaVuSans-35" transform="translate(159.033203 0)"/>
       <use xlink:href="#DejaVuSans-30" transform="translate(222.65625 0)"/>
      </g>
     </g>
    </g>
    <g id="ytick_4">
     <g id="line2d_21">
      <path d="M 56.50625 148.886247 
L 614.50625 148.886247 
" clip-path="url(#pec38cc83d1)" style="fill: none; stroke: #b0b0b0; stroke-opacity: 0.3; stroke-width: 0.8; stroke-linecap: square"/>
     </g>
     <g id="line2d_22">
      <g>
       <use xlink:href="#ma2a2fd29ef" x="56.50625" y="148.886247" style="stroke: #000000; stroke-width: 0.8"/>
      </g>
     </g>
     <g id="text_12">
      <!-- 0.275 -->
      <g transform="translate(20.878125 152.685465) scale(0.1 -0.1)">
       <defs>
        <path id="DejaVuSans-37" d="M 525 4666 
L 3525 4666 
L 3525 4397 
L 1831 0 
L 1172 0 
L 2766 4134 
L 525 4134 
L 525 4666 
z
" transform="scale(0.015625)"/>
       </defs>
       <use xlink:href="#DejaVuSans-30"/>
       <use xlink:href="#DejaVuSans-2e" transform="translate(63.623047 0)"/>
       <use xlink:href="#DejaVuSans-32" transform="translate(95.410156 0)"/>
       <use xlink:href="#DejaVuSans-37" transform="translate(159.033203 0)"/>
       <use xlink:href="#DejaVuSans-35" transform="translate(222.65625 0)"/>
      </g>
     </g>
    </g>
    <g id="ytick_5">
     <g id="line2d_23">
      <path d="M 56.50625 122.943528 
L 614.50625 122.943528 
" clip-path="url(#pec38cc83d1)" style="fill: none; stroke: #b0b0b0; stroke-opacity: 0.3; stroke-width: 0.8; stroke-linecap: square"/>
     </g>
     <g id="line2d_24">
      <g>
       <use xlink:href="#ma2a2fd29ef" x="56.50625" y="122.943528" style="stroke: #000000; stroke-width: 0.8"/>
      </g>
     </g>
     <g id="text_13">
      <!-- 0.300 -->
      <g transform="translate(20.878125 126.742747) scale(0.1 -0.1)">
       <use xlink:href="#DejaVuSans-30"/>
       <use xlink:href="#DejaVuSans-2e" transform="translate(63.623047 0)"/>
       <use xlink:href="#DejaVuSans-33" transform="translate(95.410156 0)"/>
       <use xlink:href="#DejaVuSans-30" transform="translate(159.033203 0)"/>
       <use xlink:href="#DejaVuSans-30" transform="translate(222.65625 0)"/>
      </g>
     </g>
    </g>
    <g id="ytick_6">
     <g id="line2d_25">
      <path d="M 56.50625 97.000809 
L 614.50625 97.000809 
" clip-path="url(#pec38cc83d1)" style="fill: none; stroke: #b0b0b0; stroke-opacity: 0.3; stroke-width: 0.8; stroke-linecap: square"/>
     </g>
     <g id="line2d_26">
      <g>
       <use xlink:href="#ma2a2fd29ef" x="56.50625" y="97.000809" style="stroke: #000000; stroke-width: 0.8"/>
      </g>
     </g>
     <g id="text_14">
      <!-- 0.325 -->
      <g transform="translate(20.878125 100.800028) scale(0.1 -0.1)">
       <use xlink:href="#DejaVuSans-30"/>
       <use xlink:href="#DejaVuSans-2e" transform="translate(63.623047 0)"/>
       <use xlink:href="#DejaVuSans-33" transform="translate(95.410156 0)"/>
       <use xlink:href="#DejaVuSans-32" transform="translate(159.033203 0)"/>
       <use xlink:href="#DejaVuSans-35" transform="translate(222.65625 0)"/>
      </g>
     </g>
    </g>
    <g id="ytick_7">
     <g id="line2d_27">
      <path d="M 56.50625 71.058091 
L 614.50625 71.058091 
" clip-path="url(#pec38cc83d1)" style="fill: none; stroke: #b0b0b0; stroke-opacity: 0.3; stroke-width: 0.8; stroke-linecap: square"/>
     </g>
     <g id="line2d_28">
      <g>
       <use xlink:href="#ma2a2fd29ef" x="56.50625" y="71.058091" style="stroke: #000000; stroke-width: 0.8"/>
      </g>
     </g>
     <g id="text_15">
      <!-- 0.350 -->
      <g transform="translate(20.878125 74.85731) scale(0.1 -0.1)">
       <use xlink:href="#DejaVuSans-30"/>
       <use xlink:href="#DejaVuSans-2e" transform="translate(63.623047 0)"/>
       <use xlink:href="#DejaVuSans-33" transform="translate(95.410156 0)"/>
       <use xlink:href="#DejaVuSans-35" transform="translate(159.033203 0)"/>
       <use xlink:href="#DejaVuSans-30" transform="translate(222.65625 0)"/>
      </g>
     </g>
    </g>
    <g id="ytick_8">
     <g id="line2d_29">
      <path d="M 56.50625 45.115372 
L 614.50625 45.115372 
" clip-path="url(#pec38cc83d1)" style="fill: none; stroke: #b0b0b0; stroke-opacity: 0.3; stroke-width: 0.8; stroke-linecap: square"/>
     </g>
     <g id="line2d_30">
      <g>
       <use xlink:href="#ma2a2fd29ef" x="56.50625" y="45.115372" style="stroke: #000000; stroke-width: 0.8"/>
      </g>
     </g>
     <g id="text_16">
      <!-- 0.375 -->
      <g transform="translate(20.878125 48.914591) scale(0.1 -0.1)">
       <use xlink:href="#DejaVuSans-30"/>
       <use xlink:href="#DejaVuSans-2e" transform="translate(63.623047 0)"/>
       <use xlink:href="#DejaVuSans-33" transform="translate(95.410156 0)"/>
       <use xlink:href="#DejaVuSans-37" transform="translate(159.033203 0)"/>
       <use xlink:href="#DejaVuSans-35" transform="translate(222.65625 0)"/>
      </g>
     </g>
    </g>
    <g id="text_17">
     <!-- Signal Value -->
     <g transform="translate(14.798437 163.877812) rotate(-90) scale(0.1 -0.1)">
      <defs>
       <path id="DejaVuSans-67" d="M 2906 1791 
Q 2906 2416 2648 2759 
Q 2391 3103 1925 3103 
Q 1463 3103 1205 2759 
Q 947 2416 947 1791 
Q 947 1169 1205 825 
Q 1463 481 1925 481 
Q 2391 481 2648 825 
Q 2906 1169 2906 1791 
z
M 3481 434 
Q 3481 -459 3084 -895 
Q 2688 -1331 1869 -1331 
Q 1566 -1331 1297 -1286 
Q 1028 -1241 775 -1147 
L 775 -588 
Q 1028 -725 1275 -790 
Q 1522 -856 1778 -856 
Q 2344 -856 2625 -561 
Q 2906 -266 2906 331 
L 2906 616 
Q 2728 306 2450 153 
Q 2172 0 1784 0 
Q 1141 0 747 490 
Q 353 981 353 1791 
Q 353 2603 747 3093 
Q 1141 3584 1784 3584 
Q 2172 3584 2450 3431 
Q 2728 3278 2906 2969 
L 2906 3500 
L 3481 3500 
L 3481 434 
z
" transform="scale(0.015625)"/>
       <path id="DejaVuSans-6e" d="M 3513 2113 
L 3513 0 
L 2938 0 
L 2938 2094 
Q 2938 2591 2744 2837 
Q 2550 3084 2163 3084 
Q 1697 3084 1428 2787 
Q 1159 2491 1159 1978 
L 1159 0 
L 581 0 
L 581 3500 
L 1159 3500 
L 1159 2956 
Q 1366 3272 1645 3428 
Q 1925 3584 2291 3584 
Q 2894 3584 3203 3211 
Q 3513 2838 3513 2113 
z
" transform="scale(0.015625)"/>
       <path id="DejaVuSans-61" d="M 2194 1759 
Q 1497 1759 1228 1600 
Q 959 1441 959 1056 
Q 959 750 1161 570 
Q 1363 391 1709 391 
Q 2188 391 2477 730 
Q 2766 1069 2766 1631 
L 2766 1759 
L 2194 1759 
z
M 3341 1997 
L 3341 0 
L 2766 0 
L 2766 531 
Q 2569 213 2275 61 
Q 1981 -91 1556 -91 
Q 1019 -91 701 211 
Q 384 513 384 1019 
Q 384 1609 779 1909 
Q 1175 2209 1959 2209 
L 2766 2209 
L 2766 2266 
Q 2766 2663 2505 2880 
Q 2244 3097 1772 3097 
Q 1472 3097 1187 3025 
Q 903 2953 641 2809 
L 641 3341 
Q 956 3463 1253 3523 
Q 1550 3584 1831 3584 
Q 2591 3584 2966 3190 
Q 3341 2797 3341 1997 
z
" transform="scale(0.015625)"/>
       <path id="DejaVuSans-6c" d="M 603 4863 
L 1178 4863 
L 1178 0 
L 603 0 
L 603 4863 
z
" transform="scale(0.015625)"/>
       <path id="DejaVuSans-56" d="M 1831 0 
L 50 4666 
L 709 4666 
L 2188 738 
L 3669 4666 
L 4325 4666 
L 2547 0 
L 1831 0 
z
" transform="scale(0.015625)"/>
       <path id="DejaVuSans-75" d="M 544 1381 
L 544 3500 
L 1119 3500 
L 1119 1403 
Q 1119 906 1312 657 
Q 1506 409 1894 409 
Q 2359 409 2629 706 
Q 2900 1003 2900 1516 
L 2900 3500 
L 3475 3500 
L 3475 0 
L 2900 0 
L 2900 538 
Q 2691 219 2414 64 
Q 2138 -91 1772 -91 
Q 1169 -91 856 284 
Q 544 659 544 1381 
z
M 1991 3584 
L 1991 3584 
z
" transform="scale(0.015625)"/>
      </defs>
      <use xlink:href="#DejaVuSans-53"/>
      <use xlink:href="#DejaVuSans-69" transform="translate(63.476562 0)"/>
      <use xlink:href="#DejaVuSans-67" transform="translate(91.259766 0)"/>
      <use xlink:href="#DejaVuSans-6e" transform="translate(154.736328 0)"/>
      <use xlink:href="#DejaVuSans-61" transform="translate(218.115234 0)"/>
      <use xlink:href="#DejaVuSans-6c" transform="translate(279.394531 0)"/>
      <use xlink:href="#DejaVuSans-20" transform="translate(307.177734 0)"/>
      <use xlink:href="#DejaVuSans-56" transform="translate(338.964844 0)"/>
      <use xlink:href="#DejaVuSans-61" transform="translate(399.623047 0)"/>
      <use xlink:href="#DejaVuSans-6c" transform="translate(460.902344 0)"/>
      <use xlink:href="#DejaVuSans-75" transform="translate(488.685547 0)"/>
      <use xlink:href="#DejaVuSans-65" transform="translate(552.064453 0)"/>
     </g>
    </g>
   </g>
   <g id="line2d_31">
    <path d="M 81.869886 98.207318 
L 83.572144 93.543834 
L 85.274401 133.048074 
L 86.976659 178.800762 
L 88.678916 206.058656 
L 90.381174 207.54372 
L 93.785689 146.951995 
L 95.487946 128.024133 
L 98.892461 55.335671 
L 100.594719 42.921944 
L 102.296976 68.350032 
L 103.999234 126.620104 
L 105.701491 173.132963 
L 107.403748 198.005017 
L 109.106006 207.413149 
L 110.808263 197.249518 
L 112.510521 180.497367 
L 114.212778 151.735675 
L 115.915036 93.998332 
L 117.617293 65.654021 
L 119.319551 108.275664 
L 121.021808 162.778305 
L 122.724066 198.411747 
L 124.426323 213.661567 
L 126.128581 206.262315 
L 127.830838 196.917573 
L 129.533096 178.542939 
L 131.235353 126.361356 
L 132.937611 65.440468 
L 134.639868 32.398125 
L 136.342126 47.567225 
L 138.044383 100.240517 
L 139.74664 138.881519 
L 141.448898 161.487238 
L 143.151155 187.669699 
L 144.853413 203.708208 
L 146.55567 204.068196 
L 148.257928 177.538549 
L 149.960185 114.561393 
L 151.662443 78.093017 
L 153.3647 100.300586 
L 155.066958 128.464877 
L 156.769215 151.564889 
L 158.471473 179.193599 
L 160.17373 198.263654 
L 161.875988 207.746679 
L 163.578245 199.060312 
L 165.280503 159.47193 
L 166.98276 115.209374 
L 168.685018 86.494926 
L 170.387275 82.34207 
L 172.089532 100.1832 
L 173.79179 102.466568 
L 175.494047 114.413191 
L 177.196305 154.351967 
L 178.898562 184.807598 
L 180.60082 196.277285 
L 182.303077 184.954675 
L 184.005335 150.348927 
L 185.707592 128.866115 
L 187.40985 127.367215 
L 189.112107 108.187006 
L 190.814365 95.650606 
L 192.516622 119.623642 
L 194.21888 152.764234 
L 195.921137 179.191251 
L 197.623395 184.225528 
L 199.325652 168.220637 
L 201.02791 161.720446 
L 202.730167 160.612615 
L 204.432424 155.438917 
L 206.134682 138.584231 
L 207.836939 94.41023 
L 209.539197 83.435318 
L 211.241454 122.532867 
L 212.943712 156.464914 
L 214.645969 173.851547 
L 216.348227 182.440681 
L 218.050484 184.128604 
L 219.752742 185.476614 
L 221.454999 174.75372 
L 223.157257 123.142893 
L 224.859514 75.825812 
L 226.561772 76.447469 
L 228.264029 97.9264 
L 229.966287 125.278233 
L 231.668544 137.62401 
L 233.370802 146.538473 
L 236.775317 202.98513 
L 238.477574 213.512686 
L 240.179831 187.476458 
L 241.882089 128.185973 
L 243.584346 95.896575 
L 245.286604 109.250317 
L 246.988861 121.610194 
L 248.691119 137.730556 
L 252.095634 204.990416 
L 253.797891 222.135136 
L 255.500149 211.579912 
L 258.904664 110.97457 
L 260.606921 89.141806 
L 262.309179 76.237783 
L 264.011436 75.588629 
L 265.713694 79.129346 
L 267.415951 104.980756 
L 269.118209 159.154794 
L 270.820466 204.259751 
L 272.522723 226.235459 
L 274.224981 215.929782 
L 275.927238 181.146824 
L 277.629496 150.406971 
L 279.331753 129.211229 
L 281.034011 98.897078 
L 282.736268 96.986088 
L 284.438526 147.180921 
L 286.140783 202.393951 
L 287.843041 229.848036 
L 289.545298 226.766541 
L 292.949813 171.18337 
L 294.652071 146.061396 
L 296.354328 106.542752 
L 298.056586 70.157298 
L 299.758843 49.569893 
L 301.461101 70.503946 
L 303.163358 130.650126 
L 304.865615 172.278039 
L 306.567873 190.851386 
L 308.27013 195.357494 
L 309.972388 187.744296 
L 311.674645 176.003453 
L 313.376903 146.610424 
L 315.07916 88.899218 
L 316.781418 62.621377 
L 318.483675 104.526036 
L 320.185933 150.261936 
L 321.88819 178.530447 
L 323.590448 186.397126 
L 325.292705 179.499698 
L 326.994963 180.066162 
L 328.69722 171.440338 
L 330.399478 136.939923 
L 332.101735 92.142023 
L 333.803993 56.200783 
L 335.50625 63.278919 
L 337.208507 103.295959 
L 338.910765 123.711823 
L 340.613022 137.739336 
L 342.31528 162.695997 
L 344.017537 181.537967 
L 345.719795 187.061603 
L 347.422052 166.832147 
L 349.12431 117.474027 
L 350.826567 91.201264 
L 352.528825 103.899277 
L 355.93334 111.779145 
L 357.635597 125.739533 
L 359.337855 145.591698 
L 361.040112 170.460717 
L 362.74237 180.761902 
L 364.444627 170.327468 
L 366.146885 154.10531 
L 367.849142 135.635736 
L 369.551399 128.24564 
L 371.253657 122.113327 
L 372.955914 91.838782 
L 374.658172 90.212727 
L 378.062687 167.547239 
L 379.764944 186.326242 
L 381.467202 186.374535 
L 383.169459 169.066077 
L 384.871717 159.235311 
L 386.573974 146.343418 
L 388.276232 99.296016 
L 389.978489 60.764185 
L 391.680747 60.955472 
L 393.383004 91.041265 
L 395.085262 132.49174 
L 396.787519 157.775264 
L 398.489777 168.327989 
L 400.192034 186.729102 
L 401.894291 197.960043 
L 403.596549 195.525571 
L 405.298806 162.376419 
L 407.001064 95.515216 
L 408.703321 72.456013 
L 410.405579 105.93211 
L 412.107836 142.82123 
L 413.810094 169.062835 
L 415.512351 192.960805 
L 417.214609 206.768567 
L 418.916866 211.48046 
L 420.619124 191.69385 
L 424.023639 68.21491 
L 425.725896 46.870443 
L 427.428154 58.580093 
L 429.130411 89.990807 
L 430.832669 111.981677 
L 432.534926 139.285533 
L 434.237183 182.547895 
L 435.939441 215.83507 
L 437.641698 225.480407 
L 439.343956 193.198585 
L 441.046213 129.086531 
L 442.748471 98.189925 
L 446.152986 109.314607 
L 447.855243 130.715771 
L 449.557501 177.002304 
L 451.259758 217.287788 
L 452.962016 231.639158 
L 454.664273 213.765382 
L 456.366531 162.347109 
L 458.068788 119.809911 
L 459.771046 94.522473 
L 461.473303 78.302274 
L 464.877818 71.554599 
L 466.580076 103.357806 
L 468.282333 159.409 
L 469.98459 198.128489 
L 471.686848 211.494885 
L 473.389105 196.909142 
L 475.091363 165.702878 
L 476.79362 145.738088 
L 478.495878 129.261964 
L 480.198135 94.046642 
L 481.900393 92.95957 
L 485.304908 187.859518 
L 487.007165 209.792203 
L 488.709423 200.395411 
L 490.41168 173.194306 
L 492.113938 161.972212 
L 493.816195 153.816613 
L 495.518453 130.679102 
L 498.922968 60.523985 
L 500.625225 76.031636 
L 502.327482 125.708026 
L 504.02974 153.796562 
L 505.731997 166.139433 
L 507.434255 174.635482 
L 509.136512 178.415016 
L 510.83877 177.165823 
L 512.541027 154.539566 
L 514.243285 97.9601 
L 515.945542 72.132254 
L 519.350057 119.654314 
L 521.052315 135.747933 
L 522.754572 140.086042 
L 524.45683 146.097786 
L 526.159087 169.629189 
L 527.861345 184.44331 
L 529.563602 178.610886 
L 531.26586 151.99187 
L 532.968117 111.271463 
L 534.670374 102.986467 
L 536.372632 113.35193 
L 538.074889 106.836401 
L 539.777147 116.382923 
L 541.479404 152.990494 
L 543.181662 183.940093 
L 544.883919 198.612019 
L 546.586177 188.991247 
L 548.288434 148.684223 
L 549.990692 124.67524 
L 551.692949 113.837431 
L 553.395207 85.729535 
L 555.097464 67.781086 
L 556.799722 69.977988 
L 558.501979 101.754676 
L 560.204237 150.779387 
L 561.906494 183.491859 
L 563.608752 197.742194 
L 565.311009 197.150279 
L 568.715524 163.967129 
L 570.417781 134.003602 
L 572.120039 82.987082 
L 573.822296 78.66029 
L 575.524554 128.968156 
L 577.226811 175.729296 
L 578.929069 202.779104 
L 580.631326 209.075994 
L 582.333584 196.260765 
L 584.035841 185.756615 
L 585.738099 159.527433 
L 587.440356 99.040157 
L 589.142614 46.347473 
L 589.142614 46.347473 
" clip-path="url(#pec38cc83d1)" style="fill: none; stroke-dasharray: 5.55,2.4; stroke-dashoffset: 0; stroke: #008000; stroke-width: 1.5"/>
   </g>
   <g id="line2d_32">
    <path d="M 81.869886 174.689057 
L 83.572144 135.541015 
L 85.274401 135.038212 
L 86.976659 186.872634 
L 88.678916 139.721337 
L 90.381174 152.763694 
L 92.083431 189.605335 
L 93.785689 143.922916 
L 95.487946 132.921457 
L 97.190204 115.963858 
L 98.892461 161.431286 
L 100.594719 99.301897 
L 102.296976 75.677557 
L 103.999234 147.636344 
L 105.701491 197.927465 
L 107.403748 190.878057 
L 109.106006 160.473449 
L 110.808263 141.813942 
L 112.510521 184.330904 
L 114.212778 156.8728 
L 115.915036 157.26586 
L 117.617293 113.712332 
L 119.319551 141.676279 
L 121.021808 142.075303 
L 122.724066 143.359021 
L 124.426323 162.788745 
L 126.128581 152.126595 
L 127.830838 143.01956 
L 129.533096 175.939727 
L 131.235353 163.342519 
L 132.937611 147.331306 
L 134.639868 104.028199 
L 136.342126 93.39707 
L 138.044383 116.452425 
L 139.74664 153.98586 
L 141.448898 148.13652 
L 143.151155 173.809054 
L 144.853413 180.439389 
L 146.55567 175.54336 
L 148.257928 144.372246 
L 149.960185 152.872661 
L 151.662443 107.437103 
L 153.3647 152.526711 
L 155.066958 110.135477 
L 158.471473 136.594178 
L 160.17373 137.748705 
L 161.875988 133.07037 
L 163.578245 182.52047 
L 165.280503 178.550265 
L 166.98276 140.441423 
L 168.685018 108.922478 
L 170.387275 142.21131 
L 172.089532 148.43694 
L 173.79179 162.989873 
L 175.494047 155.09497 
L 177.196305 150.66331 
L 178.898562 190.459897 
L 180.60082 171.119975 
L 182.303077 154.077366 
L 184.005335 151.237121 
L 185.707592 101.400817 
L 187.40985 131.395058 
L 189.112107 94.083783 
L 190.814365 103.72322 
L 192.516622 114.883502 
L 194.21888 115.668869 
L 195.921137 154.033366 
L 197.623395 181.567741 
L 199.325652 167.975517 
L 201.02791 130.707168 
L 202.730167 157.981062 
L 204.432424 172.1199 
L 206.134682 149.642126 
L 207.836939 113.807702 
L 209.539197 126.861285 
L 211.241454 156.907241 
L 212.943712 176.973869 
L 214.645969 161.496125 
L 216.348227 160.877499 
L 218.050484 147.851152 
L 219.752742 154.423656 
L 221.454999 133.303735 
L 223.157257 90.998264 
L 224.859514 108.123731 
L 226.561772 106.361273 
L 228.264029 108.883627 
L 229.966287 166.40926 
L 231.668544 158.596408 
L 233.370802 132.651613 
L 235.073059 149.879935 
L 236.775317 194.930543 
L 238.477574 184.401118 
L 240.179831 154.799334 
L 241.882089 149.778579 
L 243.584346 96.032218 
L 245.286604 181.760482 
L 246.988861 166.97383 
L 248.691119 136.878312 
L 250.393376 178.04834 
L 252.095634 156.131264 
L 253.797891 149.482736 
L 255.500149 143.390137 
L 257.202406 132.411645 
L 258.904664 133.80754 
L 260.606921 134.278956 
L 262.309179 96.271043 
L 264.011436 125.537097 
L 265.713694 112.88057 
L 267.415951 115.376727 
L 269.118209 142.908138 
L 270.820466 233.998125 
L 272.522723 194.727234 
L 274.224981 108.896943 
L 275.927238 174.442923 
L 277.629496 170.791489 
L 279.331753 200.844828 
L 281.034011 170.507629 
L 282.736268 99.043082 
L 284.438526 153.685987 
L 286.140783 179.182628 
L 287.843041 181.928246 
L 289.545298 187.469306 
L 291.247556 211.611427 
L 292.949813 145.371497 
L 294.652071 154.625182 
L 296.354328 160.637038 
L 298.056586 153.935679 
L 299.758843 134.23253 
L 301.461101 128.086235 
L 304.865615 186.185697 
L 306.567873 181.876622 
L 308.27013 159.324965 
L 309.972388 122.177162 
L 311.674645 171.178662 
L 313.376903 127.872224 
L 315.07916 129.728038 
L 316.781418 54.656675 
L 318.483675 94.514872 
L 320.185933 86.32615 
L 321.88819 139.006431 
L 323.590448 166.235299 
L 325.292705 130.597611 
L 326.994963 132.697664 
L 328.69722 152.037625 
L 330.399478 168.528528 
L 332.101735 160.211838 
L 333.803993 102.261029 
L 335.50625 117.424554 
L 337.208507 146.754458 
L 338.910765 149.484641 
L 340.613022 150.370726 
L 342.31528 155.268454 
L 344.017537 186.813264 
L 345.719795 139.938991 
L 347.422052 147.186106 
L 349.12431 119.984505 
L 350.826567 75.565305 
L 352.528825 126.038594 
L 354.231082 82.349886 
L 355.93334 137.643218 
L 357.635597 110.865884 
L 359.337855 124.471507 
L 361.040112 144.319824 
L 362.74237 195.870774 
L 364.444627 177.931929 
L 366.146885 150.047648 
L 367.849142 143.918759 
L 369.551399 151.847001 
L 371.253657 158.194857 
L 372.955914 175.231254 
L 374.658172 149.054535 
L 376.360429 145.953414 
L 378.062687 196.958985 
L 379.764944 189.767572 
L 381.467202 167.76211 
L 383.169459 151.451124 
L 384.871717 121.692092 
L 386.573974 129.141539 
L 388.276232 112.20223 
L 389.978489 148.294945 
L 391.680747 101.950502 
L 393.383004 93.969486 
L 395.085262 117.010641 
L 396.787519 161.060646 
L 398.489777 156.443144 
L 400.192034 155.434479 
L 401.894291 185.451604 
L 403.596549 168.073848 
L 405.298806 147.387241 
L 407.001064 146.507922 
L 408.703321 117.323919 
L 410.405579 193.481478 
L 412.107836 164.874858 
L 413.810094 179.261246 
L 415.512351 157.985585 
L 417.214609 184.087543 
L 418.916866 138.261391 
L 420.619124 144.992914 
L 422.321381 153.33932 
L 424.023639 167.956077 
L 425.725896 119.967277 
L 427.428154 117.596785 
L 429.130411 164.32528 
L 430.832669 111.458389 
L 432.534926 128.318423 
L 434.237183 157.633982 
L 435.939441 221.234368 
L 437.641698 189.190446 
L 439.343956 146.484793 
L 441.046213 152.362575 
L 442.748471 121.083472 
L 444.450728 157.85221 
L 446.152986 116.403813 
L 447.855243 126.419271 
L 449.557501 118.237379 
L 451.259758 138.040648 
L 452.962016 146.868785 
L 454.664273 199.883348 
L 456.366531 171.716569 
L 458.068788 131.929358 
L 459.771046 109.567997 
L 461.473303 141.90275 
L 463.175561 125.449745 
L 464.877818 113.960472 
L 466.580076 147.992355 
L 468.282333 150.922293 
L 469.98459 203.67741 
L 471.686848 191.589468 
L 473.389105 163.583625 
L 475.091363 149.554724 
L 476.79362 160.775031 
L 478.495878 126.242798 
L 480.198135 93.974689 
L 481.900393 92.490078 
L 483.60265 108.970617 
L 485.304908 87.862657 
L 487.007165 157.760133 
L 488.709423 155.4077 
L 490.41168 120.271347 
L 492.113938 107.659263 
L 493.816195 175.516494 
L 495.518453 161.017581 
L 497.22071 129.816157 
L 498.922968 104.187869 
L 500.625225 111.641235 
L 502.327482 158.598788 
L 504.02974 158.914332 
L 505.731997 168.796777 
L 507.434255 145.452789 
L 509.136512 160.854992 
L 510.83877 138.321089 
L 512.541027 114.231259 
L 514.243285 83.621021 
L 515.945542 85.608503 
L 517.6478 98.292386 
L 519.350057 81.391436 
L 521.052315 149.623146 
L 522.754572 98.295804 
L 524.45683 106.636313 
L 526.159087 163.94258 
L 527.861345 205.391469 
L 529.563602 158.160238 
L 531.26586 123.126433 
L 532.968117 116.006522 
L 536.372632 177.303405 
L 538.074889 153.745105 
L 539.777147 142.181151 
L 541.479404 139.39876 
L 543.181662 193.823265 
L 544.883919 141.174519 
L 546.586177 149.230778 
L 548.288434 162.345445 
L 549.990692 104.832596 
L 551.692949 115.89863 
L 553.395207 111.045813 
L 555.097464 161.738239 
L 556.799722 77.572551 
L 558.501979 110.032939 
L 560.204237 171.893106 
L 561.906494 196.893158 
L 563.608752 185.415092 
L 565.311009 118.175355 
L 567.013266 141.815095 
L 568.715524 162.382005 
L 570.417781 137.346734 
L 572.120039 161.838622 
L 573.822296 147.389026 
L 575.524554 180.172637 
L 577.226811 156.963528 
L 578.929069 175.03147 
L 580.631326 176.381183 
L 582.333584 169.528398 
L 584.035841 136.006392 
L 585.738099 148.411845 
L 587.440356 150.858597 
L 589.142614 147.345337 
L 589.142614 147.345337 
" clip-path="url(#pec38cc83d1)" style="fill: none; stroke: #ff0000; stroke-width: 1.5; stroke-linecap: square"/>
   </g>
   <g id="patch_3">
    <path d="M 56.50625 244.078125 
L 56.50625 22.318125 
" style="fill: none; stroke: #000000; stroke-width: 0.8; stroke-linejoin: miter; stroke-linecap: square"/>
   </g>
   <g id="patch_4">
    <path d="M 614.50625 244.078125 
L 614.50625 22.318125 
" style="fill: none; stroke: #000000; stroke-width: 0.8; stroke-linejoin: miter; stroke-linecap: square"/>
   </g>
   <g id="patch_5">
    <path d="M 56.50625 244.078125 
L 614.50625 244.078125 
" style="fill: none; stroke: #000000; stroke-width: 0.8; stroke-linejoin: miter; stroke-linecap: square"/>
   </g>
   <g id="patch_6">
    <path d="M 56.50625 22.318125 
L 614.50625 22.318125 
" style="fill: none; stroke: #000000; stroke-width: 0.8; stroke-linejoin: miter; stroke-linecap: square"/>
   </g>
   <g id="text_18">
    <!-- Task Performance: NARMA10 (validation set) -->
    <g transform="translate(201.816875 16.318125) scale(0.12 -0.12)">
     <defs>
      <path id="DejaVuSans-6b" d="M 581 4863 
L 1159 4863 
L 1159 1991 
L 2875 3500 
L 3609 3500 
L 1753 1863 
L 3688 0 
L 2938 0 
L 1159 1709 
L 1159 0 
L 581 0 
L 581 4863 
z
" transform="scale(0.015625)"/>
      <path id="DejaVuSans-50" d="M 1259 4147 
L 1259 2394 
L 2053 2394 
Q 2494 2394 2734 2622 
Q 2975 2850 2975 3272 
Q 2975 3691 2734 3919 
Q 2494 4147 2053 4147 
L 1259 4147 
z
M 628 4666 
L 2053 4666 
Q 2838 4666 3239 4311 
Q 3641 3956 3641 3272 
Q 3641 2581 3239 2228 
Q 2838 1875 2053 1875 
L 1259 1875 
L 1259 0 
L 628 0 
L 628 4666 
z
" transform="scale(0.015625)"/>
      <path id="DejaVuSans-72" d="M 2631 2963 
Q 2534 3019 2420 3045 
Q 2306 3072 2169 3072 
Q 1681 3072 1420 2755 
Q 1159 2438 1159 1844 
L 1159 0 
L 581 0 
L 581 3500 
L 1159 3500 
L 1159 2956 
Q 1341 3275 1631 3429 
Q 1922 3584 2338 3584 
Q 2397 3584 2469 3576 
Q 2541 3569 2628 3553 
L 2631 2963 
z
" transform="scale(0.015625)"/>
      <path id="DejaVuSans-66" d="M 2375 4863 
L 2375 4384 
L 1825 4384 
Q 1516 4384 1395 4259 
Q 1275 4134 1275 3809 
L 1275 3500 
L 2222 3500 
L 2222 3053 
L 1275 3053 
L 1275 0 
L 697 0 
L 697 3053 
L 147 3053 
L 147 3500 
L 697 3500 
L 697 3744 
Q 697 4328 969 4595 
Q 1241 4863 1831 4863 
L 2375 4863 
z
" transform="scale(0.015625)"/>
      <path id="DejaVuSans-6f" d="M 1959 3097 
Q 1497 3097 1228 2736 
Q 959 2375 959 1747 
Q 959 1119 1226 758 
Q 1494 397 1959 397 
Q 2419 397 2687 759 
Q 2956 1122 2956 1747 
Q 2956 2369 2687 2733 
Q 2419 3097 1959 3097 
z
M 1959 3584 
Q 2709 3584 3137 3096 
Q 3566 2609 3566 1747 
Q 3566 888 3137 398 
Q 2709 -91 1959 -91 
Q 1206 -91 779 398 
Q 353 888 353 1747 
Q 353 2609 779 3096 
Q 1206 3584 1959 3584 
z
" transform="scale(0.015625)"/>
      <path id="DejaVuSans-63" d="M 3122 3366 
L 3122 2828 
Q 2878 2963 2633 3030 
Q 2388 3097 2138 3097 
Q 1578 3097 1268 2742 
Q 959 2388 959 1747 
Q 959 1106 1268 751 
Q 1578 397 2138 397 
Q 2388 397 2633 464 
Q 2878 531 3122 666 
L 3122 134 
Q 2881 22 2623 -34 
Q 2366 -91 2075 -91 
Q 1284 -91 818 406 
Q 353 903 353 1747 
Q 353 2603 823 3093 
Q 1294 3584 2113 3584 
Q 2378 3584 2631 3529 
Q 2884 3475 3122 3366 
z
" transform="scale(0.015625)"/>
      <path id="DejaVuSans-3a" d="M 750 794 
L 1409 794 
L 1409 0 
L 750 0 
L 750 794 
z
M 750 3309 
L 1409 3309 
L 1409 2516 
L 750 2516 
L 750 3309 
z
" transform="scale(0.015625)"/>
      <path id="DejaVuSans-4e" d="M 628 4666 
L 1478 4666 
L 3547 763 
L 3547 4666 
L 4159 4666 
L 4159 0 
L 3309 0 
L 1241 3903 
L 1241 0 
L 628 0 
L 628 4666 
z
" transform="scale(0.015625)"/>
      <path id="DejaVuSans-41" d="M 2188 4044 
L 1331 1722 
L 3047 1722 
L 2188 4044 
z
M 1831 4666 
L 2547 4666 
L 4325 0 
L 3669 0 
L 3244 1197 
L 1141 1197 
L 716 0 
L 50 0 
L 1831 4666 
z
" transform="scale(0.015625)"/>
      <path id="DejaVuSans-52" d="M 2841 2188 
Q 3044 2119 3236 1894 
Q 3428 1669 3622 1275 
L 4263 0 
L 3584 0 
L 2988 1197 
Q 2756 1666 2539 1819 
Q 2322 1972 1947 1972 
L 1259 1972 
L 1259 0 
L 628 0 
L 628 4666 
L 2053 4666 
Q 2853 4666 3247 4331 
Q 3641 3997 3641 3322 
Q 3641 2881 3436 2590 
Q 3231 2300 2841 2188 
z
M 1259 4147 
L 1259 2491 
L 2053 2491 
Q 2509 2491 2742 2702 
Q 2975 2913 2975 3322 
Q 2975 3731 2742 3939 
Q 2509 4147 2053 4147 
L 1259 4147 
z
" transform="scale(0.015625)"/>
      <path id="DejaVuSans-4d" d="M 628 4666 
L 1569 4666 
L 2759 1491 
L 3956 4666 
L 4897 4666 
L 4897 0 
L 4281 0 
L 4281 4097 
L 3078 897 
L 2444 897 
L 1241 4097 
L 1241 0 
L 628 0 
L 628 4666 
z
" transform="scale(0.015625)"/>
      <path id="DejaVuSans-28" d="M 1984 4856 
Q 1566 4138 1362 3434 
Q 1159 2731 1159 2009 
Q 1159 1288 1364 580 
Q 1569 -128 1984 -844 
L 1484 -844 
Q 1016 -109 783 600 
Q 550 1309 550 2009 
Q 550 2706 781 3412 
Q 1013 4119 1484 4856 
L 1984 4856 
z
" transform="scale(0.015625)"/>
      <path id="DejaVuSans-76" d="M 191 3500 
L 800 3500 
L 1894 563 
L 2988 3500 
L 3597 3500 
L 2284 0 
L 1503 0 
L 191 3500 
z
" transform="scale(0.015625)"/>
      <path id="DejaVuSans-64" d="M 2906 2969 
L 2906 4863 
L 3481 4863 
L 3481 0 
L 2906 0 
L 2906 525 
Q 2725 213 2448 61 
Q 2172 -91 1784 -91 
Q 1150 -91 751 415 
Q 353 922 353 1747 
Q 353 2572 751 3078 
Q 1150 3584 1784 3584 
Q 2172 3584 2448 3432 
Q 2725 3281 2906 2969 
z
M 947 1747 
Q 947 1113 1208 752 
Q 1469 391 1925 391 
Q 2381 391 2643 752 
Q 2906 1113 2906 1747 
Q 2906 2381 2643 2742 
Q 2381 3103 1925 3103 
Q 1469 3103 1208 2742 
Q 947 2381 947 1747 
z
" transform="scale(0.015625)"/>
      <path id="DejaVuSans-29" d="M 513 4856 
L 1013 4856 
Q 1481 4119 1714 3412 
Q 1947 2706 1947 2009 
Q 1947 1309 1714 600 
Q 1481 -109 1013 -844 
L 513 -844 
Q 928 -128 1133 580 
Q 1338 1288 1338 2009 
Q 1338 2731 1133 3434 
Q 928 4138 513 4856 
z
" transform="scale(0.015625)"/>
     </defs>
     <use xlink:href="#DejaVuSans-54"/>
     <use xlink:href="#DejaVuSans-61" transform="translate(44.583984 0)"/>
     <use xlink:href="#DejaVuSans-73" transform="translate(105.863281 0)"/>
     <use xlink:href="#DejaVuSans-6b" transform="translate(157.962891 0)"/>
     <use xlink:href="#DejaVuSans-20" transform="translate(215.873047 0)"/>
     <use xlink:href="#DejaVuSans-50" transform="translate(247.660156 0)"/>
     <use xlink:href="#DejaVuSans-65" transform="translate(304.337891 0)"/>
     <use xlink:href="#DejaVuSans-72" transform="translate(365.861328 0)"/>
     <use xlink:href="#DejaVuSans-66" transform="translate(406.974609 0)"/>
     <use xlink:href="#DejaVuSans-6f" transform="translate(442.179688 0)"/>
     <use xlink:href="#DejaVuSans-72" transform="translate(503.361328 0)"/>
     <use xlink:href="#DejaVuSans-6d" transform="translate(542.724609 0)"/>
     <use xlink:href="#DejaVuSans-61" transform="translate(640.136719 0)"/>
     <use xlink:href="#DejaVuSans-6e" transform="translate(701.416016 0)"/>
     <use xlink:href="#DejaVuSans-63" transform="translate(764.794922 0)"/>
     <use xlink:href="#DejaVuSans-65" transform="translate(819.775391 0)"/>
     <use xlink:href="#DejaVuSans-3a" transform="translate(881.298828 0)"/>
     <use xlink:href="#DejaVuSans-20" transform="translate(914.990234 0)"/>
     <use xlink:href="#DejaVuSans-4e" transform="translate(946.777344 0)"/>
     <use xlink:href="#DejaVuSans-41" transform="translate(1021.582031 0)"/>
     <use xlink:href="#DejaVuSans-52" transform="translate(1089.990234 0)"/>
     <use xlink:href="#DejaVuSans-4d" transform="translate(1159.472656 0)"/>
     <use xlink:href="#DejaVuSans-41" transform="translate(1245.751953 0)"/>
     <use xlink:href="#DejaVuSans-31" transform="translate(1314.160156 0)"/>
     <use xlink:href="#DejaVuSans-30" transform="translate(1377.783203 0)"/>
     <use xlink:href="#DejaVuSans-20" transform="translate(1441.40625 0)"/>
     <use xlink:href="#DejaVuSans-28" transform="translate(1473.193359 0)"/>
     <use xlink:href="#DejaVuSans-76" transform="translate(1512.207031 0)"/>
     <use xlink:href="#DejaVuSans-61" transform="translate(1571.386719 0)"/>
     <use xlink:href="#DejaVuSans-6c" transform="translate(1632.666016 0)"/>
     <use xlink:href="#DejaVuSans-69" transform="translate(1660.449219 0)"/>
     <use xlink:href="#DejaVuSans-64" transform="translate(1688.232422 0)"/>
     <use xlink:href="#DejaVuSans-61" transform="translate(1751.708984 0)"/>
     <use xlink:href="#DejaVuSans-74" transform="translate(1812.988281 0)"/>
     <use xlink:href="#DejaVuSans-69" transform="translate(1852.197266 0)"/>
     <use xlink:href="#DejaVuSans-6f" transform="translate(1879.980469 0)"/>
     <use xlink:href="#DejaVuSans-6e" transform="translate(1941.162109 0)"/>
     <use xlink:href="#DejaVuSans-20" transform="translate(2004.541016 0)"/>
     <use xlink:href="#DejaVuSans-73" transform="translate(2036.328125 0)"/>
     <use xlink:href="#DejaVuSans-65" transform="translate(2088.427734 0)"/>
     <use xlink:href="#DejaVuSans-74" transform="translate(2149.951172 0)"/>
     <use xlink:href="#DejaVuSans-29" transform="translate(2189.160156 0)"/>
    </g>
   </g>
   <g id="legend_1">
    <g id="patch_7">
     <path d="M 525.832813 59.674375 
L 607.50625 59.674375 
Q 609.50625 59.674375 609.50625 57.674375 
L 609.50625 29.318125 
Q 609.50625 27.318125 607.50625 27.318125 
L 525.832813 27.318125 
Q 523.832813 27.318125 523.832813 29.318125 
L 523.832813 57.674375 
Q 523.832813 59.674375 525.832813 59.674375 
z
" style="fill: #ffffff; opacity: 0.8; stroke: #cccccc; stroke-linejoin: miter"/>
    </g>
    <g id="line2d_33">
     <path d="M 527.832813 35.416562 
L 537.832813 35.416562 
L 547.832813 35.416562 
" style="fill: none; stroke-dasharray: 5.55,2.4; stroke-dashoffset: 0; stroke: #008000; stroke-width: 1.5"/>
    </g>
    <g id="text_19">
     <!-- Target -->
     <g transform="translate(555.832813 38.916562) scale(0.1 -0.1)">
      <use xlink:href="#DejaVuSans-54"/>
      <use xlink:href="#DejaVuSans-61" transform="translate(44.583984 0)"/>
      <use xlink:href="#DejaVuSans-72" transform="translate(105.863281 0)"/>
      <use xlink:href="#DejaVuSans-67" transform="translate(145.226562 0)"/>
      <use xlink:href="#DejaVuSans-65" transform="translate(208.703125 0)"/>
      <use xlink:href="#DejaVuSans-74" transform="translate(270.226562 0)"/>
     </g>
    </g>
    <g id="line2d_34">
     <path d="M 527.832813 50.094687 
L 537.832813 50.094687 
L 547.832813 50.094687 
" style="fill: none; stroke: #ff0000; stroke-width: 1.5; stroke-linecap: square"/>
    </g>
    <g id="text_20">
     <!-- Prediction -->
     <g transform="translate(555.832813 53.594687) scale(0.1 -0.1)">
      <use xlink:href="#DejaVuSans-50"/>
      <use xlink:href="#DejaVuSans-72" transform="translate(58.552734 0)"/>
      <use xlink:href="#DejaVuSans-65" transform="translate(97.416016 0)"/>
      <use xlink:href="#DejaVuSans-64" transform="translate(158.939453 0)"/>
      <use xlink:href="#DejaVuSans-69" transform="translate(222.416016 0)"/>
      <use xlink:href="#DejaVuSans-63" transform="translate(250.199219 0)"/>
      <use xlink:href="#DejaVuSans-74" transform="translate(305.179688 0)"/>
      <use xlink:href="#DejaVuSans-69" transform="translate(344.388672 0)"/>
      <use xlink:href="#DejaVuSans-6f" transform="translate(372.171875 0)"/>
      <use xlink:href="#DejaVuSans-6e" transform="translate(433.353516 0)"/>
     </g>
    </g>
   </g>
  </g>
 </g>
 <defs>
  <clipPath id="pec38cc83d1">
   <rect x="56.50625" y="22.318125" width="558" height="221.76"/>
  </clipPath>
 </defs>
</svg>
