<?xml version="1.0" encoding="utf-8" standalone="no"?>
<!DOCTYPE svg PUBLIC "-//W3C//DTD SVG 1.1//EN"
  "http://www.w3.org/Graphics/SVG/1.1/DTD/svg11.dtd">
<svg xmlns:xlink="http://www.w3.org/1999/xlink" width="615.34375pt" height="281.634375pt" viewBox="0 0 615.34375 281.634375" xmlns="http://www.w3.org/2000/svg" version="1.1">
 <metadata>
  <rdf:RDF xmlns:dc="http://purl.org/dc/elements/1.1/" xmlns:cc="http://creativecommons.org/ns#" xmlns:rdf="http://www.w3.org/1999/02/22-rdf-syntax-ns#">
   <cc:Work>
    <dc:type rdf:resource="http://purl.org/dc/dcmitype/StillImage"/>
    <dc:date>2026-03-24T15:51:20.267015</dc:date>
    <dc:format>image/svg+xml</dc:format>
    <dc:creator>
     <cc:Agent>
      <dc:title>Matplotlib v3.10.8, https://matplotlib.org/</dc:title>
     </cc:Agent>
    </dc:creator>
   </cc:Work>
  </rdf:RDF>
 </metadata>
 <defs>
  <style type="text/css">*{stroke-linejoin: round; stroke-linecap: butt}</style>
 </defs>
 <g id="figure_1">
  <g id="patch_1">
   <path d="M 0 281.634375 
L 615.34375 281.634375 
L 615.34375 0 
L 0 0 
z
" style="fill: #ffffff"/>
  </g>
  <g id="axes_1">
   <g id="patch_2">
    <path d="M 50.14375 244.078125 
L 608.14375 244.078125 
L 608.14375 22.318125 
L 50.14375 22.318125 
z
" style="fill: #ffffff"/>
   </g>
   <g id="matplotlib.axis_1">
    <g id="xtick_1">
     <g id="line2d_1">
      <path d="M 75.507386 244.078125 
L 75.507386 22.318125 
" clip-path="url(#p3333820258)" style="fill: none; stroke: #b0b0b0; stroke-opacity: 0.3; stroke-width: 0.8; stroke-linecap: square"/>
     </g>
     <g id="line2d_2">
      <defs>
       <path id="m718c6deaa5" d="M 0 0 
L 0 3.5 
" style="stroke: #000000; stroke-width: 0.8"/>
      </defs>
      <g>
       <use xlink:href="#m718c6deaa5" x="75.507386" y="244.078125" style="stroke: #000000; stroke-width: 0.8"/>
      </g>
     </g>
     <g id="text_1">
      <!-- 0 -->
      <g transform="translate(72.326136 258.676562) scale(0.1 -0.1)">
       <defs>
        <path id="DejaVuSans-30" d="M 2034 4250 
Q 1547 4250 1301 3770 
Q 1056 3291 1056 2328 
Q 1056 1369 1301 889 
Q 1547 409 2034 409 
Q 2525 409 2770 889 
Q 3016 1369 3016 2328 
Q 3016 3291 2770 3770 
Q 2525 4250 2034 4250 
z
M 2034 4750 
Q 2819 4750 3233 4129 
Q 3647 3509 3647 2328 
Q 3647 1150 3233 529 
Q 2819 -91 2034 -91 
Q 1250 -91 836 529 
Q 422 1150 422 2328 
Q 422 3509 836 4129 
Q 1250 4750 2034 4750 
z
" transform="scale(0.015625)"/>
       </defs>
       <use xlink:href="#DejaVuSans-30"/>
      </g>
     </g>
    </g>
    <g id="xtick_2">
     <g id="line2d_3">
      <path d="M 160.62026 244.078125 
L 160.62026 22.318125 
" clip-path="url(#p3333820258)" style="fill: none; stroke: #b0b0b0; stroke-opacity: 0.3; stroke-width: 0.8; stroke-linecap: square"/>
     </g>
     <g id="line2d_4">
      <g>
       <use xlink:href="#m718c6deaa5" x="160.62026" y="244.078125" style="stroke: #000000; stroke-width: 0.8"/>
      </g>
     </g>
     <g id="text_2">
      <!-- 50 -->
      <g transform="translate(154.25776 258.676562) scale(0.1 -0.1)">
       <defs>
        <path id="DejaVuSans-35" d="M 691 4666 
L 3169 4666 
L 3169 4134 
L 1269 4134 
L 1269 2991 
Q 1406 3038 1543 3061 
Q 1681 3084 1819 3084 
Q 2600 3084 3056 2656 
Q 3513 2228 3513 1497 
Q 3513 744 3044 326 
Q 2575 -91 1722 -91 
Q 1428 -91 1123 -41 
Q 819 9 494 109 
L 494 744 
Q 775 591 1075 516 
Q 1375 441 1709 441 
Q 2250 441 2565 725 
Q 2881 1009 2881 1497 
Q 2881 1984 2565 2268 
Q 2250 2553 1709 2553 
Q 1456 2553 1204 2497 
Q 953 2441 691 2322 
L 691 4666 
z
" transform="scale(0.015625)"/>
       </defs>
       <use xlink:href="#DejaVuSans-35"/>
       <use xlink:href="#DejaVuSans-30" transform="translate(63.623047 0)"/>
      </g>
     </g>
    </g>
    <g id="xtick_3">
     <g id="line2d_5">
      <path d="M 245.733134 244.078125 
L 245.733134 22.318125 
" clip-path="url(#p3333820258)" style="fill: none; stroke: #b0b0b0; stroke-opacity: 0.3; stroke-width: 0.8; stroke-linecap: square"/>
     </g>
     <g id="line2d_6">
      <g>
       <use xlink:href="#m718c6deaa5" x="245.733134" y="244.078125" style="stroke: #000000; stroke-width: 0.8"/>
      </g>
     </g>
     <g id="text_3">
      <!-- 100 -->
      <g transform="translate(236.189384 258.676562) scale(0.1 -0.1)">
       <defs>
        <path id="DejaVuSans-31" d="M 794 531 
L 1825 531 
L 1825 4091 
L 703 3866 
L 703 4441 
L 1819 4666 
L 2450 4666 
L 2450 531 
L 3481 531 
L 3481 0 
L 794 0 
L 794 531 
z
" transform="scale(0.015625)"/>
       </defs>
       <use xlink:href="#DejaVuSans-31"/>
       <use xlink:href="#DejaVuSans-30" transform="translate(63.623047 0)"/>
       <use xlink:href="#DejaVuSans-30" transform="translate(127.246094 0)"/>
      </g>
     </g>
    </g>
    <g id="xtick_4">
     <g id="line2d_7">
      <path d="M 330.846007 244.078125 
L 330.846007 22.318125 
" clip-path="url(#p3333820258)" style="fill: none; stroke: #b0b0b0; stroke-opacity: 0.3; stroke-width: 0.8; stroke-linecap: square"/>
     </g>
     <g id="line2d_8">
      <g>
       <use xlink:href="#m718c6deaa5" x="330.846007" y="244.078125" style="stroke: #000000; stroke-width: 0.8"/>
      </g>
     </g>
     <g id="text_4">
      <!-- 150 -->
      <g transform="translate(321.302257 258.676562) scale(0.1 -0.1)">
       <use xlink:href="#DejaVuSans-31"/>
       <use xlink:href="#DejaVuSans-35" transform="translate(63.623047 0)"/>
       <use xlink:href="#DejaVuSans-30" transform="translate(127.246094 0)"/>
      </g>
     </g>
    </g>
    <g id="xtick_5">
     <g id="line2d_9">
      <path d="M 415.958881 244.078125 
L 415.958881 22.318125 
" clip-path="url(#p3333820258)" style="fill: none; stroke: #b0b0b0; stroke-opacity: 0.3; stroke-width: 0.8; stroke-linecap: square"/>
     </g>
     <g id="line2d_10">
      <g>
       <use xlink:href="#m718c6deaa5" x="415.958881" y="244.078125" style="stroke: #000000; stroke-width: 0.8"/>
      </g>
     </g>
     <g id="text_5">
      <!-- 200 -->
      <g transform="translate(406.415131 258.676562) scale(0.1 -0.1)">
       <defs>
        <path id="DejaVuSans-32" d="M 1228 531 
L 3431 531 
L 3431 0 
L 469 0 
L 469 531 
Q 828 903 1448 1529 
Q 2069 2156 2228 2338 
Q 2531 2678 2651 2914 
Q 2772 3150 2772 3378 
Q 2772 3750 2511 3984 
Q 2250 4219 1831 4219 
Q 1534 4219 1204 4116 
Q 875 4013 500 3803 
L 500 4441 
Q 881 4594 1212 4672 
Q 1544 4750 1819 4750 
Q 2544 4750 2975 4387 
Q 3406 4025 3406 3419 
Q 3406 3131 3298 2873 
Q 3191 2616 2906 2266 
Q 2828 2175 2409 1742 
Q 1991 1309 1228 531 
z
" transform="scale(0.015625)"/>
       </defs>
       <use xlink:href="#DejaVuSans-32"/>
       <use xlink:href="#DejaVuSans-30" transform="translate(63.623047 0)"/>
       <use xlink:href="#DejaVuSans-30" transform="translate(127.246094 0)"/>
      </g>
     </g>
    </g>
    <g id="xtick_6">
     <g id="line2d_11">
      <path d="M 501.071755 244.078125 
L 501.071755 22.318125 
" clip-path="url(#p3333820258)" style="fill: none; stroke: #b0b0b0; stroke-opacity: 0.3; stroke-width: 0.8; stroke-linecap: square"/>
     </g>
     <g id="line2d_12">
      <g>
       <use xlink:href="#m718c6deaa5" x="501.071755" y="244.078125" style="stroke: #000000; stroke-width: 0.8"/>
      </g>
     </g>
     <g id="text_6">
      <!-- 250 -->
      <g transform="translate(491.528005 258.676562) scale(0.1 -0.1)">
       <use xlink:href="#DejaVuSans-32"/>
       <use xlink:href="#DejaVuSans-35" transform="translate(63.623047 0)"/>
       <use xlink:href="#DejaVuSans-30" transform="translate(127.246094 0)"/>
      </g>
     </g>
    </g>
    <g id="xtick_7">
     <g id="line2d_13">
      <path d="M 586.184629 244.078125 
L 586.184629 22.318125 
" clip-path="url(#p3333820258)" style="fill: none; stroke: #b0b0b0; stroke-opacity: 0.3; stroke-width: 0.8; stroke-linecap: square"/>
     </g>
     <g id="line2d_14">
      <g>
       <use xlink:href="#m718c6deaa5" x="586.184629" y="244.078125" style="stroke: #000000; stroke-width: 0.8"/>
      </g>
     </g>
     <g id="text_7">
      <!-- 300 -->
      <g transform="translate(576.640879 258.676562) scale(0.1 -0.1)">
       <defs>
        <path id="DejaVuSans-33" d="M 2597 2516 
Q 3050 2419 3304 2112 
Q 3559 1806 3559 1356 
Q 3559 666 3084 287 
Q 2609 -91 1734 -91 
Q 1441 -91 1130 -33 
Q 819 25 488 141 
L 488 750 
Q 750 597 1062 519 
Q 1375 441 1716 441 
Q 2309 441 2620 675 
Q 2931 909 2931 1356 
Q 2931 1769 2642 2001 
Q 2353 2234 1838 2234 
L 1294 2234 
L 1294 2753 
L 1863 2753 
Q 2328 2753 2575 2939 
Q 2822 3125 2822 3475 
Q 2822 3834 2567 4026 
Q 2313 4219 1838 4219 
Q 1578 4219 1281 4162 
Q 984 4106 628 3988 
L 628 4550 
Q 988 4650 1302 4700 
Q 1616 4750 1894 4750 
Q 2613 4750 3031 4423 
Q 3450 4097 3450 3541 
Q 3450 3153 3228 2886 
Q 3006 2619 2597 2516 
z
" transform="scale(0.015625)"/>
       </defs>
       <use xlink:href="#DejaVuSans-33"/>
       <use xlink:href="#DejaVuSans-30" transform="translate(63.623047 0)"/>
       <use xlink:href="#DejaVuSans-30" transform="translate(127.246094 0)"/>
      </g>
     </g>
    </g>
    <g id="text_8">
     <!-- Time Steps -->
     <g transform="translate(301.33125 272.354687) scale(0.1 -0.1)">
      <defs>
       <path id="DejaVuSans-54" d="M -19 4666 
L 3928 4666 
L 3928 4134 
L 2272 4134 
L 2272 0 
L 1638 0 
L 1638 4134 
L -19 4134 
L -19 4666 
z
" transform="scale(0.015625)"/>
       <path id="DejaVuSans-69" d="M 603 3500 
L 1178 3500 
L 1178 0 
L 603 0 
L 603 3500 
z
M 603 4863 
L 1178 4863 
L 1178 4134 
L 603 4134 
L 603 4863 
z
" transform="scale(0.015625)"/>
       <path id="DejaVuSans-6d" d="M 3328 2828 
Q 3544 3216 3844 3400 
Q 4144 3584 4550 3584 
Q 5097 3584 5394 3201 
Q 5691 2819 5691 2113 
L 5691 0 
L 5113 0 
L 5113 2094 
Q 5113 2597 4934 2840 
Q 4756 3084 4391 3084 
Q 3944 3084 3684 2787 
Q 3425 2491 3425 1978 
L 3425 0 
L 2847 0 
L 2847 2094 
Q 2847 2600 2669 2842 
Q 2491 3084 2119 3084 
Q 1678 3084 1418 2786 
Q 1159 2488 1159 1978 
L 1159 0 
L 581 0 
L 581 3500 
L 1159 3500 
L 1159 2956 
Q 1356 3278 1631 3431 
Q 1906 3584 2284 3584 
Q 2666 3584 2933 3390 
Q 3200 3197 3328 2828 
z
" transform="scale(0.015625)"/>
       <path id="DejaVuSans-65" d="M 3597 1894 
L 3597 1613 
L 953 1613 
Q 991 1019 1311 708 
Q 1631 397 2203 397 
Q 2534 397 2845 478 
Q 3156 559 3463 722 
L 3463 178 
Q 3153 47 2828 -22 
Q 2503 -91 2169 -91 
Q 1331 -91 842 396 
Q 353 884 353 1716 
Q 353 2575 817 3079 
Q 1281 3584 2069 3584 
Q 2775 3584 3186 3129 
Q 3597 2675 3597 1894 
z
M 3022 2063 
Q 3016 2534 2758 2815 
Q 2500 3097 2075 3097 
Q 1594 3097 1305 2825 
Q 1016 2553 972 2059 
L 3022 2063 
z
" transform="scale(0.015625)"/>
       <path id="DejaVuSans-20" transform="scale(0.015625)"/>
       <path id="DejaVuSans-53" d="M 3425 4513 
L 3425 3897 
Q 3066 4069 2747 4153 
Q 2428 4238 2131 4238 
Q 1616 4238 1336 4038 
Q 1056 3838 1056 3469 
Q 1056 3159 1242 3001 
Q 1428 2844 1947 2747 
L 2328 2669 
Q 3034 2534 3370 2195 
Q 3706 1856 3706 1288 
Q 3706 609 3251 259 
Q 2797 -91 1919 -91 
Q 1588 -91 1214 -16 
Q 841 59 441 206 
L 441 856 
Q 825 641 1194 531 
Q 1563 422 1919 422 
Q 2459 422 2753 634 
Q 3047 847 3047 1241 
Q 3047 1584 2836 1778 
Q 2625 1972 2144 2069 
L 1759 2144 
Q 1053 2284 737 2584 
Q 422 2884 422 3419 
Q 422 4038 858 4394 
Q 1294 4750 2059 4750 
Q 2388 4750 2728 4690 
Q 3069 4631 3425 4513 
z
" transform="scale(0.015625)"/>
       <path id="DejaVuSans-74" d="M 1172 4494 
L 1172 3500 
L 2356 3500 
L 2356 3053 
L 1172 3053 
L 1172 1153 
Q 1172 725 1289 603 
Q 1406 481 1766 481 
L 2356 481 
L 2356 0 
L 1766 0 
Q 1100 0 847 248 
Q 594 497 594 1153 
L 594 3053 
L 172 3053 
L 172 3500 
L 594 3500 
L 594 4494 
L 1172 4494 
z
" transform="scale(0.015625)"/>
       <path id="DejaVuSans-70" d="M 1159 525 
L 1159 -1331 
L 581 -1331 
L 581 3500 
L 1159 3500 
L 1159 2969 
Q 1341 3281 1617 3432 
Q 1894 3584 2278 3584 
Q 2916 3584 3314 3078 
Q 3713 2572 3713 1747 
Q 3713 922 3314 415 
Q 2916 -91 2278 -91 
Q 1894 -91 1617 61 
Q 1341 213 1159 525 
z
M 3116 1747 
Q 3116 2381 2855 2742 
Q 2594 3103 2138 3103 
Q 1681 3103 1420 2742 
Q 1159 2381 1159 1747 
Q 1159 1113 1420 752 
Q 1681 391 2138 391 
Q 2594 391 2855 752 
Q 3116 1113 3116 1747 
z
" transform="scale(0.015625)"/>
       <path id="DejaVuSans-73" d="M 2834 3397 
L 2834 2853 
Q 2591 2978 2328 3040 
Q 2066 3103 1784 3103 
Q 1356 3103 1142 2972 
Q 928 2841 928 2578 
Q 928 2378 1081 2264 
Q 1234 2150 1697 2047 
L 1894 2003 
Q 2506 1872 2764 1633 
Q 3022 1394 3022 966 
Q 3022 478 2636 193 
Q 2250 -91 1575 -91 
Q 1294 -91 989 -36 
Q 684 19 347 128 
L 347 722 
Q 666 556 975 473 
Q 1284 391 1588 391 
Q 1994 391 2212 530 
Q 2431 669 2431 922 
Q 2431 1156 2273 1281 
Q 2116 1406 1581 1522 
L 1381 1569 
Q 847 1681 609 1914 
Q 372 2147 372 2553 
Q 372 3047 722 3315 
Q 1072 3584 1716 3584 
Q 2034 3584 2315 3537 
Q 2597 3491 2834 3397 
z
" transform="scale(0.015625)"/>
      </defs>
      <use xlink:href="#DejaVuSans-54"/>
      <use xlink:href="#DejaVuSans-69" transform="translate(57.958984 0)"/>
      <use xlink:href="#DejaVuSans-6d" transform="translate(85.742188 0)"/>
      <use xlink:href="#DejaVuSans-65" transform="translate(183.154297 0)"/>
      <use xlink:href="#DejaVuSans-20" transform="translate(244.677734 0)"/>
      <use xlink:href="#DejaVuSans-53" transform="translate(276.464844 0)"/>
      <use xlink:href="#DejaVuSans-74" transform="translate(339.941406 0)"/>
      <use xlink:href="#DejaVuSans-65" transform="translate(379.150391 0)"/>
      <use xlink:href="#DejaVuSans-70" transform="translate(440.673828 0)"/>
      <use xlink:href="#DejaVuSans-73" transform="translate(504.150391 0)"/>
     </g>
    </g>
   </g>
   <g id="matplotlib.axis_2">
    <g id="ytick_1">
     <g id="line2d_15">
      <path d="M 50.14375 202.490129 
L 608.14375 202.490129 
" clip-path="url(#p3333820258)" style="fill: none; stroke: #b0b0b0; stroke-opacity: 0.3; stroke-width: 0.8; stroke-linecap: square"/>
     </g>
     <g id="line2d_16">
      <defs>
       <path id="m9613840912" d="M 0 0 
L -3.5 0 
" style="stroke: #000000; stroke-width: 0.8"/>
      </defs>
      <g>
       <use xlink:href="#m9613840912" x="50.14375" y="202.490129" style="stroke: #000000; stroke-width: 0.8"/>
      </g>
     </g>
     <g id="text_9">
      <!-- 0.20 -->
      <g transform="translate(20.878125 206.289348) scale(0.1 -0.1)">
       <defs>
        <path id="DejaVuSans-2e" d="M 684 794 
L 1344 794 
L 1344 0 
L 684 0 
L 684 794 
z
" transform="scale(0.015625)"/>
       </defs>
       <use xlink:href="#DejaVuSans-30"/>
       <use xlink:href="#DejaVuSans-2e" transform="translate(63.623047 0)"/>
       <use xlink:href="#DejaVuSans-32" transform="translate(95.410156 0)"/>
       <use xlink:href="#DejaVuSans-30" transform="translate(159.033203 0)"/>
      </g>
     </g>
    </g>
    <g id="ytick_2">
     <g id="line2d_17">
      <path d="M 50.14375 156.165191 
L 608.14375 156.165191 
" clip-path="url(#p3333820258)" style="fill: none; stroke: #b0b0b0; stroke-opacity: 0.3; stroke-width: 0.8; stroke-linecap: square"/>
     </g>
     <g id="line2d_18">
      <g>
       <use xlink:href="#m9613840912" x="50.14375" y="156.165191" style="stroke: #000000; stroke-width: 0.8"/>
      </g>
     </g>
     <g id="text_10">
      <!-- 0.25 -->
      <g transform="translate(20.878125 159.964409) scale(0.1 -0.1)">
       <use xlink:href="#DejaVuSans-30"/>
       <use xlink:href="#DejaVuSans-2e" transform="translate(63.623047 0)"/>
       <use xlink:href="#DejaVuSans-32" transform="translate(95.410156 0)"/>
       <use xlink:href="#DejaVuSans-35" transform="translate(159.033203 0)"/>
      </g>
     </g>
    </g>
    <g id="ytick_3">
     <g id="line2d_19">
      <path d="M 50.14375 109.840252 
L 608.14375 109.840252 
" clip-path="url(#p3333820258)" style="fill: none; stroke: #b0b0b0; stroke-opacity: 0.3; stroke-width: 0.8; stroke-linecap: square"/>
     </g>
     <g id="line2d_20">
      <g>
       <use xlink:href="#m9613840912" x="50.14375" y="109.840252" style="stroke: #000000; stroke-width: 0.8"/>
      </g>
     </g>
     <g id="text_11">
      <!-- 0.30 -->
      <g transform="translate(20.878125 113.63947) scale(0.1 -0.1)">
       <use xlink:href="#DejaVuSans-30"/>
       <use xlink:href="#DejaVuSans-2e" transform="translate(63.623047 0)"/>
       <use xlink:href="#DejaVuSans-33" transform="translate(95.410156 0)"/>
       <use xlink:href="#DejaVuSans-30" transform="translate(159.033203 0)"/>
      </g>
     </g>
    </g>
    <g id="ytick_4">
     <g id="line2d_21">
      <path d="M 50.14375 63.515313 
L 608.14375 63.515313 
" clip-path="url(#p3333820258)" style="fill: none; stroke: #b0b0b0; stroke-opacity: 0.3; stroke-width: 0.8; stroke-linecap: square"/>
     </g>
     <g id="line2d_22">
      <g>
       <use xlink:href="#m9613840912" x="50.14375" y="63.515313" style="stroke: #000000; stroke-width: 0.8"/>
      </g>
     </g>
     <g id="text_12">
      <!-- 0.35 -->
      <g transform="translate(20.878125 67.314532) scale(0.1 -0.1)">
       <use xlink:href="#DejaVuSans-30"/>
       <use xlink:href="#DejaVuSans-2e" transform="translate(63.623047 0)"/>
       <use xlink:href="#DejaVuSans-33" transform="translate(95.410156 0)"/>
       <use xlink:href="#DejaVuSans-35" transform="translate(159.033203 0)"/>
      </g>
     </g>
    </g>
    <g id="text_13">
     <!-- Signal Value -->
     <g transform="translate(14.798437 163.877812) rotate(-90) scale(0.1 -0.1)">
      <defs>
       <path id="DejaVuSans-67" d="M 2906 1791 
Q 2906 2416 2648 2759 
Q 2391 3103 1925 3103 
Q 1463 3103 1205 2759 
Q 947 2416 947 1791 
Q 947 1169 1205 825 
Q 1463 481 1925 481 
Q 2391 481 2648 825 
Q 2906 1169 2906 1791 
z
M 3481 434 
Q 3481 -459 3084 -895 
Q 2688 -1331 1869 -1331 
Q 1566 -1331 1297 -1286 
Q 1028 -1241 775 -1147 
L 775 -588 
Q 1028 -725 1275 -790 
Q 1522 -856 1778 -856 
Q 2344 -856 2625 -561 
Q 2906 -266 2906 331 
L 2906 616 
Q 2728 306 2450 153 
Q 2172 0 1784 0 
Q 1141 0 747 490 
Q 353 981 353 1791 
Q 353 2603 747 3093 
Q 1141 3584 1784 3584 
Q 2172 3584 2450 3431 
Q 2728 3278 2906 2969 
L 2906 3500 
L 3481 3500 
L 3481 434 
z
" transform="scale(0.015625)"/>
       <path id="DejaVuSans-6e" d="M 3513 2113 
L 3513 0 
L 2938 0 
L 2938 2094 
Q 2938 2591 2744 2837 
Q 2550 3084 2163 3084 
Q 1697 3084 1428 2787 
Q 1159 2491 1159 1978 
L 1159 0 
L 581 0 
L 581 3500 
L 1159 3500 
L 1159 2956 
Q 1366 3272 1645 3428 
Q 1925 3584 2291 3584 
Q 2894 3584 3203 3211 
Q 3513 2838 3513 2113 
z
" transform="scale(0.015625)"/>
       <path id="DejaVuSans-61" d="M 2194 1759 
Q 1497 1759 1228 1600 
Q 959 1441 959 1056 
Q 959 750 1161 570 
Q 1363 391 1709 391 
Q 2188 391 2477 730 
Q 2766 1069 2766 1631 
L 2766 1759 
L 2194 1759 
z
M 3341 1997 
L 3341 0 
L 2766 0 
L 2766 531 
Q 2569 213 2275 61 
Q 1981 -91 1556 -91 
Q 1019 -91 701 211 
Q 384 513 384 1019 
Q 384 1609 779 1909 
Q 1175 2209 1959 2209 
L 2766 2209 
L 2766 2266 
Q 2766 2663 2505 2880 
Q 2244 3097 1772 3097 
Q 1472 3097 1187 3025 
Q 903 2953 641 2809 
L 641 3341 
Q 956 3463 1253 3523 
Q 1550 3584 1831 3584 
Q 2591 3584 2966 3190 
Q 3341 2797 3341 1997 
z
" transform="scale(0.015625)"/>
       <path id="DejaVuSans-6c" d="M 603 4863 
L 1178 4863 
L 1178 0 
L 603 0 
L 603 4863 
z
" transform="scale(0.015625)"/>
       <path id="DejaVuSans-56" d="M 1831 0 
L 50 4666 
L 709 4666 
L 2188 738 
L 3669 4666 
L 4325 4666 
L 2547 0 
L 1831 0 
z
" transform="scale(0.015625)"/>
       <path id="DejaVuSans-75" d="M 544 1381 
L 544 3500 
L 1119 3500 
L 1119 1403 
Q 1119 906 1312 657 
Q 1506 409 1894 409 
Q 2359 409 2629 706 
Q 2900 1003 2900 1516 
L 2900 3500 
L 3475 3500 
L 3475 0 
L 2900 0 
L 2900 538 
Q 2691 219 2414 64 
Q 2138 -91 1772 -91 
Q 1169 -91 856 284 
Q 544 659 544 1381 
z
M 1991 3584 
L 1991 3584 
z
" transform="scale(0.015625)"/>
      </defs>
      <use xlink:href="#DejaVuSans-53"/>
      <use xlink:href="#DejaVuSans-69" transform="translate(63.476562 0)"/>
      <use xlink:href="#DejaVuSans-67" transform="translate(91.259766 0)"/>
      <use xlink:href="#DejaVuSans-6e" transform="translate(154.736328 0)"/>
      <use xlink:href="#DejaVuSans-61" transform="translate(218.115234 0)"/>
      <use xlink:href="#DejaVuSans-6c" transform="translate(279.394531 0)"/>
      <use xlink:href="#DejaVuSans-20" transform="translate(307.177734 0)"/>
      <use xlink:href="#DejaVuSans-56" transform="translate(338.964844 0)"/>
      <use xlink:href="#DejaVuSans-61" transform="translate(399.623047 0)"/>
      <use xlink:href="#DejaVuSans-6c" transform="translate(460.902344 0)"/>
      <use xlink:href="#DejaVuSans-75" transform="translate(488.685547 0)"/>
      <use xlink:href="#DejaVuSans-65" transform="translate(552.064453 0)"/>
     </g>
    </g>
   </g>
   <g id="line2d_23">
    <path d="M 75.507386 117.795738 
L 77.209644 100.437217 
L 78.911901 104.219574 
L 82.316416 178.692752 
L 84.018674 196.606147 
L 85.720931 191.549106 
L 87.423189 162.456006 
L 89.125446 140.317097 
L 90.827704 122.318278 
L 92.529961 87.157674 
L 94.232219 60.401906 
L 95.934476 55.178113 
L 97.636734 85.091204 
L 99.338991 135.308139 
L 101.041248 170.613708 
L 102.743506 188.726229 
L 104.445763 192.646485 
L 106.148021 180.222554 
L 107.850278 164.424559 
L 109.552536 132.739871 
L 111.254793 80.835449 
L 112.957051 70.808361 
L 116.361566 161.765818 
L 118.063823 188.66052 
L 119.766081 196.729557 
L 121.468338 186.950668 
L 123.170596 178.416605 
L 124.872853 155.731911 
L 128.277368 54.296334 
L 129.979626 32.398125 
L 131.681883 55.530152 
L 133.38414 103.683831 
L 135.086398 133.007442 
L 136.788655 153.277613 
L 138.490913 175.428008 
L 140.19317 186.333227 
L 141.895428 183.238441 
L 143.597685 152.058042 
L 145.299943 95.225206 
L 147.0022 74.854171 
L 148.704458 100.556265 
L 150.406715 123.517247 
L 152.108973 144.940146 
L 153.81123 168.665405 
L 155.513488 183.03169 
L 157.215745 189.000523 
L 158.918003 175.625575 
L 162.322518 97.824019 
L 164.024775 74.43658 
L 165.727032 76.335966 
L 167.42929 90.244775 
L 169.131547 89.870466 
L 170.833805 108.368041 
L 172.536062 144.846644 
L 174.23832 168.797264 
L 175.940577 174.744114 
L 177.642835 157.577911 
L 179.345092 124.977552 
L 181.04735 111.448222 
L 182.749607 107.824075 
L 184.451865 86.399325 
L 186.154122 83.092234 
L 187.85638 109.187545 
L 189.558637 139.313872 
L 191.260895 160.335564 
L 192.963152 158.994825 
L 194.66541 144.531561 
L 196.367667 141.494927 
L 198.069924 139.745712 
L 199.772182 133.641486 
L 201.474439 112.179346 
L 203.176697 71.994616 
L 204.878954 74.711606 
L 206.581212 112.916706 
L 208.283469 140.328275 
L 209.985727 154.298138 
L 211.687984 160.813856 
L 215.092499 162.666691 
L 216.794757 145.869933 
L 218.497014 93.132515 
L 220.199272 59.029158 
L 221.901529 65.967633 
L 223.603787 87.584943 
L 225.306044 111.291673 
L 227.008302 119.641332 
L 228.710559 131.181594 
L 230.412817 159.086996 
L 232.115074 182.707843 
L 233.817331 186.988882 
L 235.519589 154.983499 
L 237.221846 99.336362 
L 238.924104 82.585363 
L 240.626361 97.22136 
L 242.328619 106.386163 
L 244.030876 124.854329 
L 245.733134 157.355042 
L 247.435391 185.994644 
L 249.137649 197.379421 
L 250.839906 180.270269 
L 252.542164 128.708034 
L 254.244421 90.264315 
L 255.946679 72.920425 
L 257.648936 62.232596 
L 259.351194 63.56406 
L 261.053451 69.089626 
L 262.755709 101.103982 
L 264.457966 150.295558 
L 266.160223 186.943523 
L 267.862481 201.168594 
L 269.564738 182.576899 
L 271.266996 145.719204 
L 272.969253 122.145799 
L 274.671511 103.957579 
L 276.373768 77.305689 
L 278.076026 88.040662 
L 279.778283 139.292522 
L 281.480541 185.52908 
L 283.182798 204.890064 
L 284.885056 194.122139 
L 286.587313 163.006435 
L 288.289571 141.21359 
L 289.991828 117.381725 
L 291.694086 80.069208 
L 293.396343 48.757462 
L 295.098601 36.217436 
L 296.800858 71.58572 
L 298.503115 126.691472 
L 300.205373 161.185753 
L 301.90763 176.473807 
L 303.609888 177.878666 
L 305.312145 169.438656 
L 307.014403 157.019532 
L 308.71666 124.012401 
L 310.418918 72.284206 
L 312.121175 67.228271 
L 313.823433 110.603416 
L 315.52569 149.969107 
L 317.227948 171.9837 
L 318.930205 174.396656 
L 320.632463 168.428901 
L 322.33472 168.231952 
L 324.036978 155.724224 
L 325.739235 122.509144 
L 327.441493 83.915587 
L 329.14375 57.799712 
L 330.846007 74.893301 
L 332.548265 108.184932 
L 334.250522 121.397014 
L 335.95278 136.207385 
L 337.655037 157.288807 
L 339.357295 170.910341 
L 341.059552 172.221677 
L 342.76181 147.765872 
L 344.464067 103.494442 
L 346.166325 91.813522 
L 347.868582 104.100405 
L 349.57084 105.011576 
L 351.273097 110.857627 
L 352.975355 123.740457 
L 354.677612 142.482914 
L 356.37987 162.691986 
L 358.082127 166.327701 
L 359.784385 154.613754 
L 363.188899 124.691525 
L 364.891157 120.882713 
L 366.593414 111.112737 
L 368.295672 83.767013 
L 369.997929 93.245427 
L 371.700187 131.043257 
L 373.402444 159.647804 
L 375.104702 172.247212 
L 376.806959 168.126872 
L 378.509217 152.282332 
L 380.211474 145.764161 
L 381.913732 128.931878 
L 383.615989 83.420908 
L 385.318247 56.948938 
L 387.020504 64.000187 
L 388.722762 95.147488 
L 390.425019 130.057674 
L 392.127277 147.383165 
L 393.829534 157.445959 
L 395.531791 173.605023 
L 397.234049 181.406514 
L 398.936306 174.652249 
L 400.638564 137.00872 
L 402.340821 78.810162 
L 404.043079 73.216627 
L 405.745336 107.100736 
L 407.447594 136.764513 
L 409.149851 159.424338 
L 410.852109 178.937455 
L 412.554366 189.506674 
L 414.256624 190.238985 
L 415.958881 164.502269 
L 417.661139 102.527839 
L 419.363396 56.793997 
L 421.065654 44.389629 
L 422.767911 61.188441 
L 424.470169 89.440427 
L 426.172426 107.239132 
L 427.874683 135.730427 
L 429.576941 173.762348 
L 431.279198 199.144222 
L 432.981456 201.025791 
L 434.683713 168.251163 
L 436.385971 115.745372 
L 438.088228 100.631083 
L 439.790486 105.119884 
L 441.492743 109.16567 
L 443.195001 134.626353 
L 444.897258 175.139133 
L 446.599516 203.856361 
L 448.301773 210.234625 
L 450.004031 191.636073 
L 451.706288 151.126862 
L 453.408546 124.813736 
L 455.110803 104.9277 
L 456.813061 93.448645 
L 458.515318 93.2729 
L 460.217576 94.83132 
L 461.919833 129.167659 
L 463.62209 170.500372 
L 465.324348 196.111833 
L 467.026605 201.366321 
L 468.728863 187.277401 
L 470.43112 164.154489 
L 472.133378 150.493362 
L 473.835635 132.422206 
L 475.537893 104.30444 
L 477.24015 116.86886 
L 478.942408 158.038925 
L 480.644665 191.573042 
L 482.346923 202.100812 
L 484.04918 191.231881 
L 485.751438 172.929516 
L 487.453695 169.420649 
L 489.155953 161.955589 
L 490.85821 144.786623 
L 492.560468 116.893332 
L 494.262725 93.566946 
L 495.964982 118.473355 
L 497.66724 153.664783 
L 499.369497 170.702343 
L 501.071755 178.901915 
L 502.774012 185.418824 
L 504.47627 188.301928 
L 506.178527 184.748044 
L 507.880785 161.735936 
L 509.583042 118.285446 
L 511.2853 115.381267 
L 512.987557 135.907314 
L 514.689815 150.614141 
L 516.392072 160.00638 
L 518.09433 161.190221 
L 519.796587 167.572706 
L 521.498845 182.837772 
L 523.201102 190.797703 
L 524.90336 183.876252 
L 526.605617 160.691708 
L 528.307874 134.076088 
L 530.010132 134.069484 
L 531.712389 139.245434 
L 533.414647 131.333531 
L 535.116904 141.691831 
L 536.819162 169.983014 
L 538.521419 190.712733 
L 540.223677 197.860313 
L 541.925934 184.886013 
L 543.628192 155.246136 
L 545.330449 142.875213 
L 547.032707 132.290034 
L 548.734964 107.218783 
L 550.437222 95.613453 
L 552.139479 100.605629 
L 553.841737 128.898664 
L 555.543994 165.507013 
L 557.246252 187.440288 
L 558.948509 196.819202 
L 560.650766 192.69024 
L 564.055281 165.457398 
L 565.757539 135.00225 
L 567.459796 95.230724 
L 569.162054 103.109624 
L 570.864311 147.463128 
L 572.566569 181.715347 
L 574.268826 199.44699 
L 575.971084 199.689371 
L 577.673341 189.004437 
L 579.375599 180.230984 
L 581.077856 151.665259 
L 582.780114 98.622701 
L 582.780114 98.622701 
" clip-path="url(#p3333820258)" style="fill: none; stroke-dasharray: 5.55,2.4; stroke-dashoffset: 0; stroke: #008000; stroke-width: 1.5"/>
   </g>
   <g id="line2d_24">
    <path d="M 75.507386 147.544836 
L 77.209644 136.150833 
L 78.911901 117.936833 
L 80.614159 128.976083 
L 82.316416 149.370307 
L 84.018674 135.547443 
L 85.720931 143.163426 
L 87.423189 146.452457 
L 89.125446 121.519749 
L 90.827704 135.061558 
L 92.529961 126.468083 
L 94.232219 141.471075 
L 95.934476 84.845359 
L 97.636734 119.430481 
L 99.338991 150.800321 
L 101.041248 168.055051 
L 102.743506 168.438102 
L 104.445763 142.266803 
L 106.148021 131.798856 
L 107.850278 130.107121 
L 109.552536 121.734932 
L 111.254793 120.478407 
L 112.957051 100.736259 
L 114.659308 137.508543 
L 116.361566 135.617164 
L 118.063823 146.028871 
L 119.766081 139.481784 
L 121.468338 137.346918 
L 124.872853 130.510056 
L 126.575111 139.387689 
L 128.277368 128.700147 
L 129.979626 82.222657 
L 133.38414 157.315687 
L 135.086398 144.927486 
L 136.788655 149.771205 
L 138.490913 152.708119 
L 140.19317 161.008192 
L 141.895428 134.675649 
L 143.597685 128.022748 
L 145.299943 118.135924 
L 147.0022 93.962231 
L 148.704458 132.946824 
L 150.406715 99.536636 
L 152.108973 134.602937 
L 153.81123 107.379526 
L 157.215745 140.918934 
L 158.918003 156.153489 
L 160.62026 135.638087 
L 162.322518 120.729079 
L 164.024775 107.787148 
L 165.727032 139.955691 
L 167.42929 128.104336 
L 169.131547 124.153619 
L 170.833805 139.431566 
L 172.536062 171.161828 
L 174.23832 162.148399 
L 175.940577 130.030368 
L 177.642835 118.976414 
L 179.345092 119.967192 
L 181.04735 104.067012 
L 182.749607 104.381677 
L 184.451865 92.366076 
L 186.154122 104.341678 
L 187.85638 82.502984 
L 189.558637 106.709154 
L 191.260895 125.350776 
L 192.963152 157.397798 
L 194.66541 134.709214 
L 196.367667 122.735282 
L 198.069924 139.796561 
L 199.772182 145.199894 
L 201.474439 121.634255 
L 203.176697 105.61404 
L 204.878954 125.19141 
L 206.581212 142.071279 
L 208.283469 150.873664 
L 209.985727 130.127426 
L 211.687984 130.155465 
L 213.390242 134.247578 
L 215.092499 129.78181 
L 216.794757 94.005905 
L 218.497014 95.787917 
L 220.199272 79.969953 
L 221.901529 90.789735 
L 223.603787 98.869457 
L 225.306044 140.220618 
L 227.008302 127.353575 
L 228.710559 127.787573 
L 230.412817 174.648276 
L 232.115074 165.094469 
L 233.817331 141.653377 
L 235.519589 132.022279 
L 237.221846 118.486073 
L 238.924104 118.613543 
L 240.626361 134.006929 
L 242.328619 134.498979 
L 244.030876 124.029009 
L 245.733134 123.932733 
L 247.435391 137.862521 
L 249.137649 143.504307 
L 252.542164 127.8549 
L 254.244421 97.335731 
L 255.946679 117.321029 
L 257.648936 115.811472 
L 259.351194 118.388781 
L 261.053451 94.03057 
L 262.755709 136.302629 
L 264.457966 165.489462 
L 266.160223 174.8557 
L 267.862481 151.956486 
L 269.564738 120.097397 
L 271.266996 121.211529 
L 272.969253 128.386849 
L 274.671511 130.355529 
L 276.373768 125.327479 
L 278.076026 98.755452 
L 279.778283 131.186118 
L 283.182798 136.432975 
L 284.885056 147.767214 
L 286.587313 137.391732 
L 288.289571 115.060758 
L 289.991828 138.107594 
L 291.694086 139.654987 
L 293.396343 131.267311 
L 295.098601 71.074177 
L 296.800858 133.042622 
L 298.503115 157.265176 
L 300.205373 161.268199 
L 301.90763 164.684987 
L 303.609888 124.38609 
L 305.312145 123.178032 
L 307.014403 117.526813 
L 308.71666 110.253652 
L 310.418918 106.540473 
L 312.121175 80.724216 
L 313.823433 126.166896 
L 315.52569 107.527829 
L 317.227948 147.987479 
L 318.930205 127.330606 
L 320.632463 130.478571 
L 322.33472 133.05231 
L 324.036978 141.68206 
L 325.739235 139.532403 
L 327.441493 130.77068 
L 329.14375 103.842985 
L 330.846007 137.192799 
L 332.548265 147.286031 
L 334.250522 140.390516 
L 335.95278 118.087292 
L 337.655037 157.170453 
L 339.357295 143.026542 
L 341.059552 112.987885 
L 342.76181 108.707136 
L 344.464067 117.051218 
L 346.166325 104.136613 
L 347.868582 113.576431 
L 349.57084 90.390882 
L 351.273097 116.656137 
L 352.975355 76.702382 
L 354.677612 94.413539 
L 356.37987 150.603167 
L 358.082127 175.81927 
L 359.784385 150.2849 
L 361.486642 118.953296 
L 363.188899 127.099266 
L 364.891157 133.00599 
L 366.593414 122.16793 
L 368.295672 124.508797 
L 369.997929 107.615485 
L 371.700187 137.776406 
L 373.402444 143.907997 
L 375.104702 142.317136 
L 376.806959 142.441237 
L 378.509217 118.135165 
L 380.211474 116.276327 
L 381.913732 105.975617 
L 383.615989 102.370251 
L 385.318247 115.499158 
L 387.020504 73.288963 
L 390.425019 150.815118 
L 392.127277 145.696228 
L 393.829534 132.432474 
L 395.531791 155.795764 
L 397.234049 157.55259 
L 398.936306 137.496761 
L 400.638564 130.424597 
L 402.340821 120.010805 
L 404.043079 111.824072 
L 405.745336 152.26067 
L 407.447594 132.269052 
L 409.149851 141.484132 
L 410.852109 134.177729 
L 412.554366 144.735247 
L 414.256624 126.924954 
L 415.958881 124.498772 
L 417.661139 116.288799 
L 419.363396 116.452605 
L 421.065654 94.342735 
L 422.767911 113.313344 
L 424.470169 137.882114 
L 426.172426 134.085456 
L 427.874683 126.988885 
L 429.576941 173.341089 
L 431.279198 147.777338 
L 432.981456 180.471151 
L 434.683713 131.475241 
L 436.385971 130.752396 
L 438.088228 146.254084 
L 439.790486 178.827316 
L 441.492743 139.330442 
L 443.195001 164.914132 
L 444.897258 119.597038 
L 446.599516 171.476765 
L 448.301773 154.541812 
L 450.004031 187.842614 
L 453.408546 146.864763 
L 455.110803 150.204274 
L 456.813061 162.274239 
L 458.515318 155.029748 
L 460.217576 157.783894 
L 461.919833 152.931626 
L 463.62209 181.333371 
L 465.324348 233.998125 
L 467.026605 194.22876 
L 468.728863 142.802024 
L 470.43112 182.300246 
L 472.133378 158.096444 
L 473.835635 119.035974 
L 475.537893 93.115349 
L 477.24015 104.341323 
L 478.942408 164.861089 
L 480.644665 148.799543 
L 482.346923 152.742123 
L 484.04918 182.554765 
L 485.751438 156.608832 
L 487.453695 139.774013 
L 489.155953 162.956858 
L 490.85821 159.881939 
L 492.560468 156.282367 
L 494.262725 117.915789 
L 495.964982 151.027627 
L 499.369497 190.93582 
L 501.071755 169.259951 
L 502.774012 160.87284 
L 504.47627 193.156587 
L 506.178527 146.397245 
L 507.880785 145.268446 
L 509.583042 107.268539 
L 511.2853 106.398111 
L 512.987557 140.333526 
L 514.689815 138.196934 
L 516.392072 163.560137 
L 518.09433 138.9907 
L 519.796587 137.875965 
L 521.498845 163.050809 
L 523.201102 183.51264 
L 524.90336 195.67156 
L 526.605617 156.711575 
L 528.307874 124.813468 
L 530.010132 151.137729 
L 531.712389 158.206232 
L 533.414647 155.872738 
L 535.116904 112.683699 
L 536.819162 150.772477 
L 538.521419 175.819542 
L 540.223677 154.208536 
L 541.925934 154.456047 
L 543.628192 124.905362 
L 545.330449 135.208964 
L 547.032707 122.232586 
L 550.437222 150.980472 
L 552.139479 104.095561 
L 553.841737 125.420744 
L 555.543994 158.984403 
L 557.246252 174.175675 
L 558.948509 172.031583 
L 560.650766 146.695464 
L 562.353024 134.182575 
L 564.055281 152.904216 
L 565.757539 136.410717 
L 567.459796 135.983922 
L 569.162054 119.55197 
L 570.864311 165.194633 
L 572.566569 135.016741 
L 574.268826 160.14449 
L 575.971084 151.218229 
L 577.673341 159.789972 
L 579.375599 142.229418 
L 581.077856 153.18947 
L 582.780114 151.886984 
L 582.780114 151.886984 
" clip-path="url(#p3333820258)" style="fill: none; stroke: #ff0000; stroke-width: 1.5; stroke-linecap: square"/>
   </g>
   <g id="patch_3">
    <path d="M 50.14375 244.078125 
L 50.14375 22.318125 
" style="fill: none; stroke: #000000; stroke-width: 0.8; stroke-linejoin: miter; stroke-linecap: square"/>
   </g>
   <g id="patch_4">
    <path d="M 608.14375 244.078125 
L 608.14375 22.318125 
" style="fill: none; stroke: #000000; stroke-width: 0.8; stroke-linejoin: miter; stroke-linecap: square"/>
   </g>
   <g id="patch_5">
    <path d="M 50.14375 244.078125 
L 608.14375 244.078125 
" style="fill: none; stroke: #000000; stroke-width: 0.8; stroke-linejoin: miter; stroke-linecap: square"/>
   </g>
   <g id="patch_6">
    <path d="M 50.14375 22.318125 
L 608.14375 22.318125 
" style="fill: none; stroke: #000000; stroke-width: 0.8; stroke-linejoin: miter; stroke-linecap: square"/>
   </g>
   <g id="text_14">
    <!-- Task Performance: NARMA10 (validation set) -->
    <g transform="translate(195.454375 16.318125) scale(0.12 -0.12)">
     <defs>
      <path id="DejaVuSans-6b" d="M 581 4863 
L 1159 4863 
L 1159 1991 
L 2875 3500 
L 3609 3500 
L 1753 1863 
L 3688 0 
L 2938 0 
L 1159 1709 
L 1159 0 
L 581 0 
L 581 4863 
z
" transform="scale(0.015625)"/>
      <path id="DejaVuSans-50" d="M 1259 4147 
L 1259 2394 
L 2053 2394 
Q 2494 2394 2734 2622 
Q 2975 2850 2975 3272 
Q 2975 3691 2734 3919 
Q 2494 4147 2053 4147 
L 1259 4147 
z
M 628 4666 
L 2053 4666 
Q 2838 4666 3239 4311 
Q 3641 3956 3641 3272 
Q 3641 2581 3239 2228 
Q 2838 1875 2053 1875 
L 1259 1875 
L 1259 0 
L 628 0 
L 628 4666 
z
" transform="scale(0.015625)"/>
      <path id="DejaVuSans-72" d="M 2631 2963 
Q 2534 3019 2420 3045 
Q 2306 3072 2169 3072 
Q 1681 3072 1420 2755 
Q 1159 2438 1159 1844 
L 1159 0 
L 581 0 
L 581 3500 
L 1159 3500 
L 1159 2956 
Q 1341 3275 1631 3429 
Q 1922 3584 2338 3584 
Q 2397 3584 2469 3576 
Q 2541 3569 2628 3553 
L 2631 2963 
z
" transform="scale(0.015625)"/>
      <path id="DejaVuSans-66" d="M 2375 4863 
L 2375 4384 
L 1825 4384 
Q 1516 4384 1395 4259 
Q 1275 4134 1275 3809 
L 1275 3500 
L 2222 3500 
L 2222 3053 
L 1275 3053 
L 1275 0 
L 697 0 
L 697 3053 
L 147 3053 
L 147 3500 
L 697 3500 
L 697 3744 
Q 697 4328 969 4595 
Q 1241 4863 1831 4863 
L 2375 4863 
z
" transform="scale(0.015625)"/>
      <path id="DejaVuSans-6f" d="M 1959 3097 
Q 1497 3097 1228 2736 
Q 959 2375 959 1747 
Q 959 1119 1226 758 
Q 1494 397 1959 397 
Q 2419 397 2687 759 
Q 2956 1122 2956 1747 
Q 2956 2369 2687 2733 
Q 2419 3097 1959 3097 
z
M 1959 3584 
Q 2709 3584 3137 3096 
Q 3566 2609 3566 1747 
Q 3566 888 3137 398 
Q 2709 -91 1959 -91 
Q 1206 -91 779 398 
Q 353 888 353 1747 
Q 353 2609 779 3096 
Q 1206 3584 1959 3584 
z
" transform="scale(0.015625)"/>
      <path id="DejaVuSans-63" d="M 3122 3366 
L 3122 2828 
Q 2878 2963 2633 3030 
Q 2388 3097 2138 3097 
Q 1578 3097 1268 2742 
Q 959 2388 959 1747 
Q 959 1106 1268 751 
Q 1578 397 2138 397 
Q 2388 397 2633 464 
Q 2878 531 3122 666 
L 3122 134 
Q 2881 22 2623 -34 
Q 2366 -91 2075 -91 
Q 1284 -91 818 406 
Q 353 903 353 1747 
Q 353 2603 823 3093 
Q 1294 3584 2113 3584 
Q 2378 3584 2631 3529 
Q 2884 3475 3122 3366 
z
" transform="scale(0.015625)"/>
      <path id="DejaVuSans-3a" d="M 750 794 
L 1409 794 
L 1409 0 
L 750 0 
L 750 794 
z
M 750 3309 
L 1409 3309 
L 1409 2516 
L 750 2516 
L 750 3309 
z
" transform="scale(0.015625)"/>
      <path id="DejaVuSans-4e" d="M 628 4666 
L 1478 4666 
L 3547 763 
L 3547 4666 
L 4159 4666 
L 4159 0 
L 3309 0 
L 1241 3903 
L 1241 0 
L 628 0 
L 628 4666 
z
" transform="scale(0.015625)"/>
      <path id="DejaVuSans-41" d="M 2188 4044 
L 1331 1722 
L 3047 1722 
L 2188 4044 
z
M 1831 4666 
L 2547 4666 
L 4325 0 
L 3669 0 
L 3244 1197 
L 1141 1197 
L 716 0 
L 50 0 
L 1831 4666 
z
" transform="scale(0.015625)"/>
      <path id="DejaVuSans-52" d="M 2841 2188 
Q 3044 2119 3236 1894 
Q 3428 1669 3622 1275 
L 4263 0 
L 3584 0 
L 2988 1197 
Q 2756 1666 2539 1819 
Q 2322 1972 1947 1972 
L 1259 1972 
L 1259 0 
L 628 0 
L 628 4666 
L 2053 4666 
Q 2853 4666 3247 4331 
Q 3641 3997 3641 3322 
Q 3641 2881 3436 2590 
Q 3231 2300 2841 2188 
z
M 1259 4147 
L 1259 2491 
L 2053 2491 
Q 2509 2491 2742 2702 
Q 2975 2913 2975 3322 
Q 2975 3731 2742 3939 
Q 2509 4147 2053 4147 
L 1259 4147 
z
" transform="scale(0.015625)"/>
      <path id="DejaVuSans-4d" d="M 628 4666 
L 1569 4666 
L 2759 1491 
L 3956 4666 
L 4897 4666 
L 4897 0 
L 4281 0 
L 4281 4097 
L 3078 897 
L 2444 897 
L 1241 4097 
L 1241 0 
L 628 0 
L 628 4666 
z
" transform="scale(0.015625)"/>
      <path id="DejaVuSans-28" d="M 1984 4856 
Q 1566 4138 1362 3434 
Q 1159 2731 1159 2009 
Q 1159 1288 1364 580 
Q 1569 -128 1984 -844 
L 1484 -844 
Q 1016 -109 783 600 
Q 550 1309 550 2009 
Q 550 2706 781 3412 
Q 1013 4119 1484 4856 
L 1984 4856 
z
" transform="scale(0.015625)"/>
      <path id="DejaVuSans-76" d="M 191 3500 
L 800 3500 
L 1894 563 
L 2988 3500 
L 3597 3500 
L 2284 0 
L 1503 0 
L 191 3500 
z
" transform="scale(0.015625)"/>
      <path id="DejaVuSans-64" d="M 2906 2969 
L 2906 4863 
L 3481 4863 
L 3481 0 
L 2906 0 
L 2906 525 
Q 2725 213 2448 61 
Q 2172 -91 1784 -91 
Q 1150 -91 751 415 
Q 353 922 353 1747 
Q 353 2572 751 3078 
Q 1150 3584 1784 3584 
Q 2172 3584 2448 3432 
Q 2725 3281 2906 2969 
z
M 947 1747 
Q 947 1113 1208 752 
Q 1469 391 1925 391 
Q 2381 391 2643 752 
Q 2906 1113 2906 1747 
Q 2906 2381 2643 2742 
Q 2381 3103 1925 3103 
Q 1469 3103 1208 2742 
Q 947 2381 947 1747 
z
" transform="scale(0.015625)"/>
      <path id="DejaVuSans-29" d="M 513 4856 
L 1013 4856 
Q 1481 4119 1714 3412 
Q 1947 2706 1947 2009 
Q 1947 1309 1714 600 
Q 1481 -109 1013 -844 
L 513 -844 
Q 928 -128 1133 580 
Q 1338 1288 1338 2009 
Q 1338 2731 1133 3434 
Q 928 4138 513 4856 
z
" transform="scale(0.015625)"/>
     </defs>
     <use xlink:href="#DejaVuSans-54"/>
     <use xlink:href="#DejaVuSans-61" transform="translate(44.583984 0)"/>
     <use xlink:href="#DejaVuSans-73" transform="translate(105.863281 0)"/>
     <use xlink:href="#DejaVuSans-6b" transform="translate(157.962891 0)"/>
     <use xlink:href="#DejaVuSans-20" transform="translate(215.873047 0)"/>
     <use xlink:href="#DejaVuSans-50" transform="translate(247.660156 0)"/>
     <use xlink:href="#DejaVuSans-65" transform="translate(304.337891 0)"/>
     <use xlink:href="#DejaVuSans-72" transform="translate(365.861328 0)"/>
     <use xlink:href="#DejaVuSans-66" transform="translate(406.974609 0)"/>
     <use xlink:href="#DejaVuSans-6f" transform="translate(442.179688 0)"/>
     <use xlink:href="#DejaVuSans-72" transform="translate(503.361328 0)"/>
     <use xlink:href="#DejaVuSans-6d" transform="translate(542.724609 0)"/>
     <use xlink:href="#DejaVuSans-61" transform="translate(640.136719 0)"/>
     <use xlink:href="#DejaVuSans-6e" transform="translate(701.416016 0)"/>
     <use xlink:href="#DejaVuSans-63" transform="translate(764.794922 0)"/>
     <use xlink:href="#DejaVuSans-65" transform="translate(819.775391 0)"/>
     <use xlink:href="#DejaVuSans-3a" transform="translate(881.298828 0)"/>
     <use xlink:href="#DejaVuSans-20" transform="translate(914.990234 0)"/>
     <use xlink:href="#DejaVuSans-4e" transform="translate(946.777344 0)"/>
     <use xlink:href="#DejaVuSans-41" transform="translate(1021.582031 0)"/>
     <use xlink:href="#DejaVuSans-52" transform="translate(1089.990234 0)"/>
     <use xlink:href="#DejaVuSans-4d" transform="translate(1159.472656 0)"/>
     <use xlink:href="#DejaVuSans-41" transform="translate(1245.751953 0)"/>
     <use xlink:href="#DejaVuSans-31" transform="translate(1314.160156 0)"/>
     <use xlink:href="#DejaVuSans-30" transform="translate(1377.783203 0)"/>
     <use xlink:href="#DejaVuSans-20" transform="translate(1441.40625 0)"/>
     <use xlink:href="#DejaVuSans-28" transform="translate(1473.193359 0)"/>
     <use xlink:href="#DejaVuSans-76" transform="translate(1512.207031 0)"/>
     <use xlink:href="#DejaVuSans-61" transform="translate(1571.386719 0)"/>
     <use xlink:href="#DejaVuSans-6c" transform="translate(1632.666016 0)"/>
     <use xlink:href="#DejaVuSans-69" transform="translate(1660.449219 0)"/>
     <use xlink:href="#DejaVuSans-64" transform="translate(1688.232422 0)"/>
     <use xlink:href="#DejaVuSans-61" transform="translate(1751.708984 0)"/>
     <use xlink:href="#DejaVuSans-74" transform="translate(1812.988281 0)"/>
     <use xlink:href="#DejaVuSans-69" transform="translate(1852.197266 0)"/>
     <use xlink:href="#DejaVuSans-6f" transform="translate(1879.980469 0)"/>
     <use xlink:href="#DejaVuSans-6e" transform="translate(1941.162109 0)"/>
     <use xlink:href="#DejaVuSans-20" transform="translate(2004.541016 0)"/>
     <use xlink:href="#DejaVuSans-73" transform="translate(2036.328125 0)"/>
     <use xlink:href="#DejaVuSans-65" transform="translate(2088.427734 0)"/>
     <use xlink:href="#DejaVuSans-74" transform="translate(2149.951172 0)"/>
     <use xlink:href="#DejaVuSans-29" transform="translate(2189.160156 0)"/>
    </g>
   </g>
   <g id="legend_1">
    <g id="patch_7">
     <path d="M 519.470312 59.674375 
L 601.14375 59.674375 
Q 603.14375 59.674375 603.14375 57.674375 
L 603.14375 29.318125 
Q 603.14375 27.318125 601.14375 27.318125 
L 519.470312 27.318125 
Q 517.470312 27.318125 517.470312 29.318125 
L 517.470312 57.674375 
Q 517.470312 59.674375 519.470312 59.674375 
z
" style="fill: #ffffff; opacity: 0.8; stroke: #cccccc; stroke-linejoin: miter"/>
    </g>
    <g id="line2d_25">
     <path d="M 521.470312 35.416562 
L 531.470312 35.416562 
L 541.470312 35.416562 
" style="fill: none; stroke-dasharray: 5.55,2.4; stroke-dashoffset: 0; stroke: #008000; stroke-width: 1.5"/>
    </g>
    <g id="text_15">
     <!-- Target -->
     <g transform="translate(549.470312 38.916562) scale(0.1 -0.1)">
      <use xlink:href="#DejaVuSans-54"/>
      <use xlink:href="#DejaVuSans-61" transform="translate(44.583984 0)"/>
      <use xlink:href="#DejaVuSans-72" transform="translate(105.863281 0)"/>
      <use xlink:href="#DejaVuSans-67" transform="translate(145.226562 0)"/>
      <use xlink:href="#DejaVuSans-65" transform="translate(208.703125 0)"/>
      <use xlink:href="#DejaVuSans-74" transform="translate(270.226562 0)"/>
     </g>
    </g>
    <g id="line2d_26">
     <path d="M 521.470312 50.094687 
L 531.470312 50.094687 
L 541.470312 50.094687 
" style="fill: none; stroke: #ff0000; stroke-width: 1.5; stroke-linecap: square"/>
    </g>
    <g id="text_16">
     <!-- Prediction -->
     <g transform="translate(549.470312 53.594687) scale(0.1 -0.1)">
      <use xlink:href="#DejaVuSans-50"/>
      <use xlink:href="#DejaVuSans-72" transform="translate(58.552734 0)"/>
      <use xlink:href="#DejaVuSans-65" transform="translate(97.416016 0)"/>
      <use xlink:href="#DejaVuSans-64" transform="translate(158.939453 0)"/>
      <use xlink:href="#DejaVuSans-69" transform="translate(222.416016 0)"/>
      <use xlink:href="#DejaVuSans-63" transform="translate(250.199219 0)"/>
      <use xlink:href="#DejaVuSans-74" transform="translate(305.179688 0)"/>
      <use xlink:href="#DejaVuSans-69" transform="translate(344.388672 0)"/>
      <use xlink:href="#DejaVuSans-6f" transform="translate(372.171875 0)"/>
      <use xlink:href="#DejaVuSans-6e" transform="translate(433.353516 0)"/>
     </g>
    </g>
   </g>
  </g>
 </g>
 <defs>
  <clipPath id="p3333820258">
   <rect x="50.14375" y="22.318125" width="558" height="221.76"/>
  </clipPath>
 </defs>
</svg>
