<?xml version="1.0" encoding="utf-8" standalone="no"?>
<!DOCTYPE svg PUBLIC "-//W3C//DTD SVG 1.1//EN"
  "http://www.w3.org/Graphics/SVG/1.1/DTD/svg11.dtd">
<svg xmlns:xlink="http://www.w3.org/1999/xlink" width="525.900552pt" height="440.39952pt" viewBox="0 0 525.900552 440.39952" xmlns="http://www.w3.org/2000/svg" version="1.1">
 <metadata>
  <rdf:RDF xmlns:dc="http://purl.org/dc/elements/1.1/" xmlns:cc="http://creativecommons.org/ns#" xmlns:rdf="http://www.w3.org/1999/02/22-rdf-syntax-ns#">
   <cc:Work>
    <dc:type rdf:resource="http://purl.org/dc/dcmitype/StillImage"/>
    <dc:date>2026-07-07T15:29:19.758497</dc:date>
    <dc:format>image/svg+xml</dc:format>
    <dc:creator>
     <cc:Agent>
      <dc:title>Matplotlib v3.10.8, https://matplotlib.org/</dc:title>
     </cc:Agent>
    </dc:creator>
   </cc:Work>
  </rdf:RDF>
 </metadata>
 <defs>
  <style type="text/css">*{stroke-linejoin: round; stroke-linecap: butt}</style>
 </defs>
 <g id="figure_1">
  <g id="patch_1">
   <path d="M 0 440.39952 
L 525.900552 440.39952 
L 525.900552 0 
L 0 0 
z
" style="fill: #ffffff"/>
  </g>
  <g id="axes_1">
   <g id="patch_2">
    <path d="M 97.889953 129.91853 
L 206.364328 129.91853 
L 206.364328 19.212562 
L 97.889953 19.212562 
z
" style="fill: #ffffff"/>
   </g>
   <g id="PathCollection_1">
    <defs>
     <path id="m3611d1d5e4" d="M 0 2.44949 
C 0.649612 2.44949 1.272706 2.191396 1.732051 1.732051 
C 2.191396 1.272706 2.44949 0.649612 2.44949 0 
C 2.44949 -0.649612 2.191396 -1.272706 1.732051 -1.732051 
C 1.272706 -2.191396 0.649612 -2.44949 0 -2.44949 
C -0.649612 -2.44949 -1.272706 -2.191396 -1.732051 -1.732051 
C -2.191396 -1.272706 -2.44949 -0.649612 -2.44949 0 
C -2.44949 0.649612 -2.191396 1.272706 -1.732051 1.732051 
C -1.272706 2.191396 -0.649612 2.44949 0 2.44949 
z
"/>
    </defs>
    <g clip-path="url(#pc9d8e66183)">
     <use xlink:href="#m3611d1d5e4" x="136.920668" y="31.8657" style="fill: #8c8c8c; fill-opacity: 0.75"/>
     <use xlink:href="#m3611d1d5e4" x="166.891332" y="30.388999" style="fill: #8c8c8c; fill-opacity: 0.75"/>
     <use xlink:href="#m3611d1d5e4" x="197.495648" y="24.244652" style="fill: #8c8c8c; fill-opacity: 0.75"/>
     <use xlink:href="#m3611d1d5e4" x="107.637544" y="60.848633" style="fill: #8c8c8c; fill-opacity: 0.75"/>
     <use xlink:href="#m3611d1d5e4" x="137.200524" y="61.766367" style="fill: #8c8c8c; fill-opacity: 0.75"/>
     <use xlink:href="#m3611d1d5e4" x="165.956328" y="60.211109" style="fill: #8c8c8c; fill-opacity: 0.75"/>
     <use xlink:href="#m3611d1d5e4" x="195.666569" y="57.31834" style="fill: #8c8c8c; fill-opacity: 0.75"/>
     <use xlink:href="#m3611d1d5e4" x="107.156008" y="91.955154" style="fill: #8c8c8c; fill-opacity: 0.75"/>
     <use xlink:href="#m3611d1d5e4" x="136.59457" y="90.413831" style="fill: #8c8c8c; fill-opacity: 0.75"/>
     <use xlink:href="#m3611d1d5e4" x="196.645842" y="89.804416" style="fill: #8c8c8c; fill-opacity: 0.75"/>
     <use xlink:href="#m3611d1d5e4" x="102.820606" y="124.88644" style="fill: #8c8c8c; fill-opacity: 0.75"/>
     <use xlink:href="#m3611d1d5e4" x="135.676879" y="119.671872" style="fill: #8c8c8c; fill-opacity: 0.75"/>
     <use xlink:href="#m3611d1d5e4" x="167.193467" y="119.03008" style="fill: #8c8c8c; fill-opacity: 0.75"/>
     <use xlink:href="#m3611d1d5e4" x="201.433674" y="123.463601" style="fill: #8c8c8c; fill-opacity: 0.75"/>
    </g>
   </g>
   <g id="matplotlib.axis_1">
    <g id="xtick_1">
     <g id="line2d_1">
      <defs>
       <path id="m15640dc3a4" d="M 0 0 
L 0 3.5 
" style="stroke: #000000; stroke-width: 0.8"/>
      </defs>
      <g>
       <use xlink:href="#m15640dc3a4" x="125.184512" y="129.91853" style="stroke: #000000; stroke-width: 0.8"/>
      </g>
     </g>
     <g id="text_1">
      <text style="font-size: 7px; font-family: 'Arial', 'Helvetica', 'DejaVu Sans', sans-serif; text-anchor: middle" x="125.184512" y="141.928998" transform="rotate(-0 125.184512 141.928998)">1500</text>
     </g>
    </g>
    <g id="xtick_2">
     <g id="line2d_2">
      <g>
       <use xlink:href="#m15640dc3a4" x="155.772369" y="129.91853" style="stroke: #000000; stroke-width: 0.8"/>
      </g>
     </g>
     <g id="text_2">
      <text style="font-size: 7px; font-family: 'Arial', 'Helvetica', 'DejaVu Sans', sans-serif; text-anchor: middle" x="155.772369" y="141.928998" transform="rotate(-0 155.772369 141.928998)">2000</text>
     </g>
    </g>
    <g id="xtick_3">
     <g id="line2d_3">
      <g>
       <use xlink:href="#m15640dc3a4" x="186.360226" y="129.91853" style="stroke: #000000; stroke-width: 0.8"/>
      </g>
     </g>
     <g id="text_3">
      <text style="font-size: 7px; font-family: 'Arial', 'Helvetica', 'DejaVu Sans', sans-serif; text-anchor: middle" x="186.360226" y="141.928998" transform="rotate(-0 186.360226 141.928998)">2500</text>
     </g>
    </g>
    <g id="text_4">
     <text style="font-size: 7px; font-family: 'Arial', 'Helvetica', 'DejaVu Sans', sans-serif; text-anchor: middle" x="152.12714" y="152.41603" transform="rotate(-0 152.12714 152.41603)">camera x (px)</text>
    </g>
   </g>
   <g id="matplotlib.axis_2">
    <g id="ytick_1">
     <g id="line2d_4">
      <defs>
       <path id="m85d58f4ad7" d="M 0 0 
L -3.5 0 
" style="stroke: #000000; stroke-width: 0.8"/>
      </defs>
      <g>
       <use xlink:href="#m85d58f4ad7" x="97.889953" y="38.327146" style="stroke: #000000; stroke-width: 0.8"/>
      </g>
     </g>
     <g id="text_5">
      <text style="font-size: 7px; font-family: 'Arial', 'Helvetica', 'DejaVu Sans', sans-serif; text-anchor: end" x="90.889953" y="40.832381" transform="rotate(-0 90.889953 40.832381)">500</text>
     </g>
    </g>
    <g id="ytick_2">
     <g id="line2d_5">
      <g>
       <use xlink:href="#m85d58f4ad7" x="97.889953" y="68.915003" style="stroke: #000000; stroke-width: 0.8"/>
      </g>
     </g>
     <g id="text_6">
      <text style="font-size: 7px; font-family: 'Arial', 'Helvetica', 'DejaVu Sans', sans-serif; text-anchor: end" x="90.889953" y="71.420238" transform="rotate(-0 90.889953 71.420238)">1000</text>
     </g>
    </g>
    <g id="ytick_3">
     <g id="line2d_6">
      <g>
       <use xlink:href="#m85d58f4ad7" x="97.889953" y="99.50286" style="stroke: #000000; stroke-width: 0.8"/>
      </g>
     </g>
     <g id="text_7">
      <text style="font-size: 7px; font-family: 'Arial', 'Helvetica', 'DejaVu Sans', sans-serif; text-anchor: end" x="90.889953" y="102.008095" transform="rotate(-0 90.889953 102.008095)">1500</text>
     </g>
    </g>
    <g id="text_8">
     <text style="font-size: 7px; font-family: 'Arial', 'Helvetica', 'DejaVu Sans', sans-serif; text-anchor: middle" x="69.846047" y="74.565546" transform="rotate(-90 69.846047 74.565546)">camera y (px)</text>
    </g>
   </g>
   <g id="patch_3">
    <path d="M 97.889953 129.91853 
L 97.889953 19.212562 
" style="fill: none; stroke: #000000; stroke-width: 0.8; stroke-linejoin: miter; stroke-linecap: square"/>
   </g>
   <g id="patch_4">
    <path d="M 97.889953 129.91853 
L 206.364328 129.91853 
" style="fill: none; stroke: #000000; stroke-width: 0.8; stroke-linejoin: miter; stroke-linecap: square"/>
   </g>
   <g id="PathCollection_2">
    <defs>
     <path id="m997d8c0025" d="M 0 3.316625 
C 0.879579 3.316625 1.723251 2.967164 2.345208 2.345208 
C 2.967164 1.723251 3.316625 0.879579 3.316625 0 
C 3.316625 -0.879579 2.967164 -1.723251 2.345208 -2.345208 
C 1.723251 -2.967164 0.879579 -3.316625 0 -3.316625 
C -0.879579 -3.316625 -1.723251 -2.967164 -2.345208 -2.345208 
C -2.967164 -1.723251 -3.316625 -0.879579 -3.316625 0 
C -3.316625 0.879579 -2.967164 1.723251 -2.345208 2.345208 
C -1.723251 2.967164 -0.879579 3.316625 0 3.316625 
z
" style="stroke: #ffffff; stroke-width: 0.6"/>
    </defs>
    <g clip-path="url(#pc9d8e66183)">
     <use xlink:href="#m997d8c0025" x="104.880967" y="27.795923" style="fill: #cc79a7; stroke: #ffffff; stroke-width: 0.6"/>
    </g>
   </g>
   <g id="text_9">
    <text style="font-size: 6px; font-family: 'Arial', 'Helvetica', 'DejaVu Sans', sans-serif; text-anchor: middle; fill: #ffffff" x="104.880967" y="29.347017" transform="rotate(-0 104.880967 29.347017)">0</text>
   </g>
   <g id="text_10">
    <text style="font-size: 6px; font-family: 'Arial', 'Helvetica', 'DejaVu Sans', sans-serif; text-anchor: middle; fill: #ffffff" x="165.99671" y="90.972135" transform="rotate(-0 165.99671 90.972135)">10</text>
   </g>
   <g id="text_11">
    <text style="font-weight: 700; font-size: 8px; font-family: 'Arial', 'Helvetica', 'DejaVu Sans', sans-serif; text-anchor: start" x="84.873028" y="16.082335" transform="rotate(-0 84.873028 16.082335)">a</text>
   </g>
   <g id="text_12">
    <text style="font-size: 8.4px; font-family: 'Arial', 'Helvetica', 'DejaVu Sans', sans-serif; text-anchor: middle" x="152.12714" y="13.212562" transform="rotate(-0 152.12714 13.212562)">Readout setup</text>
   </g>
   <g id="PathCollection_3">
    <defs>
     <path id="mc236efe2b4" d="M 0 3.605551 
C 0.956203 3.605551 1.873372 3.225648 2.54951 2.54951 
C 3.225648 1.873372 3.605551 0.956203 3.605551 0 
C 3.605551 -0.956203 3.225648 -1.873372 2.54951 -2.54951 
C 1.873372 -3.225648 0.956203 -3.605551 0 -3.605551 
C -0.956203 -3.605551 -1.873372 -3.225648 -2.54951 -2.54951 
C -3.225648 -1.873372 -3.605551 -0.956203 -3.605551 0 
C -3.605551 0.956203 -3.225648 1.873372 -2.54951 2.54951 
C -1.873372 3.225648 -0.956203 3.605551 0 3.605551 
z
" style="stroke: #ffffff; stroke-width: 0.6"/>
    </defs>
    <g clip-path="url(#pc9d8e66183)">
     <use xlink:href="#mc236efe2b4" x="165.99671" y="89.421041" style="fill: #d55e00; stroke: #ffffff; stroke-width: 0.6"/>
    </g>
   </g>
   <g id="legend_1">
    <g id="PathCollection_4">
     <g>
      <use xlink:href="#m3611d1d5e4" x="106.289953" y="104.776655" style="fill: #8c8c8c; fill-opacity: 0.75"/>
     </g>
    </g>
    <g id="text_13">
     <text style="font-size: 6px; font-family: 'Arial', 'Helvetica', 'DejaVu Sans', sans-serif; text-anchor: start" x="114.089953" y="106.351655" transform="rotate(-0 114.089953 106.351655)">readout nodes</text>
    </g>
    <g id="PathCollection_5">
     <g>
      <use xlink:href="#m997d8c0025" x="106.289953" y="113.263842" style="fill: #cc79a7; stroke: #ffffff; stroke-width: 0.6"/>
     </g>
    </g>
    <g id="text_14">
     <text style="font-size: 6px; font-family: 'Arial', 'Helvetica', 'DejaVu Sans', sans-serif; text-anchor: start" x="114.089953" y="114.838842" transform="rotate(-0 114.089953 114.838842)">reference 0</text>
    </g>
    <g id="PathCollection_6">
     <g>
      <use xlink:href="#mc236efe2b4" x="106.289953" y="121.75103" style="fill: #d55e00; stroke: #ffffff; stroke-width: 0.6"/>
     </g>
    </g>
    <g id="text_15">
     <text style="font-size: 6px; font-family: 'Arial', 'Helvetica', 'DejaVu Sans', sans-serif; text-anchor: start" x="114.089953" y="123.32603" transform="rotate(-0 114.089953 123.32603)">hidden 10</text>
    </g>
   </g>
  </g>
  <g id="axes_2">
   <g id="patch_5">
    <path d="M 293.391778 129.91853 
L 518.700552 129.91853 
L 518.700552 19.212562 
L 293.391778 19.212562 
z
" style="fill: #ffffff"/>
   </g>
   <g id="matplotlib.axis_3">
    <g id="xtick_4">
     <g id="line2d_7">
      <g>
       <use xlink:href="#m15640dc3a4" x="301.793566" y="129.91853" style="stroke: #000000; stroke-width: 0.8"/>
      </g>
     </g>
     <g id="text_16">
      <text style="font-size: 7px; font-family: 'Arial', 'Helvetica', 'DejaVu Sans', sans-serif; text-anchor: middle" x="301.793566" y="141.928998" transform="rotate(-0 301.793566 141.928998)">700</text>
     </g>
    </g>
    <g id="xtick_5">
     <g id="line2d_8">
      <g>
       <use xlink:href="#m15640dc3a4" x="341.775356" y="129.91853" style="stroke: #000000; stroke-width: 0.8"/>
      </g>
     </g>
     <g id="text_17">
      <text style="font-size: 7px; font-family: 'Arial', 'Helvetica', 'DejaVu Sans', sans-serif; text-anchor: middle" x="341.775356" y="141.928998" transform="rotate(-0 341.775356 141.928998)">800</text>
     </g>
    </g>
    <g id="xtick_6">
     <g id="line2d_9">
      <g>
       <use xlink:href="#m15640dc3a4" x="381.757146" y="129.91853" style="stroke: #000000; stroke-width: 0.8"/>
      </g>
     </g>
     <g id="text_18">
      <text style="font-size: 7px; font-family: 'Arial', 'Helvetica', 'DejaVu Sans', sans-serif; text-anchor: middle" x="381.757146" y="141.928998" transform="rotate(-0 381.757146 141.928998)">900</text>
     </g>
    </g>
    <g id="xtick_7">
     <g id="line2d_10">
      <g>
       <use xlink:href="#m15640dc3a4" x="421.738935" y="129.91853" style="stroke: #000000; stroke-width: 0.8"/>
      </g>
     </g>
     <g id="text_19">
      <text style="font-size: 7px; font-family: 'Arial', 'Helvetica', 'DejaVu Sans', sans-serif; text-anchor: middle" x="421.738935" y="141.928998" transform="rotate(-0 421.738935 141.928998)">1000</text>
     </g>
    </g>
    <g id="xtick_8">
     <g id="line2d_11">
      <g>
       <use xlink:href="#m15640dc3a4" x="461.720725" y="129.91853" style="stroke: #000000; stroke-width: 0.8"/>
      </g>
     </g>
     <g id="text_20">
      <text style="font-size: 7px; font-family: 'Arial', 'Helvetica', 'DejaVu Sans', sans-serif; text-anchor: middle" x="461.720725" y="141.928998" transform="rotate(-0 461.720725 141.928998)">1100</text>
     </g>
    </g>
    <g id="xtick_9">
     <g id="line2d_12">
      <g>
       <use xlink:href="#m15640dc3a4" x="501.702515" y="129.91853" style="stroke: #000000; stroke-width: 0.8"/>
      </g>
     </g>
     <g id="text_21">
      <text style="font-size: 7px; font-family: 'Arial', 'Helvetica', 'DejaVu Sans', sans-serif; text-anchor: middle" x="501.702515" y="141.928998" transform="rotate(-0 501.702515 141.928998)">1200</text>
     </g>
    </g>
    <g id="text_22">
     <text style="font-size: 7px; font-family: 'Arial', 'Helvetica', 'DejaVu Sans', sans-serif; text-anchor: middle" x="406.046165" y="152.41603" transform="rotate(-0 406.046165 152.41603)">relative x (px)</text>
    </g>
   </g>
   <g id="matplotlib.axis_4">
    <g id="ytick_4">
     <g id="line2d_13">
      <g>
       <use xlink:href="#m85d58f4ad7" x="293.391778" y="127.186734" style="stroke: #000000; stroke-width: 0.8"/>
      </g>
     </g>
     <g id="text_23">
      <text style="font-size: 7px; font-family: 'Arial', 'Helvetica', 'DejaVu Sans', sans-serif; text-anchor: end" x="286.391778" y="129.691968" transform="rotate(-0 286.391778 129.691968)">960</text>
     </g>
    </g>
    <g id="ytick_5">
     <g id="line2d_14">
      <g>
       <use xlink:href="#m85d58f4ad7" x="293.391778" y="108.077926" style="stroke: #000000; stroke-width: 0.8"/>
      </g>
     </g>
     <g id="text_24">
      <text style="font-size: 7px; font-family: 'Arial', 'Helvetica', 'DejaVu Sans', sans-serif; text-anchor: end" x="286.391778" y="110.58316" transform="rotate(-0 286.391778 110.58316)">980</text>
     </g>
    </g>
    <g id="ytick_6">
     <g id="line2d_15">
      <g>
       <use xlink:href="#m85d58f4ad7" x="293.391778" y="88.969118" style="stroke: #000000; stroke-width: 0.8"/>
      </g>
     </g>
     <g id="text_25">
      <text style="font-size: 7px; font-family: 'Arial', 'Helvetica', 'DejaVu Sans', sans-serif; text-anchor: end" x="286.391778" y="91.474352" transform="rotate(-0 286.391778 91.474352)">1000</text>
     </g>
    </g>
    <g id="ytick_7">
     <g id="line2d_16">
      <g>
       <use xlink:href="#m85d58f4ad7" x="293.391778" y="69.86031" style="stroke: #000000; stroke-width: 0.8"/>
      </g>
     </g>
     <g id="text_26">
      <text style="font-size: 7px; font-family: 'Arial', 'Helvetica', 'DejaVu Sans', sans-serif; text-anchor: end" x="286.391778" y="72.365544" transform="rotate(-0 286.391778 72.365544)">1020</text>
     </g>
    </g>
    <g id="ytick_8">
     <g id="line2d_17">
      <g>
       <use xlink:href="#m85d58f4ad7" x="293.391778" y="50.751502" style="stroke: #000000; stroke-width: 0.8"/>
      </g>
     </g>
     <g id="text_27">
      <text style="font-size: 7px; font-family: 'Arial', 'Helvetica', 'DejaVu Sans', sans-serif; text-anchor: end" x="286.391778" y="53.256736" transform="rotate(-0 286.391778 53.256736)">1040</text>
     </g>
    </g>
    <g id="ytick_9">
     <g id="line2d_18">
      <g>
       <use xlink:href="#m85d58f4ad7" x="293.391778" y="31.642693" style="stroke: #000000; stroke-width: 0.8"/>
      </g>
     </g>
     <g id="text_28">
      <text style="font-size: 7px; font-family: 'Arial', 'Helvetica', 'DejaVu Sans', sans-serif; text-anchor: end" x="286.391778" y="34.147928" transform="rotate(-0 286.391778 34.147928)">1060</text>
     </g>
    </g>
    <g id="text_29">
     <text style="font-size: 7px; font-family: 'Arial', 'Helvetica', 'DejaVu Sans', sans-serif; text-anchor: middle" x="265.347871" y="74.565546" transform="rotate(-90 265.347871 74.565546)">relative y (px)</text>
    </g>
   </g>
   <g id="line2d_19">
    <path d="M 424.914385 89.747826 
L 412.770566 74.594393 
L 416.365396 85.627698 
L 427.87086 94.266355 
L 434.825732 88.696492 
L 422.811838 81.821766 
L 432.753382 91.993494 
L 440.00679 95.217533 
L 437.499592 94.435559 
L 444.95409 85.862714 
L 450.272378 100.593648 
L 446.285593 97.878529 
L 444.577511 90.943078 
L 458.038985 94.472705 
L 449.882178 105.343316 
L 437.666433 87.190576 
L 448.632119 85.492765 
L 452.956345 106.467187 
L 451.644238 101.878909 
L 459.793008 87.192612 
L 454.439664 96.450023 
L 434.773966 101.157713 
L 434.098111 82.943276 
L 436.455497 79.875096 
L 425.827962 92.3797 
L 419.481303 90.597072 
L 438.708964 82.22632 
L 446.61547 95.45057 
L 446.187327 105.748431 
L 453.346613 88.509902 
L 457.047621 88.60457 
L 449.266026 104.3885 
L 445.619164 100.550138 
L 462.074365 83.318827 
L 462.332043 96.910711 
L 460.399046 114.25167 
L 481.101131 99.884119 
L 488.969863 98.586325 
L 472.264289 114.191061 
L 484.230391 101.1237 
L 495.790236 99.525606 
L 472.309547 116.2696 
L 460.861994 95.941514 
L 466.396054 81.611736 
L 457.475407 101.967322 
L 455.205787 111.813654 
L 469.417736 88.6658 
L 468.402385 90.56559 
L 450.358828 108.096802 
L 467.030237 100.385882 
L 485.26361 94.409402 
L 476.450281 116.391086 
L 473.70838 102.151826 
L 478.740508 91.663742 
L 456.136712 100.565841 
L 447.481729 102.804469 
L 464.962685 86.055199 
L 475.630971 102.957349 
L 479.902273 114.564654 
L 492.652516 101.137439 
L 501.285318 104.680061 
L 500.780365 121.490185 
L 504.921476 107.018403 
L 508.459244 105.276641 
L 493.625525 117.37162 
L 479.319882 101.700841 
L 490.790667 94.138782 
L 484.850397 114.705639 
L 475.506593 107.175619 
L 483.129747 91.138057 
L 477.397303 109.444434 
L 462.010108 108.349556 
L 465.049911 84.616503 
L 463.916566 93.219923 
L 456.507082 112.644986 
L 464.460525 92.713516 
L 477.270675 88.753665 
L 469.546223 112.964519 
L 469.117547 104.448955 
L 483.816391 88.75396 
L 476.279401 109.042717 
L 456.943541 108.088944 
L 455.879516 81.242244 
L 455.200546 87.244171 
L 442.119287 110.946202 
L 452.936138 91.441255 
L 456.164692 80.219595 
L 432.072106 92.964853 
L 412.200322 92.822317 
L 420.692606 67.257786 
L 419.911003 69.637185 
L 404.570525 89.480149 
L 414.893151 86.737886 
L 429.226472 76.062504 
L 420.399527 81.808164 
L 420.161353 92.685907 
L 433.08952 84.068111 
L 433.656994 80.260489 
L 431.833305 91.296556 
L 446.509444 102.729988 
L 451.993356 89.879528 
L 454.195611 85.818695 
L 448.222284 103.856704 
L 446.186327 98.050159 
L 449.061327 81.058889 
L 451.634131 91.510056 
L 445.633999 105.123879 
L 453.255122 89.090382 
L 453.250929 82.714041 
L 430.640906 99.678726 
L 421.889468 88.213429 
L 419.764227 66.194523 
L 400.633516 61.467269 
L 378.530008 81.594209 
L 387.057245 78.107038 
L 387.439219 53.348873 
L 372.975241 48.772605 
L 379.462345 77.319205 
L 394.692411 88.216936 
L 394.517772 63.674442 
L 388.498607 54.4604 
L 388.453592 74.417395 
L 376.786569 75.309576 
L 357.629545 53.229163 
L 351.470169 57.835102 
L 351.213975 61.614127 
L 335.760628 61.652395 
L 325.679009 44.147675 
L 326.019545 55.959555 
L 326.043706 68.072034 
L 319.022282 53.926629 
L 330.454497 38.288982 
L 334.703547 55.749024 
L 330.549818 72.382189 
L 340.530808 63.509959 
L 342.936223 42.982507 
L 350.082636 48.464896 
L 361.533268 74.852335 
L 358.607946 77.751931 
L 357.481786 51.068661 
L 374.355895 51.417275 
L 371.88577 69.115249 
L 361.979175 74.625222 
L 368.772449 68.264465 
L 374.919399 54.978223 
L 357.0955 49.949624 
L 358.223907 74.820321 
L 374.163852 77.948113 
L 376.518877 54.971583 
L 367.232078 56.804315 
L 362.009693 72.045963 
L 372.84965 69.961093 
L 375.479788 59.921667 
L 370.998827 59.322637 
L 388.186354 79.957373 
L 398.270796 79.309449 
L 379.521732 52.028495 
L 372.442453 55.427635 
L 383.787341 92.495869 
L 375.724166 73.308169 
L 365.124184 35.505725 
L 357.64689 55.816328 
L 358.880495 74.703907 
L 344.008212 70.779364 
L 335.214028 36.319447 
L 340.229826 42.123649 
L 350.280674 71.377481 
L 345.689091 72.097344 
L 357.144931 51.611684 
L 385.840475 59.783626 
L 379.367278 72.981395 
L 361.112842 62.151995 
L 374.634899 67.246462 
L 388.455923 68.815047 
L 377.829908 60.781576 
L 375.127965 69.185001 
L 384.892981 66.661687 
L 376.709848 55.045695 
L 359.186196 69.455081 
L 373.557519 74.984044 
L 386.185259 57.498498 
L 389.955578 56.816016 
L 386.070927 77.31767 
L 394.818094 84.524231 
L 395.457085 67.41512 
L 375.754951 42.817914 
L 358.460114 53.414639 
L 359.016938 78.291247 
L 351.35841 71.401312 
L 337.866539 31.014954 
L 336.537868 49.70885 
L 351.080534 71.241998 
L 339.648057 68.983207 
L 339.755009 45.429763 
L 356.488388 52.162205 
L 361.947635 69.09024 
L 347.167373 66.039206 
L 360.609167 57.993198 
L 387.660802 66.007185 
L 384.803068 70.728877 
L 388.196307 74.348192 
L 397.135785 69.046078 
L 398.979033 66.160634 
L 389.500566 73.190707 
L 400.150783 83.883563 
L 419.281432 74.587608 
L 414.645247 66.82952 
L 401.502211 79.449442 
L 406.811877 88.342727 
L 411.093519 68.8007 
L 398.967684 55.742673 
L 391.071114 70.735295 
L 392.395052 84.195332 
L 390.88625 66.734891 
L 380.000877 58.50787 
L 377.126735 60.406566 
L 385.048447 71.880771 
L 380.479527 72.853991 
L 372.9719 58.150501 
L 372.052236 65.013839 
L 371.427406 67.76096 
L 362.555803 57.274767 
L 342.142868 49.859877 
L 353.491037 65.84131 
L 359.716905 72.153737 
L 361.436988 51.04562 
L 365.069262 52.756509 
L 378.909384 68.028737 
L 381.571857 82.184768 
L 381.391851 62.749605 
L 392.538671 61.239983 
L 398.24722 64.178049 
L 387.365721 76.553202 
L 394.634488 74.964811 
L 416.036985 74.222238 
L 425.863125 84.135418 
L 414.961352 85.257639 
L 429.253368 83.982564 
L 436.634965 84.17332 
L 417.145412 90.453515 
L 417.41241 75.327775 
L 428.072697 74.290376 
L 422.789331 82.740837 
L 417.58339 98.462049 
L 433.862947 78.068511 
L 430.663604 74.023661 
L 406.217384 79.976884 
L 401.519396 85.759558 
L 416.470034 67.095278 
L 408.206142 75.790999 
L 404.363136 82.819475 
L 419.575127 84.678716 
L 431.04971 73.729162 
L 411.542755 85.457935 
L 422.418656 94.506122 
L 439.391169 86.316287 
L 428.355653 68.519606 
L 409.761728 82.783226 
L 422.968698 94.386242 
L 430.873628 78.942341 
L 412.298376 68.722016 
L 415.176138 87.425315 
L 434.379293 92.886699 
L 424.096082 76.448584 
L 421.350824 81.269045 
L 443.191016 96.780802 
L 438.704453 91.433369 
L 433.164784 74.93409 
L 437.699562 95.569233 
L 443.36434 100.948367 
L 430.348492 79.005587 
L 432.058649 69.899221 
L 434.39843 98.801044 
L 437.456439 99.038367 
L 445.789498 77.030923 
L 452.829323 92.194436 
L 445.825408 105.890373 
L 437.480572 86.855458 
L 432.955439 70.163274 
L 425.935033 99.366233 
L 420.679544 89.845767 
L 427.223696 65.995766 
L 431.536519 77.265619 
L 430.448826 115.672027 
L 439.509616 91.402934 
L 442.446799 72.125498 
L 433.798507 95.603157 
L 429.80806 108.815039 
L 428.98389 74.288536 
L 434.016572 72.941274 
L 416.869409 104.828459 
L 414.4598 95.81485 
L 423.458423 65.559164 
L 423.120779 84.425141 
L 420.555176 109.640019 
L 440.025478 85.65884 
L 442.883998 68.435505 
L 424.602936 99.480702 
L 418.774522 99.905123 
L 418.774522 99.905123 
" clip-path="url(#p1293f0d5b8)" style="fill: none; stroke: #1f2937; stroke-width: 1.4; stroke-linecap: square"/>
   </g>
   <g id="line2d_20">
    <path d="M 409.665482 80.514691 
L 390.458664 69.288028 
L 400.764206 77.623105 
L 411.050936 84.292738 
L 405.133626 70.916888 
L 399.865295 72.167802 
L 403.611507 87.535903 
L 415.980786 82.266012 
L 410.927912 76.427449 
L 415.552378 76.909943 
L 413.758635 85.565475 
L 424.768721 91.46248 
L 423.319495 90.853495 
L 424.927991 77.136459 
L 429.133587 86.897417 
L 431.999209 86.912271 
L 428.896274 88.634348 
L 439.054383 93.532394 
L 439.947905 92.966629 
L 441.590022 83.520251 
L 426.456366 86.837123 
L 431.562025 95.084549 
L 431.153403 88.018671 
L 450.805342 89.950766 
L 452.272739 100.969668 
L 434.891256 85.845425 
L 432.369358 89.216139 
L 419.049064 87.80591 
L 422.63679 87.716397 
L 417.669977 79.793385 
L 415.802379 83.275237 
L 415.965911 90.207191 
L 434.997068 92.212621 
L 449.228216 91.232981 
L 441.456878 87.849366 
L 438.808897 93.791647 
L 442.687383 102.920259 
L 437.237681 84.838888 
L 442.259235 93.031708 
L 450.122891 97.30465 
L 461.744984 101.789707 
L 465.174136 103.504817 
L 467.886105 107.003182 
L 472.836719 102.62081 
L 489.956221 102.51849 
L 476.409437 114.343112 
L 464.375111 97.247748 
L 465.10274 98.806576 
L 447.099087 98.83675 
L 448.473538 105.916857 
L 460.274902 94.008984 
L 454.289442 99.7622 
L 448.275972 98.123446 
L 459.323191 100.452278 
L 468.329445 97.901009 
L 465.780695 111.268239 
L 468.913135 100.883543 
L 470.316162 97.803254 
L 456.044409 101.817687 
L 450.1839 101.554081 
L 451.324168 94.824862 
L 452.626819 97.176679 
L 471.98564 106.523845 
L 484.923466 105.079082 
L 485.031923 106.562979 
L 494.68735 119.52661 
L 488.697907 111.259564 
L 493.484134 107.962431 
L 500.144355 124.88644 
L 484.326835 106.465764 
L 467.606677 100.453503 
L 483.15098 111.626399 
L 482.062923 105.445136 
L 464.947169 93.39398 
L 467.06576 108.714541 
L 455.215771 88.658183 
L 456.011444 98.472028 
L 448.715889 98.7624 
L 458.542378 95.318328 
L 460.685729 94.118637 
L 455.216508 99.049625 
L 455.612799 95.182729 
L 469.297229 94.681685 
L 454.201751 97.611977 
L 463.931623 97.993874 
L 454.013265 86.236712 
L 435.412172 92.933993 
L 438.664453 98.864886 
L 444.182435 90.898514 
L 450.581283 83.908631 
L 429.311462 90.018679 
L 424.593508 85.27941 
L 418.378216 77.711579 
L 405.807379 77.373225 
L 413.704891 86.444419 
L 413.60903 77.598964 
L 408.065414 68.234416 
L 418.313463 85.575099 
L 423.797859 87.657741 
L 422.37371 76.776205 
L 422.509199 77.157462 
L 421.684108 88.348492 
L 428.831105 91.280896 
L 438.534739 81.36541 
L 443.465932 89.341285 
L 447.233875 96.902021 
L 442.543465 90.442881 
L 428.467267 79.721308 
L 436.66729 92.909849 
L 444.349485 90.609047 
L 446.174843 83.150499 
L 448.563365 87.250567 
L 440.43305 94.526915 
L 429.460953 80.693416 
L 406.766774 66.27763 
L 406.187257 75.029579 
L 415.258982 90.334683 
L 406.42441 77.891237 
L 386.864494 63.042058 
L 389.10935 67.878625 
L 391.544896 81.003997 
L 394.516904 72.029247 
L 397.896001 68.369317 
L 408.351084 76.494668 
L 401.733636 83.104797 
L 398.9692 66.973323 
L 376.682815 55.222197 
L 380.223519 73.372081 
L 354.169505 57.456878 
L 339.629351 39.68483 
L 325.779464 37.404148 
L 334.014181 51.91941 
L 330.217493 47.908128 
L 303.633086 24.244652 
L 312.580382 34.743187 
L 314.14838 40.855118 
L 333.939995 48.547252 
L 330.041956 44.250019 
L 328.821083 34.686963 
L 341.14601 47.705236 
L 356.635991 59.89244 
L 363.95247 53.494337 
L 376.274058 55.736171 
L 363.960512 62.208016 
L 384.062912 65.203692 
L 376.875387 63.960448 
L 380.176825 64.518459 
L 363.52781 52.008874 
L 379.038571 60.712046 
L 361.559702 66.627152 
L 379.170706 63.043774 
L 372.303776 51.148836 
L 382.40602 71.998158 
L 387.232801 77.211911 
L 366.735387 55.571949 
L 365.394691 51.606732 
L 369.13996 62.566044 
L 406.079252 85.205963 
L 392.179569 62.89333 
L 399.125486 61.035234 
L 405.067901 83.793583 
L 403.928371 85.628611 
L 381.259516 59.414915 
L 380.516358 55.943093 
L 378.799292 73.765034 
L 363.905358 65.32319 
L 355.945214 50.992299 
L 338.596335 41.124512 
L 348.544976 53.78691 
L 331.486339 52.586081 
L 350.087754 49.745737 
L 358.559481 48.177566 
L 365.857127 62.67811 
L 389.819074 64.320739 
L 378.649456 63.366669 
L 387.584672 67.834893 
L 378.952327 62.663263 
L 385.753015 61.511855 
L 390.399875 72.438612 
L 391.594857 67.205791 
L 394.47819 60.996934 
L 377.182661 70.669319 
L 388.143858 75.557953 
L 371.95814 51.356711 
L 387.883058 62.607178 
L 413.178106 86.748762 
L 411.352877 85.139734 
L 409.159488 70.540003 
L 405.352624 71.138897 
L 406.562877 80.017234 
L 378.378523 72.398709 
L 349.137077 47.376472 
L 351.785856 43.421555 
L 347.138713 60.979188 
L 344.508968 54.820305 
L 345.555775 44.240142 
L 355.837658 57.342726 
L 348.795985 54.947386 
L 358.856672 55.809843 
L 365.373747 53.792049 
L 367.616892 57.35538 
L 369.403107 64.702167 
L 384.545977 59.027765 
L 403.08669 72.579659 
L 403.273265 74.257106 
L 394.49533 69.525718 
L 417.637804 88.202805 
L 401.444871 75.357496 
L 415.183573 73.699366 
L 398.989432 65.742035 
L 416.940951 79.619627 
L 426.403544 95.476651 
L 410.369135 69.823337 
L 407.585641 69.62523 
L 405.051422 79.540422 
L 419.636906 80.857902 
L 400.192413 70.485596 
L 392.680675 67.859887 
L 381.374023 68.697459 
L 385.21021 64.737998 
L 397.65505 65.596693 
L 398.226434 76.57271 
L 388.044137 71.192119 
L 383.557113 66.872683 
L 377.633301 56.527344 
L 361.462632 52.882916 
L 366.808493 69.22934 
L 365.061729 58.628455 
L 350.79187 43.807674 
L 376.106343 62.17723 
L 365.745438 66.60415 
L 392.533633 69.675847 
L 388.26831 64.752641 
L 397.54347 71.059862 
L 414.723024 80.660694 
L 401.520857 76.442301 
L 415.376074 80.863307 
L 399.769269 77.442696 
L 427.802495 80.445901 
L 407.148848 73.608866 
L 438.313089 86.55021 
L 419.247511 80.324541 
L 429.229368 85.32346 
L 410.794898 73.58331 
L 425.138727 76.572592 
L 418.266567 81.684641 
L 423.764833 93.441561 
L 429.550426 84.889654 
L 414.580586 72.406986 
L 414.621927 79.513429 
L 418.329464 85.75725 
L 416.919371 74.472887 
L 418.655139 89.696657 
L 418.541544 76.851439 
L 411.979113 75.660681 
L 418.716482 71.702958 
L 408.965706 86.00564 
L 431.418195 97.348581 
L 431.506892 81.624624 
L 412.481158 69.639805 
L 431.722002 89.533748 
L 431.372699 92.304913 
L 413.130692 77.160521 
L 408.349996 76.115393 
L 423.71782 89.193713 
L 432.637133 83.26865 
L 411.300575 74.130722 
L 424.195504 87.860804 
L 426.658813 87.926693 
L 433.695558 73.519175 
L 427.191273 77.033293 
L 436.521998 94.776333 
L 437.528968 98.305586 
L 433.293233 77.198098 
L 414.420207 81.25026 
L 444.663616 96.591556 
L 427.724673 84.103945 
L 433.168515 84.737216 
L 437.947321 95.417201 
L 447.009585 91.466734 
L 439.83692 75.75531 
L 421.949565 82.727281 
L 431.282993 97.501357 
L 414.270102 78.70078 
L 425.768753 75.620643 
L 406.571455 75.535169 
L 421.380624 92.051654 
L 428.083936 84.160653 
L 404.443895 65.622353 
L 421.390534 92.841792 
L 425.90879 87.215315 
L 425.254128 79.418112 
L 423.020619 88.207432 
L 403.352715 79.783344 
L 388.637916 54.775612 
L 391.410503 42.257094 
L 383.796954 70.806204 
L 434.107548 97.722139 
L 434.107548 97.722139 
" clip-path="url(#p1293f0d5b8)" style="fill: none; stroke-dasharray: 4.44,1.92; stroke-dashoffset: 0; stroke: #0072b2; stroke-width: 1.2"/>
   </g>
   <g id="patch_6">
    <path d="M 293.391778 129.91853 
L 293.391778 19.212562 
" style="fill: none; stroke: #000000; stroke-width: 0.8; stroke-linejoin: miter; stroke-linecap: square"/>
   </g>
   <g id="patch_7">
    <path d="M 293.391778 129.91853 
L 518.700552 129.91853 
" style="fill: none; stroke: #000000; stroke-width: 0.8; stroke-linejoin: miter; stroke-linecap: square"/>
   </g>
   <g id="text_30">
    <text style="font-weight: 700; font-size: 8px; font-family: 'Arial', 'Helvetica', 'DejaVu Sans', sans-serif; text-anchor: start" x="266.354725" y="16.082335" transform="rotate(-0 266.354725 16.082335)">b</text>
   </g>
   <g id="text_31">
    <text style="font-size: 8.4px; font-family: 'Arial', 'Helvetica', 'DejaVu Sans', sans-serif; text-anchor: middle" x="406.046165" y="13.212562" transform="rotate(-0 406.046165 13.212562)">Test-window trajectory</text>
   </g>
   <g id="legend_2">
    <g id="line2d_21">
     <path d="M 469.822115 26.80725 
L 475.822115 26.80725 
L 481.822115 26.80725 
" style="fill: none; stroke: #1f2937; stroke-width: 1.4; stroke-linecap: square"/>
    </g>
    <g id="text_32">
     <text style="font-size: 6px; font-family: 'Arial', 'Helvetica', 'DejaVu Sans', sans-serif; text-anchor: start" x="486.622115" y="28.90725" transform="rotate(-0 486.622115 28.90725)">measured</text>
    </g>
    <g id="line2d_22">
     <path d="M 469.822115 35.294437 
L 475.822115 35.294437 
L 481.822115 35.294437 
" style="fill: none; stroke-dasharray: 4.44,1.92; stroke-dashoffset: 0; stroke: #0072b2; stroke-width: 1.2"/>
    </g>
    <g id="text_33">
     <text style="font-size: 6px; font-family: 'Arial', 'Helvetica', 'DejaVu Sans', sans-serif; text-anchor: start" x="486.622115" y="37.394437" transform="rotate(-0 486.622115 37.394437)">predicted</text>
    </g>
   </g>
  </g>
  <g id="axes_3">
   <g id="patch_8">
    <path d="M 62.003631 271.640099 
L 518.700552 271.640099 
L 518.700552 172.004728 
L 62.003631 172.004728 
z
" style="fill: #ffffff"/>
   </g>
   <g id="patch_9">
    <path d="M 82.762582 271.640099 
L 290.00437 271.640099 
L 290.00437 172.004728 
L 82.762582 172.004728 
z
" clip-path="url(#pe2607123d4)" style="fill: #e8eef7; stroke: #e8eef7; stroke-linejoin: miter"/>
   </g>
   <g id="patch_10">
    <path d="M 290.699813 271.640099 
L 497.941601 271.640099 
L 497.941601 172.004728 
L 290.699813 172.004728 
z
" clip-path="url(#pe2607123d4)" style="fill: #f7ede2; stroke: #f7ede2; stroke-linejoin: miter"/>
   </g>
   <g id="matplotlib.axis_5">
    <g id="xtick_10">
     <g id="line2d_23">
      <g>
       <use xlink:href="#m15640dc3a4" x="82.762582" y="271.640099" style="stroke: #000000; stroke-width: 0.8"/>
      </g>
     </g>
     <g id="text_34">
      <text style="font-size: 7px; font-family: 'Arial', 'Helvetica', 'DejaVu Sans', sans-serif; text-anchor: middle" x="82.762582" y="283.650568" transform="rotate(-0 82.762582 283.650568)">0.0</text>
     </g>
    </g>
    <g id="xtick_11">
     <g id="line2d_24">
      <g>
       <use xlink:href="#m15640dc3a4" x="134.868644" y="271.640099" style="stroke: #000000; stroke-width: 0.8"/>
      </g>
     </g>
     <g id="text_35">
      <text style="font-size: 7px; font-family: 'Arial', 'Helvetica', 'DejaVu Sans', sans-serif; text-anchor: middle" x="134.868644" y="283.650568" transform="rotate(-0 134.868644 283.650568)">2.5</text>
     </g>
    </g>
    <g id="xtick_12">
     <g id="line2d_25">
      <g>
       <use xlink:href="#m15640dc3a4" x="186.974706" y="271.640099" style="stroke: #000000; stroke-width: 0.8"/>
      </g>
     </g>
     <g id="text_36">
      <text style="font-size: 7px; font-family: 'Arial', 'Helvetica', 'DejaVu Sans', sans-serif; text-anchor: middle" x="186.974706" y="283.650568" transform="rotate(-0 186.974706 283.650568)">5.0</text>
     </g>
    </g>
    <g id="xtick_13">
     <g id="line2d_26">
      <g>
       <use xlink:href="#m15640dc3a4" x="239.080769" y="271.640099" style="stroke: #000000; stroke-width: 0.8"/>
      </g>
     </g>
     <g id="text_37">
      <text style="font-size: 7px; font-family: 'Arial', 'Helvetica', 'DejaVu Sans', sans-serif; text-anchor: middle" x="239.080769" y="283.650568" transform="rotate(-0 239.080769 283.650568)">7.5</text>
     </g>
    </g>
    <g id="xtick_14">
     <g id="line2d_27">
      <g>
       <use xlink:href="#m15640dc3a4" x="291.186831" y="271.640099" style="stroke: #000000; stroke-width: 0.8"/>
      </g>
     </g>
     <g id="text_38">
      <text style="font-size: 7px; font-family: 'Arial', 'Helvetica', 'DejaVu Sans', sans-serif; text-anchor: middle" x="291.186831" y="283.650568" transform="rotate(-0 291.186831 283.650568)">10.0</text>
     </g>
    </g>
    <g id="xtick_15">
     <g id="line2d_28">
      <g>
       <use xlink:href="#m15640dc3a4" x="343.292894" y="271.640099" style="stroke: #000000; stroke-width: 0.8"/>
      </g>
     </g>
     <g id="text_39">
      <text style="font-size: 7px; font-family: 'Arial', 'Helvetica', 'DejaVu Sans', sans-serif; text-anchor: middle" x="343.292894" y="283.650568" transform="rotate(-0 343.292894 283.650568)">12.5</text>
     </g>
    </g>
    <g id="xtick_16">
     <g id="line2d_29">
      <g>
       <use xlink:href="#m15640dc3a4" x="395.398956" y="271.640099" style="stroke: #000000; stroke-width: 0.8"/>
      </g>
     </g>
     <g id="text_40">
      <text style="font-size: 7px; font-family: 'Arial', 'Helvetica', 'DejaVu Sans', sans-serif; text-anchor: middle" x="395.398956" y="283.650568" transform="rotate(-0 395.398956 283.650568)">15.0</text>
     </g>
    </g>
    <g id="xtick_17">
     <g id="line2d_30">
      <g>
       <use xlink:href="#m15640dc3a4" x="447.505018" y="271.640099" style="stroke: #000000; stroke-width: 0.8"/>
      </g>
     </g>
     <g id="text_41">
      <text style="font-size: 7px; font-family: 'Arial', 'Helvetica', 'DejaVu Sans', sans-serif; text-anchor: middle" x="447.505018" y="283.650568" transform="rotate(-0 447.505018 283.650568)">17.5</text>
     </g>
    </g>
    <g id="xtick_18">
     <g id="line2d_31">
      <g>
       <use xlink:href="#m15640dc3a4" x="499.611081" y="271.640099" style="stroke: #000000; stroke-width: 0.8"/>
      </g>
     </g>
     <g id="text_42">
      <text style="font-size: 7px; font-family: 'Arial', 'Helvetica', 'DejaVu Sans', sans-serif; text-anchor: middle" x="499.611081" y="283.650568" transform="rotate(-0 499.611081 283.650568)">20.0</text>
     </g>
    </g>
    <g id="text_43">
     <text style="font-size: 7px; font-family: 'Arial', 'Helvetica', 'DejaVu Sans', sans-serif; text-anchor: middle" x="290.352091" y="294.137599" transform="rotate(-0 290.352091 294.137599)">time from train start (s)</text>
    </g>
   </g>
   <g id="matplotlib.axis_6">
    <g id="ytick_10">
     <g id="line2d_32">
      <path d="M 62.003631 267.921115 
L 518.700552 267.921115 
" clip-path="url(#pe2607123d4)" style="fill: none; stroke: #e5e7eb; stroke-width: 0.6; stroke-linecap: square"/>
     </g>
     <g id="line2d_33">
      <g>
       <use xlink:href="#m85d58f4ad7" x="62.003631" y="267.921115" style="stroke: #000000; stroke-width: 0.8"/>
      </g>
     </g>
     <g id="text_44">
      <text style="font-size: 7px; font-family: 'Arial', 'Helvetica', 'DejaVu Sans', sans-serif; text-anchor: end" x="55.003631" y="270.426349" transform="rotate(-0 55.003631 270.426349)">700</text>
     </g>
    </g>
    <g id="ytick_11">
     <g id="line2d_34">
      <path d="M 62.003631 250.318093 
L 518.700552 250.318093 
" clip-path="url(#pe2607123d4)" style="fill: none; stroke: #e5e7eb; stroke-width: 0.6; stroke-linecap: square"/>
     </g>
     <g id="line2d_35">
      <g>
       <use xlink:href="#m85d58f4ad7" x="62.003631" y="250.318093" style="stroke: #000000; stroke-width: 0.8"/>
      </g>
     </g>
     <g id="text_45">
      <text style="font-size: 7px; font-family: 'Arial', 'Helvetica', 'DejaVu Sans', sans-serif; text-anchor: end" x="55.003631" y="252.823327" transform="rotate(-0 55.003631 252.823327)">800</text>
     </g>
    </g>
    <g id="ytick_12">
     <g id="line2d_36">
      <path d="M 62.003631 232.71507 
L 518.700552 232.71507 
" clip-path="url(#pe2607123d4)" style="fill: none; stroke: #e5e7eb; stroke-width: 0.6; stroke-linecap: square"/>
     </g>
     <g id="line2d_37">
      <g>
       <use xlink:href="#m85d58f4ad7" x="62.003631" y="232.71507" style="stroke: #000000; stroke-width: 0.8"/>
      </g>
     </g>
     <g id="text_46">
      <text style="font-size: 7px; font-family: 'Arial', 'Helvetica', 'DejaVu Sans', sans-serif; text-anchor: end" x="55.003631" y="235.220305" transform="rotate(-0 55.003631 235.220305)">900</text>
     </g>
    </g>
    <g id="ytick_13">
     <g id="line2d_38">
      <path d="M 62.003631 215.112048 
L 518.700552 215.112048 
" clip-path="url(#pe2607123d4)" style="fill: none; stroke: #e5e7eb; stroke-width: 0.6; stroke-linecap: square"/>
     </g>
     <g id="line2d_39">
      <g>
       <use xlink:href="#m85d58f4ad7" x="62.003631" y="215.112048" style="stroke: #000000; stroke-width: 0.8"/>
      </g>
     </g>
     <g id="text_47">
      <text style="font-size: 7px; font-family: 'Arial', 'Helvetica', 'DejaVu Sans', sans-serif; text-anchor: end" x="55.003631" y="217.617283" transform="rotate(-0 55.003631 217.617283)">1000</text>
     </g>
    </g>
    <g id="ytick_14">
     <g id="line2d_40">
      <path d="M 62.003631 197.509026 
L 518.700552 197.509026 
" clip-path="url(#pe2607123d4)" style="fill: none; stroke: #e5e7eb; stroke-width: 0.6; stroke-linecap: square"/>
     </g>
     <g id="line2d_41">
      <g>
       <use xlink:href="#m85d58f4ad7" x="62.003631" y="197.509026" style="stroke: #000000; stroke-width: 0.8"/>
      </g>
     </g>
     <g id="text_48">
      <text style="font-size: 7px; font-family: 'Arial', 'Helvetica', 'DejaVu Sans', sans-serif; text-anchor: end" x="55.003631" y="200.01426" transform="rotate(-0 55.003631 200.01426)">1100</text>
     </g>
    </g>
    <g id="ytick_15">
     <g id="line2d_42">
      <path d="M 62.003631 179.906004 
L 518.700552 179.906004 
" clip-path="url(#pe2607123d4)" style="fill: none; stroke: #e5e7eb; stroke-width: 0.6; stroke-linecap: square"/>
     </g>
     <g id="line2d_43">
      <g>
       <use xlink:href="#m85d58f4ad7" x="62.003631" y="179.906004" style="stroke: #000000; stroke-width: 0.8"/>
      </g>
     </g>
     <g id="text_49">
      <text style="font-size: 7px; font-family: 'Arial', 'Helvetica', 'DejaVu Sans', sans-serif; text-anchor: end" x="55.003631" y="182.411238" transform="rotate(-0 55.003631 182.411238)">1200</text>
     </g>
    </g>
    <g id="text_50">
     <text style="font-size: 7px; font-family: 'Arial', 'Helvetica', 'DejaVu Sans', sans-serif; text-anchor: middle" x="33.959724" y="221.822414" transform="rotate(-90 33.959724 221.822414)">relative x (px)</text>
    </g>
   </g>
   <g id="line2d_44">
    <path d="M 82.762582 221.109496 
L 83.458024 222.151812 
L 84.153467 219.288611 
L 84.848909 217.226698 
L 86.239794 219.663307 
L 86.935237 217.17606 
L 87.630679 217.851279 
L 88.326122 224.269944 
L 89.021559 224.81456 
L 89.717002 224.698181 
L 90.412444 227.293394 
L 91.107887 232.761673 
L 91.803329 228.842384 
L 92.498772 228.402937 
L 93.194215 233.754739 
L 93.889657 236.022839 
L 94.5851 229.978676 
L 95.280542 229.77544 
L 95.975985 230.250108 
L 96.671427 228.636422 
L 97.36687 227.89334 
L 98.062312 234.06342 
L 98.757755 230.776892 
L 99.453197 224.678929 
L 100.14864 223.599554 
L 100.844082 220.652655 
L 101.53952 219.39977 
L 102.234962 217.511278 
L 102.930405 217.191695 
L 103.625847 220.762046 
L 104.32129 221.965566 
L 105.016732 218.014594 
L 105.712175 215.567474 
L 106.407618 213.890891 
L 107.10306 212.640738 
L 107.798503 213.240085 
L 108.493945 212.89152 
L 109.88483 198.882302 
L 110.580273 200.163126 
L 111.275715 204.979378 
L 111.971158 205.836439 
L 112.6666 205.875604 
L 113.362038 209.891426 
L 114.05748 212.577295 
L 114.752923 210.911522 
L 116.143808 227.771352 
L 117.534693 219.376345 
L 118.230136 226.165658 
L 118.925578 226.0864 
L 119.621021 216.470962 
L 120.316463 219.675465 
L 121.011906 230.357523 
L 122.402791 215.39526 
L 123.098233 219.656601 
L 123.793676 218.055535 
L 124.489118 207.034373 
L 125.184561 212.378696 
L 125.879998 222.854833 
L 126.575441 222.296543 
L 127.270883 217.992788 
L 127.966326 221.552376 
L 128.661768 224.063988 
L 129.357211 211.994943 
L 130.052654 208.944479 
L 130.748096 212.619162 
L 131.443539 209.984328 
L 132.138981 202.120867 
L 132.834424 211.271444 
L 133.529866 215.313896 
L 134.225309 208.720563 
L 134.920751 214.023451 
L 135.616194 221.597319 
L 136.311636 222.401197 
L 137.007079 214.632037 
L 137.702521 214.658236 
L 138.397959 210.445687 
L 139.093401 204.841135 
L 139.788844 206.208996 
L 140.484286 211.4116 
L 141.179729 210.517915 
L 141.875172 201.07042 
L 142.570614 197.94938 
L 143.266057 198.599981 
L 144.656942 193.414552 
L 145.352384 200.195043 
L 146.047827 203.857313 
L 146.743269 199.498723 
L 147.438712 201.920801 
L 148.134154 204.829568 
L 148.829597 196.834026 
L 149.525039 196.016901 
L 150.220482 204.502916 
L 150.915919 202.476286 
L 151.611362 198.29943 
L 152.306804 200.999022 
L 153.002247 202.356159 
L 153.69769 197.347953 
L 154.393132 193.905581 
L 155.088575 194.249595 
L 155.784017 196.475964 
L 156.47946 195.851261 
L 157.174902 196.173315 
L 157.870345 196.645308 
L 158.565787 188.398063 
L 159.26123 184.01496 
L 159.956672 188.151742 
L 160.652115 186.082738 
L 161.347557 182.622095 
L 162.043 186.364418 
L 162.738437 183.628454 
L 163.43388 176.533609 
L 164.129322 181.786858 
L 164.824765 184.234814 
L 165.520207 185.153213 
L 166.911093 201.13381 
L 167.606535 199.172567 
L 168.301978 199.725411 
L 168.99742 207.627949 
L 169.692863 206.656863 
L 170.388305 208.070995 
L 171.083748 215.697978 
L 171.77919 217.542517 
L 172.474633 216.648434 
L 173.865518 219.750342 
L 174.56096 219.826966 
L 175.256398 218.568802 
L 175.95184 218.373985 
L 176.647283 225.716844 
L 177.342725 228.911422 
L 178.038168 227.36336 
L 178.733611 226.804197 
L 179.429053 224.186415 
L 180.124496 216.80873 
L 180.819938 214.166574 
L 181.515381 216.225606 
L 182.210823 211.988707 
L 182.906266 212.923312 
L 184.297151 221.647326 
L 184.992593 222.91942 
L 186.383478 220.690616 
L 187.078921 215.741727 
L 187.774358 212.376037 
L 189.165243 225.375496 
L 189.860686 225.233814 
L 190.556129 222.689872 
L 191.251571 223.788165 
L 191.947014 223.267627 
L 192.642456 216.388001 
L 193.337899 213.427455 
L 194.033341 216.272161 
L 194.728784 210.99067 
L 195.424226 206.670826 
L 196.119669 215.476936 
L 196.815111 218.858374 
L 197.510554 212.322859 
L 198.205996 217.97864 
L 198.901439 227.342581 
L 200.987761 234.580593 
L 201.683204 233.407944 
L 202.378647 227.355265 
L 203.074089 228.138855 
L 203.769532 232.962685 
L 204.464974 235.278852 
L 205.160417 233.395523 
L 205.855859 233.725695 
L 206.551302 236.935882 
L 207.246744 233.504068 
L 207.942187 232.173121 
L 208.637629 235.721038 
L 209.333072 236.281081 
L 210.028514 233.696729 
L 211.419399 226.562584 
L 212.114837 227.560107 
L 213.505722 231.376994 
L 214.201165 237.322786 
L 214.896607 235.47655 
L 215.59205 227.402687 
L 216.287492 227.805578 
L 216.982935 227.810162 
L 217.678377 222.439504 
L 218.37382 222.649669 
L 219.069262 223.841884 
L 219.764705 219.494697 
L 220.460147 212.917378 
L 221.15559 210.837079 
L 221.851032 211.625109 
L 222.546475 211.925208 
L 223.241917 214.949548 
L 223.93736 226.54116 
L 224.632797 233.977763 
L 225.32824 231.129817 
L 226.023682 234.710599 
L 226.719125 240.92961 
L 227.414568 234.920935 
L 228.11001 233.958997 
L 228.805453 236.251738 
L 229.500895 237.671551 
L 230.89178 233.67269 
L 231.587223 235.263189 
L 232.282665 228.789297 
L 232.978108 219.710275 
L 233.67355 217.972644 
L 234.368993 224.105148 
L 235.064435 221.693521 
L 235.759878 217.018378 
L 236.455315 216.933759 
L 237.150758 213.766513 
L 237.8462 208.736298 
L 238.541643 207.689368 
L 239.237086 214.724953 
L 239.932528 209.026073 
L 240.627971 200.357415 
L 241.323413 204.561691 
L 242.018856 203.942978 
L 242.714298 195.574296 
L 243.409741 201.487875 
L 244.105183 202.517178 
L 244.800626 198.299631 
L 245.496068 196.960903 
L 246.191511 200.15269 
L 246.886953 196.337101 
L 247.582396 198.738445 
L 248.277838 202.349973 
L 248.973276 204.147179 
L 249.668718 208.19214 
L 250.364161 206.291342 
L 251.059604 203.084153 
L 251.755046 202.360006 
L 252.450489 197.356221 
L 253.145931 196.422014 
L 253.841374 202.415288 
L 254.536816 204.834194 
L 255.232259 201.853738 
L 255.927701 203.728105 
L 256.623144 201.770271 
L 257.318586 195.130613 
L 258.014029 197.919334 
L 258.709471 203.715474 
L 259.404914 207.323336 
L 260.100356 207.517656 
L 260.795799 209.560422 
L 261.491236 208.21091 
L 262.186679 208.421339 
L 263.577564 216.611454 
L 264.273007 215.508081 
L 264.968449 216.266912 
L 265.663892 219.913195 
L 266.359334 220.611082 
L 267.054777 224.419923 
L 267.750219 225.468197 
L 268.445662 219.806011 
L 269.141104 221.074513 
L 269.836547 227.414766 
L 270.531989 223.825727 
L 271.227432 222.71372 
L 271.922874 225.360543 
L 272.618317 221.111581 
L 273.313754 212.692496 
L 274.009197 210.247509 
L 274.70464 206.110542 
L 275.400082 204.036439 
L 276.095525 206.890965 
L 276.790967 210.347148 
L 277.48641 209.989372 
L 278.181852 205.7214 
L 278.877295 206.260425 
L 279.572737 211.658533 
L 280.26818 212.863717 
L 280.963622 215.384229 
L 281.659065 222.555435 
L 282.354507 227.846433 
L 283.04995 229.680162 
L 283.745392 230.850416 
L 284.440835 232.334098 
L 285.136277 227.745649 
L 285.831715 218.729231 
L 286.527157 219.081836 
L 287.2226 223.481807 
L 287.918043 217.375823 
L 288.613485 217.785956 
L 290.00437 219.590618 
L 290.00437 219.590618 
" clip-path="url(#pe2607123d4)" style="fill: none; stroke: #1f2937; stroke-linecap: square"/>
   </g>
   <g id="line2d_45">
    <path d="M 290.699813 213.713974 
L 291.395255 219.060606 
L 292.090698 217.477888 
L 292.78614 212.412309 
L 293.481583 209.350246 
L 294.177025 214.639675 
L 294.872468 210.262652 
L 295.56791 207.06915 
L 296.263353 208.173009 
L 296.958795 204.890973 
L 297.654238 202.549458 
L 298.349675 204.304744 
L 299.045118 205.056772 
L 299.740561 199.130008 
L 300.436003 202.721254 
L 301.131446 208.099553 
L 301.826888 203.271625 
L 302.522331 201.367772 
L 303.217773 201.945461 
L 303.913216 198.357753 
L 304.608658 200.714703 
L 305.304101 209.373037 
L 305.999543 209.6706 
L 306.694986 208.6327 
L 307.390428 213.311748 
L 308.085871 216.106029 
L 308.781313 207.640552 
L 309.476756 204.159507 
L 310.172193 204.348008 
L 310.867636 201.195946 
L 311.563079 199.566482 
L 312.258521 202.992531 
L 312.953964 204.598157 
L 313.649406 197.353327 
L 314.344849 197.239877 
L 315.040291 198.09093 
L 315.735734 188.976298 
L 316.431176 185.511885 
L 317.126619 192.866948 
L 318.517504 182.509038 
L 319.212946 192.847022 
L 319.908389 197.887105 
L 320.603831 195.450591 
L 321.299274 199.378137 
L 321.994716 200.377397 
L 322.690154 194.120217 
L 323.385597 194.567251 
L 324.081039 202.511396 
L 325.471924 187.143659 
L 326.167367 191.023956 
L 326.862809 192.23115 
L 327.558252 190.015624 
L 328.253694 199.967533 
L 328.949137 203.778114 
L 329.644579 196.081669 
L 330.340022 191.384679 
L 331.035464 189.504127 
L 331.730907 183.890501 
L 332.426349 180.089685 
L 333.121792 180.312004 
L 334.512677 176.931178 
L 335.903557 189.76054 
L 336.599 184.710228 
L 337.294442 187.325587 
L 337.989885 191.439439 
L 338.685327 188.083148 
L 339.38077 190.607005 
L 340.076212 197.381617 
L 340.771655 196.043265 
L 341.467097 196.54225 
L 342.16254 199.804468 
L 342.857982 196.302758 
L 343.553425 190.662756 
L 344.248867 194.063647 
L 344.94431 194.252383 
L 345.639752 187.780835 
L 346.335195 191.099191 
L 347.030637 199.612306 
L 347.726075 200.08077 
L 348.421518 200.379704 
L 349.11696 206.139068 
L 349.812403 201.376669 
L 350.507845 199.955214 
L 351.203288 210.562601 
L 351.89873 219.31167 
L 352.594173 215.572722 
L 353.289615 215.916843 
L 353.985058 222.670887 
L 354.6805 218.126083 
L 355.375943 211.815466 
L 356.071385 215.701757 
L 356.766828 215.80662 
L 357.46227 210.114658 
L 358.157713 209.864813 
L 358.853155 210.667739 
L 359.548593 204.206188 
L 360.244036 201.791753 
L 360.939478 200.822153 
L 361.634921 203.452066 
L 362.330363 204.348449 
L 363.721248 201.949911 
L 364.416691 204.591625 
L 365.112133 201.236228 
L 365.807576 201.238074 
L 366.503018 211.192724 
L 367.198461 215.045772 
L 367.893903 215.981465 
L 369.284788 234.135902 
L 369.980231 230.381564 
L 370.675673 230.21339 
L 371.371116 236.581532 
L 372.066554 233.725416 
L 372.761996 227.019983 
L 373.457439 227.096873 
L 374.152881 229.746967 
L 374.848324 229.766786 
L 375.543766 234.903496 
L 376.239209 243.337874 
L 376.934651 246.049699 
L 377.630094 246.162495 
L 378.325536 252.966233 
L 379.020979 257.404928 
L 379.716421 257.254998 
L 380.411864 257.24436 
L 381.107306 260.335725 
L 381.802749 255.302395 
L 382.498191 253.43164 
L 383.193634 255.260427 
L 383.889076 250.866037 
L 384.584514 249.806991 
L 385.279957 246.660596 
L 385.975399 241.619158 
L 386.670842 242.907107 
L 387.366284 243.402928 
L 388.061727 235.973663 
L 388.757169 237.0612 
L 389.452612 241.422836 
L 390.843497 235.725566 
L 391.538939 243.573001 
L 392.234382 243.07619 
L 392.929824 236.058215 
L 393.625267 235.021354 
L 394.320709 239.110109 
L 395.016152 241.4094 
L 395.711594 236.636827 
L 396.407032 235.47884 
L 397.102475 237.4517 
L 397.797917 229.884444 
L 398.49336 225.444507 
L 399.188802 233.699269 
L 399.884245 236.816106 
L 400.579687 231.821224 
L 401.27513 235.371247 
L 401.970572 240.038164 
L 402.666015 243.330237 
L 403.361457 242.787111 
L 404.0569 249.33502 
L 404.752342 253.206888 
L 405.447785 250.998552 
L 406.143227 246.573405 
L 406.83867 248.594969 
L 407.534112 243.551238 
L 408.229555 230.917278 
L 408.924993 233.767272 
L 409.620435 241.804262 
L 411.01132 229.765759 
L 411.706763 234.444139 
L 412.402205 235.633739 
L 413.097648 231.334437 
L 413.79309 234.937274 
L 414.488533 242.652517 
L 415.879418 230.765479 
L 416.57486 229.105497 
L 417.270303 230.815816 
L 417.965745 226.964649 
L 418.661188 226.683316 
L 420.052073 242.972194 
L 420.747516 242.727038 
L 421.442953 246.098904 
L 422.138396 252.039051 
L 422.833838 252.624033 
L 423.529281 246.221246 
L 424.224723 251.254691 
L 424.920166 251.207603 
L 425.615608 243.840298 
L 426.311051 241.436722 
L 427.006493 247.944117 
L 427.701936 242.026018 
L 428.397378 230.115832 
L 429.092821 231.374024 
L 429.788263 229.880062 
L 430.483706 225.944225 
L 431.179148 225.132687 
L 431.874591 229.305828 
L 432.570033 224.616793 
L 433.265471 216.194028 
L 433.960914 218.235229 
L 434.656356 224.021792 
L 435.351799 221.684074 
L 436.047241 219.798969 
L 436.742684 225.137683 
L 437.438126 228.614354 
L 438.133569 228.031456 
L 438.829011 228.695745 
L 439.524454 233.488313 
L 440.219896 234.753729 
L 440.915339 231.265989 
L 441.610781 233.277575 
L 442.306224 236.583003 
L 443.001666 236.987909 
L 443.697109 237.263007 
L 444.392551 241.168961 
L 445.087994 250.156286 
L 445.783432 245.159959 
L 446.478874 242.418859 
L 447.174317 241.661548 
L 447.869759 240.062345 
L 448.565202 233.968872 
L 449.260644 232.796648 
L 449.956087 232.875901 
L 450.651529 227.968223 
L 451.346972 225.454887 
L 452.042414 230.245749 
L 452.737857 227.045486 
L 453.433299 217.62248 
L 454.128742 213.296266 
L 454.824184 218.096056 
L 455.519627 211.803624 
L 456.215069 208.553684 
L 456.910512 217.134466 
L 457.605955 217.016913 
L 458.301392 212.323445 
L 459.692277 216.941635 
L 460.38772 209.774137 
L 461.083162 211.182731 
L 461.778605 221.945815 
L 462.474047 224.014226 
L 463.16949 217.431819 
L 463.864932 221.070212 
L 464.560375 222.762195 
L 465.255817 216.064721 
L 465.95126 211.012737 
L 466.646702 219.601182 
L 467.342145 214.812783 
L 468.037587 207.340193 
L 468.73303 212.198866 
L 469.428473 220.385325 
L 470.12391 214.570613 
L 470.819353 211.090262 
L 471.514795 219.2685 
L 472.210238 218.00149 
L 472.90568 209.546802 
L 473.601123 214.074253 
L 474.296565 215.282924 
L 474.992008 205.667212 
L 475.68745 207.642538 
L 476.382893 210.081521 
L 477.078335 208.084968 
L 477.773778 205.590902 
L 478.46922 211.321467 
L 479.164663 210.568526 
L 479.860105 209.538377 
L 480.555548 208.192008 
L 481.946433 201.423697 
L 482.641871 204.507352 
L 483.337313 208.181383 
L 484.032756 210.173691 
L 484.728198 213.264607 
L 485.423641 215.578473 
L 486.119083 212.69724 
L 486.814526 210.798407 
L 487.509968 211.277292 
L 488.205411 207.288044 
L 488.900853 205.994873 
L 489.596296 209.802508 
L 490.291738 211.559406 
L 490.987181 211.922268 
L 491.682623 209.7065 
L 492.378066 217.255984 
L 493.073508 218.316877 
L 493.768951 214.354999 
L 494.464394 214.503656 
L 495.159831 215.633229 
L 495.855274 207.060923 
L 496.550716 205.802385 
L 497.246159 213.851097 
L 497.941601 216.417208 
L 497.941601 216.417208 
" clip-path="url(#pe2607123d4)" style="fill: none; stroke: #1f2937; stroke-width: 1.15; stroke-linecap: square"/>
   </g>
   <g id="line2d_46">
    <path d="M 290.699813 220.4277 
L 291.395255 228.884001 
L 292.78614 219.817718 
L 294.177025 224.742487 
L 294.872468 223.09312 
L 295.56791 217.647223 
L 296.263353 219.871882 
L 296.958795 217.835841 
L 297.654238 218.625583 
L 298.349675 213.778106 
L 299.045118 214.416166 
L 299.740561 213.707984 
L 300.436003 211.856361 
L 301.131446 210.594696 
L 301.826888 211.960844 
L 302.522331 207.488472 
L 303.217773 207.095076 
L 303.913216 206.372091 
L 304.608658 213.035077 
L 305.304101 210.787178 
L 305.999543 210.967084 
L 306.694986 202.314807 
L 307.390428 201.668747 
L 308.085871 209.321397 
L 308.781313 210.431728 
L 309.476756 216.296334 
L 310.172193 214.716744 
L 310.867636 216.903513 
L 311.563079 217.725772 
L 312.258521 217.653772 
L 312.953964 209.274811 
L 313.649406 203.009178 
L 314.344849 206.430712 
L 315.040291 207.596554 
L 315.735734 205.88895 
L 316.431176 208.288322 
L 317.126619 206.077453 
L 317.822061 202.615274 
L 318.517504 197.498345 
L 319.212946 195.988572 
L 319.908389 194.794557 
L 320.603831 192.614921 
L 321.299274 185.077615 
L 322.690154 196.340364 
L 323.385597 196.020006 
L 324.081039 203.946582 
L 324.776482 203.341444 
L 325.471924 198.145587 
L 326.862809 203.428428 
L 327.558252 198.564603 
L 328.253694 194.599365 
L 328.949137 195.721519 
L 329.644579 194.34238 
L 330.340022 193.724662 
L 331.035464 200.008172 
L 331.730907 202.588413 
L 333.121792 201.512855 
L 333.817234 192.98963 
L 334.512677 187.293416 
L 335.208115 187.245665 
L 335.903557 182.994613 
L 336.599 185.631621 
L 337.294442 183.524359 
L 337.989885 180.592024 
L 339.38077 194.917583 
L 340.076212 188.073799 
L 340.771655 188.552844 
L 341.467097 196.0885 
L 342.16254 195.155735 
L 342.857982 198.094975 
L 343.553425 200.373001 
L 344.248867 200.022685 
L 344.94431 203.234743 
L 345.639752 198.908376 
L 346.335195 197.96471 
L 347.030637 200.372677 
L 347.726075 200.198199 
L 348.421518 194.173273 
L 349.11696 200.81945 
L 349.812403 196.535621 
L 350.507845 200.902436 
L 351.203288 209.09205 
L 351.89873 207.660149 
L 353.289615 202.413455 
L 353.985058 211.778047 
L 354.6805 213.855249 
L 355.375943 216.591692 
L 356.071385 222.12633 
L 356.766828 218.649245 
L 357.46227 218.69145 
L 358.157713 221.132171 
L 358.853155 216.620202 
L 359.548593 214.205554 
L 360.244036 214.832572 
L 360.939478 214.772919 
L 361.634921 215.136187 
L 362.330363 211.989536 
L 363.025806 207.717259 
L 363.721248 205.546173 
L 364.416691 203.887238 
L 365.112133 205.952313 
L 365.807576 212.149725 
L 367.198461 205.157166 
L 367.893903 204.353505 
L 368.589346 203.301896 
L 369.284788 206.881478 
L 369.980231 211.712229 
L 370.675673 221.703931 
L 371.371116 221.959079 
L 372.066554 217.965016 
L 372.761996 221.854666 
L 373.457439 230.466428 
L 374.848324 228.405759 
L 376.239209 225.60952 
L 376.934651 221.006398 
L 377.630094 223.919901 
L 378.325536 225.137016 
L 379.020979 234.949177 
L 379.716421 233.39029 
L 380.411864 244.861246 
L 381.802749 257.3607 
L 382.498191 253.735152 
L 383.193634 255.406742 
L 383.889076 267.111219 
L 384.584514 263.171939 
L 385.279957 262.481587 
L 385.975399 253.767814 
L 386.670842 255.484027 
L 387.366284 256.021548 
L 388.061727 250.595178 
L 388.757169 243.775311 
L 389.452612 240.554042 
L 390.148054 235.129142 
L 390.843497 240.550501 
L 391.538939 231.699897 
L 392.234382 234.864392 
L 392.929824 233.410847 
L 393.625267 240.741009 
L 394.320709 233.911994 
L 395.016152 241.60752 
L 395.711594 233.853817 
L 396.407032 236.877162 
L 397.102475 232.429387 
L 397.797917 230.304271 
L 398.49336 239.32879 
L 399.188802 239.919067 
L 399.884245 238.270114 
L 400.579687 222.006631 
L 401.27513 228.126327 
L 402.666015 222.451905 
L 403.361457 222.953612 
L 404.0569 232.934165 
L 404.752342 233.261359 
L 405.447785 234.017343 
L 406.143227 240.574784 
L 406.83867 244.079444 
L 407.534112 251.717739 
L 408.229555 247.337591 
L 408.924993 254.8481 
L 409.620435 246.658343 
L 411.01132 239.715467 
L 411.706763 229.165597 
L 412.402205 234.083311 
L 413.097648 230.14935 
L 413.79309 233.949965 
L 414.488533 230.955785 
L 415.183975 228.909884 
L 415.879418 228.383762 
L 416.57486 227.1143 
L 417.270303 234.729106 
L 417.965745 229.903154 
L 418.661188 237.029337 
L 419.35663 230.017978 
L 420.052073 218.881176 
L 421.442953 220.650477 
L 422.138396 222.326548 
L 422.833838 221.793702 
L 424.224723 247.076904 
L 424.920166 245.91071 
L 425.615608 247.956735 
L 426.311051 249.114549 
L 427.006493 248.653665 
L 427.701936 244.126798 
L 428.397378 247.227078 
L 429.092821 242.797599 
L 429.788263 239.928288 
L 430.483706 238.940685 
L 431.179148 238.154257 
L 431.874591 231.487215 
L 432.570033 223.324184 
L 433.265471 223.24204 
L 433.960914 227.106754 
L 434.656356 216.917678 
L 435.351799 224.047037 
L 436.047241 217.998217 
L 436.742684 225.128108 
L 437.438126 217.224486 
L 438.133569 213.058333 
L 438.829011 220.117898 
L 440.219896 222.459159 
L 440.915339 216.037521 
L 441.610781 224.598465 
L 442.306224 227.905703 
L 443.001666 232.88375 
L 443.697109 231.194769 
L 444.392551 225.715605 
L 445.087994 225.464038 
L 445.783432 229.947059 
L 446.478874 231.922588 
L 447.174317 234.5307 
L 447.869759 241.650258 
L 448.565202 239.296603 
L 449.260644 240.065662 
L 449.956087 246.348338 
L 450.651529 235.202983 
L 451.346972 239.764641 
L 452.042414 227.970442 
L 452.737857 229.848361 
L 453.433299 225.764731 
L 454.128742 218.200985 
L 454.824184 224.013583 
L 455.519627 217.913463 
L 456.215069 224.784765 
L 456.910512 212.442409 
L 457.605955 221.535713 
L 458.301392 207.814846 
L 458.996835 216.208963 
L 459.692277 211.814191 
L 460.38772 219.930445 
L 461.083162 213.615202 
L 461.778605 216.640849 
L 463.16949 211.672836 
L 463.864932 218.263697 
L 464.560375 218.245496 
L 465.255817 216.613157 
L 465.95126 217.233987 
L 466.646702 216.46977 
L 467.342145 216.519783 
L 468.037587 219.409064 
L 468.73303 216.442762 
L 469.428473 220.735794 
L 470.12391 210.850503 
L 470.819353 210.811451 
L 471.514795 219.188025 
L 472.210238 210.716744 
L 472.90568 210.870533 
L 473.601123 218.902051 
L 474.296565 221.006877 
L 474.992008 214.240793 
L 475.68745 210.313833 
L 476.382893 219.707807 
L 477.078335 214.03048 
L 477.773778 212.945944 
L 478.46922 209.847834 
L 479.164663 212.711515 
L 479.860105 208.603421 
L 480.555548 208.160076 
L 481.250991 210.024968 
L 481.946433 218.334308 
L 482.641871 205.018862 
L 483.337313 212.476672 
L 484.728198 207.975885 
L 485.423641 203.985988 
L 486.119083 207.14394 
L 486.814526 215.019313 
L 487.509968 210.910029 
L 488.205411 218.400396 
L 488.900853 213.337816 
L 489.596296 221.789926 
L 490.291738 215.269804 
L 490.987181 212.318497 
L 491.682623 222.726639 
L 492.378066 215.265441 
L 493.073508 213.276161 
L 493.768951 213.564393 
L 494.464394 214.547754 
L 495.159831 223.20706 
L 495.855274 229.685632 
L 496.550716 228.464929 
L 497.246159 231.816992 
L 497.941601 209.666445 
L 497.941601 209.666445 
" clip-path="url(#pe2607123d4)" style="fill: none; stroke-dasharray: 4.255,1.84; stroke-dashoffset: 0; stroke: #0072b2; stroke-width: 1.15"/>
   </g>
   <g id="line2d_47">
    <path d="M 290.699813 271.640099 
L 290.699813 172.004728 
" clip-path="url(#pe2607123d4)" style="fill: none; stroke-dasharray: 0.8,1.32; stroke-dashoffset: 0; stroke: #4b5563; stroke-width: 0.8"/>
   </g>
   <g id="patch_11">
    <path d="M 62.003631 271.640099 
L 62.003631 172.004728 
" style="fill: none; stroke: #000000; stroke-width: 0.8; stroke-linejoin: miter; stroke-linecap: square"/>
   </g>
   <g id="patch_12">
    <path d="M 62.003631 271.640099 
L 518.700552 271.640099 
" style="fill: none; stroke: #000000; stroke-width: 0.8; stroke-linejoin: miter; stroke-linecap: square"/>
   </g>
   <g id="text_51">
    <g id="patch_13">
     <path d="M 73.674538 186.414569 
L 140.571569 186.414569 
L 140.571569 175.952851 
L 73.674538 175.952851 
z
" style="fill: #ffffff; opacity: 0.85"/>
    </g>
    <text style="font-size: 7px; font-family: 'Arial', 'Helvetica', 'DejaVu Sans', sans-serif; text-anchor: start; fill: #0072b2" x="75.704538" y="182.993319" transform="rotate(-0 75.704538 182.993319)">test NMSE = 0.3180</text>
   </g>
   <g id="text_52">
    <text style="font-weight: 700; font-size: 8px; font-family: 'Arial', 'Helvetica', 'DejaVu Sans', sans-serif; text-anchor: start" x="7.2" y="169.760149" transform="rotate(-0 7.2 169.760149)">c</text>
   </g>
   <g id="text_53">
    <text style="font-size: 8.4px; font-family: 'Arial', 'Helvetica', 'DejaVu Sans', sans-serif; text-anchor: middle" x="290.352091" y="166.004728" transform="rotate(-0 290.352091 166.004728)">sample_4 hidden node 10: 5-step forecast, test R2 x=0.68, y=0.53</text>
   </g>
   <g id="legend_3">
    <g id="line2d_48">
     <path d="M 416.34149 179.599416 
L 422.34149 179.599416 
L 428.34149 179.599416 
" style="fill: none; stroke: #1f2937; stroke-width: 1.15; stroke-linecap: square"/>
    </g>
    <g id="text_54">
     <text style="font-size: 6px; font-family: 'Arial', 'Helvetica', 'DejaVu Sans', sans-serif; text-anchor: start" x="433.14149" y="181.699416" transform="rotate(-0 433.14149 181.699416)">measured</text>
    </g>
    <g id="line2d_49">
     <path d="M 471.819927 179.599416 
L 477.819927 179.599416 
L 483.819927 179.599416 
" style="fill: none; stroke-dasharray: 4.255,1.84; stroke-dashoffset: 0; stroke: #0072b2; stroke-width: 1.15"/>
    </g>
    <g id="text_55">
     <text style="font-size: 6px; font-family: 'Arial', 'Helvetica', 'DejaVu Sans', sans-serif; text-anchor: start" x="488.619927" y="181.699416" transform="rotate(-0 488.619927 181.699416)">predicted</text>
    </g>
   </g>
  </g>
  <g id="axes_4">
   <g id="patch_14">
    <path d="M 62.003631 409.228739 
L 518.700552 409.228739 
L 518.700552 309.593368 
L 62.003631 309.593368 
z
" style="fill: #ffffff"/>
   </g>
   <g id="patch_15">
    <path d="M 82.762582 409.228739 
L 290.00437 409.228739 
L 290.00437 309.593368 
L 82.762582 309.593368 
z
" clip-path="url(#pc7b37c6d1b)" style="fill: #e8eef7; stroke: #e8eef7; stroke-linejoin: miter"/>
   </g>
   <g id="patch_16">
    <path d="M 290.699813 409.228739 
L 497.941601 409.228739 
L 497.941601 309.593368 
L 290.699813 309.593368 
z
" clip-path="url(#pc7b37c6d1b)" style="fill: #f7ede2; stroke: #f7ede2; stroke-linejoin: miter"/>
   </g>
   <g id="matplotlib.axis_7">
    <g id="xtick_19">
     <g id="line2d_50">
      <g>
       <use xlink:href="#m15640dc3a4" x="82.762582" y="409.228739" style="stroke: #000000; stroke-width: 0.8"/>
      </g>
     </g>
     <g id="text_56">
      <text style="font-size: 7px; font-family: 'Arial', 'Helvetica', 'DejaVu Sans', sans-serif; text-anchor: middle" x="82.762582" y="421.239207" transform="rotate(-0 82.762582 421.239207)">0.0</text>
     </g>
    </g>
    <g id="xtick_20">
     <g id="line2d_51">
      <g>
       <use xlink:href="#m15640dc3a4" x="134.868644" y="409.228739" style="stroke: #000000; stroke-width: 0.8"/>
      </g>
     </g>
     <g id="text_57">
      <text style="font-size: 7px; font-family: 'Arial', 'Helvetica', 'DejaVu Sans', sans-serif; text-anchor: middle" x="134.868644" y="421.239207" transform="rotate(-0 134.868644 421.239207)">2.5</text>
     </g>
    </g>
    <g id="xtick_21">
     <g id="line2d_52">
      <g>
       <use xlink:href="#m15640dc3a4" x="186.974706" y="409.228739" style="stroke: #000000; stroke-width: 0.8"/>
      </g>
     </g>
     <g id="text_58">
      <text style="font-size: 7px; font-family: 'Arial', 'Helvetica', 'DejaVu Sans', sans-serif; text-anchor: middle" x="186.974706" y="421.239207" transform="rotate(-0 186.974706 421.239207)">5.0</text>
     </g>
    </g>
    <g id="xtick_22">
     <g id="line2d_53">
      <g>
       <use xlink:href="#m15640dc3a4" x="239.080769" y="409.228739" style="stroke: #000000; stroke-width: 0.8"/>
      </g>
     </g>
     <g id="text_59">
      <text style="font-size: 7px; font-family: 'Arial', 'Helvetica', 'DejaVu Sans', sans-serif; text-anchor: middle" x="239.080769" y="421.239207" transform="rotate(-0 239.080769 421.239207)">7.5</text>
     </g>
    </g>
    <g id="xtick_23">
     <g id="line2d_54">
      <g>
       <use xlink:href="#m15640dc3a4" x="291.186831" y="409.228739" style="stroke: #000000; stroke-width: 0.8"/>
      </g>
     </g>
     <g id="text_60">
      <text style="font-size: 7px; font-family: 'Arial', 'Helvetica', 'DejaVu Sans', sans-serif; text-anchor: middle" x="291.186831" y="421.239207" transform="rotate(-0 291.186831 421.239207)">10.0</text>
     </g>
    </g>
    <g id="xtick_24">
     <g id="line2d_55">
      <g>
       <use xlink:href="#m15640dc3a4" x="343.292894" y="409.228739" style="stroke: #000000; stroke-width: 0.8"/>
      </g>
     </g>
     <g id="text_61">
      <text style="font-size: 7px; font-family: 'Arial', 'Helvetica', 'DejaVu Sans', sans-serif; text-anchor: middle" x="343.292894" y="421.239207" transform="rotate(-0 343.292894 421.239207)">12.5</text>
     </g>
    </g>
    <g id="xtick_25">
     <g id="line2d_56">
      <g>
       <use xlink:href="#m15640dc3a4" x="395.398956" y="409.228739" style="stroke: #000000; stroke-width: 0.8"/>
      </g>
     </g>
     <g id="text_62">
      <text style="font-size: 7px; font-family: 'Arial', 'Helvetica', 'DejaVu Sans', sans-serif; text-anchor: middle" x="395.398956" y="421.239207" transform="rotate(-0 395.398956 421.239207)">15.0</text>
     </g>
    </g>
    <g id="xtick_26">
     <g id="line2d_57">
      <g>
       <use xlink:href="#m15640dc3a4" x="447.505018" y="409.228739" style="stroke: #000000; stroke-width: 0.8"/>
      </g>
     </g>
     <g id="text_63">
      <text style="font-size: 7px; font-family: 'Arial', 'Helvetica', 'DejaVu Sans', sans-serif; text-anchor: middle" x="447.505018" y="421.239207" transform="rotate(-0 447.505018 421.239207)">17.5</text>
     </g>
    </g>
    <g id="xtick_27">
     <g id="line2d_58">
      <g>
       <use xlink:href="#m15640dc3a4" x="499.611081" y="409.228739" style="stroke: #000000; stroke-width: 0.8"/>
      </g>
     </g>
     <g id="text_64">
      <text style="font-size: 7px; font-family: 'Arial', 'Helvetica', 'DejaVu Sans', sans-serif; text-anchor: middle" x="499.611081" y="421.239207" transform="rotate(-0 499.611081 421.239207)">20.0</text>
     </g>
    </g>
    <g id="text_65">
     <text style="font-size: 7px; font-family: 'Arial', 'Helvetica', 'DejaVu Sans', sans-serif; text-anchor: middle" x="290.352091" y="431.726239" transform="rotate(-0 290.352091 431.726239)">time from train start (s)</text>
    </g>
   </g>
   <g id="matplotlib.axis_8">
    <g id="ytick_16">
     <g id="line2d_59">
      <path d="M 62.003631 406.770122 
L 518.700552 406.770122 
" clip-path="url(#pc7b37c6d1b)" style="fill: none; stroke: #e5e7eb; stroke-width: 0.6; stroke-linecap: square"/>
     </g>
     <g id="line2d_60">
      <g>
       <use xlink:href="#m85d58f4ad7" x="62.003631" y="406.770122" style="stroke: #000000; stroke-width: 0.8"/>
      </g>
     </g>
     <g id="text_66">
      <text style="font-size: 7px; font-family: 'Arial', 'Helvetica', 'DejaVu Sans', sans-serif; text-anchor: end" x="55.003631" y="409.275357" transform="rotate(-0 55.003631 409.275357)">960</text>
     </g>
    </g>
    <g id="ytick_17">
     <g id="line2d_61">
      <path d="M 62.003631 389.572195 
L 518.700552 389.572195 
" clip-path="url(#pc7b37c6d1b)" style="fill: none; stroke: #e5e7eb; stroke-width: 0.6; stroke-linecap: square"/>
     </g>
     <g id="line2d_62">
      <g>
       <use xlink:href="#m85d58f4ad7" x="62.003631" y="389.572195" style="stroke: #000000; stroke-width: 0.8"/>
      </g>
     </g>
     <g id="text_67">
      <text style="font-size: 7px; font-family: 'Arial', 'Helvetica', 'DejaVu Sans', sans-serif; text-anchor: end" x="55.003631" y="392.077429" transform="rotate(-0 55.003631 392.077429)">980</text>
     </g>
    </g>
    <g id="ytick_18">
     <g id="line2d_63">
      <path d="M 62.003631 372.374268 
L 518.700552 372.374268 
" clip-path="url(#pc7b37c6d1b)" style="fill: none; stroke: #e5e7eb; stroke-width: 0.6; stroke-linecap: square"/>
     </g>
     <g id="line2d_64">
      <g>
       <use xlink:href="#m85d58f4ad7" x="62.003631" y="372.374268" style="stroke: #000000; stroke-width: 0.8"/>
      </g>
     </g>
     <g id="text_68">
      <text style="font-size: 7px; font-family: 'Arial', 'Helvetica', 'DejaVu Sans', sans-serif; text-anchor: end" x="55.003631" y="374.879502" transform="rotate(-0 55.003631 374.879502)">1000</text>
     </g>
    </g>
    <g id="ytick_19">
     <g id="line2d_65">
      <path d="M 62.003631 355.176341 
L 518.700552 355.176341 
" clip-path="url(#pc7b37c6d1b)" style="fill: none; stroke: #e5e7eb; stroke-width: 0.6; stroke-linecap: square"/>
     </g>
     <g id="line2d_66">
      <g>
       <use xlink:href="#m85d58f4ad7" x="62.003631" y="355.176341" style="stroke: #000000; stroke-width: 0.8"/>
      </g>
     </g>
     <g id="text_69">
      <text style="font-size: 7px; font-family: 'Arial', 'Helvetica', 'DejaVu Sans', sans-serif; text-anchor: end" x="55.003631" y="357.681575" transform="rotate(-0 55.003631 357.681575)">1020</text>
     </g>
    </g>
    <g id="ytick_20">
     <g id="line2d_67">
      <path d="M 62.003631 337.978413 
L 518.700552 337.978413 
" clip-path="url(#pc7b37c6d1b)" style="fill: none; stroke: #e5e7eb; stroke-width: 0.6; stroke-linecap: square"/>
     </g>
     <g id="line2d_68">
      <g>
       <use xlink:href="#m85d58f4ad7" x="62.003631" y="337.978413" style="stroke: #000000; stroke-width: 0.8"/>
      </g>
     </g>
     <g id="text_70">
      <text style="font-size: 7px; font-family: 'Arial', 'Helvetica', 'DejaVu Sans', sans-serif; text-anchor: end" x="55.003631" y="340.483648" transform="rotate(-0 55.003631 340.483648)">1040</text>
     </g>
    </g>
    <g id="ytick_21">
     <g id="line2d_69">
      <path d="M 62.003631 320.780486 
L 518.700552 320.780486 
" clip-path="url(#pc7b37c6d1b)" style="fill: none; stroke: #e5e7eb; stroke-width: 0.6; stroke-linecap: square"/>
     </g>
     <g id="line2d_70">
      <g>
       <use xlink:href="#m85d58f4ad7" x="62.003631" y="320.780486" style="stroke: #000000; stroke-width: 0.8"/>
      </g>
     </g>
     <g id="text_71">
      <text style="font-size: 7px; font-family: 'Arial', 'Helvetica', 'DejaVu Sans', sans-serif; text-anchor: end" x="55.003631" y="323.28572" transform="rotate(-0 55.003631 323.28572)">1060</text>
     </g>
    </g>
    <g id="text_72">
     <text style="font-size: 7px; font-family: 'Arial', 'Helvetica', 'DejaVu Sans', sans-serif; text-anchor: middle" x="33.959724" y="359.411053" transform="rotate(-90 33.959724 359.411053)">relative y (px)</text>
    </g>
   </g>
   <g id="line2d_71">
    <path d="M 82.762582 358.196468 
L 84.153467 366.692713 
L 84.848909 365.615983 
L 85.544352 356.824478 
L 86.239794 367.569831 
L 86.935237 367.158893 
L 87.630679 362.066508 
L 88.326122 360.938223 
L 89.021559 362.029153 
L 89.717002 347.523835 
L 90.412444 342.802647 
L 91.107887 364.583896 
L 91.803329 365.894581 
L 92.498772 345.02981 
L 93.194215 330.631028 
L 93.889657 358.706268 
L 94.5851 369.660071 
L 95.280542 353.247123 
L 95.975985 332.560123 
L 96.671427 361.15191 
L 97.36687 367.232782 
L 98.062312 347.168722 
L 98.757755 346.186471 
L 99.453197 365.961554 
L 100.14864 363.680439 
L 100.844082 350.563644 
L 101.53952 361.215904 
L 102.234962 374.355017 
L 102.930405 371.762342 
L 103.625847 344.05395 
L 104.32129 344.964244 
L 105.016732 374.855786 
L 105.712175 383.392942 
L 106.407618 350.470491 
L 107.10306 358.204116 
L 107.798503 378.99982 
L 108.493945 373.696184 
L 109.189388 363.269084 
L 109.88483 383.650927 
L 110.580273 387.63887 
L 111.275715 365.948961 
L 111.971158 367.777231 
L 112.6666 382.235446 
L 113.362038 375.098446 
L 114.05748 361.947959 
L 114.752923 359.182435 
L 115.448365 375.071681 
L 116.83925 347.158912 
L 117.534693 346.473071 
L 118.230136 363.675384 
L 118.925578 365.022341 
L 119.621021 362.109029 
L 121.011906 350.334235 
L 122.402791 369.657483 
L 123.098233 364.762279 
L 123.793676 361.226697 
L 124.489118 376.648726 
L 125.184561 367.953463 
L 125.879998 357.350991 
L 126.575441 362.303674 
L 127.270883 364.48206 
L 127.966326 351.487122 
L 128.661768 358.125045 
L 129.357211 374.49004 
L 130.052654 376.842012 
L 130.748096 361.857962 
L 131.443539 370.63928 
L 132.138981 380.848949 
L 133.529866 359.499039 
L 134.225309 375.738799 
L 134.920751 373.241216 
L 135.616194 349.42889 
L 136.311636 358.175487 
L 137.007079 379.346843 
L 137.702521 366.062497 
L 138.397959 360.755232 
L 139.093401 385.954728 
L 139.788844 379.233654 
L 140.484286 355.796811 
L 141.179729 370.9318 
L 141.875172 389.393548 
L 142.570614 375.665514 
L 143.266057 374.074888 
L 143.961499 392.357508 
L 145.352384 366.784541 
L 146.047827 381.876585 
L 146.743269 384.768061 
L 147.438712 364.701965 
L 148.134154 375.740727 
L 148.829597 391.226513 
L 150.220482 364.033431 
L 150.915919 384.890905 
L 151.611362 386.893046 
L 152.306804 363.693691 
L 153.002247 371.508987 
L 153.69769 393.884471 
L 155.088575 368.627245 
L 155.784017 390.935471 
L 156.47946 385.241445 
L 157.174902 366.1195 
L 157.870345 386.805857 
L 158.565787 395.00235 
L 159.26123 378.66946 
L 159.956672 382.530437 
L 160.652115 397.165469 
L 161.347557 382.479572 
L 162.043 380.078932 
L 162.738437 396.474972 
L 163.43388 391.314855 
L 164.129322 387.504366 
L 164.824765 390.433811 
L 165.520207 386.541349 
L 166.21565 378.357867 
L 166.911093 381.789875 
L 167.606535 380.674797 
L 168.301978 370.873745 
L 168.99742 373.861951 
L 169.692863 377.503068 
L 170.388305 372.132274 
L 171.083748 359.64399 
L 171.77919 363.34708 
L 172.474633 369.829052 
L 173.170075 363.958771 
L 173.865518 354.357113 
L 174.56096 368.440746 
L 175.256398 370.316474 
L 175.95184 355.902114 
L 176.647283 349.654885 
L 177.342725 361.28715 
L 178.038168 363.778656 
L 178.733611 350.158677 
L 179.429053 349.885223 
L 180.124496 367.706423 
L 180.819938 379.488206 
L 181.515381 365.108347 
L 182.210823 361.088402 
L 182.906266 372.806908 
L 183.601708 372.54101 
L 184.297151 356.044557 
L 184.992593 352.533146 
L 185.688036 362.881672 
L 186.383478 369.177792 
L 187.078921 365.076251 
L 187.774358 366.258994 
L 188.469801 368.723921 
L 189.165243 357.495156 
L 189.860686 349.846239 
L 191.251571 365.782635 
L 191.947014 361.177157 
L 192.642456 359.404822 
L 193.337899 369.546798 
L 194.033341 373.201146 
L 194.728784 370.502507 
L 195.424226 368.821945 
L 196.119669 370.436608 
L 196.815111 365.842109 
L 197.510554 366.447352 
L 198.205996 363.90713 
L 199.596876 351.988422 
L 200.292319 350.114935 
L 200.987761 349.103055 
L 201.683204 359.251867 
L 202.378647 360.670147 
L 203.074089 348.203914 
L 203.769532 345.481938 
L 204.464974 362.671465 
L 205.160417 357.895326 
L 205.855859 343.18938 
L 206.551302 339.963889 
L 207.246744 358.751873 
L 207.942187 366.884351 
L 208.637629 346.379136 
L 209.333072 336.340682 
L 210.028514 355.918806 
L 210.723957 367.911826 
L 211.419399 353.919288 
L 212.114837 350.658079 
L 213.505722 356.006343 
L 214.201165 353.667666 
L 214.896607 344.873192 
L 215.59205 356.063643 
L 216.287492 362.143943 
L 216.982935 352.349672 
L 217.678377 350.176035 
L 218.37382 370.37085 
L 219.069262 361.417355 
L 219.764705 355.693541 
L 220.460147 364.772884 
L 221.15559 379.491991 
L 221.851032 370.892512 
L 222.546475 367.80887 
L 223.241917 361.501467 
L 223.93736 356.481377 
L 224.632797 349.849535 
L 226.023682 356.124768 
L 226.719125 345.88712 
L 227.414568 346.511164 
L 228.11001 355.739909 
L 228.805453 355.405982 
L 229.500895 351.569814 
L 230.89178 341.223683 
L 232.282665 368.272096 
L 232.978108 355.295886 
L 233.67355 356.775134 
L 234.368993 366.678026 
L 235.064435 363.002517 
L 235.759878 357.800202 
L 236.455315 367.924495 
L 237.150758 375.483538 
L 237.8462 372.319593 
L 238.541643 365.25419 
L 239.237086 372.633074 
L 239.932528 376.503414 
L 240.627971 374.213033 
L 241.323413 373.120183 
L 242.018856 381.57374 
L 242.714298 382.388794 
L 243.409741 372.903489 
L 244.105183 374.165515 
L 244.800626 381.503799 
L 245.496068 382.18011 
L 246.191511 374.668752 
L 246.886953 383.735593 
L 247.582396 381.359606 
L 248.277838 372.783635 
L 248.973276 372.370632 
L 249.668718 380.079242 
L 250.364161 369.737695 
L 251.059604 369.429033 
L 251.755046 385.620874 
L 252.450489 387.134726 
L 253.145931 372.568842 
L 253.841374 378.310753 
L 254.536816 381.905169 
L 255.232259 371.03004 
L 255.927701 371.377594 
L 256.623144 388.032229 
L 257.318586 381.629225 
L 258.014029 372.899748 
L 258.709471 378.205324 
L 259.404914 379.625216 
L 260.100356 366.634442 
L 260.795799 366.230562 
L 261.491236 378.099804 
L 262.186679 378.048792 
L 262.882122 363.762787 
L 263.577564 359.380908 
L 264.273007 372.216772 
L 264.968449 373.060622 
L 265.663892 355.966453 
L 266.359334 351.50146 
L 267.054777 369.841818 
L 267.750219 361.199336 
L 268.445662 348.763356 
L 269.141104 361.494802 
L 269.836547 368.876243 
L 270.531989 349.617904 
L 271.227432 356.557466 
L 271.922874 364.695584 
L 272.618317 359.911344 
L 273.313754 361.262624 
L 274.009197 380.936873 
L 274.70464 378.207838 
L 275.400082 371.589035 
L 276.095525 368.226952 
L 276.790967 373.503409 
L 277.48641 375.46282 
L 278.181852 371.736183 
L 278.877295 371.670229 
L 279.572737 376.701822 
L 280.26818 374.310704 
L 280.963622 363.650253 
L 281.659065 365.233059 
L 282.354507 361.213414 
L 283.04995 352.292585 
L 283.745392 345.826678 
L 284.440835 364.300683 
L 285.136277 366.490562 
L 285.831715 359.742303 
L 286.527157 357.300261 
L 287.2226 370.770208 
L 287.918043 371.496111 
L 288.613485 363.292255 
L 289.308928 361.747803 
L 290.00437 372.359582 
L 290.00437 372.359582 
" clip-path="url(#pc7b37c6d1b)" style="fill: none; stroke: #1f2937; stroke-linecap: square"/>
   </g>
   <g id="line2d_72">
    <path d="M 290.699813 373.075106 
L 291.395255 359.437016 
L 292.090698 369.36699 
L 292.78614 377.141782 
L 293.481583 372.128905 
L 294.177025 365.941651 
L 294.872468 375.096207 
L 295.56791 377.997841 
L 296.263353 377.294065 
L 296.958795 369.578505 
L 297.654238 382.836345 
L 298.349675 380.392738 
L 299.045118 374.150832 
L 299.740561 377.327496 
L 300.436003 387.111046 
L 301.131446 370.77358 
L 301.826888 369.245551 
L 302.522331 388.12253 
L 303.217773 383.993081 
L 303.913216 370.775413 
L 304.608658 379.107082 
L 305.304101 383.344004 
L 305.999543 366.95101 
L 306.694986 364.189649 
L 307.390428 375.443792 
L 308.085871 373.839427 
L 308.781313 366.30575 
L 309.476756 378.207575 
L 310.172193 387.47565 
L 310.867636 371.960974 
L 311.563079 372.046175 
L 312.258521 386.251712 
L 312.953964 382.797186 
L 313.649406 367.289006 
L 314.344849 379.521701 
L 315.040291 395.128565 
L 315.735734 382.197769 
L 316.431176 381.029754 
L 317.126619 395.074017 
L 317.822061 383.313392 
L 318.517504 381.875107 
L 319.212946 396.944702 
L 319.908389 378.649425 
L 320.603831 365.752624 
L 321.299274 384.072651 
L 321.994716 392.93435 
L 322.690154 372.101282 
L 323.385597 373.811093 
L 324.081039 389.589184 
L 324.776482 382.649355 
L 325.471924 377.270524 
L 326.167367 397.054039 
L 326.862809 384.238705 
L 327.558252 374.79943 
L 328.253694 382.811319 
L 328.949137 384.826084 
L 329.644579 369.751741 
L 330.340022 384.963676 
L 331.035464 395.410251 
L 331.730907 383.325757 
L 332.426349 386.514117 
L 333.121792 401.643228 
L 333.817234 388.618625 
L 334.512677 387.051039 
L 335.208115 397.93652 
L 335.903557 383.832819 
L 336.599 377.026965 
L 337.294442 395.537137 
L 337.989885 388.760119 
L 338.685327 374.326313 
L 339.38077 390.802053 
L 340.076212 389.816662 
L 340.771655 368.456915 
L 341.467097 376.199993 
L 342.16254 393.682549 
L 342.857982 375.744227 
L 343.553425 372.180361 
L 344.248867 393.970129 
L 344.94431 386.306121 
L 345.639752 372.180626 
L 346.335195 390.440507 
L 347.030637 389.582112 
L 347.726075 365.420081 
L 348.421518 370.821816 
L 349.11696 392.153644 
L 349.812403 374.599191 
L 350.507845 364.499697 
L 351.203288 375.97043 
L 351.89873 375.842147 
L 352.594173 352.834069 
L 353.289615 354.975528 
L 353.985058 372.834196 
L 354.6805 370.366159 
L 355.375943 360.758315 
L 356.071385 365.92941 
L 356.766828 375.719379 
L 357.46227 367.963362 
L 358.157713 364.536502 
L 359.548593 384.759051 
L 360.244036 373.193638 
L 360.939478 369.538887 
L 361.634921 385.773096 
L 362.330363 380.547205 
L 363.025806 365.255062 
L 363.721248 374.661112 
L 364.416691 386.913553 
L 365.112133 372.483406 
L 365.807576 366.744699 
L 366.503018 382.012915 
L 367.198461 371.694148 
L 367.893903 351.877133 
L 368.589346 347.622604 
L 369.284788 365.73685 
L 369.980231 362.598396 
L 370.675673 340.316048 
L 371.371116 336.197406 
L 372.066554 361.889347 
L 372.761996 371.697304 
L 373.457439 349.60906 
L 374.152881 341.316422 
L 374.848324 359.277717 
L 375.543766 360.080681 
L 376.239209 340.208309 
L 376.934651 344.353654 
L 377.630094 347.754776 
L 378.325536 347.789217 
L 379.020979 332.034969 
L 380.411864 353.566893 
L 381.802749 326.762145 
L 383.193634 357.446032 
L 383.889076 349.461026 
L 384.584514 330.986318 
L 385.279957 335.920468 
L 385.975399 359.669163 
L 386.670842 362.2788 
L 387.366284 338.263857 
L 388.061727 338.57761 
L 388.757169 354.505786 
L 389.452612 359.464762 
L 390.148054 353.74008 
L 390.843497 341.782463 
L 391.538939 337.256724 
L 392.234382 359.640351 
L 392.929824 362.455364 
L 393.625267 341.776487 
L 394.320709 343.425945 
L 395.016152 357.143429 
L 395.711594 355.267046 
L 396.407032 346.231562 
L 397.102475 345.692435 
L 397.797917 364.263698 
L 398.49336 363.680566 
L 399.188802 339.127708 
L 399.884245 342.186934 
L 400.579687 375.548344 
L 401.27513 358.279414 
L 401.970572 324.257214 
L 403.361457 359.535578 
L 404.0569 356.00349 
L 404.752342 324.989565 
L 405.447785 330.213346 
L 406.143227 356.541795 
L 406.83867 357.189671 
L 407.534112 338.752577 
L 408.229555 346.107325 
L 408.924993 357.985318 
L 409.620435 348.238858 
L 410.315878 352.823878 
L 411.01132 354.235604 
L 411.706763 347.00548 
L 412.402205 354.568563 
L 413.097648 352.29758 
L 413.79309 341.843187 
L 414.488533 354.811635 
L 415.183975 359.787701 
L 415.879418 344.050711 
L 416.57486 343.436477 
L 417.270303 361.887965 
L 417.965745 368.37387 
L 418.661188 352.97567 
L 419.35663 330.838184 
L 420.052073 340.375237 
L 420.747516 362.764184 
L 421.442953 356.563243 
L 422.138396 320.215521 
L 423.529281 356.41986 
L 424.224723 354.386948 
L 424.920166 333.188849 
L 425.615608 339.248047 
L 426.311051 354.483278 
L 427.006493 351.737348 
L 427.701936 344.495941 
L 428.397378 351.708529 
L 429.092821 355.958051 
L 429.788263 359.215435 
L 430.483706 354.443532 
L 431.179148 351.846633 
L 431.874591 358.173699 
L 432.570033 367.797268 
L 433.265471 359.430909 
L 433.960914 352.44863 
L 434.656356 363.80656 
L 435.351799 371.810516 
L 436.047241 354.222692 
L 436.742684 342.470467 
L 438.133569 368.077861 
L 438.829011 352.363464 
L 439.524454 344.959145 
L 440.219896 346.667972 
L 440.915339 356.994756 
L 441.610781 357.870654 
L 442.306224 344.637513 
L 443.001666 350.814517 
L 443.697109 353.286926 
L 444.392551 343.849353 
L 445.087994 337.175951 
L 445.783432 351.559241 
L 446.478874 357.240425 
L 447.174317 338.24312 
L 447.869759 339.78292 
L 449.260644 366.268354 
L 449.956087 348.776707 
L 450.651529 347.418047 
L 451.346972 350.062306 
L 452.042414 361.199944 
L 452.737857 359.770392 
L 453.433299 359.102077 
L 454.128742 368.023938 
L 454.824184 369.033937 
L 455.519627 367.88637 
L 456.215069 368.05805 
L 456.910512 373.710225 
L 457.605955 360.097059 
L 458.301392 359.1634 
L 458.996835 366.768816 
L 459.692277 380.917906 
L 460.38772 362.563722 
L 461.083162 358.923357 
L 462.474047 369.485664 
L 463.16949 352.687812 
L 463.864932 360.513961 
L 464.560375 366.83959 
L 465.255817 368.512907 
L 465.95126 358.658308 
L 466.646702 369.214204 
L 467.342145 377.357571 
L 468.037587 369.98672 
L 468.73303 353.969707 
L 469.428473 366.806965 
L 470.12391 377.249679 
L 470.819353 363.350169 
L 471.514795 354.151876 
L 472.210238 370.984845 
L 472.90568 375.900091 
L 473.601123 361.105788 
L 474.296565 365.444202 
L 474.992008 379.404784 
L 475.68745 374.592094 
L 476.382893 359.742743 
L 477.078335 378.314372 
L 477.773778 383.155593 
L 478.46922 363.40709 
L 479.164663 355.211361 
L 479.860105 381.223001 
L 480.555548 381.436592 
L 481.250991 361.629892 
L 482.641871 387.603398 
L 484.032756 355.449009 
L 484.728198 381.731672 
L 485.423641 373.163253 
L 486.119083 351.698251 
L 486.814526 361.841119 
L 487.509968 396.406887 
L 488.205411 374.564702 
L 488.900853 357.21501 
L 489.596296 378.344903 
L 490.291738 390.235597 
L 490.987181 359.161745 
L 491.682623 357.949209 
L 492.378066 386.647675 
L 493.073508 378.535427 
L 493.768951 351.30531 
L 494.464394 368.284689 
L 495.159831 390.978079 
L 495.855274 369.395018 
L 496.550716 353.894016 
L 497.246159 381.834694 
L 497.941601 382.216673 
L 497.941601 382.216673 
" clip-path="url(#pc7b37c6d1b)" style="fill: none; stroke: #1f2937; stroke-width: 1.15; stroke-linecap: square"/>
   </g>
   <g id="line2d_73">
    <path d="M 290.699813 364.765284 
L 291.395255 354.661287 
L 292.090698 362.162857 
L 292.78614 368.165526 
L 293.481583 356.127261 
L 294.177025 357.253084 
L 294.872468 371.084375 
L 296.263353 361.086766 
L 296.958795 361.52101 
L 297.654238 369.31099 
L 298.349675 374.618294 
L 299.045118 374.070207 
L 299.740561 361.724875 
L 300.436003 370.509738 
L 301.131446 370.523106 
L 301.826888 372.072975 
L 302.522331 376.481217 
L 303.217773 375.972028 
L 303.913216 367.470288 
L 304.608658 370.455473 
L 305.304101 377.878156 
L 305.999543 371.518866 
L 306.694986 373.257752 
L 307.390428 383.174764 
L 308.085871 369.562945 
L 308.781313 372.596587 
L 309.476756 371.327381 
L 310.172193 371.246819 
L 310.867636 364.116109 
L 311.563079 367.249775 
L 312.258521 373.488534 
L 312.953964 375.29342 
L 313.649406 374.411745 
L 314.344849 371.366491 
L 315.040291 376.714544 
L 315.735734 384.930295 
L 316.431176 368.657061 
L 317.126619 376.030599 
L 318.517504 383.912798 
L 319.212946 385.456397 
L 319.908389 388.604926 
L 320.603831 384.660791 
L 321.299274 384.568703 
L 321.994716 395.210863 
L 322.690154 379.825035 
L 323.385597 381.22798 
L 324.081039 381.255137 
L 324.776482 387.627233 
L 325.471924 376.910147 
L 326.167367 382.088042 
L 326.862809 380.613164 
L 327.558252 382.709112 
L 328.253694 380.41297 
L 328.949137 392.443477 
L 329.644579 383.09725 
L 330.340022 380.324991 
L 331.035464 383.93798 
L 331.730907 383.700735 
L 332.426349 377.644438 
L 333.121792 379.761073 
L 333.817234 388.173523 
L 334.512677 386.873236 
L 335.208115 388.208743 
L 335.903557 399.876011 
L 336.599 392.43567 
L 337.294442 389.46825 
L 337.989885 404.699858 
L 338.685327 388.12125 
L 339.38077 382.710215 
L 340.076212 392.765821 
L 340.771655 387.202684 
L 341.467097 376.356644 
L 342.16254 390.145149 
L 342.857982 379.888448 
L 343.553425 372.094427 
L 344.248867 380.926887 
L 344.94431 381.188222 
L 345.639752 378.088558 
L 346.335195 377.008836 
L 347.030637 381.446725 
L 347.726075 377.966518 
L 348.421518 377.515579 
L 349.11696 380.152841 
L 349.812403 380.496549 
L 350.507845 369.915103 
L 351.89873 381.280459 
L 353.289615 367.81983 
L 353.985058 373.318873 
L 354.6805 369.053531 
L 355.375943 362.242483 
L 356.071385 361.937964 
L 356.766828 370.102039 
L 358.157713 353.713037 
L 358.853155 369.319651 
L 359.548593 371.194029 
L 360.244036 361.400647 
L 360.939478 361.743778 
L 361.634921 371.815705 
L 362.330363 374.454869 
L 363.025806 365.530931 
L 364.416691 379.51388 
L 365.112133 373.700655 
L 365.807576 364.051239 
L 366.503018 375.920926 
L 367.198461 373.850204 
L 367.893903 367.137511 
L 368.589346 370.827572 
L 369.284788 377.376285 
L 370.675673 351.951929 
L 371.371116 359.828683 
L 372.066554 373.603277 
L 372.761996 362.404176 
L 373.457439 349.039914 
L 374.152881 353.392825 
L 374.848324 365.205659 
L 375.543766 357.128385 
L 376.239209 353.834448 
L 376.934651 361.147263 
L 377.630094 367.096379 
L 378.325536 352.578053 
L 379.020979 342.002039 
L 379.716421 358.336935 
L 381.107306 328.018409 
L 381.802749 325.965795 
L 382.498191 339.029531 
L 383.193634 335.419378 
L 383.889076 314.122249 
L 384.584514 323.57093 
L 385.279957 329.071668 
L 385.975399 335.994589 
L 386.670842 332.127079 
L 387.366284 323.520329 
L 388.757169 346.205258 
L 389.452612 340.446965 
L 390.148054 342.464616 
L 390.843497 348.289277 
L 391.538939 350.985385 
L 392.234382 349.866465 
L 392.929824 350.368675 
L 393.625267 339.110048 
L 394.320709 346.942903 
L 395.016152 352.266499 
L 395.711594 349.041459 
L 396.407032 338.336015 
L 397.102475 357.100404 
L 397.797917 361.792782 
L 398.49336 342.316816 
L 399.188802 338.748121 
L 399.884245 348.611502 
L 400.579687 368.987429 
L 401.27513 348.906059 
L 401.970572 347.233773 
L 402.666015 367.716287 
L 403.361457 369.367811 
L 404.0569 345.775485 
L 404.752342 342.650845 
L 405.447785 358.690593 
L 406.143227 351.092933 
L 406.83867 338.195131 
L 407.534112 329.314123 
L 408.229555 340.710281 
L 408.924993 339.629534 
L 409.620435 337.073225 
L 410.315878 335.661872 
L 411.01132 348.712361 
L 411.706763 350.190727 
L 412.402205 349.332064 
L 413.097648 353.353466 
L 413.79309 348.698999 
L 414.488533 347.662732 
L 415.183975 357.496813 
L 415.879418 352.787274 
L 416.57486 347.199303 
L 417.270303 355.904449 
L 417.965745 360.30422 
L 418.661188 338.523101 
L 419.35663 348.648522 
L 420.052073 370.375948 
L 420.747516 368.927823 
L 421.442953 355.788064 
L 422.138396 356.327069 
L 422.833838 364.317573 
L 423.529281 357.4609 
L 424.224723 334.940886 
L 424.920166 331.381461 
L 425.615608 347.183331 
L 426.311051 341.640336 
L 427.006493 332.11819 
L 427.701936 343.910515 
L 428.397378 341.75471 
L 429.092821 342.530921 
L 429.788263 340.714906 
L 430.483706 343.921904 
L 431.179148 350.534012 
L 431.874591 345.427051 
L 432.570033 357.623755 
L 433.265471 359.133458 
L 433.960914 354.875208 
L 434.656356 371.684587 
L 435.351799 360.123809 
L 436.047241 358.631492 
L 436.742684 351.469893 
L 438.133569 378.231048 
L 438.829011 355.143066 
L 439.524454 354.964769 
L 440.219896 363.888442 
L 440.915339 365.074174 
L 441.610781 355.739099 
L 442.306224 353.37596 
L 443.001666 354.129775 
L 443.697109 350.566261 
L 444.392551 351.339085 
L 445.087994 361.217501 
L 445.783432 356.374969 
L 446.478874 352.487477 
L 447.174317 343.176672 
L 447.869759 339.896687 
L 448.565202 354.608468 
L 449.260644 345.067672 
L 449.956087 331.728968 
L 450.651529 348.261569 
L 451.346972 352.245797 
L 452.042414 355.010325 
L 452.737857 350.579439 
L 453.433299 356.255938 
L 454.128742 364.896686 
L 454.824184 361.100133 
L 455.519627 365.079038 
L 456.215069 362.000489 
L 456.910512 364.703373 
L 457.605955 358.550041 
L 458.301392 370.197251 
L 458.996835 364.594149 
L 459.692277 369.093176 
L 460.38772 358.527041 
L 461.083162 361.217395 
L 461.778605 365.818239 
L 462.474047 376.399467 
L 463.16949 368.702751 
L 463.864932 357.46835 
L 465.255817 369.483587 
L 465.95126 359.32766 
L 466.646702 373.029053 
L 467.342145 361.468357 
L 468.037587 360.396675 
L 468.73303 356.834724 
L 469.428473 369.707138 
L 470.12391 379.915785 
L 470.819353 365.764223 
L 471.514795 354.977886 
L 472.210238 372.882436 
L 472.90568 375.376484 
L 473.601123 361.746531 
L 474.296565 360.805916 
L 474.992008 372.576404 
L 475.68745 367.243847 
L 476.382893 359.019712 
L 477.078335 371.376785 
L 477.773778 371.436086 
L 478.46922 358.46932 
L 479.164663 361.632026 
L 479.860105 377.600762 
L 480.555548 380.77709 
L 481.250991 361.78035 
L 481.946433 365.427296 
L 482.641871 379.234462 
L 483.337313 367.995612 
L 484.032756 368.565556 
L 484.728198 378.177543 
L 485.423641 374.622123 
L 486.119083 360.481841 
L 486.814526 366.756615 
L 487.509968 380.053283 
L 488.205411 363.132764 
L 488.900853 360.360641 
L 489.596296 360.283714 
L 490.291738 375.148551 
L 490.987181 368.04665 
L 491.682623 351.362179 
L 492.378066 375.859675 
L 493.073508 370.795846 
L 493.768951 363.778362 
L 494.464394 371.68875 
L 495.159831 364.107072 
L 495.855274 341.600113 
L 496.550716 330.333446 
L 497.941601 380.251987 
L 497.941601 380.251987 
" clip-path="url(#pc7b37c6d1b)" style="fill: none; stroke-dasharray: 4.255,1.84; stroke-dashoffset: 0; stroke: #009e73; stroke-width: 1.15"/>
   </g>
   <g id="line2d_74">
    <path d="M 290.699813 409.228739 
L 290.699813 309.593368 
" clip-path="url(#pc7b37c6d1b)" style="fill: none; stroke-dasharray: 0.8,1.32; stroke-dashoffset: 0; stroke: #4b5563; stroke-width: 0.8"/>
   </g>
   <g id="patch_17">
    <path d="M 62.003631 409.228739 
L 62.003631 309.593368 
" style="fill: none; stroke: #000000; stroke-width: 0.8; stroke-linejoin: miter; stroke-linecap: square"/>
   </g>
   <g id="patch_18">
    <path d="M 62.003631 409.228739 
L 518.700552 409.228739 
" style="fill: none; stroke: #000000; stroke-width: 0.8; stroke-linejoin: miter; stroke-linecap: square"/>
   </g>
   <g id="text_73">
    <g id="patch_19">
     <path d="M 73.674538 324.003209 
L 140.571569 324.003209 
L 140.571569 313.54149 
L 73.674538 313.54149 
z
" style="fill: #ffffff; opacity: 0.85"/>
    </g>
    <text style="font-size: 7px; font-family: 'Arial', 'Helvetica', 'DejaVu Sans', sans-serif; text-anchor: start; fill: #009e73" x="75.704538" y="320.581959" transform="rotate(-0 75.704538 320.581959)">test NMSE = 0.4669</text>
   </g>
   <g id="text_74">
    <text style="font-weight: 700; font-size: 8px; font-family: 'Arial', 'Helvetica', 'DejaVu Sans', sans-serif; text-anchor: start" x="7.2" y="307.348789" transform="rotate(-0 7.2 307.348789)">d</text>
   </g>
  </g>
 </g>
 <defs>
  <clipPath id="pc9d8e66183">
   <rect x="97.889953" y="19.212562" width="108.474375" height="110.705967"/>
  </clipPath>
  <clipPath id="p1293f0d5b8">
   <rect x="293.391778" y="19.212562" width="225.308774" height="110.705967"/>
  </clipPath>
  <clipPath id="pe2607123d4">
   <rect x="62.003631" y="172.004728" width="456.696922" height="99.635371"/>
  </clipPath>
  <clipPath id="pc7b37c6d1b">
   <rect x="62.003631" y="309.593368" width="456.696922" height="99.635371"/>
  </clipPath>
 </defs>
</svg>
