<?xml version="1.0" encoding="utf-8" standalone="no"?>
<!DOCTYPE svg PUBLIC "-//W3C//DTD SVG 1.1//EN"
  "http://www.w3.org/Graphics/SVG/1.1/DTD/svg11.dtd">
<svg xmlns:xlink="http://www.w3.org/1999/xlink" width="621.70625pt" height="281.634375pt" viewBox="0 0 621.70625 281.634375" xmlns="http://www.w3.org/2000/svg" version="1.1">
 <metadata>
  <rdf:RDF xmlns:dc="http://purl.org/dc/elements/1.1/" xmlns:cc="http://creativecommons.org/ns#" xmlns:rdf="http://www.w3.org/1999/02/22-rdf-syntax-ns#">
   <cc:Work>
    <dc:type rdf:resource="http://purl.org/dc/dcmitype/StillImage"/>
    <dc:date>2026-03-19T17:23:03.912321</dc:date>
    <dc:format>image/svg+xml</dc:format>
    <dc:creator>
     <cc:Agent>
      <dc:title>Matplotlib v3.10.8, https://matplotlib.org/</dc:title>
     </cc:Agent>
    </dc:creator>
   </cc:Work>
  </rdf:RDF>
 </metadata>
 <defs>
  <style type="text/css">*{stroke-linejoin: round; stroke-linecap: butt}</style>
 </defs>
 <g id="figure_1">
  <g id="patch_1">
   <path d="M 0 281.634375 
L 621.70625 281.634375 
L 621.70625 0 
L 0 0 
z
" style="fill: #ffffff"/>
  </g>
  <g id="axes_1">
   <g id="patch_2">
    <path d="M 56.50625 244.078125 
L 614.50625 244.078125 
L 614.50625 22.318125 
L 56.50625 22.318125 
z
" style="fill: #ffffff"/>
   </g>
   <g id="matplotlib.axis_1">
    <g id="xtick_1">
     <g id="line2d_1">
      <path d="M 81.869886 244.078125 
L 81.869886 22.318125 
" clip-path="url(#pe090d0eed6)" style="fill: none; stroke: #b0b0b0; stroke-opacity: 0.3; stroke-width: 0.8; stroke-linecap: square"/>
     </g>
     <g id="line2d_2">
      <defs>
       <path id="m45a74efd72" d="M 0 0 
L 0 3.5 
" style="stroke: #000000; stroke-width: 0.8"/>
      </defs>
      <g>
       <use xlink:href="#m45a74efd72" x="81.869886" y="244.078125" style="stroke: #000000; stroke-width: 0.8"/>
      </g>
     </g>
     <g id="text_1">
      <!-- 0 -->
      <g transform="translate(78.688636 258.676562) scale(0.1 -0.1)">
       <defs>
        <path id="DejaVuSans-30" d="M 2034 4250 
Q 1547 4250 1301 3770 
Q 1056 3291 1056 2328 
Q 1056 1369 1301 889 
Q 1547 409 2034 409 
Q 2525 409 2770 889 
Q 3016 1369 3016 2328 
Q 3016 3291 2770 3770 
Q 2525 4250 2034 4250 
z
M 2034 4750 
Q 2819 4750 3233 4129 
Q 3647 3509 3647 2328 
Q 3647 1150 3233 529 
Q 2819 -91 2034 -91 
Q 1250 -91 836 529 
Q 422 1150 422 2328 
Q 422 3509 836 4129 
Q 1250 4750 2034 4750 
z
" transform="scale(0.015625)"/>
       </defs>
       <use xlink:href="#DejaVuSans-30"/>
      </g>
     </g>
    </g>
    <g id="xtick_2">
     <g id="line2d_3">
      <path d="M 166.98276 244.078125 
L 166.98276 22.318125 
" clip-path="url(#pe090d0eed6)" style="fill: none; stroke: #b0b0b0; stroke-opacity: 0.3; stroke-width: 0.8; stroke-linecap: square"/>
     </g>
     <g id="line2d_4">
      <g>
       <use xlink:href="#m45a74efd72" x="166.98276" y="244.078125" style="stroke: #000000; stroke-width: 0.8"/>
      </g>
     </g>
     <g id="text_2">
      <!-- 50 -->
      <g transform="translate(160.62026 258.676562) scale(0.1 -0.1)">
       <defs>
        <path id="DejaVuSans-35" d="M 691 4666 
L 3169 4666 
L 3169 4134 
L 1269 4134 
L 1269 2991 
Q 1406 3038 1543 3061 
Q 1681 3084 1819 3084 
Q 2600 3084 3056 2656 
Q 3513 2228 3513 1497 
Q 3513 744 3044 326 
Q 2575 -91 1722 -91 
Q 1428 -91 1123 -41 
Q 819 9 494 109 
L 494 744 
Q 775 591 1075 516 
Q 1375 441 1709 441 
Q 2250 441 2565 725 
Q 2881 1009 2881 1497 
Q 2881 1984 2565 2268 
Q 2250 2553 1709 2553 
Q 1456 2553 1204 2497 
Q 953 2441 691 2322 
L 691 4666 
z
" transform="scale(0.015625)"/>
       </defs>
       <use xlink:href="#DejaVuSans-35"/>
       <use xlink:href="#DejaVuSans-30" transform="translate(63.623047 0)"/>
      </g>
     </g>
    </g>
    <g id="xtick_3">
     <g id="line2d_5">
      <path d="M 252.095634 244.078125 
L 252.095634 22.318125 
" clip-path="url(#pe090d0eed6)" style="fill: none; stroke: #b0b0b0; stroke-opacity: 0.3; stroke-width: 0.8; stroke-linecap: square"/>
     </g>
     <g id="line2d_6">
      <g>
       <use xlink:href="#m45a74efd72" x="252.095634" y="244.078125" style="stroke: #000000; stroke-width: 0.8"/>
      </g>
     </g>
     <g id="text_3">
      <!-- 100 -->
      <g transform="translate(242.551884 258.676562) scale(0.1 -0.1)">
       <defs>
        <path id="DejaVuSans-31" d="M 794 531 
L 1825 531 
L 1825 4091 
L 703 3866 
L 703 4441 
L 1819 4666 
L 2450 4666 
L 2450 531 
L 3481 531 
L 3481 0 
L 794 0 
L 794 531 
z
" transform="scale(0.015625)"/>
       </defs>
       <use xlink:href="#DejaVuSans-31"/>
       <use xlink:href="#DejaVuSans-30" transform="translate(63.623047 0)"/>
       <use xlink:href="#DejaVuSans-30" transform="translate(127.246094 0)"/>
      </g>
     </g>
    </g>
    <g id="xtick_4">
     <g id="line2d_7">
      <path d="M 337.208507 244.078125 
L 337.208507 22.318125 
" clip-path="url(#pe090d0eed6)" style="fill: none; stroke: #b0b0b0; stroke-opacity: 0.3; stroke-width: 0.8; stroke-linecap: square"/>
     </g>
     <g id="line2d_8">
      <g>
       <use xlink:href="#m45a74efd72" x="337.208507" y="244.078125" style="stroke: #000000; stroke-width: 0.8"/>
      </g>
     </g>
     <g id="text_4">
      <!-- 150 -->
      <g transform="translate(327.664757 258.676562) scale(0.1 -0.1)">
       <use xlink:href="#DejaVuSans-31"/>
       <use xlink:href="#DejaVuSans-35" transform="translate(63.623047 0)"/>
       <use xlink:href="#DejaVuSans-30" transform="translate(127.246094 0)"/>
      </g>
     </g>
    </g>
    <g id="xtick_5">
     <g id="line2d_9">
      <path d="M 422.321381 244.078125 
L 422.321381 22.318125 
" clip-path="url(#pe090d0eed6)" style="fill: none; stroke: #b0b0b0; stroke-opacity: 0.3; stroke-width: 0.8; stroke-linecap: square"/>
     </g>
     <g id="line2d_10">
      <g>
       <use xlink:href="#m45a74efd72" x="422.321381" y="244.078125" style="stroke: #000000; stroke-width: 0.8"/>
      </g>
     </g>
     <g id="text_5">
      <!-- 200 -->
      <g transform="translate(412.777631 258.676562) scale(0.1 -0.1)">
       <defs>
        <path id="DejaVuSans-32" d="M 1228 531 
L 3431 531 
L 3431 0 
L 469 0 
L 469 531 
Q 828 903 1448 1529 
Q 2069 2156 2228 2338 
Q 2531 2678 2651 2914 
Q 2772 3150 2772 3378 
Q 2772 3750 2511 3984 
Q 2250 4219 1831 4219 
Q 1534 4219 1204 4116 
Q 875 4013 500 3803 
L 500 4441 
Q 881 4594 1212 4672 
Q 1544 4750 1819 4750 
Q 2544 4750 2975 4387 
Q 3406 4025 3406 3419 
Q 3406 3131 3298 2873 
Q 3191 2616 2906 2266 
Q 2828 2175 2409 1742 
Q 1991 1309 1228 531 
z
" transform="scale(0.015625)"/>
       </defs>
       <use xlink:href="#DejaVuSans-32"/>
       <use xlink:href="#DejaVuSans-30" transform="translate(63.623047 0)"/>
       <use xlink:href="#DejaVuSans-30" transform="translate(127.246094 0)"/>
      </g>
     </g>
    </g>
    <g id="xtick_6">
     <g id="line2d_11">
      <path d="M 507.434255 244.078125 
L 507.434255 22.318125 
" clip-path="url(#pe090d0eed6)" style="fill: none; stroke: #b0b0b0; stroke-opacity: 0.3; stroke-width: 0.8; stroke-linecap: square"/>
     </g>
     <g id="line2d_12">
      <g>
       <use xlink:href="#m45a74efd72" x="507.434255" y="244.078125" style="stroke: #000000; stroke-width: 0.8"/>
      </g>
     </g>
     <g id="text_6">
      <!-- 250 -->
      <g transform="translate(497.890505 258.676562) scale(0.1 -0.1)">
       <use xlink:href="#DejaVuSans-32"/>
       <use xlink:href="#DejaVuSans-35" transform="translate(63.623047 0)"/>
       <use xlink:href="#DejaVuSans-30" transform="translate(127.246094 0)"/>
      </g>
     </g>
    </g>
    <g id="xtick_7">
     <g id="line2d_13">
      <path d="M 592.547129 244.078125 
L 592.547129 22.318125 
" clip-path="url(#pe090d0eed6)" style="fill: none; stroke: #b0b0b0; stroke-opacity: 0.3; stroke-width: 0.8; stroke-linecap: square"/>
     </g>
     <g id="line2d_14">
      <g>
       <use xlink:href="#m45a74efd72" x="592.547129" y="244.078125" style="stroke: #000000; stroke-width: 0.8"/>
      </g>
     </g>
     <g id="text_7">
      <!-- 300 -->
      <g transform="translate(583.003379 258.676562) scale(0.1 -0.1)">
       <defs>
        <path id="DejaVuSans-33" d="M 2597 2516 
Q 3050 2419 3304 2112 
Q 3559 1806 3559 1356 
Q 3559 666 3084 287 
Q 2609 -91 1734 -91 
Q 1441 -91 1130 -33 
Q 819 25 488 141 
L 488 750 
Q 750 597 1062 519 
Q 1375 441 1716 441 
Q 2309 441 2620 675 
Q 2931 909 2931 1356 
Q 2931 1769 2642 2001 
Q 2353 2234 1838 2234 
L 1294 2234 
L 1294 2753 
L 1863 2753 
Q 2328 2753 2575 2939 
Q 2822 3125 2822 3475 
Q 2822 3834 2567 4026 
Q 2313 4219 1838 4219 
Q 1578 4219 1281 4162 
Q 984 4106 628 3988 
L 628 4550 
Q 988 4650 1302 4700 
Q 1616 4750 1894 4750 
Q 2613 4750 3031 4423 
Q 3450 4097 3450 3541 
Q 3450 3153 3228 2886 
Q 3006 2619 2597 2516 
z
" transform="scale(0.015625)"/>
       </defs>
       <use xlink:href="#DejaVuSans-33"/>
       <use xlink:href="#DejaVuSans-30" transform="translate(63.623047 0)"/>
       <use xlink:href="#DejaVuSans-30" transform="translate(127.246094 0)"/>
      </g>
     </g>
    </g>
    <g id="text_8">
     <!-- Time Steps -->
     <g transform="translate(307.69375 272.354687) scale(0.1 -0.1)">
      <defs>
       <path id="DejaVuSans-54" d="M -19 4666 
L 3928 4666 
L 3928 4134 
L 2272 4134 
L 2272 0 
L 1638 0 
L 1638 4134 
L -19 4134 
L -19 4666 
z
" transform="scale(0.015625)"/>
       <path id="DejaVuSans-69" d="M 603 3500 
L 1178 3500 
L 1178 0 
L 603 0 
L 603 3500 
z
M 603 4863 
L 1178 4863 
L 1178 4134 
L 603 4134 
L 603 4863 
z
" transform="scale(0.015625)"/>
       <path id="DejaVuSans-6d" d="M 3328 2828 
Q 3544 3216 3844 3400 
Q 4144 3584 4550 3584 
Q 5097 3584 5394 3201 
Q 5691 2819 5691 2113 
L 5691 0 
L 5113 0 
L 5113 2094 
Q 5113 2597 4934 2840 
Q 4756 3084 4391 3084 
Q 3944 3084 3684 2787 
Q 3425 2491 3425 1978 
L 3425 0 
L 2847 0 
L 2847 2094 
Q 2847 2600 2669 2842 
Q 2491 3084 2119 3084 
Q 1678 3084 1418 2786 
Q 1159 2488 1159 1978 
L 1159 0 
L 581 0 
L 581 3500 
L 1159 3500 
L 1159 2956 
Q 1356 3278 1631 3431 
Q 1906 3584 2284 3584 
Q 2666 3584 2933 3390 
Q 3200 3197 3328 2828 
z
" transform="scale(0.015625)"/>
       <path id="DejaVuSans-65" d="M 3597 1894 
L 3597 1613 
L 953 1613 
Q 991 1019 1311 708 
Q 1631 397 2203 397 
Q 2534 397 2845 478 
Q 3156 559 3463 722 
L 3463 178 
Q 3153 47 2828 -22 
Q 2503 -91 2169 -91 
Q 1331 -91 842 396 
Q 353 884 353 1716 
Q 353 2575 817 3079 
Q 1281 3584 2069 3584 
Q 2775 3584 3186 3129 
Q 3597 2675 3597 1894 
z
M 3022 2063 
Q 3016 2534 2758 2815 
Q 2500 3097 2075 3097 
Q 1594 3097 1305 2825 
Q 1016 2553 972 2059 
L 3022 2063 
z
" transform="scale(0.015625)"/>
       <path id="DejaVuSans-20" transform="scale(0.015625)"/>
       <path id="DejaVuSans-53" d="M 3425 4513 
L 3425 3897 
Q 3066 4069 2747 4153 
Q 2428 4238 2131 4238 
Q 1616 4238 1336 4038 
Q 1056 3838 1056 3469 
Q 1056 3159 1242 3001 
Q 1428 2844 1947 2747 
L 2328 2669 
Q 3034 2534 3370 2195 
Q 3706 1856 3706 1288 
Q 3706 609 3251 259 
Q 2797 -91 1919 -91 
Q 1588 -91 1214 -16 
Q 841 59 441 206 
L 441 856 
Q 825 641 1194 531 
Q 1563 422 1919 422 
Q 2459 422 2753 634 
Q 3047 847 3047 1241 
Q 3047 1584 2836 1778 
Q 2625 1972 2144 2069 
L 1759 2144 
Q 1053 2284 737 2584 
Q 422 2884 422 3419 
Q 422 4038 858 4394 
Q 1294 4750 2059 4750 
Q 2388 4750 2728 4690 
Q 3069 4631 3425 4513 
z
" transform="scale(0.015625)"/>
       <path id="DejaVuSans-74" d="M 1172 4494 
L 1172 3500 
L 2356 3500 
L 2356 3053 
L 1172 3053 
L 1172 1153 
Q 1172 725 1289 603 
Q 1406 481 1766 481 
L 2356 481 
L 2356 0 
L 1766 0 
Q 1100 0 847 248 
Q 594 497 594 1153 
L 594 3053 
L 172 3053 
L 172 3500 
L 594 3500 
L 594 4494 
L 1172 4494 
z
" transform="scale(0.015625)"/>
       <path id="DejaVuSans-70" d="M 1159 525 
L 1159 -1331 
L 581 -1331 
L 581 3500 
L 1159 3500 
L 1159 2969 
Q 1341 3281 1617 3432 
Q 1894 3584 2278 3584 
Q 2916 3584 3314 3078 
Q 3713 2572 3713 1747 
Q 3713 922 3314 415 
Q 2916 -91 2278 -91 
Q 1894 -91 1617 61 
Q 1341 213 1159 525 
z
M 3116 1747 
Q 3116 2381 2855 2742 
Q 2594 3103 2138 3103 
Q 1681 3103 1420 2742 
Q 1159 2381 1159 1747 
Q 1159 1113 1420 752 
Q 1681 391 2138 391 
Q 2594 391 2855 752 
Q 3116 1113 3116 1747 
z
" transform="scale(0.015625)"/>
       <path id="DejaVuSans-73" d="M 2834 3397 
L 2834 2853 
Q 2591 2978 2328 3040 
Q 2066 3103 1784 3103 
Q 1356 3103 1142 2972 
Q 928 2841 928 2578 
Q 928 2378 1081 2264 
Q 1234 2150 1697 2047 
L 1894 2003 
Q 2506 1872 2764 1633 
Q 3022 1394 3022 966 
Q 3022 478 2636 193 
Q 2250 -91 1575 -91 
Q 1294 -91 989 -36 
Q 684 19 347 128 
L 347 722 
Q 666 556 975 473 
Q 1284 391 1588 391 
Q 1994 391 2212 530 
Q 2431 669 2431 922 
Q 2431 1156 2273 1281 
Q 2116 1406 1581 1522 
L 1381 1569 
Q 847 1681 609 1914 
Q 372 2147 372 2553 
Q 372 3047 722 3315 
Q 1072 3584 1716 3584 
Q 2034 3584 2315 3537 
Q 2597 3491 2834 3397 
z
" transform="scale(0.015625)"/>
      </defs>
      <use xlink:href="#DejaVuSans-54"/>
      <use xlink:href="#DejaVuSans-69" transform="translate(57.958984 0)"/>
      <use xlink:href="#DejaVuSans-6d" transform="translate(85.742188 0)"/>
      <use xlink:href="#DejaVuSans-65" transform="translate(183.154297 0)"/>
      <use xlink:href="#DejaVuSans-20" transform="translate(244.677734 0)"/>
      <use xlink:href="#DejaVuSans-53" transform="translate(276.464844 0)"/>
      <use xlink:href="#DejaVuSans-74" transform="translate(339.941406 0)"/>
      <use xlink:href="#DejaVuSans-65" transform="translate(379.150391 0)"/>
      <use xlink:href="#DejaVuSans-70" transform="translate(440.673828 0)"/>
      <use xlink:href="#DejaVuSans-73" transform="translate(504.150391 0)"/>
     </g>
    </g>
   </g>
   <g id="matplotlib.axis_2">
    <g id="ytick_1">
     <g id="line2d_15">
      <path d="M 56.50625 235.399988 
L 614.50625 235.399988 
" clip-path="url(#pe090d0eed6)" style="fill: none; stroke: #b0b0b0; stroke-opacity: 0.3; stroke-width: 0.8; stroke-linecap: square"/>
     </g>
     <g id="line2d_16">
      <defs>
       <path id="mc04cdbd119" d="M 0 0 
L -3.5 0 
" style="stroke: #000000; stroke-width: 0.8"/>
      </defs>
      <g>
       <use xlink:href="#mc04cdbd119" x="56.50625" y="235.399988" style="stroke: #000000; stroke-width: 0.8"/>
      </g>
     </g>
     <g id="text_9">
      <!-- 0.175 -->
      <g transform="translate(20.878125 239.199207) scale(0.1 -0.1)">
       <defs>
        <path id="DejaVuSans-2e" d="M 684 794 
L 1344 794 
L 1344 0 
L 684 0 
L 684 794 
z
" transform="scale(0.015625)"/>
        <path id="DejaVuSans-37" d="M 525 4666 
L 3525 4666 
L 3525 4397 
L 1831 0 
L 1172 0 
L 2766 4134 
L 525 4134 
L 525 4666 
z
" transform="scale(0.015625)"/>
       </defs>
       <use xlink:href="#DejaVuSans-30"/>
       <use xlink:href="#DejaVuSans-2e" transform="translate(63.623047 0)"/>
       <use xlink:href="#DejaVuSans-31" transform="translate(95.410156 0)"/>
       <use xlink:href="#DejaVuSans-37" transform="translate(159.033203 0)"/>
       <use xlink:href="#DejaVuSans-35" transform="translate(222.65625 0)"/>
      </g>
     </g>
    </g>
    <g id="ytick_2">
     <g id="line2d_17">
      <path d="M 56.50625 206.205535 
L 614.50625 206.205535 
" clip-path="url(#pe090d0eed6)" style="fill: none; stroke: #b0b0b0; stroke-opacity: 0.3; stroke-width: 0.8; stroke-linecap: square"/>
     </g>
     <g id="line2d_18">
      <g>
       <use xlink:href="#mc04cdbd119" x="56.50625" y="206.205535" style="stroke: #000000; stroke-width: 0.8"/>
      </g>
     </g>
     <g id="text_10">
      <!-- 0.200 -->
      <g transform="translate(20.878125 210.004754) scale(0.1 -0.1)">
       <use xlink:href="#DejaVuSans-30"/>
       <use xlink:href="#DejaVuSans-2e" transform="translate(63.623047 0)"/>
       <use xlink:href="#DejaVuSans-32" transform="translate(95.410156 0)"/>
       <use xlink:href="#DejaVuSans-30" transform="translate(159.033203 0)"/>
       <use xlink:href="#DejaVuSans-30" transform="translate(222.65625 0)"/>
      </g>
     </g>
    </g>
    <g id="ytick_3">
     <g id="line2d_19">
      <path d="M 56.50625 177.011082 
L 614.50625 177.011082 
" clip-path="url(#pe090d0eed6)" style="fill: none; stroke: #b0b0b0; stroke-opacity: 0.3; stroke-width: 0.8; stroke-linecap: square"/>
     </g>
     <g id="line2d_20">
      <g>
       <use xlink:href="#mc04cdbd119" x="56.50625" y="177.011082" style="stroke: #000000; stroke-width: 0.8"/>
      </g>
     </g>
     <g id="text_11">
      <!-- 0.225 -->
      <g transform="translate(20.878125 180.810301) scale(0.1 -0.1)">
       <use xlink:href="#DejaVuSans-30"/>
       <use xlink:href="#DejaVuSans-2e" transform="translate(63.623047 0)"/>
       <use xlink:href="#DejaVuSans-32" transform="translate(95.410156 0)"/>
       <use xlink:href="#DejaVuSans-32" transform="translate(159.033203 0)"/>
       <use xlink:href="#DejaVuSans-35" transform="translate(222.65625 0)"/>
      </g>
     </g>
    </g>
    <g id="ytick_4">
     <g id="line2d_21">
      <path d="M 56.50625 147.816629 
L 614.50625 147.816629 
" clip-path="url(#pe090d0eed6)" style="fill: none; stroke: #b0b0b0; stroke-opacity: 0.3; stroke-width: 0.8; stroke-linecap: square"/>
     </g>
     <g id="line2d_22">
      <g>
       <use xlink:href="#mc04cdbd119" x="56.50625" y="147.816629" style="stroke: #000000; stroke-width: 0.8"/>
      </g>
     </g>
     <g id="text_12">
      <!-- 0.250 -->
      <g transform="translate(20.878125 151.615848) scale(0.1 -0.1)">
       <use xlink:href="#DejaVuSans-30"/>
       <use xlink:href="#DejaVuSans-2e" transform="translate(63.623047 0)"/>
       <use xlink:href="#DejaVuSans-32" transform="translate(95.410156 0)"/>
       <use xlink:href="#DejaVuSans-35" transform="translate(159.033203 0)"/>
       <use xlink:href="#DejaVuSans-30" transform="translate(222.65625 0)"/>
      </g>
     </g>
    </g>
    <g id="ytick_5">
     <g id="line2d_23">
      <path d="M 56.50625 118.622176 
L 614.50625 118.622176 
" clip-path="url(#pe090d0eed6)" style="fill: none; stroke: #b0b0b0; stroke-opacity: 0.3; stroke-width: 0.8; stroke-linecap: square"/>
     </g>
     <g id="line2d_24">
      <g>
       <use xlink:href="#mc04cdbd119" x="56.50625" y="118.622176" style="stroke: #000000; stroke-width: 0.8"/>
      </g>
     </g>
     <g id="text_13">
      <!-- 0.275 -->
      <g transform="translate(20.878125 122.421394) scale(0.1 -0.1)">
       <use xlink:href="#DejaVuSans-30"/>
       <use xlink:href="#DejaVuSans-2e" transform="translate(63.623047 0)"/>
       <use xlink:href="#DejaVuSans-32" transform="translate(95.410156 0)"/>
       <use xlink:href="#DejaVuSans-37" transform="translate(159.033203 0)"/>
       <use xlink:href="#DejaVuSans-35" transform="translate(222.65625 0)"/>
      </g>
     </g>
    </g>
    <g id="ytick_6">
     <g id="line2d_25">
      <path d="M 56.50625 89.427722 
L 614.50625 89.427722 
" clip-path="url(#pe090d0eed6)" style="fill: none; stroke: #b0b0b0; stroke-opacity: 0.3; stroke-width: 0.8; stroke-linecap: square"/>
     </g>
     <g id="line2d_26">
      <g>
       <use xlink:href="#mc04cdbd119" x="56.50625" y="89.427722" style="stroke: #000000; stroke-width: 0.8"/>
      </g>
     </g>
     <g id="text_14">
      <!-- 0.300 -->
      <g transform="translate(20.878125 93.226941) scale(0.1 -0.1)">
       <use xlink:href="#DejaVuSans-30"/>
       <use xlink:href="#DejaVuSans-2e" transform="translate(63.623047 0)"/>
       <use xlink:href="#DejaVuSans-33" transform="translate(95.410156 0)"/>
       <use xlink:href="#DejaVuSans-30" transform="translate(159.033203 0)"/>
       <use xlink:href="#DejaVuSans-30" transform="translate(222.65625 0)"/>
      </g>
     </g>
    </g>
    <g id="ytick_7">
     <g id="line2d_27">
      <path d="M 56.50625 60.233269 
L 614.50625 60.233269 
" clip-path="url(#pe090d0eed6)" style="fill: none; stroke: #b0b0b0; stroke-opacity: 0.3; stroke-width: 0.8; stroke-linecap: square"/>
     </g>
     <g id="line2d_28">
      <g>
       <use xlink:href="#mc04cdbd119" x="56.50625" y="60.233269" style="stroke: #000000; stroke-width: 0.8"/>
      </g>
     </g>
     <g id="text_15">
      <!-- 0.325 -->
      <g transform="translate(20.878125 64.032488) scale(0.1 -0.1)">
       <use xlink:href="#DejaVuSans-30"/>
       <use xlink:href="#DejaVuSans-2e" transform="translate(63.623047 0)"/>
       <use xlink:href="#DejaVuSans-33" transform="translate(95.410156 0)"/>
       <use xlink:href="#DejaVuSans-32" transform="translate(159.033203 0)"/>
       <use xlink:href="#DejaVuSans-35" transform="translate(222.65625 0)"/>
      </g>
     </g>
    </g>
    <g id="ytick_8">
     <g id="line2d_29">
      <path d="M 56.50625 31.038816 
L 614.50625 31.038816 
" clip-path="url(#pe090d0eed6)" style="fill: none; stroke: #b0b0b0; stroke-opacity: 0.3; stroke-width: 0.8; stroke-linecap: square"/>
     </g>
     <g id="line2d_30">
      <g>
       <use xlink:href="#mc04cdbd119" x="56.50625" y="31.038816" style="stroke: #000000; stroke-width: 0.8"/>
      </g>
     </g>
     <g id="text_16">
      <!-- 0.350 -->
      <g transform="translate(20.878125 34.838035) scale(0.1 -0.1)">
       <use xlink:href="#DejaVuSans-30"/>
       <use xlink:href="#DejaVuSans-2e" transform="translate(63.623047 0)"/>
       <use xlink:href="#DejaVuSans-33" transform="translate(95.410156 0)"/>
       <use xlink:href="#DejaVuSans-35" transform="translate(159.033203 0)"/>
       <use xlink:href="#DejaVuSans-30" transform="translate(222.65625 0)"/>
      </g>
     </g>
    </g>
    <g id="text_17">
     <!-- Signal Value -->
     <g transform="translate(14.798437 163.877812) rotate(-90) scale(0.1 -0.1)">
      <defs>
       <path id="DejaVuSans-67" d="M 2906 1791 
Q 2906 2416 2648 2759 
Q 2391 3103 1925 3103 
Q 1463 3103 1205 2759 
Q 947 2416 947 1791 
Q 947 1169 1205 825 
Q 1463 481 1925 481 
Q 2391 481 2648 825 
Q 2906 1169 2906 1791 
z
M 3481 434 
Q 3481 -459 3084 -895 
Q 2688 -1331 1869 -1331 
Q 1566 -1331 1297 -1286 
Q 1028 -1241 775 -1147 
L 775 -588 
Q 1028 -725 1275 -790 
Q 1522 -856 1778 -856 
Q 2344 -856 2625 -561 
Q 2906 -266 2906 331 
L 2906 616 
Q 2728 306 2450 153 
Q 2172 0 1784 0 
Q 1141 0 747 490 
Q 353 981 353 1791 
Q 353 2603 747 3093 
Q 1141 3584 1784 3584 
Q 2172 3584 2450 3431 
Q 2728 3278 2906 2969 
L 2906 3500 
L 3481 3500 
L 3481 434 
z
" transform="scale(0.015625)"/>
       <path id="DejaVuSans-6e" d="M 3513 2113 
L 3513 0 
L 2938 0 
L 2938 2094 
Q 2938 2591 2744 2837 
Q 2550 3084 2163 3084 
Q 1697 3084 1428 2787 
Q 1159 2491 1159 1978 
L 1159 0 
L 581 0 
L 581 3500 
L 1159 3500 
L 1159 2956 
Q 1366 3272 1645 3428 
Q 1925 3584 2291 3584 
Q 2894 3584 3203 3211 
Q 3513 2838 3513 2113 
z
" transform="scale(0.015625)"/>
       <path id="DejaVuSans-61" d="M 2194 1759 
Q 1497 1759 1228 1600 
Q 959 1441 959 1056 
Q 959 750 1161 570 
Q 1363 391 1709 391 
Q 2188 391 2477 730 
Q 2766 1069 2766 1631 
L 2766 1759 
L 2194 1759 
z
M 3341 1997 
L 3341 0 
L 2766 0 
L 2766 531 
Q 2569 213 2275 61 
Q 1981 -91 1556 -91 
Q 1019 -91 701 211 
Q 384 513 384 1019 
Q 384 1609 779 1909 
Q 1175 2209 1959 2209 
L 2766 2209 
L 2766 2266 
Q 2766 2663 2505 2880 
Q 2244 3097 1772 3097 
Q 1472 3097 1187 3025 
Q 903 2953 641 2809 
L 641 3341 
Q 956 3463 1253 3523 
Q 1550 3584 1831 3584 
Q 2591 3584 2966 3190 
Q 3341 2797 3341 1997 
z
" transform="scale(0.015625)"/>
       <path id="DejaVuSans-6c" d="M 603 4863 
L 1178 4863 
L 1178 0 
L 603 0 
L 603 4863 
z
" transform="scale(0.015625)"/>
       <path id="DejaVuSans-56" d="M 1831 0 
L 50 4666 
L 709 4666 
L 2188 738 
L 3669 4666 
L 4325 4666 
L 2547 0 
L 1831 0 
z
" transform="scale(0.015625)"/>
       <path id="DejaVuSans-75" d="M 544 1381 
L 544 3500 
L 1119 3500 
L 1119 1403 
Q 1119 906 1312 657 
Q 1506 409 1894 409 
Q 2359 409 2629 706 
Q 2900 1003 2900 1516 
L 2900 3500 
L 3475 3500 
L 3475 0 
L 2900 0 
L 2900 538 
Q 2691 219 2414 64 
Q 2138 -91 1772 -91 
Q 1169 -91 856 284 
Q 544 659 544 1381 
z
M 1991 3584 
L 1991 3584 
z
" transform="scale(0.015625)"/>
      </defs>
      <use xlink:href="#DejaVuSans-53"/>
      <use xlink:href="#DejaVuSans-69" transform="translate(63.476562 0)"/>
      <use xlink:href="#DejaVuSans-67" transform="translate(91.259766 0)"/>
      <use xlink:href="#DejaVuSans-6e" transform="translate(154.736328 0)"/>
      <use xlink:href="#DejaVuSans-61" transform="translate(218.115234 0)"/>
      <use xlink:href="#DejaVuSans-6c" transform="translate(279.394531 0)"/>
      <use xlink:href="#DejaVuSans-20" transform="translate(307.177734 0)"/>
      <use xlink:href="#DejaVuSans-56" transform="translate(338.964844 0)"/>
      <use xlink:href="#DejaVuSans-61" transform="translate(399.623047 0)"/>
      <use xlink:href="#DejaVuSans-6c" transform="translate(460.902344 0)"/>
      <use xlink:href="#DejaVuSans-75" transform="translate(488.685547 0)"/>
      <use xlink:href="#DejaVuSans-65" transform="translate(552.064453 0)"/>
     </g>
    </g>
   </g>
   <g id="line2d_31">
    <path d="M 81.869886 113.373502 
L 83.572144 94.924985 
L 85.274401 110.492897 
L 86.976659 157.617887 
L 88.678916 193.131979 
L 90.381174 208.034939 
L 92.083431 197.006372 
L 93.785689 158.739723 
L 95.487946 137.638315 
L 97.190204 115.003754 
L 98.892461 75.420428 
L 100.594719 51.034092 
L 102.296976 52.270695 
L 103.999234 95.197083 
L 105.701491 151.267608 
L 107.403748 184.841537 
L 109.106006 201.241921 
L 110.808263 201.488437 
L 112.510521 188.557772 
L 114.212778 171.869532 
L 115.915036 128.098923 
L 117.617293 70.563532 
L 119.319551 78.03112 
L 121.021808 135.10633 
L 122.724066 179.650782 
L 124.426323 203.921982 
L 126.128581 207.572941 
L 127.830838 197.997599 
L 129.533096 189.306248 
L 131.235353 156.123595 
L 132.937611 94.518223 
L 134.639868 46.763218 
L 136.342126 32.398125 
L 138.044383 69.49668 
L 139.74664 118.256738 
L 141.448898 149.163045 
L 143.151155 172.315701 
L 144.853413 193.205254 
L 146.55567 201.179983 
L 148.257928 193.305738 
L 149.960185 147.815173 
L 151.662443 85.179502 
L 153.3647 80.608219 
L 156.769215 138.42356 
L 158.471473 163.803853 
L 160.17373 186.713467 
L 161.875988 198.966509 
L 163.578245 202.115976 
L 165.280503 179.137425 
L 166.98276 134.153316 
L 168.685018 99.266044 
L 170.387275 80.630588 
L 172.089532 88.678613 
L 173.79179 100.444021 
L 175.494047 100.469421 
L 177.196305 124.869056 
L 178.898562 165.791343 
L 180.60082 187.854585 
L 182.303077 190.748644 
L 184.005335 166.860403 
L 185.707592 133.37325 
L 187.40985 124.663128 
L 189.112107 116.720361 
L 190.814365 94.210132 
L 192.516622 96.822077 
L 194.21888 132.64484 
L 195.921137 163.620416 
L 197.623395 181.314921 
L 199.325652 172.661496 
L 201.02791 156.105306 
L 202.730167 153.571801 
L 204.432424 154.328959 
L 206.134682 149.108571 
L 207.836939 114.808988 
L 209.539197 76.914577 
L 211.241454 92.841545 
L 212.943712 133.962421 
L 214.645969 158.644011 
L 216.348227 170.463525 
L 218.050484 174.47617 
L 219.752742 177.694348 
L 221.454999 178.638845 
L 223.157257 147.946435 
L 224.859514 90.734255 
L 226.561772 67.384883 
L 228.264029 78.743792 
L 231.668544 126.105628 
L 233.370802 133.396689 
L 235.073059 147.887528 
L 236.775317 180.21265 
L 238.477574 201.701692 
L 240.179831 199.850398 
L 241.882089 152.0704 
L 243.584346 98.14634 
L 245.286604 92.659806 
L 246.988861 109.505999 
L 248.691119 119.781361 
L 250.393376 141.259033 
L 252.095634 178.840418 
L 253.797891 205.420111 
L 255.500149 212.082789 
L 257.202406 181.311543 
L 258.904664 125.842079 
L 260.606921 93.687316 
L 262.309179 76.907504 
L 264.011436 67.329239 
L 265.713694 70.29892 
L 267.415951 79.96591 
L 269.118209 120.132734 
L 270.820466 173.263774 
L 272.522723 206.557334 
L 274.224981 215.207439 
L 275.927238 190.659814 
L 277.629496 147.748584 
L 279.331753 127.414908 
L 281.034011 104.462017 
L 282.736268 79.141992 
L 284.438526 102.313186 
L 286.140783 163.571648 
L 287.843041 205.983281 
L 289.545298 219.906807 
L 291.247556 203.192301 
L 292.949813 166.565352 
L 294.652071 146.64388 
L 296.354328 116.750837 
L 298.056586 75.986396 
L 299.758843 45.842895 
L 301.461101 41.365821 
L 303.163358 89.488104 
L 304.865615 148.870442 
L 306.567873 179.787791 
L 308.27013 192.719222 
L 309.972388 192.071703 
L 311.674645 179.835581 
L 313.376903 162.410487 
L 315.07916 119.483793 
L 316.781418 67.002901 
L 318.483675 78.373475 
L 320.185933 132.86668 
L 321.88819 170.283438 
L 323.590448 189.245841 
L 325.292705 188.671456 
L 326.994963 180.326354 
L 328.69722 178.681745 
L 330.399478 159.401175 
L 333.803993 82.22947 
L 335.50625 62.848709 
L 337.208507 88.580723 
L 338.910765 119.22785 
L 340.613022 130.146808 
L 342.31528 148.049291 
L 344.017537 170.733806 
L 345.719795 182.811955 
L 347.422052 179.85113 
L 349.12431 147.581815 
L 350.826567 103.330933 
L 352.528825 99.240469 
L 354.231082 109.493333 
L 355.93334 108.88337 
L 357.635597 116.765861 
L 359.337855 131.596933 
L 361.040112 153.849553 
L 362.74237 173.370811 
L 364.444627 176.162873 
L 366.146885 165.395389 
L 367.849142 145.511699 
L 369.551399 128.42407 
L 371.253657 125.652765 
L 372.955914 109.302575 
L 374.658172 86.082889 
L 376.360429 107.505717 
L 378.062687 148.170005 
L 379.764944 176.587999 
L 381.467202 187.706324 
L 383.169459 176.272844 
L 384.871717 158.351136 
L 386.573974 151.907384 
L 388.276232 126.27374 
L 389.978489 79.582564 
L 391.680747 61.537371 
L 393.383004 75.223182 
L 396.787519 145.998886 
L 400.192034 175.183452 
L 401.894291 191.198737 
L 403.596549 196.395601 
L 405.298806 185.013843 
L 408.703321 73.450716 
L 410.405579 82.651948 
L 412.107836 121.79851 
L 413.810094 152.318903 
L 415.512351 178.184344 
L 417.214609 196.788204 
L 418.916866 205.478547 
L 420.619124 202.825853 
L 422.321381 161.356254 
L 424.023639 93.198553 
L 425.725896 53.591948 
L 427.428154 47.472665 
L 429.130411 71.572053 
L 430.832669 101.884101 
L 432.534926 119.119539 
L 435.939441 194.382953 
L 437.641698 215.733973 
L 439.343956 209.941063 
L 442.748471 102.914634 
L 444.450728 94.51681 
L 446.152986 104.169269 
L 447.855243 110.806967 
L 449.557501 147.435532 
L 451.259758 192.21683 
L 452.962016 218.270323 
L 454.664273 219.200992 
L 456.366531 183.561347 
L 458.068788 132.720099 
L 459.771046 101.924952 
L 461.473303 80.083098 
L 463.175561 72.313975 
L 464.877818 69.013912 
L 466.580076 74.8652 
L 468.282333 119.418496 
L 469.98459 170.670833 
L 471.686848 197.106348 
L 473.389105 199.286501 
L 476.79362 146.711007 
L 478.495878 132.704567 
L 480.198135 106.043964 
L 481.900393 76.409976 
L 483.60265 97.752242 
L 485.304908 153.522754 
L 487.007165 189.914195 
L 488.709423 199.600554 
L 490.41168 177.91784 
L 492.113938 159.097604 
L 493.816195 153.976847 
L 495.518453 138.368085 
L 497.22071 112.166823 
L 498.922968 77.987627 
L 500.625225 60.937579 
L 502.327482 96.498218 
L 504.02974 139.374058 
L 505.731997 156.932063 
L 507.434255 166.244383 
L 509.136512 172.802886 
L 510.83877 175.118468 
L 512.541027 169.159889 
L 514.243285 131.953523 
L 515.945542 83.033946 
L 517.6478 83.94709 
L 519.350057 112.187117 
L 521.052315 129.009577 
L 522.754572 137.980554 
L 524.45683 138.715528 
L 526.159087 153.721904 
L 527.861345 177.34607 
L 529.563602 184.542894 
L 531.26586 172.971317 
L 532.968117 133.416774 
L 534.670374 103.883584 
L 536.372632 108.811419 
L 538.074889 112.834825 
L 539.777147 108.584402 
L 541.479404 131.766198 
L 543.181662 168.560151 
L 544.883919 191.742175 
L 546.586177 197.199636 
L 548.288434 169.096048 
L 549.990692 132.295329 
L 551.692949 119.729627 
L 553.395207 102.925199 
L 555.097464 78.844169 
L 556.799722 71.399783 
L 558.501979 83.883532 
L 561.906494 167.868125 
L 563.608752 189.500981 
L 565.311009 197.282992 
L 567.013266 189.464796 
L 568.715524 174.105254 
L 570.417781 152.438802 
L 573.822296 70.529328 
L 575.524554 96.801383 
L 577.226811 151.217419 
L 578.929069 187.201735 
L 580.631326 204.022849 
L 582.333584 200.506985 
L 584.035841 189.509979 
L 585.738099 173.819108 
L 587.440356 132.375815 
L 589.142614 70.076709 
L 589.142614 70.076709 
" clip-path="url(#pe090d0eed6)" style="fill: none; stroke-dasharray: 5.55,2.4; stroke-dashoffset: 0; stroke: #008000; stroke-width: 1.5"/>
   </g>
   <g id="line2d_32">
    <path d="M 81.869886 162.084769 
L 83.572144 127.396643 
L 85.274401 154.398774 
L 86.976659 128.468328 
L 88.678916 199.482351 
L 90.381174 164.728143 
L 92.083431 170.697098 
L 93.785689 111.592066 
L 95.487946 138.9022 
L 97.190204 92.800142 
L 98.892461 131.314094 
L 100.594719 102.18525 
L 102.296976 85.593498 
L 103.999234 106.950094 
L 105.701491 182.13278 
L 107.403748 173.059691 
L 109.106006 185.987844 
L 110.808263 133.690761 
L 112.510521 122.779048 
L 114.212778 137.924453 
L 115.915036 157.629102 
L 117.617293 129.656609 
L 119.319551 105.915402 
L 121.021808 153.36798 
L 122.724066 108.332572 
L 124.426323 152.423829 
L 126.128581 155.242032 
L 127.830838 158.728682 
L 129.533096 144.162783 
L 131.235353 151.658881 
L 132.937611 119.947414 
L 134.639868 141.487446 
L 136.342126 80.351637 
L 138.044383 101.731791 
L 139.74664 154.53743 
L 141.448898 148.779437 
L 143.151155 174.050741 
L 144.853413 151.950569 
L 146.55567 183.335951 
L 148.257928 147.971928 
L 149.960185 147.638967 
L 151.662443 92.173007 
L 153.3647 118.162428 
L 155.066958 114.680057 
L 156.769215 93.50286 
L 158.471473 119.493894 
L 160.17373 156.037093 
L 161.875988 114.883084 
L 163.578245 135.46878 
L 165.280503 136.596694 
L 166.98276 153.194915 
L 168.685018 114.684147 
L 170.387275 133.240102 
L 172.089532 129.591132 
L 173.79179 126.387104 
L 175.494047 116.34254 
L 177.196305 140.497854 
L 178.898562 144.965359 
L 180.60082 202.389871 
L 182.303077 150.166509 
L 184.005335 171.150014 
L 185.707592 117.152613 
L 187.40985 147.955252 
L 189.112107 97.724059 
L 190.814365 108.014407 
L 192.516622 75.710927 
L 194.21888 102.777377 
L 195.921137 92.536326 
L 197.623395 167.592419 
L 199.325652 136.046875 
L 201.02791 159.807062 
L 202.730167 138.145024 
L 204.432424 138.118716 
L 206.134682 154.284762 
L 207.836939 115.749893 
L 209.539197 107.744923 
L 211.241454 125.5995 
L 212.943712 185.51765 
L 214.645969 127.734563 
L 216.348227 172.439391 
L 218.050484 106.706122 
L 219.752742 179.008822 
L 221.454999 148.240564 
L 223.157257 121.672493 
L 224.859514 111.709995 
L 226.561772 58.185589 
L 228.264029 116.63672 
L 229.966287 84.069976 
L 231.668544 135.158064 
L 233.370802 147.898713 
L 235.073059 153.479877 
L 236.775317 164.593309 
L 238.477574 208.355868 
L 240.179831 208.918053 
L 241.882089 149.319035 
L 243.584346 82.275408 
L 245.286604 151.486162 
L 246.988861 187.057311 
L 248.691119 153.547804 
L 250.393376 148.307195 
L 252.095634 154.296393 
L 253.797891 185.223833 
L 255.500149 156.819635 
L 257.202406 155.581618 
L 258.904664 85.651791 
L 260.606921 82.882737 
L 262.309179 121.620913 
L 264.011436 122.074011 
L 265.713694 134.957555 
L 267.415951 106.27453 
L 269.118209 123.61469 
L 270.820466 157.855382 
L 272.522723 209.850829 
L 274.224981 157.65578 
L 275.927238 154.123517 
L 277.629496 133.161866 
L 279.331753 183.368127 
L 281.034011 133.369326 
L 282.736268 100.894705 
L 284.438526 107.617115 
L 286.140783 117.235659 
L 287.843041 162.18981 
L 289.545298 160.283724 
L 291.247556 201.136776 
L 292.949813 139.69477 
L 294.652071 165.343384 
L 296.354328 129.448142 
L 298.056586 147.991826 
L 299.758843 139.986772 
L 301.461101 86.452319 
L 303.163358 103.057495 
L 304.865615 183.167397 
L 306.567873 157.035024 
L 308.27013 172.855681 
L 309.972388 142.702846 
L 311.674645 130.144404 
L 313.376903 192.272432 
L 315.07916 113.088308 
L 316.781418 134.480892 
L 318.483675 82.300472 
L 320.185933 125.416262 
L 321.88819 74.562016 
L 323.590448 146.640809 
L 325.292705 105.577473 
L 326.994963 99.988439 
L 328.69722 132.776501 
L 330.399478 134.99997 
L 332.101735 147.780657 
L 333.803993 112.445792 
L 335.50625 112.2798 
L 337.208507 125.111012 
L 338.910765 176.281263 
L 340.613022 160.165026 
L 342.31528 176.606494 
L 344.017537 143.187948 
L 345.719795 182.382517 
L 347.422052 178.173933 
L 349.12431 158.021732 
L 350.826567 92.459787 
L 352.528825 136.142145 
L 354.231082 110.323635 
L 355.93334 97.85856 
L 357.635597 112.394751 
L 359.337855 130.983003 
L 361.040112 116.500911 
L 362.74237 140.835076 
L 364.444627 148.611999 
L 366.146885 158.408857 
L 367.849142 162.711396 
L 369.551399 148.24595 
L 371.253657 156.704663 
L 372.955914 129.827001 
L 374.658172 114.672869 
L 376.360429 126.822562 
L 378.062687 129.528216 
L 379.764944 167.849438 
L 381.467202 155.828515 
L 383.169459 154.33117 
L 384.871717 133.789286 
L 386.573974 159.315104 
L 388.276232 105.302259 
L 389.978489 106.536366 
L 391.680747 92.915368 
L 393.383004 111.628571 
L 395.085262 115.556266 
L 396.787519 138.32368 
L 398.489777 139.190105 
L 400.192034 162.265972 
L 401.894291 141.836795 
L 403.596549 166.698503 
L 405.298806 151.075591 
L 407.001064 143.96005 
L 408.703321 134.59887 
L 410.405579 151.280591 
L 412.107836 184.743686 
L 413.810094 129.88018 
L 415.512351 168.283832 
L 417.214609 137.024951 
L 418.916866 186.903914 
L 420.619124 147.428116 
L 422.321381 129.381638 
L 424.023639 104.318849 
L 425.725896 114.87974 
L 427.428154 138.366852 
L 429.130411 80.906969 
L 430.832669 139.485351 
L 432.534926 135.740138 
L 434.237183 190.30033 
L 435.939441 174.082879 
L 437.641698 233.998125 
L 439.343956 165.3529 
L 441.046213 158.054799 
L 442.748471 129.557492 
L 444.450728 172.801747 
L 446.152986 105.637395 
L 447.855243 116.393772 
L 449.557501 118.232284 
L 451.259758 156.791524 
L 452.962016 167.334493 
L 454.664273 160.325522 
L 456.366531 165.845611 
L 458.068788 121.263688 
L 459.771046 137.32883 
L 461.473303 106.143546 
L 463.175561 132.230967 
L 464.877818 112.014846 
L 466.580076 130.35352 
L 468.282333 140.731004 
L 469.98459 187.79212 
L 471.686848 193.145584 
L 473.389105 176.800766 
L 475.091363 124.484484 
L 476.79362 177.274836 
L 478.495878 171.436445 
L 480.198135 134.653004 
L 481.900393 118.103948 
L 483.60265 63.461636 
L 485.304908 112.147471 
L 487.007165 140.003821 
L 488.709423 164.059777 
L 490.41168 151.897003 
L 492.113938 110.258411 
L 493.816195 139.874885 
L 495.518453 116.531721 
L 497.22071 141.947385 
L 498.922968 104.353939 
L 500.625225 87.238601 
L 502.327482 101.299289 
L 504.02974 177.151987 
L 505.731997 161.575578 
L 507.434255 155.742946 
L 509.136512 137.606979 
L 510.83877 157.713989 
L 512.541027 166.53597 
L 514.243285 117.682947 
L 515.945542 119.910003 
L 517.6478 84.054623 
L 519.350057 112.886851 
L 521.052315 83.478829 
L 522.754572 123.312429 
L 524.45683 82.110984 
L 526.159087 124.337308 
L 527.861345 149.45419 
L 529.563602 172.897542 
L 531.26586 183.762733 
L 532.968117 115.43873 
L 534.670374 133.964584 
L 536.372632 120.784962 
L 538.074889 144.445812 
L 539.777147 126.314874 
L 541.479404 130.698323 
L 543.181662 118.203478 
L 544.883919 203.743994 
L 546.586177 177.218582 
L 548.288434 137.280025 
L 549.990692 88.56528 
L 551.692949 127.167288 
L 553.395207 88.769022 
L 555.097464 110.688497 
L 556.799722 129.377946 
L 558.501979 70.553791 
L 560.204237 122.128663 
L 561.906494 169.568379 
L 563.608752 171.944587 
L 565.311009 145.817197 
L 567.013266 141.31774 
L 568.715524 131.121523 
L 570.417781 175.950484 
L 572.120039 167.879229 
L 573.822296 134.536025 
L 575.524554 127.830178 
L 577.226811 157.735001 
L 578.929069 151.870297 
L 580.631326 170.468529 
L 582.333584 140.987235 
L 584.035841 159.90277 
L 585.738099 156.814787 
L 587.440356 109.679294 
L 589.142614 119.664646 
L 589.142614 119.664646 
" clip-path="url(#pe090d0eed6)" style="fill: none; stroke: #ff0000; stroke-width: 1.5; stroke-linecap: square"/>
   </g>
   <g id="patch_3">
    <path d="M 56.50625 244.078125 
L 56.50625 22.318125 
" style="fill: none; stroke: #000000; stroke-width: 0.8; stroke-linejoin: miter; stroke-linecap: square"/>
   </g>
   <g id="patch_4">
    <path d="M 614.50625 244.078125 
L 614.50625 22.318125 
" style="fill: none; stroke: #000000; stroke-width: 0.8; stroke-linejoin: miter; stroke-linecap: square"/>
   </g>
   <g id="patch_5">
    <path d="M 56.50625 244.078125 
L 614.50625 244.078125 
" style="fill: none; stroke: #000000; stroke-width: 0.8; stroke-linejoin: miter; stroke-linecap: square"/>
   </g>
   <g id="patch_6">
    <path d="M 56.50625 22.318125 
L 614.50625 22.318125 
" style="fill: none; stroke: #000000; stroke-width: 0.8; stroke-linejoin: miter; stroke-linecap: square"/>
   </g>
   <g id="text_18">
    <!-- Task Performance: NARMA10 (validation set) -->
    <g transform="translate(201.816875 16.318125) scale(0.12 -0.12)">
     <defs>
      <path id="DejaVuSans-6b" d="M 581 4863 
L 1159 4863 
L 1159 1991 
L 2875 3500 
L 3609 3500 
L 1753 1863 
L 3688 0 
L 2938 0 
L 1159 1709 
L 1159 0 
L 581 0 
L 581 4863 
z
" transform="scale(0.015625)"/>
      <path id="DejaVuSans-50" d="M 1259 4147 
L 1259 2394 
L 2053 2394 
Q 2494 2394 2734 2622 
Q 2975 2850 2975 3272 
Q 2975 3691 2734 3919 
Q 2494 4147 2053 4147 
L 1259 4147 
z
M 628 4666 
L 2053 4666 
Q 2838 4666 3239 4311 
Q 3641 3956 3641 3272 
Q 3641 2581 3239 2228 
Q 2838 1875 2053 1875 
L 1259 1875 
L 1259 0 
L 628 0 
L 628 4666 
z
" transform="scale(0.015625)"/>
      <path id="DejaVuSans-72" d="M 2631 2963 
Q 2534 3019 2420 3045 
Q 2306 3072 2169 3072 
Q 1681 3072 1420 2755 
Q 1159 2438 1159 1844 
L 1159 0 
L 581 0 
L 581 3500 
L 1159 3500 
L 1159 2956 
Q 1341 3275 1631 3429 
Q 1922 3584 2338 3584 
Q 2397 3584 2469 3576 
Q 2541 3569 2628 3553 
L 2631 2963 
z
" transform="scale(0.015625)"/>
      <path id="DejaVuSans-66" d="M 2375 4863 
L 2375 4384 
L 1825 4384 
Q 1516 4384 1395 4259 
Q 1275 4134 1275 3809 
L 1275 3500 
L 2222 3500 
L 2222 3053 
L 1275 3053 
L 1275 0 
L 697 0 
L 697 3053 
L 147 3053 
L 147 3500 
L 697 3500 
L 697 3744 
Q 697 4328 969 4595 
Q 1241 4863 1831 4863 
L 2375 4863 
z
" transform="scale(0.015625)"/>
      <path id="DejaVuSans-6f" d="M 1959 3097 
Q 1497 3097 1228 2736 
Q 959 2375 959 1747 
Q 959 1119 1226 758 
Q 1494 397 1959 397 
Q 2419 397 2687 759 
Q 2956 1122 2956 1747 
Q 2956 2369 2687 2733 
Q 2419 3097 1959 3097 
z
M 1959 3584 
Q 2709 3584 3137 3096 
Q 3566 2609 3566 1747 
Q 3566 888 3137 398 
Q 2709 -91 1959 -91 
Q 1206 -91 779 398 
Q 353 888 353 1747 
Q 353 2609 779 3096 
Q 1206 3584 1959 3584 
z
" transform="scale(0.015625)"/>
      <path id="DejaVuSans-63" d="M 3122 3366 
L 3122 2828 
Q 2878 2963 2633 3030 
Q 2388 3097 2138 3097 
Q 1578 3097 1268 2742 
Q 959 2388 959 1747 
Q 959 1106 1268 751 
Q 1578 397 2138 397 
Q 2388 397 2633 464 
Q 2878 531 3122 666 
L 3122 134 
Q 2881 22 2623 -34 
Q 2366 -91 2075 -91 
Q 1284 -91 818 406 
Q 353 903 353 1747 
Q 353 2603 823 3093 
Q 1294 3584 2113 3584 
Q 2378 3584 2631 3529 
Q 2884 3475 3122 3366 
z
" transform="scale(0.015625)"/>
      <path id="DejaVuSans-3a" d="M 750 794 
L 1409 794 
L 1409 0 
L 750 0 
L 750 794 
z
M 750 3309 
L 1409 3309 
L 1409 2516 
L 750 2516 
L 750 3309 
z
" transform="scale(0.015625)"/>
      <path id="DejaVuSans-4e" d="M 628 4666 
L 1478 4666 
L 3547 763 
L 3547 4666 
L 4159 4666 
L 4159 0 
L 3309 0 
L 1241 3903 
L 1241 0 
L 628 0 
L 628 4666 
z
" transform="scale(0.015625)"/>
      <path id="DejaVuSans-41" d="M 2188 4044 
L 1331 1722 
L 3047 1722 
L 2188 4044 
z
M 1831 4666 
L 2547 4666 
L 4325 0 
L 3669 0 
L 3244 1197 
L 1141 1197 
L 716 0 
L 50 0 
L 1831 4666 
z
" transform="scale(0.015625)"/>
      <path id="DejaVuSans-52" d="M 2841 2188 
Q 3044 2119 3236 1894 
Q 3428 1669 3622 1275 
L 4263 0 
L 3584 0 
L 2988 1197 
Q 2756 1666 2539 1819 
Q 2322 1972 1947 1972 
L 1259 1972 
L 1259 0 
L 628 0 
L 628 4666 
L 2053 4666 
Q 2853 4666 3247 4331 
Q 3641 3997 3641 3322 
Q 3641 2881 3436 2590 
Q 3231 2300 2841 2188 
z
M 1259 4147 
L 1259 2491 
L 2053 2491 
Q 2509 2491 2742 2702 
Q 2975 2913 2975 3322 
Q 2975 3731 2742 3939 
Q 2509 4147 2053 4147 
L 1259 4147 
z
" transform="scale(0.015625)"/>
      <path id="DejaVuSans-4d" d="M 628 4666 
L 1569 4666 
L 2759 1491 
L 3956 4666 
L 4897 4666 
L 4897 0 
L 4281 0 
L 4281 4097 
L 3078 897 
L 2444 897 
L 1241 4097 
L 1241 0 
L 628 0 
L 628 4666 
z
" transform="scale(0.015625)"/>
      <path id="DejaVuSans-28" d="M 1984 4856 
Q 1566 4138 1362 3434 
Q 1159 2731 1159 2009 
Q 1159 1288 1364 580 
Q 1569 -128 1984 -844 
L 1484 -844 
Q 1016 -109 783 600 
Q 550 1309 550 2009 
Q 550 2706 781 3412 
Q 1013 4119 1484 4856 
L 1984 4856 
z
" transform="scale(0.015625)"/>
      <path id="DejaVuSans-76" d="M 191 3500 
L 800 3500 
L 1894 563 
L 2988 3500 
L 3597 3500 
L 2284 0 
L 1503 0 
L 191 3500 
z
" transform="scale(0.015625)"/>
      <path id="DejaVuSans-64" d="M 2906 2969 
L 2906 4863 
L 3481 4863 
L 3481 0 
L 2906 0 
L 2906 525 
Q 2725 213 2448 61 
Q 2172 -91 1784 -91 
Q 1150 -91 751 415 
Q 353 922 353 1747 
Q 353 2572 751 3078 
Q 1150 3584 1784 3584 
Q 2172 3584 2448 3432 
Q 2725 3281 2906 2969 
z
M 947 1747 
Q 947 1113 1208 752 
Q 1469 391 1925 391 
Q 2381 391 2643 752 
Q 2906 1113 2906 1747 
Q 2906 2381 2643 2742 
Q 2381 3103 1925 3103 
Q 1469 3103 1208 2742 
Q 947 2381 947 1747 
z
" transform="scale(0.015625)"/>
      <path id="DejaVuSans-29" d="M 513 4856 
L 1013 4856 
Q 1481 4119 1714 3412 
Q 1947 2706 1947 2009 
Q 1947 1309 1714 600 
Q 1481 -109 1013 -844 
L 513 -844 
Q 928 -128 1133 580 
Q 1338 1288 1338 2009 
Q 1338 2731 1133 3434 
Q 928 4138 513 4856 
z
" transform="scale(0.015625)"/>
     </defs>
     <use xlink:href="#DejaVuSans-54"/>
     <use xlink:href="#DejaVuSans-61" transform="translate(44.583984 0)"/>
     <use xlink:href="#DejaVuSans-73" transform="translate(105.863281 0)"/>
     <use xlink:href="#DejaVuSans-6b" transform="translate(157.962891 0)"/>
     <use xlink:href="#DejaVuSans-20" transform="translate(215.873047 0)"/>
     <use xlink:href="#DejaVuSans-50" transform="translate(247.660156 0)"/>
     <use xlink:href="#DejaVuSans-65" transform="translate(304.337891 0)"/>
     <use xlink:href="#DejaVuSans-72" transform="translate(365.861328 0)"/>
     <use xlink:href="#DejaVuSans-66" transform="translate(406.974609 0)"/>
     <use xlink:href="#DejaVuSans-6f" transform="translate(442.179688 0)"/>
     <use xlink:href="#DejaVuSans-72" transform="translate(503.361328 0)"/>
     <use xlink:href="#DejaVuSans-6d" transform="translate(542.724609 0)"/>
     <use xlink:href="#DejaVuSans-61" transform="translate(640.136719 0)"/>
     <use xlink:href="#DejaVuSans-6e" transform="translate(701.416016 0)"/>
     <use xlink:href="#DejaVuSans-63" transform="translate(764.794922 0)"/>
     <use xlink:href="#DejaVuSans-65" transform="translate(819.775391 0)"/>
     <use xlink:href="#DejaVuSans-3a" transform="translate(881.298828 0)"/>
     <use xlink:href="#DejaVuSans-20" transform="translate(914.990234 0)"/>
     <use xlink:href="#DejaVuSans-4e" transform="translate(946.777344 0)"/>
     <use xlink:href="#DejaVuSans-41" transform="translate(1021.582031 0)"/>
     <use xlink:href="#DejaVuSans-52" transform="translate(1089.990234 0)"/>
     <use xlink:href="#DejaVuSans-4d" transform="translate(1159.472656 0)"/>
     <use xlink:href="#DejaVuSans-41" transform="translate(1245.751953 0)"/>
     <use xlink:href="#DejaVuSans-31" transform="translate(1314.160156 0)"/>
     <use xlink:href="#DejaVuSans-30" transform="translate(1377.783203 0)"/>
     <use xlink:href="#DejaVuSans-20" transform="translate(1441.40625 0)"/>
     <use xlink:href="#DejaVuSans-28" transform="translate(1473.193359 0)"/>
     <use xlink:href="#DejaVuSans-76" transform="translate(1512.207031 0)"/>
     <use xlink:href="#DejaVuSans-61" transform="translate(1571.386719 0)"/>
     <use xlink:href="#DejaVuSans-6c" transform="translate(1632.666016 0)"/>
     <use xlink:href="#DejaVuSans-69" transform="translate(1660.449219 0)"/>
     <use xlink:href="#DejaVuSans-64" transform="translate(1688.232422 0)"/>
     <use xlink:href="#DejaVuSans-61" transform="translate(1751.708984 0)"/>
     <use xlink:href="#DejaVuSans-74" transform="translate(1812.988281 0)"/>
     <use xlink:href="#DejaVuSans-69" transform="translate(1852.197266 0)"/>
     <use xlink:href="#DejaVuSans-6f" transform="translate(1879.980469 0)"/>
     <use xlink:href="#DejaVuSans-6e" transform="translate(1941.162109 0)"/>
     <use xlink:href="#DejaVuSans-20" transform="translate(2004.541016 0)"/>
     <use xlink:href="#DejaVuSans-73" transform="translate(2036.328125 0)"/>
     <use xlink:href="#DejaVuSans-65" transform="translate(2088.427734 0)"/>
     <use xlink:href="#DejaVuSans-74" transform="translate(2149.951172 0)"/>
     <use xlink:href="#DejaVuSans-29" transform="translate(2189.160156 0)"/>
    </g>
   </g>
   <g id="legend_1">
    <g id="patch_7">
     <path d="M 525.832813 59.674375 
L 607.50625 59.674375 
Q 609.50625 59.674375 609.50625 57.674375 
L 609.50625 29.318125 
Q 609.50625 27.318125 607.50625 27.318125 
L 525.832813 27.318125 
Q 523.832813 27.318125 523.832813 29.318125 
L 523.832813 57.674375 
Q 523.832813 59.674375 525.832813 59.674375 
z
" style="fill: #ffffff; opacity: 0.8; stroke: #cccccc; stroke-linejoin: miter"/>
    </g>
    <g id="line2d_33">
     <path d="M 527.832813 35.416562 
L 537.832813 35.416562 
L 547.832813 35.416562 
" style="fill: none; stroke-dasharray: 5.55,2.4; stroke-dashoffset: 0; stroke: #008000; stroke-width: 1.5"/>
    </g>
    <g id="text_19">
     <!-- Target -->
     <g transform="translate(555.832813 38.916562) scale(0.1 -0.1)">
      <use xlink:href="#DejaVuSans-54"/>
      <use xlink:href="#DejaVuSans-61" transform="translate(44.583984 0)"/>
      <use xlink:href="#DejaVuSans-72" transform="translate(105.863281 0)"/>
      <use xlink:href="#DejaVuSans-67" transform="translate(145.226562 0)"/>
      <use xlink:href="#DejaVuSans-65" transform="translate(208.703125 0)"/>
      <use xlink:href="#DejaVuSans-74" transform="translate(270.226562 0)"/>
     </g>
    </g>
    <g id="line2d_34">
     <path d="M 527.832813 50.094687 
L 537.832813 50.094687 
L 547.832813 50.094687 
" style="fill: none; stroke: #ff0000; stroke-width: 1.5; stroke-linecap: square"/>
    </g>
    <g id="text_20">
     <!-- Prediction -->
     <g transform="translate(555.832813 53.594687) scale(0.1 -0.1)">
      <use xlink:href="#DejaVuSans-50"/>
      <use xlink:href="#DejaVuSans-72" transform="translate(58.552734 0)"/>
      <use xlink:href="#DejaVuSans-65" transform="translate(97.416016 0)"/>
      <use xlink:href="#DejaVuSans-64" transform="translate(158.939453 0)"/>
      <use xlink:href="#DejaVuSans-69" transform="translate(222.416016 0)"/>
      <use xlink:href="#DejaVuSans-63" transform="translate(250.199219 0)"/>
      <use xlink:href="#DejaVuSans-74" transform="translate(305.179688 0)"/>
      <use xlink:href="#DejaVuSans-69" transform="translate(344.388672 0)"/>
      <use xlink:href="#DejaVuSans-6f" transform="translate(372.171875 0)"/>
      <use xlink:href="#DejaVuSans-6e" transform="translate(433.353516 0)"/>
     </g>
    </g>
   </g>
  </g>
 </g>
 <defs>
  <clipPath id="pe090d0eed6">
   <rect x="56.50625" y="22.318125" width="558" height="221.76"/>
  </clipPath>
 </defs>
</svg>
