<?xml version="1.0" encoding="utf-8" standalone="no"?>
<!DOCTYPE svg PUBLIC "-//W3C//DTD SVG 1.1//EN"
  "http://www.w3.org/Graphics/SVG/1.1/DTD/svg11.dtd">
<svg xmlns:xlink="http://www.w3.org/1999/xlink" width="615.34375pt" height="281.634375pt" viewBox="0 0 615.34375 281.634375" xmlns="http://www.w3.org/2000/svg" version="1.1">
 <metadata>
  <rdf:RDF xmlns:dc="http://purl.org/dc/elements/1.1/" xmlns:cc="http://creativecommons.org/ns#" xmlns:rdf="http://www.w3.org/1999/02/22-rdf-syntax-ns#">
   <cc:Work>
    <dc:type rdf:resource="http://purl.org/dc/dcmitype/StillImage"/>
    <dc:date>2026-03-19T17:31:28.717983</dc:date>
    <dc:format>image/svg+xml</dc:format>
    <dc:creator>
     <cc:Agent>
      <dc:title>Matplotlib v3.10.8, https://matplotlib.org/</dc:title>
     </cc:Agent>
    </dc:creator>
   </cc:Work>
  </rdf:RDF>
 </metadata>
 <defs>
  <style type="text/css">*{stroke-linejoin: round; stroke-linecap: butt}</style>
 </defs>
 <g id="figure_1">
  <g id="patch_1">
   <path d="M 0 281.634375 
L 615.34375 281.634375 
L 615.34375 0 
L 0 0 
z
" style="fill: #ffffff"/>
  </g>
  <g id="axes_1">
   <g id="patch_2">
    <path d="M 50.14375 244.078125 
L 608.14375 244.078125 
L 608.14375 22.318125 
L 50.14375 22.318125 
z
" style="fill: #ffffff"/>
   </g>
   <g id="matplotlib.axis_1">
    <g id="xtick_1">
     <g id="line2d_1">
      <path d="M 75.507386 244.078125 
L 75.507386 22.318125 
" clip-path="url(#pb0f94c731c)" style="fill: none; stroke: #b0b0b0; stroke-opacity: 0.3; stroke-width: 0.8; stroke-linecap: square"/>
     </g>
     <g id="line2d_2">
      <defs>
       <path id="mfd6b529e01" d="M 0 0 
L 0 3.5 
" style="stroke: #000000; stroke-width: 0.8"/>
      </defs>
      <g>
       <use xlink:href="#mfd6b529e01" x="75.507386" y="244.078125" style="stroke: #000000; stroke-width: 0.8"/>
      </g>
     </g>
     <g id="text_1">
      <!-- 0 -->
      <g transform="translate(72.326136 258.676562) scale(0.1 -0.1)">
       <defs>
        <path id="DejaVuSans-30" d="M 2034 4250 
Q 1547 4250 1301 3770 
Q 1056 3291 1056 2328 
Q 1056 1369 1301 889 
Q 1547 409 2034 409 
Q 2525 409 2770 889 
Q 3016 1369 3016 2328 
Q 3016 3291 2770 3770 
Q 2525 4250 2034 4250 
z
M 2034 4750 
Q 2819 4750 3233 4129 
Q 3647 3509 3647 2328 
Q 3647 1150 3233 529 
Q 2819 -91 2034 -91 
Q 1250 -91 836 529 
Q 422 1150 422 2328 
Q 422 3509 836 4129 
Q 1250 4750 2034 4750 
z
" transform="scale(0.015625)"/>
       </defs>
       <use xlink:href="#DejaVuSans-30"/>
      </g>
     </g>
    </g>
    <g id="xtick_2">
     <g id="line2d_3">
      <path d="M 160.62026 244.078125 
L 160.62026 22.318125 
" clip-path="url(#pb0f94c731c)" style="fill: none; stroke: #b0b0b0; stroke-opacity: 0.3; stroke-width: 0.8; stroke-linecap: square"/>
     </g>
     <g id="line2d_4">
      <g>
       <use xlink:href="#mfd6b529e01" x="160.62026" y="244.078125" style="stroke: #000000; stroke-width: 0.8"/>
      </g>
     </g>
     <g id="text_2">
      <!-- 50 -->
      <g transform="translate(154.25776 258.676562) scale(0.1 -0.1)">
       <defs>
        <path id="DejaVuSans-35" d="M 691 4666 
L 3169 4666 
L 3169 4134 
L 1269 4134 
L 1269 2991 
Q 1406 3038 1543 3061 
Q 1681 3084 1819 3084 
Q 2600 3084 3056 2656 
Q 3513 2228 3513 1497 
Q 3513 744 3044 326 
Q 2575 -91 1722 -91 
Q 1428 -91 1123 -41 
Q 819 9 494 109 
L 494 744 
Q 775 591 1075 516 
Q 1375 441 1709 441 
Q 2250 441 2565 725 
Q 2881 1009 2881 1497 
Q 2881 1984 2565 2268 
Q 2250 2553 1709 2553 
Q 1456 2553 1204 2497 
Q 953 2441 691 2322 
L 691 4666 
z
" transform="scale(0.015625)"/>
       </defs>
       <use xlink:href="#DejaVuSans-35"/>
       <use xlink:href="#DejaVuSans-30" transform="translate(63.623047 0)"/>
      </g>
     </g>
    </g>
    <g id="xtick_3">
     <g id="line2d_5">
      <path d="M 245.733134 244.078125 
L 245.733134 22.318125 
" clip-path="url(#pb0f94c731c)" style="fill: none; stroke: #b0b0b0; stroke-opacity: 0.3; stroke-width: 0.8; stroke-linecap: square"/>
     </g>
     <g id="line2d_6">
      <g>
       <use xlink:href="#mfd6b529e01" x="245.733134" y="244.078125" style="stroke: #000000; stroke-width: 0.8"/>
      </g>
     </g>
     <g id="text_3">
      <!-- 100 -->
      <g transform="translate(236.189384 258.676562) scale(0.1 -0.1)">
       <defs>
        <path id="DejaVuSans-31" d="M 794 531 
L 1825 531 
L 1825 4091 
L 703 3866 
L 703 4441 
L 1819 4666 
L 2450 4666 
L 2450 531 
L 3481 531 
L 3481 0 
L 794 0 
L 794 531 
z
" transform="scale(0.015625)"/>
       </defs>
       <use xlink:href="#DejaVuSans-31"/>
       <use xlink:href="#DejaVuSans-30" transform="translate(63.623047 0)"/>
       <use xlink:href="#DejaVuSans-30" transform="translate(127.246094 0)"/>
      </g>
     </g>
    </g>
    <g id="xtick_4">
     <g id="line2d_7">
      <path d="M 330.846007 244.078125 
L 330.846007 22.318125 
" clip-path="url(#pb0f94c731c)" style="fill: none; stroke: #b0b0b0; stroke-opacity: 0.3; stroke-width: 0.8; stroke-linecap: square"/>
     </g>
     <g id="line2d_8">
      <g>
       <use xlink:href="#mfd6b529e01" x="330.846007" y="244.078125" style="stroke: #000000; stroke-width: 0.8"/>
      </g>
     </g>
     <g id="text_4">
      <!-- 150 -->
      <g transform="translate(321.302257 258.676562) scale(0.1 -0.1)">
       <use xlink:href="#DejaVuSans-31"/>
       <use xlink:href="#DejaVuSans-35" transform="translate(63.623047 0)"/>
       <use xlink:href="#DejaVuSans-30" transform="translate(127.246094 0)"/>
      </g>
     </g>
    </g>
    <g id="xtick_5">
     <g id="line2d_9">
      <path d="M 415.958881 244.078125 
L 415.958881 22.318125 
" clip-path="url(#pb0f94c731c)" style="fill: none; stroke: #b0b0b0; stroke-opacity: 0.3; stroke-width: 0.8; stroke-linecap: square"/>
     </g>
     <g id="line2d_10">
      <g>
       <use xlink:href="#mfd6b529e01" x="415.958881" y="244.078125" style="stroke: #000000; stroke-width: 0.8"/>
      </g>
     </g>
     <g id="text_5">
      <!-- 200 -->
      <g transform="translate(406.415131 258.676562) scale(0.1 -0.1)">
       <defs>
        <path id="DejaVuSans-32" d="M 1228 531 
L 3431 531 
L 3431 0 
L 469 0 
L 469 531 
Q 828 903 1448 1529 
Q 2069 2156 2228 2338 
Q 2531 2678 2651 2914 
Q 2772 3150 2772 3378 
Q 2772 3750 2511 3984 
Q 2250 4219 1831 4219 
Q 1534 4219 1204 4116 
Q 875 4013 500 3803 
L 500 4441 
Q 881 4594 1212 4672 
Q 1544 4750 1819 4750 
Q 2544 4750 2975 4387 
Q 3406 4025 3406 3419 
Q 3406 3131 3298 2873 
Q 3191 2616 2906 2266 
Q 2828 2175 2409 1742 
Q 1991 1309 1228 531 
z
" transform="scale(0.015625)"/>
       </defs>
       <use xlink:href="#DejaVuSans-32"/>
       <use xlink:href="#DejaVuSans-30" transform="translate(63.623047 0)"/>
       <use xlink:href="#DejaVuSans-30" transform="translate(127.246094 0)"/>
      </g>
     </g>
    </g>
    <g id="xtick_6">
     <g id="line2d_11">
      <path d="M 501.071755 244.078125 
L 501.071755 22.318125 
" clip-path="url(#pb0f94c731c)" style="fill: none; stroke: #b0b0b0; stroke-opacity: 0.3; stroke-width: 0.8; stroke-linecap: square"/>
     </g>
     <g id="line2d_12">
      <g>
       <use xlink:href="#mfd6b529e01" x="501.071755" y="244.078125" style="stroke: #000000; stroke-width: 0.8"/>
      </g>
     </g>
     <g id="text_6">
      <!-- 250 -->
      <g transform="translate(491.528005 258.676562) scale(0.1 -0.1)">
       <use xlink:href="#DejaVuSans-32"/>
       <use xlink:href="#DejaVuSans-35" transform="translate(63.623047 0)"/>
       <use xlink:href="#DejaVuSans-30" transform="translate(127.246094 0)"/>
      </g>
     </g>
    </g>
    <g id="xtick_7">
     <g id="line2d_13">
      <path d="M 586.184629 244.078125 
L 586.184629 22.318125 
" clip-path="url(#pb0f94c731c)" style="fill: none; stroke: #b0b0b0; stroke-opacity: 0.3; stroke-width: 0.8; stroke-linecap: square"/>
     </g>
     <g id="line2d_14">
      <g>
       <use xlink:href="#mfd6b529e01" x="586.184629" y="244.078125" style="stroke: #000000; stroke-width: 0.8"/>
      </g>
     </g>
     <g id="text_7">
      <!-- 300 -->
      <g transform="translate(576.640879 258.676562) scale(0.1 -0.1)">
       <defs>
        <path id="DejaVuSans-33" d="M 2597 2516 
Q 3050 2419 3304 2112 
Q 3559 1806 3559 1356 
Q 3559 666 3084 287 
Q 2609 -91 1734 -91 
Q 1441 -91 1130 -33 
Q 819 25 488 141 
L 488 750 
Q 750 597 1062 519 
Q 1375 441 1716 441 
Q 2309 441 2620 675 
Q 2931 909 2931 1356 
Q 2931 1769 2642 2001 
Q 2353 2234 1838 2234 
L 1294 2234 
L 1294 2753 
L 1863 2753 
Q 2328 2753 2575 2939 
Q 2822 3125 2822 3475 
Q 2822 3834 2567 4026 
Q 2313 4219 1838 4219 
Q 1578 4219 1281 4162 
Q 984 4106 628 3988 
L 628 4550 
Q 988 4650 1302 4700 
Q 1616 4750 1894 4750 
Q 2613 4750 3031 4423 
Q 3450 4097 3450 3541 
Q 3450 3153 3228 2886 
Q 3006 2619 2597 2516 
z
" transform="scale(0.015625)"/>
       </defs>
       <use xlink:href="#DejaVuSans-33"/>
       <use xlink:href="#DejaVuSans-30" transform="translate(63.623047 0)"/>
       <use xlink:href="#DejaVuSans-30" transform="translate(127.246094 0)"/>
      </g>
     </g>
    </g>
    <g id="text_8">
     <!-- Time Steps -->
     <g transform="translate(301.33125 272.354687) scale(0.1 -0.1)">
      <defs>
       <path id="DejaVuSans-54" d="M -19 4666 
L 3928 4666 
L 3928 4134 
L 2272 4134 
L 2272 0 
L 1638 0 
L 1638 4134 
L -19 4134 
L -19 4666 
z
" transform="scale(0.015625)"/>
       <path id="DejaVuSans-69" d="M 603 3500 
L 1178 3500 
L 1178 0 
L 603 0 
L 603 3500 
z
M 603 4863 
L 1178 4863 
L 1178 4134 
L 603 4134 
L 603 4863 
z
" transform="scale(0.015625)"/>
       <path id="DejaVuSans-6d" d="M 3328 2828 
Q 3544 3216 3844 3400 
Q 4144 3584 4550 3584 
Q 5097 3584 5394 3201 
Q 5691 2819 5691 2113 
L 5691 0 
L 5113 0 
L 5113 2094 
Q 5113 2597 4934 2840 
Q 4756 3084 4391 3084 
Q 3944 3084 3684 2787 
Q 3425 2491 3425 1978 
L 3425 0 
L 2847 0 
L 2847 2094 
Q 2847 2600 2669 2842 
Q 2491 3084 2119 3084 
Q 1678 3084 1418 2786 
Q 1159 2488 1159 1978 
L 1159 0 
L 581 0 
L 581 3500 
L 1159 3500 
L 1159 2956 
Q 1356 3278 1631 3431 
Q 1906 3584 2284 3584 
Q 2666 3584 2933 3390 
Q 3200 3197 3328 2828 
z
" transform="scale(0.015625)"/>
       <path id="DejaVuSans-65" d="M 3597 1894 
L 3597 1613 
L 953 1613 
Q 991 1019 1311 708 
Q 1631 397 2203 397 
Q 2534 397 2845 478 
Q 3156 559 3463 722 
L 3463 178 
Q 3153 47 2828 -22 
Q 2503 -91 2169 -91 
Q 1331 -91 842 396 
Q 353 884 353 1716 
Q 353 2575 817 3079 
Q 1281 3584 2069 3584 
Q 2775 3584 3186 3129 
Q 3597 2675 3597 1894 
z
M 3022 2063 
Q 3016 2534 2758 2815 
Q 2500 3097 2075 3097 
Q 1594 3097 1305 2825 
Q 1016 2553 972 2059 
L 3022 2063 
z
" transform="scale(0.015625)"/>
       <path id="DejaVuSans-20" transform="scale(0.015625)"/>
       <path id="DejaVuSans-53" d="M 3425 4513 
L 3425 3897 
Q 3066 4069 2747 4153 
Q 2428 4238 2131 4238 
Q 1616 4238 1336 4038 
Q 1056 3838 1056 3469 
Q 1056 3159 1242 3001 
Q 1428 2844 1947 2747 
L 2328 2669 
Q 3034 2534 3370 2195 
Q 3706 1856 3706 1288 
Q 3706 609 3251 259 
Q 2797 -91 1919 -91 
Q 1588 -91 1214 -16 
Q 841 59 441 206 
L 441 856 
Q 825 641 1194 531 
Q 1563 422 1919 422 
Q 2459 422 2753 634 
Q 3047 847 3047 1241 
Q 3047 1584 2836 1778 
Q 2625 1972 2144 2069 
L 1759 2144 
Q 1053 2284 737 2584 
Q 422 2884 422 3419 
Q 422 4038 858 4394 
Q 1294 4750 2059 4750 
Q 2388 4750 2728 4690 
Q 3069 4631 3425 4513 
z
" transform="scale(0.015625)"/>
       <path id="DejaVuSans-74" d="M 1172 4494 
L 1172 3500 
L 2356 3500 
L 2356 3053 
L 1172 3053 
L 1172 1153 
Q 1172 725 1289 603 
Q 1406 481 1766 481 
L 2356 481 
L 2356 0 
L 1766 0 
Q 1100 0 847 248 
Q 594 497 594 1153 
L 594 3053 
L 172 3053 
L 172 3500 
L 594 3500 
L 594 4494 
L 1172 4494 
z
" transform="scale(0.015625)"/>
       <path id="DejaVuSans-70" d="M 1159 525 
L 1159 -1331 
L 581 -1331 
L 581 3500 
L 1159 3500 
L 1159 2969 
Q 1341 3281 1617 3432 
Q 1894 3584 2278 3584 
Q 2916 3584 3314 3078 
Q 3713 2572 3713 1747 
Q 3713 922 3314 415 
Q 2916 -91 2278 -91 
Q 1894 -91 1617 61 
Q 1341 213 1159 525 
z
M 3116 1747 
Q 3116 2381 2855 2742 
Q 2594 3103 2138 3103 
Q 1681 3103 1420 2742 
Q 1159 2381 1159 1747 
Q 1159 1113 1420 752 
Q 1681 391 2138 391 
Q 2594 391 2855 752 
Q 3116 1113 3116 1747 
z
" transform="scale(0.015625)"/>
       <path id="DejaVuSans-73" d="M 2834 3397 
L 2834 2853 
Q 2591 2978 2328 3040 
Q 2066 3103 1784 3103 
Q 1356 3103 1142 2972 
Q 928 2841 928 2578 
Q 928 2378 1081 2264 
Q 1234 2150 1697 2047 
L 1894 2003 
Q 2506 1872 2764 1633 
Q 3022 1394 3022 966 
Q 3022 478 2636 193 
Q 2250 -91 1575 -91 
Q 1294 -91 989 -36 
Q 684 19 347 128 
L 347 722 
Q 666 556 975 473 
Q 1284 391 1588 391 
Q 1994 391 2212 530 
Q 2431 669 2431 922 
Q 2431 1156 2273 1281 
Q 2116 1406 1581 1522 
L 1381 1569 
Q 847 1681 609 1914 
Q 372 2147 372 2553 
Q 372 3047 722 3315 
Q 1072 3584 1716 3584 
Q 2034 3584 2315 3537 
Q 2597 3491 2834 3397 
z
" transform="scale(0.015625)"/>
      </defs>
      <use xlink:href="#DejaVuSans-54"/>
      <use xlink:href="#DejaVuSans-69" transform="translate(57.958984 0)"/>
      <use xlink:href="#DejaVuSans-6d" transform="translate(85.742188 0)"/>
      <use xlink:href="#DejaVuSans-65" transform="translate(183.154297 0)"/>
      <use xlink:href="#DejaVuSans-20" transform="translate(244.677734 0)"/>
      <use xlink:href="#DejaVuSans-53" transform="translate(276.464844 0)"/>
      <use xlink:href="#DejaVuSans-74" transform="translate(339.941406 0)"/>
      <use xlink:href="#DejaVuSans-65" transform="translate(379.150391 0)"/>
      <use xlink:href="#DejaVuSans-70" transform="translate(440.673828 0)"/>
      <use xlink:href="#DejaVuSans-73" transform="translate(504.150391 0)"/>
     </g>
    </g>
   </g>
   <g id="matplotlib.axis_2">
    <g id="ytick_1">
     <g id="line2d_15">
      <path d="M 50.14375 230.925242 
L 608.14375 230.925242 
" clip-path="url(#pb0f94c731c)" style="fill: none; stroke: #b0b0b0; stroke-opacity: 0.3; stroke-width: 0.8; stroke-linecap: square"/>
     </g>
     <g id="line2d_16">
      <defs>
       <path id="me499d9255e" d="M 0 0 
L -3.5 0 
" style="stroke: #000000; stroke-width: 0.8"/>
      </defs>
      <g>
       <use xlink:href="#me499d9255e" x="50.14375" y="230.925242" style="stroke: #000000; stroke-width: 0.8"/>
      </g>
     </g>
     <g id="text_9">
      <!-- 0.18 -->
      <g transform="translate(20.878125 234.724461) scale(0.1 -0.1)">
       <defs>
        <path id="DejaVuSans-2e" d="M 684 794 
L 1344 794 
L 1344 0 
L 684 0 
L 684 794 
z
" transform="scale(0.015625)"/>
        <path id="DejaVuSans-38" d="M 2034 2216 
Q 1584 2216 1326 1975 
Q 1069 1734 1069 1313 
Q 1069 891 1326 650 
Q 1584 409 2034 409 
Q 2484 409 2743 651 
Q 3003 894 3003 1313 
Q 3003 1734 2745 1975 
Q 2488 2216 2034 2216 
z
M 1403 2484 
Q 997 2584 770 2862 
Q 544 3141 544 3541 
Q 544 4100 942 4425 
Q 1341 4750 2034 4750 
Q 2731 4750 3128 4425 
Q 3525 4100 3525 3541 
Q 3525 3141 3298 2862 
Q 3072 2584 2669 2484 
Q 3125 2378 3379 2068 
Q 3634 1759 3634 1313 
Q 3634 634 3220 271 
Q 2806 -91 2034 -91 
Q 1263 -91 848 271 
Q 434 634 434 1313 
Q 434 1759 690 2068 
Q 947 2378 1403 2484 
z
M 1172 3481 
Q 1172 3119 1398 2916 
Q 1625 2713 2034 2713 
Q 2441 2713 2670 2916 
Q 2900 3119 2900 3481 
Q 2900 3844 2670 4047 
Q 2441 4250 2034 4250 
Q 1625 4250 1398 4047 
Q 1172 3844 1172 3481 
z
" transform="scale(0.015625)"/>
       </defs>
       <use xlink:href="#DejaVuSans-30"/>
       <use xlink:href="#DejaVuSans-2e" transform="translate(63.623047 0)"/>
       <use xlink:href="#DejaVuSans-31" transform="translate(95.410156 0)"/>
       <use xlink:href="#DejaVuSans-38" transform="translate(159.033203 0)"/>
      </g>
     </g>
    </g>
    <g id="ytick_2">
     <g id="line2d_17">
      <path d="M 50.14375 182.967142 
L 608.14375 182.967142 
" clip-path="url(#pb0f94c731c)" style="fill: none; stroke: #b0b0b0; stroke-opacity: 0.3; stroke-width: 0.8; stroke-linecap: square"/>
     </g>
     <g id="line2d_18">
      <g>
       <use xlink:href="#me499d9255e" x="50.14375" y="182.967142" style="stroke: #000000; stroke-width: 0.8"/>
      </g>
     </g>
     <g id="text_10">
      <!-- 0.20 -->
      <g transform="translate(20.878125 186.766361) scale(0.1 -0.1)">
       <use xlink:href="#DejaVuSans-30"/>
       <use xlink:href="#DejaVuSans-2e" transform="translate(63.623047 0)"/>
       <use xlink:href="#DejaVuSans-32" transform="translate(95.410156 0)"/>
       <use xlink:href="#DejaVuSans-30" transform="translate(159.033203 0)"/>
      </g>
     </g>
    </g>
    <g id="ytick_3">
     <g id="line2d_19">
      <path d="M 50.14375 135.009042 
L 608.14375 135.009042 
" clip-path="url(#pb0f94c731c)" style="fill: none; stroke: #b0b0b0; stroke-opacity: 0.3; stroke-width: 0.8; stroke-linecap: square"/>
     </g>
     <g id="line2d_20">
      <g>
       <use xlink:href="#me499d9255e" x="50.14375" y="135.009042" style="stroke: #000000; stroke-width: 0.8"/>
      </g>
     </g>
     <g id="text_11">
      <!-- 0.22 -->
      <g transform="translate(20.878125 138.80826) scale(0.1 -0.1)">
       <use xlink:href="#DejaVuSans-30"/>
       <use xlink:href="#DejaVuSans-2e" transform="translate(63.623047 0)"/>
       <use xlink:href="#DejaVuSans-32" transform="translate(95.410156 0)"/>
       <use xlink:href="#DejaVuSans-32" transform="translate(159.033203 0)"/>
      </g>
     </g>
    </g>
    <g id="ytick_4">
     <g id="line2d_21">
      <path d="M 50.14375 87.050941 
L 608.14375 87.050941 
" clip-path="url(#pb0f94c731c)" style="fill: none; stroke: #b0b0b0; stroke-opacity: 0.3; stroke-width: 0.8; stroke-linecap: square"/>
     </g>
     <g id="line2d_22">
      <g>
       <use xlink:href="#me499d9255e" x="50.14375" y="87.050941" style="stroke: #000000; stroke-width: 0.8"/>
      </g>
     </g>
     <g id="text_12">
      <!-- 0.24 -->
      <g transform="translate(20.878125 90.85016) scale(0.1 -0.1)">
       <defs>
        <path id="DejaVuSans-34" d="M 2419 4116 
L 825 1625 
L 2419 1625 
L 2419 4116 
z
M 2253 4666 
L 3047 4666 
L 3047 1625 
L 3713 1625 
L 3713 1100 
L 3047 1100 
L 3047 0 
L 2419 0 
L 2419 1100 
L 313 1100 
L 313 1709 
L 2253 4666 
z
" transform="scale(0.015625)"/>
       </defs>
       <use xlink:href="#DejaVuSans-30"/>
       <use xlink:href="#DejaVuSans-2e" transform="translate(63.623047 0)"/>
       <use xlink:href="#DejaVuSans-32" transform="translate(95.410156 0)"/>
       <use xlink:href="#DejaVuSans-34" transform="translate(159.033203 0)"/>
      </g>
     </g>
    </g>
    <g id="ytick_5">
     <g id="line2d_23">
      <path d="M 50.14375 39.092841 
L 608.14375 39.092841 
" clip-path="url(#pb0f94c731c)" style="fill: none; stroke: #b0b0b0; stroke-opacity: 0.3; stroke-width: 0.8; stroke-linecap: square"/>
     </g>
     <g id="line2d_24">
      <g>
       <use xlink:href="#me499d9255e" x="50.14375" y="39.092841" style="stroke: #000000; stroke-width: 0.8"/>
      </g>
     </g>
     <g id="text_13">
      <!-- 0.26 -->
      <g transform="translate(20.878125 42.89206) scale(0.1 -0.1)">
       <defs>
        <path id="DejaVuSans-36" d="M 2113 2584 
Q 1688 2584 1439 2293 
Q 1191 2003 1191 1497 
Q 1191 994 1439 701 
Q 1688 409 2113 409 
Q 2538 409 2786 701 
Q 3034 994 3034 1497 
Q 3034 2003 2786 2293 
Q 2538 2584 2113 2584 
z
M 3366 4563 
L 3366 3988 
Q 3128 4100 2886 4159 
Q 2644 4219 2406 4219 
Q 1781 4219 1451 3797 
Q 1122 3375 1075 2522 
Q 1259 2794 1537 2939 
Q 1816 3084 2150 3084 
Q 2853 3084 3261 2657 
Q 3669 2231 3669 1497 
Q 3669 778 3244 343 
Q 2819 -91 2113 -91 
Q 1303 -91 875 529 
Q 447 1150 447 2328 
Q 447 3434 972 4092 
Q 1497 4750 2381 4750 
Q 2619 4750 2861 4703 
Q 3103 4656 3366 4563 
z
" transform="scale(0.015625)"/>
       </defs>
       <use xlink:href="#DejaVuSans-30"/>
       <use xlink:href="#DejaVuSans-2e" transform="translate(63.623047 0)"/>
       <use xlink:href="#DejaVuSans-32" transform="translate(95.410156 0)"/>
       <use xlink:href="#DejaVuSans-36" transform="translate(159.033203 0)"/>
      </g>
     </g>
    </g>
    <g id="text_14">
     <!-- Signal Value -->
     <g transform="translate(14.798437 163.877812) rotate(-90) scale(0.1 -0.1)">
      <defs>
       <path id="DejaVuSans-67" d="M 2906 1791 
Q 2906 2416 2648 2759 
Q 2391 3103 1925 3103 
Q 1463 3103 1205 2759 
Q 947 2416 947 1791 
Q 947 1169 1205 825 
Q 1463 481 1925 481 
Q 2391 481 2648 825 
Q 2906 1169 2906 1791 
z
M 3481 434 
Q 3481 -459 3084 -895 
Q 2688 -1331 1869 -1331 
Q 1566 -1331 1297 -1286 
Q 1028 -1241 775 -1147 
L 775 -588 
Q 1028 -725 1275 -790 
Q 1522 -856 1778 -856 
Q 2344 -856 2625 -561 
Q 2906 -266 2906 331 
L 2906 616 
Q 2728 306 2450 153 
Q 2172 0 1784 0 
Q 1141 0 747 490 
Q 353 981 353 1791 
Q 353 2603 747 3093 
Q 1141 3584 1784 3584 
Q 2172 3584 2450 3431 
Q 2728 3278 2906 2969 
L 2906 3500 
L 3481 3500 
L 3481 434 
z
" transform="scale(0.015625)"/>
       <path id="DejaVuSans-6e" d="M 3513 2113 
L 3513 0 
L 2938 0 
L 2938 2094 
Q 2938 2591 2744 2837 
Q 2550 3084 2163 3084 
Q 1697 3084 1428 2787 
Q 1159 2491 1159 1978 
L 1159 0 
L 581 0 
L 581 3500 
L 1159 3500 
L 1159 2956 
Q 1366 3272 1645 3428 
Q 1925 3584 2291 3584 
Q 2894 3584 3203 3211 
Q 3513 2838 3513 2113 
z
" transform="scale(0.015625)"/>
       <path id="DejaVuSans-61" d="M 2194 1759 
Q 1497 1759 1228 1600 
Q 959 1441 959 1056 
Q 959 750 1161 570 
Q 1363 391 1709 391 
Q 2188 391 2477 730 
Q 2766 1069 2766 1631 
L 2766 1759 
L 2194 1759 
z
M 3341 1997 
L 3341 0 
L 2766 0 
L 2766 531 
Q 2569 213 2275 61 
Q 1981 -91 1556 -91 
Q 1019 -91 701 211 
Q 384 513 384 1019 
Q 384 1609 779 1909 
Q 1175 2209 1959 2209 
L 2766 2209 
L 2766 2266 
Q 2766 2663 2505 2880 
Q 2244 3097 1772 3097 
Q 1472 3097 1187 3025 
Q 903 2953 641 2809 
L 641 3341 
Q 956 3463 1253 3523 
Q 1550 3584 1831 3584 
Q 2591 3584 2966 3190 
Q 3341 2797 3341 1997 
z
" transform="scale(0.015625)"/>
       <path id="DejaVuSans-6c" d="M 603 4863 
L 1178 4863 
L 1178 0 
L 603 0 
L 603 4863 
z
" transform="scale(0.015625)"/>
       <path id="DejaVuSans-56" d="M 1831 0 
L 50 4666 
L 709 4666 
L 2188 738 
L 3669 4666 
L 4325 4666 
L 2547 0 
L 1831 0 
z
" transform="scale(0.015625)"/>
       <path id="DejaVuSans-75" d="M 544 1381 
L 544 3500 
L 1119 3500 
L 1119 1403 
Q 1119 906 1312 657 
Q 1506 409 1894 409 
Q 2359 409 2629 706 
Q 2900 1003 2900 1516 
L 2900 3500 
L 3475 3500 
L 3475 0 
L 2900 0 
L 2900 538 
Q 2691 219 2414 64 
Q 2138 -91 1772 -91 
Q 1169 -91 856 284 
Q 544 659 544 1381 
z
M 1991 3584 
L 1991 3584 
z
" transform="scale(0.015625)"/>
      </defs>
      <use xlink:href="#DejaVuSans-53"/>
      <use xlink:href="#DejaVuSans-69" transform="translate(63.476562 0)"/>
      <use xlink:href="#DejaVuSans-67" transform="translate(91.259766 0)"/>
      <use xlink:href="#DejaVuSans-6e" transform="translate(154.736328 0)"/>
      <use xlink:href="#DejaVuSans-61" transform="translate(218.115234 0)"/>
      <use xlink:href="#DejaVuSans-6c" transform="translate(279.394531 0)"/>
      <use xlink:href="#DejaVuSans-20" transform="translate(307.177734 0)"/>
      <use xlink:href="#DejaVuSans-56" transform="translate(338.964844 0)"/>
      <use xlink:href="#DejaVuSans-61" transform="translate(399.623047 0)"/>
      <use xlink:href="#DejaVuSans-6c" transform="translate(460.902344 0)"/>
      <use xlink:href="#DejaVuSans-75" transform="translate(488.685547 0)"/>
      <use xlink:href="#DejaVuSans-65" transform="translate(552.064453 0)"/>
     </g>
    </g>
   </g>
   <g id="line2d_25">
    <path d="M 75.507386 186.929607 
L 77.209644 174.61017 
L 78.911901 168.298228 
L 80.614159 168.020253 
L 82.316416 171.751987 
L 84.018674 166.095298 
L 85.720931 143.318232 
L 87.423189 126.201207 
L 89.125446 115.621132 
L 90.827704 108.739527 
L 92.529961 108.840145 
L 94.232219 114.285319 
L 97.636734 164.350944 
L 99.338991 179.903986 
L 101.041248 189.568593 
L 102.743506 195.449327 
L 104.445763 198.783574 
L 106.148021 200.347444 
L 107.850278 198.153471 
L 109.552536 179.258612 
L 111.254793 150.500408 
L 112.957051 133.456173 
L 114.659308 128.542073 
L 116.361566 132.775744 
L 118.063823 131.04808 
L 119.766081 128.667798 
L 121.468338 140.097799 
L 123.170596 148.549523 
L 124.872853 149.144118 
L 126.575111 146.336932 
L 128.277368 145.25712 
L 129.979626 159.653089 
L 131.681883 175.811503 
L 133.38414 186.213494 
L 135.086398 193.120504 
L 136.788655 197.597822 
L 138.490913 200.294606 
L 140.19317 201.786337 
L 141.895428 199.648238 
L 143.597685 178.237378 
L 145.299943 145.412505 
L 147.0022 116.984251 
L 148.704458 91.750305 
L 150.406715 79.478384 
L 152.108973 74.422209 
L 153.81123 93.885307 
L 155.513488 126.913141 
L 157.215745 150.004744 
L 158.918003 162.876139 
L 160.62026 170.377642 
L 162.322518 175.083332 
L 164.024775 182.219069 
L 165.727032 188.208432 
L 167.42929 190.320594 
L 169.131547 193.220466 
L 170.833805 197.172068 
L 172.536062 199.751766 
L 174.23832 201.089665 
L 175.940577 198.316376 
L 177.642835 181.603535 
L 179.345092 160.025719 
L 181.04735 132.201038 
L 182.749607 86.879243 
L 184.451865 47.051751 
L 186.154122 32.398125 
L 187.85638 62.633559 
L 189.558637 107.163583 
L 191.260895 138.956806 
L 192.963152 160.704592 
L 194.66541 176.287103 
L 196.367667 186.237959 
L 198.069924 192.535055 
L 199.772182 195.109973 
L 201.474439 191.032155 
L 203.176697 188.966977 
L 204.878954 191.434465 
L 206.581212 193.104013 
L 208.283469 193.259826 
L 209.985727 188.416083 
L 211.687984 177.85505 
L 213.390242 170.453283 
L 215.092499 153.181248 
L 218.497014 64.414578 
L 220.199272 44.646296 
L 221.901529 68.094377 
L 223.603787 105.958368 
L 225.306044 135.262178 
L 227.008302 159.530789 
L 228.710559 177.048623 
L 230.412817 187.800361 
L 232.115074 194.380045 
L 233.817331 197.688531 
L 235.519589 194.369355 
L 237.221846 189.856038 
L 238.924104 186.558007 
L 240.626361 178.358089 
L 242.328619 168.709005 
L 244.030876 160.02191 
L 245.733134 158.338884 
L 247.435391 163.230981 
L 249.137649 157.879359 
L 250.839906 133.243898 
L 252.542164 112.181435 
L 254.244421 103.093798 
L 255.946679 112.422854 
L 257.648936 129.163899 
L 259.351194 144.08437 
L 261.053451 164.510651 
L 262.755709 180.313812 
L 264.457966 189.80038 
L 266.160223 195.629205 
L 267.862481 198.985728 
L 269.564738 198.772598 
L 271.266996 196.098188 
L 272.969253 187.756935 
L 274.671511 161.409852 
L 276.373768 129.219852 
L 278.076026 111.607912 
L 279.778283 116.045571 
L 281.480541 131.435859 
L 283.182798 136.934044 
L 284.885056 135.616522 
L 288.289571 149.834328 
L 289.991828 155.121426 
L 291.694086 158.027392 
L 293.396343 159.584719 
L 295.098601 172.773432 
L 296.800858 185.09094 
L 298.503115 192.630182 
L 300.205373 197.266943 
L 301.90763 199.910505 
L 303.609888 200.740786 
L 305.312145 200.023953 
L 307.014403 190.876527 
L 308.71666 152.57306 
L 310.418918 103.855509 
L 312.121175 73.301451 
L 313.823433 69.331456 
L 315.52569 83.553889 
L 317.227948 95.289561 
L 318.930205 116.703171 
L 320.632463 144.292315 
L 322.33472 163.227426 
L 324.036978 174.245341 
L 325.739235 178.855138 
L 327.441493 179.585728 
L 330.846007 191.476861 
L 332.548265 194.499096 
L 334.250522 196.654368 
L 335.95278 198.590395 
L 337.655037 199.698199 
L 339.357295 199.642533 
L 341.059552 191.114406 
L 342.76181 156.58214 
L 344.464067 116.399923 
L 346.166325 81.656562 
L 347.868582 57.006516 
L 349.57084 49.9219 
L 351.273097 57.310824 
L 352.975355 94.037134 
L 354.677612 133.333602 
L 356.37987 159.291822 
L 358.082127 175.69832 
L 359.784385 185.593679 
L 361.486642 191.021601 
L 363.188899 194.902414 
L 364.891157 196.123451 
L 366.593414 191.256541 
L 368.295672 187.74667 
L 369.997929 188.800246 
L 371.700187 190.405328 
L 373.402444 190.784693 
L 375.104702 182.046659 
L 376.806959 160.347222 
L 378.509217 143.580816 
L 380.211474 121.488172 
L 381.913732 88.182035 
L 383.615989 62.63357 
L 385.318247 60.388514 
L 387.020504 95.613277 
L 388.722762 133.791607 
L 390.425019 159.462 
L 392.127277 176.563673 
L 393.829534 187.473019 
L 395.531791 194.138555 
L 397.234049 198.112924 
L 398.936306 198.716599 
L 400.638564 188.7543 
L 402.340821 177.920009 
L 404.043079 172.581714 
L 405.745336 167.636023 
L 407.447594 163.242212 
L 409.149851 153.36256 
L 410.852109 148.054601 
L 412.554366 152.201712 
L 414.256624 147.247219 
L 415.958881 127.026178 
L 417.661139 108.293382 
L 419.363396 105.162534 
L 421.065654 126.295588 
L 422.767911 150.282246 
L 424.470169 167.374776 
L 426.172426 181.352615 
L 427.874683 190.512976 
L 429.576941 196.053632 
L 431.279198 199.422221 
L 432.981456 200.390463 
L 434.683713 192.282137 
L 436.385971 180.388933 
L 438.088228 164.868448 
L 439.790486 138.613035 
L 441.492743 114.542657 
L 443.195001 101.267728 
L 444.897258 112.836743 
L 446.599516 134.128304 
L 448.301773 144.496097 
L 450.004031 145.139573 
L 451.706288 148.239181 
L 453.408546 153.211806 
L 455.110803 162.929204 
L 456.813061 170.740995 
L 458.515318 175.323836 
L 460.217576 185.005369 
L 461.919833 192.744862 
L 463.62209 197.390627 
L 465.324348 200.179863 
L 467.026605 200.771981 
L 468.728863 196.291978 
L 470.43112 188.873573 
L 472.133378 168.59969 
L 475.537893 69.892427 
L 477.24015 47.435451 
L 478.942408 66.494168 
L 480.644665 98.49668 
L 482.346923 120.706834 
L 485.751438 160.609997 
L 487.453695 174.209705 
L 489.155953 182.712178 
L 490.85821 185.448753 
L 492.560468 183.686533 
L 494.262725 188.470264 
L 495.964982 193.792461 
L 497.66724 196.859608 
L 499.369497 198.40135 
L 501.071755 198.040123 
L 502.774012 196.021033 
L 504.47627 192.809685 
L 506.178527 174.922198 
L 509.583042 71.509133 
L 511.2853 42.491845 
L 512.987557 48.987864 
L 516.392072 96.718414 
L 518.09433 129.913989 
L 519.796587 157.92767 
L 521.498845 175.671327 
L 523.201102 186.532288 
L 524.90336 192.019151 
L 526.605617 192.902351 
L 528.307874 194.559943 
L 530.010132 194.919795 
L 533.414647 186.592766 
L 535.116904 185.150802 
L 536.819162 185.807549 
L 538.521419 185.695748 
L 540.223677 172.182983 
L 541.925934 138.305913 
L 543.628192 111.162036 
L 545.330449 89.720969 
L 547.032707 79.337583 
L 548.734964 80.785614 
L 550.437222 94.381049 
L 552.139479 129.191235 
L 553.841737 157.934313 
L 555.543994 175.894953 
L 557.246252 187.072958 
L 558.948509 193.804576 
L 560.650766 197.478899 
L 562.353024 199.285029 
L 564.055281 196.507725 
L 567.459796 164.182306 
L 569.162054 157.4064 
L 570.864311 157.620396 
L 572.566569 159.202852 
L 574.268826 149.96447 
L 575.971084 139.807152 
L 577.673341 140.787646 
L 579.375599 136.661749 
L 581.077856 126.150081 
L 582.780114 117.225174 
L 582.780114 117.225174 
" clip-path="url(#pb0f94c731c)" style="fill: none; stroke-dasharray: 5.55,2.4; stroke-dashoffset: 0; stroke: #008000; stroke-width: 1.5"/>
   </g>
   <g id="line2d_26">
    <path d="M 75.507386 172.978092 
L 77.209644 167.413436 
L 78.911901 141.268209 
L 80.614159 153.657724 
L 82.316416 137.013213 
L 84.018674 139.84523 
L 85.720931 106.681394 
L 87.423189 134.141823 
L 89.125446 119.735361 
L 90.827704 110.388015 
L 92.529961 124.865025 
L 94.232219 161.691797 
L 95.934476 161.61356 
L 97.636734 172.106888 
L 99.338991 219.58781 
L 101.041248 173.510646 
L 102.743506 189.176413 
L 104.445763 188.388556 
L 106.148021 185.642531 
L 107.850278 167.210443 
L 109.552536 142.308279 
L 111.254793 166.372757 
L 112.957051 133.125716 
L 114.659308 121.723131 
L 116.361566 159.465842 
L 118.063823 148.682136 
L 119.766081 110.869713 
L 121.468338 158.398937 
L 123.170596 166.699569 
L 124.872853 138.226398 
L 126.575111 126.8412 
L 128.277368 137.459748 
L 129.979626 146.609314 
L 131.681883 171.643831 
L 133.38414 189.045805 
L 135.086398 220.390385 
L 136.788655 153.571027 
L 138.490913 192.940298 
L 140.19317 152.675264 
L 141.895428 167.460302 
L 143.597685 135.214841 
L 145.299943 128.51266 
L 147.0022 100.913565 
L 148.704458 91.031756 
L 150.406715 125.727594 
L 152.108973 122.109788 
L 153.81123 152.284295 
L 155.513488 157.590685 
L 157.215745 213.324413 
L 158.918003 176.301407 
L 160.62026 175.304667 
L 162.322518 182.219317 
L 164.024775 174.324301 
L 165.727032 187.398124 
L 167.42929 192.327263 
L 169.131547 201.991686 
L 170.833805 144.831799 
L 172.536062 207.575878 
L 174.23832 177.191993 
L 175.940577 186.439177 
L 177.642835 119.382106 
L 179.345092 141.640497 
L 181.04735 98.435121 
L 182.749607 92.117079 
L 184.451865 117.268527 
L 186.154122 101.701301 
L 187.85638 127.907774 
L 189.558637 148.027803 
L 191.260895 160.762621 
L 192.963152 182.100293 
L 194.66541 167.480138 
L 196.367667 186.871199 
L 198.069924 162.000581 
L 199.772182 189.940333 
L 201.474439 180.643049 
L 203.176697 176.989778 
L 204.878954 149.88644 
L 206.581212 200.696242 
L 208.283469 192.146885 
L 209.985727 160.003135 
L 211.687984 154.74469 
L 213.390242 159.754449 
L 215.092499 113.076746 
L 216.794757 113.64462 
L 218.497014 125.305231 
L 220.199272 102.643501 
L 221.901529 126.355441 
L 223.603787 154.113339 
L 225.306044 151.682614 
L 227.008302 174.513164 
L 228.710559 183.800389 
L 230.412817 205.630293 
L 232.115074 187.670656 
L 233.817331 174.718425 
L 235.519589 184.887383 
L 237.221846 182.319283 
L 238.924104 149.395089 
L 240.626361 185.351187 
L 242.328619 160.77948 
L 244.030876 138.129173 
L 245.733134 155.68391 
L 247.435391 146.553954 
L 249.137649 131.930335 
L 250.839906 115.957669 
L 252.542164 121.970409 
L 255.946679 110.966167 
L 257.648936 128.819415 
L 259.351194 168.100085 
L 261.053451 157.12051 
L 264.457966 209.707318 
L 266.160223 190.720886 
L 267.862481 190.457807 
L 269.564738 175.006387 
L 271.266996 161.743499 
L 272.969253 147.226457 
L 274.671511 146.02523 
L 276.373768 141.340547 
L 278.076026 118.328891 
L 279.778283 120.238837 
L 283.182798 169.649666 
L 284.885056 122.694428 
L 286.587313 159.441008 
L 288.289571 160.309448 
L 289.991828 154.064824 
L 291.694086 155.943004 
L 293.396343 168.591551 
L 295.098601 160.63207 
L 296.800858 189.319349 
L 298.503115 233.998125 
L 300.205373 198.764587 
L 301.90763 179.616656 
L 303.609888 181.807971 
L 305.312145 178.675982 
L 307.014403 134.920835 
L 308.71666 140.121211 
L 310.418918 130.92533 
L 313.823433 87.080116 
L 315.52569 145.297387 
L 317.227948 142.531125 
L 318.930205 126.457414 
L 320.632463 158.205226 
L 322.33472 196.053716 
L 324.036978 165.316542 
L 325.739235 165.445948 
L 327.441493 183.444585 
L 329.14375 170.984186 
L 330.846007 173.624958 
L 332.548265 208.010931 
L 334.250522 209.414896 
L 335.95278 143.823932 
L 337.655037 199.198246 
L 339.357295 139.948294 
L 341.059552 153.426474 
L 342.76181 98.401796 
L 344.464067 126.302423 
L 346.166325 106.109954 
L 347.868582 111.934035 
L 351.273097 138.826724 
L 352.975355 153.662922 
L 354.677612 171.718981 
L 356.37987 199.716 
L 358.082127 161.49358 
L 361.486642 191.116435 
L 363.188899 164.525459 
L 364.891157 176.821304 
L 366.593414 180.016008 
L 368.295672 180.276073 
L 369.997929 143.659799 
L 371.700187 187.377923 
L 373.402444 162.15066 
L 375.104702 149.518015 
L 376.806959 95.111073 
L 378.509217 126.475726 
L 380.211474 69.294096 
L 381.913732 89.875225 
L 383.615989 100.358934 
L 385.318247 108.227972 
L 388.722762 166.200173 
L 390.425019 171.320991 
L 392.127277 185.200678 
L 393.829534 171.651719 
L 395.531791 191.708948 
L 397.234049 159.795152 
L 398.936306 191.058365 
L 400.638564 175.796543 
L 402.340821 163.879271 
L 404.043079 145.886607 
L 405.745336 156.376795 
L 407.447594 164.076214 
L 409.149851 157.383511 
L 410.852109 149.631409 
L 412.554366 152.177644 
L 414.256624 133.46062 
L 415.958881 142.850471 
L 417.661139 143.353234 
L 419.363396 128.711866 
L 421.065654 125.963692 
L 422.767911 175.640707 
L 424.470169 172.190429 
L 426.172426 205.829484 
L 427.874683 177.398732 
L 429.576941 223.304076 
L 431.279198 179.400999 
L 432.981456 167.8677 
L 434.683713 162.889423 
L 436.385971 147.444969 
L 438.088228 134.274341 
L 439.790486 124.914781 
L 441.492743 134.622865 
L 443.195001 101.288419 
L 444.897258 137.344513 
L 446.599516 136.849855 
L 448.301773 130.758134 
L 450.004031 135.0964 
L 451.706288 140.577128 
L 453.408546 164.000891 
L 455.110803 162.427325 
L 456.813061 157.731963 
L 458.515318 187.540368 
L 460.217576 166.707437 
L 461.919833 167.099564 
L 463.62209 213.822121 
L 465.324348 191.263888 
L 467.026605 185.288229 
L 468.728863 157.97557 
L 470.43112 150.450813 
L 472.133378 105.511779 
L 473.835635 91.755129 
L 475.537893 88.108669 
L 477.24015 88.851615 
L 478.942408 100.829059 
L 480.644665 162.204246 
L 482.346923 151.160597 
L 484.04918 158.030407 
L 485.751438 176.616267 
L 487.453695 176.120947 
L 489.155953 167.640073 
L 490.85821 149.178908 
L 492.560468 170.806924 
L 494.262725 149.216165 
L 495.964982 177.96953 
L 497.66724 217.692419 
L 499.369497 178.05521 
L 501.071755 147.693731 
L 502.774012 177.746872 
L 504.47627 136.260058 
L 506.178527 111.612721 
L 507.880785 106.115519 
L 509.583042 110.693433 
L 511.2853 92.835601 
L 512.987557 83.046743 
L 514.689815 113.368528 
L 516.392072 150.07401 
L 518.09433 152.047798 
L 519.796587 184.491191 
L 521.498845 207.574315 
L 523.201102 167.617191 
L 524.90336 182.274128 
L 526.605617 192.502229 
L 528.307874 148.803701 
L 530.010132 177.180422 
L 531.712389 193.09678 
L 533.414647 177.052321 
L 535.116904 147.105246 
L 536.819162 183.617107 
L 538.521419 136.15701 
L 540.223677 147.395011 
L 541.925934 100.755925 
L 543.628192 131.187717 
L 545.330449 104.354946 
L 547.032707 116.81488 
L 548.734964 131.683073 
L 550.437222 143.417958 
L 552.139479 136.986354 
L 553.841737 174.885267 
L 555.543994 208.718134 
L 557.246252 162.205949 
L 558.948509 195.575141 
L 560.650766 176.861859 
L 562.353024 166.109634 
L 564.055281 178.667541 
L 565.757539 164.870208 
L 567.459796 172.303215 
L 569.162054 130.20323 
L 570.864311 154.230416 
L 572.566569 185.861919 
L 574.268826 144.291535 
L 575.971084 121.849927 
L 577.673341 147.56939 
L 579.375599 132.966637 
L 581.077856 116.992526 
L 582.780114 131.293298 
L 582.780114 131.293298 
" clip-path="url(#pb0f94c731c)" style="fill: none; stroke: #ff0000; stroke-width: 1.5; stroke-linecap: square"/>
   </g>
   <g id="patch_3">
    <path d="M 50.14375 244.078125 
L 50.14375 22.318125 
" style="fill: none; stroke: #000000; stroke-width: 0.8; stroke-linejoin: miter; stroke-linecap: square"/>
   </g>
   <g id="patch_4">
    <path d="M 608.14375 244.078125 
L 608.14375 22.318125 
" style="fill: none; stroke: #000000; stroke-width: 0.8; stroke-linejoin: miter; stroke-linecap: square"/>
   </g>
   <g id="patch_5">
    <path d="M 50.14375 244.078125 
L 608.14375 244.078125 
" style="fill: none; stroke: #000000; stroke-width: 0.8; stroke-linejoin: miter; stroke-linecap: square"/>
   </g>
   <g id="patch_6">
    <path d="M 50.14375 22.318125 
L 608.14375 22.318125 
" style="fill: none; stroke: #000000; stroke-width: 0.8; stroke-linejoin: miter; stroke-linecap: square"/>
   </g>
   <g id="text_15">
    <!-- Task Performance: NARMA2 (validation set) -->
    <g transform="translate(199.271875 16.318125) scale(0.12 -0.12)">
     <defs>
      <path id="DejaVuSans-6b" d="M 581 4863 
L 1159 4863 
L 1159 1991 
L 2875 3500 
L 3609 3500 
L 1753 1863 
L 3688 0 
L 2938 0 
L 1159 1709 
L 1159 0 
L 581 0 
L 581 4863 
z
" transform="scale(0.015625)"/>
      <path id="DejaVuSans-50" d="M 1259 4147 
L 1259 2394 
L 2053 2394 
Q 2494 2394 2734 2622 
Q 2975 2850 2975 3272 
Q 2975 3691 2734 3919 
Q 2494 4147 2053 4147 
L 1259 4147 
z
M 628 4666 
L 2053 4666 
Q 2838 4666 3239 4311 
Q 3641 3956 3641 3272 
Q 3641 2581 3239 2228 
Q 2838 1875 2053 1875 
L 1259 1875 
L 1259 0 
L 628 0 
L 628 4666 
z
" transform="scale(0.015625)"/>
      <path id="DejaVuSans-72" d="M 2631 2963 
Q 2534 3019 2420 3045 
Q 2306 3072 2169 3072 
Q 1681 3072 1420 2755 
Q 1159 2438 1159 1844 
L 1159 0 
L 581 0 
L 581 3500 
L 1159 3500 
L 1159 2956 
Q 1341 3275 1631 3429 
Q 1922 3584 2338 3584 
Q 2397 3584 2469 3576 
Q 2541 3569 2628 3553 
L 2631 2963 
z
" transform="scale(0.015625)"/>
      <path id="DejaVuSans-66" d="M 2375 4863 
L 2375 4384 
L 1825 4384 
Q 1516 4384 1395 4259 
Q 1275 4134 1275 3809 
L 1275 3500 
L 2222 3500 
L 2222 3053 
L 1275 3053 
L 1275 0 
L 697 0 
L 697 3053 
L 147 3053 
L 147 3500 
L 697 3500 
L 697 3744 
Q 697 4328 969 4595 
Q 1241 4863 1831 4863 
L 2375 4863 
z
" transform="scale(0.015625)"/>
      <path id="DejaVuSans-6f" d="M 1959 3097 
Q 1497 3097 1228 2736 
Q 959 2375 959 1747 
Q 959 1119 1226 758 
Q 1494 397 1959 397 
Q 2419 397 2687 759 
Q 2956 1122 2956 1747 
Q 2956 2369 2687 2733 
Q 2419 3097 1959 3097 
z
M 1959 3584 
Q 2709 3584 3137 3096 
Q 3566 2609 3566 1747 
Q 3566 888 3137 398 
Q 2709 -91 1959 -91 
Q 1206 -91 779 398 
Q 353 888 353 1747 
Q 353 2609 779 3096 
Q 1206 3584 1959 3584 
z
" transform="scale(0.015625)"/>
      <path id="DejaVuSans-63" d="M 3122 3366 
L 3122 2828 
Q 2878 2963 2633 3030 
Q 2388 3097 2138 3097 
Q 1578 3097 1268 2742 
Q 959 2388 959 1747 
Q 959 1106 1268 751 
Q 1578 397 2138 397 
Q 2388 397 2633 464 
Q 2878 531 3122 666 
L 3122 134 
Q 2881 22 2623 -34 
Q 2366 -91 2075 -91 
Q 1284 -91 818 406 
Q 353 903 353 1747 
Q 353 2603 823 3093 
Q 1294 3584 2113 3584 
Q 2378 3584 2631 3529 
Q 2884 3475 3122 3366 
z
" transform="scale(0.015625)"/>
      <path id="DejaVuSans-3a" d="M 750 794 
L 1409 794 
L 1409 0 
L 750 0 
L 750 794 
z
M 750 3309 
L 1409 3309 
L 1409 2516 
L 750 2516 
L 750 3309 
z
" transform="scale(0.015625)"/>
      <path id="DejaVuSans-4e" d="M 628 4666 
L 1478 4666 
L 3547 763 
L 3547 4666 
L 4159 4666 
L 4159 0 
L 3309 0 
L 1241 3903 
L 1241 0 
L 628 0 
L 628 4666 
z
" transform="scale(0.015625)"/>
      <path id="DejaVuSans-41" d="M 2188 4044 
L 1331 1722 
L 3047 1722 
L 2188 4044 
z
M 1831 4666 
L 2547 4666 
L 4325 0 
L 3669 0 
L 3244 1197 
L 1141 1197 
L 716 0 
L 50 0 
L 1831 4666 
z
" transform="scale(0.015625)"/>
      <path id="DejaVuSans-52" d="M 2841 2188 
Q 3044 2119 3236 1894 
Q 3428 1669 3622 1275 
L 4263 0 
L 3584 0 
L 2988 1197 
Q 2756 1666 2539 1819 
Q 2322 1972 1947 1972 
L 1259 1972 
L 1259 0 
L 628 0 
L 628 4666 
L 2053 4666 
Q 2853 4666 3247 4331 
Q 3641 3997 3641 3322 
Q 3641 2881 3436 2590 
Q 3231 2300 2841 2188 
z
M 1259 4147 
L 1259 2491 
L 2053 2491 
Q 2509 2491 2742 2702 
Q 2975 2913 2975 3322 
Q 2975 3731 2742 3939 
Q 2509 4147 2053 4147 
L 1259 4147 
z
" transform="scale(0.015625)"/>
      <path id="DejaVuSans-4d" d="M 628 4666 
L 1569 4666 
L 2759 1491 
L 3956 4666 
L 4897 4666 
L 4897 0 
L 4281 0 
L 4281 4097 
L 3078 897 
L 2444 897 
L 1241 4097 
L 1241 0 
L 628 0 
L 628 4666 
z
" transform="scale(0.015625)"/>
      <path id="DejaVuSans-28" d="M 1984 4856 
Q 1566 4138 1362 3434 
Q 1159 2731 1159 2009 
Q 1159 1288 1364 580 
Q 1569 -128 1984 -844 
L 1484 -844 
Q 1016 -109 783 600 
Q 550 1309 550 2009 
Q 550 2706 781 3412 
Q 1013 4119 1484 4856 
L 1984 4856 
z
" transform="scale(0.015625)"/>
      <path id="DejaVuSans-76" d="M 191 3500 
L 800 3500 
L 1894 563 
L 2988 3500 
L 3597 3500 
L 2284 0 
L 1503 0 
L 191 3500 
z
" transform="scale(0.015625)"/>
      <path id="DejaVuSans-64" d="M 2906 2969 
L 2906 4863 
L 3481 4863 
L 3481 0 
L 2906 0 
L 2906 525 
Q 2725 213 2448 61 
Q 2172 -91 1784 -91 
Q 1150 -91 751 415 
Q 353 922 353 1747 
Q 353 2572 751 3078 
Q 1150 3584 1784 3584 
Q 2172 3584 2448 3432 
Q 2725 3281 2906 2969 
z
M 947 1747 
Q 947 1113 1208 752 
Q 1469 391 1925 391 
Q 2381 391 2643 752 
Q 2906 1113 2906 1747 
Q 2906 2381 2643 2742 
Q 2381 3103 1925 3103 
Q 1469 3103 1208 2742 
Q 947 2381 947 1747 
z
" transform="scale(0.015625)"/>
      <path id="DejaVuSans-29" d="M 513 4856 
L 1013 4856 
Q 1481 4119 1714 3412 
Q 1947 2706 1947 2009 
Q 1947 1309 1714 600 
Q 1481 -109 1013 -844 
L 513 -844 
Q 928 -128 1133 580 
Q 1338 1288 1338 2009 
Q 1338 2731 1133 3434 
Q 928 4138 513 4856 
z
" transform="scale(0.015625)"/>
     </defs>
     <use xlink:href="#DejaVuSans-54"/>
     <use xlink:href="#DejaVuSans-61" transform="translate(44.583984 0)"/>
     <use xlink:href="#DejaVuSans-73" transform="translate(105.863281 0)"/>
     <use xlink:href="#DejaVuSans-6b" transform="translate(157.962891 0)"/>
     <use xlink:href="#DejaVuSans-20" transform="translate(215.873047 0)"/>
     <use xlink:href="#DejaVuSans-50" transform="translate(247.660156 0)"/>
     <use xlink:href="#DejaVuSans-65" transform="translate(304.337891 0)"/>
     <use xlink:href="#DejaVuSans-72" transform="translate(365.861328 0)"/>
     <use xlink:href="#DejaVuSans-66" transform="translate(406.974609 0)"/>
     <use xlink:href="#DejaVuSans-6f" transform="translate(442.179688 0)"/>
     <use xlink:href="#DejaVuSans-72" transform="translate(503.361328 0)"/>
     <use xlink:href="#DejaVuSans-6d" transform="translate(542.724609 0)"/>
     <use xlink:href="#DejaVuSans-61" transform="translate(640.136719 0)"/>
     <use xlink:href="#DejaVuSans-6e" transform="translate(701.416016 0)"/>
     <use xlink:href="#DejaVuSans-63" transform="translate(764.794922 0)"/>
     <use xlink:href="#DejaVuSans-65" transform="translate(819.775391 0)"/>
     <use xlink:href="#DejaVuSans-3a" transform="translate(881.298828 0)"/>
     <use xlink:href="#DejaVuSans-20" transform="translate(914.990234 0)"/>
     <use xlink:href="#DejaVuSans-4e" transform="translate(946.777344 0)"/>
     <use xlink:href="#DejaVuSans-41" transform="translate(1021.582031 0)"/>
     <use xlink:href="#DejaVuSans-52" transform="translate(1089.990234 0)"/>
     <use xlink:href="#DejaVuSans-4d" transform="translate(1159.472656 0)"/>
     <use xlink:href="#DejaVuSans-41" transform="translate(1245.751953 0)"/>
     <use xlink:href="#DejaVuSans-32" transform="translate(1314.160156 0)"/>
     <use xlink:href="#DejaVuSans-20" transform="translate(1377.783203 0)"/>
     <use xlink:href="#DejaVuSans-28" transform="translate(1409.570312 0)"/>
     <use xlink:href="#DejaVuSans-76" transform="translate(1448.583984 0)"/>
     <use xlink:href="#DejaVuSans-61" transform="translate(1507.763672 0)"/>
     <use xlink:href="#DejaVuSans-6c" transform="translate(1569.042969 0)"/>
     <use xlink:href="#DejaVuSans-69" transform="translate(1596.826172 0)"/>
     <use xlink:href="#DejaVuSans-64" transform="translate(1624.609375 0)"/>
     <use xlink:href="#DejaVuSans-61" transform="translate(1688.085938 0)"/>
     <use xlink:href="#DejaVuSans-74" transform="translate(1749.365234 0)"/>
     <use xlink:href="#DejaVuSans-69" transform="translate(1788.574219 0)"/>
     <use xlink:href="#DejaVuSans-6f" transform="translate(1816.357422 0)"/>
     <use xlink:href="#DejaVuSans-6e" transform="translate(1877.539062 0)"/>
     <use xlink:href="#DejaVuSans-20" transform="translate(1940.917969 0)"/>
     <use xlink:href="#DejaVuSans-73" transform="translate(1972.705078 0)"/>
     <use xlink:href="#DejaVuSans-65" transform="translate(2024.804688 0)"/>
     <use xlink:href="#DejaVuSans-74" transform="translate(2086.328125 0)"/>
     <use xlink:href="#DejaVuSans-29" transform="translate(2125.537109 0)"/>
    </g>
   </g>
   <g id="legend_1">
    <g id="patch_7">
     <path d="M 519.470312 59.674375 
L 601.14375 59.674375 
Q 603.14375 59.674375 603.14375 57.674375 
L 603.14375 29.318125 
Q 603.14375 27.318125 601.14375 27.318125 
L 519.470312 27.318125 
Q 517.470312 27.318125 517.470312 29.318125 
L 517.470312 57.674375 
Q 517.470312 59.674375 519.470312 59.674375 
z
" style="fill: #ffffff; opacity: 0.8; stroke: #cccccc; stroke-linejoin: miter"/>
    </g>
    <g id="line2d_27">
     <path d="M 521.470312 35.416562 
L 531.470312 35.416562 
L 541.470312 35.416562 
" style="fill: none; stroke-dasharray: 5.55,2.4; stroke-dashoffset: 0; stroke: #008000; stroke-width: 1.5"/>
    </g>
    <g id="text_16">
     <!-- Target -->
     <g transform="translate(549.470312 38.916562) scale(0.1 -0.1)">
      <use xlink:href="#DejaVuSans-54"/>
      <use xlink:href="#DejaVuSans-61" transform="translate(44.583984 0)"/>
      <use xlink:href="#DejaVuSans-72" transform="translate(105.863281 0)"/>
      <use xlink:href="#DejaVuSans-67" transform="translate(145.226562 0)"/>
      <use xlink:href="#DejaVuSans-65" transform="translate(208.703125 0)"/>
      <use xlink:href="#DejaVuSans-74" transform="translate(270.226562 0)"/>
     </g>
    </g>
    <g id="line2d_28">
     <path d="M 521.470312 50.094687 
L 531.470312 50.094687 
L 541.470312 50.094687 
" style="fill: none; stroke: #ff0000; stroke-width: 1.5; stroke-linecap: square"/>
    </g>
    <g id="text_17">
     <!-- Prediction -->
     <g transform="translate(549.470312 53.594687) scale(0.1 -0.1)">
      <use xlink:href="#DejaVuSans-50"/>
      <use xlink:href="#DejaVuSans-72" transform="translate(58.552734 0)"/>
      <use xlink:href="#DejaVuSans-65" transform="translate(97.416016 0)"/>
      <use xlink:href="#DejaVuSans-64" transform="translate(158.939453 0)"/>
      <use xlink:href="#DejaVuSans-69" transform="translate(222.416016 0)"/>
      <use xlink:href="#DejaVuSans-63" transform="translate(250.199219 0)"/>
      <use xlink:href="#DejaVuSans-74" transform="translate(305.179688 0)"/>
      <use xlink:href="#DejaVuSans-69" transform="translate(344.388672 0)"/>
      <use xlink:href="#DejaVuSans-6f" transform="translate(372.171875 0)"/>
      <use xlink:href="#DejaVuSans-6e" transform="translate(433.353516 0)"/>
     </g>
    </g>
   </g>
  </g>
 </g>
 <defs>
  <clipPath id="pb0f94c731c">
   <rect x="50.14375" y="22.318125" width="558" height="221.76"/>
  </clipPath>
 </defs>
</svg>
