<?xml version="1.0" encoding="utf-8" standalone="no"?>
<!DOCTYPE svg PUBLIC "-//W3C//DTD SVG 1.1//EN"
  "http://www.w3.org/Graphics/SVG/1.1/DTD/svg11.dtd">
<svg xmlns:xlink="http://www.w3.org/1999/xlink" width="615.34375pt" height="281.634375pt" viewBox="0 0 615.34375 281.634375" xmlns="http://www.w3.org/2000/svg" version="1.1">
 <metadata>
  <rdf:RDF xmlns:dc="http://purl.org/dc/elements/1.1/" xmlns:cc="http://creativecommons.org/ns#" xmlns:rdf="http://www.w3.org/1999/02/22-rdf-syntax-ns#">
   <cc:Work>
    <dc:type rdf:resource="http://purl.org/dc/dcmitype/StillImage"/>
    <dc:date>2026-03-19T17:22:46.606229</dc:date>
    <dc:format>image/svg+xml</dc:format>
    <dc:creator>
     <cc:Agent>
      <dc:title>Matplotlib v3.10.8, https://matplotlib.org/</dc:title>
     </cc:Agent>
    </dc:creator>
   </cc:Work>
  </rdf:RDF>
 </metadata>
 <defs>
  <style type="text/css">*{stroke-linejoin: round; stroke-linecap: butt}</style>
 </defs>
 <g id="figure_1">
  <g id="patch_1">
   <path d="M 0 281.634375 
L 615.34375 281.634375 
L 615.34375 0 
L 0 0 
z
" style="fill: #ffffff"/>
  </g>
  <g id="axes_1">
   <g id="patch_2">
    <path d="M 50.14375 244.078125 
L 608.14375 244.078125 
L 608.14375 22.318125 
L 50.14375 22.318125 
z
" style="fill: #ffffff"/>
   </g>
   <g id="matplotlib.axis_1">
    <g id="xtick_1">
     <g id="line2d_1">
      <path d="M 75.507386 244.078125 
L 75.507386 22.318125 
" clip-path="url(#pe76f372bfa)" style="fill: none; stroke: #b0b0b0; stroke-opacity: 0.3; stroke-width: 0.8; stroke-linecap: square"/>
     </g>
     <g id="line2d_2">
      <defs>
       <path id="m45839c2cb6" d="M 0 0 
L 0 3.5 
" style="stroke: #000000; stroke-width: 0.8"/>
      </defs>
      <g>
       <use xlink:href="#m45839c2cb6" x="75.507386" y="244.078125" style="stroke: #000000; stroke-width: 0.8"/>
      </g>
     </g>
     <g id="text_1">
      <!-- 0 -->
      <g transform="translate(72.326136 258.676562) scale(0.1 -0.1)">
       <defs>
        <path id="DejaVuSans-30" d="M 2034 4250 
Q 1547 4250 1301 3770 
Q 1056 3291 1056 2328 
Q 1056 1369 1301 889 
Q 1547 409 2034 409 
Q 2525 409 2770 889 
Q 3016 1369 3016 2328 
Q 3016 3291 2770 3770 
Q 2525 4250 2034 4250 
z
M 2034 4750 
Q 2819 4750 3233 4129 
Q 3647 3509 3647 2328 
Q 3647 1150 3233 529 
Q 2819 -91 2034 -91 
Q 1250 -91 836 529 
Q 422 1150 422 2328 
Q 422 3509 836 4129 
Q 1250 4750 2034 4750 
z
" transform="scale(0.015625)"/>
       </defs>
       <use xlink:href="#DejaVuSans-30"/>
      </g>
     </g>
    </g>
    <g id="xtick_2">
     <g id="line2d_3">
      <path d="M 160.62026 244.078125 
L 160.62026 22.318125 
" clip-path="url(#pe76f372bfa)" style="fill: none; stroke: #b0b0b0; stroke-opacity: 0.3; stroke-width: 0.8; stroke-linecap: square"/>
     </g>
     <g id="line2d_4">
      <g>
       <use xlink:href="#m45839c2cb6" x="160.62026" y="244.078125" style="stroke: #000000; stroke-width: 0.8"/>
      </g>
     </g>
     <g id="text_2">
      <!-- 50 -->
      <g transform="translate(154.25776 258.676562) scale(0.1 -0.1)">
       <defs>
        <path id="DejaVuSans-35" d="M 691 4666 
L 3169 4666 
L 3169 4134 
L 1269 4134 
L 1269 2991 
Q 1406 3038 1543 3061 
Q 1681 3084 1819 3084 
Q 2600 3084 3056 2656 
Q 3513 2228 3513 1497 
Q 3513 744 3044 326 
Q 2575 -91 1722 -91 
Q 1428 -91 1123 -41 
Q 819 9 494 109 
L 494 744 
Q 775 591 1075 516 
Q 1375 441 1709 441 
Q 2250 441 2565 725 
Q 2881 1009 2881 1497 
Q 2881 1984 2565 2268 
Q 2250 2553 1709 2553 
Q 1456 2553 1204 2497 
Q 953 2441 691 2322 
L 691 4666 
z
" transform="scale(0.015625)"/>
       </defs>
       <use xlink:href="#DejaVuSans-35"/>
       <use xlink:href="#DejaVuSans-30" transform="translate(63.623047 0)"/>
      </g>
     </g>
    </g>
    <g id="xtick_3">
     <g id="line2d_5">
      <path d="M 245.733134 244.078125 
L 245.733134 22.318125 
" clip-path="url(#pe76f372bfa)" style="fill: none; stroke: #b0b0b0; stroke-opacity: 0.3; stroke-width: 0.8; stroke-linecap: square"/>
     </g>
     <g id="line2d_6">
      <g>
       <use xlink:href="#m45839c2cb6" x="245.733134" y="244.078125" style="stroke: #000000; stroke-width: 0.8"/>
      </g>
     </g>
     <g id="text_3">
      <!-- 100 -->
      <g transform="translate(236.189384 258.676562) scale(0.1 -0.1)">
       <defs>
        <path id="DejaVuSans-31" d="M 794 531 
L 1825 531 
L 1825 4091 
L 703 3866 
L 703 4441 
L 1819 4666 
L 2450 4666 
L 2450 531 
L 3481 531 
L 3481 0 
L 794 0 
L 794 531 
z
" transform="scale(0.015625)"/>
       </defs>
       <use xlink:href="#DejaVuSans-31"/>
       <use xlink:href="#DejaVuSans-30" transform="translate(63.623047 0)"/>
       <use xlink:href="#DejaVuSans-30" transform="translate(127.246094 0)"/>
      </g>
     </g>
    </g>
    <g id="xtick_4">
     <g id="line2d_7">
      <path d="M 330.846007 244.078125 
L 330.846007 22.318125 
" clip-path="url(#pe76f372bfa)" style="fill: none; stroke: #b0b0b0; stroke-opacity: 0.3; stroke-width: 0.8; stroke-linecap: square"/>
     </g>
     <g id="line2d_8">
      <g>
       <use xlink:href="#m45839c2cb6" x="330.846007" y="244.078125" style="stroke: #000000; stroke-width: 0.8"/>
      </g>
     </g>
     <g id="text_4">
      <!-- 150 -->
      <g transform="translate(321.302257 258.676562) scale(0.1 -0.1)">
       <use xlink:href="#DejaVuSans-31"/>
       <use xlink:href="#DejaVuSans-35" transform="translate(63.623047 0)"/>
       <use xlink:href="#DejaVuSans-30" transform="translate(127.246094 0)"/>
      </g>
     </g>
    </g>
    <g id="xtick_5">
     <g id="line2d_9">
      <path d="M 415.958881 244.078125 
L 415.958881 22.318125 
" clip-path="url(#pe76f372bfa)" style="fill: none; stroke: #b0b0b0; stroke-opacity: 0.3; stroke-width: 0.8; stroke-linecap: square"/>
     </g>
     <g id="line2d_10">
      <g>
       <use xlink:href="#m45839c2cb6" x="415.958881" y="244.078125" style="stroke: #000000; stroke-width: 0.8"/>
      </g>
     </g>
     <g id="text_5">
      <!-- 200 -->
      <g transform="translate(406.415131 258.676562) scale(0.1 -0.1)">
       <defs>
        <path id="DejaVuSans-32" d="M 1228 531 
L 3431 531 
L 3431 0 
L 469 0 
L 469 531 
Q 828 903 1448 1529 
Q 2069 2156 2228 2338 
Q 2531 2678 2651 2914 
Q 2772 3150 2772 3378 
Q 2772 3750 2511 3984 
Q 2250 4219 1831 4219 
Q 1534 4219 1204 4116 
Q 875 4013 500 3803 
L 500 4441 
Q 881 4594 1212 4672 
Q 1544 4750 1819 4750 
Q 2544 4750 2975 4387 
Q 3406 4025 3406 3419 
Q 3406 3131 3298 2873 
Q 3191 2616 2906 2266 
Q 2828 2175 2409 1742 
Q 1991 1309 1228 531 
z
" transform="scale(0.015625)"/>
       </defs>
       <use xlink:href="#DejaVuSans-32"/>
       <use xlink:href="#DejaVuSans-30" transform="translate(63.623047 0)"/>
       <use xlink:href="#DejaVuSans-30" transform="translate(127.246094 0)"/>
      </g>
     </g>
    </g>
    <g id="xtick_6">
     <g id="line2d_11">
      <path d="M 501.071755 244.078125 
L 501.071755 22.318125 
" clip-path="url(#pe76f372bfa)" style="fill: none; stroke: #b0b0b0; stroke-opacity: 0.3; stroke-width: 0.8; stroke-linecap: square"/>
     </g>
     <g id="line2d_12">
      <g>
       <use xlink:href="#m45839c2cb6" x="501.071755" y="244.078125" style="stroke: #000000; stroke-width: 0.8"/>
      </g>
     </g>
     <g id="text_6">
      <!-- 250 -->
      <g transform="translate(491.528005 258.676562) scale(0.1 -0.1)">
       <use xlink:href="#DejaVuSans-32"/>
       <use xlink:href="#DejaVuSans-35" transform="translate(63.623047 0)"/>
       <use xlink:href="#DejaVuSans-30" transform="translate(127.246094 0)"/>
      </g>
     </g>
    </g>
    <g id="xtick_7">
     <g id="line2d_13">
      <path d="M 586.184629 244.078125 
L 586.184629 22.318125 
" clip-path="url(#pe76f372bfa)" style="fill: none; stroke: #b0b0b0; stroke-opacity: 0.3; stroke-width: 0.8; stroke-linecap: square"/>
     </g>
     <g id="line2d_14">
      <g>
       <use xlink:href="#m45839c2cb6" x="586.184629" y="244.078125" style="stroke: #000000; stroke-width: 0.8"/>
      </g>
     </g>
     <g id="text_7">
      <!-- 300 -->
      <g transform="translate(576.640879 258.676562) scale(0.1 -0.1)">
       <defs>
        <path id="DejaVuSans-33" d="M 2597 2516 
Q 3050 2419 3304 2112 
Q 3559 1806 3559 1356 
Q 3559 666 3084 287 
Q 2609 -91 1734 -91 
Q 1441 -91 1130 -33 
Q 819 25 488 141 
L 488 750 
Q 750 597 1062 519 
Q 1375 441 1716 441 
Q 2309 441 2620 675 
Q 2931 909 2931 1356 
Q 2931 1769 2642 2001 
Q 2353 2234 1838 2234 
L 1294 2234 
L 1294 2753 
L 1863 2753 
Q 2328 2753 2575 2939 
Q 2822 3125 2822 3475 
Q 2822 3834 2567 4026 
Q 2313 4219 1838 4219 
Q 1578 4219 1281 4162 
Q 984 4106 628 3988 
L 628 4550 
Q 988 4650 1302 4700 
Q 1616 4750 1894 4750 
Q 2613 4750 3031 4423 
Q 3450 4097 3450 3541 
Q 3450 3153 3228 2886 
Q 3006 2619 2597 2516 
z
" transform="scale(0.015625)"/>
       </defs>
       <use xlink:href="#DejaVuSans-33"/>
       <use xlink:href="#DejaVuSans-30" transform="translate(63.623047 0)"/>
       <use xlink:href="#DejaVuSans-30" transform="translate(127.246094 0)"/>
      </g>
     </g>
    </g>
    <g id="text_8">
     <!-- Time Steps -->
     <g transform="translate(301.33125 272.354687) scale(0.1 -0.1)">
      <defs>
       <path id="DejaVuSans-54" d="M -19 4666 
L 3928 4666 
L 3928 4134 
L 2272 4134 
L 2272 0 
L 1638 0 
L 1638 4134 
L -19 4134 
L -19 4666 
z
" transform="scale(0.015625)"/>
       <path id="DejaVuSans-69" d="M 603 3500 
L 1178 3500 
L 1178 0 
L 603 0 
L 603 3500 
z
M 603 4863 
L 1178 4863 
L 1178 4134 
L 603 4134 
L 603 4863 
z
" transform="scale(0.015625)"/>
       <path id="DejaVuSans-6d" d="M 3328 2828 
Q 3544 3216 3844 3400 
Q 4144 3584 4550 3584 
Q 5097 3584 5394 3201 
Q 5691 2819 5691 2113 
L 5691 0 
L 5113 0 
L 5113 2094 
Q 5113 2597 4934 2840 
Q 4756 3084 4391 3084 
Q 3944 3084 3684 2787 
Q 3425 2491 3425 1978 
L 3425 0 
L 2847 0 
L 2847 2094 
Q 2847 2600 2669 2842 
Q 2491 3084 2119 3084 
Q 1678 3084 1418 2786 
Q 1159 2488 1159 1978 
L 1159 0 
L 581 0 
L 581 3500 
L 1159 3500 
L 1159 2956 
Q 1356 3278 1631 3431 
Q 1906 3584 2284 3584 
Q 2666 3584 2933 3390 
Q 3200 3197 3328 2828 
z
" transform="scale(0.015625)"/>
       <path id="DejaVuSans-65" d="M 3597 1894 
L 3597 1613 
L 953 1613 
Q 991 1019 1311 708 
Q 1631 397 2203 397 
Q 2534 397 2845 478 
Q 3156 559 3463 722 
L 3463 178 
Q 3153 47 2828 -22 
Q 2503 -91 2169 -91 
Q 1331 -91 842 396 
Q 353 884 353 1716 
Q 353 2575 817 3079 
Q 1281 3584 2069 3584 
Q 2775 3584 3186 3129 
Q 3597 2675 3597 1894 
z
M 3022 2063 
Q 3016 2534 2758 2815 
Q 2500 3097 2075 3097 
Q 1594 3097 1305 2825 
Q 1016 2553 972 2059 
L 3022 2063 
z
" transform="scale(0.015625)"/>
       <path id="DejaVuSans-20" transform="scale(0.015625)"/>
       <path id="DejaVuSans-53" d="M 3425 4513 
L 3425 3897 
Q 3066 4069 2747 4153 
Q 2428 4238 2131 4238 
Q 1616 4238 1336 4038 
Q 1056 3838 1056 3469 
Q 1056 3159 1242 3001 
Q 1428 2844 1947 2747 
L 2328 2669 
Q 3034 2534 3370 2195 
Q 3706 1856 3706 1288 
Q 3706 609 3251 259 
Q 2797 -91 1919 -91 
Q 1588 -91 1214 -16 
Q 841 59 441 206 
L 441 856 
Q 825 641 1194 531 
Q 1563 422 1919 422 
Q 2459 422 2753 634 
Q 3047 847 3047 1241 
Q 3047 1584 2836 1778 
Q 2625 1972 2144 2069 
L 1759 2144 
Q 1053 2284 737 2584 
Q 422 2884 422 3419 
Q 422 4038 858 4394 
Q 1294 4750 2059 4750 
Q 2388 4750 2728 4690 
Q 3069 4631 3425 4513 
z
" transform="scale(0.015625)"/>
       <path id="DejaVuSans-74" d="M 1172 4494 
L 1172 3500 
L 2356 3500 
L 2356 3053 
L 1172 3053 
L 1172 1153 
Q 1172 725 1289 603 
Q 1406 481 1766 481 
L 2356 481 
L 2356 0 
L 1766 0 
Q 1100 0 847 248 
Q 594 497 594 1153 
L 594 3053 
L 172 3053 
L 172 3500 
L 594 3500 
L 594 4494 
L 1172 4494 
z
" transform="scale(0.015625)"/>
       <path id="DejaVuSans-70" d="M 1159 525 
L 1159 -1331 
L 581 -1331 
L 581 3500 
L 1159 3500 
L 1159 2969 
Q 1341 3281 1617 3432 
Q 1894 3584 2278 3584 
Q 2916 3584 3314 3078 
Q 3713 2572 3713 1747 
Q 3713 922 3314 415 
Q 2916 -91 2278 -91 
Q 1894 -91 1617 61 
Q 1341 213 1159 525 
z
M 3116 1747 
Q 3116 2381 2855 2742 
Q 2594 3103 2138 3103 
Q 1681 3103 1420 2742 
Q 1159 2381 1159 1747 
Q 1159 1113 1420 752 
Q 1681 391 2138 391 
Q 2594 391 2855 752 
Q 3116 1113 3116 1747 
z
" transform="scale(0.015625)"/>
       <path id="DejaVuSans-73" d="M 2834 3397 
L 2834 2853 
Q 2591 2978 2328 3040 
Q 2066 3103 1784 3103 
Q 1356 3103 1142 2972 
Q 928 2841 928 2578 
Q 928 2378 1081 2264 
Q 1234 2150 1697 2047 
L 1894 2003 
Q 2506 1872 2764 1633 
Q 3022 1394 3022 966 
Q 3022 478 2636 193 
Q 2250 -91 1575 -91 
Q 1294 -91 989 -36 
Q 684 19 347 128 
L 347 722 
Q 666 556 975 473 
Q 1284 391 1588 391 
Q 1994 391 2212 530 
Q 2431 669 2431 922 
Q 2431 1156 2273 1281 
Q 2116 1406 1581 1522 
L 1381 1569 
Q 847 1681 609 1914 
Q 372 2147 372 2553 
Q 372 3047 722 3315 
Q 1072 3584 1716 3584 
Q 2034 3584 2315 3537 
Q 2597 3491 2834 3397 
z
" transform="scale(0.015625)"/>
      </defs>
      <use xlink:href="#DejaVuSans-54"/>
      <use xlink:href="#DejaVuSans-69" transform="translate(57.958984 0)"/>
      <use xlink:href="#DejaVuSans-6d" transform="translate(85.742188 0)"/>
      <use xlink:href="#DejaVuSans-65" transform="translate(183.154297 0)"/>
      <use xlink:href="#DejaVuSans-20" transform="translate(244.677734 0)"/>
      <use xlink:href="#DejaVuSans-53" transform="translate(276.464844 0)"/>
      <use xlink:href="#DejaVuSans-74" transform="translate(339.941406 0)"/>
      <use xlink:href="#DejaVuSans-65" transform="translate(379.150391 0)"/>
      <use xlink:href="#DejaVuSans-70" transform="translate(440.673828 0)"/>
      <use xlink:href="#DejaVuSans-73" transform="translate(504.150391 0)"/>
     </g>
    </g>
   </g>
   <g id="matplotlib.axis_2">
    <g id="ytick_1">
     <g id="line2d_15">
      <path d="M 50.14375 227.877528 
L 608.14375 227.877528 
" clip-path="url(#pe76f372bfa)" style="fill: none; stroke: #b0b0b0; stroke-opacity: 0.3; stroke-width: 0.8; stroke-linecap: square"/>
     </g>
     <g id="line2d_16">
      <defs>
       <path id="m6f369b5f7b" d="M 0 0 
L -3.5 0 
" style="stroke: #000000; stroke-width: 0.8"/>
      </defs>
      <g>
       <use xlink:href="#m6f369b5f7b" x="50.14375" y="227.877528" style="stroke: #000000; stroke-width: 0.8"/>
      </g>
     </g>
     <g id="text_9">
      <!-- 0.18 -->
      <g transform="translate(20.878125 231.676747) scale(0.1 -0.1)">
       <defs>
        <path id="DejaVuSans-2e" d="M 684 794 
L 1344 794 
L 1344 0 
L 684 0 
L 684 794 
z
" transform="scale(0.015625)"/>
        <path id="DejaVuSans-38" d="M 2034 2216 
Q 1584 2216 1326 1975 
Q 1069 1734 1069 1313 
Q 1069 891 1326 650 
Q 1584 409 2034 409 
Q 2484 409 2743 651 
Q 3003 894 3003 1313 
Q 3003 1734 2745 1975 
Q 2488 2216 2034 2216 
z
M 1403 2484 
Q 997 2584 770 2862 
Q 544 3141 544 3541 
Q 544 4100 942 4425 
Q 1341 4750 2034 4750 
Q 2731 4750 3128 4425 
Q 3525 4100 3525 3541 
Q 3525 3141 3298 2862 
Q 3072 2584 2669 2484 
Q 3125 2378 3379 2068 
Q 3634 1759 3634 1313 
Q 3634 634 3220 271 
Q 2806 -91 2034 -91 
Q 1263 -91 848 271 
Q 434 634 434 1313 
Q 434 1759 690 2068 
Q 947 2378 1403 2484 
z
M 1172 3481 
Q 1172 3119 1398 2916 
Q 1625 2713 2034 2713 
Q 2441 2713 2670 2916 
Q 2900 3119 2900 3481 
Q 2900 3844 2670 4047 
Q 2441 4250 2034 4250 
Q 1625 4250 1398 4047 
Q 1172 3844 1172 3481 
z
" transform="scale(0.015625)"/>
       </defs>
       <use xlink:href="#DejaVuSans-30"/>
       <use xlink:href="#DejaVuSans-2e" transform="translate(63.623047 0)"/>
       <use xlink:href="#DejaVuSans-31" transform="translate(95.410156 0)"/>
       <use xlink:href="#DejaVuSans-38" transform="translate(159.033203 0)"/>
      </g>
     </g>
    </g>
    <g id="ytick_2">
     <g id="line2d_17">
      <path d="M 50.14375 180.971165 
L 608.14375 180.971165 
" clip-path="url(#pe76f372bfa)" style="fill: none; stroke: #b0b0b0; stroke-opacity: 0.3; stroke-width: 0.8; stroke-linecap: square"/>
     </g>
     <g id="line2d_18">
      <g>
       <use xlink:href="#m6f369b5f7b" x="50.14375" y="180.971165" style="stroke: #000000; stroke-width: 0.8"/>
      </g>
     </g>
     <g id="text_10">
      <!-- 0.20 -->
      <g transform="translate(20.878125 184.770384) scale(0.1 -0.1)">
       <use xlink:href="#DejaVuSans-30"/>
       <use xlink:href="#DejaVuSans-2e" transform="translate(63.623047 0)"/>
       <use xlink:href="#DejaVuSans-32" transform="translate(95.410156 0)"/>
       <use xlink:href="#DejaVuSans-30" transform="translate(159.033203 0)"/>
      </g>
     </g>
    </g>
    <g id="ytick_3">
     <g id="line2d_19">
      <path d="M 50.14375 134.064802 
L 608.14375 134.064802 
" clip-path="url(#pe76f372bfa)" style="fill: none; stroke: #b0b0b0; stroke-opacity: 0.3; stroke-width: 0.8; stroke-linecap: square"/>
     </g>
     <g id="line2d_20">
      <g>
       <use xlink:href="#m6f369b5f7b" x="50.14375" y="134.064802" style="stroke: #000000; stroke-width: 0.8"/>
      </g>
     </g>
     <g id="text_11">
      <!-- 0.22 -->
      <g transform="translate(20.878125 137.864021) scale(0.1 -0.1)">
       <use xlink:href="#DejaVuSans-30"/>
       <use xlink:href="#DejaVuSans-2e" transform="translate(63.623047 0)"/>
       <use xlink:href="#DejaVuSans-32" transform="translate(95.410156 0)"/>
       <use xlink:href="#DejaVuSans-32" transform="translate(159.033203 0)"/>
      </g>
     </g>
    </g>
    <g id="ytick_4">
     <g id="line2d_21">
      <path d="M 50.14375 87.158439 
L 608.14375 87.158439 
" clip-path="url(#pe76f372bfa)" style="fill: none; stroke: #b0b0b0; stroke-opacity: 0.3; stroke-width: 0.8; stroke-linecap: square"/>
     </g>
     <g id="line2d_22">
      <g>
       <use xlink:href="#m6f369b5f7b" x="50.14375" y="87.158439" style="stroke: #000000; stroke-width: 0.8"/>
      </g>
     </g>
     <g id="text_12">
      <!-- 0.24 -->
      <g transform="translate(20.878125 90.957657) scale(0.1 -0.1)">
       <defs>
        <path id="DejaVuSans-34" d="M 2419 4116 
L 825 1625 
L 2419 1625 
L 2419 4116 
z
M 2253 4666 
L 3047 4666 
L 3047 1625 
L 3713 1625 
L 3713 1100 
L 3047 1100 
L 3047 0 
L 2419 0 
L 2419 1100 
L 313 1100 
L 313 1709 
L 2253 4666 
z
" transform="scale(0.015625)"/>
       </defs>
       <use xlink:href="#DejaVuSans-30"/>
       <use xlink:href="#DejaVuSans-2e" transform="translate(63.623047 0)"/>
       <use xlink:href="#DejaVuSans-32" transform="translate(95.410156 0)"/>
       <use xlink:href="#DejaVuSans-34" transform="translate(159.033203 0)"/>
      </g>
     </g>
    </g>
    <g id="ytick_5">
     <g id="line2d_23">
      <path d="M 50.14375 40.252075 
L 608.14375 40.252075 
" clip-path="url(#pe76f372bfa)" style="fill: none; stroke: #b0b0b0; stroke-opacity: 0.3; stroke-width: 0.8; stroke-linecap: square"/>
     </g>
     <g id="line2d_24">
      <g>
       <use xlink:href="#m6f369b5f7b" x="50.14375" y="40.252075" style="stroke: #000000; stroke-width: 0.8"/>
      </g>
     </g>
     <g id="text_13">
      <!-- 0.26 -->
      <g transform="translate(20.878125 44.051294) scale(0.1 -0.1)">
       <defs>
        <path id="DejaVuSans-36" d="M 2113 2584 
Q 1688 2584 1439 2293 
Q 1191 2003 1191 1497 
Q 1191 994 1439 701 
Q 1688 409 2113 409 
Q 2538 409 2786 701 
Q 3034 994 3034 1497 
Q 3034 2003 2786 2293 
Q 2538 2584 2113 2584 
z
M 3366 4563 
L 3366 3988 
Q 3128 4100 2886 4159 
Q 2644 4219 2406 4219 
Q 1781 4219 1451 3797 
Q 1122 3375 1075 2522 
Q 1259 2794 1537 2939 
Q 1816 3084 2150 3084 
Q 2853 3084 3261 2657 
Q 3669 2231 3669 1497 
Q 3669 778 3244 343 
Q 2819 -91 2113 -91 
Q 1303 -91 875 529 
Q 447 1150 447 2328 
Q 447 3434 972 4092 
Q 1497 4750 2381 4750 
Q 2619 4750 2861 4703 
Q 3103 4656 3366 4563 
z
" transform="scale(0.015625)"/>
       </defs>
       <use xlink:href="#DejaVuSans-30"/>
       <use xlink:href="#DejaVuSans-2e" transform="translate(63.623047 0)"/>
       <use xlink:href="#DejaVuSans-32" transform="translate(95.410156 0)"/>
       <use xlink:href="#DejaVuSans-36" transform="translate(159.033203 0)"/>
      </g>
     </g>
    </g>
    <g id="text_14">
     <!-- Signal Value -->
     <g transform="translate(14.798437 163.877812) rotate(-90) scale(0.1 -0.1)">
      <defs>
       <path id="DejaVuSans-67" d="M 2906 1791 
Q 2906 2416 2648 2759 
Q 2391 3103 1925 3103 
Q 1463 3103 1205 2759 
Q 947 2416 947 1791 
Q 947 1169 1205 825 
Q 1463 481 1925 481 
Q 2391 481 2648 825 
Q 2906 1169 2906 1791 
z
M 3481 434 
Q 3481 -459 3084 -895 
Q 2688 -1331 1869 -1331 
Q 1566 -1331 1297 -1286 
Q 1028 -1241 775 -1147 
L 775 -588 
Q 1028 -725 1275 -790 
Q 1522 -856 1778 -856 
Q 2344 -856 2625 -561 
Q 2906 -266 2906 331 
L 2906 616 
Q 2728 306 2450 153 
Q 2172 0 1784 0 
Q 1141 0 747 490 
Q 353 981 353 1791 
Q 353 2603 747 3093 
Q 1141 3584 1784 3584 
Q 2172 3584 2450 3431 
Q 2728 3278 2906 2969 
L 2906 3500 
L 3481 3500 
L 3481 434 
z
" transform="scale(0.015625)"/>
       <path id="DejaVuSans-6e" d="M 3513 2113 
L 3513 0 
L 2938 0 
L 2938 2094 
Q 2938 2591 2744 2837 
Q 2550 3084 2163 3084 
Q 1697 3084 1428 2787 
Q 1159 2491 1159 1978 
L 1159 0 
L 581 0 
L 581 3500 
L 1159 3500 
L 1159 2956 
Q 1366 3272 1645 3428 
Q 1925 3584 2291 3584 
Q 2894 3584 3203 3211 
Q 3513 2838 3513 2113 
z
" transform="scale(0.015625)"/>
       <path id="DejaVuSans-61" d="M 2194 1759 
Q 1497 1759 1228 1600 
Q 959 1441 959 1056 
Q 959 750 1161 570 
Q 1363 391 1709 391 
Q 2188 391 2477 730 
Q 2766 1069 2766 1631 
L 2766 1759 
L 2194 1759 
z
M 3341 1997 
L 3341 0 
L 2766 0 
L 2766 531 
Q 2569 213 2275 61 
Q 1981 -91 1556 -91 
Q 1019 -91 701 211 
Q 384 513 384 1019 
Q 384 1609 779 1909 
Q 1175 2209 1959 2209 
L 2766 2209 
L 2766 2266 
Q 2766 2663 2505 2880 
Q 2244 3097 1772 3097 
Q 1472 3097 1187 3025 
Q 903 2953 641 2809 
L 641 3341 
Q 956 3463 1253 3523 
Q 1550 3584 1831 3584 
Q 2591 3584 2966 3190 
Q 3341 2797 3341 1997 
z
" transform="scale(0.015625)"/>
       <path id="DejaVuSans-6c" d="M 603 4863 
L 1178 4863 
L 1178 0 
L 603 0 
L 603 4863 
z
" transform="scale(0.015625)"/>
       <path id="DejaVuSans-56" d="M 1831 0 
L 50 4666 
L 709 4666 
L 2188 738 
L 3669 4666 
L 4325 4666 
L 2547 0 
L 1831 0 
z
" transform="scale(0.015625)"/>
       <path id="DejaVuSans-75" d="M 544 1381 
L 544 3500 
L 1119 3500 
L 1119 1403 
Q 1119 906 1312 657 
Q 1506 409 1894 409 
Q 2359 409 2629 706 
Q 2900 1003 2900 1516 
L 2900 3500 
L 3475 3500 
L 3475 0 
L 2900 0 
L 2900 538 
Q 2691 219 2414 64 
Q 2138 -91 1772 -91 
Q 1169 -91 856 284 
Q 544 659 544 1381 
z
M 1991 3584 
L 1991 3584 
z
" transform="scale(0.015625)"/>
      </defs>
      <use xlink:href="#DejaVuSans-53"/>
      <use xlink:href="#DejaVuSans-69" transform="translate(63.476562 0)"/>
      <use xlink:href="#DejaVuSans-67" transform="translate(91.259766 0)"/>
      <use xlink:href="#DejaVuSans-6e" transform="translate(154.736328 0)"/>
      <use xlink:href="#DejaVuSans-61" transform="translate(218.115234 0)"/>
      <use xlink:href="#DejaVuSans-6c" transform="translate(279.394531 0)"/>
      <use xlink:href="#DejaVuSans-20" transform="translate(307.177734 0)"/>
      <use xlink:href="#DejaVuSans-56" transform="translate(338.964844 0)"/>
      <use xlink:href="#DejaVuSans-61" transform="translate(399.623047 0)"/>
      <use xlink:href="#DejaVuSans-6c" transform="translate(460.902344 0)"/>
      <use xlink:href="#DejaVuSans-75" transform="translate(488.685547 0)"/>
      <use xlink:href="#DejaVuSans-65" transform="translate(552.064453 0)"/>
     </g>
    </g>
   </g>
   <g id="line2d_25">
    <path d="M 75.507386 191.804622 
L 78.911901 170.240981 
L 80.614159 165.605431 
L 82.316416 167.346988 
L 84.018674 170.213 
L 85.720931 159.554375 
L 87.423189 136.097975 
L 89.125446 122.603067 
L 90.827704 112.632573 
L 92.529961 107.909084 
L 94.232219 109.610261 
L 95.934476 119.613377 
L 97.636734 146.766335 
L 99.338991 168.212351 
L 101.041248 181.376056 
L 102.743506 189.512542 
L 104.445763 194.418101 
L 106.148021 197.133328 
L 107.850278 198.089669 
L 109.552536 192.866762 
L 111.254793 167.739126 
L 112.957051 140.877664 
L 114.659308 126.954732 
L 116.361566 125.687527 
L 118.063823 130.492303 
L 119.766081 127.252681 
L 121.468338 129.761743 
L 123.170596 142.809444 
L 124.872853 149.759261 
L 126.575111 149.41407 
L 128.277368 146.526386 
L 129.979626 148.668745 
L 131.681883 164.695406 
L 133.38414 178.132045 
L 135.086398 187.023653 
L 136.788655 192.791728 
L 138.490913 196.431221 
L 140.19317 198.602583 
L 141.895428 199.598755 
L 143.597685 194.078482 
L 145.299943 166.150559 
L 147.0022 133.76072 
L 148.704458 104.897825 
L 150.406715 81.619376 
L 152.108973 72.29688 
L 153.81123 73.423399 
L 155.513488 100.097441 
L 157.215745 132.76096 
L 158.918003 153.523964 
L 160.62026 165.199779 
L 162.322518 172.031271 
L 164.024775 176.941386 
L 165.727032 183.536675 
L 167.42929 187.991969 
L 169.131547 189.502722 
L 170.833805 192.434385 
L 172.536062 195.980381 
L 174.23832 198.098556 
L 175.940577 198.895017 
L 177.642835 193.265087 
L 179.345092 173.243764 
L 181.04735 151.349103 
L 182.749607 117.442154 
L 184.451865 69.631587 
L 186.154122 35.689245 
L 187.85638 32.398125 
L 189.558637 71.869352 
L 191.260895 115.062331 
L 192.963152 144.016647 
L 194.66541 163.862245 
L 196.367667 177.513474 
L 198.069924 186.454108 
L 199.772182 191.864272 
L 201.474439 192.621766 
L 203.176697 188.316316 
L 204.878954 188.013779 
L 206.581212 190.226345 
L 208.283469 191.3134 
L 209.985727 190.625306 
L 211.687984 183.878353 
L 213.390242 174.131355 
L 215.092499 166.318417 
L 216.794757 141.750977 
L 218.497014 92.720721 
L 220.199272 53.097296 
L 221.901529 44.133864 
L 223.603787 75.995412 
L 225.306044 113.35185 
L 227.008302 141.364913 
L 228.710559 163.386584 
L 230.412817 178.527071 
L 232.115074 187.756339 
L 233.817331 193.356021 
L 235.519589 195.010683 
L 237.221846 190.818398 
L 238.924104 187.565779 
L 240.626361 183.410005 
L 244.030876 165.088881 
L 245.733134 157.434113 
L 247.435391 158.60017 
L 249.137649 162.735551 
L 250.839906 151.843909 
L 252.542164 125.981317 
L 254.244421 108.437976 
L 255.946679 104.200983 
L 257.648936 117.171097 
L 262.755709 168.830461 
L 264.457966 181.948293 
L 266.160223 189.852226 
L 267.862481 194.689651 
L 269.564738 197.197272 
L 271.266996 195.749674 
L 272.969253 192.671087 
L 274.671511 179.938414 
L 276.373768 147.744116 
L 278.076026 118.762865 
L 279.778283 106.751497 
L 281.480541 117.000913 
L 283.182798 132.359531 
L 284.885056 135.612641 
L 286.587313 136.939633 
L 288.289571 145.6933 
L 289.991828 152.293333 
L 291.694086 157.292946 
L 293.396343 159.235809 
L 295.098601 163.075294 
L 296.800858 176.122664 
L 298.503115 186.289723 
L 300.205373 192.424211 
L 301.90763 196.170595 
L 303.609888 198.200363 
L 305.312145 198.393389 
L 307.014403 196.496379 
L 308.71666 180.921048 
L 312.121175 88.42553 
L 313.823433 63.977824 
L 315.52569 67.976973 
L 317.227948 84.244835 
L 318.930205 98.263424 
L 322.33472 149.576049 
L 324.036978 166.057336 
L 325.739235 175.450384 
L 327.441493 178.858462 
L 329.14375 180.506017 
L 330.846007 186.305071 
L 332.548265 190.896323 
L 334.250522 193.013312 
L 335.95278 194.944998 
L 337.655037 196.471949 
L 339.357295 197.311609 
L 341.059552 196.090076 
L 342.76181 181.548475 
L 346.166325 101.94156 
L 347.868582 69.207618 
L 349.57084 49.932068 
L 351.273097 46.86992 
L 352.975355 62.851792 
L 354.677612 104.452362 
L 356.37987 139.75095 
L 358.082127 162.870617 
L 359.784385 177.359268 
L 361.486642 185.554703 
L 363.188899 190.196298 
L 364.891157 193.400533 
L 366.593414 193.200044 
L 368.295672 188.045388 
L 369.997929 186.420871 
L 373.402444 189.164809 
L 375.104702 188.229127 
L 376.806959 175.063444 
L 378.509217 153.471975 
L 380.211474 137.621874 
L 381.913732 111.351401 
L 383.615989 77.624449 
L 385.318247 57.441576 
L 387.020504 65.858338 
L 388.722762 106.161863 
L 390.425019 140.431823 
L 392.127277 163.31332 
L 393.829534 178.242965 
L 395.531791 187.561321 
L 397.234049 193.239083 
L 398.936306 196.497374 
L 400.638564 194.711456 
L 402.340821 182.737478 
L 404.043079 174.315955 
L 409.149851 159.937114 
L 410.852109 149.683225 
L 412.554366 148.124416 
L 414.256624 152.012148 
L 415.958881 142.567807 
L 417.661139 121.065417 
L 419.363396 106.079542 
L 421.065654 109.401665 
L 422.767911 133.633713 
L 424.470169 155.457069 
L 426.172426 170.662384 
L 427.874683 182.923116 
L 429.576941 190.465534 
L 431.279198 195.06273 
L 432.981456 197.811344 
L 434.683713 196.645498 
L 436.385971 186.612055 
L 438.088228 174.885204 
L 439.790486 155.917363 
L 441.492743 127.822849 
L 443.195001 106.145305 
L 444.897258 99.005324 
L 446.599516 116.563372 
L 448.301773 137.24071 
L 450.004031 144.865877 
L 451.706288 146.40848 
L 453.408546 150.507626 
L 455.110803 156.824105 
L 456.813061 166.479294 
L 458.515318 172.892372 
L 460.217576 178.070566 
L 461.919833 186.512624 
L 463.62209 192.705237 
L 465.324348 196.399372 
L 467.026605 198.532544 
L 468.728863 197.6184 
L 470.43112 192.499858 
L 472.133378 183.531008 
L 473.835635 155.022848 
L 475.537893 99.295052 
L 477.24015 55.092381 
L 478.942408 43.412928 
L 480.644665 70.808261 
L 482.346923 103.091426 
L 485.751438 146.212114 
L 487.453695 164.312131 
L 489.155953 176.064097 
L 490.85821 182.972997 
L 492.560468 184.376995 
L 494.262725 183.943679 
L 495.964982 188.738834 
L 497.66724 193.180513 
L 499.369497 195.441876 
L 501.071755 196.310237 
L 502.774012 195.326781 
L 504.47627 193.465768 
L 506.178527 188.793699 
L 507.880785 161.698544 
L 509.583042 104.13305 
L 511.2853 57.403802 
L 512.987557 37.042558 
L 514.689815 52.024115 
L 518.09433 104.501296 
L 519.796587 137.787248 
L 521.498845 162.306535 
L 523.201102 177.548528 
L 524.90336 186.776326 
L 526.605617 190.531129 
L 528.307874 191.293599 
L 530.010132 192.853883 
L 531.712389 192.131765 
L 533.414647 187.614222 
L 535.116904 184.758776 
L 536.819162 183.80245 
L 538.521419 184.837683 
L 540.223677 182.896662 
L 541.925934 162.608453 
L 543.628192 128.085312 
L 545.330449 103.661756 
L 547.032707 83.769736 
L 548.734964 78.076883 
L 550.437222 82.658109 
L 552.139479 102.701064 
L 553.841737 137.651719 
L 555.543994 162.363324 
L 557.246252 177.752717 
L 558.948509 187.262024 
L 560.650766 192.917778 
L 562.353024 196.020005 
L 564.055281 196.841257 
L 565.757539 191.324116 
L 567.459796 172.542229 
L 569.162054 159.478971 
L 570.864311 154.872807 
L 572.566569 156.687397 
L 574.268826 156.501899 
L 575.971084 144.917091 
L 577.673341 138.864262 
L 579.375599 140.690396 
L 581.077856 134.551379 
L 582.780114 124.513002 
L 582.780114 124.513002 
" clip-path="url(#pe76f372bfa)" style="fill: none; stroke-dasharray: 5.55,2.4; stroke-dashoffset: 0; stroke: #008000; stroke-width: 1.5"/>
   </g>
   <g id="line2d_26">
    <path d="M 75.507386 198.714816 
L 77.209644 172.599992 
L 78.911901 144.301862 
L 80.614159 135.716954 
L 82.316416 174.988275 
L 84.018674 167.531819 
L 85.720931 153.952002 
L 87.423189 138.349146 
L 89.125446 126.461033 
L 90.827704 104.652249 
L 92.529961 139.404134 
L 94.232219 127.407856 
L 95.934476 105.348209 
L 97.636734 148.240548 
L 99.338991 176.888031 
L 101.041248 172.240042 
L 102.743506 193.146654 
L 104.445763 191.32614 
L 106.148021 219.313061 
L 107.850278 205.237208 
L 109.552536 192.328625 
L 111.254793 139.119047 
L 112.957051 120.832413 
L 114.659308 116.194048 
L 116.361566 119.485323 
L 118.063823 138.353998 
L 119.766081 119.843477 
L 121.468338 137.501414 
L 123.170596 145.164796 
L 124.872853 168.688308 
L 126.575111 156.725172 
L 129.979626 110.204316 
L 131.681883 162.994485 
L 133.38414 166.32561 
L 135.086398 175.729362 
L 136.788655 173.80702 
L 138.490913 200.507714 
L 140.19317 217.329431 
L 141.895428 213.652435 
L 143.597685 208.504013 
L 145.299943 122.771827 
L 147.0022 104.780846 
L 148.704458 99.403851 
L 150.406715 102.74972 
L 152.108973 85.893468 
L 153.81123 118.215688 
L 155.513488 117.630231 
L 157.215745 129.785531 
L 158.918003 168.58231 
L 160.62026 175.36375 
L 162.322518 157.216221 
L 164.024775 182.071854 
L 165.727032 177.015844 
L 167.42929 181.061432 
L 169.131547 162.87849 
L 170.833805 148.604239 
L 172.536062 165.160763 
L 174.23832 217.122686 
L 175.940577 180.540669 
L 177.642835 204.364213 
L 181.04735 105.031209 
L 182.749607 84.922234 
L 184.451865 93.903785 
L 186.154122 63.799161 
L 187.85638 64.395809 
L 189.558637 107.324253 
L 191.260895 153.79019 
L 192.963152 138.841652 
L 194.66541 169.460874 
L 196.367667 205.334791 
L 198.069924 189.699111 
L 199.772182 187.9793 
L 201.474439 199.64922 
L 203.176697 162.595423 
L 204.878954 155.821335 
L 206.581212 184.536252 
L 208.283469 186.617121 
L 209.985727 157.221826 
L 211.687984 157.944664 
L 213.390242 165.745719 
L 215.092499 138.713427 
L 216.794757 121.412662 
L 218.497014 108.059155 
L 220.199272 73.189336 
L 221.901529 77.066281 
L 223.603787 99.492805 
L 225.306044 135.531401 
L 227.008302 140.641541 
L 228.710559 139.643527 
L 230.412817 177.589302 
L 232.115074 191.050113 
L 233.817331 225.595503 
L 235.519589 221.197978 
L 237.221846 166.332582 
L 238.924104 156.245901 
L 240.626361 185.787881 
L 242.328619 176.920983 
L 244.030876 135.467767 
L 245.733134 157.577854 
L 247.435391 155.02289 
L 249.137649 140.699253 
L 250.839906 146.624634 
L 252.542164 138.622075 
L 254.244421 100.045108 
L 255.946679 128.16755 
L 257.648936 132.756544 
L 259.351194 123.086235 
L 261.053451 148.105388 
L 262.755709 156.274191 
L 264.457966 182.849263 
L 266.160223 198.333604 
L 267.862481 225.429607 
L 269.564738 229.65055 
L 271.266996 202.481458 
L 272.969253 190.988024 
L 274.671511 155.697023 
L 276.373768 123.493162 
L 278.076026 112.659876 
L 279.778283 104.307669 
L 281.480541 128.880848 
L 283.182798 141.571787 
L 286.587313 158.007737 
L 288.289571 146.330659 
L 289.991828 160.185229 
L 291.694086 170.162287 
L 293.396343 165.909258 
L 295.098601 132.101533 
L 296.800858 164.268123 
L 298.503115 186.647129 
L 300.205373 184.602832 
L 301.90763 179.791633 
L 303.609888 207.523893 
L 305.312145 218.450886 
L 307.014403 192.913505 
L 308.71666 155.644468 
L 310.418918 122.355226 
L 312.121175 86.596895 
L 313.823433 77.43852 
L 315.52569 100.139118 
L 317.227948 104.606395 
L 318.930205 112.267053 
L 320.632463 125.564832 
L 322.33472 163.258409 
L 324.036978 180.237263 
L 325.739235 168.424302 
L 327.441493 158.827083 
L 329.14375 176.664904 
L 330.846007 174.916135 
L 332.548265 196.579673 
L 334.250522 178.569281 
L 335.95278 163.286863 
L 337.655037 182.270348 
L 339.357295 210.510876 
L 341.059552 191.053754 
L 342.76181 175.247472 
L 344.464067 112.531262 
L 346.166325 103.476836 
L 347.868582 70.610251 
L 349.57084 97.568787 
L 351.273097 92.837118 
L 352.975355 94.198644 
L 354.677612 146.986386 
L 356.37987 149.86949 
L 358.082127 159.918378 
L 359.784385 184.366078 
L 361.486642 212.722626 
L 363.188899 193.360907 
L 364.891157 205.923215 
L 366.593414 201.951938 
L 368.295672 154.381028 
L 369.997929 166.104497 
L 371.700187 169.962293 
L 373.402444 179.819253 
L 375.104702 175.106361 
L 378.509217 133.622413 
L 380.211474 123.624364 
L 381.913732 88.25426 
L 383.615989 102.272655 
L 385.318247 82.208657 
L 387.020504 69.268684 
L 388.722762 141.140934 
L 390.425019 149.364841 
L 392.127277 145.120839 
L 393.829534 170.058431 
L 395.531791 203.817485 
L 397.234049 209.427287 
L 398.936306 219.434809 
L 400.638564 200.323627 
L 402.340821 165.346527 
L 404.043079 157.570732 
L 405.745336 174.482661 
L 407.447594 162.766051 
L 409.149851 132.324314 
L 410.852109 139.609128 
L 412.554366 140.334884 
L 414.256624 142.736237 
L 415.958881 141.841789 
L 417.661139 142.339974 
L 419.363396 91.853109 
L 421.065654 123.619299 
L 422.767911 131.384667 
L 424.470169 152.724075 
L 426.172426 155.739172 
L 427.874683 160.031029 
L 431.279198 204.837743 
L 432.981456 233.998125 
L 434.683713 222.869251 
L 436.385971 174.792609 
L 438.088228 156.515316 
L 439.790486 128.898829 
L 441.492743 119.768461 
L 443.195001 93.56721 
L 444.897258 115.107828 
L 446.599516 133.82677 
L 448.301773 131.588685 
L 450.004031 151.5722 
L 451.706288 152.422197 
L 453.408546 127.504738 
L 455.110803 140.426841 
L 456.813061 164.933198 
L 458.515318 164.432242 
L 460.217576 158.858555 
L 461.919833 162.304058 
L 463.62209 177.901875 
L 465.324348 199.534345 
L 467.026605 208.908074 
L 468.728863 201.250929 
L 470.43112 191.61976 
L 472.133378 154.544577 
L 473.835635 122.409259 
L 475.537893 102.338881 
L 477.24015 57.13309 
L 478.942408 70.117861 
L 480.644665 120.589177 
L 482.346923 140.901628 
L 484.04918 132.649491 
L 485.751438 150.590192 
L 487.453695 171.403567 
L 489.155953 181.375491 
L 490.85821 188.313086 
L 492.560468 198.149039 
L 494.262725 138.969383 
L 495.964982 147.535264 
L 497.66724 181.578389 
L 499.369497 185.881575 
L 501.071755 170.518051 
L 502.774012 192.400898 
L 504.47627 181.585618 
L 507.880785 139.240048 
L 509.583042 102.431329 
L 511.2853 68.544148 
L 512.987557 61.796714 
L 514.689815 95.506357 
L 516.392072 83.199241 
L 518.09433 115.973865 
L 519.796587 141.267323 
L 521.498845 169.972542 
L 524.90336 207.913433 
L 526.605617 207.818775 
L 528.307874 193.403476 
L 530.010132 191.98994 
L 531.712389 196.119202 
L 533.414647 163.950069 
L 535.116904 174.337063 
L 536.819162 160.908724 
L 538.521419 181.244808 
L 540.223677 180.378211 
L 541.925934 144.116622 
L 543.628192 120.51074 
L 545.330449 108.902497 
L 547.032707 84.382908 
L 548.734964 122.30144 
L 550.437222 100.800852 
L 552.139479 98.011414 
L 555.543994 169.193525 
L 557.246252 187.39918 
L 558.948509 198.030401 
L 560.650766 223.327906 
L 562.353024 214.671254 
L 564.055281 215.245398 
L 565.757539 185.329828 
L 567.459796 151.057794 
L 569.162054 142.791843 
L 570.864311 163.773194 
L 572.566569 151.044833 
L 574.268826 143.882975 
L 575.971084 142.53905 
L 577.673341 137.957623 
L 579.375599 136.801807 
L 581.077856 139.794237 
L 582.780114 132.021069 
L 582.780114 132.021069 
" clip-path="url(#pe76f372bfa)" style="fill: none; stroke: #ff0000; stroke-width: 1.5; stroke-linecap: square"/>
   </g>
   <g id="patch_3">
    <path d="M 50.14375 244.078125 
L 50.14375 22.318125 
" style="fill: none; stroke: #000000; stroke-width: 0.8; stroke-linejoin: miter; stroke-linecap: square"/>
   </g>
   <g id="patch_4">
    <path d="M 608.14375 244.078125 
L 608.14375 22.318125 
" style="fill: none; stroke: #000000; stroke-width: 0.8; stroke-linejoin: miter; stroke-linecap: square"/>
   </g>
   <g id="patch_5">
    <path d="M 50.14375 244.078125 
L 608.14375 244.078125 
" style="fill: none; stroke: #000000; stroke-width: 0.8; stroke-linejoin: miter; stroke-linecap: square"/>
   </g>
   <g id="patch_6">
    <path d="M 50.14375 22.318125 
L 608.14375 22.318125 
" style="fill: none; stroke: #000000; stroke-width: 0.8; stroke-linejoin: miter; stroke-linecap: square"/>
   </g>
   <g id="text_15">
    <!-- Task Performance: NARMA2 (validation set) -->
    <g transform="translate(199.271875 16.318125) scale(0.12 -0.12)">
     <defs>
      <path id="DejaVuSans-6b" d="M 581 4863 
L 1159 4863 
L 1159 1991 
L 2875 3500 
L 3609 3500 
L 1753 1863 
L 3688 0 
L 2938 0 
L 1159 1709 
L 1159 0 
L 581 0 
L 581 4863 
z
" transform="scale(0.015625)"/>
      <path id="DejaVuSans-50" d="M 1259 4147 
L 1259 2394 
L 2053 2394 
Q 2494 2394 2734 2622 
Q 2975 2850 2975 3272 
Q 2975 3691 2734 3919 
Q 2494 4147 2053 4147 
L 1259 4147 
z
M 628 4666 
L 2053 4666 
Q 2838 4666 3239 4311 
Q 3641 3956 3641 3272 
Q 3641 2581 3239 2228 
Q 2838 1875 2053 1875 
L 1259 1875 
L 1259 0 
L 628 0 
L 628 4666 
z
" transform="scale(0.015625)"/>
      <path id="DejaVuSans-72" d="M 2631 2963 
Q 2534 3019 2420 3045 
Q 2306 3072 2169 3072 
Q 1681 3072 1420 2755 
Q 1159 2438 1159 1844 
L 1159 0 
L 581 0 
L 581 3500 
L 1159 3500 
L 1159 2956 
Q 1341 3275 1631 3429 
Q 1922 3584 2338 3584 
Q 2397 3584 2469 3576 
Q 2541 3569 2628 3553 
L 2631 2963 
z
" transform="scale(0.015625)"/>
      <path id="DejaVuSans-66" d="M 2375 4863 
L 2375 4384 
L 1825 4384 
Q 1516 4384 1395 4259 
Q 1275 4134 1275 3809 
L 1275 3500 
L 2222 3500 
L 2222 3053 
L 1275 3053 
L 1275 0 
L 697 0 
L 697 3053 
L 147 3053 
L 147 3500 
L 697 3500 
L 697 3744 
Q 697 4328 969 4595 
Q 1241 4863 1831 4863 
L 2375 4863 
z
" transform="scale(0.015625)"/>
      <path id="DejaVuSans-6f" d="M 1959 3097 
Q 1497 3097 1228 2736 
Q 959 2375 959 1747 
Q 959 1119 1226 758 
Q 1494 397 1959 397 
Q 2419 397 2687 759 
Q 2956 1122 2956 1747 
Q 2956 2369 2687 2733 
Q 2419 3097 1959 3097 
z
M 1959 3584 
Q 2709 3584 3137 3096 
Q 3566 2609 3566 1747 
Q 3566 888 3137 398 
Q 2709 -91 1959 -91 
Q 1206 -91 779 398 
Q 353 888 353 1747 
Q 353 2609 779 3096 
Q 1206 3584 1959 3584 
z
" transform="scale(0.015625)"/>
      <path id="DejaVuSans-63" d="M 3122 3366 
L 3122 2828 
Q 2878 2963 2633 3030 
Q 2388 3097 2138 3097 
Q 1578 3097 1268 2742 
Q 959 2388 959 1747 
Q 959 1106 1268 751 
Q 1578 397 2138 397 
Q 2388 397 2633 464 
Q 2878 531 3122 666 
L 3122 134 
Q 2881 22 2623 -34 
Q 2366 -91 2075 -91 
Q 1284 -91 818 406 
Q 353 903 353 1747 
Q 353 2603 823 3093 
Q 1294 3584 2113 3584 
Q 2378 3584 2631 3529 
Q 2884 3475 3122 3366 
z
" transform="scale(0.015625)"/>
      <path id="DejaVuSans-3a" d="M 750 794 
L 1409 794 
L 1409 0 
L 750 0 
L 750 794 
z
M 750 3309 
L 1409 3309 
L 1409 2516 
L 750 2516 
L 750 3309 
z
" transform="scale(0.015625)"/>
      <path id="DejaVuSans-4e" d="M 628 4666 
L 1478 4666 
L 3547 763 
L 3547 4666 
L 4159 4666 
L 4159 0 
L 3309 0 
L 1241 3903 
L 1241 0 
L 628 0 
L 628 4666 
z
" transform="scale(0.015625)"/>
      <path id="DejaVuSans-41" d="M 2188 4044 
L 1331 1722 
L 3047 1722 
L 2188 4044 
z
M 1831 4666 
L 2547 4666 
L 4325 0 
L 3669 0 
L 3244 1197 
L 1141 1197 
L 716 0 
L 50 0 
L 1831 4666 
z
" transform="scale(0.015625)"/>
      <path id="DejaVuSans-52" d="M 2841 2188 
Q 3044 2119 3236 1894 
Q 3428 1669 3622 1275 
L 4263 0 
L 3584 0 
L 2988 1197 
Q 2756 1666 2539 1819 
Q 2322 1972 1947 1972 
L 1259 1972 
L 1259 0 
L 628 0 
L 628 4666 
L 2053 4666 
Q 2853 4666 3247 4331 
Q 3641 3997 3641 3322 
Q 3641 2881 3436 2590 
Q 3231 2300 2841 2188 
z
M 1259 4147 
L 1259 2491 
L 2053 2491 
Q 2509 2491 2742 2702 
Q 2975 2913 2975 3322 
Q 2975 3731 2742 3939 
Q 2509 4147 2053 4147 
L 1259 4147 
z
" transform="scale(0.015625)"/>
      <path id="DejaVuSans-4d" d="M 628 4666 
L 1569 4666 
L 2759 1491 
L 3956 4666 
L 4897 4666 
L 4897 0 
L 4281 0 
L 4281 4097 
L 3078 897 
L 2444 897 
L 1241 4097 
L 1241 0 
L 628 0 
L 628 4666 
z
" transform="scale(0.015625)"/>
      <path id="DejaVuSans-28" d="M 1984 4856 
Q 1566 4138 1362 3434 
Q 1159 2731 1159 2009 
Q 1159 1288 1364 580 
Q 1569 -128 1984 -844 
L 1484 -844 
Q 1016 -109 783 600 
Q 550 1309 550 2009 
Q 550 2706 781 3412 
Q 1013 4119 1484 4856 
L 1984 4856 
z
" transform="scale(0.015625)"/>
      <path id="DejaVuSans-76" d="M 191 3500 
L 800 3500 
L 1894 563 
L 2988 3500 
L 3597 3500 
L 2284 0 
L 1503 0 
L 191 3500 
z
" transform="scale(0.015625)"/>
      <path id="DejaVuSans-64" d="M 2906 2969 
L 2906 4863 
L 3481 4863 
L 3481 0 
L 2906 0 
L 2906 525 
Q 2725 213 2448 61 
Q 2172 -91 1784 -91 
Q 1150 -91 751 415 
Q 353 922 353 1747 
Q 353 2572 751 3078 
Q 1150 3584 1784 3584 
Q 2172 3584 2448 3432 
Q 2725 3281 2906 2969 
z
M 947 1747 
Q 947 1113 1208 752 
Q 1469 391 1925 391 
Q 2381 391 2643 752 
Q 2906 1113 2906 1747 
Q 2906 2381 2643 2742 
Q 2381 3103 1925 3103 
Q 1469 3103 1208 2742 
Q 947 2381 947 1747 
z
" transform="scale(0.015625)"/>
      <path id="DejaVuSans-29" d="M 513 4856 
L 1013 4856 
Q 1481 4119 1714 3412 
Q 1947 2706 1947 2009 
Q 1947 1309 1714 600 
Q 1481 -109 1013 -844 
L 513 -844 
Q 928 -128 1133 580 
Q 1338 1288 1338 2009 
Q 1338 2731 1133 3434 
Q 928 4138 513 4856 
z
" transform="scale(0.015625)"/>
     </defs>
     <use xlink:href="#DejaVuSans-54"/>
     <use xlink:href="#DejaVuSans-61" transform="translate(44.583984 0)"/>
     <use xlink:href="#DejaVuSans-73" transform="translate(105.863281 0)"/>
     <use xlink:href="#DejaVuSans-6b" transform="translate(157.962891 0)"/>
     <use xlink:href="#DejaVuSans-20" transform="translate(215.873047 0)"/>
     <use xlink:href="#DejaVuSans-50" transform="translate(247.660156 0)"/>
     <use xlink:href="#DejaVuSans-65" transform="translate(304.337891 0)"/>
     <use xlink:href="#DejaVuSans-72" transform="translate(365.861328 0)"/>
     <use xlink:href="#DejaVuSans-66" transform="translate(406.974609 0)"/>
     <use xlink:href="#DejaVuSans-6f" transform="translate(442.179688 0)"/>
     <use xlink:href="#DejaVuSans-72" transform="translate(503.361328 0)"/>
     <use xlink:href="#DejaVuSans-6d" transform="translate(542.724609 0)"/>
     <use xlink:href="#DejaVuSans-61" transform="translate(640.136719 0)"/>
     <use xlink:href="#DejaVuSans-6e" transform="translate(701.416016 0)"/>
     <use xlink:href="#DejaVuSans-63" transform="translate(764.794922 0)"/>
     <use xlink:href="#DejaVuSans-65" transform="translate(819.775391 0)"/>
     <use xlink:href="#DejaVuSans-3a" transform="translate(881.298828 0)"/>
     <use xlink:href="#DejaVuSans-20" transform="translate(914.990234 0)"/>
     <use xlink:href="#DejaVuSans-4e" transform="translate(946.777344 0)"/>
     <use xlink:href="#DejaVuSans-41" transform="translate(1021.582031 0)"/>
     <use xlink:href="#DejaVuSans-52" transform="translate(1089.990234 0)"/>
     <use xlink:href="#DejaVuSans-4d" transform="translate(1159.472656 0)"/>
     <use xlink:href="#DejaVuSans-41" transform="translate(1245.751953 0)"/>
     <use xlink:href="#DejaVuSans-32" transform="translate(1314.160156 0)"/>
     <use xlink:href="#DejaVuSans-20" transform="translate(1377.783203 0)"/>
     <use xlink:href="#DejaVuSans-28" transform="translate(1409.570312 0)"/>
     <use xlink:href="#DejaVuSans-76" transform="translate(1448.583984 0)"/>
     <use xlink:href="#DejaVuSans-61" transform="translate(1507.763672 0)"/>
     <use xlink:href="#DejaVuSans-6c" transform="translate(1569.042969 0)"/>
     <use xlink:href="#DejaVuSans-69" transform="translate(1596.826172 0)"/>
     <use xlink:href="#DejaVuSans-64" transform="translate(1624.609375 0)"/>
     <use xlink:href="#DejaVuSans-61" transform="translate(1688.085938 0)"/>
     <use xlink:href="#DejaVuSans-74" transform="translate(1749.365234 0)"/>
     <use xlink:href="#DejaVuSans-69" transform="translate(1788.574219 0)"/>
     <use xlink:href="#DejaVuSans-6f" transform="translate(1816.357422 0)"/>
     <use xlink:href="#DejaVuSans-6e" transform="translate(1877.539062 0)"/>
     <use xlink:href="#DejaVuSans-20" transform="translate(1940.917969 0)"/>
     <use xlink:href="#DejaVuSans-73" transform="translate(1972.705078 0)"/>
     <use xlink:href="#DejaVuSans-65" transform="translate(2024.804688 0)"/>
     <use xlink:href="#DejaVuSans-74" transform="translate(2086.328125 0)"/>
     <use xlink:href="#DejaVuSans-29" transform="translate(2125.537109 0)"/>
    </g>
   </g>
   <g id="legend_1">
    <g id="patch_7">
     <path d="M 519.470312 59.674375 
L 601.14375 59.674375 
Q 603.14375 59.674375 603.14375 57.674375 
L 603.14375 29.318125 
Q 603.14375 27.318125 601.14375 27.318125 
L 519.470312 27.318125 
Q 517.470312 27.318125 517.470312 29.318125 
L 517.470312 57.674375 
Q 517.470312 59.674375 519.470312 59.674375 
z
" style="fill: #ffffff; opacity: 0.8; stroke: #cccccc; stroke-linejoin: miter"/>
    </g>
    <g id="line2d_27">
     <path d="M 521.470312 35.416562 
L 531.470312 35.416562 
L 541.470312 35.416562 
" style="fill: none; stroke-dasharray: 5.55,2.4; stroke-dashoffset: 0; stroke: #008000; stroke-width: 1.5"/>
    </g>
    <g id="text_16">
     <!-- Target -->
     <g transform="translate(549.470312 38.916562) scale(0.1 -0.1)">
      <use xlink:href="#DejaVuSans-54"/>
      <use xlink:href="#DejaVuSans-61" transform="translate(44.583984 0)"/>
      <use xlink:href="#DejaVuSans-72" transform="translate(105.863281 0)"/>
      <use xlink:href="#DejaVuSans-67" transform="translate(145.226562 0)"/>
      <use xlink:href="#DejaVuSans-65" transform="translate(208.703125 0)"/>
      <use xlink:href="#DejaVuSans-74" transform="translate(270.226562 0)"/>
     </g>
    </g>
    <g id="line2d_28">
     <path d="M 521.470312 50.094687 
L 531.470312 50.094687 
L 541.470312 50.094687 
" style="fill: none; stroke: #ff0000; stroke-width: 1.5; stroke-linecap: square"/>
    </g>
    <g id="text_17">
     <!-- Prediction -->
     <g transform="translate(549.470312 53.594687) scale(0.1 -0.1)">
      <use xlink:href="#DejaVuSans-50"/>
      <use xlink:href="#DejaVuSans-72" transform="translate(58.552734 0)"/>
      <use xlink:href="#DejaVuSans-65" transform="translate(97.416016 0)"/>
      <use xlink:href="#DejaVuSans-64" transform="translate(158.939453 0)"/>
      <use xlink:href="#DejaVuSans-69" transform="translate(222.416016 0)"/>
      <use xlink:href="#DejaVuSans-63" transform="translate(250.199219 0)"/>
      <use xlink:href="#DejaVuSans-74" transform="translate(305.179688 0)"/>
      <use xlink:href="#DejaVuSans-69" transform="translate(344.388672 0)"/>
      <use xlink:href="#DejaVuSans-6f" transform="translate(372.171875 0)"/>
      <use xlink:href="#DejaVuSans-6e" transform="translate(433.353516 0)"/>
     </g>
    </g>
   </g>
  </g>
 </g>
 <defs>
  <clipPath id="pe76f372bfa">
   <rect x="50.14375" y="22.318125" width="558" height="221.76"/>
  </clipPath>
 </defs>
</svg>
