<?xml version="1.0" encoding="utf-8" standalone="no"?>
<!DOCTYPE svg PUBLIC "-//W3C//DTD SVG 1.1//EN"
  "http://www.w3.org/Graphics/SVG/1.1/DTD/svg11.dtd">
<svg xmlns:xlink="http://www.w3.org/1999/xlink" width="615.34375pt" height="281.634375pt" viewBox="0 0 615.34375 281.634375" xmlns="http://www.w3.org/2000/svg" version="1.1">
 <metadata>
  <rdf:RDF xmlns:dc="http://purl.org/dc/elements/1.1/" xmlns:cc="http://creativecommons.org/ns#" xmlns:rdf="http://www.w3.org/1999/02/22-rdf-syntax-ns#">
   <cc:Work>
    <dc:type rdf:resource="http://purl.org/dc/dcmitype/StillImage"/>
    <dc:date>2026-03-19T17:31:28.075753</dc:date>
    <dc:format>image/svg+xml</dc:format>
    <dc:creator>
     <cc:Agent>
      <dc:title>Matplotlib v3.10.8, https://matplotlib.org/</dc:title>
     </cc:Agent>
    </dc:creator>
   </cc:Work>
  </rdf:RDF>
 </metadata>
 <defs>
  <style type="text/css">*{stroke-linejoin: round; stroke-linecap: butt}</style>
 </defs>
 <g id="figure_1">
  <g id="patch_1">
   <path d="M 0 281.634375 
L 615.34375 281.634375 
L 615.34375 0 
L 0 0 
z
" style="fill: #ffffff"/>
  </g>
  <g id="axes_1">
   <g id="patch_2">
    <path d="M 50.14375 244.078125 
L 608.14375 244.078125 
L 608.14375 22.318125 
L 50.14375 22.318125 
z
" style="fill: #ffffff"/>
   </g>
   <g id="matplotlib.axis_1">
    <g id="xtick_1">
     <g id="line2d_1">
      <path d="M 75.507386 244.078125 
L 75.507386 22.318125 
" clip-path="url(#pcbe526a983)" style="fill: none; stroke: #b0b0b0; stroke-opacity: 0.3; stroke-width: 0.8; stroke-linecap: square"/>
     </g>
     <g id="line2d_2">
      <defs>
       <path id="m0244836dc7" d="M 0 0 
L 0 3.5 
" style="stroke: #000000; stroke-width: 0.8"/>
      </defs>
      <g>
       <use xlink:href="#m0244836dc7" x="75.507386" y="244.078125" style="stroke: #000000; stroke-width: 0.8"/>
      </g>
     </g>
     <g id="text_1">
      <!-- 0 -->
      <g transform="translate(72.326136 258.676562) scale(0.1 -0.1)">
       <defs>
        <path id="DejaVuSans-30" d="M 2034 4250 
Q 1547 4250 1301 3770 
Q 1056 3291 1056 2328 
Q 1056 1369 1301 889 
Q 1547 409 2034 409 
Q 2525 409 2770 889 
Q 3016 1369 3016 2328 
Q 3016 3291 2770 3770 
Q 2525 4250 2034 4250 
z
M 2034 4750 
Q 2819 4750 3233 4129 
Q 3647 3509 3647 2328 
Q 3647 1150 3233 529 
Q 2819 -91 2034 -91 
Q 1250 -91 836 529 
Q 422 1150 422 2328 
Q 422 3509 836 4129 
Q 1250 4750 2034 4750 
z
" transform="scale(0.015625)"/>
       </defs>
       <use xlink:href="#DejaVuSans-30"/>
      </g>
     </g>
    </g>
    <g id="xtick_2">
     <g id="line2d_3">
      <path d="M 160.62026 244.078125 
L 160.62026 22.318125 
" clip-path="url(#pcbe526a983)" style="fill: none; stroke: #b0b0b0; stroke-opacity: 0.3; stroke-width: 0.8; stroke-linecap: square"/>
     </g>
     <g id="line2d_4">
      <g>
       <use xlink:href="#m0244836dc7" x="160.62026" y="244.078125" style="stroke: #000000; stroke-width: 0.8"/>
      </g>
     </g>
     <g id="text_2">
      <!-- 50 -->
      <g transform="translate(154.25776 258.676562) scale(0.1 -0.1)">
       <defs>
        <path id="DejaVuSans-35" d="M 691 4666 
L 3169 4666 
L 3169 4134 
L 1269 4134 
L 1269 2991 
Q 1406 3038 1543 3061 
Q 1681 3084 1819 3084 
Q 2600 3084 3056 2656 
Q 3513 2228 3513 1497 
Q 3513 744 3044 326 
Q 2575 -91 1722 -91 
Q 1428 -91 1123 -41 
Q 819 9 494 109 
L 494 744 
Q 775 591 1075 516 
Q 1375 441 1709 441 
Q 2250 441 2565 725 
Q 2881 1009 2881 1497 
Q 2881 1984 2565 2268 
Q 2250 2553 1709 2553 
Q 1456 2553 1204 2497 
Q 953 2441 691 2322 
L 691 4666 
z
" transform="scale(0.015625)"/>
       </defs>
       <use xlink:href="#DejaVuSans-35"/>
       <use xlink:href="#DejaVuSans-30" transform="translate(63.623047 0)"/>
      </g>
     </g>
    </g>
    <g id="xtick_3">
     <g id="line2d_5">
      <path d="M 245.733134 244.078125 
L 245.733134 22.318125 
" clip-path="url(#pcbe526a983)" style="fill: none; stroke: #b0b0b0; stroke-opacity: 0.3; stroke-width: 0.8; stroke-linecap: square"/>
     </g>
     <g id="line2d_6">
      <g>
       <use xlink:href="#m0244836dc7" x="245.733134" y="244.078125" style="stroke: #000000; stroke-width: 0.8"/>
      </g>
     </g>
     <g id="text_3">
      <!-- 100 -->
      <g transform="translate(236.189384 258.676562) scale(0.1 -0.1)">
       <defs>
        <path id="DejaVuSans-31" d="M 794 531 
L 1825 531 
L 1825 4091 
L 703 3866 
L 703 4441 
L 1819 4666 
L 2450 4666 
L 2450 531 
L 3481 531 
L 3481 0 
L 794 0 
L 794 531 
z
" transform="scale(0.015625)"/>
       </defs>
       <use xlink:href="#DejaVuSans-31"/>
       <use xlink:href="#DejaVuSans-30" transform="translate(63.623047 0)"/>
       <use xlink:href="#DejaVuSans-30" transform="translate(127.246094 0)"/>
      </g>
     </g>
    </g>
    <g id="xtick_4">
     <g id="line2d_7">
      <path d="M 330.846007 244.078125 
L 330.846007 22.318125 
" clip-path="url(#pcbe526a983)" style="fill: none; stroke: #b0b0b0; stroke-opacity: 0.3; stroke-width: 0.8; stroke-linecap: square"/>
     </g>
     <g id="line2d_8">
      <g>
       <use xlink:href="#m0244836dc7" x="330.846007" y="244.078125" style="stroke: #000000; stroke-width: 0.8"/>
      </g>
     </g>
     <g id="text_4">
      <!-- 150 -->
      <g transform="translate(321.302257 258.676562) scale(0.1 -0.1)">
       <use xlink:href="#DejaVuSans-31"/>
       <use xlink:href="#DejaVuSans-35" transform="translate(63.623047 0)"/>
       <use xlink:href="#DejaVuSans-30" transform="translate(127.246094 0)"/>
      </g>
     </g>
    </g>
    <g id="xtick_5">
     <g id="line2d_9">
      <path d="M 415.958881 244.078125 
L 415.958881 22.318125 
" clip-path="url(#pcbe526a983)" style="fill: none; stroke: #b0b0b0; stroke-opacity: 0.3; stroke-width: 0.8; stroke-linecap: square"/>
     </g>
     <g id="line2d_10">
      <g>
       <use xlink:href="#m0244836dc7" x="415.958881" y="244.078125" style="stroke: #000000; stroke-width: 0.8"/>
      </g>
     </g>
     <g id="text_5">
      <!-- 200 -->
      <g transform="translate(406.415131 258.676562) scale(0.1 -0.1)">
       <defs>
        <path id="DejaVuSans-32" d="M 1228 531 
L 3431 531 
L 3431 0 
L 469 0 
L 469 531 
Q 828 903 1448 1529 
Q 2069 2156 2228 2338 
Q 2531 2678 2651 2914 
Q 2772 3150 2772 3378 
Q 2772 3750 2511 3984 
Q 2250 4219 1831 4219 
Q 1534 4219 1204 4116 
Q 875 4013 500 3803 
L 500 4441 
Q 881 4594 1212 4672 
Q 1544 4750 1819 4750 
Q 2544 4750 2975 4387 
Q 3406 4025 3406 3419 
Q 3406 3131 3298 2873 
Q 3191 2616 2906 2266 
Q 2828 2175 2409 1742 
Q 1991 1309 1228 531 
z
" transform="scale(0.015625)"/>
       </defs>
       <use xlink:href="#DejaVuSans-32"/>
       <use xlink:href="#DejaVuSans-30" transform="translate(63.623047 0)"/>
       <use xlink:href="#DejaVuSans-30" transform="translate(127.246094 0)"/>
      </g>
     </g>
    </g>
    <g id="xtick_6">
     <g id="line2d_11">
      <path d="M 501.071755 244.078125 
L 501.071755 22.318125 
" clip-path="url(#pcbe526a983)" style="fill: none; stroke: #b0b0b0; stroke-opacity: 0.3; stroke-width: 0.8; stroke-linecap: square"/>
     </g>
     <g id="line2d_12">
      <g>
       <use xlink:href="#m0244836dc7" x="501.071755" y="244.078125" style="stroke: #000000; stroke-width: 0.8"/>
      </g>
     </g>
     <g id="text_6">
      <!-- 250 -->
      <g transform="translate(491.528005 258.676562) scale(0.1 -0.1)">
       <use xlink:href="#DejaVuSans-32"/>
       <use xlink:href="#DejaVuSans-35" transform="translate(63.623047 0)"/>
       <use xlink:href="#DejaVuSans-30" transform="translate(127.246094 0)"/>
      </g>
     </g>
    </g>
    <g id="xtick_7">
     <g id="line2d_13">
      <path d="M 586.184629 244.078125 
L 586.184629 22.318125 
" clip-path="url(#pcbe526a983)" style="fill: none; stroke: #b0b0b0; stroke-opacity: 0.3; stroke-width: 0.8; stroke-linecap: square"/>
     </g>
     <g id="line2d_14">
      <g>
       <use xlink:href="#m0244836dc7" x="586.184629" y="244.078125" style="stroke: #000000; stroke-width: 0.8"/>
      </g>
     </g>
     <g id="text_7">
      <!-- 300 -->
      <g transform="translate(576.640879 258.676562) scale(0.1 -0.1)">
       <defs>
        <path id="DejaVuSans-33" d="M 2597 2516 
Q 3050 2419 3304 2112 
Q 3559 1806 3559 1356 
Q 3559 666 3084 287 
Q 2609 -91 1734 -91 
Q 1441 -91 1130 -33 
Q 819 25 488 141 
L 488 750 
Q 750 597 1062 519 
Q 1375 441 1716 441 
Q 2309 441 2620 675 
Q 2931 909 2931 1356 
Q 2931 1769 2642 2001 
Q 2353 2234 1838 2234 
L 1294 2234 
L 1294 2753 
L 1863 2753 
Q 2328 2753 2575 2939 
Q 2822 3125 2822 3475 
Q 2822 3834 2567 4026 
Q 2313 4219 1838 4219 
Q 1578 4219 1281 4162 
Q 984 4106 628 3988 
L 628 4550 
Q 988 4650 1302 4700 
Q 1616 4750 1894 4750 
Q 2613 4750 3031 4423 
Q 3450 4097 3450 3541 
Q 3450 3153 3228 2886 
Q 3006 2619 2597 2516 
z
" transform="scale(0.015625)"/>
       </defs>
       <use xlink:href="#DejaVuSans-33"/>
       <use xlink:href="#DejaVuSans-30" transform="translate(63.623047 0)"/>
       <use xlink:href="#DejaVuSans-30" transform="translate(127.246094 0)"/>
      </g>
     </g>
    </g>
    <g id="text_8">
     <!-- Time Steps -->
     <g transform="translate(301.33125 272.354687) scale(0.1 -0.1)">
      <defs>
       <path id="DejaVuSans-54" d="M -19 4666 
L 3928 4666 
L 3928 4134 
L 2272 4134 
L 2272 0 
L 1638 0 
L 1638 4134 
L -19 4134 
L -19 4666 
z
" transform="scale(0.015625)"/>
       <path id="DejaVuSans-69" d="M 603 3500 
L 1178 3500 
L 1178 0 
L 603 0 
L 603 3500 
z
M 603 4863 
L 1178 4863 
L 1178 4134 
L 603 4134 
L 603 4863 
z
" transform="scale(0.015625)"/>
       <path id="DejaVuSans-6d" d="M 3328 2828 
Q 3544 3216 3844 3400 
Q 4144 3584 4550 3584 
Q 5097 3584 5394 3201 
Q 5691 2819 5691 2113 
L 5691 0 
L 5113 0 
L 5113 2094 
Q 5113 2597 4934 2840 
Q 4756 3084 4391 3084 
Q 3944 3084 3684 2787 
Q 3425 2491 3425 1978 
L 3425 0 
L 2847 0 
L 2847 2094 
Q 2847 2600 2669 2842 
Q 2491 3084 2119 3084 
Q 1678 3084 1418 2786 
Q 1159 2488 1159 1978 
L 1159 0 
L 581 0 
L 581 3500 
L 1159 3500 
L 1159 2956 
Q 1356 3278 1631 3431 
Q 1906 3584 2284 3584 
Q 2666 3584 2933 3390 
Q 3200 3197 3328 2828 
z
" transform="scale(0.015625)"/>
       <path id="DejaVuSans-65" d="M 3597 1894 
L 3597 1613 
L 953 1613 
Q 991 1019 1311 708 
Q 1631 397 2203 397 
Q 2534 397 2845 478 
Q 3156 559 3463 722 
L 3463 178 
Q 3153 47 2828 -22 
Q 2503 -91 2169 -91 
Q 1331 -91 842 396 
Q 353 884 353 1716 
Q 353 2575 817 3079 
Q 1281 3584 2069 3584 
Q 2775 3584 3186 3129 
Q 3597 2675 3597 1894 
z
M 3022 2063 
Q 3016 2534 2758 2815 
Q 2500 3097 2075 3097 
Q 1594 3097 1305 2825 
Q 1016 2553 972 2059 
L 3022 2063 
z
" transform="scale(0.015625)"/>
       <path id="DejaVuSans-20" transform="scale(0.015625)"/>
       <path id="DejaVuSans-53" d="M 3425 4513 
L 3425 3897 
Q 3066 4069 2747 4153 
Q 2428 4238 2131 4238 
Q 1616 4238 1336 4038 
Q 1056 3838 1056 3469 
Q 1056 3159 1242 3001 
Q 1428 2844 1947 2747 
L 2328 2669 
Q 3034 2534 3370 2195 
Q 3706 1856 3706 1288 
Q 3706 609 3251 259 
Q 2797 -91 1919 -91 
Q 1588 -91 1214 -16 
Q 841 59 441 206 
L 441 856 
Q 825 641 1194 531 
Q 1563 422 1919 422 
Q 2459 422 2753 634 
Q 3047 847 3047 1241 
Q 3047 1584 2836 1778 
Q 2625 1972 2144 2069 
L 1759 2144 
Q 1053 2284 737 2584 
Q 422 2884 422 3419 
Q 422 4038 858 4394 
Q 1294 4750 2059 4750 
Q 2388 4750 2728 4690 
Q 3069 4631 3425 4513 
z
" transform="scale(0.015625)"/>
       <path id="DejaVuSans-74" d="M 1172 4494 
L 1172 3500 
L 2356 3500 
L 2356 3053 
L 1172 3053 
L 1172 1153 
Q 1172 725 1289 603 
Q 1406 481 1766 481 
L 2356 481 
L 2356 0 
L 1766 0 
Q 1100 0 847 248 
Q 594 497 594 1153 
L 594 3053 
L 172 3053 
L 172 3500 
L 594 3500 
L 594 4494 
L 1172 4494 
z
" transform="scale(0.015625)"/>
       <path id="DejaVuSans-70" d="M 1159 525 
L 1159 -1331 
L 581 -1331 
L 581 3500 
L 1159 3500 
L 1159 2969 
Q 1341 3281 1617 3432 
Q 1894 3584 2278 3584 
Q 2916 3584 3314 3078 
Q 3713 2572 3713 1747 
Q 3713 922 3314 415 
Q 2916 -91 2278 -91 
Q 1894 -91 1617 61 
Q 1341 213 1159 525 
z
M 3116 1747 
Q 3116 2381 2855 2742 
Q 2594 3103 2138 3103 
Q 1681 3103 1420 2742 
Q 1159 2381 1159 1747 
Q 1159 1113 1420 752 
Q 1681 391 2138 391 
Q 2594 391 2855 752 
Q 3116 1113 3116 1747 
z
" transform="scale(0.015625)"/>
       <path id="DejaVuSans-73" d="M 2834 3397 
L 2834 2853 
Q 2591 2978 2328 3040 
Q 2066 3103 1784 3103 
Q 1356 3103 1142 2972 
Q 928 2841 928 2578 
Q 928 2378 1081 2264 
Q 1234 2150 1697 2047 
L 1894 2003 
Q 2506 1872 2764 1633 
Q 3022 1394 3022 966 
Q 3022 478 2636 193 
Q 2250 -91 1575 -91 
Q 1294 -91 989 -36 
Q 684 19 347 128 
L 347 722 
Q 666 556 975 473 
Q 1284 391 1588 391 
Q 1994 391 2212 530 
Q 2431 669 2431 922 
Q 2431 1156 2273 1281 
Q 2116 1406 1581 1522 
L 1381 1569 
Q 847 1681 609 1914 
Q 372 2147 372 2553 
Q 372 3047 722 3315 
Q 1072 3584 1716 3584 
Q 2034 3584 2315 3537 
Q 2597 3491 2834 3397 
z
" transform="scale(0.015625)"/>
      </defs>
      <use xlink:href="#DejaVuSans-54"/>
      <use xlink:href="#DejaVuSans-69" transform="translate(57.958984 0)"/>
      <use xlink:href="#DejaVuSans-6d" transform="translate(85.742188 0)"/>
      <use xlink:href="#DejaVuSans-65" transform="translate(183.154297 0)"/>
      <use xlink:href="#DejaVuSans-20" transform="translate(244.677734 0)"/>
      <use xlink:href="#DejaVuSans-53" transform="translate(276.464844 0)"/>
      <use xlink:href="#DejaVuSans-74" transform="translate(339.941406 0)"/>
      <use xlink:href="#DejaVuSans-65" transform="translate(379.150391 0)"/>
      <use xlink:href="#DejaVuSans-70" transform="translate(440.673828 0)"/>
      <use xlink:href="#DejaVuSans-73" transform="translate(504.150391 0)"/>
     </g>
    </g>
   </g>
   <g id="matplotlib.axis_2">
    <g id="ytick_1">
     <g id="line2d_15">
      <path d="M 50.14375 233.391963 
L 608.14375 233.391963 
" clip-path="url(#pcbe526a983)" style="fill: none; stroke: #b0b0b0; stroke-opacity: 0.3; stroke-width: 0.8; stroke-linecap: square"/>
     </g>
     <g id="line2d_16">
      <defs>
       <path id="m0978bac5ff" d="M 0 0 
L -3.5 0 
" style="stroke: #000000; stroke-width: 0.8"/>
      </defs>
      <g>
       <use xlink:href="#m0978bac5ff" x="50.14375" y="233.391963" style="stroke: #000000; stroke-width: 0.8"/>
      </g>
     </g>
     <g id="text_9">
      <!-- 0.18 -->
      <g transform="translate(20.878125 237.191182) scale(0.1 -0.1)">
       <defs>
        <path id="DejaVuSans-2e" d="M 684 794 
L 1344 794 
L 1344 0 
L 684 0 
L 684 794 
z
" transform="scale(0.015625)"/>
        <path id="DejaVuSans-38" d="M 2034 2216 
Q 1584 2216 1326 1975 
Q 1069 1734 1069 1313 
Q 1069 891 1326 650 
Q 1584 409 2034 409 
Q 2484 409 2743 651 
Q 3003 894 3003 1313 
Q 3003 1734 2745 1975 
Q 2488 2216 2034 2216 
z
M 1403 2484 
Q 997 2584 770 2862 
Q 544 3141 544 3541 
Q 544 4100 942 4425 
Q 1341 4750 2034 4750 
Q 2731 4750 3128 4425 
Q 3525 4100 3525 3541 
Q 3525 3141 3298 2862 
Q 3072 2584 2669 2484 
Q 3125 2378 3379 2068 
Q 3634 1759 3634 1313 
Q 3634 634 3220 271 
Q 2806 -91 2034 -91 
Q 1263 -91 848 271 
Q 434 634 434 1313 
Q 434 1759 690 2068 
Q 947 2378 1403 2484 
z
M 1172 3481 
Q 1172 3119 1398 2916 
Q 1625 2713 2034 2713 
Q 2441 2713 2670 2916 
Q 2900 3119 2900 3481 
Q 2900 3844 2670 4047 
Q 2441 4250 2034 4250 
Q 1625 4250 1398 4047 
Q 1172 3844 1172 3481 
z
" transform="scale(0.015625)"/>
       </defs>
       <use xlink:href="#DejaVuSans-30"/>
       <use xlink:href="#DejaVuSans-2e" transform="translate(63.623047 0)"/>
       <use xlink:href="#DejaVuSans-31" transform="translate(95.410156 0)"/>
       <use xlink:href="#DejaVuSans-38" transform="translate(159.033203 0)"/>
      </g>
     </g>
    </g>
    <g id="ytick_2">
     <g id="line2d_17">
      <path d="M 50.14375 208.559191 
L 608.14375 208.559191 
" clip-path="url(#pcbe526a983)" style="fill: none; stroke: #b0b0b0; stroke-opacity: 0.3; stroke-width: 0.8; stroke-linecap: square"/>
     </g>
     <g id="line2d_18">
      <g>
       <use xlink:href="#m0978bac5ff" x="50.14375" y="208.559191" style="stroke: #000000; stroke-width: 0.8"/>
      </g>
     </g>
     <g id="text_10">
      <!-- 0.19 -->
      <g transform="translate(20.878125 212.35841) scale(0.1 -0.1)">
       <defs>
        <path id="DejaVuSans-39" d="M 703 97 
L 703 672 
Q 941 559 1184 500 
Q 1428 441 1663 441 
Q 2288 441 2617 861 
Q 2947 1281 2994 2138 
Q 2813 1869 2534 1725 
Q 2256 1581 1919 1581 
Q 1219 1581 811 2004 
Q 403 2428 403 3163 
Q 403 3881 828 4315 
Q 1253 4750 1959 4750 
Q 2769 4750 3195 4129 
Q 3622 3509 3622 2328 
Q 3622 1225 3098 567 
Q 2575 -91 1691 -91 
Q 1453 -91 1209 -44 
Q 966 3 703 97 
z
M 1959 2075 
Q 2384 2075 2632 2365 
Q 2881 2656 2881 3163 
Q 2881 3666 2632 3958 
Q 2384 4250 1959 4250 
Q 1534 4250 1286 3958 
Q 1038 3666 1038 3163 
Q 1038 2656 1286 2365 
Q 1534 2075 1959 2075 
z
" transform="scale(0.015625)"/>
       </defs>
       <use xlink:href="#DejaVuSans-30"/>
       <use xlink:href="#DejaVuSans-2e" transform="translate(63.623047 0)"/>
       <use xlink:href="#DejaVuSans-31" transform="translate(95.410156 0)"/>
       <use xlink:href="#DejaVuSans-39" transform="translate(159.033203 0)"/>
      </g>
     </g>
    </g>
    <g id="ytick_3">
     <g id="line2d_19">
      <path d="M 50.14375 183.726419 
L 608.14375 183.726419 
" clip-path="url(#pcbe526a983)" style="fill: none; stroke: #b0b0b0; stroke-opacity: 0.3; stroke-width: 0.8; stroke-linecap: square"/>
     </g>
     <g id="line2d_20">
      <g>
       <use xlink:href="#m0978bac5ff" x="50.14375" y="183.726419" style="stroke: #000000; stroke-width: 0.8"/>
      </g>
     </g>
     <g id="text_11">
      <!-- 0.20 -->
      <g transform="translate(20.878125 187.525637) scale(0.1 -0.1)">
       <use xlink:href="#DejaVuSans-30"/>
       <use xlink:href="#DejaVuSans-2e" transform="translate(63.623047 0)"/>
       <use xlink:href="#DejaVuSans-32" transform="translate(95.410156 0)"/>
       <use xlink:href="#DejaVuSans-30" transform="translate(159.033203 0)"/>
      </g>
     </g>
    </g>
    <g id="ytick_4">
     <g id="line2d_21">
      <path d="M 50.14375 158.893647 
L 608.14375 158.893647 
" clip-path="url(#pcbe526a983)" style="fill: none; stroke: #b0b0b0; stroke-opacity: 0.3; stroke-width: 0.8; stroke-linecap: square"/>
     </g>
     <g id="line2d_22">
      <g>
       <use xlink:href="#m0978bac5ff" x="50.14375" y="158.893647" style="stroke: #000000; stroke-width: 0.8"/>
      </g>
     </g>
     <g id="text_12">
      <!-- 0.21 -->
      <g transform="translate(20.878125 162.692865) scale(0.1 -0.1)">
       <use xlink:href="#DejaVuSans-30"/>
       <use xlink:href="#DejaVuSans-2e" transform="translate(63.623047 0)"/>
       <use xlink:href="#DejaVuSans-32" transform="translate(95.410156 0)"/>
       <use xlink:href="#DejaVuSans-31" transform="translate(159.033203 0)"/>
      </g>
     </g>
    </g>
    <g id="ytick_5">
     <g id="line2d_23">
      <path d="M 50.14375 134.060874 
L 608.14375 134.060874 
" clip-path="url(#pcbe526a983)" style="fill: none; stroke: #b0b0b0; stroke-opacity: 0.3; stroke-width: 0.8; stroke-linecap: square"/>
     </g>
     <g id="line2d_24">
      <g>
       <use xlink:href="#m0978bac5ff" x="50.14375" y="134.060874" style="stroke: #000000; stroke-width: 0.8"/>
      </g>
     </g>
     <g id="text_13">
      <!-- 0.22 -->
      <g transform="translate(20.878125 137.860093) scale(0.1 -0.1)">
       <use xlink:href="#DejaVuSans-30"/>
       <use xlink:href="#DejaVuSans-2e" transform="translate(63.623047 0)"/>
       <use xlink:href="#DejaVuSans-32" transform="translate(95.410156 0)"/>
       <use xlink:href="#DejaVuSans-32" transform="translate(159.033203 0)"/>
      </g>
     </g>
    </g>
    <g id="ytick_6">
     <g id="line2d_25">
      <path d="M 50.14375 109.228102 
L 608.14375 109.228102 
" clip-path="url(#pcbe526a983)" style="fill: none; stroke: #b0b0b0; stroke-opacity: 0.3; stroke-width: 0.8; stroke-linecap: square"/>
     </g>
     <g id="line2d_26">
      <g>
       <use xlink:href="#m0978bac5ff" x="50.14375" y="109.228102" style="stroke: #000000; stroke-width: 0.8"/>
      </g>
     </g>
     <g id="text_14">
      <!-- 0.23 -->
      <g transform="translate(20.878125 113.027321) scale(0.1 -0.1)">
       <use xlink:href="#DejaVuSans-30"/>
       <use xlink:href="#DejaVuSans-2e" transform="translate(63.623047 0)"/>
       <use xlink:href="#DejaVuSans-32" transform="translate(95.410156 0)"/>
       <use xlink:href="#DejaVuSans-33" transform="translate(159.033203 0)"/>
      </g>
     </g>
    </g>
    <g id="ytick_7">
     <g id="line2d_27">
      <path d="M 50.14375 84.39533 
L 608.14375 84.39533 
" clip-path="url(#pcbe526a983)" style="fill: none; stroke: #b0b0b0; stroke-opacity: 0.3; stroke-width: 0.8; stroke-linecap: square"/>
     </g>
     <g id="line2d_28">
      <g>
       <use xlink:href="#m0978bac5ff" x="50.14375" y="84.39533" style="stroke: #000000; stroke-width: 0.8"/>
      </g>
     </g>
     <g id="text_15">
      <!-- 0.24 -->
      <g transform="translate(20.878125 88.194549) scale(0.1 -0.1)">
       <defs>
        <path id="DejaVuSans-34" d="M 2419 4116 
L 825 1625 
L 2419 1625 
L 2419 4116 
z
M 2253 4666 
L 3047 4666 
L 3047 1625 
L 3713 1625 
L 3713 1100 
L 3047 1100 
L 3047 0 
L 2419 0 
L 2419 1100 
L 313 1100 
L 313 1709 
L 2253 4666 
z
" transform="scale(0.015625)"/>
       </defs>
       <use xlink:href="#DejaVuSans-30"/>
       <use xlink:href="#DejaVuSans-2e" transform="translate(63.623047 0)"/>
       <use xlink:href="#DejaVuSans-32" transform="translate(95.410156 0)"/>
       <use xlink:href="#DejaVuSans-34" transform="translate(159.033203 0)"/>
      </g>
     </g>
    </g>
    <g id="ytick_8">
     <g id="line2d_29">
      <path d="M 50.14375 59.562558 
L 608.14375 59.562558 
" clip-path="url(#pcbe526a983)" style="fill: none; stroke: #b0b0b0; stroke-opacity: 0.3; stroke-width: 0.8; stroke-linecap: square"/>
     </g>
     <g id="line2d_30">
      <g>
       <use xlink:href="#m0978bac5ff" x="50.14375" y="59.562558" style="stroke: #000000; stroke-width: 0.8"/>
      </g>
     </g>
     <g id="text_16">
      <!-- 0.25 -->
      <g transform="translate(20.878125 63.361777) scale(0.1 -0.1)">
       <use xlink:href="#DejaVuSans-30"/>
       <use xlink:href="#DejaVuSans-2e" transform="translate(63.623047 0)"/>
       <use xlink:href="#DejaVuSans-32" transform="translate(95.410156 0)"/>
       <use xlink:href="#DejaVuSans-35" transform="translate(159.033203 0)"/>
      </g>
     </g>
    </g>
    <g id="ytick_9">
     <g id="line2d_31">
      <path d="M 50.14375 34.729786 
L 608.14375 34.729786 
" clip-path="url(#pcbe526a983)" style="fill: none; stroke: #b0b0b0; stroke-opacity: 0.3; stroke-width: 0.8; stroke-linecap: square"/>
     </g>
     <g id="line2d_32">
      <g>
       <use xlink:href="#m0978bac5ff" x="50.14375" y="34.729786" style="stroke: #000000; stroke-width: 0.8"/>
      </g>
     </g>
     <g id="text_17">
      <!-- 0.26 -->
      <g transform="translate(20.878125 38.529005) scale(0.1 -0.1)">
       <defs>
        <path id="DejaVuSans-36" d="M 2113 2584 
Q 1688 2584 1439 2293 
Q 1191 2003 1191 1497 
Q 1191 994 1439 701 
Q 1688 409 2113 409 
Q 2538 409 2786 701 
Q 3034 994 3034 1497 
Q 3034 2003 2786 2293 
Q 2538 2584 2113 2584 
z
M 3366 4563 
L 3366 3988 
Q 3128 4100 2886 4159 
Q 2644 4219 2406 4219 
Q 1781 4219 1451 3797 
Q 1122 3375 1075 2522 
Q 1259 2794 1537 2939 
Q 1816 3084 2150 3084 
Q 2853 3084 3261 2657 
Q 3669 2231 3669 1497 
Q 3669 778 3244 343 
Q 2819 -91 2113 -91 
Q 1303 -91 875 529 
Q 447 1150 447 2328 
Q 447 3434 972 4092 
Q 1497 4750 2381 4750 
Q 2619 4750 2861 4703 
Q 3103 4656 3366 4563 
z
" transform="scale(0.015625)"/>
       </defs>
       <use xlink:href="#DejaVuSans-30"/>
       <use xlink:href="#DejaVuSans-2e" transform="translate(63.623047 0)"/>
       <use xlink:href="#DejaVuSans-32" transform="translate(95.410156 0)"/>
       <use xlink:href="#DejaVuSans-36" transform="translate(159.033203 0)"/>
      </g>
     </g>
    </g>
    <g id="text_18">
     <!-- Signal Value -->
     <g transform="translate(14.798437 163.877812) rotate(-90) scale(0.1 -0.1)">
      <defs>
       <path id="DejaVuSans-67" d="M 2906 1791 
Q 2906 2416 2648 2759 
Q 2391 3103 1925 3103 
Q 1463 3103 1205 2759 
Q 947 2416 947 1791 
Q 947 1169 1205 825 
Q 1463 481 1925 481 
Q 2391 481 2648 825 
Q 2906 1169 2906 1791 
z
M 3481 434 
Q 3481 -459 3084 -895 
Q 2688 -1331 1869 -1331 
Q 1566 -1331 1297 -1286 
Q 1028 -1241 775 -1147 
L 775 -588 
Q 1028 -725 1275 -790 
Q 1522 -856 1778 -856 
Q 2344 -856 2625 -561 
Q 2906 -266 2906 331 
L 2906 616 
Q 2728 306 2450 153 
Q 2172 0 1784 0 
Q 1141 0 747 490 
Q 353 981 353 1791 
Q 353 2603 747 3093 
Q 1141 3584 1784 3584 
Q 2172 3584 2450 3431 
Q 2728 3278 2906 2969 
L 2906 3500 
L 3481 3500 
L 3481 434 
z
" transform="scale(0.015625)"/>
       <path id="DejaVuSans-6e" d="M 3513 2113 
L 3513 0 
L 2938 0 
L 2938 2094 
Q 2938 2591 2744 2837 
Q 2550 3084 2163 3084 
Q 1697 3084 1428 2787 
Q 1159 2491 1159 1978 
L 1159 0 
L 581 0 
L 581 3500 
L 1159 3500 
L 1159 2956 
Q 1366 3272 1645 3428 
Q 1925 3584 2291 3584 
Q 2894 3584 3203 3211 
Q 3513 2838 3513 2113 
z
" transform="scale(0.015625)"/>
       <path id="DejaVuSans-61" d="M 2194 1759 
Q 1497 1759 1228 1600 
Q 959 1441 959 1056 
Q 959 750 1161 570 
Q 1363 391 1709 391 
Q 2188 391 2477 730 
Q 2766 1069 2766 1631 
L 2766 1759 
L 2194 1759 
z
M 3341 1997 
L 3341 0 
L 2766 0 
L 2766 531 
Q 2569 213 2275 61 
Q 1981 -91 1556 -91 
Q 1019 -91 701 211 
Q 384 513 384 1019 
Q 384 1609 779 1909 
Q 1175 2209 1959 2209 
L 2766 2209 
L 2766 2266 
Q 2766 2663 2505 2880 
Q 2244 3097 1772 3097 
Q 1472 3097 1187 3025 
Q 903 2953 641 2809 
L 641 3341 
Q 956 3463 1253 3523 
Q 1550 3584 1831 3584 
Q 2591 3584 2966 3190 
Q 3341 2797 3341 1997 
z
" transform="scale(0.015625)"/>
       <path id="DejaVuSans-6c" d="M 603 4863 
L 1178 4863 
L 1178 0 
L 603 0 
L 603 4863 
z
" transform="scale(0.015625)"/>
       <path id="DejaVuSans-56" d="M 1831 0 
L 50 4666 
L 709 4666 
L 2188 738 
L 3669 4666 
L 4325 4666 
L 2547 0 
L 1831 0 
z
" transform="scale(0.015625)"/>
       <path id="DejaVuSans-75" d="M 544 1381 
L 544 3500 
L 1119 3500 
L 1119 1403 
Q 1119 906 1312 657 
Q 1506 409 1894 409 
Q 2359 409 2629 706 
Q 2900 1003 2900 1516 
L 2900 3500 
L 3475 3500 
L 3475 0 
L 2900 0 
L 2900 538 
Q 2691 219 2414 64 
Q 2138 -91 1772 -91 
Q 1169 -91 856 284 
Q 544 659 544 1381 
z
M 1991 3584 
L 1991 3584 
z
" transform="scale(0.015625)"/>
      </defs>
      <use xlink:href="#DejaVuSans-53"/>
      <use xlink:href="#DejaVuSans-69" transform="translate(63.476562 0)"/>
      <use xlink:href="#DejaVuSans-67" transform="translate(91.259766 0)"/>
      <use xlink:href="#DejaVuSans-6e" transform="translate(154.736328 0)"/>
      <use xlink:href="#DejaVuSans-61" transform="translate(218.115234 0)"/>
      <use xlink:href="#DejaVuSans-6c" transform="translate(279.394531 0)"/>
      <use xlink:href="#DejaVuSans-20" transform="translate(307.177734 0)"/>
      <use xlink:href="#DejaVuSans-56" transform="translate(338.964844 0)"/>
      <use xlink:href="#DejaVuSans-61" transform="translate(399.623047 0)"/>
      <use xlink:href="#DejaVuSans-6c" transform="translate(460.902344 0)"/>
      <use xlink:href="#DejaVuSans-75" transform="translate(488.685547 0)"/>
      <use xlink:href="#DejaVuSans-65" transform="translate(552.064453 0)"/>
     </g>
    </g>
   </g>
   <g id="line2d_33">
    <path d="M 75.507386 193.084634 
L 77.209644 180.269249 
L 78.911901 171.097021 
L 80.614159 167.890274 
L 82.316416 171.143798 
L 84.018674 171.638214 
L 85.720931 155.313564 
L 87.423189 132.443064 
L 89.125446 120.249945 
L 90.827704 110.088907 
L 92.529961 107.535817 
L 94.232219 109.751748 
L 95.934476 125.890252 
L 97.636734 154.911502 
L 99.338991 174.678547 
L 101.041248 186.934838 
L 102.743506 194.461302 
L 104.445763 198.933161 
L 106.148021 201.271627 
L 107.850278 201.599012 
L 109.552536 192.066939 
L 111.254793 163.316314 
L 112.957051 139.864873 
L 114.659308 128.719793 
L 116.361566 130.662582 
L 118.063823 133.048373 
L 119.766081 127.345974 
L 121.468338 134.196364 
L 123.170596 146.130079 
L 124.872853 149.999321 
L 126.575111 148.156424 
L 128.277368 144.551105 
L 129.979626 151.82969 
L 131.681883 169.998058 
L 133.38414 183.096224 
L 135.086398 191.499918 
L 136.788655 197.163495 
L 138.490913 200.647292 
L 140.19317 202.706837 
L 141.895428 203.134757 
L 143.597685 192.79254 
L 147.0022 129.862388 
L 148.704458 101.041086 
L 150.406715 82.809298 
L 152.108973 74.564477 
L 153.81123 80.600569 
L 155.513488 112.206079 
L 157.215745 141.267785 
L 158.918003 158.635863 
L 160.62026 168.314876 
L 162.322518 173.737854 
L 164.024775 179.572542 
L 165.727032 187.012728 
L 167.42929 190.919335 
L 169.131547 192.702085 
L 170.833805 196.862304 
L 172.536062 200.119791 
L 174.23832 202.116026 
L 175.940577 202.093328 
L 177.642835 192.217888 
L 181.04735 147.365255 
L 182.749607 107.936159 
L 184.451865 61.325345 
L 186.154122 32.398125 
L 187.85638 42.020659 
L 189.558637 87.082627 
L 191.260895 126.006828 
L 192.963152 152.103069 
L 194.66541 170.821994 
L 196.367667 183.35739 
L 198.069924 191.283707 
L 199.772182 195.884587 
L 201.474439 195.021335 
L 203.176697 189.973214 
L 204.878954 191.4876 
L 206.581212 193.740677 
L 208.283469 194.766041 
L 209.985727 192.790846 
L 215.092499 164.630215 
L 216.794757 132.469935 
L 218.497014 81.512606 
L 220.199272 47.056028 
L 221.901529 51.333265 
L 223.603787 88.601706 
L 225.306044 122.776031 
L 227.008302 149.299939 
L 228.710559 170.914039 
L 230.412817 184.631951 
L 232.115074 193.057088 
L 233.817331 198.04367 
L 235.519589 198.218202 
L 237.221846 192.650978 
L 238.924104 189.622466 
L 240.626361 183.843627 
L 242.328619 173.964723 
L 244.030876 164.785825 
L 245.733134 158.517246 
L 247.435391 162.156861 
L 249.137649 163.469998 
L 250.839906 146.532147 
L 252.542164 120.306238 
L 254.244421 105.510685 
L 255.946679 105.623334 
L 259.351194 137.342739 
L 262.755709 175.242968 
L 264.457966 187.298882 
L 266.160223 194.700516 
L 267.862481 199.185608 
L 269.564738 200.822796 
L 271.266996 198.842326 
L 272.969253 194.37059 
L 274.671511 176.307083 
L 276.373768 142.16353 
L 278.076026 116.762822 
L 279.778283 110.593296 
L 281.480541 124.877209 
L 283.182798 136.263831 
L 284.885056 135.310839 
L 286.587313 139.036998 
L 288.289571 147.39091 
L 289.991828 153.129443 
L 291.694086 157.781892 
L 293.396343 158.482596 
L 295.098601 166.515708 
L 296.800858 181.261042 
L 298.503115 190.860636 
L 300.205373 196.785033 
L 301.90763 200.343609 
L 303.609888 202.0001 
L 305.312145 202.072353 
L 307.014403 198.69498 
L 308.71666 174.770749 
L 310.418918 123.905715 
L 312.121175 82.918236 
L 313.823433 65.290245 
L 315.52569 75.233832 
L 317.227948 89.178675 
L 318.930205 104.046818 
L 320.632463 132.340673 
L 322.33472 156.127023 
L 324.036978 170.803919 
L 325.739235 178.438784 
L 327.441493 179.924829 
L 329.14375 183.227816 
L 330.846007 190.334015 
L 332.548265 194.669354 
L 335.95278 199.154758 
L 337.655037 200.640434 
L 339.357295 201.373591 
L 341.059552 198.497414 
L 342.76181 175.848664 
L 344.464067 133.289949 
L 346.166325 96.343135 
L 347.868582 63.485519 
L 349.57084 49.281897 
L 351.273097 49.212438 
L 352.975355 73.73417 
L 354.677612 117.286439 
L 356.37987 149.532126 
L 358.082127 170.130102 
L 359.784385 182.913543 
L 361.486642 190.142523 
L 363.188899 194.604505 
L 364.891157 197.454288 
L 366.593414 195.481561 
L 368.295672 189.443037 
L 369.997929 189.181797 
L 373.402444 192.319092 
L 375.104702 189.120199 
L 376.806959 171.196633 
L 378.509217 150.8214 
L 380.211474 133.347395 
L 383.615989 70.840671 
L 385.318247 54.922356 
L 387.020504 75.615208 
L 388.722762 118.058885 
L 390.425019 149.6538 
L 392.127277 170.577235 
L 393.829534 184.329536 
L 395.531791 192.821336 
L 397.234049 197.977714 
L 398.936306 200.628871 
L 400.638564 196.143723 
L 402.340821 182.665752 
L 404.043079 175.725033 
L 405.745336 170.370957 
L 407.447594 166.229604 
L 409.149851 159.286354 
L 410.852109 149.104534 
L 412.554366 150.923733 
L 414.256624 152.136691 
L 415.958881 137.535751 
L 417.661139 115.577909 
L 419.363396 103.173232 
L 421.065654 114.38742 
L 422.767911 140.561858 
L 424.470169 160.887265 
L 426.172426 176.388787 
L 427.874683 188.111335 
L 429.576941 195.182216 
L 431.279198 199.500992 
L 432.981456 201.955335 
L 434.683713 198.61707 
L 436.385971 186.742767 
L 438.088228 174.020158 
L 439.790486 151.485211 
L 441.492743 124.025584 
L 443.195001 104.632159 
L 444.897258 104.02533 
L 446.599516 125.162918 
L 448.301773 141.836128 
L 450.004031 145.142502 
L 451.706288 146.820128 
L 453.408546 151.014921 
L 455.110803 158.764767 
L 456.813061 168.644207 
L 458.515318 174.000424 
L 460.217576 181.498276 
L 461.919833 191.064543 
L 463.62209 196.963483 
L 465.324348 200.56108 
L 467.026605 202.453984 
L 468.728863 200.369151 
L 470.43112 194.023986 
L 472.133378 181.972847 
L 473.835635 145.565513 
L 475.537893 89.082245 
L 477.24015 51.221202 
L 478.942408 51.78122 
L 480.644665 83.722583 
L 482.346923 111.347754 
L 484.04918 130.983502 
L 485.751438 152.64884 
L 487.453695 169.573923 
L 489.155953 180.530521 
L 490.85821 186.309574 
L 492.560468 185.501965 
L 494.262725 186.832321 
L 495.964982 192.98015 
L 497.66724 197.060959 
L 499.369497 199.281386 
L 501.071755 199.961767 
L 502.774012 198.378601 
L 504.47627 196.215561 
L 506.178527 188.003433 
L 507.880785 151.763695 
L 509.583042 92.812719 
L 511.2853 51.078252 
L 512.987557 40.202688 
L 514.689815 60.844437 
L 516.392072 84.613009 
L 518.09433 114.07857 
L 519.796587 147.216511 
L 521.498845 169.526158 
L 523.201102 183.44721 
L 524.90336 191.505108 
L 526.605617 194.052145 
L 528.307874 194.994225 
L 530.010132 196.601554 
L 531.712389 194.432407 
L 533.414647 189.212826 
L 535.116904 186.864059 
L 536.819162 186.373168 
L 538.521419 187.637188 
L 540.223677 182.412928 
L 541.925934 155.36 
L 543.628192 122.350455 
L 545.330449 98.93538 
L 547.032707 81.512993 
L 548.734964 78.70706 
L 550.437222 84.568738 
L 552.139479 112.415895 
L 553.841737 147.177275 
L 555.543994 169.727425 
L 557.246252 183.856212 
L 558.948509 192.519625 
L 560.650766 197.501993 
L 562.353024 200.127822 
L 564.055281 200.303204 
L 565.757539 190.517211 
L 567.459796 170.817997 
L 569.162054 160.158128 
L 570.864311 157.037153 
L 572.566569 159.714269 
L 574.268826 156.321326 
L 575.971084 142.812594 
L 577.673341 140.302554 
L 579.375599 140.001197 
L 581.077856 131.266354 
L 582.780114 120.891275 
L 582.780114 120.891275 
" clip-path="url(#pcbe526a983)" style="fill: none; stroke-dasharray: 5.55,2.4; stroke-dashoffset: 0; stroke: #008000; stroke-width: 1.5"/>
   </g>
   <g id="line2d_34">
    <path d="M 75.507386 184.562481 
L 77.209644 171.433877 
L 78.911901 171.596535 
L 80.614159 140.871616 
L 82.316416 176.940053 
L 84.018674 184.123795 
L 85.720931 135.028537 
L 87.423189 110.806579 
L 89.125446 132.667142 
L 90.827704 111.035283 
L 92.529961 104.887906 
L 94.232219 125.130164 
L 95.934476 131.649845 
L 97.636734 155.971724 
L 99.338991 201.248697 
L 101.041248 208.710657 
L 102.743506 183.91163 
L 104.445763 173.97313 
L 106.148021 182.434365 
L 107.850278 172.42121 
L 109.552536 145.892887 
L 111.254793 141.312718 
L 112.957051 138.827568 
L 114.659308 103.924086 
L 116.361566 105.037297 
L 118.063823 149.19573 
L 119.766081 124.243565 
L 121.468338 159.15521 
L 123.170596 151.816459 
L 124.872853 153.44738 
L 126.575111 126.602919 
L 128.277368 144.729576 
L 129.979626 150.317989 
L 131.681883 168.449198 
L 133.38414 198.189921 
L 135.086398 219.59828 
L 136.788655 202.398463 
L 138.490913 183.738169 
L 140.19317 233.233684 
L 141.895428 195.100771 
L 143.597685 148.076157 
L 145.299943 142.636612 
L 147.0022 121.266065 
L 148.704458 92.510589 
L 150.406715 81.779737 
L 152.108973 124.369298 
L 153.81123 110.994793 
L 155.513488 167.299113 
L 157.215745 197.610919 
L 158.918003 165.460775 
L 160.62026 156.209746 
L 162.322518 169.244465 
L 164.024775 177.588849 
L 165.727032 167.463279 
L 167.42929 192.231852 
L 169.131547 200.268823 
L 170.833805 178.060506 
L 172.536062 184.004993 
L 174.23832 192.715686 
L 175.940577 197.303781 
L 177.642835 142.633269 
L 179.345092 117.557377 
L 181.04735 95.213829 
L 182.749607 88.468297 
L 184.451865 110.069792 
L 186.154122 108.035751 
L 187.85638 123.96655 
L 189.558637 145.998836 
L 191.260895 218.407708 
L 192.963152 177.141655 
L 194.66541 179.451413 
L 196.367667 189.647201 
L 198.069924 201.56865 
L 199.772182 193.089352 
L 201.474439 186.180792 
L 203.176697 187.045066 
L 204.878954 146.784055 
L 206.581212 199.677453 
L 208.283469 164.241786 
L 209.985727 152.940325 
L 211.687984 124.623182 
L 213.390242 166.375022 
L 215.092499 125.752043 
L 216.794757 77.859383 
L 218.497014 116.389878 
L 220.199272 86.680643 
L 221.901529 111.408677 
L 223.603787 127.033134 
L 225.306044 153.397744 
L 227.008302 171.116301 
L 228.710559 180.194722 
L 230.412817 192.645047 
L 232.115074 191.878618 
L 233.817331 167.623104 
L 235.519589 183.871283 
L 237.221846 182.19797 
L 238.924104 123.624747 
L 240.626361 176.635532 
L 244.030876 149.667971 
L 245.733134 141.238598 
L 247.435391 156.670243 
L 249.137649 179.487326 
L 250.839906 138.07268 
L 252.542164 130.447878 
L 254.244421 135.423176 
L 255.946679 115.082156 
L 257.648936 126.928153 
L 259.351194 142.164566 
L 261.053451 169.51132 
L 262.755709 147.95078 
L 264.457966 221.246974 
L 266.160223 221.319307 
L 267.862481 183.793569 
L 271.266996 160.166296 
L 272.969253 162.031519 
L 274.671511 138.475188 
L 276.373768 146.009137 
L 278.076026 146.06543 
L 279.778283 105.68808 
L 281.480541 132.483382 
L 283.182798 162.330216 
L 284.885056 132.861216 
L 286.587313 132.810689 
L 288.289571 158.811714 
L 289.991828 165.845122 
L 291.694086 134.080936 
L 293.396343 178.005826 
L 295.098601 159.731937 
L 296.800858 178.090163 
L 298.503115 218.174962 
L 300.205373 219.053447 
L 301.90763 185.467847 
L 303.609888 170.544001 
L 305.312145 193.392404 
L 307.014403 143.154971 
L 308.71666 125.432676 
L 310.418918 101.245336 
L 312.121175 127.727751 
L 313.823433 69.223617 
L 315.52569 128.674093 
L 317.227948 150.555705 
L 318.930205 131.450995 
L 320.632463 168.467023 
L 322.33472 182.639525 
L 324.036978 193.241415 
L 325.739235 151.507799 
L 327.441493 173.705179 
L 329.14375 162.498059 
L 330.846007 179.646155 
L 332.548265 212.77296 
L 334.250522 204.196625 
L 335.95278 174.228184 
L 337.655037 181.706398 
L 339.357295 207.80103 
L 341.059552 194.145125 
L 342.76181 135.096579 
L 344.464067 115.857715 
L 346.166325 93.238665 
L 347.868582 61.355734 
L 349.57084 74.464793 
L 351.273097 116.411362 
L 352.975355 107.85678 
L 354.677612 166.100043 
L 356.37987 233.998125 
L 358.082127 200.987554 
L 359.784385 178.899634 
L 361.486642 206.646473 
L 363.188899 184.783428 
L 364.891157 168.409775 
L 366.593414 189.775526 
L 368.295672 193.982383 
L 369.997929 163.487274 
L 371.700187 158.627695 
L 373.402444 166.566401 
L 375.104702 165.147551 
L 376.806959 138.446506 
L 378.509217 140.454215 
L 380.211474 107.349334 
L 381.913732 91.345743 
L 383.615989 106.964984 
L 385.318247 107.057049 
L 387.020504 125.493614 
L 388.722762 183.446378 
L 390.425019 202.959957 
L 392.127277 207.506461 
L 393.829534 190.258733 
L 395.531791 213.55094 
L 397.234049 211.187527 
L 398.936306 203.400268 
L 400.638564 183.152832 
L 402.340821 174.492014 
L 404.043079 141.677934 
L 405.745336 157.424609 
L 407.447594 151.855229 
L 409.149851 144.682736 
L 410.852109 116.108423 
L 412.554366 140.478051 
L 414.256624 156.733443 
L 415.958881 114.902643 
L 417.661139 124.233739 
L 419.363396 129.198066 
L 421.065654 114.639593 
L 422.767911 159.115442 
L 424.470169 158.577077 
L 426.172426 206.054213 
L 427.874683 166.123118 
L 429.576941 202.036557 
L 431.279198 184.622441 
L 432.981456 189.784132 
L 434.683713 187.621371 
L 436.385971 155.714182 
L 438.088228 131.550877 
L 439.790486 134.580765 
L 441.492743 132.5822 
L 443.195001 125.426314 
L 444.897258 120.13418 
L 446.599516 146.959683 
L 448.301773 193.556425 
L 450.004031 179.452675 
L 451.706288 152.51826 
L 453.408546 175.792897 
L 455.110803 153.934732 
L 456.813061 152.203802 
L 458.515318 157.093111 
L 460.217576 182.060367 
L 461.919833 138.465705 
L 463.62209 214.953638 
L 465.324348 212.267621 
L 467.026605 192.087845 
L 468.728863 142.132877 
L 470.43112 162.706726 
L 472.133378 122.402597 
L 473.835635 112.3683 
L 475.537893 108.330728 
L 477.24015 105.316638 
L 478.942408 100.075092 
L 480.644665 128.641574 
L 482.346923 151.875741 
L 484.04918 133.865935 
L 485.751438 153.689518 
L 487.453695 164.886881 
L 489.155953 193.984524 
L 490.85821 146.326833 
L 492.560468 186.895744 
L 494.262725 186.724625 
L 495.964982 150.178529 
L 497.66724 227.433195 
L 499.369497 205.876563 
L 501.071755 168.233203 
L 502.774012 178.709834 
L 504.47627 190.289389 
L 506.178527 150.062083 
L 507.880785 120.018456 
L 509.583042 75.758967 
L 511.2853 115.840348 
L 512.987557 68.99547 
L 514.689815 123.937976 
L 516.392072 157.525374 
L 518.09433 138.927919 
L 519.796587 167.912381 
L 521.498845 211.564859 
L 523.201102 196.436872 
L 524.90336 172.433392 
L 526.605617 197.702361 
L 528.307874 169.263326 
L 530.010132 190.626838 
L 531.712389 206.522713 
L 533.414647 192.533625 
L 535.116904 164.150471 
L 536.819162 160.499078 
L 538.521419 174.33279 
L 540.223677 173.284204 
L 541.925934 106.934266 
L 543.628192 99.558988 
L 545.330449 105.392121 
L 547.032707 93.285569 
L 548.734964 104.570244 
L 550.437222 142.650727 
L 552.139479 121.443233 
L 553.841737 185.313816 
L 555.543994 231.00266 
L 557.246252 232.834552 
L 558.948509 182.574065 
L 560.650766 198.956299 
L 562.353024 200.399682 
L 564.055281 165.583592 
L 565.757539 169.888901 
L 567.459796 157.485312 
L 569.162054 149.589861 
L 570.864311 124.202365 
L 572.566569 154.326059 
L 574.268826 147.324428 
L 575.971084 120.080107 
L 577.673341 150.26992 
L 579.375599 160.382773 
L 581.077856 129.467084 
L 582.780114 127.808042 
L 582.780114 127.808042 
" clip-path="url(#pcbe526a983)" style="fill: none; stroke: #ff0000; stroke-width: 1.5; stroke-linecap: square"/>
   </g>
   <g id="patch_3">
    <path d="M 50.14375 244.078125 
L 50.14375 22.318125 
" style="fill: none; stroke: #000000; stroke-width: 0.8; stroke-linejoin: miter; stroke-linecap: square"/>
   </g>
   <g id="patch_4">
    <path d="M 608.14375 244.078125 
L 608.14375 22.318125 
" style="fill: none; stroke: #000000; stroke-width: 0.8; stroke-linejoin: miter; stroke-linecap: square"/>
   </g>
   <g id="patch_5">
    <path d="M 50.14375 244.078125 
L 608.14375 244.078125 
" style="fill: none; stroke: #000000; stroke-width: 0.8; stroke-linejoin: miter; stroke-linecap: square"/>
   </g>
   <g id="patch_6">
    <path d="M 50.14375 22.318125 
L 608.14375 22.318125 
" style="fill: none; stroke: #000000; stroke-width: 0.8; stroke-linejoin: miter; stroke-linecap: square"/>
   </g>
   <g id="text_19">
    <!-- Task Performance: NARMA2 (validation set) -->
    <g transform="translate(199.271875 16.318125) scale(0.12 -0.12)">
     <defs>
      <path id="DejaVuSans-6b" d="M 581 4863 
L 1159 4863 
L 1159 1991 
L 2875 3500 
L 3609 3500 
L 1753 1863 
L 3688 0 
L 2938 0 
L 1159 1709 
L 1159 0 
L 581 0 
L 581 4863 
z
" transform="scale(0.015625)"/>
      <path id="DejaVuSans-50" d="M 1259 4147 
L 1259 2394 
L 2053 2394 
Q 2494 2394 2734 2622 
Q 2975 2850 2975 3272 
Q 2975 3691 2734 3919 
Q 2494 4147 2053 4147 
L 1259 4147 
z
M 628 4666 
L 2053 4666 
Q 2838 4666 3239 4311 
Q 3641 3956 3641 3272 
Q 3641 2581 3239 2228 
Q 2838 1875 2053 1875 
L 1259 1875 
L 1259 0 
L 628 0 
L 628 4666 
z
" transform="scale(0.015625)"/>
      <path id="DejaVuSans-72" d="M 2631 2963 
Q 2534 3019 2420 3045 
Q 2306 3072 2169 3072 
Q 1681 3072 1420 2755 
Q 1159 2438 1159 1844 
L 1159 0 
L 581 0 
L 581 3500 
L 1159 3500 
L 1159 2956 
Q 1341 3275 1631 3429 
Q 1922 3584 2338 3584 
Q 2397 3584 2469 3576 
Q 2541 3569 2628 3553 
L 2631 2963 
z
" transform="scale(0.015625)"/>
      <path id="DejaVuSans-66" d="M 2375 4863 
L 2375 4384 
L 1825 4384 
Q 1516 4384 1395 4259 
Q 1275 4134 1275 3809 
L 1275 3500 
L 2222 3500 
L 2222 3053 
L 1275 3053 
L 1275 0 
L 697 0 
L 697 3053 
L 147 3053 
L 147 3500 
L 697 3500 
L 697 3744 
Q 697 4328 969 4595 
Q 1241 4863 1831 4863 
L 2375 4863 
z
" transform="scale(0.015625)"/>
      <path id="DejaVuSans-6f" d="M 1959 3097 
Q 1497 3097 1228 2736 
Q 959 2375 959 1747 
Q 959 1119 1226 758 
Q 1494 397 1959 397 
Q 2419 397 2687 759 
Q 2956 1122 2956 1747 
Q 2956 2369 2687 2733 
Q 2419 3097 1959 3097 
z
M 1959 3584 
Q 2709 3584 3137 3096 
Q 3566 2609 3566 1747 
Q 3566 888 3137 398 
Q 2709 -91 1959 -91 
Q 1206 -91 779 398 
Q 353 888 353 1747 
Q 353 2609 779 3096 
Q 1206 3584 1959 3584 
z
" transform="scale(0.015625)"/>
      <path id="DejaVuSans-63" d="M 3122 3366 
L 3122 2828 
Q 2878 2963 2633 3030 
Q 2388 3097 2138 3097 
Q 1578 3097 1268 2742 
Q 959 2388 959 1747 
Q 959 1106 1268 751 
Q 1578 397 2138 397 
Q 2388 397 2633 464 
Q 2878 531 3122 666 
L 3122 134 
Q 2881 22 2623 -34 
Q 2366 -91 2075 -91 
Q 1284 -91 818 406 
Q 353 903 353 1747 
Q 353 2603 823 3093 
Q 1294 3584 2113 3584 
Q 2378 3584 2631 3529 
Q 2884 3475 3122 3366 
z
" transform="scale(0.015625)"/>
      <path id="DejaVuSans-3a" d="M 750 794 
L 1409 794 
L 1409 0 
L 750 0 
L 750 794 
z
M 750 3309 
L 1409 3309 
L 1409 2516 
L 750 2516 
L 750 3309 
z
" transform="scale(0.015625)"/>
      <path id="DejaVuSans-4e" d="M 628 4666 
L 1478 4666 
L 3547 763 
L 3547 4666 
L 4159 4666 
L 4159 0 
L 3309 0 
L 1241 3903 
L 1241 0 
L 628 0 
L 628 4666 
z
" transform="scale(0.015625)"/>
      <path id="DejaVuSans-41" d="M 2188 4044 
L 1331 1722 
L 3047 1722 
L 2188 4044 
z
M 1831 4666 
L 2547 4666 
L 4325 0 
L 3669 0 
L 3244 1197 
L 1141 1197 
L 716 0 
L 50 0 
L 1831 4666 
z
" transform="scale(0.015625)"/>
      <path id="DejaVuSans-52" d="M 2841 2188 
Q 3044 2119 3236 1894 
Q 3428 1669 3622 1275 
L 4263 0 
L 3584 0 
L 2988 1197 
Q 2756 1666 2539 1819 
Q 2322 1972 1947 1972 
L 1259 1972 
L 1259 0 
L 628 0 
L 628 4666 
L 2053 4666 
Q 2853 4666 3247 4331 
Q 3641 3997 3641 3322 
Q 3641 2881 3436 2590 
Q 3231 2300 2841 2188 
z
M 1259 4147 
L 1259 2491 
L 2053 2491 
Q 2509 2491 2742 2702 
Q 2975 2913 2975 3322 
Q 2975 3731 2742 3939 
Q 2509 4147 2053 4147 
L 1259 4147 
z
" transform="scale(0.015625)"/>
      <path id="DejaVuSans-4d" d="M 628 4666 
L 1569 4666 
L 2759 1491 
L 3956 4666 
L 4897 4666 
L 4897 0 
L 4281 0 
L 4281 4097 
L 3078 897 
L 2444 897 
L 1241 4097 
L 1241 0 
L 628 0 
L 628 4666 
z
" transform="scale(0.015625)"/>
      <path id="DejaVuSans-28" d="M 1984 4856 
Q 1566 4138 1362 3434 
Q 1159 2731 1159 2009 
Q 1159 1288 1364 580 
Q 1569 -128 1984 -844 
L 1484 -844 
Q 1016 -109 783 600 
Q 550 1309 550 2009 
Q 550 2706 781 3412 
Q 1013 4119 1484 4856 
L 1984 4856 
z
" transform="scale(0.015625)"/>
      <path id="DejaVuSans-76" d="M 191 3500 
L 800 3500 
L 1894 563 
L 2988 3500 
L 3597 3500 
L 2284 0 
L 1503 0 
L 191 3500 
z
" transform="scale(0.015625)"/>
      <path id="DejaVuSans-64" d="M 2906 2969 
L 2906 4863 
L 3481 4863 
L 3481 0 
L 2906 0 
L 2906 525 
Q 2725 213 2448 61 
Q 2172 -91 1784 -91 
Q 1150 -91 751 415 
Q 353 922 353 1747 
Q 353 2572 751 3078 
Q 1150 3584 1784 3584 
Q 2172 3584 2448 3432 
Q 2725 3281 2906 2969 
z
M 947 1747 
Q 947 1113 1208 752 
Q 1469 391 1925 391 
Q 2381 391 2643 752 
Q 2906 1113 2906 1747 
Q 2906 2381 2643 2742 
Q 2381 3103 1925 3103 
Q 1469 3103 1208 2742 
Q 947 2381 947 1747 
z
" transform="scale(0.015625)"/>
      <path id="DejaVuSans-29" d="M 513 4856 
L 1013 4856 
Q 1481 4119 1714 3412 
Q 1947 2706 1947 2009 
Q 1947 1309 1714 600 
Q 1481 -109 1013 -844 
L 513 -844 
Q 928 -128 1133 580 
Q 1338 1288 1338 2009 
Q 1338 2731 1133 3434 
Q 928 4138 513 4856 
z
" transform="scale(0.015625)"/>
     </defs>
     <use xlink:href="#DejaVuSans-54"/>
     <use xlink:href="#DejaVuSans-61" transform="translate(44.583984 0)"/>
     <use xlink:href="#DejaVuSans-73" transform="translate(105.863281 0)"/>
     <use xlink:href="#DejaVuSans-6b" transform="translate(157.962891 0)"/>
     <use xlink:href="#DejaVuSans-20" transform="translate(215.873047 0)"/>
     <use xlink:href="#DejaVuSans-50" transform="translate(247.660156 0)"/>
     <use xlink:href="#DejaVuSans-65" transform="translate(304.337891 0)"/>
     <use xlink:href="#DejaVuSans-72" transform="translate(365.861328 0)"/>
     <use xlink:href="#DejaVuSans-66" transform="translate(406.974609 0)"/>
     <use xlink:href="#DejaVuSans-6f" transform="translate(442.179688 0)"/>
     <use xlink:href="#DejaVuSans-72" transform="translate(503.361328 0)"/>
     <use xlink:href="#DejaVuSans-6d" transform="translate(542.724609 0)"/>
     <use xlink:href="#DejaVuSans-61" transform="translate(640.136719 0)"/>
     <use xlink:href="#DejaVuSans-6e" transform="translate(701.416016 0)"/>
     <use xlink:href="#DejaVuSans-63" transform="translate(764.794922 0)"/>
     <use xlink:href="#DejaVuSans-65" transform="translate(819.775391 0)"/>
     <use xlink:href="#DejaVuSans-3a" transform="translate(881.298828 0)"/>
     <use xlink:href="#DejaVuSans-20" transform="translate(914.990234 0)"/>
     <use xlink:href="#DejaVuSans-4e" transform="translate(946.777344 0)"/>
     <use xlink:href="#DejaVuSans-41" transform="translate(1021.582031 0)"/>
     <use xlink:href="#DejaVuSans-52" transform="translate(1089.990234 0)"/>
     <use xlink:href="#DejaVuSans-4d" transform="translate(1159.472656 0)"/>
     <use xlink:href="#DejaVuSans-41" transform="translate(1245.751953 0)"/>
     <use xlink:href="#DejaVuSans-32" transform="translate(1314.160156 0)"/>
     <use xlink:href="#DejaVuSans-20" transform="translate(1377.783203 0)"/>
     <use xlink:href="#DejaVuSans-28" transform="translate(1409.570312 0)"/>
     <use xlink:href="#DejaVuSans-76" transform="translate(1448.583984 0)"/>
     <use xlink:href="#DejaVuSans-61" transform="translate(1507.763672 0)"/>
     <use xlink:href="#DejaVuSans-6c" transform="translate(1569.042969 0)"/>
     <use xlink:href="#DejaVuSans-69" transform="translate(1596.826172 0)"/>
     <use xlink:href="#DejaVuSans-64" transform="translate(1624.609375 0)"/>
     <use xlink:href="#DejaVuSans-61" transform="translate(1688.085938 0)"/>
     <use xlink:href="#DejaVuSans-74" transform="translate(1749.365234 0)"/>
     <use xlink:href="#DejaVuSans-69" transform="translate(1788.574219 0)"/>
     <use xlink:href="#DejaVuSans-6f" transform="translate(1816.357422 0)"/>
     <use xlink:href="#DejaVuSans-6e" transform="translate(1877.539062 0)"/>
     <use xlink:href="#DejaVuSans-20" transform="translate(1940.917969 0)"/>
     <use xlink:href="#DejaVuSans-73" transform="translate(1972.705078 0)"/>
     <use xlink:href="#DejaVuSans-65" transform="translate(2024.804688 0)"/>
     <use xlink:href="#DejaVuSans-74" transform="translate(2086.328125 0)"/>
     <use xlink:href="#DejaVuSans-29" transform="translate(2125.537109 0)"/>
    </g>
   </g>
   <g id="legend_1">
    <g id="patch_7">
     <path d="M 519.470312 59.674375 
L 601.14375 59.674375 
Q 603.14375 59.674375 603.14375 57.674375 
L 603.14375 29.318125 
Q 603.14375 27.318125 601.14375 27.318125 
L 519.470312 27.318125 
Q 517.470312 27.318125 517.470312 29.318125 
L 517.470312 57.674375 
Q 517.470312 59.674375 519.470312 59.674375 
z
" style="fill: #ffffff; opacity: 0.8; stroke: #cccccc; stroke-linejoin: miter"/>
    </g>
    <g id="line2d_35">
     <path d="M 521.470312 35.416562 
L 531.470312 35.416562 
L 541.470312 35.416562 
" style="fill: none; stroke-dasharray: 5.55,2.4; stroke-dashoffset: 0; stroke: #008000; stroke-width: 1.5"/>
    </g>
    <g id="text_20">
     <!-- Target -->
     <g transform="translate(549.470312 38.916562) scale(0.1 -0.1)">
      <use xlink:href="#DejaVuSans-54"/>
      <use xlink:href="#DejaVuSans-61" transform="translate(44.583984 0)"/>
      <use xlink:href="#DejaVuSans-72" transform="translate(105.863281 0)"/>
      <use xlink:href="#DejaVuSans-67" transform="translate(145.226562 0)"/>
      <use xlink:href="#DejaVuSans-65" transform="translate(208.703125 0)"/>
      <use xlink:href="#DejaVuSans-74" transform="translate(270.226562 0)"/>
     </g>
    </g>
    <g id="line2d_36">
     <path d="M 521.470312 50.094687 
L 531.470312 50.094687 
L 541.470312 50.094687 
" style="fill: none; stroke: #ff0000; stroke-width: 1.5; stroke-linecap: square"/>
    </g>
    <g id="text_21">
     <!-- Prediction -->
     <g transform="translate(549.470312 53.594687) scale(0.1 -0.1)">
      <use xlink:href="#DejaVuSans-50"/>
      <use xlink:href="#DejaVuSans-72" transform="translate(58.552734 0)"/>
      <use xlink:href="#DejaVuSans-65" transform="translate(97.416016 0)"/>
      <use xlink:href="#DejaVuSans-64" transform="translate(158.939453 0)"/>
      <use xlink:href="#DejaVuSans-69" transform="translate(222.416016 0)"/>
      <use xlink:href="#DejaVuSans-63" transform="translate(250.199219 0)"/>
      <use xlink:href="#DejaVuSans-74" transform="translate(305.179688 0)"/>
      <use xlink:href="#DejaVuSans-69" transform="translate(344.388672 0)"/>
      <use xlink:href="#DejaVuSans-6f" transform="translate(372.171875 0)"/>
      <use xlink:href="#DejaVuSans-6e" transform="translate(433.353516 0)"/>
     </g>
    </g>
   </g>
  </g>
 </g>
 <defs>
  <clipPath id="pcbe526a983">
   <rect x="50.14375" y="22.318125" width="558" height="221.76"/>
  </clipPath>
 </defs>
</svg>
