<?xml version="1.0" encoding="utf-8" standalone="no"?>
<!DOCTYPE svg PUBLIC "-//W3C//DTD SVG 1.1//EN"
  "http://www.w3.org/Graphics/SVG/1.1/DTD/svg11.dtd">
<svg xmlns:xlink="http://www.w3.org/1999/xlink" width="615.34375pt" height="281.634375pt" viewBox="0 0 615.34375 281.634375" xmlns="http://www.w3.org/2000/svg" version="1.1">
 <metadata>
  <rdf:RDF xmlns:dc="http://purl.org/dc/elements/1.1/" xmlns:cc="http://creativecommons.org/ns#" xmlns:rdf="http://www.w3.org/1999/02/22-rdf-syntax-ns#">
   <cc:Work>
    <dc:type rdf:resource="http://purl.org/dc/dcmitype/StillImage"/>
    <dc:date>2026-03-24T15:51:19.969075</dc:date>
    <dc:format>image/svg+xml</dc:format>
    <dc:creator>
     <cc:Agent>
      <dc:title>Matplotlib v3.10.8, https://matplotlib.org/</dc:title>
     </cc:Agent>
    </dc:creator>
   </cc:Work>
  </rdf:RDF>
 </metadata>
 <defs>
  <style type="text/css">*{stroke-linejoin: round; stroke-linecap: butt}</style>
 </defs>
 <g id="figure_1">
  <g id="patch_1">
   <path d="M 0 281.634375 
L 615.34375 281.634375 
L 615.34375 0 
L 0 0 
z
" style="fill: #ffffff"/>
  </g>
  <g id="axes_1">
   <g id="patch_2">
    <path d="M 50.14375 244.078125 
L 608.14375 244.078125 
L 608.14375 22.318125 
L 50.14375 22.318125 
z
" style="fill: #ffffff"/>
   </g>
   <g id="matplotlib.axis_1">
    <g id="xtick_1">
     <g id="line2d_1">
      <path d="M 75.507386 244.078125 
L 75.507386 22.318125 
" clip-path="url(#pd0eacb8bef)" style="fill: none; stroke: #b0b0b0; stroke-opacity: 0.3; stroke-width: 0.8; stroke-linecap: square"/>
     </g>
     <g id="line2d_2">
      <defs>
       <path id="m3df0a58939" d="M 0 0 
L 0 3.5 
" style="stroke: #000000; stroke-width: 0.8"/>
      </defs>
      <g>
       <use xlink:href="#m3df0a58939" x="75.507386" y="244.078125" style="stroke: #000000; stroke-width: 0.8"/>
      </g>
     </g>
     <g id="text_1">
      <!-- 0 -->
      <g transform="translate(72.326136 258.676562) scale(0.1 -0.1)">
       <defs>
        <path id="DejaVuSans-30" d="M 2034 4250 
Q 1547 4250 1301 3770 
Q 1056 3291 1056 2328 
Q 1056 1369 1301 889 
Q 1547 409 2034 409 
Q 2525 409 2770 889 
Q 3016 1369 3016 2328 
Q 3016 3291 2770 3770 
Q 2525 4250 2034 4250 
z
M 2034 4750 
Q 2819 4750 3233 4129 
Q 3647 3509 3647 2328 
Q 3647 1150 3233 529 
Q 2819 -91 2034 -91 
Q 1250 -91 836 529 
Q 422 1150 422 2328 
Q 422 3509 836 4129 
Q 1250 4750 2034 4750 
z
" transform="scale(0.015625)"/>
       </defs>
       <use xlink:href="#DejaVuSans-30"/>
      </g>
     </g>
    </g>
    <g id="xtick_2">
     <g id="line2d_3">
      <path d="M 160.62026 244.078125 
L 160.62026 22.318125 
" clip-path="url(#pd0eacb8bef)" style="fill: none; stroke: #b0b0b0; stroke-opacity: 0.3; stroke-width: 0.8; stroke-linecap: square"/>
     </g>
     <g id="line2d_4">
      <g>
       <use xlink:href="#m3df0a58939" x="160.62026" y="244.078125" style="stroke: #000000; stroke-width: 0.8"/>
      </g>
     </g>
     <g id="text_2">
      <!-- 50 -->
      <g transform="translate(154.25776 258.676562) scale(0.1 -0.1)">
       <defs>
        <path id="DejaVuSans-35" d="M 691 4666 
L 3169 4666 
L 3169 4134 
L 1269 4134 
L 1269 2991 
Q 1406 3038 1543 3061 
Q 1681 3084 1819 3084 
Q 2600 3084 3056 2656 
Q 3513 2228 3513 1497 
Q 3513 744 3044 326 
Q 2575 -91 1722 -91 
Q 1428 -91 1123 -41 
Q 819 9 494 109 
L 494 744 
Q 775 591 1075 516 
Q 1375 441 1709 441 
Q 2250 441 2565 725 
Q 2881 1009 2881 1497 
Q 2881 1984 2565 2268 
Q 2250 2553 1709 2553 
Q 1456 2553 1204 2497 
Q 953 2441 691 2322 
L 691 4666 
z
" transform="scale(0.015625)"/>
       </defs>
       <use xlink:href="#DejaVuSans-35"/>
       <use xlink:href="#DejaVuSans-30" transform="translate(63.623047 0)"/>
      </g>
     </g>
    </g>
    <g id="xtick_3">
     <g id="line2d_5">
      <path d="M 245.733134 244.078125 
L 245.733134 22.318125 
" clip-path="url(#pd0eacb8bef)" style="fill: none; stroke: #b0b0b0; stroke-opacity: 0.3; stroke-width: 0.8; stroke-linecap: square"/>
     </g>
     <g id="line2d_6">
      <g>
       <use xlink:href="#m3df0a58939" x="245.733134" y="244.078125" style="stroke: #000000; stroke-width: 0.8"/>
      </g>
     </g>
     <g id="text_3">
      <!-- 100 -->
      <g transform="translate(236.189384 258.676562) scale(0.1 -0.1)">
       <defs>
        <path id="DejaVuSans-31" d="M 794 531 
L 1825 531 
L 1825 4091 
L 703 3866 
L 703 4441 
L 1819 4666 
L 2450 4666 
L 2450 531 
L 3481 531 
L 3481 0 
L 794 0 
L 794 531 
z
" transform="scale(0.015625)"/>
       </defs>
       <use xlink:href="#DejaVuSans-31"/>
       <use xlink:href="#DejaVuSans-30" transform="translate(63.623047 0)"/>
       <use xlink:href="#DejaVuSans-30" transform="translate(127.246094 0)"/>
      </g>
     </g>
    </g>
    <g id="xtick_4">
     <g id="line2d_7">
      <path d="M 330.846007 244.078125 
L 330.846007 22.318125 
" clip-path="url(#pd0eacb8bef)" style="fill: none; stroke: #b0b0b0; stroke-opacity: 0.3; stroke-width: 0.8; stroke-linecap: square"/>
     </g>
     <g id="line2d_8">
      <g>
       <use xlink:href="#m3df0a58939" x="330.846007" y="244.078125" style="stroke: #000000; stroke-width: 0.8"/>
      </g>
     </g>
     <g id="text_4">
      <!-- 150 -->
      <g transform="translate(321.302257 258.676562) scale(0.1 -0.1)">
       <use xlink:href="#DejaVuSans-31"/>
       <use xlink:href="#DejaVuSans-35" transform="translate(63.623047 0)"/>
       <use xlink:href="#DejaVuSans-30" transform="translate(127.246094 0)"/>
      </g>
     </g>
    </g>
    <g id="xtick_5">
     <g id="line2d_9">
      <path d="M 415.958881 244.078125 
L 415.958881 22.318125 
" clip-path="url(#pd0eacb8bef)" style="fill: none; stroke: #b0b0b0; stroke-opacity: 0.3; stroke-width: 0.8; stroke-linecap: square"/>
     </g>
     <g id="line2d_10">
      <g>
       <use xlink:href="#m3df0a58939" x="415.958881" y="244.078125" style="stroke: #000000; stroke-width: 0.8"/>
      </g>
     </g>
     <g id="text_5">
      <!-- 200 -->
      <g transform="translate(406.415131 258.676562) scale(0.1 -0.1)">
       <defs>
        <path id="DejaVuSans-32" d="M 1228 531 
L 3431 531 
L 3431 0 
L 469 0 
L 469 531 
Q 828 903 1448 1529 
Q 2069 2156 2228 2338 
Q 2531 2678 2651 2914 
Q 2772 3150 2772 3378 
Q 2772 3750 2511 3984 
Q 2250 4219 1831 4219 
Q 1534 4219 1204 4116 
Q 875 4013 500 3803 
L 500 4441 
Q 881 4594 1212 4672 
Q 1544 4750 1819 4750 
Q 2544 4750 2975 4387 
Q 3406 4025 3406 3419 
Q 3406 3131 3298 2873 
Q 3191 2616 2906 2266 
Q 2828 2175 2409 1742 
Q 1991 1309 1228 531 
z
" transform="scale(0.015625)"/>
       </defs>
       <use xlink:href="#DejaVuSans-32"/>
       <use xlink:href="#DejaVuSans-30" transform="translate(63.623047 0)"/>
       <use xlink:href="#DejaVuSans-30" transform="translate(127.246094 0)"/>
      </g>
     </g>
    </g>
    <g id="xtick_6">
     <g id="line2d_11">
      <path d="M 501.071755 244.078125 
L 501.071755 22.318125 
" clip-path="url(#pd0eacb8bef)" style="fill: none; stroke: #b0b0b0; stroke-opacity: 0.3; stroke-width: 0.8; stroke-linecap: square"/>
     </g>
     <g id="line2d_12">
      <g>
       <use xlink:href="#m3df0a58939" x="501.071755" y="244.078125" style="stroke: #000000; stroke-width: 0.8"/>
      </g>
     </g>
     <g id="text_6">
      <!-- 250 -->
      <g transform="translate(491.528005 258.676562) scale(0.1 -0.1)">
       <use xlink:href="#DejaVuSans-32"/>
       <use xlink:href="#DejaVuSans-35" transform="translate(63.623047 0)"/>
       <use xlink:href="#DejaVuSans-30" transform="translate(127.246094 0)"/>
      </g>
     </g>
    </g>
    <g id="xtick_7">
     <g id="line2d_13">
      <path d="M 586.184629 244.078125 
L 586.184629 22.318125 
" clip-path="url(#pd0eacb8bef)" style="fill: none; stroke: #b0b0b0; stroke-opacity: 0.3; stroke-width: 0.8; stroke-linecap: square"/>
     </g>
     <g id="line2d_14">
      <g>
       <use xlink:href="#m3df0a58939" x="586.184629" y="244.078125" style="stroke: #000000; stroke-width: 0.8"/>
      </g>
     </g>
     <g id="text_7">
      <!-- 300 -->
      <g transform="translate(576.640879 258.676562) scale(0.1 -0.1)">
       <defs>
        <path id="DejaVuSans-33" d="M 2597 2516 
Q 3050 2419 3304 2112 
Q 3559 1806 3559 1356 
Q 3559 666 3084 287 
Q 2609 -91 1734 -91 
Q 1441 -91 1130 -33 
Q 819 25 488 141 
L 488 750 
Q 750 597 1062 519 
Q 1375 441 1716 441 
Q 2309 441 2620 675 
Q 2931 909 2931 1356 
Q 2931 1769 2642 2001 
Q 2353 2234 1838 2234 
L 1294 2234 
L 1294 2753 
L 1863 2753 
Q 2328 2753 2575 2939 
Q 2822 3125 2822 3475 
Q 2822 3834 2567 4026 
Q 2313 4219 1838 4219 
Q 1578 4219 1281 4162 
Q 984 4106 628 3988 
L 628 4550 
Q 988 4650 1302 4700 
Q 1616 4750 1894 4750 
Q 2613 4750 3031 4423 
Q 3450 4097 3450 3541 
Q 3450 3153 3228 2886 
Q 3006 2619 2597 2516 
z
" transform="scale(0.015625)"/>
       </defs>
       <use xlink:href="#DejaVuSans-33"/>
       <use xlink:href="#DejaVuSans-30" transform="translate(63.623047 0)"/>
       <use xlink:href="#DejaVuSans-30" transform="translate(127.246094 0)"/>
      </g>
     </g>
    </g>
    <g id="text_8">
     <!-- Time Steps -->
     <g transform="translate(301.33125 272.354687) scale(0.1 -0.1)">
      <defs>
       <path id="DejaVuSans-54" d="M -19 4666 
L 3928 4666 
L 3928 4134 
L 2272 4134 
L 2272 0 
L 1638 0 
L 1638 4134 
L -19 4134 
L -19 4666 
z
" transform="scale(0.015625)"/>
       <path id="DejaVuSans-69" d="M 603 3500 
L 1178 3500 
L 1178 0 
L 603 0 
L 603 3500 
z
M 603 4863 
L 1178 4863 
L 1178 4134 
L 603 4134 
L 603 4863 
z
" transform="scale(0.015625)"/>
       <path id="DejaVuSans-6d" d="M 3328 2828 
Q 3544 3216 3844 3400 
Q 4144 3584 4550 3584 
Q 5097 3584 5394 3201 
Q 5691 2819 5691 2113 
L 5691 0 
L 5113 0 
L 5113 2094 
Q 5113 2597 4934 2840 
Q 4756 3084 4391 3084 
Q 3944 3084 3684 2787 
Q 3425 2491 3425 1978 
L 3425 0 
L 2847 0 
L 2847 2094 
Q 2847 2600 2669 2842 
Q 2491 3084 2119 3084 
Q 1678 3084 1418 2786 
Q 1159 2488 1159 1978 
L 1159 0 
L 581 0 
L 581 3500 
L 1159 3500 
L 1159 2956 
Q 1356 3278 1631 3431 
Q 1906 3584 2284 3584 
Q 2666 3584 2933 3390 
Q 3200 3197 3328 2828 
z
" transform="scale(0.015625)"/>
       <path id="DejaVuSans-65" d="M 3597 1894 
L 3597 1613 
L 953 1613 
Q 991 1019 1311 708 
Q 1631 397 2203 397 
Q 2534 397 2845 478 
Q 3156 559 3463 722 
L 3463 178 
Q 3153 47 2828 -22 
Q 2503 -91 2169 -91 
Q 1331 -91 842 396 
Q 353 884 353 1716 
Q 353 2575 817 3079 
Q 1281 3584 2069 3584 
Q 2775 3584 3186 3129 
Q 3597 2675 3597 1894 
z
M 3022 2063 
Q 3016 2534 2758 2815 
Q 2500 3097 2075 3097 
Q 1594 3097 1305 2825 
Q 1016 2553 972 2059 
L 3022 2063 
z
" transform="scale(0.015625)"/>
       <path id="DejaVuSans-20" transform="scale(0.015625)"/>
       <path id="DejaVuSans-53" d="M 3425 4513 
L 3425 3897 
Q 3066 4069 2747 4153 
Q 2428 4238 2131 4238 
Q 1616 4238 1336 4038 
Q 1056 3838 1056 3469 
Q 1056 3159 1242 3001 
Q 1428 2844 1947 2747 
L 2328 2669 
Q 3034 2534 3370 2195 
Q 3706 1856 3706 1288 
Q 3706 609 3251 259 
Q 2797 -91 1919 -91 
Q 1588 -91 1214 -16 
Q 841 59 441 206 
L 441 856 
Q 825 641 1194 531 
Q 1563 422 1919 422 
Q 2459 422 2753 634 
Q 3047 847 3047 1241 
Q 3047 1584 2836 1778 
Q 2625 1972 2144 2069 
L 1759 2144 
Q 1053 2284 737 2584 
Q 422 2884 422 3419 
Q 422 4038 858 4394 
Q 1294 4750 2059 4750 
Q 2388 4750 2728 4690 
Q 3069 4631 3425 4513 
z
" transform="scale(0.015625)"/>
       <path id="DejaVuSans-74" d="M 1172 4494 
L 1172 3500 
L 2356 3500 
L 2356 3053 
L 1172 3053 
L 1172 1153 
Q 1172 725 1289 603 
Q 1406 481 1766 481 
L 2356 481 
L 2356 0 
L 1766 0 
Q 1100 0 847 248 
Q 594 497 594 1153 
L 594 3053 
L 172 3053 
L 172 3500 
L 594 3500 
L 594 4494 
L 1172 4494 
z
" transform="scale(0.015625)"/>
       <path id="DejaVuSans-70" d="M 1159 525 
L 1159 -1331 
L 581 -1331 
L 581 3500 
L 1159 3500 
L 1159 2969 
Q 1341 3281 1617 3432 
Q 1894 3584 2278 3584 
Q 2916 3584 3314 3078 
Q 3713 2572 3713 1747 
Q 3713 922 3314 415 
Q 2916 -91 2278 -91 
Q 1894 -91 1617 61 
Q 1341 213 1159 525 
z
M 3116 1747 
Q 3116 2381 2855 2742 
Q 2594 3103 2138 3103 
Q 1681 3103 1420 2742 
Q 1159 2381 1159 1747 
Q 1159 1113 1420 752 
Q 1681 391 2138 391 
Q 2594 391 2855 752 
Q 3116 1113 3116 1747 
z
" transform="scale(0.015625)"/>
       <path id="DejaVuSans-73" d="M 2834 3397 
L 2834 2853 
Q 2591 2978 2328 3040 
Q 2066 3103 1784 3103 
Q 1356 3103 1142 2972 
Q 928 2841 928 2578 
Q 928 2378 1081 2264 
Q 1234 2150 1697 2047 
L 1894 2003 
Q 2506 1872 2764 1633 
Q 3022 1394 3022 966 
Q 3022 478 2636 193 
Q 2250 -91 1575 -91 
Q 1294 -91 989 -36 
Q 684 19 347 128 
L 347 722 
Q 666 556 975 473 
Q 1284 391 1588 391 
Q 1994 391 2212 530 
Q 2431 669 2431 922 
Q 2431 1156 2273 1281 
Q 2116 1406 1581 1522 
L 1381 1569 
Q 847 1681 609 1914 
Q 372 2147 372 2553 
Q 372 3047 722 3315 
Q 1072 3584 1716 3584 
Q 2034 3584 2315 3537 
Q 2597 3491 2834 3397 
z
" transform="scale(0.015625)"/>
      </defs>
      <use xlink:href="#DejaVuSans-54"/>
      <use xlink:href="#DejaVuSans-69" transform="translate(57.958984 0)"/>
      <use xlink:href="#DejaVuSans-6d" transform="translate(85.742188 0)"/>
      <use xlink:href="#DejaVuSans-65" transform="translate(183.154297 0)"/>
      <use xlink:href="#DejaVuSans-20" transform="translate(244.677734 0)"/>
      <use xlink:href="#DejaVuSans-53" transform="translate(276.464844 0)"/>
      <use xlink:href="#DejaVuSans-74" transform="translate(339.941406 0)"/>
      <use xlink:href="#DejaVuSans-65" transform="translate(379.150391 0)"/>
      <use xlink:href="#DejaVuSans-70" transform="translate(440.673828 0)"/>
      <use xlink:href="#DejaVuSans-73" transform="translate(504.150391 0)"/>
     </g>
    </g>
   </g>
   <g id="matplotlib.axis_2">
    <g id="ytick_1">
     <g id="line2d_15">
      <path d="M 50.14375 232.720613 
L 608.14375 232.720613 
" clip-path="url(#pd0eacb8bef)" style="fill: none; stroke: #b0b0b0; stroke-opacity: 0.3; stroke-width: 0.8; stroke-linecap: square"/>
     </g>
     <g id="line2d_16">
      <defs>
       <path id="mb3a4a69639" d="M 0 0 
L -3.5 0 
" style="stroke: #000000; stroke-width: 0.8"/>
      </defs>
      <g>
       <use xlink:href="#mb3a4a69639" x="50.14375" y="232.720613" style="stroke: #000000; stroke-width: 0.8"/>
      </g>
     </g>
     <g id="text_9">
      <!-- 0.20 -->
      <g transform="translate(20.878125 236.519832) scale(0.1 -0.1)">
       <defs>
        <path id="DejaVuSans-2e" d="M 684 794 
L 1344 794 
L 1344 0 
L 684 0 
L 684 794 
z
" transform="scale(0.015625)"/>
       </defs>
       <use xlink:href="#DejaVuSans-30"/>
       <use xlink:href="#DejaVuSans-2e" transform="translate(63.623047 0)"/>
       <use xlink:href="#DejaVuSans-32" transform="translate(95.410156 0)"/>
       <use xlink:href="#DejaVuSans-30" transform="translate(159.033203 0)"/>
      </g>
     </g>
    </g>
    <g id="ytick_2">
     <g id="line2d_17">
      <path d="M 50.14375 185.47047 
L 608.14375 185.47047 
" clip-path="url(#pd0eacb8bef)" style="fill: none; stroke: #b0b0b0; stroke-opacity: 0.3; stroke-width: 0.8; stroke-linecap: square"/>
     </g>
     <g id="line2d_18">
      <g>
       <use xlink:href="#mb3a4a69639" x="50.14375" y="185.47047" style="stroke: #000000; stroke-width: 0.8"/>
      </g>
     </g>
     <g id="text_10">
      <!-- 0.25 -->
      <g transform="translate(20.878125 189.269689) scale(0.1 -0.1)">
       <use xlink:href="#DejaVuSans-30"/>
       <use xlink:href="#DejaVuSans-2e" transform="translate(63.623047 0)"/>
       <use xlink:href="#DejaVuSans-32" transform="translate(95.410156 0)"/>
       <use xlink:href="#DejaVuSans-35" transform="translate(159.033203 0)"/>
      </g>
     </g>
    </g>
    <g id="ytick_3">
     <g id="line2d_19">
      <path d="M 50.14375 138.220326 
L 608.14375 138.220326 
" clip-path="url(#pd0eacb8bef)" style="fill: none; stroke: #b0b0b0; stroke-opacity: 0.3; stroke-width: 0.8; stroke-linecap: square"/>
     </g>
     <g id="line2d_20">
      <g>
       <use xlink:href="#mb3a4a69639" x="50.14375" y="138.220326" style="stroke: #000000; stroke-width: 0.8"/>
      </g>
     </g>
     <g id="text_11">
      <!-- 0.30 -->
      <g transform="translate(20.878125 142.019545) scale(0.1 -0.1)">
       <use xlink:href="#DejaVuSans-30"/>
       <use xlink:href="#DejaVuSans-2e" transform="translate(63.623047 0)"/>
       <use xlink:href="#DejaVuSans-33" transform="translate(95.410156 0)"/>
       <use xlink:href="#DejaVuSans-30" transform="translate(159.033203 0)"/>
      </g>
     </g>
    </g>
    <g id="ytick_4">
     <g id="line2d_21">
      <path d="M 50.14375 90.970183 
L 608.14375 90.970183 
" clip-path="url(#pd0eacb8bef)" style="fill: none; stroke: #b0b0b0; stroke-opacity: 0.3; stroke-width: 0.8; stroke-linecap: square"/>
     </g>
     <g id="line2d_22">
      <g>
       <use xlink:href="#mb3a4a69639" x="50.14375" y="90.970183" style="stroke: #000000; stroke-width: 0.8"/>
      </g>
     </g>
     <g id="text_12">
      <!-- 0.35 -->
      <g transform="translate(20.878125 94.769402) scale(0.1 -0.1)">
       <use xlink:href="#DejaVuSans-30"/>
       <use xlink:href="#DejaVuSans-2e" transform="translate(63.623047 0)"/>
       <use xlink:href="#DejaVuSans-33" transform="translate(95.410156 0)"/>
       <use xlink:href="#DejaVuSans-35" transform="translate(159.033203 0)"/>
      </g>
     </g>
    </g>
    <g id="ytick_5">
     <g id="line2d_23">
      <path d="M 50.14375 43.72004 
L 608.14375 43.72004 
" clip-path="url(#pd0eacb8bef)" style="fill: none; stroke: #b0b0b0; stroke-opacity: 0.3; stroke-width: 0.8; stroke-linecap: square"/>
     </g>
     <g id="line2d_24">
      <g>
       <use xlink:href="#mb3a4a69639" x="50.14375" y="43.72004" style="stroke: #000000; stroke-width: 0.8"/>
      </g>
     </g>
     <g id="text_13">
      <!-- 0.40 -->
      <g transform="translate(20.878125 47.519258) scale(0.1 -0.1)">
       <defs>
        <path id="DejaVuSans-34" d="M 2419 4116 
L 825 1625 
L 2419 1625 
L 2419 4116 
z
M 2253 4666 
L 3047 4666 
L 3047 1625 
L 3713 1625 
L 3713 1100 
L 3047 1100 
L 3047 0 
L 2419 0 
L 2419 1100 
L 313 1100 
L 313 1709 
L 2253 4666 
z
" transform="scale(0.015625)"/>
       </defs>
       <use xlink:href="#DejaVuSans-30"/>
       <use xlink:href="#DejaVuSans-2e" transform="translate(63.623047 0)"/>
       <use xlink:href="#DejaVuSans-34" transform="translate(95.410156 0)"/>
       <use xlink:href="#DejaVuSans-30" transform="translate(159.033203 0)"/>
      </g>
     </g>
    </g>
    <g id="text_14">
     <!-- Signal Value -->
     <g transform="translate(14.798437 163.877812) rotate(-90) scale(0.1 -0.1)">
      <defs>
       <path id="DejaVuSans-67" d="M 2906 1791 
Q 2906 2416 2648 2759 
Q 2391 3103 1925 3103 
Q 1463 3103 1205 2759 
Q 947 2416 947 1791 
Q 947 1169 1205 825 
Q 1463 481 1925 481 
Q 2391 481 2648 825 
Q 2906 1169 2906 1791 
z
M 3481 434 
Q 3481 -459 3084 -895 
Q 2688 -1331 1869 -1331 
Q 1566 -1331 1297 -1286 
Q 1028 -1241 775 -1147 
L 775 -588 
Q 1028 -725 1275 -790 
Q 1522 -856 1778 -856 
Q 2344 -856 2625 -561 
Q 2906 -266 2906 331 
L 2906 616 
Q 2728 306 2450 153 
Q 2172 0 1784 0 
Q 1141 0 747 490 
Q 353 981 353 1791 
Q 353 2603 747 3093 
Q 1141 3584 1784 3584 
Q 2172 3584 2450 3431 
Q 2728 3278 2906 2969 
L 2906 3500 
L 3481 3500 
L 3481 434 
z
" transform="scale(0.015625)"/>
       <path id="DejaVuSans-6e" d="M 3513 2113 
L 3513 0 
L 2938 0 
L 2938 2094 
Q 2938 2591 2744 2837 
Q 2550 3084 2163 3084 
Q 1697 3084 1428 2787 
Q 1159 2491 1159 1978 
L 1159 0 
L 581 0 
L 581 3500 
L 1159 3500 
L 1159 2956 
Q 1366 3272 1645 3428 
Q 1925 3584 2291 3584 
Q 2894 3584 3203 3211 
Q 3513 2838 3513 2113 
z
" transform="scale(0.015625)"/>
       <path id="DejaVuSans-61" d="M 2194 1759 
Q 1497 1759 1228 1600 
Q 959 1441 959 1056 
Q 959 750 1161 570 
Q 1363 391 1709 391 
Q 2188 391 2477 730 
Q 2766 1069 2766 1631 
L 2766 1759 
L 2194 1759 
z
M 3341 1997 
L 3341 0 
L 2766 0 
L 2766 531 
Q 2569 213 2275 61 
Q 1981 -91 1556 -91 
Q 1019 -91 701 211 
Q 384 513 384 1019 
Q 384 1609 779 1909 
Q 1175 2209 1959 2209 
L 2766 2209 
L 2766 2266 
Q 2766 2663 2505 2880 
Q 2244 3097 1772 3097 
Q 1472 3097 1187 3025 
Q 903 2953 641 2809 
L 641 3341 
Q 956 3463 1253 3523 
Q 1550 3584 1831 3584 
Q 2591 3584 2966 3190 
Q 3341 2797 3341 1997 
z
" transform="scale(0.015625)"/>
       <path id="DejaVuSans-6c" d="M 603 4863 
L 1178 4863 
L 1178 0 
L 603 0 
L 603 4863 
z
" transform="scale(0.015625)"/>
       <path id="DejaVuSans-56" d="M 1831 0 
L 50 4666 
L 709 4666 
L 2188 738 
L 3669 4666 
L 4325 4666 
L 2547 0 
L 1831 0 
z
" transform="scale(0.015625)"/>
       <path id="DejaVuSans-75" d="M 544 1381 
L 544 3500 
L 1119 3500 
L 1119 1403 
Q 1119 906 1312 657 
Q 1506 409 1894 409 
Q 2359 409 2629 706 
Q 2900 1003 2900 1516 
L 2900 3500 
L 3475 3500 
L 3475 0 
L 2900 0 
L 2900 538 
Q 2691 219 2414 64 
Q 2138 -91 1772 -91 
Q 1169 -91 856 284 
Q 544 659 544 1381 
z
M 1991 3584 
L 1991 3584 
z
" transform="scale(0.015625)"/>
      </defs>
      <use xlink:href="#DejaVuSans-53"/>
      <use xlink:href="#DejaVuSans-69" transform="translate(63.476562 0)"/>
      <use xlink:href="#DejaVuSans-67" transform="translate(91.259766 0)"/>
      <use xlink:href="#DejaVuSans-6e" transform="translate(154.736328 0)"/>
      <use xlink:href="#DejaVuSans-61" transform="translate(218.115234 0)"/>
      <use xlink:href="#DejaVuSans-6c" transform="translate(279.394531 0)"/>
      <use xlink:href="#DejaVuSans-20" transform="translate(307.177734 0)"/>
      <use xlink:href="#DejaVuSans-56" transform="translate(338.964844 0)"/>
      <use xlink:href="#DejaVuSans-61" transform="translate(399.623047 0)"/>
      <use xlink:href="#DejaVuSans-6c" transform="translate(460.902344 0)"/>
      <use xlink:href="#DejaVuSans-75" transform="translate(488.685547 0)"/>
      <use xlink:href="#DejaVuSans-65" transform="translate(552.064453 0)"/>
     </g>
    </g>
   </g>
   <g id="line2d_25">
    <path d="M 75.507386 105.048171 
L 77.209644 104.441171 
L 78.911901 146.415041 
L 80.614159 191.157619 
L 82.316416 215.812139 
L 84.018674 214.141998 
L 85.720931 182.646319 
L 87.423189 153.874204 
L 89.125446 134.004917 
L 90.827704 94.388255 
L 92.529961 60.22062 
L 94.232219 50.410549 
L 95.934476 79.744628 
L 97.636734 138.445297 
L 99.338991 182.766993 
L 101.041248 206.818469 
L 102.743506 214.889701 
L 104.445763 203.252645 
L 106.148021 185.941761 
L 107.850278 154.162125 
L 109.552536 93.984102 
L 111.254793 72.31949 
L 112.957051 119.850568 
L 114.659308 173.654038 
L 116.361566 207.757843 
L 118.063823 220.916722 
L 119.766081 212.14532 
L 121.468338 202.616435 
L 123.170596 180.671055 
L 124.872853 123.764684 
L 126.575111 63.101498 
L 128.277368 32.398125 
L 129.979626 51.865222 
L 131.681883 106.040312 
L 133.38414 142.755792 
L 135.086398 166.063526 
L 136.788655 192.65636 
L 138.490913 207.02477 
L 140.19317 205.275868 
L 141.895428 173.873898 
L 143.597685 107.341061 
L 145.299943 75.287171 
L 147.0022 101.26182 
L 148.704458 129.505403 
L 150.406715 154.240345 
L 152.108973 183.062922 
L 153.81123 201.369589 
L 155.513488 209.59989 
L 157.215745 197.757415 
L 160.62026 110.270055 
L 162.322518 82.209882 
L 164.024775 81.411676 
L 165.727032 99.066779 
L 167.42929 100.018107 
L 169.131547 115.96044 
L 170.833805 156.67246 
L 172.536062 186.363706 
L 174.23832 196.394612 
L 175.940577 181.84025 
L 177.642835 145.610403 
L 179.345092 126.904901 
L 181.04735 124.73733 
L 182.749607 102.984602 
L 184.451865 93.850859 
L 186.154122 119.86798 
L 187.85638 154.060467 
L 189.558637 179.732514 
L 191.260895 182.319576 
L 192.963152 165.935637 
L 194.66541 160.713175 
L 196.367667 159.042992 
L 198.069924 152.587948 
L 199.772182 131.670403 
L 201.474439 84.944506 
L 203.176697 79.963627 
L 204.878954 121.800063 
L 206.581212 155.416191 
L 208.283469 172.815847 
L 209.985727 181.125957 
L 213.390242 183.79162 
L 215.092499 168.987355 
L 216.794757 111.603312 
L 218.497014 66.924621 
L 220.199272 70.76156 
L 221.901529 93.93306 
L 223.603787 121.743685 
L 227.008302 143.80015 
L 230.412817 203.528122 
L 232.115074 212.33566 
L 233.817331 180.522154 
L 235.519589 117.228781 
L 237.221846 90.050165 
L 238.924104 105.20909 
L 240.626361 116.472499 
L 242.328619 135.042798 
L 245.733134 206.333965 
L 247.435391 222.330002 
L 249.137649 207.237786 
L 250.839906 151.342301 
L 252.542164 102.653797 
L 254.244421 81.020431 
L 255.946679 66.981977 
L 257.648936 66.713272 
L 259.351194 71.459063 
L 261.053451 102.981498 
L 262.755709 159.468259 
L 264.457966 204.792817 
L 266.160223 225.51192 
L 267.862481 209.432675 
L 269.564738 167.599652 
L 271.266996 137.458471 
L 272.969253 116.733589 
L 274.671511 85.409606 
L 276.373768 89.367848 
L 279.778283 202.369104 
L 281.480541 229.100404 
L 283.182798 221.58148 
L 284.885056 186.862492 
L 288.289571 133.700175 
L 289.991828 91.67733 
L 291.694086 53.362842 
L 293.396343 33.796636 
L 295.098601 66.999764 
L 296.800858 131.700284 
L 298.503115 174.734323 
L 300.205373 194.780756 
L 301.90763 198.686255 
L 303.609888 189.797465 
L 305.312145 176.88989 
L 307.014403 142.231443 
L 308.71666 81.801623 
L 310.418918 66.142802 
L 313.823433 160.844648 
L 315.52569 188.947524 
L 317.227948 194.937835 
L 318.930205 187.659655 
L 320.632463 187.668053 
L 322.33472 175.955089 
L 324.036978 139.736793 
L 325.739235 95.340617 
L 327.441493 61.352257 
L 329.14375 74.504731 
L 330.846007 113.436817 
L 332.548265 131.471841 
L 334.250522 146.849997 
L 335.95278 171.286006 
L 337.655037 188.659861 
L 339.357295 192.463651 
L 341.059552 169.086488 
L 342.76181 118.078768 
L 344.464067 97.922484 
L 346.166325 111.298155 
L 347.868582 114.006783 
L 349.57084 119.110143 
L 351.273097 133.261301 
L 352.975355 153.722967 
L 354.677612 177.865788 
L 356.37987 185.401719 
L 358.082127 173.382159 
L 359.784385 156.696752 
L 361.486642 138.506932 
L 363.188899 132.296891 
L 364.891157 123.845355 
L 366.593414 92.384743 
L 368.295672 95.922207 
L 369.997929 137.8559 
L 371.700187 173.47283 
L 373.402444 190.518586 
L 375.104702 188.407972 
L 376.806959 170.718967 
L 378.509217 161.914573 
L 380.211474 146.070665 
L 381.913732 95.872946 
L 383.615989 59.808281 
L 385.318247 63.46027 
L 387.020504 96.327594 
L 388.722762 137.739286 
L 390.425019 160.486797 
L 392.127277 171.587893 
L 393.829534 190.744616 
L 395.531791 201.536722 
L 397.234049 197.086766 
L 398.936306 158.808513 
L 400.638564 90.119698 
L 402.340821 73.831331 
L 405.745336 146.315356 
L 407.447594 172.886046 
L 409.149851 196.910827 
L 410.852109 210.583856 
L 412.554366 213.893997 
L 414.256624 189.477177 
L 415.958881 120.650068 
L 417.661139 62.656803 
L 419.363396 43.954074 
L 421.065654 58.802391 
L 422.767911 91.18391 
L 424.470169 112.749284 
L 426.172426 142.822104 
L 427.874683 187.38041 
L 429.576941 219.800668 
L 431.279198 226.951775 
L 432.981456 189.065472 
L 434.683713 122.779141 
L 436.385971 95.87221 
L 438.088228 102.59052 
L 439.790486 108.565757 
L 441.492743 133.698162 
L 443.195001 182.781188 
L 444.897258 222.065575 
L 446.599516 233.998125 
L 448.301773 211.341872 
L 450.004031 156.172689 
L 451.706288 114.393552 
L 453.408546 88.525403 
L 455.110803 72.606866 
L 456.813061 67.517375 
L 458.515318 64.397577 
L 460.217576 101.809406 
L 461.919833 158.97772 
L 463.62209 197.108265 
L 465.324348 209.034862 
L 467.026605 192.239224 
L 468.728863 160.041616 
L 472.133378 119.26105 
L 473.835635 81.205722 
L 475.537893 85.608618 
L 478.942408 185.571005 
L 480.644665 206.853044 
L 482.346923 196.112658 
L 484.04918 170.090559 
L 487.453695 151.62412 
L 489.155953 128.039516 
L 492.560468 57.634076 
L 494.262725 80.139736 
L 495.964982 129.427034 
L 497.66724 156.445067 
L 499.369497 169.453759 
L 501.071755 178.435159 
L 502.774012 182.345709 
L 504.47627 180.781746 
L 506.178527 154.730047 
L 507.880785 96.929508 
L 509.583042 78.52841 
L 511.2853 103.944825 
L 512.987557 125.957868 
L 514.689815 141.245856 
L 516.392072 144.454944 
L 518.09433 151.869869 
L 519.796587 175.523109 
L 521.498845 189.137551 
L 523.201102 182.104601 
L 524.90336 152.973739 
L 526.605617 113.90266 
L 528.307874 109.298928 
L 530.010132 118.090101 
L 531.712389 109.940148 
L 533.414647 122.004463 
L 535.116904 159.289018 
L 536.819162 189.744409 
L 538.521419 202.983069 
L 540.223677 190.046827 
L 541.925934 149.341928 
L 543.628192 128.197649 
L 545.330449 115.607695 
L 547.032707 85.751932 
L 548.734964 68.80385 
L 550.437222 72.689129 
L 552.139479 107.568403 
L 553.841737 156.265868 
L 555.543994 187.807188 
L 557.246252 201.726563 
L 558.948509 199.961523 
L 562.353024 165.798954 
L 564.055281 131.817697 
L 565.757539 80.226391 
L 567.459796 81.888494 
L 569.162054 134.563723 
L 570.864311 180.918715 
L 572.566569 207.111259 
L 574.268826 211.763499 
L 575.971084 198.653985 
L 577.673341 187.870629 
L 579.375599 157.338124 
L 581.077856 93.56877 
L 582.780114 41.971306 
L 582.780114 41.971306 
" clip-path="url(#pd0eacb8bef)" style="fill: none; stroke-dasharray: 5.55,2.4; stroke-dashoffset: 0; stroke: #008000; stroke-width: 1.5"/>
   </g>
   <g id="line2d_26">
    <path d="M 75.507386 171.398626 
L 77.209644 138.493168 
L 78.911901 131.097027 
L 80.614159 178.595383 
L 82.316416 137.292845 
L 84.018674 172.543939 
L 85.720931 197.37317 
L 87.423189 150.637952 
L 89.125446 163.963782 
L 90.827704 119.513146 
L 92.529961 163.219706 
L 94.232219 97.936635 
L 95.934476 118.432474 
L 97.636734 152.807135 
L 99.338991 201.693191 
L 101.041248 192.241852 
L 102.743506 165.402613 
L 104.445763 162.528046 
L 106.148021 168.452559 
L 107.850278 122.839619 
L 109.552536 147.202688 
L 111.254793 142.194248 
L 112.957051 160.103715 
L 114.659308 154.015642 
L 116.361566 159.254062 
L 118.063823 170.089051 
L 119.766081 197.278774 
L 121.468338 151.547908 
L 124.872853 176.845365 
L 126.575111 137.778789 
L 128.277368 109.403473 
L 129.979626 119.122679 
L 131.681883 145.502919 
L 133.38414 141.843893 
L 135.086398 141.670743 
L 136.788655 150.154532 
L 138.490913 203.797851 
L 140.19317 179.434124 
L 141.895428 117.830703 
L 143.597685 117.877238 
L 145.299943 89.922962 
L 147.0022 140.793983 
L 148.704458 98.015455 
L 150.406715 113.082071 
L 153.81123 152.76122 
L 155.513488 123.976695 
L 157.215745 158.111877 
L 158.918003 175.602081 
L 160.62026 134.35525 
L 162.322518 108.373126 
L 164.024775 117.252836 
L 165.727032 128.785239 
L 167.42929 124.135473 
L 169.131547 146.112486 
L 170.833805 175.139176 
L 172.536062 190.739133 
L 174.23832 170.776217 
L 175.940577 131.621874 
L 177.642835 165.011649 
L 179.345092 125.317821 
L 181.04735 112.640207 
L 182.749607 86.782718 
L 184.451865 98.711138 
L 186.154122 123.133248 
L 187.85638 112.076814 
L 189.558637 125.197019 
L 191.260895 137.422036 
L 192.963152 139.135175 
L 194.66541 115.546435 
L 196.367667 163.66919 
L 198.069924 150.998514 
L 199.772182 144.601997 
L 201.474439 104.983679 
L 203.176697 123.611036 
L 204.878954 146.936591 
L 206.581212 158.365204 
L 208.283469 162.655975 
L 209.985727 129.140918 
L 211.687984 165.231513 
L 213.390242 135.945333 
L 215.092499 128.554717 
L 216.794757 87.062112 
L 218.497014 109.075149 
L 220.199272 110.586219 
L 221.901529 80.624453 
L 223.603787 125.986879 
L 225.306044 145.658297 
L 227.008302 148.215558 
L 228.710559 146.218791 
L 230.412817 188.882858 
L 232.115074 179.927684 
L 233.817331 146.952247 
L 235.519589 117.90279 
L 237.221846 113.923862 
L 238.924104 167.144637 
L 240.626361 157.755132 
L 242.328619 153.471475 
L 244.030876 116.684936 
L 245.733134 177.479999 
L 247.435391 140.852055 
L 249.137649 155.083434 
L 250.839906 147.41872 
L 252.542164 127.255487 
L 254.244421 131.087168 
L 255.946679 101.872686 
L 257.648936 136.531175 
L 259.351194 131.449072 
L 261.053451 160.340277 
L 262.755709 135.849578 
L 264.457966 197.204204 
L 266.160223 194.749058 
L 267.862481 110.531334 
L 269.564738 115.24512 
L 271.266996 157.907344 
L 272.969253 154.675507 
L 274.671511 162.028825 
L 276.373768 118.026226 
L 278.076026 137.773317 
L 279.778283 170.695645 
L 281.480541 159.71058 
L 283.182798 188.138372 
L 284.885056 189.87004 
L 286.587313 124.100853 
L 288.289571 144.615397 
L 289.991828 167.470848 
L 291.694086 144.344021 
L 293.396343 118.571563 
L 295.098601 147.189157 
L 296.800858 154.052739 
L 298.503115 158.863719 
L 300.205373 189.155085 
L 301.90763 146.48116 
L 303.609888 153.686719 
L 305.312145 174.545405 
L 307.014403 164.894555 
L 308.71666 101.659938 
L 310.418918 65.071568 
L 312.121175 133.293102 
L 313.823433 99.764249 
L 315.52569 160.482428 
L 317.227948 136.525238 
L 318.930205 151.388872 
L 320.632463 132.15123 
L 322.33472 144.910308 
L 324.036978 156.316753 
L 327.441493 112.023638 
L 329.14375 122.780648 
L 330.846007 146.335805 
L 332.548265 153.61798 
L 334.250522 146.042229 
L 335.95278 141.848997 
L 337.655037 169.951701 
L 339.357295 143.42711 
L 341.059552 150.066958 
L 342.76181 129.670492 
L 344.464067 76.765505 
L 346.166325 108.824551 
L 347.868582 82.751759 
L 349.57084 133.917446 
L 351.273097 101.761122 
L 352.975355 115.873692 
L 354.677612 161.16289 
L 356.37987 181.581046 
L 358.082127 150.748743 
L 359.784385 135.04112 
L 361.486642 129.53588 
L 363.188899 126.834116 
L 364.891157 131.855465 
L 366.593414 147.527665 
L 368.295672 134.333443 
L 369.997929 140.93807 
L 371.700187 169.96063 
L 373.402444 164.116598 
L 375.104702 154.470762 
L 376.806959 165.329051 
L 378.509217 125.370532 
L 380.211474 147.30269 
L 381.913732 117.842579 
L 385.318247 108.226828 
L 387.020504 105.061542 
L 388.722762 118.008055 
L 390.425019 167.670234 
L 392.127277 140.341112 
L 393.829534 138.452379 
L 395.531791 189.043131 
L 397.234049 181.146095 
L 398.936306 133.844269 
L 400.638564 132.863713 
L 402.340821 104.109984 
L 404.043079 182.076821 
L 405.745336 147.361222 
L 407.447594 159.8294 
L 409.149851 141.594591 
L 410.852109 191.530732 
L 412.554366 133.914919 
L 414.256624 128.974127 
L 415.958881 145.982255 
L 417.661139 137.310286 
L 419.363396 85.297504 
L 421.065654 117.981009 
L 422.767911 116.611017 
L 424.470169 124.246039 
L 426.172426 131.121244 
L 427.874683 148.276106 
L 429.576941 188.469758 
L 431.279198 189.935028 
L 432.981456 125.4194 
L 434.683713 153.228232 
L 436.385971 97.868411 
L 438.088228 131.303305 
L 439.790486 126.145737 
L 441.492743 124.483383 
L 443.195001 111.299805 
L 444.897258 152.682705 
L 446.599516 161.895312 
L 448.301773 158.309273 
L 450.004031 170.971971 
L 451.706288 126.03547 
L 453.408546 143.438612 
L 455.110803 141.999878 
L 456.813061 106.956176 
L 458.515318 105.016788 
L 460.217576 165.230994 
L 461.919833 167.324042 
L 463.62209 181.242372 
L 465.324348 187.079725 
L 467.026605 124.413086 
L 468.728863 161.488383 
L 470.43112 132.423734 
L 472.133378 122.839763 
L 473.835635 101.806257 
L 475.537893 88.098172 
L 477.24015 136.158685 
L 478.942408 87.625537 
L 480.644665 136.545126 
L 482.346923 165.503882 
L 484.04918 131.971915 
L 485.751438 91.553392 
L 487.453695 128.019766 
L 489.155953 156.94575 
L 490.85821 113.194527 
L 492.560468 116.509012 
L 494.262725 135.205344 
L 495.964982 136.420119 
L 497.66724 141.858025 
L 499.369497 164.417296 
L 501.071755 125.803421 
L 502.774012 186.431229 
L 504.47627 131.827655 
L 506.178527 116.712379 
L 507.880785 85.131321 
L 509.583042 85.769994 
L 511.2853 126.115498 
L 512.987557 108.274542 
L 514.689815 145.943009 
L 516.392072 107.052603 
L 518.09433 136.686836 
L 521.498845 202.390997 
L 523.201102 166.71659 
L 524.90336 116.534365 
L 526.605617 108.954243 
L 528.307874 148.616803 
L 530.010132 152.18405 
L 531.712389 160.353807 
L 533.414647 125.416921 
L 535.116904 136.357299 
L 536.819162 182.233277 
L 538.521419 129.658694 
L 540.223677 143.36499 
L 541.925934 147.008233 
L 543.628192 111.607515 
L 545.330449 133.646446 
L 547.032707 105.753676 
L 548.734964 145.294544 
L 550.437222 87.773034 
L 552.139479 118.566135 
L 553.841737 173.315562 
L 555.543994 143.531742 
L 557.246252 169.752445 
L 558.948509 130.575478 
L 560.650766 146.992238 
L 562.353024 161.814268 
L 564.055281 126.306103 
L 565.757539 130.98674 
L 567.459796 129.967644 
L 569.162054 168.323794 
L 570.864311 125.913929 
L 572.566569 157.775406 
L 574.268826 175.733294 
L 575.971084 183.430127 
L 577.673341 120.579502 
L 579.375599 151.481762 
L 581.077856 160.244712 
L 582.780114 138.53797 
L 582.780114 138.53797 
" clip-path="url(#pd0eacb8bef)" style="fill: none; stroke: #ff0000; stroke-width: 1.5; stroke-linecap: square"/>
   </g>
   <g id="patch_3">
    <path d="M 50.14375 244.078125 
L 50.14375 22.318125 
" style="fill: none; stroke: #000000; stroke-width: 0.8; stroke-linejoin: miter; stroke-linecap: square"/>
   </g>
   <g id="patch_4">
    <path d="M 608.14375 244.078125 
L 608.14375 22.318125 
" style="fill: none; stroke: #000000; stroke-width: 0.8; stroke-linejoin: miter; stroke-linecap: square"/>
   </g>
   <g id="patch_5">
    <path d="M 50.14375 244.078125 
L 608.14375 244.078125 
" style="fill: none; stroke: #000000; stroke-width: 0.8; stroke-linejoin: miter; stroke-linecap: square"/>
   </g>
   <g id="patch_6">
    <path d="M 50.14375 22.318125 
L 608.14375 22.318125 
" style="fill: none; stroke: #000000; stroke-width: 0.8; stroke-linejoin: miter; stroke-linecap: square"/>
   </g>
   <g id="text_15">
    <!-- Task Performance: NARMA10 (validation set) -->
    <g transform="translate(195.454375 16.318125) scale(0.12 -0.12)">
     <defs>
      <path id="DejaVuSans-6b" d="M 581 4863 
L 1159 4863 
L 1159 1991 
L 2875 3500 
L 3609 3500 
L 1753 1863 
L 3688 0 
L 2938 0 
L 1159 1709 
L 1159 0 
L 581 0 
L 581 4863 
z
" transform="scale(0.015625)"/>
      <path id="DejaVuSans-50" d="M 1259 4147 
L 1259 2394 
L 2053 2394 
Q 2494 2394 2734 2622 
Q 2975 2850 2975 3272 
Q 2975 3691 2734 3919 
Q 2494 4147 2053 4147 
L 1259 4147 
z
M 628 4666 
L 2053 4666 
Q 2838 4666 3239 4311 
Q 3641 3956 3641 3272 
Q 3641 2581 3239 2228 
Q 2838 1875 2053 1875 
L 1259 1875 
L 1259 0 
L 628 0 
L 628 4666 
z
" transform="scale(0.015625)"/>
      <path id="DejaVuSans-72" d="M 2631 2963 
Q 2534 3019 2420 3045 
Q 2306 3072 2169 3072 
Q 1681 3072 1420 2755 
Q 1159 2438 1159 1844 
L 1159 0 
L 581 0 
L 581 3500 
L 1159 3500 
L 1159 2956 
Q 1341 3275 1631 3429 
Q 1922 3584 2338 3584 
Q 2397 3584 2469 3576 
Q 2541 3569 2628 3553 
L 2631 2963 
z
" transform="scale(0.015625)"/>
      <path id="DejaVuSans-66" d="M 2375 4863 
L 2375 4384 
L 1825 4384 
Q 1516 4384 1395 4259 
Q 1275 4134 1275 3809 
L 1275 3500 
L 2222 3500 
L 2222 3053 
L 1275 3053 
L 1275 0 
L 697 0 
L 697 3053 
L 147 3053 
L 147 3500 
L 697 3500 
L 697 3744 
Q 697 4328 969 4595 
Q 1241 4863 1831 4863 
L 2375 4863 
z
" transform="scale(0.015625)"/>
      <path id="DejaVuSans-6f" d="M 1959 3097 
Q 1497 3097 1228 2736 
Q 959 2375 959 1747 
Q 959 1119 1226 758 
Q 1494 397 1959 397 
Q 2419 397 2687 759 
Q 2956 1122 2956 1747 
Q 2956 2369 2687 2733 
Q 2419 3097 1959 3097 
z
M 1959 3584 
Q 2709 3584 3137 3096 
Q 3566 2609 3566 1747 
Q 3566 888 3137 398 
Q 2709 -91 1959 -91 
Q 1206 -91 779 398 
Q 353 888 353 1747 
Q 353 2609 779 3096 
Q 1206 3584 1959 3584 
z
" transform="scale(0.015625)"/>
      <path id="DejaVuSans-63" d="M 3122 3366 
L 3122 2828 
Q 2878 2963 2633 3030 
Q 2388 3097 2138 3097 
Q 1578 3097 1268 2742 
Q 959 2388 959 1747 
Q 959 1106 1268 751 
Q 1578 397 2138 397 
Q 2388 397 2633 464 
Q 2878 531 3122 666 
L 3122 134 
Q 2881 22 2623 -34 
Q 2366 -91 2075 -91 
Q 1284 -91 818 406 
Q 353 903 353 1747 
Q 353 2603 823 3093 
Q 1294 3584 2113 3584 
Q 2378 3584 2631 3529 
Q 2884 3475 3122 3366 
z
" transform="scale(0.015625)"/>
      <path id="DejaVuSans-3a" d="M 750 794 
L 1409 794 
L 1409 0 
L 750 0 
L 750 794 
z
M 750 3309 
L 1409 3309 
L 1409 2516 
L 750 2516 
L 750 3309 
z
" transform="scale(0.015625)"/>
      <path id="DejaVuSans-4e" d="M 628 4666 
L 1478 4666 
L 3547 763 
L 3547 4666 
L 4159 4666 
L 4159 0 
L 3309 0 
L 1241 3903 
L 1241 0 
L 628 0 
L 628 4666 
z
" transform="scale(0.015625)"/>
      <path id="DejaVuSans-41" d="M 2188 4044 
L 1331 1722 
L 3047 1722 
L 2188 4044 
z
M 1831 4666 
L 2547 4666 
L 4325 0 
L 3669 0 
L 3244 1197 
L 1141 1197 
L 716 0 
L 50 0 
L 1831 4666 
z
" transform="scale(0.015625)"/>
      <path id="DejaVuSans-52" d="M 2841 2188 
Q 3044 2119 3236 1894 
Q 3428 1669 3622 1275 
L 4263 0 
L 3584 0 
L 2988 1197 
Q 2756 1666 2539 1819 
Q 2322 1972 1947 1972 
L 1259 1972 
L 1259 0 
L 628 0 
L 628 4666 
L 2053 4666 
Q 2853 4666 3247 4331 
Q 3641 3997 3641 3322 
Q 3641 2881 3436 2590 
Q 3231 2300 2841 2188 
z
M 1259 4147 
L 1259 2491 
L 2053 2491 
Q 2509 2491 2742 2702 
Q 2975 2913 2975 3322 
Q 2975 3731 2742 3939 
Q 2509 4147 2053 4147 
L 1259 4147 
z
" transform="scale(0.015625)"/>
      <path id="DejaVuSans-4d" d="M 628 4666 
L 1569 4666 
L 2759 1491 
L 3956 4666 
L 4897 4666 
L 4897 0 
L 4281 0 
L 4281 4097 
L 3078 897 
L 2444 897 
L 1241 4097 
L 1241 0 
L 628 0 
L 628 4666 
z
" transform="scale(0.015625)"/>
      <path id="DejaVuSans-28" d="M 1984 4856 
Q 1566 4138 1362 3434 
Q 1159 2731 1159 2009 
Q 1159 1288 1364 580 
Q 1569 -128 1984 -844 
L 1484 -844 
Q 1016 -109 783 600 
Q 550 1309 550 2009 
Q 550 2706 781 3412 
Q 1013 4119 1484 4856 
L 1984 4856 
z
" transform="scale(0.015625)"/>
      <path id="DejaVuSans-76" d="M 191 3500 
L 800 3500 
L 1894 563 
L 2988 3500 
L 3597 3500 
L 2284 0 
L 1503 0 
L 191 3500 
z
" transform="scale(0.015625)"/>
      <path id="DejaVuSans-64" d="M 2906 2969 
L 2906 4863 
L 3481 4863 
L 3481 0 
L 2906 0 
L 2906 525 
Q 2725 213 2448 61 
Q 2172 -91 1784 -91 
Q 1150 -91 751 415 
Q 353 922 353 1747 
Q 353 2572 751 3078 
Q 1150 3584 1784 3584 
Q 2172 3584 2448 3432 
Q 2725 3281 2906 2969 
z
M 947 1747 
Q 947 1113 1208 752 
Q 1469 391 1925 391 
Q 2381 391 2643 752 
Q 2906 1113 2906 1747 
Q 2906 2381 2643 2742 
Q 2381 3103 1925 3103 
Q 1469 3103 1208 2742 
Q 947 2381 947 1747 
z
" transform="scale(0.015625)"/>
      <path id="DejaVuSans-29" d="M 513 4856 
L 1013 4856 
Q 1481 4119 1714 3412 
Q 1947 2706 1947 2009 
Q 1947 1309 1714 600 
Q 1481 -109 1013 -844 
L 513 -844 
Q 928 -128 1133 580 
Q 1338 1288 1338 2009 
Q 1338 2731 1133 3434 
Q 928 4138 513 4856 
z
" transform="scale(0.015625)"/>
     </defs>
     <use xlink:href="#DejaVuSans-54"/>
     <use xlink:href="#DejaVuSans-61" transform="translate(44.583984 0)"/>
     <use xlink:href="#DejaVuSans-73" transform="translate(105.863281 0)"/>
     <use xlink:href="#DejaVuSans-6b" transform="translate(157.962891 0)"/>
     <use xlink:href="#DejaVuSans-20" transform="translate(215.873047 0)"/>
     <use xlink:href="#DejaVuSans-50" transform="translate(247.660156 0)"/>
     <use xlink:href="#DejaVuSans-65" transform="translate(304.337891 0)"/>
     <use xlink:href="#DejaVuSans-72" transform="translate(365.861328 0)"/>
     <use xlink:href="#DejaVuSans-66" transform="translate(406.974609 0)"/>
     <use xlink:href="#DejaVuSans-6f" transform="translate(442.179688 0)"/>
     <use xlink:href="#DejaVuSans-72" transform="translate(503.361328 0)"/>
     <use xlink:href="#DejaVuSans-6d" transform="translate(542.724609 0)"/>
     <use xlink:href="#DejaVuSans-61" transform="translate(640.136719 0)"/>
     <use xlink:href="#DejaVuSans-6e" transform="translate(701.416016 0)"/>
     <use xlink:href="#DejaVuSans-63" transform="translate(764.794922 0)"/>
     <use xlink:href="#DejaVuSans-65" transform="translate(819.775391 0)"/>
     <use xlink:href="#DejaVuSans-3a" transform="translate(881.298828 0)"/>
     <use xlink:href="#DejaVuSans-20" transform="translate(914.990234 0)"/>
     <use xlink:href="#DejaVuSans-4e" transform="translate(946.777344 0)"/>
     <use xlink:href="#DejaVuSans-41" transform="translate(1021.582031 0)"/>
     <use xlink:href="#DejaVuSans-52" transform="translate(1089.990234 0)"/>
     <use xlink:href="#DejaVuSans-4d" transform="translate(1159.472656 0)"/>
     <use xlink:href="#DejaVuSans-41" transform="translate(1245.751953 0)"/>
     <use xlink:href="#DejaVuSans-31" transform="translate(1314.160156 0)"/>
     <use xlink:href="#DejaVuSans-30" transform="translate(1377.783203 0)"/>
     <use xlink:href="#DejaVuSans-20" transform="translate(1441.40625 0)"/>
     <use xlink:href="#DejaVuSans-28" transform="translate(1473.193359 0)"/>
     <use xlink:href="#DejaVuSans-76" transform="translate(1512.207031 0)"/>
     <use xlink:href="#DejaVuSans-61" transform="translate(1571.386719 0)"/>
     <use xlink:href="#DejaVuSans-6c" transform="translate(1632.666016 0)"/>
     <use xlink:href="#DejaVuSans-69" transform="translate(1660.449219 0)"/>
     <use xlink:href="#DejaVuSans-64" transform="translate(1688.232422 0)"/>
     <use xlink:href="#DejaVuSans-61" transform="translate(1751.708984 0)"/>
     <use xlink:href="#DejaVuSans-74" transform="translate(1812.988281 0)"/>
     <use xlink:href="#DejaVuSans-69" transform="translate(1852.197266 0)"/>
     <use xlink:href="#DejaVuSans-6f" transform="translate(1879.980469 0)"/>
     <use xlink:href="#DejaVuSans-6e" transform="translate(1941.162109 0)"/>
     <use xlink:href="#DejaVuSans-20" transform="translate(2004.541016 0)"/>
     <use xlink:href="#DejaVuSans-73" transform="translate(2036.328125 0)"/>
     <use xlink:href="#DejaVuSans-65" transform="translate(2088.427734 0)"/>
     <use xlink:href="#DejaVuSans-74" transform="translate(2149.951172 0)"/>
     <use xlink:href="#DejaVuSans-29" transform="translate(2189.160156 0)"/>
    </g>
   </g>
   <g id="legend_1">
    <g id="patch_7">
     <path d="M 519.470312 59.674375 
L 601.14375 59.674375 
Q 603.14375 59.674375 603.14375 57.674375 
L 603.14375 29.318125 
Q 603.14375 27.318125 601.14375 27.318125 
L 519.470312 27.318125 
Q 517.470312 27.318125 517.470312 29.318125 
L 517.470312 57.674375 
Q 517.470312 59.674375 519.470312 59.674375 
z
" style="fill: #ffffff; opacity: 0.8; stroke: #cccccc; stroke-linejoin: miter"/>
    </g>
    <g id="line2d_27">
     <path d="M 521.470312 35.416562 
L 531.470312 35.416562 
L 541.470312 35.416562 
" style="fill: none; stroke-dasharray: 5.55,2.4; stroke-dashoffset: 0; stroke: #008000; stroke-width: 1.5"/>
    </g>
    <g id="text_16">
     <!-- Target -->
     <g transform="translate(549.470312 38.916562) scale(0.1 -0.1)">
      <use xlink:href="#DejaVuSans-54"/>
      <use xlink:href="#DejaVuSans-61" transform="translate(44.583984 0)"/>
      <use xlink:href="#DejaVuSans-72" transform="translate(105.863281 0)"/>
      <use xlink:href="#DejaVuSans-67" transform="translate(145.226562 0)"/>
      <use xlink:href="#DejaVuSans-65" transform="translate(208.703125 0)"/>
      <use xlink:href="#DejaVuSans-74" transform="translate(270.226562 0)"/>
     </g>
    </g>
    <g id="line2d_28">
     <path d="M 521.470312 50.094687 
L 531.470312 50.094687 
L 541.470312 50.094687 
" style="fill: none; stroke: #ff0000; stroke-width: 1.5; stroke-linecap: square"/>
    </g>
    <g id="text_17">
     <!-- Prediction -->
     <g transform="translate(549.470312 53.594687) scale(0.1 -0.1)">
      <use xlink:href="#DejaVuSans-50"/>
      <use xlink:href="#DejaVuSans-72" transform="translate(58.552734 0)"/>
      <use xlink:href="#DejaVuSans-65" transform="translate(97.416016 0)"/>
      <use xlink:href="#DejaVuSans-64" transform="translate(158.939453 0)"/>
      <use xlink:href="#DejaVuSans-69" transform="translate(222.416016 0)"/>
      <use xlink:href="#DejaVuSans-63" transform="translate(250.199219 0)"/>
      <use xlink:href="#DejaVuSans-74" transform="translate(305.179688 0)"/>
      <use xlink:href="#DejaVuSans-69" transform="translate(344.388672 0)"/>
      <use xlink:href="#DejaVuSans-6f" transform="translate(372.171875 0)"/>
      <use xlink:href="#DejaVuSans-6e" transform="translate(433.353516 0)"/>
     </g>
    </g>
   </g>
  </g>
 </g>
 <defs>
  <clipPath id="pd0eacb8bef">
   <rect x="50.14375" y="22.318125" width="558" height="221.76"/>
  </clipPath>
 </defs>
</svg>
