<?xml version="1.0" encoding="utf-8" standalone="no"?>
<!DOCTYPE svg PUBLIC "-//W3C//DTD SVG 1.1//EN"
  "http://www.w3.org/Graphics/SVG/1.1/DTD/svg11.dtd">
<svg xmlns:xlink="http://www.w3.org/1999/xlink" width="621.70625pt" height="281.634375pt" viewBox="0 0 621.70625 281.634375" xmlns="http://www.w3.org/2000/svg" version="1.1">
 <metadata>
  <rdf:RDF xmlns:dc="http://purl.org/dc/elements/1.1/" xmlns:cc="http://creativecommons.org/ns#" xmlns:rdf="http://www.w3.org/1999/02/22-rdf-syntax-ns#">
   <cc:Work>
    <dc:type rdf:resource="http://purl.org/dc/dcmitype/StillImage"/>
    <dc:date>2026-03-19T17:23:04.498201</dc:date>
    <dc:format>image/svg+xml</dc:format>
    <dc:creator>
     <cc:Agent>
      <dc:title>Matplotlib v3.10.8, https://matplotlib.org/</dc:title>
     </cc:Agent>
    </dc:creator>
   </cc:Work>
  </rdf:RDF>
 </metadata>
 <defs>
  <style type="text/css">*{stroke-linejoin: round; stroke-linecap: butt}</style>
 </defs>
 <g id="figure_1">
  <g id="patch_1">
   <path d="M 0 281.634375 
L 621.70625 281.634375 
L 621.70625 0 
L 0 0 
z
" style="fill: #ffffff"/>
  </g>
  <g id="axes_1">
   <g id="patch_2">
    <path d="M 56.50625 244.078125 
L 614.50625 244.078125 
L 614.50625 22.318125 
L 56.50625 22.318125 
z
" style="fill: #ffffff"/>
   </g>
   <g id="matplotlib.axis_1">
    <g id="xtick_1">
     <g id="line2d_1">
      <path d="M 81.869886 244.078125 
L 81.869886 22.318125 
" clip-path="url(#pf498987d96)" style="fill: none; stroke: #b0b0b0; stroke-opacity: 0.3; stroke-width: 0.8; stroke-linecap: square"/>
     </g>
     <g id="line2d_2">
      <defs>
       <path id="m5d0b7c2f4d" d="M 0 0 
L 0 3.5 
" style="stroke: #000000; stroke-width: 0.8"/>
      </defs>
      <g>
       <use xlink:href="#m5d0b7c2f4d" x="81.869886" y="244.078125" style="stroke: #000000; stroke-width: 0.8"/>
      </g>
     </g>
     <g id="text_1">
      <!-- 0 -->
      <g transform="translate(78.688636 258.676562) scale(0.1 -0.1)">
       <defs>
        <path id="DejaVuSans-30" d="M 2034 4250 
Q 1547 4250 1301 3770 
Q 1056 3291 1056 2328 
Q 1056 1369 1301 889 
Q 1547 409 2034 409 
Q 2525 409 2770 889 
Q 3016 1369 3016 2328 
Q 3016 3291 2770 3770 
Q 2525 4250 2034 4250 
z
M 2034 4750 
Q 2819 4750 3233 4129 
Q 3647 3509 3647 2328 
Q 3647 1150 3233 529 
Q 2819 -91 2034 -91 
Q 1250 -91 836 529 
Q 422 1150 422 2328 
Q 422 3509 836 4129 
Q 1250 4750 2034 4750 
z
" transform="scale(0.015625)"/>
       </defs>
       <use xlink:href="#DejaVuSans-30"/>
      </g>
     </g>
    </g>
    <g id="xtick_2">
     <g id="line2d_3">
      <path d="M 166.98276 244.078125 
L 166.98276 22.318125 
" clip-path="url(#pf498987d96)" style="fill: none; stroke: #b0b0b0; stroke-opacity: 0.3; stroke-width: 0.8; stroke-linecap: square"/>
     </g>
     <g id="line2d_4">
      <g>
       <use xlink:href="#m5d0b7c2f4d" x="166.98276" y="244.078125" style="stroke: #000000; stroke-width: 0.8"/>
      </g>
     </g>
     <g id="text_2">
      <!-- 50 -->
      <g transform="translate(160.62026 258.676562) scale(0.1 -0.1)">
       <defs>
        <path id="DejaVuSans-35" d="M 691 4666 
L 3169 4666 
L 3169 4134 
L 1269 4134 
L 1269 2991 
Q 1406 3038 1543 3061 
Q 1681 3084 1819 3084 
Q 2600 3084 3056 2656 
Q 3513 2228 3513 1497 
Q 3513 744 3044 326 
Q 2575 -91 1722 -91 
Q 1428 -91 1123 -41 
Q 819 9 494 109 
L 494 744 
Q 775 591 1075 516 
Q 1375 441 1709 441 
Q 2250 441 2565 725 
Q 2881 1009 2881 1497 
Q 2881 1984 2565 2268 
Q 2250 2553 1709 2553 
Q 1456 2553 1204 2497 
Q 953 2441 691 2322 
L 691 4666 
z
" transform="scale(0.015625)"/>
       </defs>
       <use xlink:href="#DejaVuSans-35"/>
       <use xlink:href="#DejaVuSans-30" transform="translate(63.623047 0)"/>
      </g>
     </g>
    </g>
    <g id="xtick_3">
     <g id="line2d_5">
      <path d="M 252.095634 244.078125 
L 252.095634 22.318125 
" clip-path="url(#pf498987d96)" style="fill: none; stroke: #b0b0b0; stroke-opacity: 0.3; stroke-width: 0.8; stroke-linecap: square"/>
     </g>
     <g id="line2d_6">
      <g>
       <use xlink:href="#m5d0b7c2f4d" x="252.095634" y="244.078125" style="stroke: #000000; stroke-width: 0.8"/>
      </g>
     </g>
     <g id="text_3">
      <!-- 100 -->
      <g transform="translate(242.551884 258.676562) scale(0.1 -0.1)">
       <defs>
        <path id="DejaVuSans-31" d="M 794 531 
L 1825 531 
L 1825 4091 
L 703 3866 
L 703 4441 
L 1819 4666 
L 2450 4666 
L 2450 531 
L 3481 531 
L 3481 0 
L 794 0 
L 794 531 
z
" transform="scale(0.015625)"/>
       </defs>
       <use xlink:href="#DejaVuSans-31"/>
       <use xlink:href="#DejaVuSans-30" transform="translate(63.623047 0)"/>
       <use xlink:href="#DejaVuSans-30" transform="translate(127.246094 0)"/>
      </g>
     </g>
    </g>
    <g id="xtick_4">
     <g id="line2d_7">
      <path d="M 337.208507 244.078125 
L 337.208507 22.318125 
" clip-path="url(#pf498987d96)" style="fill: none; stroke: #b0b0b0; stroke-opacity: 0.3; stroke-width: 0.8; stroke-linecap: square"/>
     </g>
     <g id="line2d_8">
      <g>
       <use xlink:href="#m5d0b7c2f4d" x="337.208507" y="244.078125" style="stroke: #000000; stroke-width: 0.8"/>
      </g>
     </g>
     <g id="text_4">
      <!-- 150 -->
      <g transform="translate(327.664757 258.676562) scale(0.1 -0.1)">
       <use xlink:href="#DejaVuSans-31"/>
       <use xlink:href="#DejaVuSans-35" transform="translate(63.623047 0)"/>
       <use xlink:href="#DejaVuSans-30" transform="translate(127.246094 0)"/>
      </g>
     </g>
    </g>
    <g id="xtick_5">
     <g id="line2d_9">
      <path d="M 422.321381 244.078125 
L 422.321381 22.318125 
" clip-path="url(#pf498987d96)" style="fill: none; stroke: #b0b0b0; stroke-opacity: 0.3; stroke-width: 0.8; stroke-linecap: square"/>
     </g>
     <g id="line2d_10">
      <g>
       <use xlink:href="#m5d0b7c2f4d" x="422.321381" y="244.078125" style="stroke: #000000; stroke-width: 0.8"/>
      </g>
     </g>
     <g id="text_5">
      <!-- 200 -->
      <g transform="translate(412.777631 258.676562) scale(0.1 -0.1)">
       <defs>
        <path id="DejaVuSans-32" d="M 1228 531 
L 3431 531 
L 3431 0 
L 469 0 
L 469 531 
Q 828 903 1448 1529 
Q 2069 2156 2228 2338 
Q 2531 2678 2651 2914 
Q 2772 3150 2772 3378 
Q 2772 3750 2511 3984 
Q 2250 4219 1831 4219 
Q 1534 4219 1204 4116 
Q 875 4013 500 3803 
L 500 4441 
Q 881 4594 1212 4672 
Q 1544 4750 1819 4750 
Q 2544 4750 2975 4387 
Q 3406 4025 3406 3419 
Q 3406 3131 3298 2873 
Q 3191 2616 2906 2266 
Q 2828 2175 2409 1742 
Q 1991 1309 1228 531 
z
" transform="scale(0.015625)"/>
       </defs>
       <use xlink:href="#DejaVuSans-32"/>
       <use xlink:href="#DejaVuSans-30" transform="translate(63.623047 0)"/>
       <use xlink:href="#DejaVuSans-30" transform="translate(127.246094 0)"/>
      </g>
     </g>
    </g>
    <g id="xtick_6">
     <g id="line2d_11">
      <path d="M 507.434255 244.078125 
L 507.434255 22.318125 
" clip-path="url(#pf498987d96)" style="fill: none; stroke: #b0b0b0; stroke-opacity: 0.3; stroke-width: 0.8; stroke-linecap: square"/>
     </g>
     <g id="line2d_12">
      <g>
       <use xlink:href="#m5d0b7c2f4d" x="507.434255" y="244.078125" style="stroke: #000000; stroke-width: 0.8"/>
      </g>
     </g>
     <g id="text_6">
      <!-- 250 -->
      <g transform="translate(497.890505 258.676562) scale(0.1 -0.1)">
       <use xlink:href="#DejaVuSans-32"/>
       <use xlink:href="#DejaVuSans-35" transform="translate(63.623047 0)"/>
       <use xlink:href="#DejaVuSans-30" transform="translate(127.246094 0)"/>
      </g>
     </g>
    </g>
    <g id="xtick_7">
     <g id="line2d_13">
      <path d="M 592.547129 244.078125 
L 592.547129 22.318125 
" clip-path="url(#pf498987d96)" style="fill: none; stroke: #b0b0b0; stroke-opacity: 0.3; stroke-width: 0.8; stroke-linecap: square"/>
     </g>
     <g id="line2d_14">
      <g>
       <use xlink:href="#m5d0b7c2f4d" x="592.547129" y="244.078125" style="stroke: #000000; stroke-width: 0.8"/>
      </g>
     </g>
     <g id="text_7">
      <!-- 300 -->
      <g transform="translate(583.003379 258.676562) scale(0.1 -0.1)">
       <defs>
        <path id="DejaVuSans-33" d="M 2597 2516 
Q 3050 2419 3304 2112 
Q 3559 1806 3559 1356 
Q 3559 666 3084 287 
Q 2609 -91 1734 -91 
Q 1441 -91 1130 -33 
Q 819 25 488 141 
L 488 750 
Q 750 597 1062 519 
Q 1375 441 1716 441 
Q 2309 441 2620 675 
Q 2931 909 2931 1356 
Q 2931 1769 2642 2001 
Q 2353 2234 1838 2234 
L 1294 2234 
L 1294 2753 
L 1863 2753 
Q 2328 2753 2575 2939 
Q 2822 3125 2822 3475 
Q 2822 3834 2567 4026 
Q 2313 4219 1838 4219 
Q 1578 4219 1281 4162 
Q 984 4106 628 3988 
L 628 4550 
Q 988 4650 1302 4700 
Q 1616 4750 1894 4750 
Q 2613 4750 3031 4423 
Q 3450 4097 3450 3541 
Q 3450 3153 3228 2886 
Q 3006 2619 2597 2516 
z
" transform="scale(0.015625)"/>
       </defs>
       <use xlink:href="#DejaVuSans-33"/>
       <use xlink:href="#DejaVuSans-30" transform="translate(63.623047 0)"/>
       <use xlink:href="#DejaVuSans-30" transform="translate(127.246094 0)"/>
      </g>
     </g>
    </g>
    <g id="text_8">
     <!-- Time Steps -->
     <g transform="translate(307.69375 272.354687) scale(0.1 -0.1)">
      <defs>
       <path id="DejaVuSans-54" d="M -19 4666 
L 3928 4666 
L 3928 4134 
L 2272 4134 
L 2272 0 
L 1638 0 
L 1638 4134 
L -19 4134 
L -19 4666 
z
" transform="scale(0.015625)"/>
       <path id="DejaVuSans-69" d="M 603 3500 
L 1178 3500 
L 1178 0 
L 603 0 
L 603 3500 
z
M 603 4863 
L 1178 4863 
L 1178 4134 
L 603 4134 
L 603 4863 
z
" transform="scale(0.015625)"/>
       <path id="DejaVuSans-6d" d="M 3328 2828 
Q 3544 3216 3844 3400 
Q 4144 3584 4550 3584 
Q 5097 3584 5394 3201 
Q 5691 2819 5691 2113 
L 5691 0 
L 5113 0 
L 5113 2094 
Q 5113 2597 4934 2840 
Q 4756 3084 4391 3084 
Q 3944 3084 3684 2787 
Q 3425 2491 3425 1978 
L 3425 0 
L 2847 0 
L 2847 2094 
Q 2847 2600 2669 2842 
Q 2491 3084 2119 3084 
Q 1678 3084 1418 2786 
Q 1159 2488 1159 1978 
L 1159 0 
L 581 0 
L 581 3500 
L 1159 3500 
L 1159 2956 
Q 1356 3278 1631 3431 
Q 1906 3584 2284 3584 
Q 2666 3584 2933 3390 
Q 3200 3197 3328 2828 
z
" transform="scale(0.015625)"/>
       <path id="DejaVuSans-65" d="M 3597 1894 
L 3597 1613 
L 953 1613 
Q 991 1019 1311 708 
Q 1631 397 2203 397 
Q 2534 397 2845 478 
Q 3156 559 3463 722 
L 3463 178 
Q 3153 47 2828 -22 
Q 2503 -91 2169 -91 
Q 1331 -91 842 396 
Q 353 884 353 1716 
Q 353 2575 817 3079 
Q 1281 3584 2069 3584 
Q 2775 3584 3186 3129 
Q 3597 2675 3597 1894 
z
M 3022 2063 
Q 3016 2534 2758 2815 
Q 2500 3097 2075 3097 
Q 1594 3097 1305 2825 
Q 1016 2553 972 2059 
L 3022 2063 
z
" transform="scale(0.015625)"/>
       <path id="DejaVuSans-20" transform="scale(0.015625)"/>
       <path id="DejaVuSans-53" d="M 3425 4513 
L 3425 3897 
Q 3066 4069 2747 4153 
Q 2428 4238 2131 4238 
Q 1616 4238 1336 4038 
Q 1056 3838 1056 3469 
Q 1056 3159 1242 3001 
Q 1428 2844 1947 2747 
L 2328 2669 
Q 3034 2534 3370 2195 
Q 3706 1856 3706 1288 
Q 3706 609 3251 259 
Q 2797 -91 1919 -91 
Q 1588 -91 1214 -16 
Q 841 59 441 206 
L 441 856 
Q 825 641 1194 531 
Q 1563 422 1919 422 
Q 2459 422 2753 634 
Q 3047 847 3047 1241 
Q 3047 1584 2836 1778 
Q 2625 1972 2144 2069 
L 1759 2144 
Q 1053 2284 737 2584 
Q 422 2884 422 3419 
Q 422 4038 858 4394 
Q 1294 4750 2059 4750 
Q 2388 4750 2728 4690 
Q 3069 4631 3425 4513 
z
" transform="scale(0.015625)"/>
       <path id="DejaVuSans-74" d="M 1172 4494 
L 1172 3500 
L 2356 3500 
L 2356 3053 
L 1172 3053 
L 1172 1153 
Q 1172 725 1289 603 
Q 1406 481 1766 481 
L 2356 481 
L 2356 0 
L 1766 0 
Q 1100 0 847 248 
Q 594 497 594 1153 
L 594 3053 
L 172 3053 
L 172 3500 
L 594 3500 
L 594 4494 
L 1172 4494 
z
" transform="scale(0.015625)"/>
       <path id="DejaVuSans-70" d="M 1159 525 
L 1159 -1331 
L 581 -1331 
L 581 3500 
L 1159 3500 
L 1159 2969 
Q 1341 3281 1617 3432 
Q 1894 3584 2278 3584 
Q 2916 3584 3314 3078 
Q 3713 2572 3713 1747 
Q 3713 922 3314 415 
Q 2916 -91 2278 -91 
Q 1894 -91 1617 61 
Q 1341 213 1159 525 
z
M 3116 1747 
Q 3116 2381 2855 2742 
Q 2594 3103 2138 3103 
Q 1681 3103 1420 2742 
Q 1159 2381 1159 1747 
Q 1159 1113 1420 752 
Q 1681 391 2138 391 
Q 2594 391 2855 752 
Q 3116 1113 3116 1747 
z
" transform="scale(0.015625)"/>
       <path id="DejaVuSans-73" d="M 2834 3397 
L 2834 2853 
Q 2591 2978 2328 3040 
Q 2066 3103 1784 3103 
Q 1356 3103 1142 2972 
Q 928 2841 928 2578 
Q 928 2378 1081 2264 
Q 1234 2150 1697 2047 
L 1894 2003 
Q 2506 1872 2764 1633 
Q 3022 1394 3022 966 
Q 3022 478 2636 193 
Q 2250 -91 1575 -91 
Q 1294 -91 989 -36 
Q 684 19 347 128 
L 347 722 
Q 666 556 975 473 
Q 1284 391 1588 391 
Q 1994 391 2212 530 
Q 2431 669 2431 922 
Q 2431 1156 2273 1281 
Q 2116 1406 1581 1522 
L 1381 1569 
Q 847 1681 609 1914 
Q 372 2147 372 2553 
Q 372 3047 722 3315 
Q 1072 3584 1716 3584 
Q 2034 3584 2315 3537 
Q 2597 3491 2834 3397 
z
" transform="scale(0.015625)"/>
      </defs>
      <use xlink:href="#DejaVuSans-54"/>
      <use xlink:href="#DejaVuSans-69" transform="translate(57.958984 0)"/>
      <use xlink:href="#DejaVuSans-6d" transform="translate(85.742188 0)"/>
      <use xlink:href="#DejaVuSans-65" transform="translate(183.154297 0)"/>
      <use xlink:href="#DejaVuSans-20" transform="translate(244.677734 0)"/>
      <use xlink:href="#DejaVuSans-53" transform="translate(276.464844 0)"/>
      <use xlink:href="#DejaVuSans-74" transform="translate(339.941406 0)"/>
      <use xlink:href="#DejaVuSans-65" transform="translate(379.150391 0)"/>
      <use xlink:href="#DejaVuSans-70" transform="translate(440.673828 0)"/>
      <use xlink:href="#DejaVuSans-73" transform="translate(504.150391 0)"/>
     </g>
    </g>
   </g>
   <g id="matplotlib.axis_2">
    <g id="ytick_1">
     <g id="line2d_15">
      <path d="M 56.50625 229.960061 
L 614.50625 229.960061 
" clip-path="url(#pf498987d96)" style="fill: none; stroke: #b0b0b0; stroke-opacity: 0.3; stroke-width: 0.8; stroke-linecap: square"/>
     </g>
     <g id="line2d_16">
      <defs>
       <path id="mb120701a16" d="M 0 0 
L -3.5 0 
" style="stroke: #000000; stroke-width: 0.8"/>
      </defs>
      <g>
       <use xlink:href="#mb120701a16" x="56.50625" y="229.960061" style="stroke: #000000; stroke-width: 0.8"/>
      </g>
     </g>
     <g id="text_9">
      <!-- 0.175 -->
      <g transform="translate(20.878125 233.75928) scale(0.1 -0.1)">
       <defs>
        <path id="DejaVuSans-2e" d="M 684 794 
L 1344 794 
L 1344 0 
L 684 0 
L 684 794 
z
" transform="scale(0.015625)"/>
        <path id="DejaVuSans-37" d="M 525 4666 
L 3525 4666 
L 3525 4397 
L 1831 0 
L 1172 0 
L 2766 4134 
L 525 4134 
L 525 4666 
z
" transform="scale(0.015625)"/>
       </defs>
       <use xlink:href="#DejaVuSans-30"/>
       <use xlink:href="#DejaVuSans-2e" transform="translate(63.623047 0)"/>
       <use xlink:href="#DejaVuSans-31" transform="translate(95.410156 0)"/>
       <use xlink:href="#DejaVuSans-37" transform="translate(159.033203 0)"/>
       <use xlink:href="#DejaVuSans-35" transform="translate(222.65625 0)"/>
      </g>
     </g>
    </g>
    <g id="ytick_2">
     <g id="line2d_17">
      <path d="M 56.50625 205.09213 
L 614.50625 205.09213 
" clip-path="url(#pf498987d96)" style="fill: none; stroke: #b0b0b0; stroke-opacity: 0.3; stroke-width: 0.8; stroke-linecap: square"/>
     </g>
     <g id="line2d_18">
      <g>
       <use xlink:href="#mb120701a16" x="56.50625" y="205.09213" style="stroke: #000000; stroke-width: 0.8"/>
      </g>
     </g>
     <g id="text_10">
      <!-- 0.200 -->
      <g transform="translate(20.878125 208.891349) scale(0.1 -0.1)">
       <use xlink:href="#DejaVuSans-30"/>
       <use xlink:href="#DejaVuSans-2e" transform="translate(63.623047 0)"/>
       <use xlink:href="#DejaVuSans-32" transform="translate(95.410156 0)"/>
       <use xlink:href="#DejaVuSans-30" transform="translate(159.033203 0)"/>
       <use xlink:href="#DejaVuSans-30" transform="translate(222.65625 0)"/>
      </g>
     </g>
    </g>
    <g id="ytick_3">
     <g id="line2d_19">
      <path d="M 56.50625 180.2242 
L 614.50625 180.2242 
" clip-path="url(#pf498987d96)" style="fill: none; stroke: #b0b0b0; stroke-opacity: 0.3; stroke-width: 0.8; stroke-linecap: square"/>
     </g>
     <g id="line2d_20">
      <g>
       <use xlink:href="#mb120701a16" x="56.50625" y="180.2242" style="stroke: #000000; stroke-width: 0.8"/>
      </g>
     </g>
     <g id="text_11">
      <!-- 0.225 -->
      <g transform="translate(20.878125 184.023419) scale(0.1 -0.1)">
       <use xlink:href="#DejaVuSans-30"/>
       <use xlink:href="#DejaVuSans-2e" transform="translate(63.623047 0)"/>
       <use xlink:href="#DejaVuSans-32" transform="translate(95.410156 0)"/>
       <use xlink:href="#DejaVuSans-32" transform="translate(159.033203 0)"/>
       <use xlink:href="#DejaVuSans-35" transform="translate(222.65625 0)"/>
      </g>
     </g>
    </g>
    <g id="ytick_4">
     <g id="line2d_21">
      <path d="M 56.50625 155.356269 
L 614.50625 155.356269 
" clip-path="url(#pf498987d96)" style="fill: none; stroke: #b0b0b0; stroke-opacity: 0.3; stroke-width: 0.8; stroke-linecap: square"/>
     </g>
     <g id="line2d_22">
      <g>
       <use xlink:href="#mb120701a16" x="56.50625" y="155.356269" style="stroke: #000000; stroke-width: 0.8"/>
      </g>
     </g>
     <g id="text_12">
      <!-- 0.250 -->
      <g transform="translate(20.878125 159.155488) scale(0.1 -0.1)">
       <use xlink:href="#DejaVuSans-30"/>
       <use xlink:href="#DejaVuSans-2e" transform="translate(63.623047 0)"/>
       <use xlink:href="#DejaVuSans-32" transform="translate(95.410156 0)"/>
       <use xlink:href="#DejaVuSans-35" transform="translate(159.033203 0)"/>
       <use xlink:href="#DejaVuSans-30" transform="translate(222.65625 0)"/>
      </g>
     </g>
    </g>
    <g id="ytick_5">
     <g id="line2d_23">
      <path d="M 56.50625 130.488339 
L 614.50625 130.488339 
" clip-path="url(#pf498987d96)" style="fill: none; stroke: #b0b0b0; stroke-opacity: 0.3; stroke-width: 0.8; stroke-linecap: square"/>
     </g>
     <g id="line2d_24">
      <g>
       <use xlink:href="#mb120701a16" x="56.50625" y="130.488339" style="stroke: #000000; stroke-width: 0.8"/>
      </g>
     </g>
     <g id="text_13">
      <!-- 0.275 -->
      <g transform="translate(20.878125 134.287558) scale(0.1 -0.1)">
       <use xlink:href="#DejaVuSans-30"/>
       <use xlink:href="#DejaVuSans-2e" transform="translate(63.623047 0)"/>
       <use xlink:href="#DejaVuSans-32" transform="translate(95.410156 0)"/>
       <use xlink:href="#DejaVuSans-37" transform="translate(159.033203 0)"/>
       <use xlink:href="#DejaVuSans-35" transform="translate(222.65625 0)"/>
      </g>
     </g>
    </g>
    <g id="ytick_6">
     <g id="line2d_25">
      <path d="M 56.50625 105.620408 
L 614.50625 105.620408 
" clip-path="url(#pf498987d96)" style="fill: none; stroke: #b0b0b0; stroke-opacity: 0.3; stroke-width: 0.8; stroke-linecap: square"/>
     </g>
     <g id="line2d_26">
      <g>
       <use xlink:href="#mb120701a16" x="56.50625" y="105.620408" style="stroke: #000000; stroke-width: 0.8"/>
      </g>
     </g>
     <g id="text_14">
      <!-- 0.300 -->
      <g transform="translate(20.878125 109.419627) scale(0.1 -0.1)">
       <use xlink:href="#DejaVuSans-30"/>
       <use xlink:href="#DejaVuSans-2e" transform="translate(63.623047 0)"/>
       <use xlink:href="#DejaVuSans-33" transform="translate(95.410156 0)"/>
       <use xlink:href="#DejaVuSans-30" transform="translate(159.033203 0)"/>
       <use xlink:href="#DejaVuSans-30" transform="translate(222.65625 0)"/>
      </g>
     </g>
    </g>
    <g id="ytick_7">
     <g id="line2d_27">
      <path d="M 56.50625 80.752478 
L 614.50625 80.752478 
" clip-path="url(#pf498987d96)" style="fill: none; stroke: #b0b0b0; stroke-opacity: 0.3; stroke-width: 0.8; stroke-linecap: square"/>
     </g>
     <g id="line2d_28">
      <g>
       <use xlink:href="#mb120701a16" x="56.50625" y="80.752478" style="stroke: #000000; stroke-width: 0.8"/>
      </g>
     </g>
     <g id="text_15">
      <!-- 0.325 -->
      <g transform="translate(20.878125 84.551696) scale(0.1 -0.1)">
       <use xlink:href="#DejaVuSans-30"/>
       <use xlink:href="#DejaVuSans-2e" transform="translate(63.623047 0)"/>
       <use xlink:href="#DejaVuSans-33" transform="translate(95.410156 0)"/>
       <use xlink:href="#DejaVuSans-32" transform="translate(159.033203 0)"/>
       <use xlink:href="#DejaVuSans-35" transform="translate(222.65625 0)"/>
      </g>
     </g>
    </g>
    <g id="ytick_8">
     <g id="line2d_29">
      <path d="M 56.50625 55.884547 
L 614.50625 55.884547 
" clip-path="url(#pf498987d96)" style="fill: none; stroke: #b0b0b0; stroke-opacity: 0.3; stroke-width: 0.8; stroke-linecap: square"/>
     </g>
     <g id="line2d_30">
      <g>
       <use xlink:href="#mb120701a16" x="56.50625" y="55.884547" style="stroke: #000000; stroke-width: 0.8"/>
      </g>
     </g>
     <g id="text_16">
      <!-- 0.350 -->
      <g transform="translate(20.878125 59.683766) scale(0.1 -0.1)">
       <use xlink:href="#DejaVuSans-30"/>
       <use xlink:href="#DejaVuSans-2e" transform="translate(63.623047 0)"/>
       <use xlink:href="#DejaVuSans-33" transform="translate(95.410156 0)"/>
       <use xlink:href="#DejaVuSans-35" transform="translate(159.033203 0)"/>
       <use xlink:href="#DejaVuSans-30" transform="translate(222.65625 0)"/>
      </g>
     </g>
    </g>
    <g id="ytick_9">
     <g id="line2d_31">
      <path d="M 56.50625 31.016617 
L 614.50625 31.016617 
" clip-path="url(#pf498987d96)" style="fill: none; stroke: #b0b0b0; stroke-opacity: 0.3; stroke-width: 0.8; stroke-linecap: square"/>
     </g>
     <g id="line2d_32">
      <g>
       <use xlink:href="#mb120701a16" x="56.50625" y="31.016617" style="stroke: #000000; stroke-width: 0.8"/>
      </g>
     </g>
     <g id="text_17">
      <!-- 0.375 -->
      <g transform="translate(20.878125 34.815835) scale(0.1 -0.1)">
       <use xlink:href="#DejaVuSans-30"/>
       <use xlink:href="#DejaVuSans-2e" transform="translate(63.623047 0)"/>
       <use xlink:href="#DejaVuSans-33" transform="translate(95.410156 0)"/>
       <use xlink:href="#DejaVuSans-37" transform="translate(159.033203 0)"/>
       <use xlink:href="#DejaVuSans-35" transform="translate(222.65625 0)"/>
      </g>
     </g>
    </g>
    <g id="text_18">
     <!-- Signal Value -->
     <g transform="translate(14.798437 163.877812) rotate(-90) scale(0.1 -0.1)">
      <defs>
       <path id="DejaVuSans-67" d="M 2906 1791 
Q 2906 2416 2648 2759 
Q 2391 3103 1925 3103 
Q 1463 3103 1205 2759 
Q 947 2416 947 1791 
Q 947 1169 1205 825 
Q 1463 481 1925 481 
Q 2391 481 2648 825 
Q 2906 1169 2906 1791 
z
M 3481 434 
Q 3481 -459 3084 -895 
Q 2688 -1331 1869 -1331 
Q 1566 -1331 1297 -1286 
Q 1028 -1241 775 -1147 
L 775 -588 
Q 1028 -725 1275 -790 
Q 1522 -856 1778 -856 
Q 2344 -856 2625 -561 
Q 2906 -266 2906 331 
L 2906 616 
Q 2728 306 2450 153 
Q 2172 0 1784 0 
Q 1141 0 747 490 
Q 353 981 353 1791 
Q 353 2603 747 3093 
Q 1141 3584 1784 3584 
Q 2172 3584 2450 3431 
Q 2728 3278 2906 2969 
L 2906 3500 
L 3481 3500 
L 3481 434 
z
" transform="scale(0.015625)"/>
       <path id="DejaVuSans-6e" d="M 3513 2113 
L 3513 0 
L 2938 0 
L 2938 2094 
Q 2938 2591 2744 2837 
Q 2550 3084 2163 3084 
Q 1697 3084 1428 2787 
Q 1159 2491 1159 1978 
L 1159 0 
L 581 0 
L 581 3500 
L 1159 3500 
L 1159 2956 
Q 1366 3272 1645 3428 
Q 1925 3584 2291 3584 
Q 2894 3584 3203 3211 
Q 3513 2838 3513 2113 
z
" transform="scale(0.015625)"/>
       <path id="DejaVuSans-61" d="M 2194 1759 
Q 1497 1759 1228 1600 
Q 959 1441 959 1056 
Q 959 750 1161 570 
Q 1363 391 1709 391 
Q 2188 391 2477 730 
Q 2766 1069 2766 1631 
L 2766 1759 
L 2194 1759 
z
M 3341 1997 
L 3341 0 
L 2766 0 
L 2766 531 
Q 2569 213 2275 61 
Q 1981 -91 1556 -91 
Q 1019 -91 701 211 
Q 384 513 384 1019 
Q 384 1609 779 1909 
Q 1175 2209 1959 2209 
L 2766 2209 
L 2766 2266 
Q 2766 2663 2505 2880 
Q 2244 3097 1772 3097 
Q 1472 3097 1187 3025 
Q 903 2953 641 2809 
L 641 3341 
Q 956 3463 1253 3523 
Q 1550 3584 1831 3584 
Q 2591 3584 2966 3190 
Q 3341 2797 3341 1997 
z
" transform="scale(0.015625)"/>
       <path id="DejaVuSans-6c" d="M 603 4863 
L 1178 4863 
L 1178 0 
L 603 0 
L 603 4863 
z
" transform="scale(0.015625)"/>
       <path id="DejaVuSans-56" d="M 1831 0 
L 50 4666 
L 709 4666 
L 2188 738 
L 3669 4666 
L 4325 4666 
L 2547 0 
L 1831 0 
z
" transform="scale(0.015625)"/>
       <path id="DejaVuSans-75" d="M 544 1381 
L 544 3500 
L 1119 3500 
L 1119 1403 
Q 1119 906 1312 657 
Q 1506 409 1894 409 
Q 2359 409 2629 706 
Q 2900 1003 2900 1516 
L 2900 3500 
L 3475 3500 
L 3475 0 
L 2900 0 
L 2900 538 
Q 2691 219 2414 64 
Q 2138 -91 1772 -91 
Q 1169 -91 856 284 
Q 544 659 544 1381 
z
M 1991 3584 
L 1991 3584 
z
" transform="scale(0.015625)"/>
      </defs>
      <use xlink:href="#DejaVuSans-53"/>
      <use xlink:href="#DejaVuSans-69" transform="translate(63.476562 0)"/>
      <use xlink:href="#DejaVuSans-67" transform="translate(91.259766 0)"/>
      <use xlink:href="#DejaVuSans-6e" transform="translate(154.736328 0)"/>
      <use xlink:href="#DejaVuSans-61" transform="translate(218.115234 0)"/>
      <use xlink:href="#DejaVuSans-6c" transform="translate(279.394531 0)"/>
      <use xlink:href="#DejaVuSans-20" transform="translate(307.177734 0)"/>
      <use xlink:href="#DejaVuSans-56" transform="translate(338.964844 0)"/>
      <use xlink:href="#DejaVuSans-61" transform="translate(399.623047 0)"/>
      <use xlink:href="#DejaVuSans-6c" transform="translate(460.902344 0)"/>
      <use xlink:href="#DejaVuSans-75" transform="translate(488.685547 0)"/>
      <use xlink:href="#DejaVuSans-65" transform="translate(552.064453 0)"/>
     </g>
    </g>
   </g>
   <g id="line2d_33">
    <path d="M 81.869886 96.786195 
L 83.572144 98.626203 
L 85.274401 136.10979 
L 86.976659 177.370746 
L 88.678916 198.550449 
L 90.381174 196.706408 
L 92.083431 163.25624 
L 93.785689 138.163574 
L 95.487946 120.891968 
L 97.190204 85.101882 
L 98.892461 55.482295 
L 100.594719 48.117214 
L 102.296976 76.909558 
L 103.999234 129.275041 
L 105.701491 169.815201 
L 107.403748 190.227674 
L 109.106006 196.278288 
L 110.808263 186.719304 
L 112.510521 172.769807 
L 114.212778 138.277844 
L 115.915036 81.766276 
L 117.617293 66.270472 
L 119.319551 109.990692 
L 121.021808 161.201152 
L 122.724066 190.925305 
L 124.426323 201.425846 
L 127.830838 186.968437 
L 129.533096 163.123265 
L 132.937611 57.187997 
L 134.639868 32.398125 
L 136.342126 53.538693 
L 138.044383 102.126156 
L 139.74664 138.244095 
L 143.151155 182.208813 
L 144.853413 193.680334 
L 146.55567 191.883262 
L 148.257928 158.000782 
L 149.960185 97.095162 
L 151.662443 73.293132 
L 153.3647 97.690961 
L 155.066958 128.076743 
L 158.471473 175.492576 
L 160.17373 189.934498 
L 161.875988 196.338348 
L 163.578245 181.814904 
L 166.98276 105.466347 
L 168.685018 82.376502 
L 170.387275 82.53602 
L 172.089532 96.396755 
L 173.79179 97.105081 
L 175.494047 111.282963 
L 177.196305 151.352914 
L 178.898562 177.710468 
L 180.60082 186.076332 
L 182.303077 169.906803 
L 184.005335 136.924643 
L 185.707592 121.756084 
L 187.40985 118.101824 
L 189.112107 97.628598 
L 190.814365 90.018459 
L 194.21888 151.621689 
L 195.921137 173.054923 
L 197.623395 171.28787 
L 199.325652 154.443608 
L 201.02791 149.073642 
L 202.730167 150.361195 
L 204.432424 147.671832 
L 206.134682 122.456262 
L 207.836939 82.616014 
L 209.539197 81.228165 
L 211.241454 119.327242 
L 212.943712 148.444254 
L 214.645969 162.485093 
L 216.348227 168.691341 
L 219.752742 174.265498 
L 221.454999 155.298066 
L 223.157257 103.607245 
L 224.859514 67.664423 
L 226.561772 72.263066 
L 228.264029 92.446234 
L 229.966287 117.171854 
L 231.668544 128.467962 
L 233.370802 136.912682 
L 235.073059 167.033665 
L 236.775317 191.184728 
L 238.477574 197.221927 
L 240.179831 170.275918 
L 241.882089 110.906908 
L 243.584346 89.321308 
L 245.286604 103.685787 
L 246.988861 114.351398 
L 248.691119 129.73849 
L 250.393376 164.900781 
L 252.095634 193.969806 
L 253.797891 206.271814 
L 255.500149 192.684062 
L 257.202406 139.917253 
L 258.904664 99.18869 
L 260.606921 80.966227 
L 262.309179 67.973068 
L 264.011436 68.472967 
L 265.713694 73.568081 
L 267.415951 103.472363 
L 269.118209 155.495136 
L 270.820466 192.837989 
L 272.522723 208.606624 
L 274.224981 194.242274 
L 275.927238 152.721136 
L 277.629496 128.160199 
L 279.331753 109.970492 
L 281.034011 81.571958 
L 282.736268 88.877279 
L 284.438526 143.263707 
L 286.140783 190.611767 
L 287.843041 211.461475 
L 289.545298 204.345256 
L 291.247556 169.742472 
L 294.652071 124.233833 
L 296.354328 85.349745 
L 298.056586 52.724645 
L 299.758843 37.572868 
L 301.461101 71.137941 
L 303.163358 131.201192 
L 304.865615 167.774351 
L 306.567873 184.016281 
L 308.27013 187.182974 
L 309.972388 179.687576 
L 311.674645 164.281172 
L 313.376903 132.685961 
L 315.07916 76.993919 
L 316.781418 68.259376 
L 318.483675 116.215057 
L 320.185933 156.801007 
L 321.88819 179.831259 
L 323.590448 184.59485 
L 325.292705 178.294881 
L 326.994963 175.466771 
L 328.69722 163.82746 
L 330.399478 129.964871 
L 332.101735 91.666118 
L 333.803993 63.936656 
L 335.50625 76.651269 
L 337.208507 109.599996 
L 338.910765 123.878554 
L 340.613022 137.068078 
L 342.31528 160.197576 
L 344.017537 174.936782 
L 345.719795 177.227692 
L 347.422052 156.65337 
L 349.12431 111.10704 
L 350.826567 94.669474 
L 352.528825 104.927838 
L 354.231082 105.836697 
L 355.93334 109.947419 
L 357.635597 123.848661 
L 359.337855 142.353161 
L 361.040112 164.071139 
L 362.74237 170.902713 
L 364.444627 163.20484 
L 367.849142 127.211961 
L 369.551399 122.06206 
L 371.253657 112.933496 
L 372.955914 88.266408 
L 374.658172 94.294916 
L 376.360429 133.155349 
L 378.062687 163.701909 
L 379.764944 179.634525 
L 381.467202 174.372389 
L 383.169459 156.744112 
L 384.871717 149.032735 
L 386.573974 133.027895 
L 388.276232 90.178874 
L 389.978489 61.873732 
L 391.680747 66.856283 
L 393.383004 96.867017 
L 395.085262 134.025439 
L 396.787519 151.504547 
L 398.489777 164.882284 
L 400.192034 181.410834 
L 401.894291 189.472803 
L 403.596549 184.664555 
L 405.298806 143.635493 
L 407.001064 82.223877 
L 408.703321 72.062388 
L 410.405579 108.358646 
L 412.107836 139.142857 
L 413.810094 165.952564 
L 415.512351 186.364193 
L 417.214609 196.962127 
L 418.916866 198.898347 
L 420.619124 171.483893 
L 422.321381 109.206236 
L 424.023639 60.585426 
L 425.725896 46.138277 
L 427.428154 61.052532 
L 429.130411 92.435596 
L 430.832669 110.639303 
L 432.534926 139.086594 
L 434.237183 178.151902 
L 435.939441 204.181894 
L 437.641698 208.802193 
L 439.343956 174.757392 
L 441.046213 115.008764 
L 442.748471 92.203337 
L 444.450728 100.590388 
L 446.152986 105.341392 
L 447.855243 130.52167 
L 449.557501 174.429855 
L 451.259758 206.178451 
L 452.962016 215.034373 
L 454.664273 194.265209 
L 456.366531 144.496564 
L 458.068788 108.053703 
L 459.771046 84.846793 
L 461.473303 72.117792 
L 463.175561 69.984348 
L 464.877818 68.757179 
L 466.580076 101.089726 
L 468.282333 154.583109 
L 469.98459 186.268403 
L 471.686848 195.155832 
L 473.389105 179.078418 
L 475.091363 149.720259 
L 476.79362 133.5814 
L 478.495878 114.026908 
L 480.198135 79.801831 
L 481.900393 84.38868 
L 483.60265 136.620357 
L 485.304908 177.354188 
L 487.007165 193.860923 
L 488.709423 182.670266 
L 490.41168 159.019848 
L 492.113938 152.273443 
L 493.816195 141.343275 
L 495.518453 117.913615 
L 497.22071 87.22059 
L 498.922968 60.24262 
L 500.625225 82.151012 
L 502.327482 124.835614 
L 504.02974 147.746079 
L 505.731997 158.231703 
L 507.434255 166.137175 
L 509.136512 169.467685 
L 510.83877 167.761836 
L 512.541027 142.392148 
L 514.243285 91.018816 
L 515.945542 78.040086 
L 517.6478 100.194555 
L 519.350057 118.950737 
L 521.052315 131.509535 
L 522.754572 133.900379 
L 524.45683 143.079473 
L 526.159087 163.813706 
L 527.861345 177.391092 
L 529.563602 172.429735 
L 531.26586 140.96747 
L 532.968117 106.032487 
L 534.670374 102.609193 
L 536.372632 110.52167 
L 538.074889 105.515944 
L 539.777147 119.207241 
L 541.479404 151.389947 
L 543.181662 179.496936 
L 544.883919 191.102969 
L 546.586177 174.190097 
L 548.288434 136.931649 
L 549.990692 119.147203 
L 551.692949 107.410388 
L 553.395207 83.35595 
L 555.097464 70.475415 
L 556.799722 75.615279 
L 558.501979 108.651672 
L 560.204237 153.051706 
L 561.906494 179.27055 
L 563.608752 190.334889 
L 565.311009 187.646646 
L 567.013266 173.198069 
L 568.715524 159.781899 
L 570.417781 124.222429 
L 572.120039 76.008576 
L 573.822296 82.746191 
L 575.524554 134.160416 
L 577.226811 174.210031 
L 578.929069 195.322984 
L 580.631326 197.697892 
L 582.333584 186.734615 
L 584.035841 178.139805 
L 585.738099 146.068844 
L 587.440356 86.04916 
L 589.142614 42.799452 
L 589.142614 42.799452 
" clip-path="url(#pf498987d96)" style="fill: none; stroke-dasharray: 5.55,2.4; stroke-dashoffset: 0; stroke: #008000; stroke-width: 1.5"/>
   </g>
   <g id="line2d_34">
    <path d="M 81.869886 127.279918 
L 83.572144 153.701746 
L 85.274401 135.778631 
L 86.976659 169.772892 
L 88.678916 155.331362 
L 90.381174 198.944082 
L 92.083431 127.233473 
L 93.785689 131.193504 
L 95.487946 115.741317 
L 97.190204 146.686785 
L 98.892461 105.294716 
L 100.594719 115.80732 
L 102.296976 110.761318 
L 103.999234 153.579624 
L 105.701491 157.793306 
L 107.403748 190.27196 
L 109.106006 153.53173 
L 110.808263 172.919019 
L 112.510521 137.645268 
L 114.212778 178.541988 
L 115.915036 118.327415 
L 117.617293 122.463454 
L 119.319551 147.982788 
L 121.021808 158.642011 
L 122.724066 140.263062 
L 124.426323 181.843538 
L 126.128581 177.848284 
L 127.830838 168.415619 
L 129.533096 132.961728 
L 131.235353 147.659804 
L 132.937611 142.296426 
L 134.639868 68.501789 
L 136.342126 108.285666 
L 138.044383 142.565524 
L 139.74664 137.988999 
L 141.448898 155.70216 
L 143.151155 163.510752 
L 144.853413 166.841167 
L 146.55567 166.239099 
L 148.257928 148.685785 
L 149.960185 112.671854 
L 151.662443 107.095426 
L 153.3647 119.117016 
L 155.066958 95.181672 
L 156.769215 100.513658 
L 158.471473 136.099164 
L 160.17373 116.373097 
L 161.875988 150.324057 
L 163.578245 174.650169 
L 165.280503 154.818406 
L 166.98276 117.236104 
L 168.685018 126.54951 
L 170.387275 107.813759 
L 172.089532 124.647035 
L 173.79179 118.604601 
L 175.494047 161.905198 
L 177.196305 138.427182 
L 178.898562 179.849251 
L 180.60082 163.413794 
L 182.303077 185.501391 
L 184.005335 98.63617 
L 185.707592 136.874279 
L 187.40985 113.976874 
L 189.112107 113.382633 
L 190.814365 82.609325 
L 192.516622 128.806949 
L 194.21888 100.896218 
L 195.921137 152.789927 
L 197.623395 148.48614 
L 199.325652 177.696544 
L 201.02791 132.7647 
L 202.730167 141.3797 
L 204.432424 151.678884 
L 206.134682 140.925088 
L 207.836939 108.245703 
L 209.539197 120.629844 
L 211.241454 156.492237 
L 212.943712 157.674354 
L 214.645969 136.777773 
L 216.348227 132.727134 
L 218.050484 169.067975 
L 219.752742 155.66322 
L 221.454999 112.443745 
L 223.157257 135.110279 
L 224.859514 95.323771 
L 226.561772 96.586053 
L 228.264029 119.332298 
L 229.966287 146.193555 
L 231.668544 145.453801 
L 233.370802 150.775228 
L 235.073059 178.489182 
L 236.775317 188.328082 
L 238.477574 198.937883 
L 240.179831 127.748746 
L 241.882089 90.575879 
L 243.584346 105.495951 
L 245.286604 142.679726 
L 246.988861 96.899974 
L 248.691119 146.692243 
L 250.393376 152.384513 
L 252.095634 180.909527 
L 253.797891 150.488497 
L 255.500149 152.239767 
L 257.202406 94.161327 
L 258.904664 81.133075 
L 260.606921 117.019976 
L 262.309179 106.677564 
L 264.011436 132.871245 
L 265.713694 91.726695 
L 267.415951 134.964679 
L 269.118209 153.945329 
L 270.820466 216.673277 
L 272.522723 162.050762 
L 274.224981 168.747061 
L 275.927238 115.50552 
L 277.629496 169.780766 
L 279.331753 153.660522 
L 281.034011 96.439146 
L 282.736268 112.958506 
L 284.438526 118.965325 
L 286.140783 169.04371 
L 287.843041 142.831144 
L 289.545298 215.545683 
L 291.247556 140.050262 
L 292.949813 173.926117 
L 294.652071 126.675764 
L 296.354328 162.543439 
L 298.056586 112.796011 
L 299.758843 96.020607 
L 301.461101 107.81931 
L 303.163358 171.630964 
L 304.865615 171.193603 
L 306.567873 193.899881 
L 308.27013 176.304223 
L 309.972388 150.427401 
L 311.674645 184.326041 
L 313.376903 136.185914 
L 315.07916 144.02213 
L 316.781418 86.599751 
L 318.483675 110.750516 
L 320.185933 98.521521 
L 321.88819 148.100014 
L 323.590448 144.595534 
L 325.292705 119.240078 
L 326.994963 145.00112 
L 328.69722 152.181067 
L 330.399478 151.718396 
L 332.101735 125.206775 
L 333.803993 82.108346 
L 337.208507 145.632969 
L 338.910765 128.573299 
L 340.613022 177.903718 
L 342.31528 151.578493 
L 344.017537 149.70807 
L 345.719795 129.346395 
L 347.422052 154.130099 
L 349.12431 87.085996 
L 350.826567 125.6144 
L 352.528825 121.399859 
L 354.231082 82.761702 
L 355.93334 103.088504 
L 357.635597 134.103104 
L 359.337855 112.303615 
L 361.040112 130.482379 
L 362.74237 170.136171 
L 364.444627 174.58984 
L 366.146885 133.553409 
L 367.849142 124.573831 
L 371.253657 127.007042 
L 372.955914 100.859113 
L 374.658172 110.356781 
L 376.360429 123.064933 
L 378.062687 145.446863 
L 379.764944 122.318915 
L 381.467202 186.125006 
L 383.169459 124.113024 
L 384.871717 142.728786 
L 386.573974 76.849807 
L 388.276232 122.79601 
L 389.978489 65.008871 
L 391.680747 133.251557 
L 393.383004 95.108215 
L 395.085262 147.938488 
L 396.787519 111.776887 
L 398.489777 167.818042 
L 400.192034 141.62022 
L 401.894291 164.583829 
L 403.596549 153.936462 
L 405.298806 130.849123 
L 407.001064 140.495966 
L 408.703321 141.275019 
L 410.405579 175.463825 
L 412.107836 121.295441 
L 413.810094 150.697473 
L 415.512351 138.700063 
L 417.214609 173.40269 
L 420.619124 138.402178 
L 422.321381 117.546378 
L 424.023639 113.413273 
L 425.725896 133.604592 
L 427.428154 84.868883 
L 429.130411 163.403169 
L 430.832669 125.08771 
L 432.534926 143.558672 
L 434.237183 170.765087 
L 435.939441 233.998125 
L 437.641698 178.948303 
L 439.343956 167.202588 
L 441.046213 110.938148 
L 442.748471 172.943207 
L 444.450728 148.324614 
L 446.152986 99.267607 
L 447.855243 95.733579 
L 449.557501 145.58257 
L 451.259758 158.671095 
L 452.962016 134.881591 
L 454.664273 159.823401 
L 456.366531 152.33304 
L 458.068788 149.846513 
L 459.771046 109.020839 
L 461.473303 122.779469 
L 463.175561 120.399852 
L 464.877818 103.697869 
L 466.580076 147.449616 
L 468.282333 154.205722 
L 469.98459 205.456006 
L 471.686848 156.923847 
L 473.389105 156.156965 
L 475.091363 158.494589 
L 476.79362 187.299719 
L 478.495878 123.754693 
L 480.198135 115.954098 
L 481.900393 86.615776 
L 483.60265 104.193465 
L 485.304908 148.265795 
L 487.007165 134.030055 
L 488.709423 184.544432 
L 490.41168 118.821478 
L 492.113938 141.498498 
L 493.816195 121.753951 
L 495.518453 164.673195 
L 497.22071 115.748803 
L 498.922968 103.063627 
L 500.625225 101.031961 
L 502.327482 175.49364 
L 504.02974 151.501035 
L 505.731997 157.561548 
L 507.434255 148.405725 
L 509.136512 127.234515 
L 510.83877 184.430212 
L 512.541027 120.265283 
L 514.243285 145.188771 
L 515.945542 56.647599 
L 517.6478 111.623961 
L 519.350057 93.20844 
L 521.052315 137.140766 
L 522.754572 91.549311 
L 524.45683 127.923848 
L 526.159087 141.735617 
L 527.861345 168.954193 
L 529.563602 178.950453 
L 531.26586 123.989155 
L 532.968117 122.803839 
L 534.670374 120.655681 
L 536.372632 143.692904 
L 538.074889 101.648563 
L 539.777147 137.117423 
L 541.479404 128.682188 
L 543.181662 170.809924 
L 544.883919 140.538881 
L 546.586177 150.541146 
L 548.288434 103.034393 
L 549.990692 122.562129 
L 551.692949 81.275501 
L 553.395207 120.436915 
L 555.097464 117.470784 
L 556.799722 93.012838 
L 558.501979 113.443635 
L 561.906494 148.714791 
L 563.608752 179.090875 
L 565.311009 149.816314 
L 567.013266 149.360149 
L 568.715524 153.916183 
L 570.417781 150.982638 
L 572.120039 126.460372 
L 573.822296 138.633359 
L 575.524554 161.276012 
L 577.226811 174.443239 
L 578.929069 144.43864 
L 580.631326 175.544133 
L 582.333584 155.68367 
L 584.035841 148.339259 
L 585.738099 117.888013 
L 587.440356 141.577455 
L 589.142614 138.366608 
L 589.142614 138.366608 
" clip-path="url(#pf498987d96)" style="fill: none; stroke: #ff0000; stroke-width: 1.5; stroke-linecap: square"/>
   </g>
   <g id="patch_3">
    <path d="M 56.50625 244.078125 
L 56.50625 22.318125 
" style="fill: none; stroke: #000000; stroke-width: 0.8; stroke-linejoin: miter; stroke-linecap: square"/>
   </g>
   <g id="patch_4">
    <path d="M 614.50625 244.078125 
L 614.50625 22.318125 
" style="fill: none; stroke: #000000; stroke-width: 0.8; stroke-linejoin: miter; stroke-linecap: square"/>
   </g>
   <g id="patch_5">
    <path d="M 56.50625 244.078125 
L 614.50625 244.078125 
" style="fill: none; stroke: #000000; stroke-width: 0.8; stroke-linejoin: miter; stroke-linecap: square"/>
   </g>
   <g id="patch_6">
    <path d="M 56.50625 22.318125 
L 614.50625 22.318125 
" style="fill: none; stroke: #000000; stroke-width: 0.8; stroke-linejoin: miter; stroke-linecap: square"/>
   </g>
   <g id="text_19">
    <!-- Task Performance: NARMA10 (validation set) -->
    <g transform="translate(201.816875 16.318125) scale(0.12 -0.12)">
     <defs>
      <path id="DejaVuSans-6b" d="M 581 4863 
L 1159 4863 
L 1159 1991 
L 2875 3500 
L 3609 3500 
L 1753 1863 
L 3688 0 
L 2938 0 
L 1159 1709 
L 1159 0 
L 581 0 
L 581 4863 
z
" transform="scale(0.015625)"/>
      <path id="DejaVuSans-50" d="M 1259 4147 
L 1259 2394 
L 2053 2394 
Q 2494 2394 2734 2622 
Q 2975 2850 2975 3272 
Q 2975 3691 2734 3919 
Q 2494 4147 2053 4147 
L 1259 4147 
z
M 628 4666 
L 2053 4666 
Q 2838 4666 3239 4311 
Q 3641 3956 3641 3272 
Q 3641 2581 3239 2228 
Q 2838 1875 2053 1875 
L 1259 1875 
L 1259 0 
L 628 0 
L 628 4666 
z
" transform="scale(0.015625)"/>
      <path id="DejaVuSans-72" d="M 2631 2963 
Q 2534 3019 2420 3045 
Q 2306 3072 2169 3072 
Q 1681 3072 1420 2755 
Q 1159 2438 1159 1844 
L 1159 0 
L 581 0 
L 581 3500 
L 1159 3500 
L 1159 2956 
Q 1341 3275 1631 3429 
Q 1922 3584 2338 3584 
Q 2397 3584 2469 3576 
Q 2541 3569 2628 3553 
L 2631 2963 
z
" transform="scale(0.015625)"/>
      <path id="DejaVuSans-66" d="M 2375 4863 
L 2375 4384 
L 1825 4384 
Q 1516 4384 1395 4259 
Q 1275 4134 1275 3809 
L 1275 3500 
L 2222 3500 
L 2222 3053 
L 1275 3053 
L 1275 0 
L 697 0 
L 697 3053 
L 147 3053 
L 147 3500 
L 697 3500 
L 697 3744 
Q 697 4328 969 4595 
Q 1241 4863 1831 4863 
L 2375 4863 
z
" transform="scale(0.015625)"/>
      <path id="DejaVuSans-6f" d="M 1959 3097 
Q 1497 3097 1228 2736 
Q 959 2375 959 1747 
Q 959 1119 1226 758 
Q 1494 397 1959 397 
Q 2419 397 2687 759 
Q 2956 1122 2956 1747 
Q 2956 2369 2687 2733 
Q 2419 3097 1959 3097 
z
M 1959 3584 
Q 2709 3584 3137 3096 
Q 3566 2609 3566 1747 
Q 3566 888 3137 398 
Q 2709 -91 1959 -91 
Q 1206 -91 779 398 
Q 353 888 353 1747 
Q 353 2609 779 3096 
Q 1206 3584 1959 3584 
z
" transform="scale(0.015625)"/>
      <path id="DejaVuSans-63" d="M 3122 3366 
L 3122 2828 
Q 2878 2963 2633 3030 
Q 2388 3097 2138 3097 
Q 1578 3097 1268 2742 
Q 959 2388 959 1747 
Q 959 1106 1268 751 
Q 1578 397 2138 397 
Q 2388 397 2633 464 
Q 2878 531 3122 666 
L 3122 134 
Q 2881 22 2623 -34 
Q 2366 -91 2075 -91 
Q 1284 -91 818 406 
Q 353 903 353 1747 
Q 353 2603 823 3093 
Q 1294 3584 2113 3584 
Q 2378 3584 2631 3529 
Q 2884 3475 3122 3366 
z
" transform="scale(0.015625)"/>
      <path id="DejaVuSans-3a" d="M 750 794 
L 1409 794 
L 1409 0 
L 750 0 
L 750 794 
z
M 750 3309 
L 1409 3309 
L 1409 2516 
L 750 2516 
L 750 3309 
z
" transform="scale(0.015625)"/>
      <path id="DejaVuSans-4e" d="M 628 4666 
L 1478 4666 
L 3547 763 
L 3547 4666 
L 4159 4666 
L 4159 0 
L 3309 0 
L 1241 3903 
L 1241 0 
L 628 0 
L 628 4666 
z
" transform="scale(0.015625)"/>
      <path id="DejaVuSans-41" d="M 2188 4044 
L 1331 1722 
L 3047 1722 
L 2188 4044 
z
M 1831 4666 
L 2547 4666 
L 4325 0 
L 3669 0 
L 3244 1197 
L 1141 1197 
L 716 0 
L 50 0 
L 1831 4666 
z
" transform="scale(0.015625)"/>
      <path id="DejaVuSans-52" d="M 2841 2188 
Q 3044 2119 3236 1894 
Q 3428 1669 3622 1275 
L 4263 0 
L 3584 0 
L 2988 1197 
Q 2756 1666 2539 1819 
Q 2322 1972 1947 1972 
L 1259 1972 
L 1259 0 
L 628 0 
L 628 4666 
L 2053 4666 
Q 2853 4666 3247 4331 
Q 3641 3997 3641 3322 
Q 3641 2881 3436 2590 
Q 3231 2300 2841 2188 
z
M 1259 4147 
L 1259 2491 
L 2053 2491 
Q 2509 2491 2742 2702 
Q 2975 2913 2975 3322 
Q 2975 3731 2742 3939 
Q 2509 4147 2053 4147 
L 1259 4147 
z
" transform="scale(0.015625)"/>
      <path id="DejaVuSans-4d" d="M 628 4666 
L 1569 4666 
L 2759 1491 
L 3956 4666 
L 4897 4666 
L 4897 0 
L 4281 0 
L 4281 4097 
L 3078 897 
L 2444 897 
L 1241 4097 
L 1241 0 
L 628 0 
L 628 4666 
z
" transform="scale(0.015625)"/>
      <path id="DejaVuSans-28" d="M 1984 4856 
Q 1566 4138 1362 3434 
Q 1159 2731 1159 2009 
Q 1159 1288 1364 580 
Q 1569 -128 1984 -844 
L 1484 -844 
Q 1016 -109 783 600 
Q 550 1309 550 2009 
Q 550 2706 781 3412 
Q 1013 4119 1484 4856 
L 1984 4856 
z
" transform="scale(0.015625)"/>
      <path id="DejaVuSans-76" d="M 191 3500 
L 800 3500 
L 1894 563 
L 2988 3500 
L 3597 3500 
L 2284 0 
L 1503 0 
L 191 3500 
z
" transform="scale(0.015625)"/>
      <path id="DejaVuSans-64" d="M 2906 2969 
L 2906 4863 
L 3481 4863 
L 3481 0 
L 2906 0 
L 2906 525 
Q 2725 213 2448 61 
Q 2172 -91 1784 -91 
Q 1150 -91 751 415 
Q 353 922 353 1747 
Q 353 2572 751 3078 
Q 1150 3584 1784 3584 
Q 2172 3584 2448 3432 
Q 2725 3281 2906 2969 
z
M 947 1747 
Q 947 1113 1208 752 
Q 1469 391 1925 391 
Q 2381 391 2643 752 
Q 2906 1113 2906 1747 
Q 2906 2381 2643 2742 
Q 2381 3103 1925 3103 
Q 1469 3103 1208 2742 
Q 947 2381 947 1747 
z
" transform="scale(0.015625)"/>
      <path id="DejaVuSans-29" d="M 513 4856 
L 1013 4856 
Q 1481 4119 1714 3412 
Q 1947 2706 1947 2009 
Q 1947 1309 1714 600 
Q 1481 -109 1013 -844 
L 513 -844 
Q 928 -128 1133 580 
Q 1338 1288 1338 2009 
Q 1338 2731 1133 3434 
Q 928 4138 513 4856 
z
" transform="scale(0.015625)"/>
     </defs>
     <use xlink:href="#DejaVuSans-54"/>
     <use xlink:href="#DejaVuSans-61" transform="translate(44.583984 0)"/>
     <use xlink:href="#DejaVuSans-73" transform="translate(105.863281 0)"/>
     <use xlink:href="#DejaVuSans-6b" transform="translate(157.962891 0)"/>
     <use xlink:href="#DejaVuSans-20" transform="translate(215.873047 0)"/>
     <use xlink:href="#DejaVuSans-50" transform="translate(247.660156 0)"/>
     <use xlink:href="#DejaVuSans-65" transform="translate(304.337891 0)"/>
     <use xlink:href="#DejaVuSans-72" transform="translate(365.861328 0)"/>
     <use xlink:href="#DejaVuSans-66" transform="translate(406.974609 0)"/>
     <use xlink:href="#DejaVuSans-6f" transform="translate(442.179688 0)"/>
     <use xlink:href="#DejaVuSans-72" transform="translate(503.361328 0)"/>
     <use xlink:href="#DejaVuSans-6d" transform="translate(542.724609 0)"/>
     <use xlink:href="#DejaVuSans-61" transform="translate(640.136719 0)"/>
     <use xlink:href="#DejaVuSans-6e" transform="translate(701.416016 0)"/>
     <use xlink:href="#DejaVuSans-63" transform="translate(764.794922 0)"/>
     <use xlink:href="#DejaVuSans-65" transform="translate(819.775391 0)"/>
     <use xlink:href="#DejaVuSans-3a" transform="translate(881.298828 0)"/>
     <use xlink:href="#DejaVuSans-20" transform="translate(914.990234 0)"/>
     <use xlink:href="#DejaVuSans-4e" transform="translate(946.777344 0)"/>
     <use xlink:href="#DejaVuSans-41" transform="translate(1021.582031 0)"/>
     <use xlink:href="#DejaVuSans-52" transform="translate(1089.990234 0)"/>
     <use xlink:href="#DejaVuSans-4d" transform="translate(1159.472656 0)"/>
     <use xlink:href="#DejaVuSans-41" transform="translate(1245.751953 0)"/>
     <use xlink:href="#DejaVuSans-31" transform="translate(1314.160156 0)"/>
     <use xlink:href="#DejaVuSans-30" transform="translate(1377.783203 0)"/>
     <use xlink:href="#DejaVuSans-20" transform="translate(1441.40625 0)"/>
     <use xlink:href="#DejaVuSans-28" transform="translate(1473.193359 0)"/>
     <use xlink:href="#DejaVuSans-76" transform="translate(1512.207031 0)"/>
     <use xlink:href="#DejaVuSans-61" transform="translate(1571.386719 0)"/>
     <use xlink:href="#DejaVuSans-6c" transform="translate(1632.666016 0)"/>
     <use xlink:href="#DejaVuSans-69" transform="translate(1660.449219 0)"/>
     <use xlink:href="#DejaVuSans-64" transform="translate(1688.232422 0)"/>
     <use xlink:href="#DejaVuSans-61" transform="translate(1751.708984 0)"/>
     <use xlink:href="#DejaVuSans-74" transform="translate(1812.988281 0)"/>
     <use xlink:href="#DejaVuSans-69" transform="translate(1852.197266 0)"/>
     <use xlink:href="#DejaVuSans-6f" transform="translate(1879.980469 0)"/>
     <use xlink:href="#DejaVuSans-6e" transform="translate(1941.162109 0)"/>
     <use xlink:href="#DejaVuSans-20" transform="translate(2004.541016 0)"/>
     <use xlink:href="#DejaVuSans-73" transform="translate(2036.328125 0)"/>
     <use xlink:href="#DejaVuSans-65" transform="translate(2088.427734 0)"/>
     <use xlink:href="#DejaVuSans-74" transform="translate(2149.951172 0)"/>
     <use xlink:href="#DejaVuSans-29" transform="translate(2189.160156 0)"/>
    </g>
   </g>
   <g id="legend_1">
    <g id="patch_7">
     <path d="M 525.832813 59.674375 
L 607.50625 59.674375 
Q 609.50625 59.674375 609.50625 57.674375 
L 609.50625 29.318125 
Q 609.50625 27.318125 607.50625 27.318125 
L 525.832813 27.318125 
Q 523.832813 27.318125 523.832813 29.318125 
L 523.832813 57.674375 
Q 523.832813 59.674375 525.832813 59.674375 
z
" style="fill: #ffffff; opacity: 0.8; stroke: #cccccc; stroke-linejoin: miter"/>
    </g>
    <g id="line2d_35">
     <path d="M 527.832813 35.416562 
L 537.832813 35.416562 
L 547.832813 35.416562 
" style="fill: none; stroke-dasharray: 5.55,2.4; stroke-dashoffset: 0; stroke: #008000; stroke-width: 1.5"/>
    </g>
    <g id="text_20">
     <!-- Target -->
     <g transform="translate(555.832813 38.916562) scale(0.1 -0.1)">
      <use xlink:href="#DejaVuSans-54"/>
      <use xlink:href="#DejaVuSans-61" transform="translate(44.583984 0)"/>
      <use xlink:href="#DejaVuSans-72" transform="translate(105.863281 0)"/>
      <use xlink:href="#DejaVuSans-67" transform="translate(145.226562 0)"/>
      <use xlink:href="#DejaVuSans-65" transform="translate(208.703125 0)"/>
      <use xlink:href="#DejaVuSans-74" transform="translate(270.226562 0)"/>
     </g>
    </g>
    <g id="line2d_36">
     <path d="M 527.832813 50.094687 
L 537.832813 50.094687 
L 547.832813 50.094687 
" style="fill: none; stroke: #ff0000; stroke-width: 1.5; stroke-linecap: square"/>
    </g>
    <g id="text_21">
     <!-- Prediction -->
     <g transform="translate(555.832813 53.594687) scale(0.1 -0.1)">
      <use xlink:href="#DejaVuSans-50"/>
      <use xlink:href="#DejaVuSans-72" transform="translate(58.552734 0)"/>
      <use xlink:href="#DejaVuSans-65" transform="translate(97.416016 0)"/>
      <use xlink:href="#DejaVuSans-64" transform="translate(158.939453 0)"/>
      <use xlink:href="#DejaVuSans-69" transform="translate(222.416016 0)"/>
      <use xlink:href="#DejaVuSans-63" transform="translate(250.199219 0)"/>
      <use xlink:href="#DejaVuSans-74" transform="translate(305.179688 0)"/>
      <use xlink:href="#DejaVuSans-69" transform="translate(344.388672 0)"/>
      <use xlink:href="#DejaVuSans-6f" transform="translate(372.171875 0)"/>
      <use xlink:href="#DejaVuSans-6e" transform="translate(433.353516 0)"/>
     </g>
    </g>
   </g>
  </g>
 </g>
 <defs>
  <clipPath id="pf498987d96">
   <rect x="56.50625" y="22.318125" width="558" height="221.76"/>
  </clipPath>
 </defs>
</svg>
