<?xml version="1.0" encoding="utf-8" standalone="no"?>
<!DOCTYPE svg PUBLIC "-//W3C//DTD SVG 1.1//EN"
  "http://www.w3.org/Graphics/SVG/1.1/DTD/svg11.dtd">
<svg xmlns:xlink="http://www.w3.org/1999/xlink" width="615.34375pt" height="281.634375pt" viewBox="0 0 615.34375 281.634375" xmlns="http://www.w3.org/2000/svg" version="1.1">
 <metadata>
  <rdf:RDF xmlns:dc="http://purl.org/dc/elements/1.1/" xmlns:cc="http://creativecommons.org/ns#" xmlns:rdf="http://www.w3.org/1999/02/22-rdf-syntax-ns#">
   <cc:Work>
    <dc:type rdf:resource="http://purl.org/dc/dcmitype/StillImage"/>
    <dc:date>2026-03-19T17:22:46.039414</dc:date>
    <dc:format>image/svg+xml</dc:format>
    <dc:creator>
     <cc:Agent>
      <dc:title>Matplotlib v3.10.8, https://matplotlib.org/</dc:title>
     </cc:Agent>
    </dc:creator>
   </cc:Work>
  </rdf:RDF>
 </metadata>
 <defs>
  <style type="text/css">*{stroke-linejoin: round; stroke-linecap: butt}</style>
 </defs>
 <g id="figure_1">
  <g id="patch_1">
   <path d="M 0 281.634375 
L 615.34375 281.634375 
L 615.34375 0 
L 0 0 
z
" style="fill: #ffffff"/>
  </g>
  <g id="axes_1">
   <g id="patch_2">
    <path d="M 50.14375 244.078125 
L 608.14375 244.078125 
L 608.14375 22.318125 
L 50.14375 22.318125 
z
" style="fill: #ffffff"/>
   </g>
   <g id="matplotlib.axis_1">
    <g id="xtick_1">
     <g id="line2d_1">
      <path d="M 75.507386 244.078125 
L 75.507386 22.318125 
" clip-path="url(#pbf3f9ca853)" style="fill: none; stroke: #b0b0b0; stroke-opacity: 0.3; stroke-width: 0.8; stroke-linecap: square"/>
     </g>
     <g id="line2d_2">
      <defs>
       <path id="m71d8d88eaf" d="M 0 0 
L 0 3.5 
" style="stroke: #000000; stroke-width: 0.8"/>
      </defs>
      <g>
       <use xlink:href="#m71d8d88eaf" x="75.507386" y="244.078125" style="stroke: #000000; stroke-width: 0.8"/>
      </g>
     </g>
     <g id="text_1">
      <!-- 0 -->
      <g transform="translate(72.326136 258.676562) scale(0.1 -0.1)">
       <defs>
        <path id="DejaVuSans-30" d="M 2034 4250 
Q 1547 4250 1301 3770 
Q 1056 3291 1056 2328 
Q 1056 1369 1301 889 
Q 1547 409 2034 409 
Q 2525 409 2770 889 
Q 3016 1369 3016 2328 
Q 3016 3291 2770 3770 
Q 2525 4250 2034 4250 
z
M 2034 4750 
Q 2819 4750 3233 4129 
Q 3647 3509 3647 2328 
Q 3647 1150 3233 529 
Q 2819 -91 2034 -91 
Q 1250 -91 836 529 
Q 422 1150 422 2328 
Q 422 3509 836 4129 
Q 1250 4750 2034 4750 
z
" transform="scale(0.015625)"/>
       </defs>
       <use xlink:href="#DejaVuSans-30"/>
      </g>
     </g>
    </g>
    <g id="xtick_2">
     <g id="line2d_3">
      <path d="M 160.62026 244.078125 
L 160.62026 22.318125 
" clip-path="url(#pbf3f9ca853)" style="fill: none; stroke: #b0b0b0; stroke-opacity: 0.3; stroke-width: 0.8; stroke-linecap: square"/>
     </g>
     <g id="line2d_4">
      <g>
       <use xlink:href="#m71d8d88eaf" x="160.62026" y="244.078125" style="stroke: #000000; stroke-width: 0.8"/>
      </g>
     </g>
     <g id="text_2">
      <!-- 50 -->
      <g transform="translate(154.25776 258.676562) scale(0.1 -0.1)">
       <defs>
        <path id="DejaVuSans-35" d="M 691 4666 
L 3169 4666 
L 3169 4134 
L 1269 4134 
L 1269 2991 
Q 1406 3038 1543 3061 
Q 1681 3084 1819 3084 
Q 2600 3084 3056 2656 
Q 3513 2228 3513 1497 
Q 3513 744 3044 326 
Q 2575 -91 1722 -91 
Q 1428 -91 1123 -41 
Q 819 9 494 109 
L 494 744 
Q 775 591 1075 516 
Q 1375 441 1709 441 
Q 2250 441 2565 725 
Q 2881 1009 2881 1497 
Q 2881 1984 2565 2268 
Q 2250 2553 1709 2553 
Q 1456 2553 1204 2497 
Q 953 2441 691 2322 
L 691 4666 
z
" transform="scale(0.015625)"/>
       </defs>
       <use xlink:href="#DejaVuSans-35"/>
       <use xlink:href="#DejaVuSans-30" transform="translate(63.623047 0)"/>
      </g>
     </g>
    </g>
    <g id="xtick_3">
     <g id="line2d_5">
      <path d="M 245.733134 244.078125 
L 245.733134 22.318125 
" clip-path="url(#pbf3f9ca853)" style="fill: none; stroke: #b0b0b0; stroke-opacity: 0.3; stroke-width: 0.8; stroke-linecap: square"/>
     </g>
     <g id="line2d_6">
      <g>
       <use xlink:href="#m71d8d88eaf" x="245.733134" y="244.078125" style="stroke: #000000; stroke-width: 0.8"/>
      </g>
     </g>
     <g id="text_3">
      <!-- 100 -->
      <g transform="translate(236.189384 258.676562) scale(0.1 -0.1)">
       <defs>
        <path id="DejaVuSans-31" d="M 794 531 
L 1825 531 
L 1825 4091 
L 703 3866 
L 703 4441 
L 1819 4666 
L 2450 4666 
L 2450 531 
L 3481 531 
L 3481 0 
L 794 0 
L 794 531 
z
" transform="scale(0.015625)"/>
       </defs>
       <use xlink:href="#DejaVuSans-31"/>
       <use xlink:href="#DejaVuSans-30" transform="translate(63.623047 0)"/>
       <use xlink:href="#DejaVuSans-30" transform="translate(127.246094 0)"/>
      </g>
     </g>
    </g>
    <g id="xtick_4">
     <g id="line2d_7">
      <path d="M 330.846007 244.078125 
L 330.846007 22.318125 
" clip-path="url(#pbf3f9ca853)" style="fill: none; stroke: #b0b0b0; stroke-opacity: 0.3; stroke-width: 0.8; stroke-linecap: square"/>
     </g>
     <g id="line2d_8">
      <g>
       <use xlink:href="#m71d8d88eaf" x="330.846007" y="244.078125" style="stroke: #000000; stroke-width: 0.8"/>
      </g>
     </g>
     <g id="text_4">
      <!-- 150 -->
      <g transform="translate(321.302257 258.676562) scale(0.1 -0.1)">
       <use xlink:href="#DejaVuSans-31"/>
       <use xlink:href="#DejaVuSans-35" transform="translate(63.623047 0)"/>
       <use xlink:href="#DejaVuSans-30" transform="translate(127.246094 0)"/>
      </g>
     </g>
    </g>
    <g id="xtick_5">
     <g id="line2d_9">
      <path d="M 415.958881 244.078125 
L 415.958881 22.318125 
" clip-path="url(#pbf3f9ca853)" style="fill: none; stroke: #b0b0b0; stroke-opacity: 0.3; stroke-width: 0.8; stroke-linecap: square"/>
     </g>
     <g id="line2d_10">
      <g>
       <use xlink:href="#m71d8d88eaf" x="415.958881" y="244.078125" style="stroke: #000000; stroke-width: 0.8"/>
      </g>
     </g>
     <g id="text_5">
      <!-- 200 -->
      <g transform="translate(406.415131 258.676562) scale(0.1 -0.1)">
       <defs>
        <path id="DejaVuSans-32" d="M 1228 531 
L 3431 531 
L 3431 0 
L 469 0 
L 469 531 
Q 828 903 1448 1529 
Q 2069 2156 2228 2338 
Q 2531 2678 2651 2914 
Q 2772 3150 2772 3378 
Q 2772 3750 2511 3984 
Q 2250 4219 1831 4219 
Q 1534 4219 1204 4116 
Q 875 4013 500 3803 
L 500 4441 
Q 881 4594 1212 4672 
Q 1544 4750 1819 4750 
Q 2544 4750 2975 4387 
Q 3406 4025 3406 3419 
Q 3406 3131 3298 2873 
Q 3191 2616 2906 2266 
Q 2828 2175 2409 1742 
Q 1991 1309 1228 531 
z
" transform="scale(0.015625)"/>
       </defs>
       <use xlink:href="#DejaVuSans-32"/>
       <use xlink:href="#DejaVuSans-30" transform="translate(63.623047 0)"/>
       <use xlink:href="#DejaVuSans-30" transform="translate(127.246094 0)"/>
      </g>
     </g>
    </g>
    <g id="xtick_6">
     <g id="line2d_11">
      <path d="M 501.071755 244.078125 
L 501.071755 22.318125 
" clip-path="url(#pbf3f9ca853)" style="fill: none; stroke: #b0b0b0; stroke-opacity: 0.3; stroke-width: 0.8; stroke-linecap: square"/>
     </g>
     <g id="line2d_12">
      <g>
       <use xlink:href="#m71d8d88eaf" x="501.071755" y="244.078125" style="stroke: #000000; stroke-width: 0.8"/>
      </g>
     </g>
     <g id="text_6">
      <!-- 250 -->
      <g transform="translate(491.528005 258.676562) scale(0.1 -0.1)">
       <use xlink:href="#DejaVuSans-32"/>
       <use xlink:href="#DejaVuSans-35" transform="translate(63.623047 0)"/>
       <use xlink:href="#DejaVuSans-30" transform="translate(127.246094 0)"/>
      </g>
     </g>
    </g>
    <g id="xtick_7">
     <g id="line2d_13">
      <path d="M 586.184629 244.078125 
L 586.184629 22.318125 
" clip-path="url(#pbf3f9ca853)" style="fill: none; stroke: #b0b0b0; stroke-opacity: 0.3; stroke-width: 0.8; stroke-linecap: square"/>
     </g>
     <g id="line2d_14">
      <g>
       <use xlink:href="#m71d8d88eaf" x="586.184629" y="244.078125" style="stroke: #000000; stroke-width: 0.8"/>
      </g>
     </g>
     <g id="text_7">
      <!-- 300 -->
      <g transform="translate(576.640879 258.676562) scale(0.1 -0.1)">
       <defs>
        <path id="DejaVuSans-33" d="M 2597 2516 
Q 3050 2419 3304 2112 
Q 3559 1806 3559 1356 
Q 3559 666 3084 287 
Q 2609 -91 1734 -91 
Q 1441 -91 1130 -33 
Q 819 25 488 141 
L 488 750 
Q 750 597 1062 519 
Q 1375 441 1716 441 
Q 2309 441 2620 675 
Q 2931 909 2931 1356 
Q 2931 1769 2642 2001 
Q 2353 2234 1838 2234 
L 1294 2234 
L 1294 2753 
L 1863 2753 
Q 2328 2753 2575 2939 
Q 2822 3125 2822 3475 
Q 2822 3834 2567 4026 
Q 2313 4219 1838 4219 
Q 1578 4219 1281 4162 
Q 984 4106 628 3988 
L 628 4550 
Q 988 4650 1302 4700 
Q 1616 4750 1894 4750 
Q 2613 4750 3031 4423 
Q 3450 4097 3450 3541 
Q 3450 3153 3228 2886 
Q 3006 2619 2597 2516 
z
" transform="scale(0.015625)"/>
       </defs>
       <use xlink:href="#DejaVuSans-33"/>
       <use xlink:href="#DejaVuSans-30" transform="translate(63.623047 0)"/>
       <use xlink:href="#DejaVuSans-30" transform="translate(127.246094 0)"/>
      </g>
     </g>
    </g>
    <g id="text_8">
     <!-- Time Steps -->
     <g transform="translate(301.33125 272.354687) scale(0.1 -0.1)">
      <defs>
       <path id="DejaVuSans-54" d="M -19 4666 
L 3928 4666 
L 3928 4134 
L 2272 4134 
L 2272 0 
L 1638 0 
L 1638 4134 
L -19 4134 
L -19 4666 
z
" transform="scale(0.015625)"/>
       <path id="DejaVuSans-69" d="M 603 3500 
L 1178 3500 
L 1178 0 
L 603 0 
L 603 3500 
z
M 603 4863 
L 1178 4863 
L 1178 4134 
L 603 4134 
L 603 4863 
z
" transform="scale(0.015625)"/>
       <path id="DejaVuSans-6d" d="M 3328 2828 
Q 3544 3216 3844 3400 
Q 4144 3584 4550 3584 
Q 5097 3584 5394 3201 
Q 5691 2819 5691 2113 
L 5691 0 
L 5113 0 
L 5113 2094 
Q 5113 2597 4934 2840 
Q 4756 3084 4391 3084 
Q 3944 3084 3684 2787 
Q 3425 2491 3425 1978 
L 3425 0 
L 2847 0 
L 2847 2094 
Q 2847 2600 2669 2842 
Q 2491 3084 2119 3084 
Q 1678 3084 1418 2786 
Q 1159 2488 1159 1978 
L 1159 0 
L 581 0 
L 581 3500 
L 1159 3500 
L 1159 2956 
Q 1356 3278 1631 3431 
Q 1906 3584 2284 3584 
Q 2666 3584 2933 3390 
Q 3200 3197 3328 2828 
z
" transform="scale(0.015625)"/>
       <path id="DejaVuSans-65" d="M 3597 1894 
L 3597 1613 
L 953 1613 
Q 991 1019 1311 708 
Q 1631 397 2203 397 
Q 2534 397 2845 478 
Q 3156 559 3463 722 
L 3463 178 
Q 3153 47 2828 -22 
Q 2503 -91 2169 -91 
Q 1331 -91 842 396 
Q 353 884 353 1716 
Q 353 2575 817 3079 
Q 1281 3584 2069 3584 
Q 2775 3584 3186 3129 
Q 3597 2675 3597 1894 
z
M 3022 2063 
Q 3016 2534 2758 2815 
Q 2500 3097 2075 3097 
Q 1594 3097 1305 2825 
Q 1016 2553 972 2059 
L 3022 2063 
z
" transform="scale(0.015625)"/>
       <path id="DejaVuSans-20" transform="scale(0.015625)"/>
       <path id="DejaVuSans-53" d="M 3425 4513 
L 3425 3897 
Q 3066 4069 2747 4153 
Q 2428 4238 2131 4238 
Q 1616 4238 1336 4038 
Q 1056 3838 1056 3469 
Q 1056 3159 1242 3001 
Q 1428 2844 1947 2747 
L 2328 2669 
Q 3034 2534 3370 2195 
Q 3706 1856 3706 1288 
Q 3706 609 3251 259 
Q 2797 -91 1919 -91 
Q 1588 -91 1214 -16 
Q 841 59 441 206 
L 441 856 
Q 825 641 1194 531 
Q 1563 422 1919 422 
Q 2459 422 2753 634 
Q 3047 847 3047 1241 
Q 3047 1584 2836 1778 
Q 2625 1972 2144 2069 
L 1759 2144 
Q 1053 2284 737 2584 
Q 422 2884 422 3419 
Q 422 4038 858 4394 
Q 1294 4750 2059 4750 
Q 2388 4750 2728 4690 
Q 3069 4631 3425 4513 
z
" transform="scale(0.015625)"/>
       <path id="DejaVuSans-74" d="M 1172 4494 
L 1172 3500 
L 2356 3500 
L 2356 3053 
L 1172 3053 
L 1172 1153 
Q 1172 725 1289 603 
Q 1406 481 1766 481 
L 2356 481 
L 2356 0 
L 1766 0 
Q 1100 0 847 248 
Q 594 497 594 1153 
L 594 3053 
L 172 3053 
L 172 3500 
L 594 3500 
L 594 4494 
L 1172 4494 
z
" transform="scale(0.015625)"/>
       <path id="DejaVuSans-70" d="M 1159 525 
L 1159 -1331 
L 581 -1331 
L 581 3500 
L 1159 3500 
L 1159 2969 
Q 1341 3281 1617 3432 
Q 1894 3584 2278 3584 
Q 2916 3584 3314 3078 
Q 3713 2572 3713 1747 
Q 3713 922 3314 415 
Q 2916 -91 2278 -91 
Q 1894 -91 1617 61 
Q 1341 213 1159 525 
z
M 3116 1747 
Q 3116 2381 2855 2742 
Q 2594 3103 2138 3103 
Q 1681 3103 1420 2742 
Q 1159 2381 1159 1747 
Q 1159 1113 1420 752 
Q 1681 391 2138 391 
Q 2594 391 2855 752 
Q 3116 1113 3116 1747 
z
" transform="scale(0.015625)"/>
       <path id="DejaVuSans-73" d="M 2834 3397 
L 2834 2853 
Q 2591 2978 2328 3040 
Q 2066 3103 1784 3103 
Q 1356 3103 1142 2972 
Q 928 2841 928 2578 
Q 928 2378 1081 2264 
Q 1234 2150 1697 2047 
L 1894 2003 
Q 2506 1872 2764 1633 
Q 3022 1394 3022 966 
Q 3022 478 2636 193 
Q 2250 -91 1575 -91 
Q 1294 -91 989 -36 
Q 684 19 347 128 
L 347 722 
Q 666 556 975 473 
Q 1284 391 1588 391 
Q 1994 391 2212 530 
Q 2431 669 2431 922 
Q 2431 1156 2273 1281 
Q 2116 1406 1581 1522 
L 1381 1569 
Q 847 1681 609 1914 
Q 372 2147 372 2553 
Q 372 3047 722 3315 
Q 1072 3584 1716 3584 
Q 2034 3584 2315 3537 
Q 2597 3491 2834 3397 
z
" transform="scale(0.015625)"/>
      </defs>
      <use xlink:href="#DejaVuSans-54"/>
      <use xlink:href="#DejaVuSans-69" transform="translate(57.958984 0)"/>
      <use xlink:href="#DejaVuSans-6d" transform="translate(85.742188 0)"/>
      <use xlink:href="#DejaVuSans-65" transform="translate(183.154297 0)"/>
      <use xlink:href="#DejaVuSans-20" transform="translate(244.677734 0)"/>
      <use xlink:href="#DejaVuSans-53" transform="translate(276.464844 0)"/>
      <use xlink:href="#DejaVuSans-74" transform="translate(339.941406 0)"/>
      <use xlink:href="#DejaVuSans-65" transform="translate(379.150391 0)"/>
      <use xlink:href="#DejaVuSans-70" transform="translate(440.673828 0)"/>
      <use xlink:href="#DejaVuSans-73" transform="translate(504.150391 0)"/>
     </g>
    </g>
   </g>
   <g id="matplotlib.axis_2">
    <g id="ytick_1">
     <g id="line2d_15">
      <path d="M 50.14375 229.769739 
L 608.14375 229.769739 
" clip-path="url(#pbf3f9ca853)" style="fill: none; stroke: #b0b0b0; stroke-opacity: 0.3; stroke-width: 0.8; stroke-linecap: square"/>
     </g>
     <g id="line2d_16">
      <defs>
       <path id="m83ea632998" d="M 0 0 
L -3.5 0 
" style="stroke: #000000; stroke-width: 0.8"/>
      </defs>
      <g>
       <use xlink:href="#m83ea632998" x="50.14375" y="229.769739" style="stroke: #000000; stroke-width: 0.8"/>
      </g>
     </g>
     <g id="text_9">
      <!-- 0.18 -->
      <g transform="translate(20.878125 233.568957) scale(0.1 -0.1)">
       <defs>
        <path id="DejaVuSans-2e" d="M 684 794 
L 1344 794 
L 1344 0 
L 684 0 
L 684 794 
z
" transform="scale(0.015625)"/>
        <path id="DejaVuSans-38" d="M 2034 2216 
Q 1584 2216 1326 1975 
Q 1069 1734 1069 1313 
Q 1069 891 1326 650 
Q 1584 409 2034 409 
Q 2484 409 2743 651 
Q 3003 894 3003 1313 
Q 3003 1734 2745 1975 
Q 2488 2216 2034 2216 
z
M 1403 2484 
Q 997 2584 770 2862 
Q 544 3141 544 3541 
Q 544 4100 942 4425 
Q 1341 4750 2034 4750 
Q 2731 4750 3128 4425 
Q 3525 4100 3525 3541 
Q 3525 3141 3298 2862 
Q 3072 2584 2669 2484 
Q 3125 2378 3379 2068 
Q 3634 1759 3634 1313 
Q 3634 634 3220 271 
Q 2806 -91 2034 -91 
Q 1263 -91 848 271 
Q 434 634 434 1313 
Q 434 1759 690 2068 
Q 947 2378 1403 2484 
z
M 1172 3481 
Q 1172 3119 1398 2916 
Q 1625 2713 2034 2713 
Q 2441 2713 2670 2916 
Q 2900 3119 2900 3481 
Q 2900 3844 2670 4047 
Q 2441 4250 2034 4250 
Q 1625 4250 1398 4047 
Q 1172 3844 1172 3481 
z
" transform="scale(0.015625)"/>
       </defs>
       <use xlink:href="#DejaVuSans-30"/>
       <use xlink:href="#DejaVuSans-2e" transform="translate(63.623047 0)"/>
       <use xlink:href="#DejaVuSans-31" transform="translate(95.410156 0)"/>
       <use xlink:href="#DejaVuSans-38" transform="translate(159.033203 0)"/>
      </g>
     </g>
    </g>
    <g id="ytick_2">
     <g id="line2d_17">
      <path d="M 50.14375 183.237229 
L 608.14375 183.237229 
" clip-path="url(#pbf3f9ca853)" style="fill: none; stroke: #b0b0b0; stroke-opacity: 0.3; stroke-width: 0.8; stroke-linecap: square"/>
     </g>
     <g id="line2d_18">
      <g>
       <use xlink:href="#m83ea632998" x="50.14375" y="183.237229" style="stroke: #000000; stroke-width: 0.8"/>
      </g>
     </g>
     <g id="text_10">
      <!-- 0.20 -->
      <g transform="translate(20.878125 187.036448) scale(0.1 -0.1)">
       <use xlink:href="#DejaVuSans-30"/>
       <use xlink:href="#DejaVuSans-2e" transform="translate(63.623047 0)"/>
       <use xlink:href="#DejaVuSans-32" transform="translate(95.410156 0)"/>
       <use xlink:href="#DejaVuSans-30" transform="translate(159.033203 0)"/>
      </g>
     </g>
    </g>
    <g id="ytick_3">
     <g id="line2d_19">
      <path d="M 50.14375 136.704719 
L 608.14375 136.704719 
" clip-path="url(#pbf3f9ca853)" style="fill: none; stroke: #b0b0b0; stroke-opacity: 0.3; stroke-width: 0.8; stroke-linecap: square"/>
     </g>
     <g id="line2d_20">
      <g>
       <use xlink:href="#m83ea632998" x="50.14375" y="136.704719" style="stroke: #000000; stroke-width: 0.8"/>
      </g>
     </g>
     <g id="text_11">
      <!-- 0.22 -->
      <g transform="translate(20.878125 140.503938) scale(0.1 -0.1)">
       <use xlink:href="#DejaVuSans-30"/>
       <use xlink:href="#DejaVuSans-2e" transform="translate(63.623047 0)"/>
       <use xlink:href="#DejaVuSans-32" transform="translate(95.410156 0)"/>
       <use xlink:href="#DejaVuSans-32" transform="translate(159.033203 0)"/>
      </g>
     </g>
    </g>
    <g id="ytick_4">
     <g id="line2d_21">
      <path d="M 50.14375 90.17221 
L 608.14375 90.17221 
" clip-path="url(#pbf3f9ca853)" style="fill: none; stroke: #b0b0b0; stroke-opacity: 0.3; stroke-width: 0.8; stroke-linecap: square"/>
     </g>
     <g id="line2d_22">
      <g>
       <use xlink:href="#m83ea632998" x="50.14375" y="90.17221" style="stroke: #000000; stroke-width: 0.8"/>
      </g>
     </g>
     <g id="text_12">
      <!-- 0.24 -->
      <g transform="translate(20.878125 93.971428) scale(0.1 -0.1)">
       <defs>
        <path id="DejaVuSans-34" d="M 2419 4116 
L 825 1625 
L 2419 1625 
L 2419 4116 
z
M 2253 4666 
L 3047 4666 
L 3047 1625 
L 3713 1625 
L 3713 1100 
L 3047 1100 
L 3047 0 
L 2419 0 
L 2419 1100 
L 313 1100 
L 313 1709 
L 2253 4666 
z
" transform="scale(0.015625)"/>
       </defs>
       <use xlink:href="#DejaVuSans-30"/>
       <use xlink:href="#DejaVuSans-2e" transform="translate(63.623047 0)"/>
       <use xlink:href="#DejaVuSans-32" transform="translate(95.410156 0)"/>
       <use xlink:href="#DejaVuSans-34" transform="translate(159.033203 0)"/>
      </g>
     </g>
    </g>
    <g id="ytick_5">
     <g id="line2d_23">
      <path d="M 50.14375 43.6397 
L 608.14375 43.6397 
" clip-path="url(#pbf3f9ca853)" style="fill: none; stroke: #b0b0b0; stroke-opacity: 0.3; stroke-width: 0.8; stroke-linecap: square"/>
     </g>
     <g id="line2d_24">
      <g>
       <use xlink:href="#m83ea632998" x="50.14375" y="43.6397" style="stroke: #000000; stroke-width: 0.8"/>
      </g>
     </g>
     <g id="text_13">
      <!-- 0.26 -->
      <g transform="translate(20.878125 47.438919) scale(0.1 -0.1)">
       <defs>
        <path id="DejaVuSans-36" d="M 2113 2584 
Q 1688 2584 1439 2293 
Q 1191 2003 1191 1497 
Q 1191 994 1439 701 
Q 1688 409 2113 409 
Q 2538 409 2786 701 
Q 3034 994 3034 1497 
Q 3034 2003 2786 2293 
Q 2538 2584 2113 2584 
z
M 3366 4563 
L 3366 3988 
Q 3128 4100 2886 4159 
Q 2644 4219 2406 4219 
Q 1781 4219 1451 3797 
Q 1122 3375 1075 2522 
Q 1259 2794 1537 2939 
Q 1816 3084 2150 3084 
Q 2853 3084 3261 2657 
Q 3669 2231 3669 1497 
Q 3669 778 3244 343 
Q 2819 -91 2113 -91 
Q 1303 -91 875 529 
Q 447 1150 447 2328 
Q 447 3434 972 4092 
Q 1497 4750 2381 4750 
Q 2619 4750 2861 4703 
Q 3103 4656 3366 4563 
z
" transform="scale(0.015625)"/>
       </defs>
       <use xlink:href="#DejaVuSans-30"/>
       <use xlink:href="#DejaVuSans-2e" transform="translate(63.623047 0)"/>
       <use xlink:href="#DejaVuSans-32" transform="translate(95.410156 0)"/>
       <use xlink:href="#DejaVuSans-36" transform="translate(159.033203 0)"/>
      </g>
     </g>
    </g>
    <g id="text_14">
     <!-- Signal Value -->
     <g transform="translate(14.798437 163.877812) rotate(-90) scale(0.1 -0.1)">
      <defs>
       <path id="DejaVuSans-67" d="M 2906 1791 
Q 2906 2416 2648 2759 
Q 2391 3103 1925 3103 
Q 1463 3103 1205 2759 
Q 947 2416 947 1791 
Q 947 1169 1205 825 
Q 1463 481 1925 481 
Q 2391 481 2648 825 
Q 2906 1169 2906 1791 
z
M 3481 434 
Q 3481 -459 3084 -895 
Q 2688 -1331 1869 -1331 
Q 1566 -1331 1297 -1286 
Q 1028 -1241 775 -1147 
L 775 -588 
Q 1028 -725 1275 -790 
Q 1522 -856 1778 -856 
Q 2344 -856 2625 -561 
Q 2906 -266 2906 331 
L 2906 616 
Q 2728 306 2450 153 
Q 2172 0 1784 0 
Q 1141 0 747 490 
Q 353 981 353 1791 
Q 353 2603 747 3093 
Q 1141 3584 1784 3584 
Q 2172 3584 2450 3431 
Q 2728 3278 2906 2969 
L 2906 3500 
L 3481 3500 
L 3481 434 
z
" transform="scale(0.015625)"/>
       <path id="DejaVuSans-6e" d="M 3513 2113 
L 3513 0 
L 2938 0 
L 2938 2094 
Q 2938 2591 2744 2837 
Q 2550 3084 2163 3084 
Q 1697 3084 1428 2787 
Q 1159 2491 1159 1978 
L 1159 0 
L 581 0 
L 581 3500 
L 1159 3500 
L 1159 2956 
Q 1366 3272 1645 3428 
Q 1925 3584 2291 3584 
Q 2894 3584 3203 3211 
Q 3513 2838 3513 2113 
z
" transform="scale(0.015625)"/>
       <path id="DejaVuSans-61" d="M 2194 1759 
Q 1497 1759 1228 1600 
Q 959 1441 959 1056 
Q 959 750 1161 570 
Q 1363 391 1709 391 
Q 2188 391 2477 730 
Q 2766 1069 2766 1631 
L 2766 1759 
L 2194 1759 
z
M 3341 1997 
L 3341 0 
L 2766 0 
L 2766 531 
Q 2569 213 2275 61 
Q 1981 -91 1556 -91 
Q 1019 -91 701 211 
Q 384 513 384 1019 
Q 384 1609 779 1909 
Q 1175 2209 1959 2209 
L 2766 2209 
L 2766 2266 
Q 2766 2663 2505 2880 
Q 2244 3097 1772 3097 
Q 1472 3097 1187 3025 
Q 903 2953 641 2809 
L 641 3341 
Q 956 3463 1253 3523 
Q 1550 3584 1831 3584 
Q 2591 3584 2966 3190 
Q 3341 2797 3341 1997 
z
" transform="scale(0.015625)"/>
       <path id="DejaVuSans-6c" d="M 603 4863 
L 1178 4863 
L 1178 0 
L 603 0 
L 603 4863 
z
" transform="scale(0.015625)"/>
       <path id="DejaVuSans-56" d="M 1831 0 
L 50 4666 
L 709 4666 
L 2188 738 
L 3669 4666 
L 4325 4666 
L 2547 0 
L 1831 0 
z
" transform="scale(0.015625)"/>
       <path id="DejaVuSans-75" d="M 544 1381 
L 544 3500 
L 1119 3500 
L 1119 1403 
Q 1119 906 1312 657 
Q 1506 409 1894 409 
Q 2359 409 2629 706 
Q 2900 1003 2900 1516 
L 2900 3500 
L 3475 3500 
L 3475 0 
L 2900 0 
L 2900 538 
Q 2691 219 2414 64 
Q 2138 -91 1772 -91 
Q 1169 -91 856 284 
Q 544 659 544 1381 
z
M 1991 3584 
L 1991 3584 
z
" transform="scale(0.015625)"/>
      </defs>
      <use xlink:href="#DejaVuSans-53"/>
      <use xlink:href="#DejaVuSans-69" transform="translate(63.476562 0)"/>
      <use xlink:href="#DejaVuSans-67" transform="translate(91.259766 0)"/>
      <use xlink:href="#DejaVuSans-6e" transform="translate(154.736328 0)"/>
      <use xlink:href="#DejaVuSans-61" transform="translate(218.115234 0)"/>
      <use xlink:href="#DejaVuSans-6c" transform="translate(279.394531 0)"/>
      <use xlink:href="#DejaVuSans-20" transform="translate(307.177734 0)"/>
      <use xlink:href="#DejaVuSans-56" transform="translate(338.964844 0)"/>
      <use xlink:href="#DejaVuSans-61" transform="translate(399.623047 0)"/>
      <use xlink:href="#DejaVuSans-6c" transform="translate(460.902344 0)"/>
      <use xlink:href="#DejaVuSans-75" transform="translate(488.685547 0)"/>
      <use xlink:href="#DejaVuSans-65" transform="translate(552.064453 0)"/>
     </g>
    </g>
   </g>
   <g id="line2d_25">
    <path d="M 75.507386 187.327175 
L 77.209644 175.382988 
L 78.911901 169.054645 
L 80.614159 168.805419 
L 82.316416 172.677375 
L 84.018674 167.592702 
L 85.720931 145.524134 
L 87.423189 128.782713 
L 89.125446 118.764807 
L 90.827704 111.501493 
L 92.529961 111.934127 
L 94.232219 117.7345 
L 97.636734 165.020268 
L 99.338991 180.217776 
L 101.041248 189.610311 
L 102.743506 195.332897 
L 104.445763 198.614339 
L 106.148021 200.243073 
L 107.850278 197.853973 
L 109.552536 179.530096 
L 111.254793 150.377552 
L 112.957051 133.106081 
L 114.659308 128.006965 
L 116.361566 132.837442 
L 118.063823 131.976991 
L 119.766081 130.174044 
L 121.468338 141.740691 
L 123.170596 151.276396 
L 124.872853 152.551413 
L 126.575111 150.044405 
L 128.277368 148.919986 
L 129.979626 161.701034 
L 131.681883 176.793698 
L 133.38414 186.969119 
L 135.086398 193.466163 
L 136.788655 197.662375 
L 138.490913 200.192132 
L 140.19317 201.58912 
L 141.895428 199.19675 
L 143.597685 178.639253 
L 145.299943 145.069366 
L 147.0022 116.279592 
L 148.704458 89.660106 
L 150.406715 76.697666 
L 152.108973 74.191801 
L 153.81123 92.683591 
L 155.513488 126.510835 
L 157.215745 150.815046 
L 158.918003 164.690266 
L 160.62026 172.805373 
L 162.322518 177.653096 
L 164.024775 183.909292 
L 165.727032 189.349217 
L 169.131547 193.552062 
L 170.833805 197.389223 
L 172.536062 199.789046 
L 174.23832 201.072557 
L 175.940577 198.260741 
L 177.642835 182.159934 
L 179.345092 160.566882 
L 181.04735 133.036902 
L 182.749607 86.70766 
L 184.451865 47.346857 
L 186.154122 32.398125 
L 187.85638 60.920567 
L 189.558637 106.448639 
L 191.260895 139.198453 
L 192.963152 161.080979 
L 194.66541 176.391476 
L 196.367667 186.484471 
L 198.069924 192.803486 
L 199.772182 195.133122 
L 201.474439 191.981362 
L 203.176697 189.743183 
L 204.878954 191.868844 
L 206.581212 193.337461 
L 208.283469 193.424893 
L 209.985727 189.240218 
L 211.687984 179.109531 
L 213.390242 171.896408 
L 215.092499 155.056664 
L 218.497014 65.909664 
L 220.199272 45.955159 
L 221.901529 67.524873 
L 223.603787 106.273242 
L 225.306044 136.49734 
L 227.008302 159.921374 
L 228.710559 177.197815 
L 230.412817 187.743477 
L 232.115074 194.207174 
L 233.817331 197.619927 
L 235.519589 194.8275 
L 237.221846 190.669769 
L 238.924104 187.681124 
L 240.626361 179.69772 
L 242.328619 170.207576 
L 244.030876 161.745922 
L 245.733134 159.58959 
L 247.435391 164.680212 
L 249.137649 160.089393 
L 250.839906 136.41859 
L 252.542164 115.192607 
L 254.244421 106.363453 
L 255.946679 114.685524 
L 257.648936 131.871368 
L 259.351194 147.022623 
L 261.053451 165.891194 
L 262.755709 181.036895 
L 264.457966 190.093229 
L 266.160223 195.661039 
L 267.862481 198.893241 
L 269.564738 198.518193 
L 271.266996 196.134935 
L 272.969253 188.229063 
L 274.671511 161.314085 
L 276.373768 128.89683 
L 278.076026 111.169641 
L 279.778283 115.230635 
L 281.480541 131.625972 
L 283.182798 138.770924 
L 284.885056 138.280484 
L 288.289571 153.170142 
L 289.991828 158.41059 
L 291.694086 161.562738 
L 293.396343 163.203036 
L 296.800858 186.272183 
L 298.503115 193.211844 
L 300.205373 197.487043 
L 301.90763 199.949068 
L 303.609888 200.867152 
L 305.312145 199.809368 
L 307.014403 191.442739 
L 308.71666 152.841988 
L 310.418918 102.913369 
L 312.121175 71.990133 
L 313.823433 65.890208 
L 315.52569 82.199742 
L 317.227948 96.177151 
L 318.930205 117.439948 
L 320.632463 145.383545 
L 322.33472 164.444849 
L 324.036978 175.690085 
L 325.739235 180.811184 
L 327.441493 181.903084 
L 330.846007 192.100884 
L 332.548265 194.740227 
L 335.95278 198.331119 
L 337.655037 199.331692 
L 339.357295 199.165383 
L 341.059552 191.575376 
L 342.76181 157.439513 
L 344.464067 115.335866 
L 346.166325 81.482935 
L 347.868582 56.392921 
L 349.57084 49.728543 
L 351.273097 58.417649 
L 352.975355 94.13268 
L 354.677612 133.352173 
L 356.37987 159.327924 
L 358.082127 176.000983 
L 359.784385 185.703577 
L 361.486642 191.110697 
L 363.188899 194.774205 
L 364.891157 195.973547 
L 366.593414 192.03467 
L 368.295672 188.623576 
L 369.997929 189.626679 
L 371.700187 191.142051 
L 373.402444 191.47044 
L 375.104702 183.247467 
L 376.806959 161.908212 
L 378.509217 145.23796 
L 380.211474 123.876546 
L 381.913732 89.616639 
L 383.615989 64.858273 
L 385.318247 60.614666 
L 387.020504 95.507907 
L 388.722762 133.825104 
L 390.425019 159.387338 
L 392.127277 176.526464 
L 393.829534 187.30479 
L 395.531791 193.906212 
L 397.234049 197.843311 
L 398.936306 198.276733 
L 400.638564 189.224847 
L 402.340821 178.500342 
L 405.745336 168.795891 
L 407.447594 164.670567 
L 409.149851 155.579062 
L 410.852109 149.868237 
L 412.554366 154.291517 
L 414.256624 150.209633 
L 415.958881 130.435693 
L 417.661139 112.55375 
L 419.363396 108.443364 
L 421.065654 128.457819 
L 422.767911 152.414359 
L 424.470169 168.954532 
L 426.172426 182.157322 
L 427.874683 190.859147 
L 429.576941 196.117274 
L 431.279198 199.314431 
L 432.981456 200.323972 
L 434.683713 192.883309 
L 436.385971 181.085155 
L 438.088228 165.710947 
L 439.790486 138.884659 
L 441.492743 114.867139 
L 443.195001 101.670618 
L 444.897258 112.243413 
L 446.599516 134.736021 
L 448.301773 146.525097 
L 450.004031 148.208164 
L 451.706288 151.736612 
L 453.408546 156.847239 
L 455.110803 165.929171 
L 456.813061 173.841829 
L 458.515318 178.363335 
L 460.217576 186.25748 
L 461.919833 193.433484 
L 463.62209 197.655945 
L 465.324348 200.200311 
L 467.026605 200.79972 
L 468.728863 196.587079 
L 470.43112 189.548575 
L 472.133378 169.616453 
L 475.537893 68.589149 
L 477.24015 45.834382 
L 478.942408 63.777327 
L 480.644665 97.75192 
L 482.346923 121.981686 
L 485.751438 162.187777 
L 487.453695 175.522318 
L 489.155953 183.7387 
L 490.85821 186.867812 
L 492.560468 185.714676 
L 494.262725 189.393163 
L 495.964982 194.141267 
L 497.66724 196.922241 
L 499.369497 198.247047 
L 501.071755 197.905759 
L 502.774012 196.131442 
L 504.47627 193.31305 
L 506.178527 176.19913 
L 509.583042 71.977756 
L 511.2853 42.67016 
L 512.987557 46.979972 
L 516.392072 98.078184 
L 518.09433 130.94225 
L 519.796587 158.254321 
L 521.498845 175.874975 
L 523.201102 186.670228 
L 524.90336 192.051662 
L 526.605617 193.18123 
L 528.307874 194.59947 
L 530.010132 195.0145 
L 533.414647 187.561435 
L 535.116904 186.289469 
L 536.819162 186.828035 
L 538.521419 186.872537 
L 540.223677 173.856239 
L 541.925934 140.680219 
L 543.628192 113.43308 
L 545.330449 92.560062 
L 547.032707 82.052954 
L 548.734964 84.053368 
L 550.437222 97.062988 
L 552.139479 130.833439 
L 553.841737 158.965389 
L 555.543994 176.397431 
L 557.246252 187.250427 
L 558.948509 193.811238 
L 560.650766 197.481882 
L 562.353024 199.368356 
L 564.055281 196.65406 
L 567.459796 164.722061 
L 569.162054 158.120928 
L 570.864311 158.307224 
L 572.566569 160.284718 
L 574.268826 152.058778 
L 575.971084 141.784263 
L 577.673341 143.374496 
L 579.375599 140.290003 
L 581.077856 130.036669 
L 582.780114 121.87415 
L 582.780114 121.87415 
" clip-path="url(#pbf3f9ca853)" style="fill: none; stroke-dasharray: 5.55,2.4; stroke-dashoffset: 0; stroke: #008000; stroke-width: 1.5"/>
   </g>
   <g id="line2d_26">
    <path d="M 75.507386 167.650227 
L 77.209644 153.13456 
L 78.911901 159.729533 
L 80.614159 162.057212 
L 82.316416 147.778931 
L 84.018674 164.679224 
L 87.423189 118.507027 
L 89.125446 108.320838 
L 90.827704 117.802258 
L 92.529961 118.465321 
L 94.232219 103.118195 
L 95.934476 140.183913 
L 99.338991 164.962266 
L 101.041248 205.473953 
L 102.743506 184.764603 
L 104.445763 233.998125 
L 106.148021 213.739554 
L 107.850278 204.889371 
L 109.552536 152.216117 
L 111.254793 108.046939 
L 112.957051 128.616434 
L 114.659308 117.737057 
L 116.361566 141.560899 
L 118.063823 112.059433 
L 119.766081 160.478578 
L 121.468338 159.059385 
L 123.170596 156.781641 
L 124.872853 157.435673 
L 126.575111 153.367533 
L 128.277368 111.888829 
L 129.979626 171.998101 
L 131.681883 158.618416 
L 133.38414 156.395499 
L 135.086398 188.722339 
L 136.788655 189.929504 
L 138.490913 189.295852 
L 140.19317 226.202567 
L 141.895428 206.178588 
L 143.597685 159.273393 
L 145.299943 121.181142 
L 147.0022 108.323818 
L 148.704458 92.984438 
L 150.406715 104.179411 
L 152.108973 123.438681 
L 153.81123 81.202916 
L 155.513488 127.418462 
L 157.215745 160.853035 
L 158.918003 166.26689 
L 160.62026 173.142482 
L 162.322518 185.277057 
L 164.024775 173.409418 
L 165.727032 183.154757 
L 167.42929 158.46538 
L 169.131547 167.805882 
L 170.833805 171.640198 
L 172.536062 203.837624 
L 174.23832 192.608901 
L 175.940577 217.643948 
L 179.345092 109.076818 
L 181.04735 98.057046 
L 182.749607 104.486291 
L 184.451865 86.793258 
L 186.154122 75.972651 
L 187.85638 95.887904 
L 189.558637 137.348494 
L 191.260895 135.880657 
L 192.963152 173.797131 
L 194.66541 184.337345 
L 196.367667 187.392233 
L 198.069924 178.712974 
L 199.772182 214.539964 
L 201.474439 173.047734 
L 203.176697 165.422544 
L 204.878954 168.952367 
L 206.581212 185.637481 
L 208.283469 180.82132 
L 209.985727 149.055672 
L 211.687984 180.651353 
L 213.390242 141.267269 
L 215.092499 111.494453 
L 216.794757 96.252888 
L 218.497014 87.587816 
L 220.199272 60.038766 
L 221.901529 89.5536 
L 223.603787 126.438964 
L 225.306044 134.808276 
L 227.008302 144.675418 
L 228.710559 190.915849 
L 230.412817 195.889705 
L 232.115074 215.748898 
L 233.817331 218.997631 
L 235.519589 172.107033 
L 237.221846 180.324976 
L 238.924104 174.570676 
L 240.626361 159.262695 
L 242.328619 155.592875 
L 244.030876 166.288869 
L 245.733134 152.294289 
L 247.435391 145.207644 
L 249.137649 159.66751 
L 250.839906 133.228925 
L 252.542164 111.193479 
L 254.244421 120.831167 
L 255.946679 116.459556 
L 257.648936 126.883532 
L 259.351194 141.007809 
L 261.053451 151.479958 
L 262.755709 173.816743 
L 264.457966 189.954212 
L 266.160223 214.050633 
L 267.862481 219.616609 
L 269.564738 208.523964 
L 271.266996 156.074651 
L 272.969253 186.577945 
L 274.671511 153.7479 
L 276.373768 116.595307 
L 278.076026 109.724165 
L 279.778283 125.932278 
L 281.480541 127.39881 
L 283.182798 126.277913 
L 284.885056 163.047554 
L 286.587313 161.180526 
L 288.289571 144.170497 
L 289.991828 148.446737 
L 291.694086 146.673049 
L 293.396343 146.567161 
L 295.098601 184.582451 
L 296.800858 182.867478 
L 298.503115 157.03031 
L 300.205373 188.518549 
L 301.90763 187.092758 
L 303.609888 224.754099 
L 305.312145 186.262557 
L 307.014403 176.092072 
L 308.71666 142.739062 
L 310.418918 104.547898 
L 312.121175 85.156901 
L 313.823433 78.643593 
L 315.52569 112.063644 
L 317.227948 101.77301 
L 318.930205 127.361584 
L 320.632463 163.906533 
L 322.33472 174.318562 
L 324.036978 176.415195 
L 325.739235 174.43569 
L 327.441493 157.563389 
L 329.14375 173.371183 
L 330.846007 186.236113 
L 332.548265 170.385391 
L 334.250522 169.139313 
L 335.95278 199.871076 
L 337.655037 202.667332 
L 339.357295 161.49083 
L 341.059552 206.235668 
L 342.76181 133.558805 
L 344.464067 106.301291 
L 346.166325 102.671653 
L 347.868582 90.500017 
L 349.57084 62.086573 
L 351.273097 103.382224 
L 352.975355 124.993299 
L 354.677612 127.732202 
L 356.37987 168.234906 
L 358.082127 179.269236 
L 359.784385 186.177907 
L 361.486642 213.98544 
L 363.188899 184.102698 
L 364.891157 193.410221 
L 366.593414 160.30279 
L 368.295672 156.813562 
L 369.997929 169.288242 
L 371.700187 196.55843 
L 373.402444 168.562408 
L 375.104702 170.946602 
L 376.806959 154.826627 
L 378.509217 133.773543 
L 380.211474 61.50188 
L 381.913732 113.001631 
L 383.615989 87.641316 
L 385.318247 67.04098 
L 387.020504 130.897109 
L 388.722762 144.705071 
L 390.425019 133.924765 
L 392.127277 190.895611 
L 395.531791 208.102536 
L 397.234049 208.264096 
L 398.936306 207.350585 
L 400.638564 169.427785 
L 402.340821 153.92076 
L 404.043079 151.215403 
L 405.745336 155.846075 
L 407.447594 147.840324 
L 409.149851 141.278573 
L 410.852109 136.787273 
L 412.554366 144.452391 
L 414.256624 127.326217 
L 415.958881 132.87523 
L 417.661139 115.025208 
L 419.363396 117.75748 
L 421.065654 126.289084 
L 422.767911 141.834264 
L 424.470169 145.884732 
L 426.172426 153.350083 
L 427.874683 191.083374 
L 429.576941 208.957692 
L 431.279198 228.092344 
L 432.981456 227.83268 
L 434.683713 170.312734 
L 436.385971 152.388161 
L 438.088228 152.77287 
L 439.790486 136.168164 
L 441.492743 106.201902 
L 443.195001 130.892659 
L 444.897258 132.089453 
L 446.599516 125.494569 
L 448.301773 137.861358 
L 450.004031 171.629671 
L 451.706288 145.272498 
L 453.408546 141.683923 
L 455.110803 145.589723 
L 456.813061 147.92758 
L 458.515318 144.83657 
L 460.217576 166.616258 
L 461.919833 162.057768 
L 463.62209 181.465574 
L 465.324348 184.490809 
L 467.026605 218.857531 
L 468.728863 212.614192 
L 470.43112 162.165978 
L 472.133378 123.693063 
L 473.835635 111.257928 
L 475.537893 92.347854 
L 477.24015 57.434203 
L 478.942408 93.63299 
L 480.644665 115.095499 
L 482.346923 134.461655 
L 484.04918 160.269865 
L 485.751438 180.952398 
L 487.453695 186.947663 
L 489.155953 177.965082 
L 490.85821 201.013252 
L 492.560468 153.513415 
L 494.262725 169.624871 
L 495.964982 187.754543 
L 497.66724 169.112041 
L 499.369497 161.311793 
L 501.071755 200.133765 
L 504.47627 166.059673 
L 506.178527 144.717395 
L 507.880785 114.603849 
L 509.583042 87.609404 
L 511.2853 69.424403 
L 512.987557 76.518727 
L 514.689815 104.421518 
L 516.392072 114.603386 
L 518.09433 129.42071 
L 519.796587 162.207042 
L 521.498845 176.946855 
L 523.201102 195.366503 
L 524.90336 204.050059 
L 526.605617 202.289895 
L 528.307874 186.863199 
L 530.010132 188.524923 
L 531.712389 151.978461 
L 533.414647 163.404984 
L 535.116904 181.767509 
L 536.819162 191.712808 
L 538.521419 164.536943 
L 540.223677 164.963263 
L 541.925934 141.294037 
L 543.628192 105.682699 
L 545.330449 66.705858 
L 547.032707 107.627719 
L 548.734964 101.034834 
L 550.437222 88.020622 
L 552.139479 142.776606 
L 553.841737 162.340956 
L 555.543994 179.772967 
L 557.246252 219.265182 
L 558.948509 214.636673 
L 560.650766 214.843619 
L 562.353024 212.651456 
L 564.055281 195.914193 
L 565.757539 164.05618 
L 567.459796 151.625711 
L 569.162054 159.483291 
L 572.566569 152.738977 
L 574.268826 143.823354 
L 575.971084 146.428359 
L 577.673341 155.178624 
L 579.375599 127.364953 
L 581.077856 150.6159 
L 582.780114 136.337274 
L 582.780114 136.337274 
" clip-path="url(#pbf3f9ca853)" style="fill: none; stroke: #ff0000; stroke-width: 1.5; stroke-linecap: square"/>
   </g>
   <g id="patch_3">
    <path d="M 50.14375 244.078125 
L 50.14375 22.318125 
" style="fill: none; stroke: #000000; stroke-width: 0.8; stroke-linejoin: miter; stroke-linecap: square"/>
   </g>
   <g id="patch_4">
    <path d="M 608.14375 244.078125 
L 608.14375 22.318125 
" style="fill: none; stroke: #000000; stroke-width: 0.8; stroke-linejoin: miter; stroke-linecap: square"/>
   </g>
   <g id="patch_5">
    <path d="M 50.14375 244.078125 
L 608.14375 244.078125 
" style="fill: none; stroke: #000000; stroke-width: 0.8; stroke-linejoin: miter; stroke-linecap: square"/>
   </g>
   <g id="patch_6">
    <path d="M 50.14375 22.318125 
L 608.14375 22.318125 
" style="fill: none; stroke: #000000; stroke-width: 0.8; stroke-linejoin: miter; stroke-linecap: square"/>
   </g>
   <g id="text_15">
    <!-- Task Performance: NARMA2 (validation set) -->
    <g transform="translate(199.271875 16.318125) scale(0.12 -0.12)">
     <defs>
      <path id="DejaVuSans-6b" d="M 581 4863 
L 1159 4863 
L 1159 1991 
L 2875 3500 
L 3609 3500 
L 1753 1863 
L 3688 0 
L 2938 0 
L 1159 1709 
L 1159 0 
L 581 0 
L 581 4863 
z
" transform="scale(0.015625)"/>
      <path id="DejaVuSans-50" d="M 1259 4147 
L 1259 2394 
L 2053 2394 
Q 2494 2394 2734 2622 
Q 2975 2850 2975 3272 
Q 2975 3691 2734 3919 
Q 2494 4147 2053 4147 
L 1259 4147 
z
M 628 4666 
L 2053 4666 
Q 2838 4666 3239 4311 
Q 3641 3956 3641 3272 
Q 3641 2581 3239 2228 
Q 2838 1875 2053 1875 
L 1259 1875 
L 1259 0 
L 628 0 
L 628 4666 
z
" transform="scale(0.015625)"/>
      <path id="DejaVuSans-72" d="M 2631 2963 
Q 2534 3019 2420 3045 
Q 2306 3072 2169 3072 
Q 1681 3072 1420 2755 
Q 1159 2438 1159 1844 
L 1159 0 
L 581 0 
L 581 3500 
L 1159 3500 
L 1159 2956 
Q 1341 3275 1631 3429 
Q 1922 3584 2338 3584 
Q 2397 3584 2469 3576 
Q 2541 3569 2628 3553 
L 2631 2963 
z
" transform="scale(0.015625)"/>
      <path id="DejaVuSans-66" d="M 2375 4863 
L 2375 4384 
L 1825 4384 
Q 1516 4384 1395 4259 
Q 1275 4134 1275 3809 
L 1275 3500 
L 2222 3500 
L 2222 3053 
L 1275 3053 
L 1275 0 
L 697 0 
L 697 3053 
L 147 3053 
L 147 3500 
L 697 3500 
L 697 3744 
Q 697 4328 969 4595 
Q 1241 4863 1831 4863 
L 2375 4863 
z
" transform="scale(0.015625)"/>
      <path id="DejaVuSans-6f" d="M 1959 3097 
Q 1497 3097 1228 2736 
Q 959 2375 959 1747 
Q 959 1119 1226 758 
Q 1494 397 1959 397 
Q 2419 397 2687 759 
Q 2956 1122 2956 1747 
Q 2956 2369 2687 2733 
Q 2419 3097 1959 3097 
z
M 1959 3584 
Q 2709 3584 3137 3096 
Q 3566 2609 3566 1747 
Q 3566 888 3137 398 
Q 2709 -91 1959 -91 
Q 1206 -91 779 398 
Q 353 888 353 1747 
Q 353 2609 779 3096 
Q 1206 3584 1959 3584 
z
" transform="scale(0.015625)"/>
      <path id="DejaVuSans-63" d="M 3122 3366 
L 3122 2828 
Q 2878 2963 2633 3030 
Q 2388 3097 2138 3097 
Q 1578 3097 1268 2742 
Q 959 2388 959 1747 
Q 959 1106 1268 751 
Q 1578 397 2138 397 
Q 2388 397 2633 464 
Q 2878 531 3122 666 
L 3122 134 
Q 2881 22 2623 -34 
Q 2366 -91 2075 -91 
Q 1284 -91 818 406 
Q 353 903 353 1747 
Q 353 2603 823 3093 
Q 1294 3584 2113 3584 
Q 2378 3584 2631 3529 
Q 2884 3475 3122 3366 
z
" transform="scale(0.015625)"/>
      <path id="DejaVuSans-3a" d="M 750 794 
L 1409 794 
L 1409 0 
L 750 0 
L 750 794 
z
M 750 3309 
L 1409 3309 
L 1409 2516 
L 750 2516 
L 750 3309 
z
" transform="scale(0.015625)"/>
      <path id="DejaVuSans-4e" d="M 628 4666 
L 1478 4666 
L 3547 763 
L 3547 4666 
L 4159 4666 
L 4159 0 
L 3309 0 
L 1241 3903 
L 1241 0 
L 628 0 
L 628 4666 
z
" transform="scale(0.015625)"/>
      <path id="DejaVuSans-41" d="M 2188 4044 
L 1331 1722 
L 3047 1722 
L 2188 4044 
z
M 1831 4666 
L 2547 4666 
L 4325 0 
L 3669 0 
L 3244 1197 
L 1141 1197 
L 716 0 
L 50 0 
L 1831 4666 
z
" transform="scale(0.015625)"/>
      <path id="DejaVuSans-52" d="M 2841 2188 
Q 3044 2119 3236 1894 
Q 3428 1669 3622 1275 
L 4263 0 
L 3584 0 
L 2988 1197 
Q 2756 1666 2539 1819 
Q 2322 1972 1947 1972 
L 1259 1972 
L 1259 0 
L 628 0 
L 628 4666 
L 2053 4666 
Q 2853 4666 3247 4331 
Q 3641 3997 3641 3322 
Q 3641 2881 3436 2590 
Q 3231 2300 2841 2188 
z
M 1259 4147 
L 1259 2491 
L 2053 2491 
Q 2509 2491 2742 2702 
Q 2975 2913 2975 3322 
Q 2975 3731 2742 3939 
Q 2509 4147 2053 4147 
L 1259 4147 
z
" transform="scale(0.015625)"/>
      <path id="DejaVuSans-4d" d="M 628 4666 
L 1569 4666 
L 2759 1491 
L 3956 4666 
L 4897 4666 
L 4897 0 
L 4281 0 
L 4281 4097 
L 3078 897 
L 2444 897 
L 1241 4097 
L 1241 0 
L 628 0 
L 628 4666 
z
" transform="scale(0.015625)"/>
      <path id="DejaVuSans-28" d="M 1984 4856 
Q 1566 4138 1362 3434 
Q 1159 2731 1159 2009 
Q 1159 1288 1364 580 
Q 1569 -128 1984 -844 
L 1484 -844 
Q 1016 -109 783 600 
Q 550 1309 550 2009 
Q 550 2706 781 3412 
Q 1013 4119 1484 4856 
L 1984 4856 
z
" transform="scale(0.015625)"/>
      <path id="DejaVuSans-76" d="M 191 3500 
L 800 3500 
L 1894 563 
L 2988 3500 
L 3597 3500 
L 2284 0 
L 1503 0 
L 191 3500 
z
" transform="scale(0.015625)"/>
      <path id="DejaVuSans-64" d="M 2906 2969 
L 2906 4863 
L 3481 4863 
L 3481 0 
L 2906 0 
L 2906 525 
Q 2725 213 2448 61 
Q 2172 -91 1784 -91 
Q 1150 -91 751 415 
Q 353 922 353 1747 
Q 353 2572 751 3078 
Q 1150 3584 1784 3584 
Q 2172 3584 2448 3432 
Q 2725 3281 2906 2969 
z
M 947 1747 
Q 947 1113 1208 752 
Q 1469 391 1925 391 
Q 2381 391 2643 752 
Q 2906 1113 2906 1747 
Q 2906 2381 2643 2742 
Q 2381 3103 1925 3103 
Q 1469 3103 1208 2742 
Q 947 2381 947 1747 
z
" transform="scale(0.015625)"/>
      <path id="DejaVuSans-29" d="M 513 4856 
L 1013 4856 
Q 1481 4119 1714 3412 
Q 1947 2706 1947 2009 
Q 1947 1309 1714 600 
Q 1481 -109 1013 -844 
L 513 -844 
Q 928 -128 1133 580 
Q 1338 1288 1338 2009 
Q 1338 2731 1133 3434 
Q 928 4138 513 4856 
z
" transform="scale(0.015625)"/>
     </defs>
     <use xlink:href="#DejaVuSans-54"/>
     <use xlink:href="#DejaVuSans-61" transform="translate(44.583984 0)"/>
     <use xlink:href="#DejaVuSans-73" transform="translate(105.863281 0)"/>
     <use xlink:href="#DejaVuSans-6b" transform="translate(157.962891 0)"/>
     <use xlink:href="#DejaVuSans-20" transform="translate(215.873047 0)"/>
     <use xlink:href="#DejaVuSans-50" transform="translate(247.660156 0)"/>
     <use xlink:href="#DejaVuSans-65" transform="translate(304.337891 0)"/>
     <use xlink:href="#DejaVuSans-72" transform="translate(365.861328 0)"/>
     <use xlink:href="#DejaVuSans-66" transform="translate(406.974609 0)"/>
     <use xlink:href="#DejaVuSans-6f" transform="translate(442.179688 0)"/>
     <use xlink:href="#DejaVuSans-72" transform="translate(503.361328 0)"/>
     <use xlink:href="#DejaVuSans-6d" transform="translate(542.724609 0)"/>
     <use xlink:href="#DejaVuSans-61" transform="translate(640.136719 0)"/>
     <use xlink:href="#DejaVuSans-6e" transform="translate(701.416016 0)"/>
     <use xlink:href="#DejaVuSans-63" transform="translate(764.794922 0)"/>
     <use xlink:href="#DejaVuSans-65" transform="translate(819.775391 0)"/>
     <use xlink:href="#DejaVuSans-3a" transform="translate(881.298828 0)"/>
     <use xlink:href="#DejaVuSans-20" transform="translate(914.990234 0)"/>
     <use xlink:href="#DejaVuSans-4e" transform="translate(946.777344 0)"/>
     <use xlink:href="#DejaVuSans-41" transform="translate(1021.582031 0)"/>
     <use xlink:href="#DejaVuSans-52" transform="translate(1089.990234 0)"/>
     <use xlink:href="#DejaVuSans-4d" transform="translate(1159.472656 0)"/>
     <use xlink:href="#DejaVuSans-41" transform="translate(1245.751953 0)"/>
     <use xlink:href="#DejaVuSans-32" transform="translate(1314.160156 0)"/>
     <use xlink:href="#DejaVuSans-20" transform="translate(1377.783203 0)"/>
     <use xlink:href="#DejaVuSans-28" transform="translate(1409.570312 0)"/>
     <use xlink:href="#DejaVuSans-76" transform="translate(1448.583984 0)"/>
     <use xlink:href="#DejaVuSans-61" transform="translate(1507.763672 0)"/>
     <use xlink:href="#DejaVuSans-6c" transform="translate(1569.042969 0)"/>
     <use xlink:href="#DejaVuSans-69" transform="translate(1596.826172 0)"/>
     <use xlink:href="#DejaVuSans-64" transform="translate(1624.609375 0)"/>
     <use xlink:href="#DejaVuSans-61" transform="translate(1688.085938 0)"/>
     <use xlink:href="#DejaVuSans-74" transform="translate(1749.365234 0)"/>
     <use xlink:href="#DejaVuSans-69" transform="translate(1788.574219 0)"/>
     <use xlink:href="#DejaVuSans-6f" transform="translate(1816.357422 0)"/>
     <use xlink:href="#DejaVuSans-6e" transform="translate(1877.539062 0)"/>
     <use xlink:href="#DejaVuSans-20" transform="translate(1940.917969 0)"/>
     <use xlink:href="#DejaVuSans-73" transform="translate(1972.705078 0)"/>
     <use xlink:href="#DejaVuSans-65" transform="translate(2024.804688 0)"/>
     <use xlink:href="#DejaVuSans-74" transform="translate(2086.328125 0)"/>
     <use xlink:href="#DejaVuSans-29" transform="translate(2125.537109 0)"/>
    </g>
   </g>
   <g id="legend_1">
    <g id="patch_7">
     <path d="M 519.470312 59.674375 
L 601.14375 59.674375 
Q 603.14375 59.674375 603.14375 57.674375 
L 603.14375 29.318125 
Q 603.14375 27.318125 601.14375 27.318125 
L 519.470312 27.318125 
Q 517.470312 27.318125 517.470312 29.318125 
L 517.470312 57.674375 
Q 517.470312 59.674375 519.470312 59.674375 
z
" style="fill: #ffffff; opacity: 0.8; stroke: #cccccc; stroke-linejoin: miter"/>
    </g>
    <g id="line2d_27">
     <path d="M 521.470312 35.416562 
L 531.470312 35.416562 
L 541.470312 35.416562 
" style="fill: none; stroke-dasharray: 5.55,2.4; stroke-dashoffset: 0; stroke: #008000; stroke-width: 1.5"/>
    </g>
    <g id="text_16">
     <!-- Target -->
     <g transform="translate(549.470312 38.916562) scale(0.1 -0.1)">
      <use xlink:href="#DejaVuSans-54"/>
      <use xlink:href="#DejaVuSans-61" transform="translate(44.583984 0)"/>
      <use xlink:href="#DejaVuSans-72" transform="translate(105.863281 0)"/>
      <use xlink:href="#DejaVuSans-67" transform="translate(145.226562 0)"/>
      <use xlink:href="#DejaVuSans-65" transform="translate(208.703125 0)"/>
      <use xlink:href="#DejaVuSans-74" transform="translate(270.226562 0)"/>
     </g>
    </g>
    <g id="line2d_28">
     <path d="M 521.470312 50.094687 
L 531.470312 50.094687 
L 541.470312 50.094687 
" style="fill: none; stroke: #ff0000; stroke-width: 1.5; stroke-linecap: square"/>
    </g>
    <g id="text_17">
     <!-- Prediction -->
     <g transform="translate(549.470312 53.594687) scale(0.1 -0.1)">
      <use xlink:href="#DejaVuSans-50"/>
      <use xlink:href="#DejaVuSans-72" transform="translate(58.552734 0)"/>
      <use xlink:href="#DejaVuSans-65" transform="translate(97.416016 0)"/>
      <use xlink:href="#DejaVuSans-64" transform="translate(158.939453 0)"/>
      <use xlink:href="#DejaVuSans-69" transform="translate(222.416016 0)"/>
      <use xlink:href="#DejaVuSans-63" transform="translate(250.199219 0)"/>
      <use xlink:href="#DejaVuSans-74" transform="translate(305.179688 0)"/>
      <use xlink:href="#DejaVuSans-69" transform="translate(344.388672 0)"/>
      <use xlink:href="#DejaVuSans-6f" transform="translate(372.171875 0)"/>
      <use xlink:href="#DejaVuSans-6e" transform="translate(433.353516 0)"/>
     </g>
    </g>
   </g>
  </g>
 </g>
 <defs>
  <clipPath id="pbf3f9ca853">
   <rect x="50.14375" y="22.318125" width="558" height="221.76"/>
  </clipPath>
 </defs>
</svg>
